<svg width="75" height="75" viewBox="0 0 75 75" fill="none" xmlns="http://www.w3.org/2000/svg">
<g id="&#208;&#145;&#208;&#181;&#208;&#183; &#208;&#189;&#208;&#176;&#208;&#183;&#208;&#178;&#208;&#176;&#208;&#189;&#208;&#184;&#209;&#143; (73) 1">
<path id="Vector" d="M24.0422 72.6565C24.2105 72.6564 24.3769 72.6201 24.5299 72.55C24.6829 72.4799 24.8191 72.3776 24.929 72.2502C25.039 72.1228 25.1202 71.9732 25.1672 71.8115C25.2142 71.6499 25.2257 71.48 25.2012 71.3135L22.9395 55.9619L34.9008 52.9525C35.5022 52.8574 36.0761 52.634 36.5836 52.2975C37.0911 51.9611 37.5204 51.5194 37.8422 51.0025L44.3566 40.4662C44.468 40.2886 44.5296 40.0843 44.5351 39.8747C44.5406 39.6651 44.4898 39.4579 44.3879 39.2746C44.286 39.0913 44.1369 38.9388 43.956 38.8328C43.7751 38.7268 43.569 38.6713 43.3594 38.6721H39.7371C39.431 38.6709 39.1366 38.7895 38.9168 39.0026L32.018 45.7033H18.6199C19.7872 44.5642 20.5883 43.103 20.9212 41.5064C21.254 39.9098 21.1033 38.2502 20.4883 36.7396C19.8734 35.229 18.8221 33.936 17.4688 33.0258C16.1155 32.1156 14.5216 31.6294 12.8906 31.6294C11.2597 31.6294 9.66575 32.1156 8.31243 33.0258C6.95912 33.936 5.90785 35.229 5.29292 36.7396C4.67798 38.2502 4.5273 39.9098 4.8601 41.5064C5.1929 43.103 5.99409 44.5642 7.16133 45.7033H7.09805C5.85146 45.6905 4.65071 46.1728 3.75936 47.0444C2.86802 47.916 2.35889 49.1056 2.34375 50.3522V71.4846C2.34375 71.7954 2.46721 72.0935 2.68698 72.3132C2.90675 72.533 3.20482 72.6565 3.51562 72.6565H24.0422ZM7.03125 39.844C7.03125 38.6851 7.3749 37.5522 8.01873 36.5887C8.66257 35.6251 9.57768 34.8741 10.6483 34.4306C11.719 33.9871 12.8971 33.8711 14.0337 34.0972C15.1703 34.3233 16.2144 34.8813 17.0338 35.7008C17.8533 36.5202 18.4113 37.5642 18.6374 38.7008C18.8635 39.8375 18.7475 41.0156 18.304 42.0862C17.8605 43.1569 17.1095 44.072 16.1459 44.7158C15.1824 45.3597 14.0495 45.7033 12.8906 45.7033C11.3372 45.7015 9.84792 45.0835 8.74948 43.9851C7.65103 42.8867 7.03311 41.3974 7.03125 39.844ZM4.6875 50.3522C4.70256 49.7272 4.96472 49.1337 5.41655 48.7016C5.86837 48.2695 6.47302 48.0342 7.09805 48.0471H32.4938C32.7999 48.0483 33.0943 47.9297 33.3141 47.7166L40.2117 41.0158H41.257L35.8488 49.765C35.6912 50.0077 35.4824 50.213 35.237 50.3664C34.9917 50.5199 34.7157 50.6178 34.4285 50.6533L21.3398 53.9416C21.0581 54.0126 20.8127 54.1857 20.6514 54.4274C20.4901 54.669 20.4243 54.962 20.4668 55.2494L22.684 70.3127H4.6875V50.3522Z" fill="black"/>
<path id="Vector_2" d="M71.4844 23.4375H65.625V17.1621L68.2324 18.6035C68.4249 18.7097 68.6433 18.7595 68.8627 18.7475C69.0822 18.7354 69.2938 18.6619 69.4734 18.5353C69.6531 18.4086 69.7935 18.2341 69.8787 18.0315C69.9638 17.8289 69.9903 17.6064 69.9551 17.3895L69.2203 12.8906L72.3234 9.71133C72.4739 9.55711 72.579 9.36439 72.6271 9.15434C72.6751 8.94428 72.6644 8.72504 72.596 8.52071C72.5275 8.31639 72.4041 8.13488 72.2392 7.99616C72.0743 7.85743 71.8744 7.76685 71.6613 7.73438L67.4215 7.08633L65.5137 3.01758C65.419 2.81626 65.2691 2.64603 65.0812 2.52679C64.8934 2.40756 64.6756 2.34424 64.4531 2.34424C64.2307 2.34424 64.0128 2.40756 63.825 2.52679C63.6372 2.64603 63.4872 2.81626 63.3926 3.01758L61.4848 7.08047L57.2449 7.73438C57.0319 7.76685 56.832 7.85743 56.6671 7.99616C56.5022 8.13488 56.3787 8.31639 56.3103 8.52071C56.2419 8.72504 56.2311 8.94428 56.2792 9.15434C56.3273 9.36439 56.4323 9.55711 56.5828 9.71133L59.6859 12.8906L58.9512 17.3953C58.9159 17.6123 58.9424 17.8347 59.0276 18.0373C59.1127 18.2399 59.2532 18.4145 59.4328 18.5411C59.6124 18.6677 59.8241 18.7413 60.0435 18.7533C60.263 18.7654 60.4814 18.7155 60.6738 18.6094L63.2812 17.1621V24.6094C63.2812 24.9202 63.4047 25.2183 63.6245 25.438C63.8443 25.6578 64.1423 25.7813 64.4531 25.7813H70.3125V30.4688H59.7656C59.4548 30.4688 59.1568 30.5922 58.937 30.812C58.7172 31.0318 58.5938 31.3298 58.5938 31.6406V45.7031H45.7031C45.4085 45.7021 45.1242 45.8121 44.9071 46.0113C44.6899 46.2104 44.5557 46.4841 44.5312 46.7777L43.4531 59.7656H29.2969C28.9861 59.7656 28.688 59.8891 28.4682 60.1089C28.2485 60.3286 28.125 60.6267 28.125 60.9375V72.6563H30.4688V62.1094H44.5312C44.8259 62.1104 45.1101 62.0004 45.3273 61.8012C45.5445 61.6021 45.6787 61.3284 45.7031 61.0348L46.7812 48.0469H59.7656C60.0764 48.0469 60.3745 47.9234 60.5943 47.7036C60.814 47.4839 60.9375 47.1858 60.9375 46.875V32.8125H71.4844C71.7952 32.8125 72.0932 32.689 72.313 32.4693C72.5328 32.2495 72.6562 31.9514 72.6562 31.6406V24.6094C72.6562 24.2986 72.5328 24.0005 72.313 23.7807C72.0932 23.561 71.7952 23.4375 71.4844 23.4375ZM61.7766 11.6719L59.8535 9.70079L62.4609 9.30352C62.6512 9.27438 62.8313 9.19883 62.9854 9.08356C63.1395 8.96829 63.2628 8.81683 63.3445 8.64258L64.4531 6.27305L65.5652 8.64258C65.6469 8.81683 65.7703 8.96829 65.9244 9.08356C66.0785 9.19883 66.2586 9.27438 66.4488 9.30352L69.0527 9.70079L67.1297 11.6719C67.0017 11.8031 66.9063 11.9626 66.8511 12.1374C66.796 12.3123 66.7826 12.4976 66.8121 12.6785L67.2539 15.3844L65.0191 14.1504C64.8458 14.0548 64.6511 14.0046 64.4531 14.0046C64.2552 14.0046 64.0604 14.0548 63.8871 14.1504L61.6523 15.3844L62.0941 12.6785C62.1236 12.4976 62.1103 12.3123 62.0551 12.1374C62 11.9626 61.9045 11.8031 61.7766 11.6719Z" fill="black"/>
<path id="Vector_3" d="M36.8743 28.8436L39.8696 35.228C39.9508 35.4013 40.0732 35.5521 40.2261 35.6672C40.379 35.7823 40.5578 35.8582 40.7468 35.8883C40.9358 35.9184 41.1293 35.9017 41.3104 35.8397C41.4915 35.7777 41.6547 35.6723 41.7856 35.5326L49.7274 27.0705L52.0208 29.0182C52.2324 29.1981 52.5012 29.2969 52.779 29.2971C52.9015 29.2972 53.0234 29.2778 53.1399 29.2397C53.3301 29.1783 53.5014 29.0693 53.6376 28.9231C53.7738 28.7768 53.8703 28.5982 53.918 28.4041L56.2172 19.0291C56.2682 18.8214 56.2613 18.6036 56.1973 18.3994C56.1333 18.1953 56.0146 18.0126 55.8542 17.8711C55.6937 17.7296 55.4976 17.6347 55.2871 17.5967C55.0765 17.5588 54.8596 17.5792 54.6598 17.6557L45.4618 21.1713C45.2708 21.2437 45.102 21.3647 44.9722 21.5223C44.8424 21.68 44.756 21.8688 44.7217 22.0702C44.6873 22.2715 44.7062 22.4783 44.7764 22.6701C44.8466 22.8618 44.9657 23.0319 45.1219 23.1635L47.9344 25.5553L41.2547 32.6733L38.3895 26.5666C38.3161 26.4103 38.209 26.2722 38.0759 26.1621C37.9429 26.052 37.7871 25.9726 37.6199 25.9298C37.4526 25.8869 37.2779 25.8815 37.1082 25.914C36.9386 25.9465 36.7783 26.0161 36.6387 26.1178L23.9192 35.3815L25.2997 37.2752L36.8743 28.8436ZM53.4071 20.6405L52.0922 26.0041L48.1477 22.6537L53.4071 20.6405Z" fill="black"/>
</g>
</svg>
