<svg width="75" height="75" viewBox="0 0 75 75" fill="none" xmlns="http://www.w3.org/2000/svg">
<g id="&#208;&#145;&#208;&#181;&#208;&#183; &#208;&#189;&#208;&#176;&#208;&#183;&#208;&#178;&#208;&#176;&#208;&#189;&#208;&#184;&#209;&#143; (74) 1">
<path id="Vector" d="M37.5 20.3125C36.6371 20.3125 35.9375 21.0121 35.9375 21.875V37.1063L31.4362 45.5078C31.4358 45.5086 31.4365 45.507 31.4362 45.5078C31.0291 46.2677 31.3141 47.2157 32.074 47.6227C32.3006 47.7459 32.5546 47.8098 32.8125 47.8088C33.3881 47.809 33.917 47.4922 34.1888 46.9849L38.8763 38.2385C38.998 38.0114 39.0621 37.7577 39.0625 37.5V21.875C39.0625 21.0121 38.3629 20.3125 37.5 20.3125ZM37.5 6.25C20.2412 6.25 6.25 20.2412 6.25 37.5C6.25 54.7588 20.2412 68.75 37.5 68.75C54.7504 68.7298 68.7298 54.7504 68.75 37.5C68.75 20.2412 54.7588 6.25 37.5 6.25ZM37.5 65.625C21.9669 65.625 9.375 53.0331 9.375 37.5C9.375 21.9669 21.9669 9.375 37.5 9.375C53.026 9.39198 65.608 21.974 65.625 37.5C65.625 53.0331 53.0331 65.625 37.5 65.625Z" fill="black"/>
</g>
</svg>
