<svg width="75" height="75" viewBox="0 0 75 75" fill="none" xmlns="http://www.w3.org/2000/svg">
<g id="&#208;&#145;&#208;&#181;&#208;&#183; &#208;&#189;&#208;&#176;&#208;&#183;&#208;&#178;&#208;&#176;&#208;&#189;&#208;&#184;&#209;&#143; (72) 1">
<path id="Vector" d="M17.5 60.4546H9.65907C8.97725 60.4546 8.52271 60.9091 8.52271 61.591C8.52271 62.2728 8.97725 62.7273 9.65907 62.7273H17.5C18.1818 62.7273 18.6363 62.2728 18.6363 61.591C18.6363 61.0228 18.1818 60.4546 17.5 60.4546Z" fill="black"/>
<path id="Vector_2" d="M72.7273 10.6816H24.8864C23.4091 8.1816 20.7954 6.47705 17.6136 6.47705H9.43181C4.88635 6.47705 1.13635 10.2271 1.13635 14.7725V50.9089C1.13635 61.1361 1.13635 61.1361 1.24999 61.7043C1.36363 61.818 2.38635 68.5225 9.43181 68.5225H17.7273C22.0454 68.5225 25.5682 64.9998 25.7954 61.818H72.7273C73.4091 61.818 73.8636 61.3634 73.8636 60.6816V11.818C73.8636 11.1361 73.4091 10.6816 72.7273 10.6816ZM3.40908 50.9089V14.6589C3.40908 11.3634 6.13635 8.63614 9.43181 8.63614H17.7273C21.0227 8.63614 23.75 11.3634 23.75 14.6589V57.1589C22.1591 55.4543 20 54.5452 17.7273 54.5452H9.43181C7.15908 54.5452 4.99999 55.4543 3.40908 57.1589V50.9089ZM23.5227 61.818C22.8409 64.5452 20.4545 66.3634 17.7273 66.3634H9.43181C6.70453 66.3634 4.31817 64.5452 3.63635 61.818C3.52272 61.3634 3.74999 60.3407 4.54544 59.318C5.11363 58.5225 6.81817 56.818 9.43181 56.818H17.7273C21.25 56.818 23.8636 60.3407 23.5227 61.818ZM71.5909 59.6589H26.0227V14.6589C26.0227 14.0907 25.9091 13.4089 25.7954 12.8407H71.5909V59.6589Z" fill="black"/>
<path id="Vector_3" d="M34.5455 33.9775C34.7728 34.2047 35.1137 34.432 35.4546 34.432C35.7955 34.432 36.1364 34.3184 36.3637 33.9775L41.0228 28.0684C41.3637 27.6138 41.3637 27.0456 41.0228 26.7047L36.1364 20.5684C35.9091 20.3411 35.5682 20.1138 35.2273 20.1138C34.8864 20.1138 34.5455 20.2275 34.3182 20.5684L29.6591 26.4774C29.3182 26.932 29.3182 27.5002 29.6591 27.8411L34.5455 33.9775ZM35.2273 23.0684L38.6364 27.3865L35.4546 31.4775L32.0455 27.1593L35.2273 23.0684ZM48.9773 34.8865C49.2046 35.1138 49.5455 35.3411 49.8864 35.3411C50.2273 35.3411 50.5682 35.2274 50.7955 34.8865L55.4546 28.9775C55.7955 28.5229 55.7955 27.9547 55.4546 27.6138L50.5682 21.4774C50.3409 21.2502 50 21.0229 49.6591 21.0229C49.3182 21.0229 48.9773 21.1365 48.75 21.4774L44.0909 27.3865C43.75 27.8411 43.75 28.4093 44.0909 28.7502L48.9773 34.8865ZM49.7728 23.9775L53.1819 28.2956L50 32.3865L46.5909 28.0684L49.7728 23.9775ZM63.4091 35.7956C63.6364 36.0229 63.9773 36.2502 64.3182 36.2502C64.6591 36.2502 65 36.1365 65.2273 35.7956L69.8864 29.8865C70.2273 29.432 70.2273 28.8638 69.8864 28.5229L65 22.3865C64.7728 22.1593 64.4319 21.932 64.0909 21.932C63.75 21.932 63.4091 22.0456 63.1819 22.3865L58.5228 28.2956C58.1819 28.7502 58.1819 29.3184 58.5228 29.6593L63.4091 35.7956ZM64.2046 25.0002L67.6137 29.3184L64.4319 33.4093L61.0228 29.0911L64.2046 25.0002ZM34.5455 51.2502C34.7728 51.4774 35.1137 51.7047 35.4546 51.7047C35.7955 51.7047 36.1364 51.5911 36.3637 51.2502L41.0228 45.3411C41.3637 44.8865 41.3637 44.3184 41.0228 43.9774L36.1364 37.8411C35.9091 37.6138 35.5682 37.3865 35.2273 37.3865C34.8864 37.3865 34.5455 37.5002 34.3182 37.8411L29.6591 43.7502C29.3182 44.2047 29.3182 44.7729 29.6591 45.1138L34.5455 51.2502ZM35.2273 40.3411L38.6364 44.6593L35.4546 48.7502L32.0455 44.432L35.2273 40.3411ZM48.9773 52.1593C49.2046 52.3865 49.5455 52.6138 49.8864 52.6138C50.2273 52.6138 50.5682 52.5002 50.7955 52.1593L55.4546 46.2502C55.7955 45.7956 55.7955 45.2274 55.4546 44.8865L50.5682 38.7502C50.3409 38.5229 50 38.2956 49.6591 38.2956C49.3182 38.2956 48.9773 38.4093 48.75 38.7502L44.0909 44.6593C43.75 45.1138 43.75 45.682 44.0909 46.0229L48.9773 52.1593ZM49.7728 41.3638L53.1819 45.682L50 49.7729L46.5909 45.4547L49.7728 41.3638ZM63.4091 53.182C63.6364 53.4093 63.9773 53.6365 64.3182 53.6365C64.6591 53.6365 65 53.5229 65.2273 53.182L69.8864 47.2729C70.2273 46.8184 70.2273 46.2502 69.8864 45.9093L65 39.7729C64.7728 39.5456 64.4319 39.3184 64.0909 39.3184C63.75 39.3184 63.4091 39.432 63.1819 39.7729L58.5228 45.682C58.1819 46.1365 58.1819 46.7047 58.5228 47.0456L63.4091 53.182ZM64.2046 42.2729L67.6137 46.5911L64.4319 50.682L61.0228 46.3638L64.2046 42.2729ZM37.7273 55.1138H33.0682C32.3864 55.1138 31.9319 55.5684 31.9319 56.2502C31.9319 56.932 32.3864 57.3865 33.0682 57.3865H37.7273C38.4091 57.3865 38.8637 56.932 38.8637 56.2502C38.8637 55.682 38.2955 55.1138 37.7273 55.1138ZM52.1591 55.1138H47.5C46.8182 55.1138 46.3637 55.5684 46.3637 56.2502C46.3637 56.932 46.8182 57.3865 47.5 57.3865H52.1591C52.8409 57.3865 53.2955 56.932 53.2955 56.2502C53.2955 55.682 52.7273 55.1138 52.1591 55.1138ZM66.5909 55.1138H61.9319C61.25 55.1138 60.7955 55.5684 60.7955 56.2502C60.7955 56.932 61.25 57.3865 61.9319 57.3865H66.5909C67.2728 57.3865 67.7273 56.932 67.7273 56.2502C67.7273 55.682 67.2728 55.1138 66.5909 55.1138ZM33.0682 17.8411H37.7273C38.4091 17.8411 38.8637 17.3865 38.8637 16.7047C38.8637 16.0229 38.4091 15.5684 37.7273 15.5684H33.0682C32.3864 15.5684 31.9319 16.0229 31.9319 16.7047C31.9319 17.2729 32.3864 17.8411 33.0682 17.8411ZM47.5 17.8411H52.1591C52.8409 17.8411 53.2955 17.3865 53.2955 16.7047C53.2955 16.0229 52.8409 15.5684 52.1591 15.5684H47.5C46.8182 15.5684 46.3637 16.0229 46.3637 16.7047C46.3637 17.2729 46.8182 17.8411 47.5 17.8411ZM61.9319 17.8411H66.5909C67.2728 17.8411 67.7273 17.3865 67.7273 16.7047C67.7273 16.0229 67.2728 15.5684 66.5909 15.5684H61.9319C61.25 15.5684 60.7955 16.0229 60.7955 16.7047C60.7955 17.2729 61.25 17.8411 61.9319 17.8411Z" fill="black"/>
</g>
</svg>
