<svg width="189" height="77" viewBox="0 0 189 77" fill="none" xmlns="http://www.w3.org/2000/svg">
<path d="M10.1649 62.3447C8.5555 62.3447 6.94606 62.3447 5.43321 62.1056C4.57813 61.9376 3.78022 61.5536 3.1154 60.9902C2.45059 60.4268 1.94095 59.7027 1.63493 58.8868C0.871598 56.9968 1.87405 55.2724 3.91114 55.2402C5.24927 55.2126 6.00339 54.8999 6.41724 53.5618C6.8311 52.2237 7.90253 51.7225 9.24066 51.7225C10.703 51.7225 11.9997 52.4122 12.3078 53.7779C12.6527 55.346 12.5377 57.0382 12.4182 58.6568C12.3906 59.0431 11.5583 59.6271 11.0387 59.6685C9.55056 59.7804 8.05586 59.7727 6.569 59.6455C4.94117 59.5167 3.695 58.7626 3.35012 56.9094L2.80752 57.0704C2.8397 57.6268 2.71556 58.2614 2.93628 58.7304C3.2367 59.4563 3.7477 60.0756 4.4034 60.5084C5.05909 60.9411 5.82942 61.1675 6.615 61.1584C8.81303 61.071 11.1858 60.9652 13.1401 60.0961C22.5024 55.9576 29.6943 49.3911 33.8329 39.8862C39.0658 27.8936 32.0211 13.0638 19.4629 9.41265C19.0904 9.30229 18.6995 9.2563 18.0834 9.13674C18.0328 11.5279 18.442 13.6018 19.7572 16.0849C20.3192 14.496 20.7803 13.1867 21.251 11.8608C21.3237 11.656 21.5299 11.5302 21.7453 11.5591L22.8419 11.7062C23.0789 11.738 23.2521 11.9448 23.24 12.1836C22.7966 20.93 22.0807 31.3369 21.6885 40.0379C21.5 44.0523 21.1882 50.2832 21.1882 54.2976C21.1882 54.2976 20.2814 54.7574 18.3501 55.8426C18.134 52.5042 17.8902 49.2669 17.7201 46.0251C17.107 34.0355 16.4494 20.7661 15.9129 8.77346C15.9129 8.77346 15.3198 8.72749 14.3403 8.81945C7.54847 9.44024 2.52241 16.2596 3.86514 23.1664C5.01014 29.0386 8.23363 33.706 12.5285 37.7295C13.2505 38.4056 13.8664 39.1915 14.5172 39.9429C14.6298 40.0728 14.6269 40.2671 14.5089 40.3922C14.4044 40.5029 14.2377 40.5286 14.1064 40.4516C13.6218 40.1675 13.1548 39.8543 12.7079 39.5137C9.01914 36.3664 6.07443 32.4402 4.08588 28.0177C1.63494 22.3847 1.98899 16.931 5.78727 11.9234C9.24526 8.0837 15.7474 7.39394 15.7474 7.39394C15.7474 7.39394 15.9129 3.25539 16.7223 1.92186C17.2189 0.726282 18.3271 -0.303758 19.7066 0.082507C20.7412 0.381402 22.0794 1.17232 22.4059 2.06441C23.0358 3.78421 23.2704 7.85378 23.2612 9.69314C23.2543 9.52759 24.8154 10.4979 24.8154 10.4979C31.8096 15.0963 36.3114 21.3915 36.854 29.9537C37.2449 35.9868 34.9871 41.3209 31.7406 46.2642C29.1922 50.1093 25.9726 53.4644 22.2357 56.1691C21.9841 56.3398 21.6083 56.6791 21.3317 56.9393C21.096 57.161 20.9548 57.463 20.925 57.7851L20.824 58.8776C20.4975 64.7773 20.2814 70.5069 19.8216 76.3698C19.4255 71.5182 18.6884 62.1946 18.4915 59.7013C18.4668 59.3894 18.1452 59.1992 17.8564 59.3197L11.5445 61.9539C11.0846 62.1608 10.8501 62.8276 10.5374 63.2966C9.1579 65.3521 7.82435 67.2144 6.41724 69.2423C6.00316 69.5349 5.4949 69.0293 5.78527 68.6137L10.1649 62.3447ZM19.4629 2.79555C19.5125 2.84737 18.8288 4.20393 18.442 5.55459C18.1181 6.68582 18.0834 7.85378 18.0834 7.85378C18.0834 7.85378 19.9319 8.30903 21.1367 8.86544C21.316 6.4145 19.4629 2.79555 19.4629 2.79555Z" fill="white"/>
<path d="M11.7467 53.9032C11.5198 52.9007 10.552 52.2975 9.24065 52.2975C8.63778 52.2975 8.14802 52.4111 7.77841 52.6332C7.42154 52.8477 7.13465 53.1877 6.96637 53.7318C6.86488 54.06 6.77415 54.3487 6.67483 54.5844C6.57347 54.825 6.4457 55.0549 6.24642 55.2443C5.85078 55.6203 5.29884 55.707 4.67158 55.7875C3.57922 55.9278 3.05913 56.6211 2.9976 57.2758C2.93655 57.9254 3.31294 58.682 4.36268 58.9933C5.29683 59.2703 6.16256 59.4292 6.71299 59.4727L6.71667 59.473C7.39685 59.5312 8.0681 59.4717 8.77668 59.3771C8.97097 59.3512 9.17104 59.3221 9.37531 59.2924C9.89615 59.2167 10.4443 59.137 10.9939 59.0956M11.7467 53.9032L11.8448 58.6161L11.8449 58.6147M11.7467 53.9032C12.0672 55.3618 11.9674 56.9532 11.8483 58.5695M11.7467 53.9032L11.8449 58.6147M10.9939 59.0956C10.9944 59.0956 10.995 59.0955 10.9955 59.0955L11.0386 59.6687L10.993 59.0957C10.9933 59.0957 10.9936 59.0956 10.9939 59.0956ZM10.9939 59.0956C11.1056 59.0863 11.3417 58.9955 11.5766 58.826C11.686 58.7472 11.7689 58.6695 11.8197 58.6076C11.8332 58.5911 11.8423 58.5784 11.8483 58.5695M11.8483 58.5695C11.8471 58.5845 11.846 58.5996 11.8449 58.6147M11.8483 58.5695C11.8554 58.5586 11.8579 58.5533 11.8578 58.5533C11.8578 58.5533 11.848 58.5741 11.8449 58.6147" fill="#289017" stroke="white" stroke-width="1.1496"/>
<path d="M56.3577 54.6303C55.8358 54.6303 55.35 54.5584 54.9001 54.4144C54.4502 54.2615 54.0814 54.0905 53.7934 53.9016L53.8609 52.1336H54.3468L54.5492 53.6991C54.8371 53.8701 55.116 53.9915 55.386 54.0635C55.6649 54.1355 55.9843 54.1715 56.3442 54.1715C57.046 54.1715 57.6173 54.014 58.0582 53.6991C58.508 53.3752 58.733 52.8984 58.733 52.2686C58.733 51.9536 58.67 51.6837 58.544 51.4588C58.4271 51.2249 58.2246 51.0134 57.9367 50.8245C57.6488 50.6265 57.2529 50.4286 56.7491 50.2307L56.2497 50.0282C55.5389 49.7403 54.9946 49.3939 54.6167 48.989C54.2478 48.5842 54.0634 48.0758 54.0634 47.464C54.0634 46.9421 54.1893 46.5148 54.4413 46.1819C54.7022 45.84 55.0396 45.5835 55.4534 45.4126C55.8763 45.2416 56.3307 45.1562 56.8165 45.1562C57.2934 45.1562 57.6983 45.2192 58.0312 45.3451C58.3731 45.4621 58.697 45.624 59.0029 45.831L58.9489 47.5045H58.4496L58.2471 45.9794C57.8332 45.7275 57.3519 45.6015 56.803 45.6015C56.2002 45.6015 55.7009 45.7455 55.305 46.0334C54.9181 46.3123 54.7247 46.7442 54.7247 47.329C54.7247 47.8149 54.8686 48.2063 55.1565 48.5032C55.4534 48.8001 55.8628 49.052 56.3847 49.259L56.911 49.4614C57.5588 49.7133 58.0627 49.9697 58.4226 50.2307C58.7825 50.4916 59.0344 50.7795 59.1783 51.0944C59.3223 51.4003 59.3943 51.7602 59.3943 52.1741C59.3943 52.6779 59.2638 53.1143 59.0029 53.4832C58.742 53.8521 58.3821 54.1355 57.9232 54.3334C57.4644 54.5314 56.9425 54.6303 56.3577 54.6303ZM69.4023 54.6303C68.5115 54.6303 67.7333 54.4324 67.0675 54.0365C66.4017 53.6316 65.8798 53.0738 65.5019 52.363C65.1331 51.6432 64.9486 50.82 64.9486 49.8933C64.9486 48.9665 65.1376 48.1478 65.5154 47.437C65.9023 46.7262 66.4287 46.1684 67.0945 45.7635C67.7693 45.3586 68.5385 45.1562 69.4023 45.1562C69.8791 45.1562 70.32 45.2102 70.7249 45.3181C71.1388 45.4171 71.5571 45.5925 71.98 45.8445L72.034 47.7474H71.5077L71.2647 46.1009C70.7249 45.768 70.1356 45.6015 69.4968 45.6015C68.768 45.6015 68.1247 45.777 67.5668 46.1279C67.009 46.4698 66.5726 46.9601 66.2577 47.5989C65.9428 48.2378 65.7854 49.0025 65.7854 49.8933C65.7854 50.793 65.9428 51.5623 66.2577 52.2011C66.5726 52.8399 67 53.3302 67.5398 53.6721C68.0887 54.005 68.714 54.1715 69.4158 54.1715C69.7577 54.1715 70.0906 54.1355 70.4145 54.0635C70.7474 53.9915 71.0668 53.8701 71.3727 53.6991L71.6156 52.0256H72.142L72.088 53.9421C71.6471 54.194 71.2062 54.3694 70.7654 54.4684C70.3335 54.5764 69.8791 54.6303 69.4023 54.6303ZM83.3122 45.723V45.3451H86.8347V45.723L85.4581 45.831C85.4491 46.4338 85.4401 47.0456 85.4311 47.6664C85.4311 48.2872 85.4311 48.9081 85.4311 49.5289V50.2577C85.4311 50.8785 85.4311 51.4993 85.4311 52.1201C85.4401 52.7319 85.4491 53.3437 85.4581 53.9556L86.8347 54.0635V54.4414H83.3122V54.0635L84.6888 53.9556C84.6978 53.3437 84.7023 52.7094 84.7023 52.0526C84.7023 51.3868 84.7023 50.667 84.7023 49.8933H79.6818C79.6818 50.73 79.6818 51.4723 79.6818 52.1201C79.6908 52.7589 79.6998 53.3707 79.7088 53.9556L81.0854 54.0635V54.4414H77.5629V54.0635L78.9395 53.9556C78.9485 53.3437 78.953 52.7319 78.953 52.1201C78.953 51.4993 78.953 50.8785 78.953 50.2577V49.5289C78.953 48.9081 78.953 48.2917 78.953 47.6799C78.953 47.0591 78.9485 46.4428 78.9395 45.831L77.5629 45.723V45.3451H81.0854V45.723L79.7088 45.831C79.6998 46.4338 79.6908 47.0456 79.6818 47.6664C79.6818 48.2782 79.6818 48.8811 79.6818 49.4749H84.7023C84.7023 48.8181 84.7023 48.1928 84.7023 47.5989C84.7023 46.9961 84.6978 46.4068 84.6888 45.831L83.3122 45.723ZM96.0988 54.6303C95.379 54.6303 94.7132 54.4414 94.1014 54.0635C93.4986 53.6856 93.0127 53.1413 92.6438 52.4305C92.2839 51.7197 92.104 50.874 92.104 49.8933C92.104 48.9216 92.2839 48.0848 92.6438 47.383C93.0127 46.6722 93.4986 46.1234 94.1014 45.7365C94.7132 45.3496 95.379 45.1562 96.0988 45.1562C96.8276 45.1562 97.4934 45.3496 98.0962 45.7365C98.708 46.1144 99.1939 46.6587 99.5538 47.3695C99.9227 48.0713 100.107 48.9126 100.107 49.8933C100.107 50.865 99.9227 51.7062 99.5538 52.417C99.1939 53.1188 98.708 53.6631 98.0962 54.05C97.4934 54.4369 96.8276 54.6303 96.0988 54.6303ZM96.0988 54.1715C96.6116 54.1715 97.066 54.059 97.4619 53.8341C97.8578 53.6002 98.1907 53.2853 98.4606 52.8894C98.7305 52.4845 98.933 52.0256 99.0679 51.5128C99.2029 50.9999 99.2704 50.4601 99.2704 49.8933C99.2704 49.3264 99.2029 48.7866 99.0679 48.2737C98.933 47.7609 98.7305 47.302 98.4606 46.8972C98.1907 46.4923 97.8578 46.1774 97.4619 45.9524C97.066 45.7185 96.6116 45.6015 96.0988 45.6015C95.586 45.6015 95.1316 45.7185 94.7357 45.9524C94.3488 46.1774 94.0204 46.4923 93.7505 46.8972C93.4806 47.302 93.2781 47.7609 93.1432 48.2737C93.0082 48.7866 92.9407 49.3264 92.9407 49.8933C92.9407 50.4601 93.0082 50.9999 93.1432 51.5128C93.2781 52.0256 93.4806 52.4845 93.7505 52.8894C94.0204 53.2853 94.3488 53.6002 94.7357 53.8341C95.1316 54.059 95.586 54.1715 96.0988 54.1715ZM109.808 54.6303C109.089 54.6303 108.423 54.4414 107.811 54.0635C107.208 53.6856 106.722 53.1413 106.353 52.4305C105.993 51.7197 105.813 50.874 105.813 49.8933C105.813 48.9216 105.993 48.0848 106.353 47.383C106.722 46.6722 107.208 46.1234 107.811 45.7365C108.423 45.3496 109.089 45.1562 109.808 45.1562C110.537 45.1562 111.203 45.3496 111.806 45.7365C112.418 46.1144 112.903 46.6587 113.263 47.3695C113.632 48.0713 113.817 48.9126 113.817 49.8933C113.817 50.865 113.632 51.7062 113.263 52.417C112.903 53.1188 112.418 53.6631 111.806 54.05C111.203 54.4369 110.537 54.6303 109.808 54.6303ZM109.808 54.1715C110.321 54.1715 110.776 54.059 111.171 53.8341C111.567 53.6002 111.9 53.2853 112.17 52.8894C112.44 52.4845 112.642 52.0256 112.777 51.5128C112.912 50.9999 112.98 50.4601 112.98 49.8933C112.98 49.3264 112.912 48.7866 112.777 48.2737C112.642 47.7609 112.44 47.302 112.17 46.8972C111.9 46.4923 111.567 46.1774 111.171 45.9524C110.776 45.7185 110.321 45.6015 109.808 45.6015C109.295 45.6015 108.841 45.7185 108.445 45.9524C108.058 46.1774 107.73 46.4923 107.46 46.8972C107.19 47.302 106.988 47.7609 106.853 48.2737C106.718 48.7866 106.65 49.3264 106.65 49.8933C106.65 50.4601 106.718 50.9999 106.853 51.5128C106.988 52.0256 107.19 52.4845 107.46 52.8894C107.73 53.2853 108.058 53.6002 108.445 53.8341C108.841 54.059 109.295 54.1715 109.808 54.1715ZM119.087 45.723V45.3451H122.609V45.723L121.233 45.831C121.224 46.4428 121.215 47.0771 121.206 47.7339C121.206 48.3817 121.206 49.079 121.206 49.8258V50.5411C121.206 51.0359 121.206 51.5848 121.206 52.1876C121.215 52.7814 121.224 53.3842 121.233 53.996H124.863L125.16 52.1066H125.673L125.538 54.4414H119.087V54.0635L120.463 53.9556C120.472 53.3437 120.477 52.7319 120.477 52.1201C120.477 51.4993 120.477 50.8785 120.477 50.2577V49.5289C120.477 48.9081 120.477 48.2872 120.477 47.6664C120.477 47.0456 120.472 46.4338 120.463 45.831L119.087 45.723Z" fill="white"/>
<path d="M53.6796 23.9257L53.8439 18.9436H69.3651L69.502 23.9257H67.6132L67.0383 20.3944H63.4249C63.4066 21.5442 63.3884 22.7121 63.3701 23.8984C63.3701 25.0663 63.3701 26.2434 63.3701 27.4296V28.6067C63.3701 29.7565 63.3701 30.9153 63.3701 32.0833C63.3884 33.233 63.4066 34.3827 63.4249 35.5324L65.9981 35.8062V37.0928H57.1835V35.8062L59.7567 35.5324C59.7932 34.401 59.8115 33.2604 59.8115 32.1106C59.8115 30.9427 59.8115 29.7747 59.8115 28.6067V27.4296C59.8115 26.2617 59.8115 25.0937 59.8115 23.9257C59.8115 22.7395 59.7932 21.5624 59.7567 20.3944H56.1707L55.5958 23.9257H53.6796ZM89.7361 20.3397H87.9841C87.9659 21.5077 87.9476 22.6756 87.9294 23.8436C87.9294 25.0116 87.9294 26.1795 87.9294 27.3475H89.5171C90.9406 27.3475 91.9534 27.0008 92.5556 26.3073C93.1761 25.6138 93.4864 24.7652 93.4864 23.7615C93.4864 21.4803 92.2363 20.3397 89.7361 20.3397ZM82.0713 20.2302V18.9436H90.3109C92.4461 18.9436 94.0886 19.3542 95.2383 20.1754C96.4063 20.9967 96.9903 22.1373 96.9903 23.5972C96.9903 24.2542 96.826 24.893 96.4975 25.5134C96.1873 26.1339 95.6854 26.6723 94.992 27.1285C94.2985 27.5848 93.386 27.9041 92.2545 28.0866C93.4042 28.2691 94.2528 28.6706 94.8003 29.2911C95.3661 29.9116 95.7767 30.8149 96.0322 32.0012L96.8808 35.5872L98.9886 35.8062V37.0928C98.5324 37.2205 98.1309 37.3026 97.7841 37.3391C97.4556 37.3939 97.0268 37.4213 96.4975 37.4213C95.4938 37.4213 94.7091 37.257 94.1434 36.9285C93.5959 36.6 93.2491 36.0161 93.1031 35.1766L92.3093 31.3715C92.1085 30.3496 91.7618 29.6561 91.269 29.2911C90.7946 28.9079 90.0737 28.7162 89.1065 28.7162H87.9294C87.9294 29.939 87.9294 31.116 87.9294 32.2475C87.9476 33.3607 87.9659 34.4648 87.9841 35.5598L90.3109 35.8062V37.0928H82.0713V35.8062L84.3707 35.5598C84.4072 34.4283 84.4255 33.2786 84.4255 32.1106C84.4255 30.9427 84.4255 29.7747 84.4255 28.6067V27.4296C84.4255 26.2799 84.4255 25.1302 84.4255 23.9805C84.4255 22.8125 84.4072 21.6445 84.3707 20.4766L82.0713 20.2302ZM111.253 20.2302V18.9436H125.049L125.241 23.7341H123.325L122.75 20.3944H117.193C117.175 21.5442 117.156 22.6939 117.138 23.8436C117.138 24.9751 117.138 26.0427 117.138 27.0464H120.669L121.025 24.6648H122.449V30.8514H121.025L120.697 28.4972H117.138C117.138 29.8112 117.138 31.0522 117.138 32.2201C117.156 33.3699 117.175 34.5105 117.193 35.6419H123.297L123.872 32.3023H125.788L125.597 37.0928H111.253V35.8062L113.552 35.5598C113.589 34.4283 113.607 33.2786 113.607 32.1106C113.607 30.9427 113.607 29.7747 113.607 28.6067V27.4296C113.607 26.2799 113.607 25.1302 113.607 23.9805C113.607 22.8125 113.589 21.6445 113.552 20.4766L111.253 20.2302ZM175.18 28.3877C175.18 29.647 175.18 30.8788 175.18 32.0833C175.199 33.2877 175.217 34.4831 175.235 35.6693H176.795C178.657 35.6693 180.099 35.0032 181.121 33.671C182.142 32.3388 182.653 30.4591 182.653 28.0319C182.653 25.5317 182.152 23.6246 181.148 22.3106C180.144 20.9967 178.748 20.3397 176.96 20.3397H175.235C175.217 21.5077 175.199 22.6848 175.18 23.871C175.18 25.0572 175.18 26.2434 175.18 27.4296V28.3877ZM169.295 20.2302V18.9436H177.398C179.241 18.9436 180.838 19.2995 182.188 20.0112C183.557 20.7229 184.615 21.754 185.364 23.1045C186.112 24.455 186.486 26.0883 186.486 28.0045C186.486 29.939 186.075 31.5814 185.254 32.9319C184.433 34.2823 183.301 35.3134 181.86 36.0252C180.418 36.7369 178.757 37.0928 176.878 37.0928H169.295V35.8062L171.594 35.5598C171.631 34.4101 171.649 33.2421 171.649 32.0559C171.649 30.8697 171.649 29.647 171.649 28.3877V27.4296C171.649 26.2799 171.649 25.1302 171.649 23.9805C171.649 22.8125 171.631 21.6445 171.594 20.4766L169.295 20.2302Z" fill="white"/>
<path d="M149.704 20.2302V18.9436H156.602V20.2302L154.275 20.5861V37.2023H152.66L142.34 23.0224V35.4229L145.351 35.8062V37.0928H138.453V35.8062L140.78 35.4777V20.8598L140.451 20.4218L138.535 20.2302V18.9436H143.709L152.715 31.3168V20.5861L149.704 20.2302Z" fill="#1F8110"/>
</svg>
