<svg width="60" height="60" viewBox="0 0 60 60" fill="none" xmlns="http://www.w3.org/2000/svg">
<g id="&#208;&#145;&#208;&#181;&#208;&#183; &#208;&#189;&#208;&#176;&#208;&#183;&#208;&#178;&#208;&#176;&#208;&#189;&#208;&#184;&#209;&#143; (69) 1">
<path id="Vector" d="M59 11.1818C58.8181 10.8181 58.2727 10.6363 57.9091 10.7272L46.3636 15.1818L53.4545 4.18177C53.7272 3.81814 53.6363 3.27268 53.2727 2.99996C52.9091 2.72723 52.4545 2.72723 52.0909 2.99996C37.8181 14 26.3636 31 15.6363 28.4545C8.18179 25.7272 0.909058 26.7272 0.909058 34.7272C0.909058 35.0909 1.81815 40.3636 2.72724 43.0909C3.3636 45 5.45451 46.1818 7.45451 45.4545C8.90906 44.909 8.90906 43.8181 8.81815 43.1818C8.63633 38.4545 22.9091 34.0909 24 34.0909C23.9091 34.2727 23.6363 34.6363 23.2727 35.1818C12.8181 47.909 6.3636 48.4545 6.81815 51.2727C7.90906 57.1818 12.9091 58.4545 16.7272 56.0909C23.2727 51.909 26.9091 48.7272 27.3636 46.6363V46.4545C27.2727 42.909 27.5454 37.5454 28.7272 36.5454L28.8181 36.4545C35.6363 28.4545 28 35 58.6363 12.4545C59.0909 12.0909 59.1818 11.5454 59 11.1818ZM27.5454 35.0909C25.4545 37 25.5454 44.4545 25.6363 46.2727C25.0909 47.909 21.4545 50.909 15.8181 54.4545C12.9091 56.2727 9.54542 55.3636 8.72724 51C9.27269 49.7272 15.8181 47.1818 24.7272 36.1818C25.2727 35.4545 26.6363 33.8181 25.7272 32.7272C24.2727 31 6.81815 36.5454 7.09088 43.1818C7.09088 43.5454 7.18178 43.4545 6.90906 43.6363C5.90906 44 4.90906 43.4545 4.54542 42.4545C3.63633 39.8181 2.90906 35.1818 2.72724 34.5454C2.72724 27.8181 9.3636 28 14.9091 30.1818H15C26.5454 33 36.6363 17.4545 48.1818 8.72723C40.1818 21.3636 46.1818 13.5454 27.5454 35.0909ZM38.8181 24.7272C46.5454 15.7272 43.0909 19.8181 44.6363 17.7272L52.1818 14.8181L38.8181 24.7272Z" fill="#CBB79B"/>
<path id="Vector_2" d="M8.4546 30.2725C6.4546 30.2725 4.81824 31.9089 4.81824 33.9089C4.81824 35.9089 6.4546 37.5452 8.4546 37.5452C10.4546 37.5452 12.091 35.9089 12.091 33.9089C12.091 31.9089 10.4546 30.2725 8.4546 30.2725ZM8.4546 35.7271C7.4546 35.7271 6.63642 34.9089 6.63642 33.9089C6.63642 32.9089 7.4546 32.0907 8.4546 32.0907C9.4546 32.0907 10.2728 32.9089 10.2728 33.9089C10.2728 34.9089 9.4546 35.7271 8.4546 35.7271ZM20.5455 45.4543C19.5455 46.7271 15.5455 49.9998 14.0001 51.0907C13.6364 51.3634 13.5455 51.9998 13.8182 52.3634C14.091 52.7271 14.7273 52.818 15.091 52.5452C15.2728 52.3634 20.5455 48.2725 21.9091 46.6362C22.1819 46.2725 22.1819 45.6362 21.8182 45.3634C21.4546 45.0907 20.8182 45.0907 20.5455 45.4543ZM28.1819 29.0907L27.3637 29.7271C27.0001 29.9998 26.9091 30.6362 27.1819 30.9998C27.4546 31.3634 28.091 31.4543 28.4546 31.1816L29.2728 30.5452C29.6364 30.2725 29.7273 29.6362 29.4546 29.2725C29.1819 28.9089 28.5455 28.818 28.1819 29.0907Z" fill="#CBB79B"/>
</g>
</svg>
