<svg width="60" height="60" viewBox="0 0 60 60" fill="none" xmlns="http://www.w3.org/2000/svg">
<g id="&#208;&#145;&#208;&#181;&#208;&#183; &#208;&#189;&#208;&#176;&#208;&#183;&#208;&#178;&#208;&#176;&#208;&#189;&#208;&#184;&#209;&#143; (70) 1">
<path id="Vector" d="M36.6363 19.4548C36.4545 19.0002 36.0909 18.8184 35.6363 18.7275C34.3636 18.5457 32.7272 18.0911 32.4545 17.7275C32.3636 17.5457 32.1818 16.7275 32.1818 16.0911C32.1818 15.6366 31.7272 15.2729 31.2727 15.2729H25.7272C25.2727 15.2729 24.8181 15.6366 24.8181 16.182C24.8181 16.7275 24.7272 17.3639 24.7272 17.4548C24.3636 18.0911 22.5454 18.6366 21.3636 18.7275C20.909 18.7275 20.5454 19.0002 20.2727 19.4548C19.6363 20.8184 21.2727 24.4548 21.3636 24.6366C23.0909 27.0002 23.4545 29.182 22.5454 30.9093C19.0908 37.3639 21.4545 41.0002 21.5454 41.182C21.7272 41.4548 21.9999 41.5457 22.2727 41.5457H34.5454C34.8181 41.5457 35.0908 41.3639 35.2727 41.182C35.3636 41.0002 38.0909 37.182 34.2727 30.8184C32.9999 28.7275 33.1818 26.5457 34.8181 24.6366C34.909 24.6366 37.2727 20.8184 36.6363 19.4548ZM33.4545 23.4548C31.3636 26.0002 31.0909 29.0002 32.7272 31.7275C35.2727 35.9093 34.4545 38.7275 33.9999 39.6366H22.8181C22.4545 38.6366 21.7272 36.0002 24.0909 31.6366C25.3636 29.2729 24.909 26.3639 22.8181 23.4548C22.5454 22.9093 21.909 21.182 21.8181 20.3639C22.909 20.182 25.4545 19.6366 26.1818 18.0911C26.2727 17.9093 26.3636 17.4548 26.4545 17.0002H30.3636C30.4545 17.6366 30.6363 18.3639 30.909 18.7275C31.6363 19.7275 33.7272 20.182 34.8181 20.3639C34.6363 21.3639 33.7272 23.0002 33.4545 23.4548Z" fill="#CBB79B"/>
<path id="Vector_2" d="M40.1818 3.09082H9.90906C7.90906 3.09082 6.27269 4.72718 6.27269 6.72718V9.27264H4.3636C2.45451 9.27264 0.909058 10.8181 0.909058 12.7272C0.909058 14.6363 2.45451 16.1817 4.3636 16.1817H6.27269V20.8181H4.3636C2.45451 20.8181 0.909058 22.3636 0.909058 24.2726C0.909058 26.1817 2.45451 27.7272 4.3636 27.7272H6.27269V32.3635H4.3636C2.45451 32.3635 0.909058 33.909 0.909058 35.8181C0.909058 37.7272 2.45451 39.2726 4.3636 39.2726H6.27269V43.909H4.3636C2.45451 43.8181 0.909058 45.3635 0.909058 47.2726C0.909058 49.1817 2.45451 50.7272 4.3636 50.7272H6.27269V53.2726C6.27269 55.2726 7.90906 56.909 9.90906 56.909H40.1818C43.2727 56.909 45.8181 54.3635 45.8181 51.2726V8.72718C45.8181 5.63628 43.2727 3.09082 40.1818 3.09082ZM2.72724 12.7272C2.72724 11.8181 3.45451 11.0908 4.3636 11.0908H9.99997C10.9091 11.0908 11.6363 11.8181 11.6363 12.7272C11.6363 13.6363 10.9091 14.3635 9.99997 14.3635H4.3636C3.45451 14.3635 2.72724 13.6363 2.72724 12.7272ZM2.72724 24.2726C2.72724 23.3635 3.45451 22.6363 4.3636 22.6363H9.99997C10.9091 22.6363 11.6363 23.3635 11.6363 24.2726C11.6363 25.1817 10.9091 25.909 9.99997 25.909H4.3636C3.45451 25.909 2.72724 25.1817 2.72724 24.2726ZM2.72724 35.7272C2.72724 34.8181 3.45451 34.0908 4.3636 34.0908H9.99997C10.9091 34.0908 11.6363 34.8181 11.6363 35.7272C11.6363 36.6363 10.9091 37.3635 9.99997 37.3635H4.3636C3.45451 37.3635 2.72724 36.6363 2.72724 35.7272ZM2.72724 47.2726C2.72724 46.3635 3.45451 45.6363 4.3636 45.6363H9.99997C10.9091 45.6363 11.6363 46.3635 11.6363 47.2726C11.6363 48.1817 10.9091 48.909 9.99997 48.909H4.3636C3.45451 48.909 2.72724 48.1817 2.72724 47.2726ZM44 51.2726C44 53.3635 42.2727 55.0908 40.1818 55.0908H9.90906C8.90906 55.0908 8.09088 54.2726 8.09088 53.2726V50.7272H9.99997C11.9091 50.7272 13.4545 49.1817 13.4545 47.2726C13.4545 45.3635 11.9091 43.8181 9.99997 43.8181H8.09088V39.1817H9.99997C11.9091 39.1817 13.4545 37.6363 13.4545 35.7272C13.4545 33.8181 11.9091 32.2726 9.99997 32.2726H8.09088V27.6363H9.99997C11.9091 27.6363 13.4545 26.0908 13.4545 24.1817C13.4545 22.2726 11.9091 20.7272 9.99997 20.7272H8.09088V16.0908H9.99997C11.9091 16.0908 13.4545 14.5454 13.4545 12.6363C13.4545 10.7272 11.9091 9.18173 9.99997 9.18173H8.09088V6.72718C8.09088 5.72718 8.90906 4.909 9.90906 4.909H40.1818C42.2727 4.909 44 6.63628 44 8.72718V51.2726ZM54.0909 5.54537H53C50.2727 5.54537 48 7.81809 48 10.5454V44.5454C48 44.7272 48.0909 44.909 48.0909 44.9999L52.9091 53.909C53.0909 54.1817 53.3636 54.3635 53.7272 54.3635C54.0909 54.3635 54.3636 54.1817 54.5454 53.8181L59 44.909C59.0909 44.7272 59.0909 44.6363 59.0909 44.5454V10.6363C59.0909 7.81809 56.8181 5.54537 54.0909 5.54537ZM54.4545 43.7272V16.5454H57.2727V43.7272H54.4545ZM49.8181 16.5454H52.6363V43.7272H49.8181V16.5454ZM53 7.36355H54.0909C55.8181 7.36355 57.2727 8.81809 57.2727 10.5454V14.7272H49.8181V10.5454C49.8181 8.81809 51.2727 7.36355 53 7.36355ZM53.7272 51.5454L50.4545 45.5454H56.7272L53.7272 51.5454Z" fill="#CBB79B"/>
</g>
</svg>
