<svg width="91" height="121" viewBox="0 0 91 121" fill="none" xmlns="http://www.w3.org/2000/svg">
<g id="&#60;Group&#62;" opacity="0.5">
<path id="&#60;Compound Path&#62;" fill-rule="evenodd" clip-rule="evenodd" d="M26.9559 59.9833C28.2185 59.0428 29.3596 58.1757 30.5375 57.3747C32.5693 55.9687 34.6745 54.6949 36.8569 53.4626C37.9684 52.8343 38.9881 52.0407 40.0812 51.3793C41.8221 50.3259 43.6218 49.2811 45.4031 48.2032C46.4557 47.5663 47.5305 46.8719 48.5831 46.235C49.351 45.7997 50.1251 45.3755 50.9053 44.9623C53.1428 43.8292 55.3986 42.7291 57.6765 41.5715C58.6444 41.0742 59.5755 40.5107 60.5655 39.9559C60.768 39.8334 60.952 39.6779 61.1507 39.646C61.6878 39.5417 62.0116 39.3458 62.3102 38.8119C62.524 38.4177 63.1091 38.1078 63.5544 37.8383C64.71 37.2569 65.8838 36.7085 67.0761 36.1931C67.7605 35.8672 68.5589 35.649 69.2617 35.3562C70.1227 35.056 70.9874 34.6652 71.8667 34.398C72.7277 34.0978 73.6254 33.8637 74.4971 33.7777C76.1413 33.6216 77.7229 33.5476 79.3633 33.4821C79.9554 33.477 80.5438 33.5625 81.1138 33.6149C81.2584 33.6156 81.3822 33.6437 81.4851 33.6992C82.1836 33.9829 82.9225 34.2422 83.5988 34.5834C84.7566 35.2073 85.6051 36.1508 86.0671 37.3722C86.1135 37.5207 86.1538 37.6582 86.188 37.7847C86.7746 39.328 86.449 40.9819 85.4908 42.6654C84.5104 44.4064 83.1075 45.8734 81.7412 47.4064C80.8537 48.3407 79.8119 49.1918 78.8656 50.1176C78.1255 50.8303 77.4443 51.5516 76.7814 52.3058C75.3562 53.8304 73.6963 54.8347 71.7504 55.1292C70.9558 55.2568 70.3264 55.6818 69.7704 56.2389C69.2549 56.7716 68.6622 57.2627 68.0695 57.7538C67.2522 58.4249 66.4533 59.129 65.5955 59.8246C64.7782 60.4957 63.9021 61.1583 63.0665 61.7963C62.4555 62.2544 61.8627 62.7454 61.2517 63.2035C60.4161 63.8415 59.5033 64.438 58.6088 65.0675C57.8984 65.5415 57.2064 66.0485 56.4776 66.4894C55.3145 67.2521 54.1588 67.9955 53.0105 68.7198C52.4437 69.0628 51.9174 69.3812 51.3911 69.6997C49.6319 70.72 47.8543 71.7072 46.0951 72.7276C44.1518 73.9034 42.2269 75.1123 40.2652 76.2551C39.0323 76.9569 37.7627 77.5927 36.4931 78.2285C34.9353 78.9945 33.3787 79.7304 31.8233 80.436C30.7378 80.9162 29.6339 81.3634 28.5705 81.7861C27.6335 82.1766 26.7025 82.578 25.7776 82.9905C24.6246 83.5115 23.4581 84.0407 22.2781 84.5781C22.1383 84.6186 21.958 84.6835 21.7961 84.7815C20.7618 85.4515 19.5845 85.7665 18.4623 86.1807C17.502 86.4968 16.4683 86.6808 15.5188 87.2112C15.3974 87.2847 15.2576 87.3251 15.1178 87.3656C13.4622 87.7934 11.8326 88.0731 10.1701 88.1961C8.96367 88.2639 7.93055 87.9619 7.0081 87.3722C5.83953 86.5342 5.35921 85.2797 4.82005 84.0166C4.29924 82.7866 4.70903 81.4791 4.96065 80.1791C5.21984 78.6978 6.23632 77.5088 7.32999 76.3615C8.48249 75.2227 9.61665 74.0508 10.7875 72.945C12.0172 71.8478 13.3241 70.7921 14.5721 69.7279C15.187 69.1793 15.7613 68.6552 16.3945 68.1396C17.2523 67.444 18.1284 66.7815 18.9861 66.0859C19.4083 65.7422 19.85 65.4013 20.3114 65.0633C22.0674 63.6476 23.8638 62.2074 25.6787 60.8003C26.0873 60.4647 26.5915 60.2038 26.9559 59.9833ZM63.3431 42.4251C63.1849 42.4325 63.0451 42.4729 62.9496 42.3983C62.7585 42.249 62.6003 42.2564 62.2986 42.3948C61.5515 42.8027 60.7273 43.1691 59.9618 43.5439C58.377 44.3263 56.7921 45.1086 55.2073 45.891C54.8246 46.0784 54.4564 46.3895 54.1142 46.5524C52.966 47.1147 51.7812 47.6109 50.6735 48.1487C49.989 48.4745 49.3818 48.842 48.7745 49.2094C48.4506 49.4054 48.1672 49.5769 47.8433 49.7729C47.1538 50.2195 46.4582 50.6551 45.7565 51.0797C45.0007 51.537 44.245 51.9943 43.4893 52.4515C42.0944 53.2514 40.6591 54.0757 39.2826 54.9086C38.2888 55.5541 37.3134 56.2326 36.3196 56.878C35.5283 57.401 34.7186 57.8909 33.9272 58.4139C32.9801 59.0459 32.0451 59.6999 31.1224 60.3759C30.3911 60.8773 29.6525 61.3978 28.9065 61.9375C27.7065 62.796 26.6021 63.7292 25.3249 64.5461C23.9484 65.379 22.627 66.311 21.4011 67.3176C19.6267 68.7003 17.9662 70.1906 16.2286 71.6393C15.5733 72.2124 14.9546 72.8517 14.2145 73.5644C14.7257 73.6082 15.0787 73.6595 15.4722 73.6863C16.8109 73.7592 17.77 74.415 18.6482 75.1197C19.012 75.3852 19.291 75.7903 19.5922 76.1379C20.5653 77.4032 21.1374 78.8229 20.4475 80.6973C20.2925 81.1 20.1376 81.5028 19.9788 81.9962C20.4387 81.8503 20.7772 81.778 21.1378 81.6481C21.4579 81.5427 21.8001 81.3798 22.1607 81.2499C23.0216 80.9497 23.8826 80.6495 24.7252 80.3162C26.2485 79.7477 27.7313 79.2036 29.2179 78.569C29.9391 78.3092 30.6457 77.9258 31.389 77.6085C31.9925 77.3317 32.5776 77.0217 33.1995 76.7779C33.7625 76.5256 34.3217 76.3638 34.848 76.0453C36 75.3924 37.1152 74.6735 38.3222 74.1198C39.1281 73.7204 39.8973 73.255 40.6849 72.8226C41.351 72.4637 41.9766 72.1293 42.6022 71.7949C43.8978 71.011 45.1712 70.2846 46.4079 69.4922C48.3328 68.2833 50.2615 66.9838 52.1498 65.7089C52.5141 65.4884 52.8823 65.1773 53.2283 64.9238C54.5902 63.9673 55.9521 63.0108 57.2736 62.0788C57.8037 61.6697 58.2749 61.2521 58.7829 60.9006C59.9019 60.0911 61.0393 59.3146 62.1399 58.4721C63.5535 57.3813 64.9414 56.2766 66.3035 55.1581C67.1208 54.487 67.802 53.7658 68.5421 53.0531C68.4725 52.8304 68.4029 52.6076 68.2928 52.4093C67.9884 51.6664 67.684 50.9235 67.7218 50.0177C67.7958 49.6639 67.9102 49.2856 67.9254 48.9233C67.9708 47.8363 68.4097 46.776 69.0618 45.8076C69.2718 45.5039 69.2389 45.3472 68.989 45.1894C68.8983 45.156 68.8138 45.1336 68.7353 45.1222C67.9264 44.9642 67.1113 44.7951 66.2901 44.6151C66.2313 44.6065 66.132 44.6225 66.1136 44.5894C65.3456 44.083 64.3858 43.9132 63.7835 43.2181C63.5557 43.0028 63.3058 42.8449 63.3431 42.4251ZM72.8426 52.1286C72.9273 51.989 73.0304 51.8824 73.1114 51.8335C73.6318 51.342 74.1387 50.8587 74.6321 50.3836C75.6998 49.3843 76.7271 48.4096 77.7948 47.4103C78.2256 47.0172 78.7336 46.6657 79.0871 46.2311C80.1662 44.9601 81.3997 43.7722 82.5927 42.6089C83.1892 42.0272 83.5687 41.4445 83.8527 40.787C83.9412 40.5569 84.0481 40.3597 84.1145 40.1871C84.3542 39.6448 84.5129 39.1514 84.5578 38.5503C84.5881 37.8257 83.9376 37.3363 84.1887 36.5222C84.2108 36.4646 84.152 36.4561 84.1337 36.4231C83.4984 35.5713 82.7417 34.7931 81.5061 34.6136C79.958 34.3583 78.4947 33.9635 76.7253 34.2836C75.4708 34.5571 74.1651 34.6408 72.9144 34.8236C72.359 34.8948 71.7998 35.0566 71.2184 35.2759C70.4163 35.5847 69.6325 35.9265 68.8082 36.2928C67.5607 36.871 66.3133 37.4493 65.0107 37.9284C64.5104 38.0987 64.0467 38.3351 63.583 38.5715C62.8764 38.9549 62.471 39.6859 62.7646 40.2146C63.1499 40.9085 63.3329 41.7249 63.8985 42.3539C64.523 42.9914 65.3613 43.2347 66.3469 43.2563C66.4462 43.2404 66.5677 43.1669 66.7075 43.1265C66.3804 42.927 66.0457 42.9088 65.7148 42.8C65.4244 42.6667 65.0752 42.5248 64.8475 42.3094C64.6785 42.1026 64.1452 42.1163 64.3666 41.5409C64.6753 41.7073 64.9878 41.783 65.2377 41.9409C65.8331 42.3311 66.4948 42.5488 67.2635 42.5693C67.5798 42.5545 67.8923 42.6303 68.2308 42.5579C68.8855 42.4708 69.522 42.3506 70.1621 42.1398C70.5816 42.0184 71.1667 41.7085 71.3362 41.4294C71.7195 40.756 72.4704 40.2575 72.5816 39.4838C72.567 39.3602 72.7511 39.2047 72.9131 39.1067C74.1276 38.3718 75.3529 37.8511 76.6992 37.7429C76.9162 37.7441 77.2103 37.7868 77.3831 37.903C77.5741 38.0523 77.7506 38.0779 78.0302 37.997C78.9868 37.7714 79.5675 38.0381 79.9345 38.6989C80.063 38.9302 80.1105 39.2106 80.2389 39.4419C80.3307 39.6071 80.4408 39.8053 80.5692 40.0366C81.141 38.6312 79.885 37.0513 78.6457 36.9624C77.958 36.8929 77.2849 36.947 76.5934 36.9681C76.2366 37.0074 75.8798 37.0467 75.4642 37.0775C75.6413 36.6171 75.9576 36.6023 76.2151 36.579C77.1494 36.4109 78.0433 36.2674 78.9258 36.3956C79.1612 36.4298 79.4592 36.3819 79.6945 36.4161C79.871 36.4417 80.1468 36.4514 80.2791 36.5922C80.6429 36.8577 80.944 37.2052 81.2857 37.5282C82.4062 38.572 82.4412 40.0959 81.6487 41.5908C81.4533 42.0181 81.2395 42.4123 80.9852 42.8311C80.6905 43.2743 80.4141 43.7506 80.0238 44.1192C78.8751 45.1674 77.7301 46.1251 76.5447 47.1072C76.0735 47.5248 75.5839 47.9094 75.0943 48.2939C74.623 48.7115 74.1701 49.1621 73.6805 49.5466C73.375 49.7757 73.0106 49.9961 72.6867 50.1921C72.385 50.3306 72.2489 50.2804 72.2565 50.0992C72.853 49.5176 73.4457 49.0265 73.9612 48.4938C74.4584 47.9281 74.9005 47.2633 75.361 46.6315C75.8215 45.9997 75.5684 45.4465 74.8807 45.377C74.6453 45.3428 74.3657 45.4237 74.193 45.3075C73.8659 45.1081 73.5458 45.2134 73.2219 45.4094C72.7178 45.6703 72.2136 45.9312 71.7866 46.2338C71.4001 46.5118 71.0098 46.8804 70.66 47.2245C70.4317 47.4951 70.2217 47.7987 69.9529 48.0938C69.3526 48.7661 68.9471 49.497 69.1301 50.3134C69.2693 50.7589 69.449 51.1799 69.5883 51.6254C69.68 51.7907 69.7534 51.9228 69.8857 52.0635C70.5431 52.8577 72.0981 53.4178 73.6549 52.52C73.8573 52.3975 74.0781 52.308 74.3097 52.4328C74.0073 53.0572 73.5582 53.4173 72.8776 53.6525C72.1785 53.8548 71.5162 54.1231 70.7843 54.1687C71.174 54.286 71.5011 54.4854 71.961 54.3396C72.9618 53.9989 73.9075 53.5591 74.7248 52.888C76.0759 51.7173 77.427 50.5466 78.6643 49.2682C80.4354 47.4901 82.111 45.6375 83.5956 43.6356C84.3065 42.6756 84.9586 41.7071 85.1622 40.6127C85.24 40.1683 85.3177 39.724 85.1159 39.3605C84.9723 39.4915 85.0052 39.6482 84.9793 39.7963C84.6877 40.6349 84.4955 41.4576 83.9282 42.2865C83.1324 43.386 82.2228 44.3779 81.2728 45.3942C80.4663 46.2795 79.7148 47.2639 78.8716 48.0832C78.0689 48.8779 77.1745 49.5074 76.2984 50.17C75.7866 50.6121 75.2566 51.0211 74.7119 51.3065C74.1489 51.5589 73.6264 51.7868 73.2139 52.2129C73.1735 52.2374 72.9786 52.1787 72.8426 52.1286ZM21.6343 65.9845C21.6099 65.9405 21.5793 65.8854 21.5426 65.8193C21.9512 65.4838 22.301 65.1396 22.728 64.8371C24.2373 63.659 25.7061 62.5054 27.1749 61.3518C27.759 60.9101 28.3235 60.4655 28.8683 60.0181C29.4389 59.5846 30.0132 59.0604 30.5838 58.6269C31.2942 58.1529 32.0634 57.6875 32.7922 57.2466C34.5552 56.1357 36.3181 55.0248 38.0995 53.9469C39.7372 53.0001 41.4522 52.0948 43.1083 51.1811C45.5716 49.8377 48.0349 48.4944 50.4982 47.1511C52.2744 46.194 54.0508 45.237 55.8271 44.2799C55.908 44.2309 56.0073 44.2149 56.07 44.1329C56.4311 43.5171 57.0492 43.3638 57.6343 43.0539C58.8229 42.4671 60.0483 41.9464 61.1452 41.1944C61.6753 40.7854 61.76 40.6458 61.5695 40.0106C61.2678 40.149 60.9477 40.2544 60.6643 40.4259C59.413 41.0947 58.1396 41.8211 56.8884 42.4899C55.4568 43.2236 53.9297 43.8827 52.4577 44.641C51.431 45.1298 50.3822 45.6761 49.4105 46.264C47.7323 47.2353 46.0908 48.2728 44.4309 49.2771C44.026 49.5221 43.6395 49.8001 43.2347 50.0451C41.836 50.9355 40.4191 51.7929 39.0021 52.6503C38.2917 53.1242 37.5813 53.5982 36.8526 54.0392C35.6785 54.7496 34.5082 55.3694 33.3342 56.0798C31.5712 57.1907 29.8632 58.4007 28.1736 59.6438C27.5626 60.1018 26.8155 60.5097 26.1639 60.9922C24.5737 62.2194 23.0201 63.5126 21.4077 64.7972C20.3659 65.6484 19.3057 66.4665 18.2822 67.3506C17.6895 67.8417 17.174 68.3744 16.6401 68.874C16.6793 68.8797 16.7111 68.9046 16.7356 68.9486C17.2092 68.6326 17.6828 68.3166 18.1564 68.0007C18.1488 68.1818 18.1267 68.2394 18.0457 68.2884C17.4935 68.7549 16.9413 69.2215 16.389 69.6881C15.778 70.1461 15.1707 70.5136 14.6368 71.0132C13.9005 71.6353 13.2597 72.332 12.5823 72.9627C11.9048 73.5933 11.1318 74.1494 10.5315 74.8216C9.64407 75.7559 8.87427 76.7073 8.064 77.6832C7.68828 78.1754 7.29043 78.7252 6.97354 79.226C6.52763 79.9814 6.08174 80.7368 6.28681 81.4957C6.35263 81.809 6.34128 82.0808 6.24896 82.4015C6.09023 82.8949 6.11181 83.3233 6.41298 83.6708C6.58192 83.8777 6.66987 84.1334 6.8793 84.3158C7.19882 84.6963 7.5367 85.11 7.95933 85.384C8.90391 85.9161 9.95538 86.2511 11.1175 86.2984C11.2352 86.3155 11.3712 86.3657 11.4889 86.3828C11.4864 86.4432 11.4777 86.4925 11.463 86.5309C11.2422 86.6203 11.0398 86.7428 10.8411 86.7747C10.5837 86.7981 10.3483 86.7639 10.113 86.7297C9.39237 86.5035 8.69013 86.3103 7.98789 86.1172C7.71584 86.0169 7.4438 85.9167 7.17175 85.8164C7.74819 86.6596 8.65986 87.035 9.75559 87.2549C10.3035 87.3649 10.8918 87.4504 11.5282 87.3302C12.7422 87.0813 13.9233 86.6757 15.1815 86.3116C15.2404 86.3202 15.3435 86.2137 15.4244 86.1647C15.6673 86.0177 15.8919 85.8376 16.1348 85.6907C17.0071 85.1187 17.8023 84.5051 18.3292 83.7007C18.727 83.1509 18.9888 82.551 19.2874 82.0172C19.3317 81.9022 19.3354 81.8116 19.3614 81.6634C19.0742 81.9255 18.9047 82.2047 18.7352 82.4838C18.3778 83.0091 18.0388 83.5674 17.4315 83.9348C16.9726 84.2125 16.5212 84.4709 16.0771 84.7102C15.492 85.0201 14.9106 85.2394 14.3476 85.4918C14.0459 85.6302 13.851 85.5715 13.8073 85.2007C14.1274 85.0953 14.3703 84.9483 14.6499 84.8674C15.4888 84.6247 16.313 84.2584 16.9355 83.5286C17.4731 82.9384 18.0146 82.2576 18.5339 81.6344C19.4068 80.5765 19.511 79.498 19.3799 78.3853C19.2267 77.3302 18.4441 76.7001 17.9669 75.841C17.8164 75.6672 17.6436 75.551 17.4526 75.4017C16.6516 74.7386 15.6147 74.5272 14.4487 74.5705C13.6801 74.5499 12.9811 74.7522 12.3441 75.3583C11.8237 75.8498 11.3168 76.3331 10.8234 76.8082C10.8013 76.8658 10.7975 76.9563 10.7349 77.0384C11.7173 76.6647 12.6814 76.2579 13.6012 75.9662C15.3193 75.4564 16.9749 75.0286 18.0619 76.4016C18.0741 76.4236 18.0999 76.4375 18.1391 76.4432C18.5579 76.8078 18.675 77.3109 18.6707 77.8874C18.6815 78.1016 18.6334 78.3073 18.3905 78.4543C17.8907 78.1386 18.105 77.2584 17.1561 77.3029C17.2479 77.4681 17.2624 77.5917 17.3175 77.6908C17.6769 78.5329 17.8782 79.3823 17.4798 80.418C17.4355 80.5331 17.3912 80.6482 17.4279 80.7143C17.5267 81.1843 17.2945 81.5455 16.9631 81.9226C16.5248 82.4969 16.0459 83.0956 15.5121 83.5953C15.0629 83.9553 14.5145 84.3313 13.9736 84.5261C13.1936 84.7774 12.3769 84.9625 11.6045 85.0325C10.3538 85.2154 9.28019 84.9379 8.46085 84.2417C7.39161 83.3877 6.88915 82.1907 6.92756 80.7989C6.93571 80.1318 7.10201 79.4573 7.72064 78.8181C8.39325 78.1462 9.07323 77.4552 9.7606 76.7449C10.3387 76.1302 10.9352 75.5486 11.6273 75.0416C12.2788 74.559 12.8937 74.0104 13.5085 73.4618C14.1233 72.9132 14.6794 72.356 15.3126 71.8404C16.8073 70.5387 18.3425 69.2124 19.9144 67.9523C21.0777 67.0276 22.2227 66.07 23.441 65.2445C24.9832 64.2231 26.5033 63.2591 27.9721 62.1055C29.4631 60.8943 31.1451 59.8324 32.75 58.7289C33.7659 58.0259 34.8185 57.389 35.8527 56.7191C37.7618 55.4168 39.6636 54.1336 41.5579 52.8697C41.1569 53.024 40.7153 53.2029 40.3105 53.4479C39.2211 54.0187 38.209 54.6311 37.1785 55.2105C36.1885 55.7654 35.1986 56.3203 34.337 57.1064C33.8658 57.524 33.2585 57.8915 32.6917 58.2344C31.9813 58.7084 31.2342 59.1163 30.5055 59.5572C28.8639 60.5946 27.3509 61.8634 25.8232 63.0085C24.6673 63.9139 23.4992 64.7973 22.3188 65.6587C22.1164 65.7812 21.8551 65.8951 21.6343 65.9845ZM19.9259 83.2643C20.3598 83.2666 20.7533 83.2934 21.2095 83.2382C22.1622 83.1032 23.137 82.9106 24.1416 82.4794C25.5877 81.8693 27.0705 81.3252 28.5388 80.6575C30.007 79.9899 31.4936 79.3552 32.9619 78.6876C34.4301 78.0199 35.8433 77.2531 37.3153 76.4949C37.779 76.2584 38.2427 76.022 38.7064 75.7856C40.322 74.8963 41.8788 73.9985 43.4944 73.1092C44.8671 72.3669 46.2803 71.6001 47.5429 70.6596C48.0583 70.2889 48.5797 69.9292 49.1073 69.5805C49.8177 69.1066 50.6052 68.6742 51.3156 68.2002C51.9855 67.7507 52.5782 67.2596 53.2665 66.8432C54.1572 66.3042 55.0662 65.7984 55.9568 65.2594C56.7261 64.794 57.5358 64.3041 58.1911 63.7309C59.2551 62.8223 60.3924 62.0458 61.5482 61.3024C62.3983 60.7879 63.1935 60.1744 63.9481 59.5853C64.6844 58.9632 65.3619 58.3326 66.0799 57.6774C66.9414 56.8912 67.8213 56.1381 68.705 55.2943C69.0952 54.9258 69.1584 54.3577 68.8573 54.0102C68.5848 54.2339 68.3124 54.4576 68.04 54.6813C67.1013 55.4259 66.1037 56.162 65.1245 56.931C64.1453 57.7001 63.2432 58.5108 62.2457 59.2468C60.6997 60.3589 59.1132 61.4955 57.5672 62.6075C56.5918 63.286 55.598 63.9314 54.6409 64.643C54.1734 64.97 53.7205 65.4206 53.1942 65.7391C51.8361 66.605 50.4558 67.5285 49.0939 68.485C48.4018 68.992 47.6731 69.433 46.9627 69.907C46.3738 70.3075 45.8804 70.7825 45.2548 71.117C43.7568 72.0233 42.2222 72.8637 40.5958 73.5387C39.9113 73.8646 39.1864 74.2149 38.5203 74.5738C37.4714 75.1202 36.4188 75.7571 35.3516 76.2704C33.6405 77.085 31.9514 77.8421 30.2808 78.6322C29.2946 79.0965 28.3084 79.5608 27.2671 79.926C26.465 80.2348 25.6407 80.6011 24.7981 80.9343C23.5765 81.3645 22.355 81.7946 21.1151 82.1916C20.5337 82.4109 20.1472 82.6889 19.9259 83.2643ZM14.7035 83.1133C15.6347 82.5498 16.3931 81.8702 16.7289 80.9165C16.8838 80.5137 16.9799 80.1024 17.0761 79.6911C17.1095 79.3618 17.1025 79.057 17.0367 78.7436C16.8392 77.8036 16.0085 77.3792 15.2809 76.8482C15.1854 76.7735 15.0272 76.781 14.8691 76.7884C14.4596 76.8301 14.05 76.8719 13.6405 76.9137C12.5075 77.1136 11.4365 77.7175 10.3586 78.0166C9.32111 78.2911 8.85686 79.0135 8.3926 79.7359C8.34833 79.851 8.30406 79.9661 8.24144 80.0481C7.49699 81.3373 7.70528 82.4916 8.70112 83.2134C8.79666 83.288 8.91055 83.3957 8.98395 83.5279C9.2959 84.0896 9.75524 84.4297 10.5682 84.3352C10.8845 84.3204 11.2375 84.3717 11.5943 84.3324C11.9511 84.2931 12.3079 84.2538 12.6096 84.1153C13.3529 83.798 14.019 83.4391 14.7035 83.1133ZM74.1446 42.6879C74.1446 42.6879 74.1507 42.6989 74.163 42.721C74.163 42.721 74.1568 42.71 74.1446 42.6879ZM74.218 42.8201C74.6843 43.465 75.1102 44.1344 76.0073 44.3863C76.9411 44.7042 77.8425 44.3795 78.4137 43.46C78.5537 43.2575 78.6937 43.0551 78.8337 42.8527C79.2574 42.1548 79.2839 41.5207 78.7917 41.0239C78.755 40.9578 78.7183 40.8917 78.6816 40.8257C78.6897 40.1585 78.2709 39.7939 77.7527 39.4452C77.0213 39.0048 76.2527 38.9843 75.355 39.2184C74.5162 39.4611 73.7173 40.1652 73.7091 40.8324C73.7231 41.442 73.7555 42.0846 74.1446 42.6879C74.163 42.721 74.1813 42.754 74.218 42.8201ZM73.0733 40.4666C72.7494 40.6626 72.4806 40.9577 72.2339 41.1953C71.8398 41.6544 71.4457 42.1136 71.0004 42.3831C70.3343 42.742 69.6131 43.0017 68.9324 43.237C68.2518 43.4723 67.5932 43.65 66.9347 43.8278C66.9322 43.8881 66.9235 43.9375 66.9088 43.9759C67.258 44.1178 67.5889 44.2266 67.9381 44.3684C68.8681 44.7769 69.8133 44.8231 70.8697 44.0956C70.9506 44.0466 71.0721 43.9731 71.1531 43.9241C71.7199 43.5812 72.2805 43.2272 72.8351 42.8622C73.0375 42.7397 73.1994 42.6418 73.2399 42.6173C73.193 41.851 73.1423 41.1753 73.0733 40.4666ZM74.2309 44.4016C74.0619 44.1948 73.9664 44.1202 73.8708 44.0455C73.7435 43.946 73.6161 43.8465 73.4887 43.747C73.0294 43.4069 72.8491 43.4718 72.2785 43.9054C71.9913 44.1674 71.6637 44.454 71.3657 44.5018C70.7293 44.622 70.2802 44.9821 69.7981 45.1854C69.6685 45.9261 69.6016 46.5846 69.4903 47.3583C70.9629 46.1141 72.3912 44.985 74.2309 44.4016ZM58.6245 64.2192C60.1263 63.2223 61.6647 62.2914 63.1227 60.9235C62.9019 61.013 62.8615 61.0375 62.821 61.062C61.7867 61.7319 60.7891 62.468 59.7549 63.1379C59.2691 63.4319 58.9193 63.776 58.6245 64.2192ZM56.5598 65.4685C55.1871 66.2108 53.796 66.9201 52.6473 67.9683C54.02 67.226 55.4111 66.5168 56.5598 65.4685ZM45.6172 50.6342C44.3735 51.1218 44.0497 51.3178 43.7954 51.7365C44.4432 51.3446 45.0099 51.0016 45.6172 50.6342ZM42.2867 52.4287C42.2989 52.4507 42.3111 52.4728 42.3234 52.4948C42.6595 52.3209 42.976 52.1441 43.2729 51.9644C43.2606 51.9424 43.2423 51.9093 43.2178 51.8653C42.9209 52.0449 42.6105 52.2327 42.2867 52.4287ZM40.248 75.2501C40.248 75.2501 40.2542 75.2611 40.2664 75.2832C40.4553 75.1688 40.6308 75.0627 40.7927 74.9647C40.7805 74.9427 40.7743 74.9316 40.7743 74.9316C40.6124 75.0296 40.437 75.1358 40.248 75.2501ZM49.633 69.748C49.6208 69.726 49.6147 69.715 49.6147 69.715C49.4675 69.7746 49.3264 69.8453 49.1915 69.9269C49.2037 69.949 49.2159 69.971 49.2282 69.993C49.3631 69.9114 49.4981 69.8297 49.633 69.748ZM79.2431 38.72C79.2578 38.6817 79.2787 38.6543 79.3057 38.638C79.2568 38.5498 79.1943 38.4699 79.1184 38.3981C79.0914 38.4144 79.0644 38.4308 79.0374 38.4471C79.0864 38.5352 79.1549 38.6262 79.2431 38.72Z" fill="#101828"/>
</g>
</svg>
