<svg width="133" height="96" viewBox="0 0 133 96" fill="none" xmlns="http://www.w3.org/2000/svg">
<g id="&#60;Group&#62;" opacity="0.5">
<path id="&#60;Compound Path&#62;" fill-rule="evenodd" clip-rule="evenodd" d="M57.5211 50.8168L50.0392 47.1887C46.9083 45.6723 49.5802 47.0579 44.2529 44.1665C42.0939 42.9905 39.3276 41.5568 37.7088 40.4501C36.7537 39.8097 17.4242 28.6345 18.2343 25.1132C19.0364 21.5621 21.5032 21.5835 31.3381 25.3551C33.4492 26.1725 31.8188 25.4455 36.2461 27.2361C36.7968 27.465 37.3583 27.6737 37.909 27.9025C38.5164 28.1602 39.1129 28.4381 39.7392 28.7055C40.1845 28.9065 40.6705 29.0767 41.1348 29.2873C41.7664 29.5745 42.4043 29.8649 43.0486 30.1585C43.592 30.4008 44.1319 30.6498 44.6681 30.9056C46.2687 31.6432 48.1555 32.475 48.1555 32.475C48.1555 32.475 48.0072 32.3481 51.3922 33.8395C54.4829 35.207 52.4534 34.1483 56.9771 36.2965C57.2524 36.4109 63.1312 39.1716 63.6333 39.4014C63.7466 39.4591 63.8519 39.487 63.9275 39.5255C64.0143 39.364 64.0903 39.2227 64.1662 39.0814C64.9496 37.9375 67.9812 39.1463 72.8655 40.7581C79.1538 42.8017 79.497 42.745 85.7672 43.2111C92.2696 43.6925 95.5761 42.7787 98.6735 42.2984C98.7185 42.3041 98.7546 42.2968 98.7816 42.2763C101.315 41.2777 106.094 40.8044 106.448 40.7275C109.418 40.2597 113.383 40.9408 116.851 43.8887C118.364 45.1473 120.415 50.1504 120.65 51.3243C120.821 52.0799 120.903 52.8673 121.045 53.6335C121.707 57.2357 121.116 58.4258 120.548 59.8851C120.366 60.358 120.146 60.8118 119.85 61.227C118.636 62.9487 119.013 63.5005 115.437 64.2C115.094 64.2566 114.743 64.2835 114.399 64.3402C113.538 64.4503 112.673 64.5672 111.805 64.6908C110.983 64.7868 110.17 64.9127 109.337 65.0289C109.083 65.0539 108.81 65.0692 108.545 65.1144C107.705 65.2008 106.873 65.1372 106.06 65.0833C101.886 64.8357 101.72 63.9801 98.651 61.3639C97.5291 60.4072 96.4305 59.8995 94.3632 58.8216C93.9395 58.5802 93.4724 58.4196 93.0407 58.1485C92.215 57.6254 91.3243 57.2234 90.4227 56.8417C89.1971 56.3464 87.9498 55.8915 86.7242 55.3963C86.0007 55.1309 85.288 54.8453 84.5753 54.5597C84.1757 54.4077 83.8087 54.1952 83.4281 54.0529C82.0619 53.5804 80.6922 53.1146 79.3188 52.6556C78.6033 52.4199 77.877 52.2045 77.1695 51.9987C76.7482 51.8871 76.3459 51.7852 75.9246 51.6736C74.318 51.2158 73.9265 51.0937 73.3894 50.7946C73.2114 50.6783 73.0252 50.5322 72.8906 50.3351C72.5216 49.813 72.3186 49.9668 70.4973 50.0425C70.7478 50.4271 70.9982 50.8117 71.2378 51.2164C71.3616 51.4337 71.5406 51.5334 71.7748 51.5155C72.6422 51.4685 73.2733 51.9954 74.8917 53.2818C75.5525 53.7982 76.2134 54.3145 76.8742 54.8308C77.7023 55.4837 78.5304 56.1365 79.4424 56.6779C79.8742 56.949 80.2733 57.2807 80.6942 57.5721C81.0503 57.8048 81.4065 58.0375 81.7626 58.2701C82.3833 58.6375 83.0119 59.0346 83.6326 59.4019C84.1956 59.757 84.7587 60.1121 85.3217 60.4673C86.8218 61.4365 87.7552 62.1172 91.7552 64.076C92.7565 64.5856 93.7469 65.1155 94.8351 65.4636C95.7801 65.7646 96.7171 66.0358 97.7191 66.1859C98.1054 66.2283 98.5078 66.3302 98.8587 66.4831C99.4174 66.7418 99.9436 67.061 100.491 67.3399C100.718 67.4553 100.923 67.611 101.142 67.6966C101.733 67.8947 102.178 68.2755 102.528 68.7879C102.709 69.034 102.941 69.2292 103.132 69.4552C103.854 70.2599 104.515 71.1358 105.023 72.1145C105.536 73.1297 106.055 74.1482 106.581 75.1699C106.941 75.8419 107.313 76.4937 107.663 77.1859C107.848 77.5119 108.012 77.8781 108.157 78.2348C108.295 78.545 108.424 78.8588 108.542 79.176C109.404 81.4661 106.839 85.4313 104.497 86.8356C99.8811 89.6028 97.7218 89.815 95.573 90.1868C95.1811 90.2444 94.8081 90.3116 94.4162 90.3693C92.3702 90.6392 92.7376 90.6719 89.8564 89.8996C89.292 89.7409 88.7711 89.5015 88.2393 89.2822C88.0395 89.2062 87.8831 89.0495 87.7159 88.913C85.825 87.4621 85.8029 87.6822 83.7874 85.1652C83.3777 84.6739 82.3627 83.026 81.0461 79.6563C80.7747 78.9525 80.5114 78.2786 80.1886 77.6258C80.0945 77.398 80.0004 77.1701 79.9361 76.9317C79.8368 76.624 79.6672 76.3577 79.5381 76.0606C79.3902 75.754 79.2125 75.4578 79.0754 75.131C78.7015 74.3493 78.3574 73.5571 77.9836 72.7755C77.7468 72.3208 77.4991 71.8862 77.2326 71.442C76.7237 70.6431 76.2067 69.8143 75.6572 69.0462C74.9856 68.0873 74.277 67.1525 73.5315 66.2417C72.9144 65.4648 72.2351 64.7591 71.5963 64.0226C70.839 63.1487 72.0952 64.4822 69.2974 61.3613C68.8122 60.8316 68.243 60.4133 67.7144 59.9643C67.1022 59.447 66.4683 58.9701 65.8533 58.5028C64.9145 57.8022 63.9758 57.1016 63.037 56.401C62.3734 55.9346 61.6989 55.4885 61.0758 54.9914C61.0758 54.9914 61.235 55.0981 58.3247 52.7684C56.976 51.6963 57.3635 51.1994 57.5211 50.8168ZM119.734 60.1907C122.036 56.4004 119.735 47.2076 116.024 44.0847C113.465 41.9079 109.424 41.1884 107.241 41.3111C106.811 41.3495 106.36 41.4283 105.919 41.4869C105.587 41.5234 105.246 41.5301 104.925 41.5464C101.536 41.6729 89.8528 45.5476 77.9113 42.6064C71.279 40.979 61.7564 36.4922 65.0868 40.6812C74.4262 52.4022 74.1676 50.7794 77.8291 51.8459C78.7363 52.1277 79.6841 52.3788 80.5994 52.6903C81.79 53.1164 82.9698 53.5626 84.1496 54.0088C84.9487 54.3127 85.7369 54.6367 86.5549 54.9502C87.4296 55.2926 88.334 55.6243 89.1979 55.9869C89.6163 56.1484 90.005 56.3206 90.4126 56.5023C90.6339 56.5978 90.849 56.6901 91.0578 56.7793C91.7218 57.0658 92.3859 57.3524 92.9848 57.7601C93.3598 58.0024 93.7972 58.1735 94.1939 58.3755C94.5907 58.5774 94.9794 58.7495 95.3761 58.9515C101.986 62.367 100.296 65.2864 109.138 64.5934C109.733 64.5617 110.316 64.5502 110.9 64.359C111.138 64.2744 111.381 64.2697 111.617 64.2351C112.087 64.1659 112.546 64.1169 113.006 64.068C113.163 64.0449 113.3 64.0122 113.457 63.9892C113.703 63.9344 113.938 63.8999 114.173 63.8653C117.841 63.4437 117.834 63.0543 119.734 60.1907ZM108.113 79.8835C108.009 79.3163 107.886 78.7395 107.663 78.2146C107.459 77.6993 107.144 77.256 106.869 76.7821C106.78 76.634 106.691 76.486 106.621 76.3475C106.5 76.0802 106.428 75.812 106.315 75.5745C106.016 75.0112 105.696 74.4881 105.457 73.9036C105.25 73.4383 105.062 72.9826 104.755 72.5692C104.278 71.8894 103.871 71.1684 103.384 70.5088C102.969 69.9377 102.543 69.3868 102.077 68.8667C101.347 68.0321 100.478 67.4101 99.4195 67.0513C99.1711 66.9763 98.9552 66.8407 98.7068 66.7657C98.0966 66.558 97.4511 66.4608 96.8055 66.3637C95.8898 66.2318 95.026 65.8693 94.1783 65.5664C93.9299 65.4914 93.6626 65.4067 93.4467 65.2712C92.9583 64.9712 92.3859 64.7827 91.8758 64.523C86.4673 61.6931 89.341 63.4643 83.1217 59.5018C82.3905 59.0268 81.6485 58.572 80.8984 58.0874C80.5045 57.8355 80.1134 57.5336 79.7114 57.2518C77.6907 55.8634 79.3468 57.1691 74.915 53.7308C73.3775 52.5626 73.0298 52.1799 72.5032 52.0405L67.6572 51.4765C67.1467 51.3967 66.6471 51.2966 66.1338 51.2668C65.1667 51.1859 64.2076 51.1348 63.2405 51.054C60.1904 50.8642 57.0572 50.4264 57.827 51.7695C58.0585 52.1445 58.3741 52.4079 58.6897 52.6714C59.3505 53.1877 60.0005 53.7242 60.6424 54.2309C61.1765 54.6399 61.7106 55.0488 62.2447 55.4578C62.4875 55.6328 66.0188 58.15 67.3783 59.2019C68.1955 59.8749 68.9722 60.5788 69.7568 61.3124C70.4848 62.0171 71.4464 63.4064 71.8238 63.7785C72.762 64.7188 73.6082 65.7408 74.4436 66.783C74.7885 67.2157 75.1117 67.6887 75.4457 68.1415C75.7384 68.5818 76.0247 69.019 76.3048 69.4529C76.8595 70.3009 77.444 71.1383 77.9473 72.0372C78.3377 72.6987 78.6171 73.4322 78.956 74.1446C79.1469 74.5503 79.3487 74.9358 79.5316 75.3118C79.9485 76.1924 80.3357 77.0836 80.7525 77.9643C80.9865 78.469 81.2422 78.9334 81.4681 79.4083C81.5489 79.5266 81.5702 79.666 81.6213 79.7948C82.3489 81.8877 83.3089 82.7877 83.6422 83.6001C83.7712 83.8971 83.9111 84.174 84.1024 84.4C86.6197 87.3266 86.6575 87.3459 88.9402 88.7391C91.0719 90.0555 93.5716 89.8366 95.5416 89.708C102.524 89.2512 108.653 82.909 108.113 79.8835ZM71.6718 49.2005C69.4327 46.3383 67.9623 45.3585 66.8303 44.0625C63.1514 39.8503 64.4634 40.3639 59.0328 37.7541C57.7831 37.1695 55.2969 36.1098 54.0255 35.5655C52.773 35.0308 51.2696 34.2914 51.1562 34.2337C50.8809 34.1192 48.0036 32.7576 47.4525 32.7085C47.2986 32.6816 47.1607 32.7142 47.02 32.7969C46.59 33.0151 46.1788 33.2429 45.7487 33.461C45.3701 33.6283 45.0103 33.8051 44.5887 33.8733C43.3507 34.1174 42.1295 34.0615 40.9136 34.0853C40.1057 34.1112 39.3062 33.9871 38.5175 33.8428C37.5561 33.662 36.5729 33.5215 35.6331 33.3002C34.7311 33.0983 33.8645 32.7857 32.995 32.5231C32.7088 32.4289 30.4759 31.7038 30.3706 31.6759C29.4959 31.3335 28.6429 30.9508 27.7683 30.6085C27.3687 30.4565 26.9286 30.3354 26.5181 30.2036L24.3287 29.3977C23.9022 29.2064 23.5163 28.9843 23.0978 28.8227C21.9587 28.3457 20.928 27.6669 19.8431 27.089C19.7108 27.0217 19.5975 26.964 19.4194 26.8476C19.4918 27.1159 19.2735 26.8505 20.8292 28.3879C25.1701 32.577 32.6014 37.1049 37.2779 39.8194C37.9174 40.1963 38.4729 40.6847 40.9342 42.0146C45.8836 44.7137 55.1852 48.9851 57.5226 50.0977C57.9869 50.3083 58.4379 50.4093 59.0002 50.2584C59.7788 50.0633 60.6084 49.9971 61.3971 50.1414C61.9642 50.2501 62.5286 50.4088 63.1038 50.5473C63.3144 50.6031 63.5656 50.6281 63.7871 50.6637C65.2728 50.8542 65.1622 50.7466 66.032 50.8293C66.7479 50.8852 67.453 50.9612 68.158 51.0372C70.4299 51.2423 69.9544 51.2317 70.2679 51.1855C69.9692 50.6222 69.6785 50.0886 69.3907 49.505C70.1745 49.3897 70.8988 49.2956 71.6718 49.2005ZM46.8725 32.3104C45.9331 31.9095 44.3586 31.5709 43.867 31.5006C42.9244 31.3294 41.9875 31.0582 41.0368 30.8571C39.6838 30.5541 37.3882 30.0799 36.0569 29.7366C35.741 29.6529 35.4142 29.5894 35.1091 29.4855C30.3949 27.9603 30.4893 28.0083 30.4893 28.0083C29.8792 27.8006 29.2798 27.5727 28.6805 27.3448C27.9758 27.089 27.2929 26.7928 26.5477 26.5678C25.4001 26.2408 22.3765 25.0618 21.3507 24.6425C18.3974 23.4222 18.4004 25.789 19.2992 26.2208C19.4881 26.317 19.6634 26.4833 19.8415 26.5996C20.122 26.7939 20.362 27.0189 20.6454 27.1631C21.3364 27.4891 21.7975 27.9294 24.0083 28.8747C24.7776 29.1892 25.5389 29.4738 26.3192 29.7681C26.5945 29.8825 26.8887 30.0066 27.1641 30.121C30.0474 31.2029 30.2821 31.3481 31.0627 31.4626C31.9892 31.5742 33.0476 31.9329 33.9034 32.2656C34.77 32.5782 35.6286 32.8609 36.5415 33.0427C37.1762 33.1601 38.7482 33.3689 39.2105 33.2699C38.3442 32.7776 35.0112 32.2638 34.6764 32.1705C34.1606 32.0109 33.6558 31.8311 33.1481 31.7012C31.652 31.3511 29.5356 30.4539 28.1267 29.7625C27.568 29.5039 27.0201 29.225 26.4911 28.9558C26.2833 28.85 26.127 28.6933 25.93 28.5673C25.9111 28.5577 25.9031 28.5279 25.895 28.4981C26.0385 28.3654 26.1302 28.4635 26.2246 28.5116C26.7833 28.7703 27.3123 29.0395 27.8711 29.2982C28.2489 29.4905 28.6296 29.6328 29.0183 29.8049C29.6715 30.1117 30.3138 30.4386 30.9996 30.6848C31.9446 30.9858 32.9302 31.2561 33.8969 31.5167C34.4046 31.6466 34.9151 31.7264 35.4336 31.8361C35.674 31.8813 35.8818 31.9871 36.1222 32.0323C36.8353 32.1381 37.5781 32.2334 38.2695 32.3796C39.2012 32.571 40.1169 32.7028 41.0462 32.7645C41.6568 32.7924 42.2621 32.7406 42.8457 32.7291C43.224 32.7417 43.6239 32.7138 43.9885 32.7965C44.2666 32.861 44.5504 32.8254 44.8262 32.7601C45.1911 32.663 45.5372 32.5564 45.8427 32.4805C45.9074 32.5391 45.9613 32.618 45.9802 32.6276C46.2479 32.5324 46.5775 32.5459 46.8725 32.3104ZM19.4859 23.5906C20.4422 23.6916 21.7619 24.4147 22.1803 24.5763C24.5559 25.5283 24.5398 25.4687 25.5713 25.788C25.8575 25.8822 26.15 25.9797 26.4488 26.0804C26.9645 26.24 27.4802 26.3996 27.9851 26.5795C28.7086 26.8449 29.4132 27.1007 30.1287 27.3363C30.4905 27.469 30.8442 27.5719 31.1871 27.695C33.1796 28.3749 32.2399 28.1537 35.5991 29.0664C36.3065 29.2723 39.8361 30.0918 41.5244 30.3083C41.6783 30.3352 41.8431 30.342 41.989 30.3391C41.6357 30.0564 41.2795 29.8237 40.8936 29.6016C40.6022 29.4275 36.7337 27.8957 36.4772 27.7908C35.0141 27.2004 32.7571 26.3859 32.6706 26.3676C31.4125 25.9329 29.5574 25.4001 28.5099 25.0212C22.3382 22.8055 20.6346 22.1698 19.4859 23.5906Z" fill="#101828"/>
<path id="&#60;Compound Path&#62;_2" fill-rule="evenodd" clip-rule="evenodd" d="M105.881 61.7701C105.007 61.4028 104.258 60.8951 103.519 60.3676C102.531 59.6379 101.964 58.9689 100.948 56.3474C100.808 55.946 100.696 55.5342 100.596 55.1025C100.559 54.9061 100.58 54.6889 100.584 54.4621C100.584 54.2847 100.614 54.0968 100.566 53.9204C100.508 53.409 100.555 52.9251 100.641 52.4109C100.679 52.2524 100.669 52.0949 100.688 51.927C100.769 51.334 100.944 50.7885 101.394 50.3065C101.67 50.0153 101.893 49.6463 102.179 49.3351C102.857 48.5628 103.607 47.8779 104.455 47.3191C104.814 47.0953 105.156 46.8126 105.534 46.5982C105.9 46.4037 106.272 46.288 106.659 46.2311C107.21 46.1808 107.737 46.0424 108.29 45.9428C108.902 45.8224 109.509 45.8006 110.086 45.9667C110.369 46.0597 110.684 46.0929 110.967 46.1859C111.819 46.4156 112.714 46.5656 113.432 47.133C114.123 47.6616 114.865 48.1398 115.382 48.859C115.803 49.4027 116.253 49.936 116.645 50.4901C117.513 51.7938 117.797 53.9172 117.813 55.346C117.823 55.8584 117.717 56.3631 117.668 56.8963C117.627 57.1041 117.606 57.3214 117.576 57.5092C117.513 58.1117 117.309 58.6677 117.019 59.2056C116.922 59.3849 116.818 59.5348 116.759 59.7331C116.557 60.2397 116.198 60.641 115.858 61.0518C115.51 61.4332 115.183 61.7747 114.747 62.01C114.37 62.2243 113.984 62.4093 113.57 62.4273C113.348 62.4415 113.134 62.4852 112.921 62.5288C112.209 62.7005 111.493 62.6159 110.79 62.6396C109.74 62.6898 108.738 62.5616 107.696 62.4638C107.314 62.422 106.948 62.2616 106.601 62.1108C106.318 62.0177 106.086 61.8745 105.881 61.7701ZM116.822 58.9532C117.056 58.5478 117.202 58.1145 117.26 57.6534C117.301 57.4456 117.341 57.2378 117.363 57.0206C117.426 56.4181 117.537 55.8147 117.522 55.2236C117.41 52.4266 116.873 51.3924 116.404 50.6722C116.114 50.195 115.732 49.7984 115.413 49.3315C114.904 48.6417 114.231 48.1227 113.57 47.5837C113.38 47.4363 113.182 47.3022 112.977 47.1814C112.42 46.8473 111.784 46.7021 111.14 46.5275C110.654 46.3991 110.167 46.2871 109.679 46.1915C109.527 46.1649 109.356 46.1289 109.195 46.2503C109.145 46.3006 109.059 46.2825 108.982 46.2939C108.768 46.3375 108.564 46.3777 108.369 46.4144C107.893 46.5025 107.426 46.6202 106.96 46.6884C106.429 46.7482 105.947 46.935 105.497 47.2395C105.329 47.3315 105.131 47.434 104.981 47.5355C104.692 47.7186 104.403 47.9017 104.151 48.1037C103.937 48.2656 103.742 48.437 103.565 48.6179C103.34 48.8589 103.043 49.0126 102.834 49.3124C102.593 49.6719 102.314 50.0125 101.99 50.3047C101.572 50.7269 101.293 51.2449 101.212 51.8379C101.174 51.9963 101.211 52.1927 101.211 52.3701C101.207 52.6725 101.206 52.9682 101.209 53.2572C101.203 53.3559 101.216 53.4641 101.211 53.5627C101.183 53.8787 101.252 54.1927 101.332 54.4869C101.448 54.9774 101.586 55.4281 101.673 55.929C101.953 57.4414 102.457 58.4073 104.276 59.8894C104.543 60.101 104.799 60.3326 105.087 60.5043C105.469 60.7235 105.89 60.9124 106.294 61.0917C106.622 61.2331 106.95 61.3745 107.3 61.4761C107.829 61.6431 108.398 61.7798 108.959 61.887C109.464 61.9658 110.009 62.0143 110.509 62.0143C111.23 62.0002 111.936 61.9272 112.649 61.8836C112.919 61.8684 113.186 61.9026 113.459 61.8381C113.898 61.7309 114.358 61.5839 114.78 61.4179C115.232 61.2415 115.626 60.9085 115.926 60.5281C116.215 60.1676 116.515 59.7871 116.629 59.3118C116.674 59.1828 116.757 59.0727 116.822 58.9532Z" fill="#101828"/>
<path id="&#60;Path&#62;" d="M87.5194 45.6793C96.0703 45.7724 94.9778 45.4221 104.683 43.5429C105.025 43.4759 105.373 43.4289 105.725 43.4018C106.284 43.3506 106.851 43.3294 107.408 43.3286C109.865 43.3405 110.769 43.4132 111.861 43.7636C113.184 44.1797 114.783 45.0728 115.939 46.2058C118.021 48.225 119.962 52.3976 120.157 55.1875C120.185 55.7196 120.165 56.2526 120.18 56.8553C120.18 56.8553 119.786 51.0142 115.828 47.1325C114.496 45.8322 112.96 45.0484 111.171 44.4203C110.883 44.3255 106.549 44.0288 106.278 43.994C105.849 43.9823 105.423 43.9203 104.992 43.959C101.364 44.2815 92.6471 46.7944 87.5057 45.7499C87.5003 45.7299 87.5049 45.7064 87.5194 45.6793Z" fill="#101828"/>
<path id="&#60;Path&#62;_2" d="M100.112 52.3484C100.126 52.4585 100.158 52.5783 100.171 52.6884C100.213 53.5105 100.225 54.3431 100.296 55.1545C100.341 55.5651 100.473 55.994 100.616 56.4026C101.182 57.9569 101.792 59.0688 103.12 60.4175C103.322 60.6242 103.596 60.7894 103.85 60.945C104.4 61.2252 104.941 61.4755 105.483 61.7257C105.748 61.861 106.006 61.9663 106.271 62.1016C107.192 62.5451 108.208 62.6756 109.213 62.8265C109.939 62.9125 110.666 62.818 111.384 62.8741C111.549 62.8809 111.698 62.8278 111.905 62.8037C111.872 62.8645 111.877 62.9447 111.847 62.9553C111.687 63.0287 111.538 63.0818 111.381 63.1049C111.099 63.1506 110.821 63.1728 110.548 63.1715C110.191 63.1785 109.834 63.1688 109.478 63.1424C109.012 63.1114 108.557 63.0601 108.112 62.9886C107.513 62.89 106.917 62.7411 106.376 62.4909C105.788 62.1913 105.212 61.8715 104.591 61.6329C102.289 60.7951 100.942 58.4032 100.202 55.9592C100.119 55.7099 100.095 55.4395 100.071 55.169C99.9347 54.2986 99.8661 53.437 99.9846 52.5416C99.9984 52.4711 100.031 52.4102 100.045 52.3397C100.057 52.3462 100.08 52.349 100.112 52.3484Z" fill="#101828"/>
<path id="&#60;Path&#62;_3" d="M109.353 65.2124C109.184 65.2566 109.093 65.289 109.014 65.3008C103.494 65.6449 102.875 64.5635 99.8434 62.1091C99.8434 62.1091 99.368 61.8119 96.0713 59.1685C96.033 59.1489 96.0058 59.1085 95.9512 59.0279C96.1454 59.0751 99.6448 61.6122 99.7486 61.6919C103.318 64.5547 102.598 64.7631 107.132 64.9905C107.348 64.9964 107.567 64.9513 107.772 64.9779C108.106 64.9917 108.418 65.0469 108.76 65.0912C108.877 65.0991 109.017 65.0657 109.135 65.0736C109.184 65.0726 109.23 65.1228 109.353 65.2124Z" fill="#101828"/>
<path id="&#60;Path&#62;_4" d="M65.0114 39.9461C65.5072 40.8165 67.3534 42.5807 67.7952 43.3722C67.4866 43.4982 67.4005 43.2999 66.2943 42.0413C65.9112 41.5888 65.5281 41.1362 65.1261 40.674C63.432 38.6268 66.464 39.8875 72.3456 41.6724C72.4997 41.6994 72.635 41.7167 72.7971 41.7735C72.4804 41.8698 72.1911 41.8254 71.9235 41.7407C66.7956 40.3911 65.4146 39.8681 65.4146 39.8681C65.3091 39.8402 65.2009 39.8623 65.0846 39.8546C65.0701 39.8816 65.0457 39.912 65.0114 39.9461Z" fill="#101828"/>
<path id="&#60;Path&#62;_5" d="M85.9604 54.0483C85.8183 54.0103 85.6736 53.9622 85.5261 53.9039C85.1301 53.7792 84.7259 53.6241 84.3299 53.4994C84.166 53.4414 83.9912 53.4041 83.8164 53.3668C83.2536 53.2352 82.6845 53.1002 82.109 52.9621C81.8304 52.9064 81.5526 52.8338 81.2759 52.7441C80.0851 52.3598 78.8604 52.0543 77.6018 51.8277C76.1921 51.5497 73.182 50.712 73.0836 49.4805C74.0082 50.3491 73.5 50.298 76.1246 51.1739C76.3076 51.2416 76.4934 51.2583 76.6573 51.3163C77.4139 51.495 78.1625 51.6434 78.9082 51.8427C79.4027 51.9655 79.8642 52.1501 80.3366 52.314C80.5497 52.371 80.7928 52.4172 81.0059 52.4742C81.7516 52.6735 82.4835 52.9445 83.2622 53.0821C84.0217 53.2098 84.7345 53.471 85.4363 53.7528C85.6293 53.8169 85.8186 53.8879 86.0043 53.9658C85.9897 53.9933 85.975 54.0208 85.9604 54.0483Z" fill="#101828"/>
<path id="&#60;Compound Path&#62;_3" fill-rule="evenodd" clip-rule="evenodd" d="M99.3302 71.7192C100.265 72.1936 101.164 72.5998 101.916 73.2355C102.173 73.4671 102.378 73.7489 102.594 74.0108C103.335 74.8439 103.966 75.7481 104.598 76.6524C104.747 76.9057 104.885 77.1789 105.013 77.4721C105.217 77.9314 105.532 78.3194 105.587 78.8802C105.645 79.3916 105.654 79.9039 105.49 80.4295C105.423 80.5984 105.422 80.7758 105.355 80.9447C105.207 81.3517 105.078 81.7682 104.818 82.1183C104.58 82.4285 104.424 82.8061 104.193 83.1458C103.995 83.4256 103.778 83.696 103.516 83.918C102.988 84.4113 102.434 84.8658 101.88 85.3202C101.668 85.4919 101.438 85.6541 101.211 85.767C100.301 86.2185 99.4263 86.7384 98.469 87.0134C97.7952 87.2041 97.1162 87.316 96.4268 87.2704C96.14 87.2431 95.8585 87.2355 95.5824 87.2475C94.6123 87.237 93.6773 87.1174 92.7827 86.79C92.5478 86.696 92.2914 86.6419 92.0457 86.5679C91.6629 86.4243 91.316 86.2142 91.0048 85.9378C90.8688 85.7926 90.6712 85.7176 90.5058 85.5829C90.0719 85.2103 89.638 84.8377 89.2041 84.4651C88.756 84.06 88.4658 83.5827 88.2586 82.9954C88.1099 82.5646 87.913 82.1348 87.6653 81.7553C87.4283 81.3558 87.3384 80.9042 87.3074 80.4317C87.2799 79.555 87.2818 78.6679 87.4173 77.7979C87.4987 77.2049 87.6763 76.61 87.8246 76.0256C87.9323 75.6489 88.1068 75.2808 88.2037 74.9241C88.2927 74.538 88.5312 74.2277 88.8043 73.9858C89.2917 73.5228 89.8136 73.1282 90.3276 72.7041C90.4882 72.5827 90.6834 72.5296 90.8333 72.4281C91.7007 71.7014 92.6874 71.4159 93.7354 71.2376C94.3074 71.1475 94.8823 71.0081 95.473 70.9275C96.3632 70.8214 97.2287 70.9818 98.0671 71.2807C98.5104 71.4297 98.9537 71.5787 99.3302 71.7192ZM99.5979 72.7685C99.4671 72.7021 99.3096 72.5968 99.112 72.5218C98.8317 72.3795 98.5407 72.2571 98.2576 72.1641C97.841 72.054 97.4136 71.9638 96.9862 71.8736C96.8447 71.8271 96.6924 71.8005 96.5589 71.7834C96.2436 71.7502 95.9255 71.7663 95.6023 71.7037C95.004 71.5774 94.4077 71.7567 93.8114 71.9359C93.4985 72.0308 93.1721 72.1949 92.8485 72.3097C92.3083 72.5174 91.7895 72.6853 91.2758 72.9319C90.9415 73.0666 90.6605 73.2791 90.3607 73.4821C90.0129 73.6861 89.6543 73.91 89.3331 74.1528C88.8807 74.5067 88.6418 74.9943 88.459 75.5104C88.4026 75.6594 88.4129 75.8169 88.3644 75.9953C88.1975 76.5702 87.9932 77.1262 87.9305 77.7287C87.911 78.074 87.8141 78.4308 87.7946 78.7761C87.78 79.3776 87.7947 79.9687 87.8576 80.5589C87.8863 80.9033 87.9924 81.2363 88.1094 81.5494C88.4151 82.2629 88.7611 82.9461 89.0776 83.6397C89.1042 83.6786 89.1309 83.7175 89.1281 83.7668C89.1063 83.9841 89.245 84.0799 89.373 84.1957C89.8851 84.6587 90.408 85.1019 90.9308 85.545C91.355 85.8619 91.7979 86.1883 92.3267 86.3554C92.6953 86.4664 93.0451 86.568 93.4057 86.6496C93.8331 86.7398 94.239 86.8698 94.6505 86.9011C95.3104 86.9572 95.9732 86.9639 96.6359 86.9706C96.7881 86.9972 96.9325 86.9943 97.0768 86.9915C97.8118 86.9081 98.531 86.7658 99.2319 86.4366C100.021 86.0762 100.791 85.7062 101.519 85.2386C102.327 84.7102 103.008 84.066 103.672 83.363C103.905 83.1514 104.047 82.8431 104.216 82.5737C104.31 82.4437 104.396 82.2843 104.471 82.1448C104.953 81.4257 105.228 80.6515 105.149 79.8251C105.081 79.1562 104.965 78.4883 104.507 77.9256C104.272 77.6542 104.147 77.3117 103.963 76.9901C103.593 76.3961 103.245 75.7623 102.746 75.23C102.389 74.8624 102.024 74.5082 101.653 74.1672C101.05 73.6074 100.404 73.1273 99.5979 72.7685Z" fill="#101828"/>
<path id="&#60;Path&#62;_6" d="M76.5147 66.6034C76.8376 66.9923 77.1541 67.378 77.4644 67.7604C78.4059 68.8875 79.1926 70.1684 80.001 71.4086C80.3226 71.9349 80.6334 72.4814 80.9034 73.059C81.4112 74.0941 81.8782 75.1601 82.375 76.2156C82.626 76.7834 82.8989 77.3107 83.1499 77.8785C83.4442 78.546 83.7384 79.2135 84.0217 79.9013C84.2566 80.4092 85.0969 81.9503 85.6761 82.582C86.0549 83.0167 86.4338 83.4514 86.8126 83.8861C86.9939 84.1338 87.1751 84.3815 87.3563 84.6291C87.3923 84.682 87.4347 84.7381 87.4834 84.7975C88.8742 86.4383 88.4872 86.0339 89.6979 86.8843C90.3832 87.3632 91.1856 87.669 91.9362 88.0261C92.9363 88.4586 94.6911 88.6552 95.8114 88.6835C96.4652 88.6806 97.1408 88.6372 97.8084 88.5638C99.1922 88.416 101.119 87.9761 101.28 87.9026C103.216 87.131 103.205 86.9704 104.43 86.3534C104.253 86.7287 102.517 87.7577 101.244 88.1948C98.6591 89.0495 98.6672 89.0795 97.609 89.1606C93.3573 89.4753 92.3136 89.124 90.2703 88.1593C87.9504 87.0795 87.4048 86.025 86.4688 84.7973C84.8782 82.7183 84.9513 82.8073 82.6434 77.5167C82.4787 77.1481 82.3548 76.7486 82.1712 76.3703C82.0416 76.0714 81.8741 75.7531 81.7256 75.4445C81.5997 75.1388 81.4674 74.8299 81.3289 74.5178C81.1642 74.1492 81.0403 73.7497 80.8566 73.3714C80.7109 73.0125 80.5055 72.6749 80.3299 72.3266C79.8165 71.3921 79.1809 70.5504 78.6267 69.6469C78.0375 68.6737 77.2852 67.8242 76.6144 66.9129C76.5413 66.8239 76.4981 66.7243 76.4441 66.645C76.4712 66.6243 76.4948 66.6105 76.5147 66.6034Z" fill="#101828"/>
<path id="&#60;Path&#62;_7" d="M104.563 76.3667C104.204 75.8219 103.883 75.2964 103.51 74.8221C102.926 74.1111 102.312 73.4107 101.573 72.8533C101.086 72.5016 100.577 72.1905 100.047 71.92C99.5349 71.6591 99.045 71.3577 98.5333 71.0968C97.7752 70.7104 96.9543 70.576 96.1059 70.5826C95.9297 70.5961 95.7535 70.6096 95.5801 70.5729C94.7781 70.4482 93.9834 70.7147 93.2052 70.8604C92.435 71.0361 91.6891 71.3016 90.9915 71.7468C90.4397 72.0854 89.8878 72.4241 89.336 72.7627C89.2247 72.8351 89.1053 72.8776 88.986 72.9201C88.968 72.8937 88.9563 72.8705 88.9509 72.8506C89.1057 72.697 89.2686 72.5734 89.4235 72.4198C90.2 71.7824 91.0818 71.3537 91.9608 70.9752C92.5088 70.7637 93.0596 70.502 93.656 70.4702C93.9189 70.4751 94.1955 70.4095 94.4531 70.3342C94.887 70.2454 95.3342 70.2667 95.7704 70.3082C95.803 70.3076 95.8355 70.307 95.868 70.3063C96.9389 70.1548 97.876 70.4776 98.7994 70.8708C99.0756 70.9858 99.3192 71.1616 99.6035 71.3066C100.529 71.8302 101.518 72.2824 102.305 73.0195C102.61 73.3045 102.864 73.6407 103.159 73.9459C103.5 74.3005 103.851 74.6347 104.07 75.082C104.202 75.3303 104.356 75.5379 104.489 75.7862C104.559 75.9253 104.588 76.0953 104.629 76.245C104.637 76.275 104.574 76.3464 104.563 76.3667Z" fill="#101828"/>
<path id="&#60;Path&#62;_8" d="M92.256 65.6357C92.7207 65.7695 93.1743 65.9239 93.639 66.0577C93.9397 66.1334 94.2705 66.1984 94.5602 66.2948C95.4786 66.5829 96.3668 66.8819 97.2852 67.1701C97.9439 67.3511 98.6165 67.4603 99.2944 67.6512C99.8466 67.8036 100.429 67.9453 100.956 68.1902C101.235 68.3072 101.475 68.5883 101.718 68.8184C102.316 69.3886 102.902 69.9794 103.478 70.5909C103.784 70.932 104.007 71.336 104.271 71.7086C104.47 72.0212 104.642 72.2934 104.822 72.5962C104.876 72.6768 104.92 72.7781 104.892 72.9216C104.854 72.9019 104.755 72.9038 104.747 72.8734C104.617 72.5696 104.412 72.3593 104.185 72.1901C104.016 72.0505 103.869 71.8697 103.771 71.6878C103.523 71.1924 103.141 70.812 102.781 70.3902C102.448 70.0088 102.107 69.5969 101.714 69.2371C101.294 68.837 100.876 68.3857 100.286 68.2136C99.8022 68.07 99.3074 67.947 98.7935 67.8142C97.8231 67.5781 96.8416 67.3626 95.929 66.9722C95.5355 66.7962 95.0981 66.7027 94.6827 66.568C94.5187 66.51 94.3657 66.4313 94.1826 66.3635C93.6496 66.2208 93.1275 66.0575 92.6055 65.8943C92.4798 65.8559 92.3459 65.7871 92.201 65.7389C92.223 65.6976 92.2413 65.6632 92.256 65.6357Z" fill="#101828"/>
<path id="&#60;Path&#62;_9" d="M64.7791 56.3979C64.1177 55.8808 63.4453 55.384 62.8136 54.8564C62.1143 54.3201 59.8003 52.5754 59.3332 52.2345C59.0713 52.0497 58.8419 51.8041 58.6206 51.5885C58.4911 51.471 58.4319 51.3122 58.5297 51.1302C58.6085 50.9387 58.7872 50.8751 58.971 50.8915C60.745 50.9967 61.7995 51.096 62.5052 51.1721C62.6981 51.2017 62.8909 51.2312 63.0838 51.2608C63.1514 51.2694 63.2161 51.3282 63.3107 51.3763C63.1832 51.5688 63.0291 51.5419 62.9128 51.5342C61.8393 51.4252 60.7659 51.3163 59.6924 51.2074C59.4725 51.1984 59.2525 51.1894 59.0326 51.1803C58.9541 51.1919 58.8837 51.2333 58.7646 51.2756C58.8536 51.4239 58.9155 51.5327 58.9992 51.601C60.9647 53.1426 60.4252 52.5331 61.8262 53.7357C62.1663 54.029 62.5137 54.3089 62.8683 54.5753C63.9563 55.464 64.4721 55.8039 64.8576 56.3864C64.8377 56.3934 64.8116 56.3973 64.7791 56.3979Z" fill="#101828"/>
<path id="&#60;Path&#62;_10" d="M82.3784 60.2596C82.2147 60.1405 82.0473 60.0283 81.8763 59.923C81.0986 59.4186 80.3729 58.8623 79.7022 58.2029L77.2662 56.2434C77.0317 56.0442 76.7451 55.897 76.4995 55.7184C76.1804 55.4496 74.4982 53.7198 72.7814 52.7856C72.2191 52.4706 71.4268 52.4047 71.3503 52.3654C72.2915 51.8781 73.912 53.1301 74.6758 53.7061C75.1368 54.0741 75.2377 54.2046 77.4195 56.1385C78.1313 56.7665 78.4834 56.9735 79.2172 57.5603C79.5554 57.839 79.8863 58.1314 80.2099 58.4375C80.6844 58.9173 81.2328 59.3039 81.7812 59.6905C82.0076 59.8593 82.215 60.0182 82.4414 60.187C82.414 60.2079 82.393 60.2321 82.3784 60.2596Z" fill="#101828"/>
<path id="&#60;Compound Path&#62;_4" fill-rule="evenodd" clip-rule="evenodd" d="M55.4854 37.4674C55.7065 37.6303 55.9141 37.8624 56.1967 37.9553C56.8071 38.1893 57.2641 39.1053 57.5352 39.5723C57.8436 40.0583 58.3884 42.3109 55.7988 44.3397C54.8956 45.0462 53.9354 44.888 53.5993 44.8946C52.7241 44.9314 51.0499 44.3345 50.4088 43.4516C49.7412 42.5299 49.1493 41.1146 49.6746 39.9628C50.3393 38.5524 50.7619 38.0324 51.3497 37.647C52.4451 36.9366 53.1126 36.6677 55.4854 37.4674ZM56.8801 41.4942C57.0273 41.265 57.0039 40.9998 56.9777 40.7838C56.8065 39.7342 56.3631 38.7491 55.4997 38.2346C55.0912 37.9934 54.671 37.7884 54.2391 37.6197C51.6429 36.5292 49.931 39.8397 49.8624 40.7169C49.8014 41.8005 50.1063 42.69 50.7851 43.4147C51.2642 43.9367 51.9227 44.1698 52.5704 44.4227C52.909 44.544 53.2638 44.5469 53.6429 44.4607C54.724 44.1738 55.5408 43.9806 56.015 43.0562C57.0249 41.1371 56.3882 40.6871 56.3417 39.9795C56.6716 40.4257 56.8546 40.924 56.8801 41.4942Z" fill="#101828"/>
<path id="&#60;Path&#62;_11" d="M21.6563 25.2377C22.8594 25.8553 22.9687 25.8328 24.7806 26.6319C25.3946 26.8946 25.9976 27.1779 26.5706 27.472C27.6073 28.0217 28.6898 28.455 29.8181 28.7721C30.4459 28.9633 31.0876 29.083 31.7263 29.2536C36.3124 30.5069 33.6508 29.7959 35.6521 30.1942C36.3319 30.3335 37.0008 30.4934 37.6806 30.6327C40.2333 31.183 40.8347 30.9675 41.1679 30.9813C41.3646 30.9774 41.3231 31.192 41.211 31.2655C41.1589 31.3174 41.0496 31.3399 40.9814 31.3311C40.5116 31.2996 40.0419 31.2682 39.5831 31.2161C39.219 31.169 38.8586 31.1151 38.5018 31.0542C34.4554 30.34 33.8003 30.1086 32.804 29.833C32.2616 29.6944 31.7156 29.5626 31.166 29.4377C30.3334 29.22 29.5528 28.9504 28.7421 28.6915C27.6039 28.3169 26.5864 27.716 25.5031 27.2386C24.7554 26.9072 23.9968 26.5964 23.2682 26.2748C23.0008 26.1376 21.9285 25.6396 21.5713 25.3514C21.606 25.3168 21.6343 25.2789 21.6563 25.2377Z" fill="#101828"/>
<path id="&#60;Path&#62;_12" d="M54.7036 40.4853C54.5757 40.3697 54.4879 40.2238 54.36 40.1081C54.0244 39.7604 53.544 39.7697 53.1883 40.1211C52.2737 41.0247 54.4616 41.3758 52.9691 41.6312C53.499 42.2803 53.892 41.9479 54.3914 41.7708C54.2573 42.1081 54.0008 42.2312 53.7523 42.3837C54.5683 42.7221 55.0879 41.8458 55.3983 41.4461C55.4556 42.1339 54.8141 42.6189 54.1757 42.8774C53.9006 42.991 53.5936 42.9871 53.3403 42.8838C52.6176 42.5928 52.1676 42.0602 52.0999 41.2151C52.1106 41.1952 52.1133 41.146 52.1054 41.1166C52.029 40.5964 52.2993 40.227 52.7082 39.9533C52.9675 39.7809 53.264 39.6275 53.5658 39.5527C54.0732 39.4051 54.6331 39.6894 54.7814 40.2968C54.7973 40.3555 54.7838 40.4247 54.781 40.4739C54.749 40.4746 54.7232 40.4783 54.7036 40.4853Z" fill="#101828"/>
</g>
</svg>
