<svg width="161" height="288" viewBox="0 0 161 288" fill="none" xmlns="http://www.w3.org/2000/svg">
<g id="&#60;Group&#62;" opacity="0.5">
<path id="&#60;Compound Path&#62;" fill-rule="evenodd" clip-rule="evenodd" d="M107.293 122.895C107.293 122.895 107.302 122.912 107.324 122.898C108.645 122.525 109.966 122.152 111.306 121.656C112.56 121.214 113.825 120.742 115.058 120.158C115.997 119.732 116.933 119.354 117.881 118.945C118.043 118.867 118.206 118.789 118.346 118.724C118.67 118.568 118.977 118.378 119.285 118.299C119.699 118.198 120.089 118.001 120.489 117.821C120.844 117.667 121.231 117.517 121.587 117.364C122.039 117.173 122.519 117.032 122.965 116.778C123.399 116.554 123.808 116.39 124.247 116.229C125.236 115.84 126.23 115.514 127.197 115.138C127.873 114.875 128.534 114.688 129.2 114.565C130.753 114.292 132.33 113.849 133.87 113.607C134.471 113.524 135.09 113.473 135.678 113.42C136.107 113.399 136.501 113.421 136.918 113.43C137.347 113.408 137.798 113.373 138.224 113.399C138.556 113.415 138.872 113.507 139.201 113.57C139.631 113.674 140.065 113.783 140.501 113.897C140.603 113.923 140.662 113.975 140.752 114.031C141.333 114.336 141.915 114.641 142.484 114.977C142.812 115.195 143.14 115.414 143.389 115.703C143.743 116.127 144.019 116.622 144.338 117.089C144.667 117.573 144.92 118.081 145.052 118.687C145.06 118.771 145.082 118.846 145.119 118.912C145.192 119.044 145.319 119.165 145.37 119.311C145.597 120.035 145.622 120.817 145.721 121.576C145.736 121.655 145.748 121.781 145.788 121.801C145.965 121.802 145.914 121.922 145.885 122.029C145.808 122.365 145.74 122.717 145.631 123.05C145.475 123.649 145.319 124.248 145.163 124.847C145.137 124.907 145.109 125.013 145.052 125.071C144.777 125.263 144.676 125.503 144.481 125.734C143.617 126.822 142.664 127.854 141.513 128.743C140.994 129.131 140.489 129.597 139.911 129.932C139.146 130.405 138.412 130.881 137.637 131.338C137.212 131.578 136.747 131.799 136.313 132.023C135.652 132.365 135.049 132.76 134.35 133.037C133.471 133.359 132.603 133.806 131.7 134.032C131.189 134.171 130.656 134.323 130.111 134.504C129.157 134.85 128.182 135.054 127.208 135.257C126.573 135.383 125.91 135.461 125.256 135.554C124.351 135.67 123.435 135.926 122.549 135.92C121.915 135.89 121.24 135.997 120.59 136.044C119.871 136.09 119.151 136.136 118.432 136.181C118.255 136.18 118.077 136.179 117.891 136.161C117.612 136.134 117.335 136.061 117.021 136.078C116.375 136.078 115.776 136.005 115.104 136.066C115.048 136.071 114.989 136.071 114.927 136.065C114.237 135.988 113.54 135.916 112.837 135.849C111.967 135.766 111.11 135.653 110.218 135.583C109.69 135.533 109.168 135.545 108.618 135.508C108.162 135.48 107.68 135.512 107.236 135.454C106.72 135.374 106.192 135.323 105.619 135.456C105.457 135.482 105.296 135.508 105.134 135.534C104.163 135.691 103.204 135.818 102.229 136.177C101.736 136.348 101.234 136.503 100.729 136.705C99.912 137.032 99.0985 137.314 98.302 137.784C98.0396 137.946 97.7679 138.092 97.4871 138.221C96.7943 138.56 96.1141 138.87 95.4213 139.209C95.3028 139.26 95.1934 139.328 95.0749 139.379C94.641 139.603 94.1944 139.857 93.764 140.034C92.7866 140.461 91.8103 140.872 90.8352 141.268C90.1804 141.518 89.5107 141.688 88.8835 141.987C88.1596 142.323 87.4462 142.52 86.7512 142.75C85.9376 143.032 85.1367 143.283 84.3463 143.394C84.0196 143.441 83.6928 143.488 83.3695 143.488C83.0505 143.479 82.7284 143.463 82.4033 143.443C82.164 143.435 81.9177 143.521 81.6955 143.703C81.5298 143.827 81.364 143.952 81.1891 144.06C80.2775 144.535 79.4522 145.111 78.5958 145.685C78.0018 146.096 77.4298 146.494 76.8082 146.856C75.6181 147.57 74.4463 148.316 73.2562 149.029C72.4252 149.543 71.6217 150.106 70.7666 150.524C70.5825 150.615 70.4202 150.694 70.236 150.785C69.9644 150.931 69.6928 151.077 69.412 151.206C68.6916 151.496 68.008 151.852 67.3392 152.287C67.2517 152.342 67.1715 152.391 67.0986 152.436C66.0271 153.098 64.9555 153.761 63.8839 154.423C62.9435 155.004 62.0215 155.618 61.0811 156.2C60.0003 156.845 58.9322 157.461 57.8641 158.077C56.3932 158.92 54.9533 159.765 53.4824 160.608C52.4143 161.224 51.3278 161.806 50.2286 162.419C48.9503 163.15 47.6719 163.881 46.3936 164.612C45.1383 165.314 43.8818 166.031 42.6242 166.764C41.8538 167.211 41.0822 167.673 40.3095 168.151C39.8192 168.432 39.3565 168.762 38.888 169.029C37.8418 169.631 36.8082 170.204 35.7839 170.793C34.672 171.435 33.5418 172.045 32.4392 172.705C31.1834 173.458 29.8944 174.1 28.5927 174.771C26.9665 175.599 25.3403 176.427 23.7359 177.241C22.9337 177.648 22.1534 178.042 21.3548 178.403C20.6619 178.742 19.9761 178.989 19.2741 179.312C18.7999 179.516 18.3004 179.781 17.8228 180.031C17.1173 180.401 16.4118 180.77 15.7063 181.14C15.2942 181.35 14.8914 181.577 14.4955 181.711C14.1308 181.848 13.7843 182.018 13.416 182.201C13.1226 182.36 12.8383 182.536 12.5448 182.695C12.0142 182.956 11.4504 183.105 10.9566 183.433C10.891 183.473 10.807 183.481 10.723 183.488C10.5673 183.526 10.4012 183.562 10.2248 183.597C10.0752 183.645 9.94749 183.68 9.7979 183.728C9.55513 183.767 9.2813 183.803 9.00747 183.839C8.12039 183.989 7.4476 183.784 7.04202 183.214C6.94095 183.033 6.83987 182.852 6.76985 182.673C6.69984 182.495 6.69543 182.276 6.61274 182.128C6.4841 181.897 6.55448 181.654 6.69967 181.387C6.94281 180.926 7.31589 180.541 7.6579 180.152C8.05633 179.706 8.45475 179.26 8.88074 178.864C9.67631 178.129 10.5121 177.413 11.3169 176.694C11.8776 176.17 12.4164 175.659 12.9955 175.168C13.2649 174.913 13.5619 174.708 13.8186 174.482C14.5738 173.868 15.3363 173.249 16.1061 172.625C16.1352 172.607 16.1613 172.584 16.1844 172.555C16.8129 172.1 17.4633 171.631 18.0515 171.157C19.0715 170.349 20.1282 169.608 21.1722 168.896C22.0724 168.295 22.9782 167.757 23.8656 167.187C24.2155 166.971 24.5689 166.708 24.9097 166.475C25.316 166.202 25.7004 165.942 26.1068 165.669C26.657 165.284 27.2715 165.015 27.7264 164.513C27.7609 164.469 27.8357 164.445 27.9013 164.404C28.5482 163.982 29.1951 163.56 29.8201 163.152C30.7548 162.508 31.6803 161.847 32.6334 161.236C33.6739 160.571 34.7328 159.938 35.7826 159.29C36.7156 158.713 37.6476 158.152 38.5783 157.606C39.4623 157.082 40.3336 156.588 41.1957 156.077C42.2722 155.441 43.3354 154.799 44.3851 154.15C45.0412 153.745 45.6294 153.27 46.2947 152.881C47.3628 152.266 48.3815 151.614 49.4093 150.979C49.7592 150.762 50.0873 150.56 50.4061 150.34C50.6248 150.205 50.7941 150.034 51.0128 149.899C51.9002 149.328 52.7877 148.758 53.6843 148.203C54.6684 147.595 55.6009 146.842 56.6218 146.299C56.9371 146.127 57.2066 145.871 57.4909 145.696C58.3311 145.199 59.1254 144.619 60.0023 144.188C60.9576 143.686 61.898 143.105 62.8567 142.557C63.6751 142.073 64.5061 141.559 65.3245 141.076C65.7035 140.842 66.0868 140.597 66.4743 140.343C67.0648 139.978 67.6369 139.58 68.2274 139.215C68.796 138.864 69.3956 138.515 69.9642 138.164C70.4016 137.894 70.808 137.62 71.2453 137.35C71.845 137.002 72.3768 136.584 72.9857 136.252C74.1378 135.629 75.2715 134.973 76.4144 134.333C76.892 134.082 77.3915 133.817 77.891 133.553C78.272 133.34 78.6346 133.093 79.0339 132.913C79.6174 132.641 80.1055 132.251 80.5879 131.798C81.1559 131.269 81.7844 130.814 82.4735 130.433C82.9638 130.152 83.476 129.857 83.9881 129.563C84.0538 129.523 84.1102 129.466 84.1723 129.471C84.4334 129.465 84.6556 129.284 84.8835 129.165C85.3047 128.971 85.6984 128.728 86.1231 128.487C86.0863 128.421 86.0679 128.389 86.0622 128.326C86.0762 128.14 86.0189 127.931 86.095 127.751C86.1653 127.508 86.3197 127.258 86.4833 127.024C86.7068 126.686 86.9613 126.351 87.2066 126C87.6029 125.445 87.9991 124.89 88.4264 124.338C88.659 124.016 88.9538 123.701 89.2175 123.383C89.7922 122.673 90.345 121.977 90.9507 121.27C91.2835 120.865 91.6658 120.496 92.0205 120.077C92.5698 119.427 93.088 118.775 93.6374 118.125C93.8884 117.837 94.1705 117.551 94.4434 117.25C94.8199 116.818 95.1781 116.352 95.5858 115.923C95.9588 115.537 96.3848 115.141 96.7671 114.772C97.0511 114.508 97.3278 114.248 97.5972 113.993C97.8102 113.795 98.0634 113.616 98.2764 113.418C98.8026 112.938 99.2977 112.454 99.8146 111.957C100.272 111.512 100.74 111.068 101.218 110.625C101.813 110.057 102.421 109.46 103.057 108.912C104.024 108.115 105.031 107.337 106.026 106.589C107.064 105.815 108.09 105.07 109.137 104.312C110.44 103.344 111.743 102.376 113.046 101.408C113.478 101.075 113.91 100.741 114.373 100.411C115.32 99.7368 116.308 99.0821 117.286 98.4109C117.539 98.2322 117.792 98.0535 118.046 97.8748C118.805 97.3388 119.556 96.7863 120.316 96.2502C120.678 96.004 121.059 95.7907 121.431 95.5609C122.603 94.8146 123.753 94.0817 124.943 93.3683C125.739 92.8982 126.541 92.4911 127.356 92.054C127.878 91.7761 128.421 91.4847 128.955 91.1768C129.467 90.8824 129.989 90.6045 130.543 90.439C131.151 90.263 131.762 90.0405 132.369 89.8645C132.633 89.7753 132.903 89.6971 133.179 89.6298C133.849 89.4598 134.55 89.2926 135.212 88.9501C135.255 88.9231 135.305 88.9071 135.361 88.902C135.763 88.8312 136.177 88.7303 136.566 88.6895C137.176 88.6229 137.773 88.5864 138.37 88.5498C138.715 88.536 139.095 88.4787 139.436 88.5113C140.275 88.5915 141.123 88.6882 141.958 88.8149C142.762 88.9386 143.424 89.2829 143.986 89.7112C144.517 90.1366 144.957 90.6625 145.41 91.1584C145.65 91.4311 145.834 91.7608 146.031 92.0606C146.104 92.1924 146.243 92.2838 146.295 92.4292C146.501 93.0108 146.686 93.606 146.871 94.2011C146.941 94.3795 147.054 94.5308 147.072 94.7197C147.171 95.4784 147.367 96.1995 147.233 97.0139C147.224 97.0339 147.226 97.0549 147.239 97.0768C147.406 97.4831 147.256 97.9525 147.19 98.4145C147.147 98.7069 147.136 99.0023 147.071 99.3083C147.06 99.4478 147.028 99.6007 146.965 99.7507C146.851 100.021 146.736 100.291 146.582 100.541C146.45 100.778 146.308 100.999 146.144 101.233C145.877 101.598 145.579 101.959 145.312 102.324C145.035 102.672 144.817 103.073 144.523 103.388C144.011 103.948 143.491 104.491 142.921 104.998C142.326 105.566 141.69 106.114 140.974 106.623C140.499 106.983 140.014 107.327 139.502 107.621C138.863 107.987 138.224 108.352 137.585 108.718C137.029 109.039 136.454 109.328 135.898 109.649C135.268 109.994 134.615 110.353 133.994 110.715C133.098 111.254 132.175 111.743 131.225 112.183C130.479 112.533 129.724 112.867 128.96 113.184C128.657 113.327 128.327 113.42 128.002 113.576C127.397 113.862 126.832 114.166 126.226 114.452C125.674 114.727 125.118 115.048 124.547 115.29C123.269 115.792 122.033 116.423 120.782 116.975C119.606 117.502 118.398 118.027 117.191 118.551C116.177 119 115.172 119.466 114.14 119.883C112.506 120.538 110.918 121.276 109.324 121.95C108.903 122.144 108.463 122.305 108.055 122.469C107.788 122.589 107.522 122.709 107.256 122.83C107.268 122.851 107.281 122.873 107.293 122.895ZM108.848 123.153C109.08 123.113 109.314 123.058 109.549 122.986C110.103 122.821 110.658 122.655 111.203 122.473C111.309 122.452 111.397 122.398 111.502 122.377C111.824 122.267 112.148 122.111 112.466 122.048C113.07 121.918 113.65 121.693 114.221 121.451C114.554 121.311 114.879 121.155 115.187 121.075C115.548 120.985 115.827 120.746 116.152 120.59C115.828 120.59 115.491 120.776 115.179 120.903C115.029 120.685 115.041 120.655 115.288 120.57C115.556 120.471 115.811 120.401 116.079 120.302C116.849 120.048 117.632 119.764 118.392 119.493C118.823 119.316 119.231 119.152 119.653 118.958C120.386 118.638 121.11 118.302 121.821 117.995C122.488 117.715 123.165 117.452 123.827 117.11C124.208 116.897 124.6 116.809 124.977 116.642C125.929 116.187 126.926 115.97 127.892 115.595C128.235 115.471 128.556 115.361 128.901 115.348C129.1 115.335 129.347 115.25 129.58 115.194C129.962 115.106 130.348 115.007 130.739 114.899C130.867 114.864 130.985 114.813 131.104 114.762C131.074 114.603 130.972 114.578 130.813 114.61C130.636 114.645 130.45 114.679 130.252 114.712C129.829 114.796 129.387 114.848 128.951 114.962C128.431 115.084 127.917 115.269 127.393 115.438C126.959 115.573 126.528 115.714 126.1 115.86C125.906 115.935 125.744 116.013 125.573 116.075C125.142 116.252 124.708 116.476 124.281 116.607C123.493 116.828 122.762 117.258 121.989 117.558C121.493 117.776 120.966 117.991 120.47 118.209C120.145 118.365 119.852 118.525 119.527 118.681C119.015 118.975 118.479 119.174 117.934 119.356C116.917 119.695 115.922 120.178 114.93 120.614C114.188 120.917 113.455 121.237 112.703 121.524C112.22 121.712 111.74 121.854 111.247 122.025C110.777 122.183 110.293 122.371 109.845 122.515C109.268 122.694 108.692 122.873 108.137 123.039C107.732 123.156 107.305 123.287 106.9 123.404C106.041 123.603 105.203 123.788 104.343 123.987C103.717 124.13 103.092 124.273 102.456 124.399C101.79 124.523 101.121 124.693 100.483 124.71C99.8332 124.757 99.1543 124.911 98.4973 125.051C97.7564 125.199 97.0189 125.3 96.2652 125.477C95.2032 125.735 94.1665 125.932 93.1159 126.316C92.3552 126.586 91.5578 126.791 90.788 127.045C90.4359 127.152 90.1021 127.292 89.7282 127.412C88.2944 127.899 86.8548 128.323 85.4898 129.145C84.9995 129.426 84.5091 129.707 84.0131 129.924C83.2144 130.285 82.5606 130.8 81.9251 131.348C81.7248 131.516 81.5244 131.684 81.3149 131.836C80.6116 132.315 80.1371 132.941 79.6315 133.563C79.4933 133.737 79.346 133.895 79.1308 133.984C79.0433 134.038 78.965 134.108 78.9178 134.182C78.4398 134.854 78.0331 135.549 77.7379 136.285C77.6111 136.585 77.5245 136.905 77.4817 137.197C77.4468 137.662 77.4556 138.1 77.4517 138.568C77.4726 139.309 77.6879 139.959 78.0977 140.518C78.2574 140.752 78.4262 141.002 78.5951 141.252C78.7916 141.552 79.1792 141.667 79.4884 141.853C79.7794 142.006 80.0484 142.172 80.3612 142.311C80.6337 142.431 80.9155 142.567 81.2225 142.643C82.0944 142.836 83.0366 142.785 84.0041 142.675C84.4367 142.607 84.8659 142.586 85.2858 142.548C85.4008 142.543 85.4848 142.536 85.5907 142.514C86.3156 142.303 87.0447 142.081 87.7781 141.85C88.0865 141.77 88.4167 141.677 88.7067 141.564C89.3841 141.337 90.0554 141.1 90.7205 140.851C91.5249 140.554 92.3223 140.349 93.0716 139.952C93.3961 139.796 93.728 139.635 94.0671 139.47C94.0548 139.448 94.0426 139.426 94.0303 139.404C93.6437 139.554 93.2443 139.735 92.8266 139.882C92.4181 140.046 92.0222 140.18 91.517 140.381C91.8105 140.222 92.0073 140.1 92.2444 139.998C93.2307 139.499 94.2687 139.146 95.2217 138.535C95.4623 138.386 95.7304 138.287 95.9802 138.155C96.9411 137.716 97.924 137.264 98.8941 136.841C99.4649 136.599 100.048 136.327 100.636 136.274C100.773 136.256 100.914 136.192 101.054 136.127C102.002 135.718 102.971 135.452 103.942 135.295C104.269 135.248 104.599 135.155 104.917 135.092C105.751 134.953 106.589 134.768 107.388 134.673C108.387 134.565 109.353 134.611 110.272 134.73C110.623 134.779 110.979 134.891 111.426 134.637C111.501 134.613 111.591 134.669 111.665 134.645C111.749 134.637 111.837 134.583 111.933 134.545C111.648 134.456 111.398 134.323 111.052 134.336C110.004 134.408 108.96 134.433 107.893 134.471C107.475 134.494 107.053 134.51 106.628 134.522C106.566 134.516 106.469 134.554 106.451 134.521C106.232 134.234 105.793 134.395 105.473 134.349C105.287 134.331 105.075 134.373 104.901 134.326C104.337 134.209 103.714 134.306 103.101 134.419C102.58 134.504 102.058 134.605 101.535 134.722C100.781 134.899 100.026 135.233 99.2841 135.536C98.7881 135.754 98.2737 135.939 97.765 136.187C97.1505 136.456 96.5084 136.676 95.9052 137.071C95.8488 137.128 95.7303 137.179 95.7176 137.209C95.6656 137.485 95.4355 137.494 95.2203 137.583C95.0178 137.641 94.7899 137.76 94.6057 137.852C93.6723 138.34 92.7573 138.861 91.8791 139.448C91.5165 139.694 91.1171 139.875 90.7637 140.137C91.01 140.052 91.2654 139.983 91.4933 139.864C92.3047 139.473 93.0977 139.05 93.9217 138.629C94.8989 138.114 95.8449 137.595 96.8404 137.113C97.4803 136.784 98.1443 136.551 98.7991 136.302C98.9924 136.226 99.1915 136.214 99.4032 136.172C99.4945 136.16 99.59 136.138 99.6897 136.106C99.8393 136.058 99.9889 136.01 100.144 136.024C99.9508 136.1 99.7448 136.205 99.5423 136.263C98.807 136.474 98.0831 136.811 97.3776 137.18C96.516 137.639 95.6543 138.098 94.7926 138.556C94.1412 138.9 93.494 139.233 92.851 139.557C91.9925 140.021 91.0879 140.403 90.1869 140.738C89.7381 140.882 89.2858 141.073 88.8335 141.264C88.7588 141.288 88.715 141.315 88.6621 141.326C87.6001 141.583 86.5057 141.993 85.4458 142.36C85.3054 142.425 85.2123 142.416 85.2009 142.29C85.4209 141.999 85.7844 142.018 86.0779 141.859C86.3805 141.716 86.6797 141.62 87.0008 141.51C86.9675 141.398 86.8398 141.432 86.7339 141.453C86.4037 141.547 86.0734 141.64 85.7524 141.75C85.1759 141.929 84.6501 141.988 84.1221 141.937C83.8737 141.913 83.5653 141.993 83.2858 141.966C82.8912 141.944 82.522 141.862 82.1401 141.81C81.4695 141.715 81.0189 141.328 80.4865 141.059C80.0968 140.834 79.7197 140.58 79.4082 140.284C79.0472 139.953 78.6898 139.576 78.4072 139.174C78.2199 138.891 78.2076 138.5 78.3195 138.12C78.3487 138.102 78.3809 138.09 78.4162 138.083C78.4438 138.132 78.4713 138.182 78.4678 138.228C78.5103 138.357 78.54 138.516 78.5296 138.655C78.5397 138.937 78.6062 139.162 78.8477 139.279C78.8787 139.282 78.919 139.301 78.9374 139.334C79.2257 139.799 79.7926 140.025 80.2467 140.365C80.4628 140.541 80.6862 140.714 80.9169 140.881C81.4649 141.267 82.1147 141.501 82.8662 141.583C83.102 141.637 83.3758 141.6 83.6588 141.581C83.9602 141.594 84.2835 141.594 84.5976 141.577C84.9335 141.546 85.2913 141.503 85.6307 141.426C86.3004 141.256 86.9482 141.099 87.5995 140.896C88.4223 140.631 89.245 140.367 90.0402 140.053C90.4925 139.862 90.9242 139.528 91.3708 139.275C91.5894 139.139 91.8081 139.004 92.0085 138.836C91.4298 138.906 90.852 139.241 90.2549 139.277C90.2828 138.905 90.3418 138.536 90.5469 138.166C89.9932 138.597 89.8857 139.195 89.4435 139.668C89.3136 139.593 89.3954 139.476 89.4553 139.372C89.6731 138.972 89.8816 138.555 90.1523 138.144C90.4231 137.733 90.7248 137.324 91.0266 136.916C91.2028 136.652 91.3572 136.402 91.5426 136.154C91.9008 135.689 92.2992 135.243 92.6666 134.794C92.8831 134.55 93.0904 134.289 93.2356 134.022C93.6388 133.373 94.1627 132.784 94.6373 132.158C94.7409 132.027 94.8262 131.864 94.9206 131.717C95.1787 131.336 95.4294 130.959 95.6728 130.587C95.8364 130.353 95.9908 130.102 96.1727 129.901C96.4329 129.629 96.4976 129.323 96.767 129.068C97.0146 128.827 97.2438 128.552 97.4821 128.294C97.6514 128.123 97.8115 127.935 98.0026 127.751C98.6204 127.206 99.2486 126.663 99.8872 126.12C100.009 126.023 100.172 125.945 100.368 125.823C99.8185 125.786 99.3216 125.738 98.829 125.91C98.4424 126.06 98.057 126.055 97.6393 126.202C97.2526 126.352 96.8384 126.453 96.4495 126.494C95.4382 126.631 94.4256 126.925 93.4384 127.158C92.3016 127.44 91.1831 127.754 90.0646 128.068C89.0429 128.345 88.0508 128.781 87.0737 129.296C86.3463 129.679 85.6098 130.046 84.8697 130.459C84.4887 130.672 84.1445 130.952 83.7692 131.228C83.4316 131.466 83.1073 131.711 82.7965 131.962C82.1426 132.477 81.4669 133.005 80.8222 133.537C80.6219 133.705 80.4894 133.942 80.3075 134.143C80.1777 134.297 80.0242 134.444 79.8469 134.583C79.8989 134.307 80.1027 134.092 80.2755 133.875C80.4264 133.671 80.6486 133.489 80.8432 133.258C81.2105 132.809 81.7227 132.515 82.1671 132.151C82.6552 131.761 83.1433 131.371 83.6187 131.01C84.1628 130.615 84.7192 130.242 85.2878 129.89C85.747 129.606 86.212 129.386 86.6896 129.135C87.5137 128.714 88.3377 128.293 89.1915 128.032C90.0362 127.754 90.8589 127.489 91.7001 127.257C92.6287 126.971 93.5538 126.732 94.4916 126.463C95.0731 126.31 95.6588 126.148 96.2487 125.975C96.5789 125.882 96.8908 125.756 97.19 125.66C97.3925 125.601 97.6134 125.575 97.8251 125.533C98.3014 125.438 98.7778 125.343 99.2541 125.248C100.119 125.112 100.972 125.007 101.828 124.854C102.441 124.741 103.038 124.705 103.64 124.466C103.974 124.326 104.339 124.189 104.682 124.066C104.928 123.98 105.161 123.925 105.406 123.995C105.558 124.056 105.848 123.943 106.082 123.888C106.509 123.757 106.926 123.61 107.362 123.495C107.534 123.434 107.711 123.435 107.87 123.403C107.741 123.453 107.605 123.508 107.461 123.567C107.467 123.578 107.469 123.599 107.467 123.63C107.648 123.585 107.828 123.54 108.009 123.495C108.009 123.495 108.047 123.405 108.06 123.375C108.322 123.212 108.574 123.19 108.848 123.153ZM111.933 134.545C111.933 134.545 111.937 134.551 111.943 134.562C111.943 134.562 111.94 134.556 111.933 134.545ZM112.142 134.55C112.086 134.555 112.019 134.559 111.943 134.562C111.979 134.628 112.029 134.664 112.142 134.55ZM109.217 123.657C108.02 124.042 106.814 124.41 105.639 124.782C105.234 124.899 104.857 125.066 104.483 125.186C103.713 125.44 102.956 125.665 102.226 125.938C101.927 126.034 101.643 126.21 101.367 126.402C100.139 127.206 98.9606 128.045 97.8462 129C97.6113 129.211 97.404 129.473 97.2094 129.704C96.8455 130.106 96.5 130.541 96.1361 130.943C95.565 131.607 94.9846 132.253 94.4353 132.903C94.046 133.366 93.6039 133.838 93.317 134.326C93.0301 134.813 92.5731 135.207 92.3299 135.667C92.2446 135.831 92.0789 135.956 91.9809 136.149C92.083 136.086 92.185 136.023 92.2871 135.96C91.7514 136.845 91.1352 137.691 90.7202 138.635C91.2735 138.625 91.7775 138.58 92.2861 138.332C92.9882 138.009 93.6937 137.639 94.3957 137.316C94.8388 137.109 95.3129 136.905 95.756 136.697C96.0149 136.582 96.2555 136.433 96.5144 136.317C97.3569 135.93 98.1901 135.525 99.0417 135.154C99.5815 134.909 100.149 134.714 100.716 134.518C101.218 134.363 101.747 134.258 102.258 134.12C103.108 133.904 103.908 133.809 104.751 133.687C104.963 133.645 105.193 133.636 105.401 133.64C105.902 133.641 106.402 133.642 106.902 133.643C107.133 133.634 107.353 133.608 107.562 133.612C107.947 133.618 108.285 133.697 108.674 133.656C109.607 133.589 110.451 133.733 111.337 133.739C112.462 133.753 113.575 133.797 114.712 133.781C115.496 133.762 116.263 133.82 117.012 133.845C117.313 133.858 117.627 133.841 117.92 133.838C118.296 133.827 118.672 133.816 119.048 133.806C119.256 133.81 119.465 133.814 119.673 133.818C119.766 133.827 119.884 133.776 119.987 133.802C120.195 133.806 120.419 133.734 120.599 133.845C120.76 133.922 121.024 133.87 121.233 133.874C121.365 133.866 121.501 133.863 121.64 133.866C121.545 134.013 121.464 134.13 121.347 134.291C121.599 134.268 121.764 134.299 121.954 134.271C122.422 134.232 122.888 134.188 123.35 134.139C123.403 134.128 123.434 134.131 123.478 134.104C123.886 133.94 124.288 133.87 124.708 133.832C124.938 133.823 125.228 133.71 125.493 133.657C125.841 133.597 126.19 133.536 126.548 133.493C126.958 133.438 127.382 133.354 127.814 133.286C128.362 133.214 128.928 133.174 129.479 133.055C130.136 132.915 130.806 132.745 131.445 132.572C132.308 132.327 133.14 132.078 133.975 131.784C134.564 131.575 135.126 131.316 135.709 131.044C136.521 130.654 137.332 130.263 138.128 129.793C138.872 129.333 139.616 128.874 140.264 128.296C140.755 127.859 141.198 127.386 141.609 126.911C141.86 126.623 141.999 126.292 142.157 125.995C142.464 125.385 142.748 124.788 143.033 124.191C143.22 123.787 143.344 123.378 143.491 122.955C143.529 122.865 143.579 122.745 143.639 122.641C143.851 122.599 143.853 122.708 143.877 122.804C143.913 122.974 143.952 123.15 143.994 123.331C144.013 123.364 144.009 123.41 143.996 123.44C143.721 124.054 143.467 124.654 143.152 125.248C142.798 125.932 142.373 126.594 141.796 127.194C141.505 127.463 141.294 127.77 141.052 128.075C141.433 127.862 141.693 127.59 142.006 127.308C142.602 126.74 143.054 126.128 143.457 125.48C143.624 125.199 143.863 124.941 144.079 124.697C144.252 124.479 144.403 124.275 144.464 124.015C144.574 123.526 144.693 123.054 144.771 122.562C144.833 122.303 144.841 122.054 144.818 121.802C144.807 120.833 144.691 119.885 144.553 118.951C144.492 118.368 144.213 117.92 143.903 117.469C143.58 117.048 143.292 116.583 142.981 116.132C142.899 115.984 142.76 115.893 142.599 115.815C142.379 115.684 142.228 115.467 142.031 115.323C141.851 115.213 141.672 115.102 141.502 115.008C141.371 115.089 141.261 115.156 141.155 115.177C141.071 115.185 141.004 115.116 140.932 115.094C140.579 114.935 140.257 114.779 139.826 114.691C139.79 114.891 139.902 114.933 140.001 115.004C140.452 115.287 140.908 115.559 141.368 115.822C141.476 115.91 141.618 115.955 141.617 116.111C141.604 116.141 141.614 116.158 141.645 116.161C142.007 116.336 142.134 116.722 142.427 116.985C142.77 117.283 142.968 117.692 143.123 118.128C143.214 118.397 143.313 118.661 143.418 118.921C143.531 119.228 143.7 119.479 143.619 119.861C143.59 119.967 143.645 120.066 143.669 120.162C143.765 120.546 143.778 120.938 143.799 121.345C143.805 121.408 143.758 121.482 143.72 121.572C143.605 121.576 143.533 121.554 143.509 121.458C143.505 121.239 143.479 121.034 143.452 120.828C143.363 120.352 143.296 119.861 143.153 119.395C143.09 119.124 142.931 118.89 142.771 118.656C142.448 118.235 142.147 117.801 141.79 117.423C141.531 117.117 141.207 116.852 140.892 116.604C140.383 116.165 139.644 116 139.079 115.619C138.603 115.292 138.038 115.176 137.404 115.146C136.686 115.124 135.99 115.089 135.307 115.024C134.459 114.927 133.572 115.076 132.689 115.179C132.268 115.233 131.839 115.29 131.403 115.353C131.011 115.44 130.631 115.498 130.226 115.615C129.182 115.921 128.14 116.232 127.101 116.549C126.534 116.744 125.976 116.956 125.408 117.152C124.476 117.484 123.577 117.929 122.666 118.404C122.123 118.695 121.583 118.94 121.03 119.215C120.706 119.371 120.422 119.547 120.097 119.703C119.036 120.226 117.978 120.702 116.908 121.209C116.627 121.338 116.377 121.47 116.097 121.599C115.102 122.066 114.098 122.532 113.083 122.997C112.986 123.034 112.889 123.072 112.793 123.109C112.75 122.98 112.859 122.913 112.956 122.875C113.399 122.668 113.83 122.49 114.273 122.283C114.641 122.1 114.997 121.947 115.43 121.723C114.977 121.648 112.23 122.415 111.163 122.875C111.166 122.917 111.173 122.965 111.183 123.018C110.532 123.221 109.868 123.454 109.217 123.657ZM107.369 133.953C107.465 134.071 107.496 134.074 107.64 133.963C107.546 133.954 107.484 133.948 107.369 133.953ZM107.64 133.963C107.64 133.963 107.647 133.959 107.661 133.95C107.661 133.95 107.654 133.954 107.64 133.963ZM107.875 134.017C107.846 133.858 107.745 133.942 107.661 133.95C107.733 133.972 107.804 133.994 107.875 134.017ZM125.708 134.677C125.815 134.921 126.065 134.789 126.276 134.746C127.039 134.585 127.802 134.424 128.556 134.247C128.661 134.225 128.798 134.207 128.877 134.137C129.164 133.915 129.454 133.802 129.776 133.692C130.133 133.56 130.494 133.433 130.857 133.312C131.057 133.247 131.256 133.183 131.456 133.119C131.83 132.999 132.194 132.862 132.568 132.742C132.749 132.697 132.92 132.635 133.121 132.467C133.006 132.471 132.953 132.482 132.878 132.506C132.239 132.679 131.61 132.869 130.971 133.042C130.451 133.164 129.944 133.256 129.42 133.424C128.835 133.586 128.281 133.596 127.712 133.682C127.341 133.756 126.978 133.737 126.578 133.917C126.46 133.968 126.326 133.94 126.19 133.958C125.895 133.992 125.604 134.032 125.315 134.077C124.767 134.15 124.242 134.209 123.716 134.268C123.367 134.328 123.006 134.418 122.67 134.448C122.07 134.531 121.491 134.601 120.912 134.671C120.881 134.668 120.859 134.681 120.85 134.665C120.519 134.492 120.079 134.653 119.703 134.664C118.699 134.709 117.682 134.783 116.687 134.844C116.164 134.856 115.642 134.869 115.107 134.911C114.862 134.93 114.601 134.988 114.322 135.086C114.549 135.123 114.785 135.177 115.024 135.184C115.828 135.22 116.633 135.239 117.439 135.244C118.147 135.249 118.878 135.241 119.608 135.233C120.255 135.232 120.91 135.248 121.57 135.217C122.052 135.185 122.559 135.093 123.063 135.048C123.368 135.015 123.682 134.998 124.018 134.968C123.665 135.038 123.319 135.104 122.981 135.165C122.897 135.172 122.841 135.23 122.763 135.3C123.708 135.203 124.67 135.03 125.676 134.83C125.617 134.777 125.599 134.744 125.58 134.711C125.633 134.701 125.708 134.677 125.708 134.677ZM68.1019 151.018C68.3827 150.889 68.6198 150.787 68.8166 150.665C69.8678 150.089 70.919 149.513 71.9702 148.938C72.8725 148.446 73.7748 147.955 74.6461 147.461C75.6176 146.883 76.6109 146.291 77.5639 145.68C78.2108 145.258 78.8428 144.757 79.4932 144.288C79.6808 144.15 79.8995 144.015 80.078 143.86C80.1654 143.806 80.2346 143.719 80.3037 143.632C80.5582 143.297 80.5411 143.109 80.1719 143.026C79.4116 142.876 78.846 142.494 78.3276 142.038C78.2506 141.953 78.1609 141.898 78.062 141.826C77.9321 141.751 77.8113 141.693 77.8253 141.507C77.8323 141.414 77.7426 141.358 77.6748 141.289C77.3817 141.027 77.1979 140.697 77.2328 140.233C77.263 139.97 77.1435 139.756 77.1207 139.504C77.0695 138.937 76.9872 138.367 77.0107 137.777C77.0399 137.249 77.2061 136.703 77.4033 136.16C77.6223 135.603 77.8598 135.08 78.2525 134.571C78.4379 134.323 78.552 134.053 78.6478 133.75C78.5074 133.815 78.3854 133.912 78.2668 133.964C77.3623 134.345 76.5094 134.872 75.6692 135.37C74.4917 136.053 73.3016 136.766 72.1115 137.48C71.6085 137.791 71.0836 138.115 70.5806 138.426C69.9154 138.815 69.2317 139.171 68.5446 139.573C68.0105 139.881 67.5075 140.192 66.9827 140.517C66.1079 141.057 65.2734 141.617 64.4021 142.111C63.334 142.727 62.2843 143.376 61.2437 144.041C60.6187 144.45 59.9442 144.822 59.31 145.214C58.654 145.62 57.9979 146.025 57.3545 146.401C56.8077 146.739 56.2553 147.013 55.7086 147.351C55.0088 147.784 54.3055 148.263 53.624 148.728C53.3052 148.948 52.9863 149.167 52.6675 149.386C51.8238 149.93 50.9709 150.457 50.1271 151C49.8302 151.206 49.555 151.398 49.2708 151.574C48.4489 152.104 47.6179 152.618 46.8087 153.118C46.3057 153.429 45.7844 153.707 45.2814 154.017C44.6161 154.406 44.0003 154.831 43.335 155.22C42.6697 155.609 41.9642 155.979 41.2898 156.351C41.2679 156.365 41.215 156.376 41.1931 156.389C40.9753 156.79 40.53 156.888 40.1893 157.12C38.9485 157.954 37.68 158.738 36.3657 159.439C35.9628 159.666 35.5784 159.926 35.1939 160.185C34.013 160.915 32.832 161.645 31.673 162.362C30.4107 163.156 29.1515 163.957 27.8953 164.763C27.0953 165.279 26.2735 165.809 25.4827 166.343C24.8795 166.738 24.2948 167.165 23.7008 167.577C22.9883 168.039 22.2666 168.485 21.5541 168.948C21.0949 169.232 20.6667 169.519 20.2258 169.835C19.1564 170.607 18.0651 171.392 17.0049 172.181C16.1415 172.847 15.2874 173.53 14.4424 174.23C13.7631 174.805 13.0712 175.41 12.4012 176.001C11.5078 176.79 10.6174 177.584 9.73014 178.383C9.30415 178.78 8.85629 179.19 8.44867 179.619C7.97196 180.135 7.54467 180.687 7.13007 181.209C6.98269 181.367 6.86287 181.574 6.9202 181.783C7.16646 181.697 7.37817 181.655 7.59336 181.566C8.32528 181.261 9.05413 180.951 9.77993 180.636C10.3634 180.364 10.9561 180.108 11.5523 179.806C12.3544 179.399 13.1693 178.962 13.9841 178.525C14.6854 178.165 15.3837 177.8 16.0788 177.43C16.8031 177.041 17.5348 176.648 18.2736 176.251C18.7075 176.027 19.1012 175.784 19.5351 175.56C19.7411 175.455 19.9873 175.369 20.1934 175.264C20.8862 174.924 21.548 174.582 22.2316 174.226C22.8715 173.897 23.5206 173.584 24.1605 173.255C24.5944 173.031 25.041 172.777 25.4749 172.554C25.7684 172.394 26.071 172.252 26.3427 172.106C27.1575 171.669 27.9724 171.232 28.7964 170.811C29.2959 170.547 29.8046 170.299 30.2822 170.048C30.8474 169.743 31.4125 169.438 31.9776 169.133C33.2889 168.426 34.5929 167.724 35.8896 167.026C36.7919 166.534 37.6759 166.01 38.5599 165.486C39.5094 164.921 40.4865 164.406 41.4418 163.904C42.2348 163.481 43.0278 163.057 43.8208 162.634C44.6387 162.202 45.4566 161.77 46.2746 161.339C46.4806 161.234 46.6901 161.082 46.9179 160.963C47.4739 160.642 48.0608 160.323 48.6168 160.002C49.335 159.602 50.044 159.186 50.7403 158.8C51.34 158.452 51.9672 158.153 52.5668 157.804C53.2632 157.418 53.9722 157.002 54.6685 156.616C55.0713 156.39 55.5236 156.199 55.9356 155.988C56.1854 155.856 56.4041 155.721 56.6538 155.589C57.4157 155.162 58.1904 154.706 58.9833 154.282C59.2987 154.109 59.6014 153.967 59.8489 153.725C60.0711 153.543 60.3484 153.461 60.62 153.315C60.8479 153.196 61.1034 153.127 61.298 152.896C61.3544 152.839 61.4384 152.831 61.504 152.791C61.6755 152.729 61.8251 152.681 61.9725 152.523C62.0416 152.436 62.1911 152.388 62.3097 152.337C62.5686 152.221 62.8367 152.122 63.0865 151.99C63.2488 151.912 63.3835 151.784 63.5274 151.673C63.7679 151.525 64.0304 151.362 64.2801 151.23C64.9638 150.874 65.6566 150.535 66.3586 150.212C66.7269 150.028 67.1319 149.911 67.5405 149.747C67.845 150.135 68.2313 150.406 68.1019 151.018ZM137.872 88.9237C137.064 89.0024 136.28 89.0211 135.448 89.2693C134.903 89.4513 134.379 89.6197 133.825 89.7852C133.675 89.8333 133.525 89.8814 133.376 89.9295C132.641 90.1402 131.927 90.3373 131.192 90.5479C130.382 90.7826 129.636 91.1327 128.883 91.5757C128.371 91.8701 127.822 92.0985 127.279 92.39C126.639 92.7189 126.018 93.0809 125.387 93.4264C125.028 93.6262 124.656 93.8559 124.297 94.0557C124.013 94.2314 123.741 94.3771 123.466 94.5693C122.535 95.167 121.644 95.7841 120.725 96.3518C120.003 96.7978 119.34 97.2963 118.677 97.7948C118.25 98.1181 117.824 98.4259 117.398 98.7182C116.307 99.5034 115.139 100.203 114.106 101.041C113.64 101.418 113.152 101.808 112.609 102.1C112.521 102.154 112.421 102.238 112.321 102.322C111.887 102.634 111.45 102.956 111.007 103.289C110.907 103.373 110.794 103.487 110.672 103.584C109.778 104.248 108.874 104.895 107.98 105.559C107.384 106.001 106.783 106.454 106.178 106.916C105.396 107.518 104.625 108.12 103.863 108.724C103.657 108.881 103.454 109.043 103.253 109.212C102.874 109.534 102.455 109.838 102.117 110.18C101.687 110.623 101.153 110.93 100.814 111.429C100.779 111.472 100.735 111.499 100.701 111.543C100.519 111.744 100.251 111.843 100.096 112.094C99.9765 112.301 99.7635 112.499 99.6035 112.686C99.5574 112.744 99.5083 112.797 99.4561 112.844C99.0301 113.24 98.626 113.623 98.1597 114C97.515 114.531 96.9473 115.148 96.321 115.712C95.7385 116.25 95.1961 116.807 94.7124 117.416C94.3577 117.835 93.9409 118.247 93.5241 118.66C93.455 118.747 93.3767 118.818 93.3295 118.891C92.9368 119.4 92.5843 119.928 92.1513 120.417C91.1944 121.496 90.2593 122.562 89.361 123.693C88.9937 124.142 88.5917 124.634 88.2336 125.1C88.0516 125.301 87.9099 125.521 87.7682 125.742C87.501 126.106 87.2246 126.455 86.9793 126.806C86.7988 127.08 86.6245 127.365 86.4563 127.661C86.4182 127.751 86.4423 127.847 86.4134 127.953C86.5779 127.985 86.7113 128.013 86.8356 128.025C86.9287 128.034 87.0656 128.016 87.1623 127.978C87.4742 127.852 87.7987 127.696 88.1325 127.556C88.7708 127.294 89.4152 127.044 90.0658 126.804C90.6676 126.565 91.2568 126.356 91.8574 126.273C92.2463 126.232 92.6548 126.069 93.038 125.965C93.8871 125.765 94.7436 125.561 95.6073 125.352C96.2862 125.198 96.9577 125.049 97.622 124.905C98.0144 124.818 98.3722 124.774 98.7519 124.716C98.9636 124.674 99.188 124.602 99.3905 124.543C100.131 124.396 100.882 124.265 101.626 124.07C102.423 123.866 103.246 123.601 104.056 123.366C104.782 123.139 105.484 122.816 106.183 122.54C106.913 122.266 107.617 122.052 108.325 121.792C109.226 121.457 110.114 121.152 111.006 120.8C111.48 120.596 111.948 120.328 112.444 120.111C112.948 119.888 113.45 119.681 113.951 119.49C114.5 119.261 115.054 119.096 115.603 118.867C116.52 118.456 117.45 118.014 118.358 117.586C119.288 117.144 120.2 116.669 121.139 116.244C121.648 115.996 122.206 115.784 122.724 115.553C122.886 115.475 123.039 115.38 123.21 115.318C123.663 115.128 124.115 114.937 124.567 114.746C125.344 114.399 126.13 114.068 126.889 113.688C127.528 113.359 128.141 112.981 128.771 112.635C128.859 112.581 128.925 112.541 129.021 112.503C130.176 111.989 131.29 111.456 132.365 110.747C133.44 110.038 134.542 109.379 135.627 108.686C136.374 108.18 137.143 107.661 137.881 107.138C138.177 106.933 138.447 106.678 138.726 106.439C139.609 105.649 140.501 104.876 141.353 104.084C142.274 103.204 143.155 102.305 143.865 101.312C144.202 100.86 144.47 100.339 144.748 99.8353C144.83 99.7182 144.88 99.5982 144.962 99.4812C145.38 98.9125 145.537 98.35 145.601 97.7786C145.638 97.4232 145.591 97.0754 145.566 96.714C145.548 96.2597 145.539 95.8218 145.469 95.378C145.427 95.0932 145.302 94.8159 145.23 94.528C145.202 94.4786 145.144 94.4261 145.147 94.3796C145.176 94.2731 145.258 94.1561 145.318 94.0526C145.389 94.075 145.482 94.0839 145.541 94.1364C145.806 94.349 145.813 94.6774 145.851 95.0088C145.896 95.5126 145.942 96.0164 145.966 96.5337C145.99 96.6296 145.983 96.7226 145.985 96.8321C145.998 97.0675 146.03 97.3359 146 97.5983C145.992 97.8473 145.887 98.1338 145.826 98.3932C145.709 98.9752 145.295 99.4974 144.982 100.045C144.877 100.243 144.765 100.446 144.645 100.653C144.307 101.26 143.84 101.793 143.412 102.345C143.136 102.693 142.81 103.006 142.497 103.288C142.34 103.429 142.224 103.589 142.077 103.747C141.682 104.146 141.274 104.576 140.848 104.972C140.344 105.439 139.84 105.905 139.277 106.32C138.967 106.556 138.685 106.841 138.375 107.076C138.009 107.369 137.621 107.675 137.228 107.919C136.672 108.24 136.193 108.647 135.686 109.004C135.468 109.14 135.209 109.255 134.977 109.42C134.365 109.799 133.749 110.224 133.124 110.632C132.818 110.821 132.524 110.981 132.227 111.186C132.162 111.227 132.118 111.254 132.089 111.36C132.23 111.296 132.37 111.231 132.532 111.153C133.491 110.605 134.472 110.043 135.44 109.511C136.289 109.031 137.144 108.613 137.994 108.132C138.821 107.665 139.658 107.215 140.421 106.632C141.581 105.76 142.661 104.849 143.646 103.819C144.053 103.39 144.399 102.955 144.704 102.5C145.009 102.045 145.426 101.633 145.75 101.211C145.91 101.023 146.008 100.83 146.128 100.623C146.188 100.519 146.238 100.399 146.298 100.296C146.5 99.9716 146.617 99.6551 146.58 99.3237C146.559 99.1813 146.666 99.0043 146.699 98.8513C146.76 98.1704 146.853 97.4926 146.871 96.8388C146.845 96.212 146.788 95.5822 146.656 94.9765C146.515 94.3544 146.299 93.7563 146.084 93.1582C145.986 92.9303 145.836 92.713 145.707 92.4822C145.496 92.7898 145.74 93.016 145.56 93.3266C145.532 93.2771 145.492 93.2577 145.474 93.2247C145.49 92.7268 145.239 92.3282 145.115 91.895C144.949 91.3328 144.551 90.9358 144.031 90.6364C143.861 90.5421 143.669 90.4613 143.477 90.3805C143.406 90.358 143.291 90.3626 143.135 90.3478C143.287 90.8305 143.855 90.9005 143.926 91.3442C143.849 91.2588 143.741 91.1705 143.642 91.0986C143.534 91.0102 143.404 90.9354 143.256 90.8275C143.253 91.1394 143.498 91.2097 143.621 91.3775C143.74 91.5554 143.876 91.7297 144.03 91.9005C144.197 92.0413 144.364 92.1821 144.549 92.3558C144.454 92.5029 144.431 92.6724 144.557 92.7937C144.585 92.8432 144.613 92.8926 144.587 92.9526C144.422 93.3426 144.697 93.5718 144.704 93.9002C144.73 94.1056 144.787 94.314 144.823 94.5359C144.85 94.5854 144.8 94.7054 144.756 94.7324C144.625 94.8135 144.566 94.7611 144.542 94.6651C144.475 94.4403 144.268 94.28 144.352 94.007C144.377 93.947 144.349 93.8975 144.322 93.8481C144.209 93.5408 144.088 93.217 143.931 92.9367C143.83 92.7554 143.686 92.6011 143.541 92.4468C143.301 92.1741 143.073 91.8714 142.811 91.6122C142.613 91.4684 142.363 91.3352 142.096 91.2785C141.6 91.127 141.088 91 140.56 90.8975C139.738 90.7408 138.878 90.6742 137.979 90.6975C137.28 90.7087 136.593 90.6898 135.877 90.7774C135.404 90.8259 134.879 90.8848 134.39 91.0098C133.539 91.225 132.716 91.4897 131.875 91.7214C130.928 91.9742 129.993 92.3529 129.088 92.7347C128.851 92.8368 128.632 92.972 128.405 93.0907C127.581 93.5113 126.738 93.899 125.942 94.3691C124.992 94.9338 124.015 95.449 123.139 96.1456C122.773 96.4384 122.317 96.6757 121.856 96.8501C121.491 96.9869 121.128 97.2332 120.828 97.4854C121.029 97.5826 121.029 97.5826 121.319 97.4699C120.606 97.9324 119.894 98.3949 119.191 98.874C118.806 99.1337 118.453 99.3965 118.078 99.6727C117.556 100.039 117.032 100.4 116.505 100.755C115.57 101.4 114.648 102.014 113.736 102.644C112.952 103.173 112.176 103.697 111.407 104.217C111.263 104.328 111.11 104.422 111.043 104.619C111.027 104.695 110.905 104.793 110.839 104.833C110.353 105.068 109.939 105.434 109.539 105.77C109.395 105.881 109.213 106.082 108.999 106.015C108.968 106.012 108.889 106.083 108.824 106.123C108.236 106.598 107.638 107.056 107.028 107.544C106.906 107.641 106.812 107.788 106.721 107.889C106.436 108.064 106.155 108.194 105.911 108.389C105.332 108.88 104.753 109.371 104.183 109.878C103.548 110.426 102.912 110.974 102.286 111.538C101.547 112.217 100.817 112.912 100.078 113.59C99.7738 113.889 99.4388 114.185 99.1348 114.483C98.9091 114.711 98.6926 114.956 98.467 115.184C97.9684 115.714 97.4514 116.211 96.9528 116.741C96.3548 117.391 95.7702 118.048 95.1991 118.711C94.3169 119.766 93.4659 120.824 92.5837 121.879C92.4928 121.98 92.411 122.097 92.3786 122.25C92.4722 122.207 92.5731 122.159 92.6813 122.107C92.6686 122.137 92.6559 122.167 92.6341 122.18C92.5212 122.294 92.3865 122.422 92.2334 122.517C91.9273 122.706 91.7729 122.956 91.6277 123.223C91.4825 123.491 91.35 123.728 91.0347 123.9C90.9472 123.954 90.8654 124.071 90.8055 124.175C90.5129 124.6 90.2295 125.041 89.9243 125.495C89.7734 125.699 89.6225 125.903 89.3601 126.066C89.1934 125.925 89.2384 125.742 89.3456 125.565C89.6858 125.015 90.0291 124.47 90.3755 123.931C90.5172 123.71 90.6991 123.509 90.85 123.305C91.1898 122.807 91.548 122.342 91.8567 121.841C92.563 120.628 93.5142 119.486 94.4033 118.338C94.8271 117.833 95.2107 117.307 95.6218 116.832C95.9983 116.4 96.3841 115.984 96.7698 115.568C97.2338 115.082 97.6979 114.596 98.193 114.112C98.5407 113.787 98.9068 113.494 99.2637 113.185C99.4931 112.998 99.7165 112.801 99.9337 112.593C100.385 112.137 100.836 111.681 101.319 111.227C101.845 110.747 102.39 110.3 102.903 109.849C103.216 109.567 103.52 109.268 103.868 108.943C104.036 108.927 104.202 108.803 104.402 108.635C105.391 107.824 106.42 107.033 107.477 106.291C108.092 105.866 108.703 105.378 109.282 104.887C110.185 104.152 111.116 103.466 112.074 102.829C112.799 102.336 113.506 101.811 114.222 101.302C114.65 101.015 115.101 100.715 115.541 100.398C116.332 99.8648 117.163 99.3512 117.899 98.7192C118.443 98.2718 119.025 97.8904 119.634 97.5585C120.361 97.1754 121.011 96.7069 121.689 96.2879C122.398 95.8354 123.106 95.3829 123.814 94.9304C124.111 94.7247 124.408 94.519 124.736 94.3162C124.967 94.1511 125.23 93.9889 125.502 93.8432C126.373 93.349 127.266 92.8413 128.187 92.3831C128.914 92.0001 129.7 91.6694 130.455 91.3358C131.122 91.0563 131.759 90.7738 132.423 90.5407C133.109 90.2942 133.791 90.0941 134.504 89.897C134.984 89.7556 135.47 89.6772 135.968 89.5687C136.021 89.5582 136.105 89.5506 136.149 89.5236C136.714 89.2187 137.271 89.1627 137.815 89.1367C138.036 89.111 138.262 89.1482 138.519 88.9231C138.289 88.9323 138.093 88.898 137.872 88.9237ZM65.3866 152.741C64.5541 153.181 63.7143 153.626 62.8672 154.076C62.1709 154.462 61.5056 154.851 60.8093 155.237C60.0474 155.664 59.2885 156.096 58.5327 156.533C57.8364 156.919 57.1711 157.308 56.4748 157.694C55.5633 158.169 54.6736 158.63 53.7713 159.121C53.1624 159.453 52.5685 159.865 51.9596 160.197C51.1455 160.67 50.3222 161.128 49.4897 161.568C48.0095 162.394 46.5329 163.174 45.0528 164C44.2379 164.437 43.4323 164.891 42.6266 165.344C41.7273 165.841 40.828 166.338 39.9288 166.834C39.1887 167.247 38.4797 167.664 37.7396 168.077C36.9466 168.5 36.1445 168.907 35.3423 169.314C34.7461 169.616 34.1373 169.948 33.5411 170.25C33.1291 170.461 32.717 170.671 32.305 170.881C31.8619 171.089 31.4372 171.329 31.0033 171.553C30.1356 172 29.2459 172.462 28.3781 172.909C27.0638 173.611 25.7275 174.326 24.4132 175.027C23.8055 175.344 23.1947 175.655 22.5809 175.96C22.322 176.076 22.0666 176.145 21.8168 176.277C20.9801 176.728 20.1307 177.209 19.2847 177.643C18.3203 178.128 17.3961 178.633 16.4386 179.025C15.6124 179.336 14.8137 179.697 14.0391 180.153C13.7456 180.313 13.421 180.469 13.1 180.579C12.6731 180.709 12.261 180.92 11.849 181.13C11.1562 181.47 10.4599 181.856 9.76703 182.195C9.25835 182.443 8.77153 182.677 8.26284 182.925C8.20991 182.936 8.15349 182.993 8.06601 183.047C8.12463 183.099 8.1522 183.149 8.20512 183.138C8.48465 183.165 8.77336 183.208 9.11628 183.085C9.91717 182.834 10.7583 182.602 11.5719 182.321C11.8929 182.211 12.2083 182.038 12.5145 181.849C13.2983 181.409 14.1153 181.082 14.9232 180.737C15.1603 180.635 15.3663 180.53 15.6033 180.428C16.3456 180.124 17.1098 179.807 17.8428 179.487C18.5322 179.194 19.2342 178.871 19.9143 178.561C20.3137 178.381 20.7073 178.138 21.1159 177.974C22.3598 177.515 23.5211 176.909 24.7134 176.305C25.8839 175.714 27.0544 175.124 28.2248 174.533C28.7243 174.269 29.2365 173.975 29.7268 173.694C30.4232 173.308 31.1413 172.908 31.8377 172.522C32.6871 172.042 33.5457 171.577 34.3951 171.097C35.665 170.386 36.9245 169.674 38.1737 168.961C38.6421 168.694 39.1141 168.38 39.5825 168.112C40.5102 167.561 41.469 167.013 42.3967 166.462C43.4648 165.846 44.5329 165.23 45.601 164.614C46.2225 164.252 46.8532 163.907 47.4874 163.515C48.3495 163.004 49.2116 162.494 50.0956 161.969C50.7171 161.608 51.3789 161.265 52.0188 160.936C52.3779 160.736 52.7335 160.583 53.0707 160.397C54.0076 159.862 54.9353 159.311 55.863 158.76C57.0496 158.093 58.2144 157.439 59.3918 156.756C59.904 156.462 60.4197 156.121 60.9227 155.81C61.3509 155.523 61.7756 155.283 62.2038 154.996C63.0475 154.452 63.8693 153.922 64.7131 153.379C65.1723 153.095 65.6499 152.844 66.0965 152.59C66.4027 152.401 66.7307 152.198 67.0369 152.009C67.0185 151.976 67.0001 151.943 66.9818 151.91C66.4385 152.201 65.908 152.463 65.3866 152.741ZM11.6849 180.677C11.7597 180.653 11.8564 180.616 11.9093 180.605C12.2107 180.618 12.4823 180.473 12.7539 180.327C13.372 180.012 14.0176 179.746 14.608 179.381C15.492 178.856 16.4495 178.464 17.3483 178.019C17.7385 177.823 18.1011 177.576 18.4912 177.38C19.153 177.037 19.8423 176.744 20.5041 176.402C21.4248 175.943 22.349 175.439 23.2916 174.967C24.1594 174.519 25.0272 174.072 25.926 173.627C26.0791 173.532 26.2541 173.424 26.4071 173.329C27.2911 172.805 28.1899 172.361 29.1107 171.902C30.3651 171.304 31.623 170.66 32.8569 169.92C33.6971 169.422 34.519 168.892 35.35 168.379C36.1373 167.892 36.9173 167.41 37.69 166.932C37.7775 166.878 37.865 166.824 37.987 166.727C37.7661 166.752 37.6257 166.817 37.4726 166.912C36.8128 167.275 36.1456 167.643 35.4711 168.016C34.8489 168.341 34.2327 168.678 33.6227 169.025C33.0576 169.33 32.5236 169.638 31.9676 169.959C30.8869 170.605 29.7601 171.169 28.6242 171.715C28.028 172.017 27.4411 172.336 26.8449 172.638C26.174 172.964 25.503 173.29 24.8412 173.632C24.039 174.039 23.2242 174.477 22.422 174.884C21.545 175.315 20.6715 175.7 19.8037 176.147C19.2076 176.449 18.6608 176.787 18.0739 177.106C17.6304 177.365 17.1807 177.613 16.725 177.851C16.4357 178 16.1464 178.149 15.8572 178.298C15.6201 178.4 15.383 178.503 15.146 178.605C15.1022 178.632 15.0274 178.656 14.9837 178.683C14.3092 179.055 13.6566 179.414 12.9949 179.757C12.3331 180.099 11.6311 180.423 10.9509 180.732C10.7449 180.837 10.601 180.948 10.5031 181.142C10.9116 180.978 11.2982 180.828 11.6849 180.677ZM46.8582 162.175C46.3368 162.453 45.934 162.68 45.5312 162.906C45.3689 162.985 45.2158 163.079 45.0535 163.157C44.935 163.208 44.8073 163.243 44.7014 163.264C44.561 163.329 44.4206 163.393 44.3113 163.461C43.6023 163.877 42.9024 164.309 42.2026 164.742C41.9621 164.891 41.7031 165.006 41.4407 165.169C40.178 166.015 38.8199 166.744 37.5112 167.508C36.7147 167.979 35.8999 168.416 35.1034 168.886C34.4381 169.275 33.7947 169.65 33.126 170.086C33.2008 170.062 33.2847 170.054 33.3504 170.014C34.0455 169.643 34.7334 169.277 35.414 168.915C35.8041 168.719 36.1943 168.522 36.5844 168.325C37.2151 167.98 37.8459 167.634 38.4766 167.289C39.4883 166.73 40.5091 166.188 41.5116 165.612C42.7765 164.875 44.0817 164.157 45.3099 163.354C46.1444 162.793 47.0065 162.283 47.8594 161.756C48.1966 161.569 48.5431 161.4 48.8803 161.213C49.6641 160.773 50.4846 160.399 51.2225 159.877C51.7382 159.536 52.2998 159.277 52.8155 158.936C53.3311 158.596 53.8963 158.291 54.4211 157.966C54.4648 157.939 54.4775 157.909 54.5558 157.839C54.45 157.86 54.397 157.87 54.3533 157.897C53.4771 158.365 52.5935 158.837 51.7027 159.314C51.0939 159.646 50.4885 159.931 49.9291 160.299C49.3605 160.651 48.7368 160.903 48.2325 161.37C48.1761 161.427 48.0886 161.481 48.0265 161.475C47.8056 161.501 47.6398 161.625 47.4649 161.734C47.2772 161.872 47.0896 162.01 46.856 162.065C46.7939 162.06 46.6937 162.144 46.6281 162.184C46.6342 162.195 46.6434 162.212 46.6557 162.234C46.6776 162.22 46.7305 162.21 46.8582 162.175ZM134.853 114.262C135.012 114.231 135.165 114.136 135.433 114.037C135.066 114.064 134.818 114.041 134.544 114.077C133.965 114.146 133.334 114.226 132.755 114.296C132.353 114.367 131.992 114.457 131.657 114.753C132.721 114.605 133.776 114.44 134.853 114.262ZM137.266 130.725C136.483 131.009 135.725 131.389 134.954 131.799C134.954 131.799 134.972 131.832 134.981 131.849C135.749 131.485 136.583 131.346 137.266 130.725ZM94.791 139.133C95.5184 138.75 96.2353 138.507 96.9075 138.025C95.3079 138.637 95.0053 138.779 94.791 139.133ZM109.548 135.066C109.002 134.983 108.49 134.856 107.873 135.016C108.432 135.069 108.97 135.136 109.548 135.066ZM110.558 135.085C110.556 135.116 110.551 135.142 110.542 135.162C111.004 135.253 111.483 135.267 111.974 135.252C111.991 135.212 112.008 135.172 112.025 135.132C111.532 135.126 111.043 135.111 110.558 135.085ZM142.106 89.6095C141.833 89.6457 141.666 89.5049 141.483 89.4406C141.34 89.3958 141.201 89.3044 140.992 89.4561C141.159 89.5969 141.692 89.7103 142.193 89.7114C142.165 89.6619 142.128 89.596 142.106 89.6095ZM105.42 108.404C105.464 108.377 105.467 108.331 105.493 108.271C105.225 108.37 104.349 109.067 104.247 109.307C104.631 109.01 105.022 108.71 105.42 108.404ZM136.929 114.664C137.549 114.879 137.798 114.903 138.073 114.711C137.663 114.609 137.309 114.607 136.929 114.664ZM55.0379 157.807C55.0294 157.827 55.0313 157.848 55.0436 157.87C55.5107 157.758 55.8584 157.433 56.2704 157.222C56.2582 157.2 56.2532 157.174 56.2555 157.143C55.8496 157.364 55.4438 157.585 55.0379 157.807ZM112.506 134.834C112.598 134.999 112.797 134.987 113.02 135.071C113.042 134.636 112.645 134.926 112.506 134.834ZM140.597 114.702C140.798 114.8 140.824 115.005 141.186 114.915C140.984 114.818 140.949 114.596 140.597 114.702ZM113.739 134.937C113.566 134.889 113.388 134.887 113.139 135.02C113.514 135.165 113.514 135.165 113.739 134.937ZM119.824 98.2166C120.03 98.1114 120.229 98.0992 120.393 97.8651C120.119 97.9014 119.956 97.9795 119.824 98.2166ZM18.0088 177.833C18.0272 177.866 18.0352 177.898 18.0329 177.929C18.214 177.832 18.3908 177.745 18.5634 177.667C18.5658 177.636 18.5608 177.61 18.5485 177.588C18.3613 177.674 18.1814 177.756 18.0088 177.833ZM130.789 133.664C130.915 133.785 131.078 133.707 131.209 133.626C131.211 133.595 131.214 133.564 131.216 133.533C131.066 133.581 130.924 133.625 130.789 133.664ZM134.099 132.217C133.972 132.096 133.816 132.237 133.679 132.255C133.677 132.286 133.678 132.307 133.685 132.318C133.826 132.29 133.964 132.256 134.099 132.217ZM11.3005 180.937C11.3127 180.959 11.3146 180.98 11.3062 181C11.4788 180.923 11.6411 180.845 11.793 180.766C11.7869 180.755 11.785 180.734 11.7873 180.703C11.6208 180.791 11.4585 180.869 11.3005 180.937ZM118.147 135.67C118.155 135.65 118.164 135.63 118.172 135.61C118.063 135.589 117.953 135.568 117.843 135.548C117.826 135.588 117.809 135.628 117.793 135.668C117.911 135.668 118.029 135.669 118.147 135.67ZM99.6097 136.754C99.5975 136.732 99.5925 136.705 99.5949 136.674C99.4721 136.735 99.3536 136.786 99.2392 136.828C99.2515 136.85 99.2565 136.876 99.2541 136.907C99.3769 136.846 99.4954 136.795 99.6097 136.754ZM121.461 135.55C121.47 135.53 121.478 135.51 121.487 135.49C121.388 135.418 121.238 135.466 121.079 135.498C121.077 135.529 121.075 135.56 121.072 135.591C121.199 135.572 121.329 135.558 121.461 135.55ZM131.139 114.984C131.142 114.953 131.14 114.932 131.134 114.921C131.048 114.944 130.963 114.967 130.878 114.99C130.876 115.021 130.873 115.052 130.871 115.083C130.965 115.04 131.054 115.007 131.139 114.984ZM131.481 133.481C131.487 133.492 131.486 133.507 131.477 133.527C131.53 133.516 131.561 133.519 131.614 133.509C131.658 133.482 131.701 133.455 131.833 133.374C131.652 133.419 131.577 133.443 131.481 133.481ZM106.323 124.005C106.317 123.994 106.318 123.978 106.327 123.958C106.262 123.983 106.195 124.003 106.124 124.017C106.122 124.048 106.127 124.074 106.139 124.096C106.203 124.071 106.265 124.041 106.323 124.005ZM97.3278 125.907C97.3109 125.947 97.3013 125.982 97.2989 126.013C97.3549 126.008 97.414 126.009 97.4761 126.015C97.4845 125.995 97.4857 125.979 97.4796 125.968C97.4259 125.942 97.3753 125.922 97.3278 125.907ZM139.095 89.1654C139.099 89.119 139.124 89.059 139.127 89.0125C139.106 89.026 139.053 89.0365 139.031 89.05C138.996 89.0936 138.984 89.1236 138.958 89.1836C139.011 89.173 139.073 89.179 139.095 89.1654Z" fill="#101828"/>
<path id="&#60;Compound Path&#62;_2" fill-rule="evenodd" clip-rule="evenodd" d="M128.827 123.161C128.772 123.172 128.717 123.184 128.661 123.195C128.043 123.353 127.42 123.56 126.836 123.837C126.018 124.192 125.191 124.53 124.43 124.991C123.943 125.277 123.45 125.497 122.976 125.751C122.524 125.992 122.041 126.229 121.608 126.504C121.085 126.837 120.604 127.191 120.113 127.528C119.381 128.041 118.687 128.625 118.097 129.285C117.447 130.006 116.849 130.766 116.242 131.508C115.72 132.124 115.452 132.815 115.262 133.481C115.219 133.627 115.24 133.779 115.275 133.899C115.405 134.194 115.435 134.531 115.688 134.772C115.73 134.792 115.745 134.877 115.774 134.93C115.822 135.018 115.837 135.102 115.691 135.172C115.646 135.201 115.517 135.188 115.488 135.136C115.311 134.885 115.142 134.63 114.98 134.37C114.77 133.984 114.793 133.519 114.991 133.038C115.225 132.51 115.459 131.983 115.832 131.485C116.299 130.88 116.766 130.274 117.224 129.651C117.368 129.465 117.516 129.268 117.669 129.061C117.318 129.26 116.976 129.478 116.664 129.748C116.234 130.14 115.813 130.55 115.402 130.977C114.923 131.448 114.579 131.998 114.461 132.571C114.411 132.816 114.328 133.058 114.245 133.3C114.192 133.428 114.195 133.545 114.003 133.644C113.88 133.248 114.285 132.754 114.052 132.381C113.863 132.597 113.622 132.774 113.575 132.969C113.436 133.389 113.417 133.804 113.374 134.233C113.352 134.248 113.371 134.283 113.38 134.301C113.457 134.63 113.534 134.96 113.611 135.289C113.627 135.374 113.642 135.459 113.703 135.515C113.963 135.823 114.222 136.131 114.527 136.411C114.71 136.578 114.961 136.702 115.18 136.823C115.459 136.961 115.742 137.088 116.03 137.204C116.601 137.409 117.109 137.724 117.769 137.754C117.856 137.746 117.917 137.802 118.014 137.811C118.32 137.924 118.645 138.071 119.001 138.105C119.97 138.198 120.962 138.276 121.98 138.291C122.879 138.31 123.804 138.265 124.761 137.94C125.139 137.809 125.516 137.696 125.892 137.598C126.534 137.426 127.185 137.272 127.826 137.1C128.889 136.802 129.943 136.486 131.006 136.187C131.803 135.964 132.594 135.673 133.37 135.297C134.114 134.918 134.806 134.501 135.54 134.104C136.251 133.722 136.914 133.253 137.53 132.695C137.797 132.454 138.051 132.245 138.318 132.003C138.667 131.687 139.015 131.37 139.322 131.033C139.652 130.681 139.92 130.273 140.25 129.921C140.696 129.447 140.94 128.937 141.044 128.397C141.075 128.284 141.095 128.152 141.292 128.121C141.467 128.104 141.492 128.207 141.449 128.353C141.322 128.907 141.12 129.438 140.692 129.947C140.326 130.401 139.95 130.854 139.562 131.306C139.445 131.428 139.314 131.582 139.187 131.687C138.801 132.027 138.404 132.367 137.996 132.706C137.533 133.095 137.081 133.502 136.59 133.838C135.771 134.36 134.951 134.882 134.094 135.333C133.305 135.741 132.478 136.078 131.664 136.384C131.051 136.608 130.413 136.731 129.804 136.906C129.116 137.107 128.397 137.305 127.71 137.505C127.467 137.566 127.192 137.623 126.949 137.683C125.963 137.955 124.961 138.309 123.984 138.482C123.116 138.633 122.259 138.634 121.402 138.635C120.739 138.655 120.142 138.515 119.492 138.503C119.221 138.51 118.989 138.421 118.734 138.347C118.348 138.276 117.971 138.201 117.601 138.121C117.249 138.038 116.907 137.972 116.578 137.874C116.114 137.696 115.676 137.454 115.234 137.262C114.065 136.8 113.266 136.007 112.839 134.882C112.63 134.329 112.499 133.75 112.683 133.017C112.883 132.203 113.265 131.439 113.914 130.718C114.247 130.317 114.645 129.921 114.987 129.537C115.379 129.075 115.842 128.686 116.313 128.314C116.763 127.957 117.193 127.565 117.651 127.225C118.715 126.477 119.841 125.902 120.991 125.311C121.419 125.086 121.844 124.871 122.264 124.667C122.578 124.513 122.893 124.36 123.205 124.257C123.584 124.11 123.992 124.015 124.372 123.868C125.273 123.554 126.178 123.191 127.093 122.845C127.674 122.617 128.254 122.39 128.831 122.211C130.241 121.763 131.631 121.446 133.016 121.345C134.281 121.25 135.542 121.204 136.685 121.446C137.647 121.638 138.524 121.956 139.221 122.506C139.539 122.753 139.785 123.093 140.058 123.369C140.494 123.778 140.826 124.276 141.136 124.789C141.298 125.088 141.217 125.447 141.169 125.809C140.884 125.848 140.886 125.682 140.874 125.547C140.866 125.363 140.89 125.182 140.813 125.042C140.622 124.69 140.386 124.367 140.172 124.03C140.162 124.013 140.153 123.995 140.12 123.992C140.042 124.018 139.951 124.076 139.896 124.087C139.45 123.661 139.069 123.241 138.633 122.833C138.501 122.704 138.315 122.586 138.138 122.485C137.845 122.341 137.538 122.228 137.255 122.101C136.688 121.847 136.045 121.735 135.341 121.734C134.962 121.715 134.584 121.695 134.206 121.676C133.87 121.677 133.534 121.678 133.184 121.711C132.857 121.73 132.527 121.798 132.187 121.849C131.893 121.871 131.576 121.907 131.268 121.961C130.584 122.113 129.911 122.281 129.237 122.45C129.016 122.496 128.793 122.591 128.591 122.672C128.583 122.693 128.577 122.721 128.575 122.754C128.662 122.745 128.727 122.751 128.782 122.74C129.491 122.525 130.181 122.441 130.844 122.421C130.964 122.416 131.074 122.393 131.216 122.373C131.611 122.311 132.009 122.254 132.411 122.204C132.498 122.196 132.618 122.19 132.705 122.182C132.935 122.154 133.178 122.094 133.408 122.066C134.203 122.009 135.009 121.969 135.784 122.043C136.269 122.09 136.773 122.171 137.133 122.439C137.83 122.989 138.341 123.705 138.784 124.464C139.132 125.047 139.375 125.721 139.363 126.486C139.342 127.068 139.353 127.652 139.222 128.256C139.145 128.566 139.101 128.878 138.904 129.193C138.645 129.618 138.441 130.032 138.182 130.457C137.772 131.168 137.227 131.799 136.495 132.312C136.109 132.559 135.783 132.861 135.428 133.11C135.038 133.406 134.647 133.702 134.228 133.946C133.91 134.148 133.563 134.299 133.225 134.466C133.088 134.553 132.952 134.64 132.815 134.727C132.922 134.754 133.009 134.746 133.11 134.705C133.759 134.434 134.421 134.131 135.026 133.722C135.767 133.226 136.527 132.765 137.169 132.144C137.495 131.841 137.84 131.574 138.195 131.325C138.617 131.032 138.905 130.659 139.173 130.252C139.501 129.783 139.818 129.297 140.052 128.769C140.118 128.609 140.216 128.451 140.492 128.394C140.484 128.494 140.523 128.564 140.473 128.643C140.294 129.026 140.107 129.397 139.915 129.756C139.501 130.517 138.971 131.233 138.194 131.775C137.999 131.923 137.794 132.053 137.608 132.219C137.074 132.701 136.521 133.148 135.907 133.539C135.484 133.832 135.048 134.157 134.574 134.412C133.84 134.808 133.058 135.117 132.267 135.408C131.553 135.673 130.83 135.921 130.126 136.203C129.445 136.471 128.745 136.704 128.052 136.838C127.376 136.985 126.7 137.131 126.024 137.277C125.859 137.312 125.69 137.395 125.512 137.462C125.411 137.502 125.301 137.525 125.145 137.577C125.162 137.495 125.156 137.428 125.179 137.413C125.52 137.196 125.833 136.926 126.224 136.913C126.376 136.911 126.496 136.906 126.607 136.717C126.51 136.707 126.423 136.716 126.336 136.724C126.146 136.75 125.953 136.771 125.756 136.785C125.449 136.839 125.143 136.726 124.845 137.081C124.845 137.081 124.823 137.096 124.813 137.078C124.547 137.153 124.259 137.242 123.997 137.267C123.35 137.316 122.701 137.343 122.05 137.347C121.018 137.365 120.111 137.162 119.495 136.536C119.435 136.48 119.351 136.439 119.267 136.397C119.174 136.339 119.058 136.294 119.01 136.206C118.88 135.91 118.623 135.719 118.398 135.531C118.286 135.437 118.164 135.325 118.237 135.065C118.684 135.325 118.972 135.686 119.319 135.986C119.237 135.722 119.148 135.464 119.05 135.21C118.93 134.932 118.796 134.686 118.685 134.425C118.444 133.868 118.358 133.26 118.328 132.641C118.316 132.506 118.337 132.375 118.513 132.192C118.56 132.279 118.654 132.338 118.66 132.406C118.707 132.644 118.74 132.891 118.757 133.148C118.783 133.534 118.987 133.854 119.169 134.188C119.218 134.109 119.225 134.01 119.271 133.981C119.329 133.92 119.407 133.894 119.475 133.851C119.446 133.514 119.426 133.196 119.406 132.877C119.317 131.869 119.73 130.825 120.369 129.802C120.601 129.441 120.857 129.066 121.08 128.687C121.231 128.401 121.443 128.172 121.742 127.934C122.422 127.382 123.103 126.83 123.783 126.279C124.603 125.591 125.481 125.008 126.397 124.495C126.657 124.354 126.917 124.212 127.199 124.055C127.561 123.857 127.933 123.659 128.317 123.462C128.485 123.378 128.664 123.312 128.833 123.228C128.841 123.207 128.839 123.185 128.827 123.161ZM136.828 131.627C137.254 131.285 137.513 130.86 137.781 130.452C137.955 130.152 138.161 129.855 138.335 129.555C138.473 129.301 138.601 129.03 138.675 128.771C138.801 128.383 138.917 127.977 138.956 127.597C139.008 127.186 139.04 126.739 138.959 126.364C138.88 125.823 138.7 125.323 138.519 124.822C138.466 124.667 138.298 124.584 138.209 124.476C137.88 123.928 137.366 123.545 136.803 123.241C136.5 123.079 136.139 122.977 135.81 122.879C135.393 122.789 134.99 122.668 134.547 122.642C134.095 122.599 133.626 122.637 133.147 122.658C132.549 122.684 131.943 122.809 131.324 122.967C131.104 123.012 130.874 123.04 130.631 123.1C130.346 123.14 130.103 123.2 129.859 123.427C129.709 123.546 129.476 123.623 129.278 123.654C128.751 123.754 128.221 124.02 127.715 124.271C126.949 124.665 126.188 125.125 125.466 125.656C125.03 125.981 124.562 126.303 124.126 126.628C123.863 126.82 123.618 127.046 123.397 127.259C122.83 127.738 122.254 128.199 121.72 128.682C120.964 129.376 120.398 130.139 120.097 130.993C119.879 131.606 119.792 132.197 119.837 132.768C119.882 133.189 119.849 133.636 119.871 134.072C119.88 134.256 119.975 134.432 120.074 134.558C120.378 135.004 120.795 135.377 121.262 135.672C121.564 135.834 121.925 135.935 122.251 136.083C122.356 136.126 122.476 136.16 122.612 136.184C122.793 136.235 123.006 136.289 123.213 136.275C123.604 136.262 123.999 136.2 124.413 136.173C124.652 136.163 124.888 136.202 125.137 136.209C125.451 136.222 125.675 136.411 126.051 136.313C126.404 136.23 126.727 136.261 127.067 136.211C128.298 135.995 129.536 135.68 130.758 135.28C130.991 135.203 131.228 135.075 131.452 134.98C132.507 134.498 133.533 133.962 134.599 133.331C135.35 132.853 136.079 132.223 136.828 131.627ZM135.826 122.514C136.031 122.667 136.241 122.771 136.535 122.749C136.616 122.823 136.705 122.893 136.802 122.958C136.826 122.927 136.842 122.9 136.851 122.879C136.78 122.805 136.723 122.7 136.535 122.749C136.437 122.456 136.107 122.524 135.826 122.514ZM120.695 126.233C120.973 126.293 121.104 126.139 121.253 126.02C121.39 125.933 121.517 125.829 121.64 125.774C122.014 125.559 122.374 125.377 122.735 125.195C122.009 125.326 121.42 125.819 120.695 126.233ZM116.086 129.642C116.503 129.282 116.916 128.916 117.327 128.544C117.299 128.531 117.282 128.518 117.275 128.506C116.807 128.828 116.39 129.188 116.086 129.642ZM124.277 124.426C124.508 124.326 124.743 124.232 124.981 124.143C124.716 124.051 124.479 124.178 124.277 124.426ZM123.939 124.594C123.926 124.57 123.914 124.547 123.901 124.523C123.736 124.596 123.572 124.67 123.408 124.743C123.405 124.776 123.407 124.798 123.413 124.81C123.578 124.737 123.753 124.665 123.939 124.594ZM119.585 134.728C119.57 134.737 119.547 134.752 119.516 134.771C119.567 134.865 119.615 134.953 119.66 135.035C119.705 135.006 119.743 134.982 119.774 134.962C119.714 134.89 119.651 134.812 119.585 134.728Z" fill="#101828"/>
<path id="&#60;Path&#62;" d="M109.6 124.783C109.844 124.722 110.077 124.659 110.3 124.595C110.067 124.605 109.825 124.598 109.6 124.783Z" fill="#101828"/>
<path id="&#60;Compound Path&#62;_3" fill-rule="evenodd" clip-rule="evenodd" d="M139.929 94.495C140.115 94.8331 140.28 95.1851 140.466 95.5231C140.738 96.1257 140.761 96.8164 140.708 97.5318C140.64 98.438 140.214 99.3419 139.746 100.226C139.647 100.424 139.566 100.657 139.394 100.833C138.719 101.665 138.104 102.55 137.165 103.229C137.121 103.257 137.086 103.301 137.042 103.329C136.6 103.719 136.168 104.126 135.696 104.513C134.931 105.128 134.103 105.738 133.329 106.336C132.692 106.803 132.073 107.305 131.44 107.724C130.248 108.539 129.006 109.316 127.796 110.097C127.685 110.167 127.542 110.233 127.409 110.316C126.903 110.588 126.374 110.874 125.877 111.162C125.601 111.312 125.354 111.512 125.088 111.679C124.28 112.162 123.482 112.662 122.652 113.159C122.155 113.448 121.598 113.682 121.107 114.036C120.324 114.617 119.469 115.016 118.643 115.465C118.038 115.775 117.441 115.99 116.874 116.368C116.829 116.396 116.754 116.421 116.678 116.445C116.228 116.659 115.761 116.838 115.311 117.051C114.666 117.342 114.049 117.683 113.397 117.909C112.942 118.057 112.471 118.284 112.012 118.48C111.656 118.628 111.304 118.765 110.956 118.892C110.805 118.941 110.666 118.96 110.505 118.992C109.987 119.135 109.478 119.294 108.982 119.423C108.647 119.519 108.316 119.567 108.003 119.649C107.776 119.724 107.567 119.832 107.365 119.844C106.81 119.919 106.277 119.98 105.747 119.994C104.814 120.032 104.015 119.828 103.363 119.349C102.831 118.978 102.51 118.451 102.292 117.837C102.125 117.373 101.981 116.895 101.859 116.403C101.783 116.155 101.737 115.911 101.844 115.617C101.899 115.446 101.976 115.261 101.946 115.098C101.902 114.694 102.069 114.293 102.29 113.882C102.568 113.412 102.833 112.973 103.293 112.617C103.382 112.562 103.452 112.472 103.522 112.383C104.361 111.471 105.029 110.462 106.041 109.646C106.345 109.387 106.581 109.057 106.899 108.767C107.811 107.878 108.754 106.992 109.666 106.102C110.463 105.33 111.361 104.632 112.209 103.896C112.593 103.565 113.005 103.284 113.339 102.916C113.911 102.33 114.552 101.815 115.193 101.3C115.688 100.899 116.22 100.566 116.746 100.168C117.53 99.5863 118.326 98.9741 119.15 98.4126C120.164 97.7091 121.229 97.0426 122.271 96.3898C122.714 96.1121 123.171 95.8036 123.702 95.6303C123.938 95.5729 124.192 95.437 124.445 95.3012C125.218 94.8628 125.981 94.4075 126.802 94.166C126.878 94.1412 126.945 94.0996 127.033 94.044C127.305 93.942 127.612 93.7953 127.884 93.6932C128.352 93.5139 128.829 93.3514 129.297 93.1721C129.398 93.1391 129.503 93.1117 129.61 93.09C130.453 92.8346 131.306 92.596 132.172 92.3267C133.092 92.0465 133.969 91.9064 134.806 92.0187C134.869 92.0247 134.942 92.0476 134.995 92.0368C135.46 91.9051 135.808 92.0506 136.205 92.1206C136.403 92.1556 136.566 92.2353 136.764 92.2703C137.567 92.4273 138.251 92.749 138.808 93.2187C139.018 93.3829 139.171 93.6057 139.323 93.8285C139.429 93.9667 139.381 94.0422 139.128 94.1781C138.78 93.6003 138.317 93.1397 137.506 92.9658C137.657 93.3486 137.744 93.453 138.004 93.6541C138.104 93.7277 138.192 93.8322 138.301 93.9227C138.626 94.2421 138.721 94.6834 138.935 95.0722C139.118 95.458 139.202 95.8824 139.243 96.3346C139.253 96.6238 139.285 96.8991 139.318 97.1745C139.663 96.9354 139.725 96.6691 139.674 96.36C139.644 96.197 139.703 95.9784 139.739 95.7737C139.74 95.6137 139.742 95.4538 139.765 95.2799C139.799 94.9629 139.678 94.7431 139.548 94.5065C139.501 94.422 139.423 94.3344 139.591 94.2064C139.795 94.306 139.836 94.3259 139.929 94.495ZM134.442 93.3608C134.423 93.4337 134.395 93.5271 134.358 93.641C134.317 93.621 134.263 93.6319 134.245 93.5981C134.133 93.3953 133.929 93.2956 133.62 93.3301C133.033 93.4019 132.44 93.4092 131.85 93.5288C131.045 93.6918 130.239 94.0149 129.46 94.3887C129.256 94.4865 129.045 94.573 128.828 94.6483C127.848 95.0347 126.89 95.4073 125.934 95.8922C125.418 96.147 124.94 96.4694 124.474 96.761C124.43 96.7888 124.385 96.8166 124.363 96.8305C123.311 97.4663 122.306 98.1866 121.324 98.893C120.797 99.2909 120.283 99.658 119.779 100.042C119.354 100.354 118.92 100.648 118.473 100.974C117.712 101.541 116.951 102.109 116.158 102.673C115.676 103.043 115.153 103.394 114.671 103.764C114.202 104.103 113.72 104.473 113.26 104.83C113.24 104.956 113.242 105.068 113.194 105.143C113.146 105.219 113.035 105.288 112.937 105.327C112.311 105.651 111.831 106.134 111.332 106.582C110.821 107.062 110.36 107.578 109.87 108.043C109.35 108.506 108.952 109.028 108.585 109.553C108.476 109.735 108.399 109.92 108.29 110.102C108.239 110.225 108.187 110.348 108.136 110.471C108.101 110.516 108.044 110.574 108.04 110.622C108.065 110.993 107.707 111.263 107.484 111.562C107.021 112.238 106.877 112.897 106.913 113.556C106.932 113.863 107.015 114.175 107.075 114.501C107.171 115.054 107.569 115.397 108.033 115.697C108.478 115.964 108.901 116.245 109.474 116.364C109.87 116.434 110.248 116.47 110.713 116.338C111.66 116.109 112.602 115.815 113.504 115.341C113.944 115.111 114.387 114.833 114.799 114.552C115.997 113.802 117.189 112.988 118.418 112.241C119.58 111.536 120.705 110.763 121.942 110.193C122.04 110.154 122.129 110.099 122.218 110.043C122.893 109.681 123.562 109.307 124.225 108.922C124.687 108.678 125.131 108.401 125.593 108.157C126.401 107.711 127.202 107.27 127.996 106.834C128.458 106.59 128.942 106.332 129.414 106.105C129.838 105.9 130.271 105.712 130.714 105.541C131.814 105.102 132.887 104.612 133.879 103.923C134.31 103.623 134.729 103.3 135.135 102.954C136.319 101.963 137.23 100.801 138.04 99.566C138.315 99.1439 138.451 98.7406 138.599 98.3065C139.031 97.195 138.922 96.2399 138.576 95.3421C138.416 94.9424 138.255 94.5428 137.952 94.2095C137.709 93.93 137.395 93.7398 136.943 93.5684C136.992 93.7652 137.025 93.8805 137.068 94.0127C136.728 93.6119 136.165 93.5099 135.681 93.3354C135.31 93.2038 134.952 93.0414 134.556 92.9714C134.181 92.8875 133.794 92.8344 133.374 92.9383C133.343 92.9352 133.298 92.963 133.2 93.0017C133.743 92.9576 134.088 93.1507 134.442 93.3608ZM134.212 104.851C133.622 105.243 132.992 105.615 132.346 105.906C131.986 106.063 131.631 106.285 131.28 106.46C130.707 106.773 130.124 107.07 129.561 107.4C128.997 107.73 128.443 108.078 127.866 108.439C127.711 108.536 127.568 108.602 127.404 108.683C126.809 109.01 126.217 109.289 125.668 109.701C125.253 110.03 124.794 110.226 124.373 110.49C124.346 110.476 124.326 110.458 124.313 110.436C124.485 110.314 124.648 110.196 124.805 110.083C125.195 109.816 125.597 109.518 125.987 109.251C126.321 109.027 126.651 108.813 126.976 108.609C127.81 108.102 128.637 107.6 129.456 107.102C130.172 106.669 130.888 106.236 131.604 105.802C131.901 105.639 132.158 105.455 132.428 105.241C132.036 105.395 131.656 105.519 131.274 105.691C130.575 105.992 129.853 106.307 129.182 106.659C128.369 107.078 127.583 107.547 126.779 107.982C126.406 108.171 126.01 108.373 125.646 108.578C124.358 109.271 123.101 109.968 121.803 110.644C120.35 111.417 118.953 112.292 117.552 113.215C116.462 113.943 115.344 114.62 114.244 115.332C113.398 115.907 112.528 116.384 111.592 116.743C110.589 117.143 109.575 117.414 108.625 117.259C108.134 117.18 107.682 117.009 107.458 116.603C107.184 116.16 106.898 115.749 106.646 115.292C106.507 115.039 106.465 114.746 106.49 114.413C106.505 114.297 106.5 114.179 106.474 114.059C106.37 113.601 106.419 113.093 106.53 112.591C106.556 112.529 106.537 112.496 106.544 112.4C106.332 112.556 106.255 112.741 106.19 112.895C106.007 113.374 105.801 113.866 105.658 114.365C105.57 114.693 105.545 115.027 105.565 115.333C105.559 115.7 105.641 116.013 105.657 116.366C105.659 116.479 105.64 116.605 105.588 116.728C105.226 116.341 105.148 115.821 105.159 115.246C105.159 114.541 105.436 113.799 105.713 113.057C105.807 112.794 106.004 112.557 106.107 112.31C106.357 111.79 106.553 111.28 106.822 110.794C107.065 110.369 107.381 109.966 107.727 109.567C107.845 109.403 107.95 109.269 107.974 109.095C107.829 109.049 107.709 109.101 107.554 109.199C107.218 109.455 106.9 109.744 106.614 110.037C106.107 110.597 105.593 111.162 105.072 111.731C104.258 112.581 103.576 113.509 103.142 114.508C102.824 115.23 102.528 115.938 102.516 116.674C102.525 116.691 102.521 116.738 102.531 116.755C102.756 117.706 102.959 118.67 103.952 119.117C104.259 119.243 104.497 119.458 104.808 119.535C104.953 119.581 105.088 119.61 105.246 119.625C106.081 119.625 106.925 119.642 107.823 119.376C108.827 119.088 109.843 118.929 110.874 118.579C111.73 118.293 112.553 117.892 113.404 117.541C114.374 117.137 115.349 116.686 116.323 116.235C117.111 115.879 117.899 115.522 118.668 115.131C119.184 114.876 119.662 114.554 120.182 114.251C120.593 114.024 121 113.769 121.401 113.487C121.725 113.262 122.085 113.105 122.427 112.913C122.747 112.736 123.08 112.527 123.412 112.319C123.501 112.264 123.593 112.16 123.656 112.166C123.952 112.163 124.168 111.959 124.403 111.79C125.081 111.342 125.741 110.861 126.397 110.427C127.164 109.924 127.917 109.452 128.703 108.983C129.764 108.364 130.737 107.641 131.761 106.954C132.519 106.434 133.245 105.912 133.943 105.338C134.27 105.065 134.565 104.789 134.883 104.499C134.87 104.477 134.853 104.465 134.832 104.463C134.633 104.588 134.424 104.696 134.212 104.851ZM116.628 101.469C116.872 101.317 117.116 101.164 117.427 100.97C117.254 101.305 117.016 101.523 116.718 101.686C116.585 101.77 116.461 101.87 116.36 101.956C116.182 102.067 116.023 102.212 115.846 102.323C115.646 102.448 115.425 102.587 115.272 102.797C115.413 102.89 115.518 102.756 115.597 102.684C116.089 102.33 116.571 101.96 117.062 101.607C117.611 101.195 118.187 100.834 118.736 100.422C119.922 99.5433 121.121 98.6334 122.316 97.7712C122.741 97.4597 123.185 97.1819 123.606 96.9181C124.018 96.6373 124.408 96.3704 124.829 96.1066C125.184 95.8844 125.548 95.6791 125.909 95.5215C126.687 95.1477 127.471 94.8385 128.246 94.5125C128.607 94.3549 128.977 94.2142 129.346 94.0735C129.444 94.0349 129.542 93.9962 129.644 93.9099C129.581 93.9038 129.518 93.8978 129.464 93.9087C127.955 94.3084 126.469 94.8066 125.063 95.6646C124.708 95.8868 124.329 96.0106 123.996 96.2189C123.543 96.4797 123.109 96.7744 122.688 97.0382C122.279 97.2713 121.88 97.5213 121.459 97.7851C121.281 97.8962 121.113 98.0243 120.914 98.1492C120.369 98.5133 119.801 98.8913 119.266 99.2723C118.831 99.5669 118.416 99.8954 117.991 100.207C117.588 100.505 117.176 100.785 116.783 101.1C116.478 101.359 116.192 101.652 115.874 101.942C115.895 101.944 115.912 101.956 115.925 101.978C116.178 101.843 116.394 101.639 116.628 101.469ZM118.787 99.1624C119.155 98.9094 119.523 98.6565 119.918 98.4542C120.225 98.3075 120.495 98.0931 120.774 97.8957C121.285 97.5604 121.793 97.2194 122.298 96.8728C122.44 96.769 122.557 96.6575 122.651 96.5383C122.072 96.7871 121.586 97.2049 121.032 97.5521C120.478 97.8993 119.914 98.2296 119.369 98.5937C118.855 98.9608 118.329 99.3587 117.793 99.7397C118.172 99.6159 118.496 99.3907 118.787 99.1624ZM134.875 92.5216C135.077 92.7812 135.414 92.7975 135.716 92.8584C135.965 92.9303 136.283 92.9127 136.544 92.9538C136.733 92.9719 136.887 93.0347 137.063 93.0836C136.567 92.5076 135.741 92.5246 134.875 92.5216ZM138.75 99.8261C138.964 99.5104 139.115 99.1886 139.338 98.8897C139.482 98.6633 139.55 98.4616 139.577 98.2401C139.582 98.0324 139.586 97.8247 139.506 97.6248C139.341 98.1374 139.186 98.6669 138.958 99.1735C138.698 99.677 138.344 100.172 138.053 100.672C138.059 100.683 138.076 100.696 138.103 100.709C138.326 100.41 138.559 100.128 138.75 99.8261ZM133.643 92.4516C133.12 92.3695 132.602 92.512 132.09 92.7192C132.597 92.7197 133.099 92.6557 133.643 92.4516ZM109.594 106.784C109.901 106.637 111.111 105.584 111.638 105.026C111.611 105.013 111.594 105.001 111.588 104.99C110.944 105.552 110.309 106.132 109.594 106.784ZM129.522 93.4178C129.78 93.5066 130.039 93.4353 130.849 93.0646C130.406 93.1823 129.964 93.3001 129.522 93.4178ZM139.912 96.1426C140.04 95.9947 140.069 95.8854 139.994 95.7502C139.845 95.912 139.838 96.0074 139.912 96.1426ZM139.98 97.0778C139.781 97.2028 139.827 97.2873 139.905 97.3749C139.944 97.2825 139.96 97.204 139.98 97.0778ZM139.982 96.4855C139.946 96.4928 139.921 96.501 139.906 96.5103C139.908 96.5852 139.912 96.6657 139.92 96.7518C139.949 96.7333 139.982 96.7204 140.018 96.7132C139.995 96.6363 139.983 96.5604 139.982 96.4855ZM117.215 100.261C117.203 100.238 117.193 100.221 117.187 100.21C117.113 100.256 117.039 100.303 116.965 100.349C116.972 100.36 116.978 100.371 116.984 100.383C117.058 100.336 117.135 100.296 117.215 100.261Z" fill="#101828"/>
<path id="&#60;Compound Path&#62;_4" fill-rule="evenodd" clip-rule="evenodd" d="M89.6441 133.249C89.6622 133.457 89.6106 133.709 89.6753 133.887C89.8144 134.26 89.6818 134.711 89.7647 135.096C89.7707 135.165 89.74 135.282 89.6898 135.363C89.3383 135.93 89.0956 136.524 88.5166 137.018C88.4003 137.093 88.3231 137.24 88.2497 137.336C87.6386 138.118 86.9397 138.737 86.0049 139.094C85.5045 139.27 85.0274 139.43 84.5344 139.503C84.088 139.546 83.628 139.623 83.1988 139.582C82.2742 139.494 81.5506 139.082 81.1133 138.388C80.6371 137.623 80.4361 136.729 80.5899 135.68C80.7191 134.818 81.2506 134.062 81.858 133.331C82.2951 132.807 82.8899 132.4 83.4223 131.937C83.5521 131.829 83.6916 131.739 83.8409 131.668C84.6668 131.283 85.5257 130.902 86.3856 130.812C86.9214 130.761 87.3934 130.823 87.765 131.047C88.3078 131.356 88.6841 131.82 88.9906 132.33C89.098 132.529 89.1957 132.709 89.3031 132.908C89.4292 132.852 89.5222 132.792 89.5919 132.747C89.7691 132.901 89.6552 133.096 89.6441 133.249ZM88.3447 133.743C88.2434 134.831 87.7068 135.809 86.8302 136.737C86.627 136.941 86.3713 137.105 86.1155 137.27C86.0457 137.314 85.9039 137.284 85.8146 137.292C85.8016 137.268 85.7963 137.239 85.7988 137.205C85.882 137.127 85.9787 137.017 86.095 136.942C86.8832 136.314 87.4245 135.576 87.6858 134.727C87.7382 134.514 87.7938 134.308 87.8527 134.108C88.0945 133.222 87.5586 132.056 86.8177 131.728C86.2383 131.467 85.5728 131.627 84.8803 131.852C84.6185 131.948 84.3762 132.079 84.1339 132.21C83.6726 132.458 83.1782 132.702 82.7364 132.986C82.4807 133.15 82.264 133.387 82.0705 133.609C81.5171 134.208 81.1251 134.874 80.9741 135.58C80.9569 135.664 80.9164 135.763 80.9457 135.817C81.0615 136.205 80.9621 136.659 81.0546 137.062C81.2324 137.971 81.7161 138.634 82.6123 138.96C82.9913 139.082 83.4513 139.005 83.8842 138.995C84.426 139.013 84.9436 138.753 85.4552 138.424C85.897 138.141 86.3425 137.806 86.8075 137.507C87.5613 137.047 87.9436 136.363 88.2267 135.67C88.402 135.241 88.5345 134.79 88.6205 134.37C88.6624 134.099 88.5917 133.852 88.554 133.609C88.5577 133.558 88.4819 133.533 88.4196 133.476C88.3889 133.593 88.3387 133.674 88.3447 133.743Z" fill="#101828"/>
<path id="&#60;Path&#62;_2" d="M124.822 141.092C125.25 141.024 125.672 140.966 126.091 140.918C125.688 140.847 125.275 140.922 124.822 141.092Z" fill="#101828"/>
</g>
</svg>
