<svg width="133" height="126" viewBox="0 0 133 126" fill="none" xmlns="http://www.w3.org/2000/svg">
<g id="&#60;Group&#62;" opacity="0.5">
<path id="&#60;Compound Path&#62;" fill-rule="evenodd" clip-rule="evenodd" d="M45.737 97.6429C44.657 93.9712 43.5917 90.3307 42.5409 86.7216C42.0593 85.011 41.5777 83.3004 41.0523 81.4959C40.7019 80.5185 40.2637 79.5788 39.9133 78.6014C39.1832 76.5839 38.4386 74.5352 37.6793 72.4551C37.1538 70.8762 36.5845 69.2033 36.1029 67.4927C34.9649 63.0187 33.8269 58.5447 32.5573 54.0145C31.638 50.6873 30.543 47.4355 29.6237 44.1083C28.9233 41.4766 28.4863 38.7318 27.3471 36.0629C26.8651 35.0293 27.2168 33.9759 27.3054 32.81C27.4378 31.5125 27.7895 30.4591 28.4484 29.3866C29.8248 26.9157 31.669 24.9206 33.981 23.4014C35.1223 22.6857 36.1759 21.7821 37.2296 20.8784C38.7663 19.4289 40.5221 18.4493 42.4094 17.526C44.604 16.5835 46.7109 15.4531 48.9493 14.6046C51.5826 13.6993 54.216 12.5684 57.112 12.6781C58.5161 12.7519 59.8764 12.506 61.2807 12.3541C62.8605 12.1268 64.4108 12.2129 65.9317 12.6124C67.3795 13.0058 68.8272 13.3991 70.231 13.9242C72.0296 14.618 73.3012 15.9893 73.9142 17.9818C74.571 20.2939 76.2373 22.0596 77.5962 24.0702C80.2557 28.1163 82.9736 32.1374 85.7501 36.1333C87.942 39.2523 90.2657 42.202 92.4576 45.321C94.4742 48.2898 96.4469 51.3902 98.4194 54.4907C99.9392 56.6953 101.488 58.8874 103.066 61.0669C104.645 63.2464 106.238 65.3821 107.845 67.4738C108.108 67.812 108.503 68.2064 108.898 68.3752C110.872 68.9937 112.67 69.9132 114.161 71.5287C114.731 72.0734 115.433 72.6743 116.179 73.1436C117.845 74.2324 118.283 76.0747 119.072 77.7662C119.115 77.8601 119.115 77.8601 119.159 77.9541C118.588 79.2145 119.114 80.5678 118.85 81.8091C118.644 83.1757 118.438 84.5423 118.233 85.9088C118.057 86.4355 118.013 87.0184 117.705 87.4888C116.344 89.5398 114.85 91.5345 113.489 93.5855C113.401 93.6232 113.357 93.7549 113.269 93.7926C110.899 95.4873 109.361 98.2907 106.903 100.023C105.805 100.833 104.62 101.455 103.435 102.076C102.689 102.51 101.767 102.793 101.153 103.282C99.9674 104.129 98.6508 104.469 97.4219 104.997C95.2273 105.94 93.0326 107.108 90.8819 108.144C89.331 108.885 87.7802 109.627 86.2293 110.368C86.1122 110.418 86.0244 110.456 85.9659 110.481C82.3673 111.35 79.3823 113.308 75.8713 114.365C73.238 115.27 70.4293 115.8 67.5769 116.235C65.1487 116.601 62.7207 116.817 60.2926 116.882C57.6159 117.017 54.9391 117.377 52.263 116.608C49.1042 115.709 46.4725 114.133 44.1048 111.315C41.3863 108.196 41.9587 105.131 42.5751 101.933C42.7074 100.861 43.3223 99.9206 43.8056 98.9235C43.9374 98.7542 44.2884 98.6034 44.5518 98.4903C44.9468 98.2078 45.2542 97.9631 45.737 97.6429ZM35.3239 50.4578C35.207 50.3577 35.0754 50.3014 34.9292 50.289C34.9294 49.8377 34.9735 49.4804 35.1054 49.0854C35.2374 48.4648 35.3695 47.8441 35.5016 47.2235C35.7653 46.4334 35.4584 46.0013 34.6686 45.8893C34.2737 45.9462 33.791 46.0407 33.4399 46.1914C32.4303 46.7378 32.0784 48.0168 32.5603 49.2761C32.7356 49.652 32.867 50.0091 32.9545 50.3475C33.655 52.904 34.37 55.4918 35.0996 58.111C36.1502 62.1713 37.3323 66.288 38.5144 70.4046C39.0835 72.5288 39.6963 74.747 40.6604 76.8143C42.2817 80.2912 43.3763 83.9943 44.2515 87.6788C44.3827 88.412 44.6895 89.0697 44.9084 89.7652C45.5213 91.9834 46.1781 94.2202 46.8787 96.4759C47.0538 97.0774 47.1412 97.7166 47.3601 98.4121C47.7979 100.029 48.3672 101.702 48.9802 103.694C49.5943 104.107 50.4276 104.764 51.7004 104.331C52.1393 104.142 52.8412 104.292 53.4554 104.479C54.5084 104.704 55.4735 104.966 56.5265 105.19C58.8518 105.658 61.0022 105.073 63.1965 104.582C65.5662 104.09 67.9215 103.492 70.2621 102.788C72.4565 102.071 74.6949 101.223 76.8017 100.318C77.8111 99.9972 78.8207 99.4509 79.8303 98.9045C81.586 97.9249 83.3857 97.0393 85.0977 95.9657C86.5023 95.1369 87.9509 94.1764 89.3117 93.2536C90.2775 92.6133 91.2432 91.973 92.1651 91.2387C94.4186 89.5942 96.6429 87.9622 98.8379 86.3429C99.511 85.8282 100.155 85.3261 100.769 84.8366C103.008 83.0855 104.633 80.6958 106.302 78.4001C107.4 76.9135 108.454 75.3329 108.456 73.3021C108.412 72.7569 108.369 72.2116 108.15 71.7418C107.098 69.4865 105.695 67.382 104.205 65.3152C100.829 60.5616 97.6727 55.6009 94.341 50.7155C92.0176 47.3146 89.6064 43.9513 87.283 40.5504C86.9761 40.1182 86.5375 39.8554 86.1429 39.461C85.133 40.4586 85.2199 41.7748 84.912 42.9221C84.3855 42.9226 84.0784 42.7162 84.1665 42.2272C84.3426 41.2492 84.3872 40.215 84.8265 39.3496C85.3536 38.4465 85.1347 37.751 84.5648 36.9806C83.7758 35.7405 82.9428 34.4063 82.0222 33.1099C81.1454 31.9074 80.2686 30.7049 79.1287 29.1642C78.7767 30.6689 78.5128 31.6845 78.2048 33.0575C77.0214 30.9715 77.5928 29.4855 78.3835 28.018C76.1916 24.899 74.2629 21.6669 71.9832 18.5855C71.5 19.357 71.1486 19.959 70.7971 20.7867C71.718 21.6319 72.6389 22.4771 73.8668 23.5288C72.8577 23.3982 72.068 23.2862 71.1905 23.2119C70.9852 23.9768 70.7945 24.773 70.6185 25.6006C70.4864 26.2212 70.223 26.5599 69.4334 26.2223C69.61 24.5674 70.6201 23.1185 69.9632 21.0321C68.3826 22.6132 66.9337 24.0249 65.4408 25.5684C65.6163 25.7186 65.7478 25.7749 65.8794 25.8312C67.1954 26.3939 67.5901 26.7883 67.3703 27.4467C67.1067 28.011 66.6679 27.9739 65.4834 27.6931C63.3776 27.0184 62.8074 26.6993 61.8405 29.1447C61.5769 29.7091 61.1815 30.2172 60.8303 30.5937C60.5229 30.8384 59.9087 30.8767 59.5139 30.7079C59.1191 30.539 59.0755 29.9938 59.2952 29.5611C59.4709 29.2601 59.5588 28.9967 59.6907 28.6017C57.8035 29.2994 55.9602 29.8654 54.2046 30.6194C53.7657 30.8079 53.4144 31.1844 52.712 31.7116C53.8089 31.8044 54.5108 31.9541 55.0812 32.0476C55.0368 32.8561 55.2556 33.7773 54.9482 34.2477C54.2895 35.0945 53.8939 36.0539 53.6738 37.1635C53.5858 37.6525 53.2345 38.0289 52.7521 37.6721C52.6205 37.6159 52.5331 36.9767 52.621 36.7133C53.0165 35.754 53.4998 34.7569 53.8953 33.7975C52.1842 33.5173 50.9554 33.8194 50.1648 35.0612C51.0856 36.132 52.0064 37.2028 52.2686 38.8949C50.6456 38.1256 49.1981 37.281 47.9263 36.1353C47.1808 35.4404 47.1812 34.7635 47.6206 33.8981C47.7963 33.5971 47.9721 33.296 48.3673 32.7879C46.4802 33.26 44.9002 33.7129 43.3642 34.0342C41.3016 34.5816 39.1513 34.9412 37.001 35.3007C36.9132 35.3384 36.7376 35.4138 36.606 35.3575C36.299 35.151 35.8164 35.0199 35.7727 34.7003C35.5975 34.3244 35.9925 34.2675 36.3874 34.2107C38.0989 33.8141 39.8105 33.4174 41.522 33.0207C45.9545 31.9067 50.2556 30.2851 54.3377 28.1937C56.0495 27.3457 57.9367 26.8737 59.1663 25.2177C59.6493 24.6719 60.4832 24.4266 61.1855 24.125C61.5806 23.8425 62.0195 23.654 62.5023 23.3339C64.1412 22.1789 65.7216 20.9738 67.2435 19.7187C68.4728 18.7396 69.702 17.7606 70.2297 15.9549C69.8349 15.7861 69.4401 15.6173 69.0453 15.4485C68.4604 15.2485 67.9194 15.0673 67.4222 14.9049C66.4278 14.58 65.4626 14.3178 64.5266 14.1182C64.2634 14.0056 63.9123 14.1565 63.7805 14.3258C63.5167 15.1158 62.9464 15.0224 62.2883 14.9667C61.323 14.9301 60.6205 15.4573 59.918 16.2102C60.7077 16.3222 61.2782 16.4156 61.8046 16.6406C63.0329 17.0154 64.2173 17.5219 65.4464 16.7685C65.9731 16.5423 66.719 16.5603 67.2894 16.6537C67.9475 16.7094 68.3422 17.1039 68.166 18.0819C66.5429 17.5383 65.2262 18.1037 63.9093 18.8948C62.6363 19.7799 62.1965 21.3223 61.5814 22.4887C60.3088 22.6969 59.2117 22.8296 58.0707 23.0941C57.0175 23.3208 56.1396 23.6978 55.8756 24.9391C55.7877 25.2024 55.4804 25.4472 55.0852 25.9553C54.91 25.3538 54.6469 25.0156 54.7787 24.8462C55.2184 23.3039 56.0968 22.0244 57.7205 21.6654C58.8616 21.401 60.0463 21.4562 61.2311 21.2857C61.6705 20.2699 62.1247 19.2101 62.5934 18.1065C60.1802 17.9022 60.1802 17.9022 58.8629 19.3702C58.2921 19.9537 57.8973 19.7849 57.3712 19.1085C57.7518 18.5691 58.1325 18.0297 58.5131 17.4902C58.6449 17.3209 58.9083 16.9822 58.9083 16.9822C58.2947 15.8922 59.4358 15.4022 59.5242 14.4619C58.8221 14.5379 58.2956 14.5384 57.8128 14.6329C57.8126 15.0842 57.7685 15.4415 57.8121 15.7611C55.8812 16.1392 53.9507 15.8404 52.5016 17.4778C52.1948 17.0456 51.9318 16.7074 51.6249 16.2753C51.0542 16.6331 50.4397 16.8971 49.8251 17.3866C50.4832 17.4423 50.8782 17.3855 51.317 17.4226C51.5802 17.5352 51.8433 17.8733 51.9309 18.0613C51.9747 18.1552 51.755 18.588 51.5794 18.6634C50.0285 19.4046 48.4777 20.1458 46.9269 20.887C46.2684 21.2825 45.8294 21.6967 45.8726 22.6932C47.3205 22.8609 48.3743 21.7316 49.603 21.6551C50.8316 21.5786 51.5786 20.0172 53.1141 20.3728C53.114 20.5984 53.1578 20.6924 53.1578 20.6924C51.3138 22.3866 49.2069 23.517 46.9247 24.2716C45.8713 24.7239 44.6427 24.8005 43.458 24.7453C42.5805 24.671 41.7911 23.8821 40.9131 24.4847C39.5971 23.922 38.6754 24.4306 38.0165 25.5031C37.8848 25.6725 37.6214 25.7856 37.4458 25.861C36.3493 25.0912 37.1836 24.169 37.0088 23.1162C36.4819 23.568 36.0868 23.8505 35.6478 24.2646C35.7937 24.7283 35.9251 25.1606 36.0419 25.5616C35.2957 25.9949 34.6373 26.1648 34.1105 26.6166C33.4959 27.1062 33.0567 27.7459 32.5737 28.2917C32.3542 28.4988 32.003 28.6496 31.7398 28.537C30.8185 28.3688 30.7742 28.9517 30.686 29.6663C30.9491 30.0045 31.2999 30.305 31.563 30.6432C31.4748 31.3578 30.8606 31.1704 30.5094 31.3212C29.4122 31.6796 29.0609 32.2817 29.104 33.5038C29.235 34.4627 29.5418 34.8948 30.6824 35.3073C30.9456 35.4199 31.165 35.5136 31.3404 35.5887C31.3989 35.714 31.4134 35.8205 31.3841 35.9083C30.6527 35.9968 29.9067 36.054 29.1461 36.0799C28.9262 36.9638 29.3207 37.5839 29.9347 37.997C30.5488 38.41 31.1628 38.823 31.6891 39.2737C32.2593 39.5928 32.6978 40.0812 32.6096 40.7958C32.4341 40.8712 32.3901 41.0029 32.2585 40.9466C31.7319 40.9472 31.1616 40.8537 30.4157 40.8357C30.6342 42.2081 30.5455 43.5997 31.5977 44.9524C31.9052 44.482 32.1249 44.0493 32.4322 43.8045C32.8714 43.1647 33.4859 42.9008 34.2316 43.1445C35.4307 43.6071 36.498 44.3142 37.4334 45.2659C37.8281 45.6604 38.0472 46.1302 37.7397 46.6006C36.9198 47.855 36.1146 49.1408 35.3239 50.4578ZM46.0866 99.9741C45.9989 99.9366 45.8819 99.9117 45.7356 99.8993C45.2083 101.028 44.6664 102.201 44.1099 103.417C43.3629 104.979 43.669 106.765 44.1506 108.475C44.2819 108.983 44.9835 109.584 45.5099 109.809C47.0012 110.747 48.7124 111.028 50.4238 110.857C50.8187 110.8 51.3014 110.705 51.7401 110.742C54.5192 110.677 57.2836 110.655 60.0333 110.677C59.5502 111.449 58.9794 112.032 57.8824 112.165C56.3464 112.486 54.898 112.996 53.0547 113.562C53.7127 113.843 54.1075 114.012 54.4585 114.087C56.7398 114.686 59.197 114.759 61.4349 114.587C65.4281 114.338 69.4651 114.184 73.4148 113.164C76.1358 112.447 78.8568 111.729 81.3587 110.542C82.7194 109.845 84.1238 109.242 85.5721 108.733C87.3278 107.979 89.2589 107.375 91.0585 106.489C93.7359 105.227 96.4133 103.964 98.7402 101.95C98.9743 101.699 99.267 101.498 99.6181 101.347C102.12 100.385 104.052 98.6535 106.159 97.0718C107.871 95.7726 109.495 94.2854 111.12 92.7983C111.735 92.3087 112.393 91.6875 112.832 90.8221C113.579 89.4863 114.151 88.0003 114.81 86.4765C115.03 85.8182 115.206 85.0659 115.425 84.4075C113.669 85.6128 112.264 86.8929 110.816 88.079C109.235 89.4345 107.655 90.79 106.03 92.0515C104.757 93.1622 103.309 94.1227 101.904 95.1772C100.543 96.0999 99.2697 97.2106 97.7775 97.8515C95.2756 99.0388 92.9492 100.376 90.6226 101.939C89.3056 102.956 87.8132 103.597 86.1017 103.994C84.8729 104.296 83.7317 104.786 82.4589 105.22C81.3178 105.635 80.1768 106.049 79.0356 106.464C78.2018 106.71 77.2801 106.993 76.4901 107.332C74.7344 108.086 73.0664 109.028 71.1356 109.18C70.8287 108.748 70.6973 108.466 70.3466 107.94C71.1367 107.601 71.9267 107.261 72.7167 106.922C73.6823 106.508 74.7356 106.281 75.7012 105.866C77.457 104.886 79.3002 104.32 81.3189 103.905C82.5038 103.734 83.601 103.376 84.6106 102.829C87.2442 101.473 89.7901 99.9283 92.3799 98.4777C92.8188 98.2892 93.1262 98.0444 93.3897 97.7057C94.2679 96.6518 95.4969 96.124 96.638 95.6339C97.1647 95.4077 97.6621 95.1189 98.1304 94.7674C99.3157 93.9201 100.413 92.8847 101.686 92.2253C103.354 91.509 104.847 90.4168 106.252 89.3624C108.447 87.5174 110.379 85.3342 112.179 83.0947C113.672 81.3256 114.814 79.4817 115.298 77.1308C115.562 76.1151 115.782 75.0055 114.949 74.1227C113.941 73.0895 112.8 72.2258 111.704 71.2304C111.397 71.0239 111.134 70.9113 110.651 70.7802C110.695 71.3255 110.651 71.6828 110.694 72.0024C110.869 73.9577 110.692 75.8382 109.945 77.6253C109.242 79.5064 107.924 80.9744 106.826 82.461C105.289 84.5874 103.401 86.1876 101.601 87.9758C100.46 89.1428 99.055 89.9716 97.7379 90.9884C97.4745 91.1767 97.1673 91.3463 96.8162 91.497C95.8068 91.8178 94.9288 92.4204 93.963 93.0607C91.1534 95.1696 88.1247 96.8087 84.8329 98.1096C82.9895 98.9012 81.2777 99.7491 79.3905 100.447C78.1616 100.975 76.8448 101.54 75.572 101.974C74.7527 102.326 73.9189 102.646 73.0704 102.935C71.622 103.445 70.1737 103.954 68.6815 104.369C66.3117 104.936 63.8541 105.54 61.4404 106.013C60.1678 106.221 58.8953 106.203 57.6228 106.186C56.6575 106.149 55.5169 105.737 54.8147 106.038C53.2346 106.717 51.699 106.361 50.1197 105.912C49.1545 105.65 48.1018 105.199 47.4441 104.467C46.6109 103.584 46.1728 102.418 46.3052 101.121C46.3493 100.764 46.1741 100.388 46.0866 99.9741ZM41.8364 21.4941C41.7195 21.3939 41.6172 21.2499 41.5296 21.0619C41.2662 21.2502 41.032 21.426 40.8272 21.5891C40.8856 21.7144 40.944 21.8397 41.0024 21.965C41.2951 21.8394 41.5731 21.6824 41.8364 21.4941Z" fill="#101828"/>
<path id="&#60;Compound Path&#62;_2" fill-rule="evenodd" clip-rule="evenodd" d="M70.9026 49.7033C70.5879 49.7655 70.2303 49.8092 69.8299 49.8344C69.7442 49.649 69.6156 49.3709 69.7014 49.3337C70.2167 48.4427 69.9168 47.7938 69.3595 47.0339C68.6306 46.1258 67.8155 45.7001 66.8288 45.5714C66.4856 45.4975 66.0563 45.9061 65.9704 46.1659C65.5407 47.2423 65.2827 48.2443 64.9389 49.2834C64.853 49.5432 64.6384 49.7475 64.5524 50.0073C63.8233 49.5444 63.9523 48.9321 64.0813 48.3198C64.2964 47.2252 64.6832 46.0561 64.9842 44.9242C65.2422 43.9222 66.2718 43.9211 67.173 43.6418C67.0016 43.271 66.9161 42.863 66.7447 42.4922C65.7445 40.626 64.7158 38.7722 63.6585 36.9308C63.5727 36.7454 63.487 36.56 63.4013 36.3746C62.4155 34.4651 60.8707 34.6895 60.0976 36.1372C59.4965 37.0654 59.5391 37.6033 60.4826 38.3071C60.9544 38.659 61.4691 38.881 61.9839 39.103C62.1983 39.3439 62.4556 39.6775 62.4555 39.9001C62.3695 40.1599 62.0691 40.4014 61.7687 40.4203C61.3825 40.4764 60.9106 40.3471 60.4817 40.0878C59.6668 39.6621 58.766 39.051 57.951 38.6253C57.3934 38.3106 57.222 37.9398 57.5227 37.2531C57.9952 36.2695 58.2962 35.1376 58.9402 34.3021C59.4984 33.5038 60.3569 32.9093 61.5581 33.0563C62.9739 33.2217 64.4326 33.4797 66.0629 33.6633C65.9768 34.1457 65.8909 34.4055 65.762 34.7952C66.1051 35.0916 66.4053 35.2953 66.877 35.6472C65.0741 37.3188 65.8884 39.08 67.0888 40.7852C67.5747 41.539 68.0461 42.3362 68.5033 43.1766C69.0606 44.1591 69.6609 45.0116 70.6904 45.4557C71.3767 45.8259 71.8053 46.5303 71.762 47.328C71.6757 48.2556 72.1902 48.9228 72.7904 49.7754C73.0052 49.3485 73.1341 48.9588 73.263 48.5691C73.5208 48.0123 73.6498 47.4 73.9504 46.9359C74.7234 45.7108 74.895 45.6364 76.3534 46.3396C76.6966 46.4876 77.0397 46.6357 77.3829 46.7837C77.5116 46.8392 77.7261 46.8575 78.1552 46.8941C77.9839 46.3007 77.8554 45.8 77.5982 45.4664C75.8831 43.3166 76.2274 41.1644 76.8722 38.9934C77.2589 38.0469 77.5597 37.1376 77.9035 36.0985C78.8472 36.6539 79.8908 37.2772 81.0346 37.9684C80.2617 39.1936 79.3186 37.5994 78.5888 38.2495C78.1876 39.6102 77.7578 41.1318 77.2993 42.8141C79.2281 46.3178 81.2856 50.0996 83.4288 53.8442C85.7008 57.6443 88.0585 61.4072 90.4163 65.1701C90.8878 65.9672 91.3166 66.6716 90.8011 67.7852C90.3293 67.4333 89.9003 67.1741 89.686 66.7106C87.3711 63.0404 85.0562 59.3702 82.8271 55.6628C82.1413 54.4022 81.5843 52.9745 80.9843 51.6767C80.5128 50.8796 80.17 50.138 79.7413 49.4336C79.4412 49.0073 78.9694 48.6554 78.4547 48.4334C77.7111 48.1621 76.9103 47.9899 76.0522 47.9167C74.8081 47.677 73.9924 48.5868 73.9917 49.9224C73.9914 50.3676 73.7767 50.7945 73.6476 51.4068C75.0621 54.0207 76.5622 56.82 78.1483 59.5821C79.52 61.8807 80.8918 64.1793 82.1777 66.5151C84.3638 70.3524 86.5499 74.1897 88.7789 78.1197C89.3361 79.1022 89.7646 80.2517 90.8368 81.0111C91.0942 81.1221 91.2656 81.4929 91.3083 81.8082C91.5223 82.9395 91.6504 84.1079 91.7784 85.499C91.4781 85.2953 91.2208 85.1843 91.0492 85.0361C88.7059 81.0073 86.3482 76.9476 83.9763 72.857C82.1188 69.7304 80.3327 66.6099 78.6182 63.4955C76.1321 59.0093 73.6459 54.5231 71.2026 50.1296C71.1169 49.9442 71.0169 49.8021 70.9026 49.7033ZM63.9168 35.261C64.3026 35.8727 64.474 36.2436 64.7741 36.6699C65.4181 35.8344 65.1609 35.5008 63.9168 35.261Z" fill="#101828"/>
<path id="&#60;Path&#62;" d="M40.1464 40.7628C39.4836 40.4795 38.9092 40.1584 38.3348 39.8372C36.8751 41.4854 36.3447 41.486 37.625 43.7749C36.4754 44.4953 35.8132 43.3036 34.9294 43.0017C34.5759 42.9263 34.1786 42.075 34.0463 41.5641C33.958 41.375 34.1794 40.9394 34.2679 40.6743C34.5039 40.2702 34.7399 39.8662 34.9759 39.4622C36.3475 37.1705 37.6737 36.8285 40.2808 37.8667C41.3413 38.3199 42.0037 39.2845 42.18 40.1171C42.6652 41.6119 41.1619 42.4841 40.6749 43.7149C40.3209 44.321 39.8788 44.5107 39.216 44.2275C38.9074 42.8839 40.0571 42.1635 40.1464 40.7628Z" fill="#101828"/>
<path id="&#60;Compound Path&#62;_3" fill-rule="evenodd" clip-rule="evenodd" d="M52.2367 42.0958C51.4391 43.575 50.6415 45.0542 49.8882 46.4008C49.4451 47.2731 48.781 47.4444 47.8518 47.0474C46.613 46.4421 45.3298 45.9696 44.0468 45.2697C43.0734 44.7779 42.9851 44.361 43.3398 43.2992C43.8276 41.8392 44.8462 40.8336 45.909 39.9227C47.0604 38.9738 48.8305 39.351 50.5115 40.676C51.0423 41.1304 51.5289 41.49 52.2367 42.0958ZM51.0413 42.7225C49.8022 42.3447 48.8731 41.9477 47.8995 41.6833C47.6341 41.5699 47.1913 41.7599 47.0584 41.9306C46.4827 42.5188 45.9511 43.2017 45.3311 43.9226C46.0388 44.5284 46.4811 45.0207 47.1005 45.4371C47.6313 45.8914 48.295 46.175 48.7822 45.6248C49.5352 44.7332 50.2439 43.7469 51.0413 42.7225Z" fill="#101828"/>
<path id="&#60;Path&#62;_2" d="M39.6461 59.128C40.2767 61.3927 40.781 63.6023 41.3695 65.7751C42.0701 68.4879 42.8267 71.1762 43.6396 73.8398C43.8917 74.8341 44.4386 75.8097 44.6908 76.804C45.2794 78.7557 45.5733 80.7261 46.1198 82.5858C46.9187 84.9977 47.7176 87.4096 48.5586 89.9135C48.7268 90.2817 49.1056 90.668 49.4001 91.0913C49.2035 91.3985 48.9789 91.718 48.7262 92.0499C47.8003 91.3511 47.8427 90.3381 47.4642 89.5097C45.8661 85.349 44.9839 80.9847 43.8489 76.7313C43.1763 74.3745 42.3352 72.0916 41.6626 69.7348C41.074 67.7831 40.6117 65.8865 40.1494 63.99C39.7851 62.4555 39.4069 60.8903 39.0146 59.2945C39.3935 59.2388 39.562 59.1649 39.7725 59.183L39.6461 59.128Z" fill="#101828"/>
<path id="&#60;Path&#62;_3" d="M83.3514 43.6742C82.9251 43.6377 82.5414 43.6937 82.1578 43.5276C81.4331 43.288 80.7512 42.9188 80.0693 42.5496C79.5578 42.3282 79.1316 42.0697 79.2598 41.459C79.5158 40.9038 79.9848 41.0327 80.411 41.2912C81.0503 41.5679 81.7323 41.7152 82.2437 42.1585C83.4369 43.1931 84.8008 43.9315 85.6953 45.4289C87.0158 47.6289 88.3791 49.6992 89.4437 52.0104C89.8697 52.7129 90.3809 53.3783 90.8069 54.0808C91.318 54.9682 91.616 55.8374 91.1465 57.0404C90.763 56.6524 90.4647 56.4492 90.2944 56.0794C88.335 52.7147 86.8446 49.035 84.5441 45.8188C84.0754 45.2458 83.7347 44.5063 83.3514 43.6742Z" fill="#101828"/>
<path id="&#60;Path&#62;_4" d="M59.9603 46.0901C58.9905 45.8267 58.1088 45.5255 57.227 45.4509C56.5216 45.3006 55.5511 46.1702 55.5947 46.9443C55.5945 47.1709 55.9028 47.6049 56.2114 47.8123C56.6079 48.2084 57.1369 48.4345 57.7099 48.7549C58.1947 49.1131 58.5031 49.5471 58.1499 50.1517C57.885 50.7185 57.356 50.4924 56.783 50.172C55.7251 49.72 54.6672 49.2679 53.6093 48.8158C52.5954 48.4581 52.5074 48.2694 52.7724 47.476C53.1553 46.3301 53.5381 45.1842 53.921 44.0382C54.3184 43.0748 54.9359 42.8098 55.9056 43.2997C56.4345 43.5258 56.9635 43.7518 57.5367 43.8456C58.7271 43.901 59.3438 44.769 60.0928 45.6934C60.0928 45.6934 59.9605 45.8635 59.9603 46.0901Z" fill="#101828"/>
<path id="&#60;Path&#62;_5" d="M38.2671 53.1883C38.2684 51.1507 39.3705 49.8854 40.0762 48.4508C40.1645 48.1866 40.7813 48.1482 41.1337 48.2233C42.2495 48.4988 43.336 48.8624 44.393 49.3141C45.4939 49.8601 45.6259 50.143 44.8761 51.4834C43.819 51.2581 42.806 50.9007 41.6167 50.6189C41.4108 51.0845 41.205 51.5501 40.9991 52.0157C40.6904 52.4877 40.8222 52.997 41.3506 53.4493C42.0109 54.1844 42.5831 54.9573 43.2875 55.7868C43.1993 55.9 43.1258 55.9693 43.067 55.9945C41.4817 55.0906 39.8964 54.1866 38.2671 53.1883Z" fill="#101828"/>
<path id="&#60;Path&#62;_6" d="M57.3005 55.3256C56.8157 56.0993 56.7709 57.3629 55.8457 58.3256C55.6261 57.4018 55.6261 57.4018 56.4203 54.7985C55.0115 54.4983 53.5146 54.2358 52.0618 54.0676C51.4006 55.1432 50.8716 56.2753 49.2424 56.409C49.2866 56.0506 49.1108 55.6736 49.199 55.4095C49.596 54.221 49.905 53.0704 50.346 51.9761C50.6108 50.9575 51.0513 50.7685 52.0196 51.2578C52.5478 51.4835 53.0613 51.6778 53.5602 51.8408C55.2331 52.2539 56.9058 52.8933 57.3005 55.3256Z" fill="#101828"/>
<path id="&#60;Path&#62;_7" d="M74.8537 31.227C74.4572 31.0576 74.0608 30.6616 73.5761 30.53C72.4305 30.116 72.166 30.2295 71.7686 31.419C71.6362 31.589 71.5919 31.9477 71.5478 32.0798C72.1199 33.3061 73.3102 32.682 73.9709 33.1909C73.7056 34.6634 73.0004 34.7396 69.9601 33.667C69.4324 31.8556 70.1827 30.2882 70.7125 28.7022C70.9773 28.1357 71.5063 27.9086 72.0351 28.1346C72.9603 28.53 73.8854 29.1518 74.7665 29.6794C75.2071 29.9432 75.4712 30.5091 74.8537 31.227Z" fill="#101828"/>
<path id="&#60;Path&#62;_8" d="M67.4331 39.8104C67.4333 39.3565 67.3894 39.0351 67.4779 38.7703C68.097 37.3703 68.8485 36.0269 69.5559 34.589C70.7918 35.4198 72.3819 34.9643 73.1755 36.8923C72.0275 36.7044 71.056 36.6676 69.908 36.4797C69.7015 37.0976 69.4509 37.7723 69.156 38.5038C69.9948 38.9379 70.7454 39.1829 71.4517 39.5603C71.6282 39.7114 71.7605 39.995 71.8487 40.184C71.6277 40.3922 71.4068 40.6005 71.186 40.5818C69.9056 40.3373 68.7135 40.0549 67.4331 39.8104Z" fill="#101828"/>
<path id="&#60;Path&#62;_9" d="M51.0898 59.7188C50.8654 61.0827 50.776 61.1212 49.6583 60.5655C49.0772 60.2396 48.5406 60.0097 47.9147 59.8183C46.7523 59.397 46.3945 59.551 45.902 60.5695C45.5438 61.1845 45.3645 61.953 45.0509 62.8945C44.8273 62.8755 44.3354 62.9721 43.754 63.1072C43.934 61.1863 44.9184 60.0713 45.8582 58.8602C46.9321 57.7066 46.9322 57.7066 48.5417 58.3963C49.2868 58.7668 50.0616 59.1245 50.8664 59.4694C51.0005 59.5268 51.0451 59.6228 51.0898 59.7188Z" fill="#101828"/>
<path id="&#60;Path&#62;_10" d="M47.8662 30.8596C47.7767 30.4349 47.6425 29.9137 47.7323 29.6433C48.6307 27.6343 49.8877 25.9338 52.2656 25.4871C53.1181 25.2351 53.9704 25.4466 54.7773 26.4883C53.3415 26.876 51.8164 26.6074 50.8289 27.7284C49.8862 28.7141 49.0781 29.7576 48.1803 30.8399C48.0308 30.8272 47.9261 30.8338 47.8662 30.8596Z" fill="#101828"/>
<path id="&#60;Path&#62;_11" d="M39.7594 30.5712C37.5175 30.8437 35.3652 31.0776 34.6016 33.6053C33.9739 33.6445 33.6154 33.3363 33.5709 32.777C33.6161 32.179 33.6613 31.3495 34.065 31.0598C35.0967 30.2678 36.2179 29.6685 37.4287 29.2621C38.3704 28.9718 39.2668 29.5109 39.7594 30.5712Z" fill="#101828"/>
<path id="&#60;Path&#62;_12" d="M60.0145 58.3063C59.3438 57.3265 59.6575 56.6147 59.9263 56.0376C60.1953 55.2298 60.5985 54.4795 61.0016 53.7292C61.0913 53.4599 61.4942 53.1711 61.8521 53.2476C63.4184 53.1498 65.1637 52.9748 66.5501 54.3384C66.729 54.492 66.9079 54.6456 67.3999 55.0104C66.0129 54.8004 64.9391 54.5709 63.8651 54.5721C61.5831 54.2861 61.0458 54.7482 60.4627 56.9599C60.3283 57.3639 60.1491 57.6717 60.0145 58.3063Z" fill="#101828"/>
<path id="&#60;Path&#62;_13" d="M46.5659 29.6102C43.9652 29.1114 42.5742 30.753 41.2277 32.7226C41.0486 32.3369 40.69 32.0286 40.7798 31.7584C40.9154 29.9637 43.5622 28.012 45.3558 28.3959C45.849 28.5304 46.2524 28.9351 46.7007 29.2048C46.6708 29.2949 46.6258 29.43 46.5659 29.6102Z" fill="#101828"/>
<path id="&#60;Path&#62;_14" d="M40.2468 59.2927C38.292 57.1611 38.2029 57.4279 36.6013 59.2585C36.3789 59.4683 36.3342 59.8303 36.0671 60.4021C35.5344 59.2596 36.0682 58.5733 36.3353 58.0014C37.4037 55.7142 38.204 55.599 40.248 57.2352C40.4257 57.4637 40.6183 57.6476 40.8256 57.7871C40.9585 58.53 40.647 59.0066 40.1134 59.2358L40.2468 59.2927Z" fill="#101828"/>
<path id="&#60;Path&#62;_15" d="M46.8899 51.5539C47.4219 52.0094 47.4661 52.3323 47.1996 52.9026C45.9117 55.3929 45.379 56.0774 44.4918 56.2304C44.1379 54.7868 45.026 53.0379 46.8899 51.5539Z" fill="#101828"/>
<path id="&#60;Path&#62;_16" d="M60.9696 45.9573C60.6107 47.1873 59.9389 48.1295 58.9541 48.784C58.8197 48.957 58.4173 48.7847 58.2831 48.7272C58.1938 48.5352 58.1942 48.0742 58.3286 47.9011C59.2238 47.2852 60.0744 46.5733 60.9696 45.9573Z" fill="#101828"/>
</g>
</svg>
