<svg width="37" height="33" viewBox="0 0 37 33" fill="none" xmlns="http://www.w3.org/2000/svg">
<g id="&#60;Group&#62;">
<path id="&#60;Compound Path&#62;" fill-rule="evenodd" clip-rule="evenodd" d="M34.6777 2.49916C34.9667 3.02913 35.3522 3.46274 35.9303 3.70363C36.1712 3.75181 36.4121 4.18544 36.4121 4.47452C36.4603 5.10084 36.4603 5.72717 36.2676 6.30531C36.0748 7.07618 35.7376 7.79886 35.4003 8.47337C34.9186 9.53331 34.0031 10.2078 33.1841 10.9305C33.152 10.9947 33.0878 11.0429 32.9914 11.075C32.2205 11.5086 31.8351 12.0868 31.8833 13.0504C31.9315 13.6285 31.6424 14.2067 31.2569 14.6403C30.727 15.3148 30.1488 15.9893 29.5225 16.712C29.5707 16.8083 29.6189 17.0492 29.7152 17.2901C30.3416 18.6391 30.9679 19.94 31.546 21.289C31.9315 22.1081 32.2687 22.9753 32.606 23.7943C33.0878 24.9506 33.0396 26.1551 32.9432 27.3596C32.895 28.1304 32.1723 28.8531 31.4497 28.9013C30.8233 28.9013 30.5343 29.2386 30.3416 29.7203C30.1007 30.3467 29.667 30.8284 29.0407 31.1175C28.3662 31.4547 27.6435 31.5029 26.9208 31.3584C26.439 31.262 26.1018 31.3584 25.7163 31.6957C24.4637 32.8038 22.7293 32.9965 21.5248 31.5993C20.8985 30.7802 20.1276 30.0576 19.8385 28.9977C19.8064 28.9334 19.7743 28.8692 19.7422 28.8049C18.6822 27.4077 18.0559 25.7696 17.0441 24.3724C16.8514 24.0834 16.7069 23.7461 16.5142 23.3607C15.9842 23.457 15.5024 23.5534 14.9724 23.6016C13.8161 23.7461 12.8044 23.6016 12.0817 22.638C11.889 22.3489 11.6963 22.3489 11.4072 22.3971C10.2027 22.7343 8.99823 23.0234 7.74557 23.3125C7.2156 23.4089 6.63747 23.5534 6.1075 23.5052C5.09574 23.5052 4.03579 23.4089 3.02403 23.2643C1.96409 23.1198 1.24142 22.3489 0.807807 21.4335C0.422375 20.6145 0.229641 19.6991 0.0369247 18.8319C-0.0594333 18.4946 0.0369247 18.1092 0.27782 17.8201C0.695372 17.2098 1.11294 16.5996 1.53049 15.9893C1.67503 15.7484 1.81955 15.5075 1.81955 15.3148C1.86773 14.1103 2.59043 13.3394 3.45765 12.7131C4.46941 11.9904 5.52934 11.3641 6.63746 10.7378C7.93829 9.91875 9.23913 9.14786 10.5881 8.42517C12.3226 7.46159 14.1052 6.59438 15.8878 5.72716C16.5142 5.38991 17.1405 5.00447 17.7668 4.66722C18.7304 4.13725 19.694 3.60727 20.6575 3.12548C21.2357 2.83641 21.8139 2.6437 22.392 2.35463C24.0301 1.58376 25.8127 1.2465 27.5953 0.957424C28.5107 0.764708 29.3298 1.00563 30.0043 1.58378C30.4861 2.01739 31.0161 2.11374 31.546 2.2101C32.5578 2.30645 33.5695 2.35462 34.6777 2.49916ZM20.224 22.638C20.7539 23.7461 21.3321 24.8542 21.9102 25.9142C22.1029 26.2996 22.3438 26.6369 22.5365 26.9741C22.7774 27.3595 22.9702 27.745 23.2592 28.0822C23.6928 28.6604 24.271 28.8049 25.0419 28.6122C26.1018 28.291 27.1617 27.9698 28.2217 27.6486C28.2698 28.3713 27.5953 28.5159 27.3544 28.9977C27.7881 29.1422 28.029 28.9494 28.2699 28.7085C28.5589 28.4195 28.8962 28.1786 29.2816 28.0341C29.667 27.7932 30.1006 27.6486 30.5342 27.5041C31.4015 27.215 31.4978 26.4441 31.4978 25.7215C31.4978 24.9506 31.0642 24.3725 30.7751 23.7461C30.0043 22.1562 29.378 20.5663 28.7035 19.0246C28.4626 18.4946 28.1735 17.9646 27.8844 17.4347C27.2099 17.7719 26.6318 18.061 26.1018 18.3501C24.5119 19.1691 22.922 20.0363 21.3321 20.9036C20.7057 21.2408 20.1276 21.7226 19.5013 22.108C19.8867 22.0599 20.0794 22.2526 20.224 22.638ZM17.8632 22.7826C18.1041 23.168 18.2968 23.5534 18.5377 23.8906C18.9713 24.6615 19.4531 25.4324 19.8385 26.2033C20.513 27.4559 21.0912 28.7568 21.7657 29.9612C22.2475 30.7803 23.3556 31.0212 24.2228 30.5394C24.3673 30.443 24.4637 30.2985 24.6082 30.2021C24.3673 30.1058 24.2228 30.1539 24.0783 30.1057C23.5965 30.1057 23.0665 30.1057 22.6811 29.6721C21.9102 28.9494 21.2357 28.1304 20.8021 27.215C20.1758 25.9623 19.5976 24.7579 19.0676 23.5052C18.8267 22.9753 19.0676 22.5416 19.4049 22.108C18.8749 22.1562 18.3931 22.4453 17.8632 22.7826ZM27.8844 1.63194C27.7399 1.63194 27.5953 1.58376 27.499 1.63194C27.3384 1.63194 27.1778 1.63194 27.0172 1.63194C24.9937 1.9692 23.0665 2.69188 21.2357 3.5591C19.8867 4.23361 18.5377 4.95631 17.2368 5.67899C16.466 6.06443 15.6951 6.5462 14.9724 6.93164C13.8482 7.5419 12.7241 8.15217 11.5999 8.76243C10.829 9.14787 10.01 9.48513 9.28731 9.91874C7.89011 10.786 6.5411 11.7495 5.19209 12.6168C4.67818 12.9701 4.19639 13.3234 3.74672 13.6767C3.26493 14.0621 3.31309 14.7367 3.79488 14.833C4.32485 14.9294 4.90303 15.0257 5.38482 14.9293C7.36016 14.4957 9.3355 14.0621 11.1663 13.1467C11.2627 13.0825 11.359 13.0343 11.4554 13.0022C12.5153 12.5686 13.5752 12.1832 14.6352 11.7014C15.9842 11.0269 17.285 10.3524 18.5859 9.67785C20.0794 8.90698 21.5248 8.13611 22.8738 7.07617C23.3074 6.73891 23.741 6.40166 24.2228 6.11259C25.5718 5.24536 26.6799 4.13726 27.7399 2.93278C28.0771 2.59553 28.1735 2.16191 27.8844 1.63194ZM2.06045 16.6638C1.4823 17.0492 1.2414 17.5792 1.00051 18.061C0.711431 18.88 1.0005 19.5545 1.86772 19.8436C3.02402 20.2772 4.22852 20.2772 5.38482 19.94C6.68565 19.6027 7.98647 19.1209 9.28731 18.6873C10.6363 18.2055 11.9853 17.7238 13.3344 17.242C13.768 17.0974 14.2016 17.0974 14.6352 16.9047C15.9842 16.2784 17.285 15.5557 18.5859 14.9293C19.4531 14.4957 20.3203 14.1103 21.1393 13.6767C21.9584 13.2431 22.6811 12.7131 23.452 12.2795C24.1265 11.7977 24.8009 11.3159 25.4755 10.9305C26.3427 10.4005 27.2099 10.0151 28.029 9.48512C29.5707 8.377 31.1124 7.17253 32.3651 5.6308C32.7505 5.10083 33.2323 4.61903 33.6177 4.08906C34.0513 3.46273 33.9068 3.07731 33.1359 2.98095C32.9432 2.98095 32.7987 2.98097 32.606 3.02915C32.3169 3.02915 32.076 3.12548 31.7869 3.12548C31.3051 3.12548 31.0642 3.31822 30.9197 3.75183C30.5824 4.66723 29.9561 5.43807 29.1852 6.01622C27.6435 7.17252 26.0536 8.28064 24.4637 9.38875C24.1264 9.62965 23.6928 9.77419 23.3074 9.96691C22.5365 10.4487 21.7175 10.9787 20.8984 11.4123C19.9349 11.9583 18.9713 12.4883 18.0077 13.0022C17.3332 13.2913 16.7069 13.5804 16.0324 13.8694C15.5506 14.0621 15.0206 14.2067 14.5388 14.4476C13.2862 15.1221 11.9371 15.652 10.5399 15.9411C10.3472 15.9411 10.1545 16.0375 10.01 16.0857C9.14277 16.3426 8.29161 16.5996 7.45651 16.8565C7.16743 16.9207 6.89441 17.001 6.63746 17.0974C6.25203 17.2419 5.81842 17.3865 5.43298 17.4829C4.99937 17.5792 4.51758 17.531 4.13214 17.6756C3.36128 17.9165 2.83132 17.6274 2.39771 17.0492C2.30135 16.9529 2.20499 16.8083 2.06045 16.6638ZM5.43298 22.0117C6.20385 22.4453 6.49292 22.5416 7.11925 22.4453C8.13101 22.2525 9.09458 22.108 10.0582 21.819C11.2626 21.4817 12.5153 21.0481 13.6716 20.6145C14.4425 20.3254 15.2133 20.0363 15.936 19.6509C17.4296 18.8319 18.9231 17.9646 20.4167 17.1456C21.862 16.3747 23.3556 15.652 24.7528 14.8812C27.4508 13.3394 30.1006 11.7495 32.5578 9.82238C33.7141 8.90698 34.5813 7.79885 35.2076 6.49801C35.4003 6.11258 35.3521 5.6308 35.3521 5.14901C35.3521 5.00447 35.1113 4.85995 35.0149 4.71541C34.3886 5.38992 33.8104 6.06441 33.2323 6.69074C32.1242 7.89522 30.9679 9.0515 29.5225 9.87055C28.7516 10.3202 27.9808 10.786 27.2099 11.2677C26.6799 11.605 26.15 12.0868 25.62 12.4241C24.7046 13.0022 23.7892 13.5322 22.8738 14.1103C21.1875 15.0739 19.5494 16.1338 17.8632 17.0492C16.4178 17.8683 14.8279 18.4464 13.3344 19.1691C12.8044 19.3618 12.3226 19.6509 11.8408 19.94C11.4554 20.1327 11.0699 20.3254 10.6363 20.4699C8.95005 20.9999 7.21561 21.4817 5.43298 22.0117ZM13.4789 21.5299C14.2498 22.2526 15.0688 22.5417 15.9842 22.3008C16.6587 22.1562 17.3332 21.9635 17.9595 21.6262C20.1276 20.5181 22.2475 19.3136 24.4155 18.1573C25.2346 17.6756 26.1018 17.2901 26.9208 16.8083C27.7559 16.3587 28.575 15.8929 29.378 15.4111C29.667 15.2184 29.9561 14.9775 30.197 14.7366C30.9197 14.1103 31.0642 13.5322 30.6788 12.5686C30.2934 12.7934 29.9079 13.0182 29.5225 13.2431C28.3662 13.9176 27.2099 14.6885 25.9091 15.2184C25.0419 15.6039 24.1746 16.0375 23.3074 16.5193C21.3802 17.6274 19.4531 18.7355 17.4296 19.6509C16.1287 20.2291 14.8279 20.8554 13.4789 21.5299ZM3.0722 16.0857C3.21674 16.712 3.3613 16.9047 3.93944 16.8565C4.71031 16.8565 5.48115 16.7602 6.20384 16.5674C7.31195 16.3265 8.42008 15.9411 9.5282 15.6039C10.7809 15.2184 12.0335 14.833 13.238 14.3994C14.0089 14.1103 14.7315 13.6767 15.4542 13.3394C16.8353 12.6649 18.2165 11.9904 19.5976 11.3159C19.6458 11.2677 19.6458 11.2196 19.694 11.2196C20.6575 10.6736 21.6211 10.1275 22.5847 9.58148C23.3556 9.14787 24.1746 8.76245 24.8973 8.23248C26.1018 7.36525 27.2099 6.40167 28.3662 5.48627C28.7516 5.19719 29.1852 4.9563 29.4261 4.52268C29.6189 4.18543 29.8598 3.89636 30.1007 3.5591C30.1007 3.5591 30.1007 3.46273 30.1007 3.36638C30.0043 3.3182 29.9079 3.22186 29.667 3.02915C29.5707 3.22186 29.4743 3.3664 29.378 3.51094C28.6553 4.23362 27.9808 5.05267 27.2099 5.67899C25.6682 7.02801 23.7892 7.9434 22.0548 8.95516C21.3802 9.34059 20.6576 9.67785 19.9831 10.0151C19.5494 10.2078 19.1158 10.4487 18.6822 10.6414C17.269 11.3159 15.8557 11.9904 14.4425 12.665C14.2016 12.7613 14.0088 12.954 13.768 12.954C13.238 13.0504 12.8044 13.2913 12.3708 13.5322C12.1299 13.6767 11.8408 13.7731 11.5999 13.8694C10.6363 14.2067 9.62457 14.4958 8.66098 14.833C7.84194 15.1703 7.02289 15.5075 6.15567 15.7484C5.14391 16.0375 4.13214 16.2784 3.0722 16.0857Z" fill="white"/>
<path id="&#60;Path&#62;" d="M28.7517 26.4924C28.7998 26.107 28.7998 25.8179 28.848 25.5289C28.9443 25.0952 28.9444 24.6617 28.7517 24.228C28.4626 23.6017 28.318 22.879 28.029 22.2527C27.7399 21.53 27.4508 20.8073 27.1136 20.1328C27.0172 19.8438 26.8245 19.6029 26.7281 19.3138C26.6799 19.1211 26.7281 18.832 26.8245 18.7838C26.969 18.7356 27.2581 18.7838 27.3544 18.8802C27.5472 19.0247 27.6917 19.2174 27.7881 19.4101C28.5589 21.0482 29.378 22.6863 30.1007 24.3725C30.3897 24.9989 30.1007 25.9625 29.5225 26.3479C29.3298 26.4443 29.0889 26.4443 28.7517 26.4924Z" fill="white"/>
<path id="&#60;Path&#62;_2" d="M27.7399 24.7578C27.3866 24.9827 27.1457 24.9345 27.0172 24.6133C26.439 23.4249 25.877 22.2204 25.3309 20.9998C25.2827 20.8553 25.2827 20.6626 25.2346 20.4699C25.5718 20.2772 25.8127 20.3735 25.9572 20.6626C26.5675 22.0116 27.1617 23.3767 27.7399 24.7578Z" fill="white"/>
</g>
</svg>
