<svg width="86" height="57" viewBox="0 0 86 57" fill="none" xmlns="http://www.w3.org/2000/svg">
<g id="&#60;Group&#62;">
<path id="&#60;Compound Path&#62;" fill-rule="evenodd" clip-rule="evenodd" d="M38.3179 28.9496C37.3543 27.9378 36.1498 28.275 35.138 27.9378C34.849 27.8896 34.5117 27.8414 34.2227 27.7933C31.3801 27.456 30.8501 30.9249 29.5975 29.335C28.6018 30.1058 27.6221 30.8607 26.6585 31.5994C26.0804 32.0812 25.4059 32.5148 24.9241 33.093C24.2014 33.912 16.3482 37.6699 17.0227 37.3327C16.011 37.8626 11.2894 39.7416 10.6149 39.9825C9.69953 40.3198 8.83231 41.2352 8.78413 42.3433C9.12139 42.3433 9.41044 42.3433 9.69952 42.2951C11.7712 41.9579 13.7948 41.3797 15.7701 40.7052C17.4564 40.1271 18.9981 39.3081 20.5398 38.3927C22.1297 37.4773 23.7196 36.5618 25.3577 35.5982C25.3577 35.6464 25.3577 35.5983 25.3577 35.5501C25.0686 34.9238 25.165 34.2974 25.5504 33.7193C25.984 33.0929 26.5622 32.6593 27.3331 32.4666C28.0076 32.3221 28.7302 32.1293 29.3084 32.7557C30.561 31.4548 31.0428 30.8767 33.6927 29.3831C33.9336 29.2386 34.2227 29.1423 34.4636 29.1905C36.0053 29.335 37.4988 29.5759 38.7997 30.3949C39.7151 30.9249 40.5823 31.4067 41.4495 31.9848C42.0277 32.3703 42.5094 32.9002 43.0876 33.3339C43.2803 33.5266 43.473 33.6711 43.7139 33.8638C44.1957 32.8039 44.0993 32.4666 43.1839 31.9848C42.3649 31.5512 41.6422 31.1176 41.1123 30.4431C40.9677 30.2504 40.775 30.2022 40.5823 30.1058C40.245 29.8649 39.9078 29.6722 39.6187 29.4795C39.6669 29.0941 39.9078 29.0459 40.1005 29.1422C41.4495 29.9613 43.0394 30.2022 44.2439 31.2621C44.4848 31.4548 44.7257 31.6476 44.9184 31.8885C45.1593 32.0812 45.3038 32.3221 45.6893 32.3221C46.0265 32.3221 46.0265 32.6593 45.9302 32.9002C45.7696 33.3178 45.5768 33.7353 45.352 34.1529C45.0147 34.6347 44.7257 35.1646 44.3403 35.5982C43.9548 36.1282 43.5212 36.7064 43.0394 37.0918C42.0758 37.8145 41.2086 38.7299 40.1487 39.4044C38.9442 40.1753 37.8361 41.187 36.6798 42.1024C36.0534 42.536 35.4271 42.9696 34.8008 43.3069C32.8736 44.2705 30.8983 45.2341 28.9711 46.1976C28.3448 46.4867 27.7667 46.8721 27.1403 47.1612C25.8395 47.8357 24.4905 48.3657 23.0451 48.6066C22.756 48.6548 22.5152 48.7511 22.2743 48.7993C21.9852 48.8475 21.6961 48.8957 21.2625 48.9439C21.0698 49.3775 20.7807 49.9074 20.6362 50.4374C20.588 50.7265 20.8289 51.1601 21.0698 51.401C22.3706 52.8464 24.0569 53.7618 25.8395 54.5326C25.8877 54.5808 25.984 54.5326 26.1286 54.5326C26.0322 54.3399 25.984 54.1954 25.8877 54.1472C25.3417 53.6333 24.7796 53.1194 24.2014 52.6055C24.0087 52.4609 23.7678 52.3164 23.5751 52.1718C23.4305 52.0755 23.2378 52.0273 23.1415 51.931C22.7079 51.3046 22.1779 50.7747 21.5034 50.3892C21.1661 50.1965 21.3107 49.8111 21.6479 49.6666C22.0815 49.5702 22.467 49.5702 22.8042 49.8592C23.6714 50.5337 24.5547 51.2083 25.4541 51.8828C25.5022 51.931 25.5986 51.9309 25.695 51.9791C25.6468 51.401 24.8277 51.1601 25.2613 50.4856C25.3577 50.5338 25.4059 50.4856 25.4541 50.5337C25.9359 51.401 26.8031 51.5455 27.6703 51.6419C28.3448 51.7382 28.9711 51.5937 29.5975 51.3528C33.8854 49.3775 42.9431 43.596 43.0394 43.596C41.5459 44.6077 35.1862 49.3775 35.0417 49.4738C33.5963 50.5659 32.0385 51.4813 30.3683 52.22C30.1274 52.3646 29.8865 52.4609 29.6456 52.6055C28.7784 53.1836 27.9594 53.28 27.0922 52.6536C26.9958 52.6055 26.8994 52.6536 26.6104 52.6055C27.044 52.9909 27.333 53.28 27.6703 53.5209C28.2484 54.0027 28.2485 54.5326 27.9594 55.1589C27.9112 55.2553 27.9112 55.3517 27.863 55.448C28.5375 55.7853 28.7784 55.7853 29.2602 55.3998C29.1639 55.2071 28.9711 55.0626 28.9711 54.918C28.923 54.629 28.8748 54.2436 29.0193 54.0027C29.8865 52.4609 30.272 52.7018 35.8607 49.9075C36.0053 49.8593 36.1498 49.7629 36.2943 49.7147C39.1851 48.9439 42.943 44.945 47.1828 41.9579C47.3755 41.8134 47.6646 41.717 47.9055 41.5243C54.0242 37.4291 52.7234 38.1517 54.3133 36.8509C54.5542 36.6582 54.8433 36.5618 55.0842 36.3691C55.566 35.9355 56.0478 35.4537 56.5295 35.0201C58.1676 33.4784 59.6612 31.7921 61.4438 30.3467C61.9256 30.0095 62.2628 29.4795 62.6965 29.0459C62.7928 28.9014 62.9373 28.7086 63.0819 28.6123C64.2864 28.0341 64.9609 26.8778 65.8763 25.9624C66.599 25.2398 67.3217 24.5171 68.0443 23.7944C68.2852 23.5535 68.5261 23.3126 68.3334 23.0235C68.1407 22.7345 67.8516 22.7344 67.5626 22.8308C67.2253 22.9753 66.888 23.1681 66.5508 23.3126C65.5872 22.879 65.6354 22.879 64.72 23.6499C63.7564 24.4207 62.7928 25.1434 61.7811 25.8661C56.6741 29.6241 62.0701 25.1916 55.9514 29.3831C54.9236 30.0898 53.8958 30.7804 52.868 31.4549C52.2256 31.9045 51.5832 32.3542 50.9408 32.8039C50.5072 33.1412 50.0735 33.1893 49.5918 32.8521C49.11 32.563 48.6282 32.2739 48.1464 31.9848C47.4719 31.5994 46.7492 31.214 46.0747 30.8767C45.352 30.5877 44.9666 30.1058 44.822 29.335C44.5812 28.1787 44.3884 27.0224 44.6293 25.8661C44.7257 25.4807 44.8221 25.1434 44.9184 24.7098C44.8221 24.6616 44.7257 24.5652 44.6293 24.5171C39.2333 21.6263 37.8361 20.9036 35.668 19.7473C35.3308 19.5546 35.0899 19.5547 34.8008 19.7956C34.319 20.1328 33.8854 20.4701 33.4036 20.8073C33.3073 20.9037 33.2109 21 33.1145 21.0482C32.3437 21.2409 31.7173 21.7227 31.091 22.2045C30.272 22.879 29.5493 22.349 27.574 21.0482C27.3331 20.8555 27.1403 20.6146 26.9476 20.3737C26.8512 20.2291 26.7549 20.0364 26.6585 19.9401C26.2731 19.7473 26.3213 19.5065 26.3695 19.1692C26.4658 18.7838 26.4658 18.302 26.4176 17.8684C26.3695 16.8085 26.3213 15.7003 26.2731 14.5922C26.2731 13.5323 26.7067 12.6169 27.2849 11.846C29.1638 9.34071 31.4283 7.26897 34.0781 5.72724C35.3308 5.00456 36.5834 4.33009 37.8843 3.89648C38.9442 3.55922 40.1005 3.36648 41.1604 3.99281C41.4977 4.18553 41.7386 4.18554 42.0277 3.94464C42.654 3.41467 44.8702 1.53569 46.3156 1.0539C47.0864 0.813006 47.9537 0.813018 48.7245 1.24663C53.7833 3.89648 53.3979 3.65556 53.687 3.99281C53.8797 4.23371 54.1206 4.18554 54.3133 3.94464C54.3454 3.91252 54.3775 3.89648 54.4097 3.89648C55.8068 2.25839 57.734 2.45109 59.2276 3.46285C59.7094 3.75193 60.0948 4.1855 60.5284 4.57094C60.6248 4.66729 60.6729 4.81183 60.7693 4.81183C61.492 5.00455 61.6847 5.67907 62.022 6.20903C62.2629 6.59447 62.5037 6.9799 62.6965 7.41351C62.7446 7.55805 62.7446 7.75076 62.7928 7.8953C62.7928 8.28073 62.7446 8.61801 62.7928 9.00344C62.7928 9.14798 62.9373 9.38888 63.0819 9.48523C63.66 9.77431 64.2864 10.0633 64.9127 10.3524C65.0572 10.2079 65.2499 10.0633 65.3463 9.87063C65.6354 9.34066 66.069 8.95525 66.5026 8.56982C66.8399 8.32892 67.1771 8.13621 67.5626 8.08803C69.0561 7.99167 70.4533 8.23257 71.6096 9.29251C72.0914 9.67794 72.6214 10.0152 73.1031 10.3524C73.9222 10.8824 74.4521 11.5088 74.3558 12.5687C74.3076 13.0023 74.404 13.5323 74.4522 14.0141C79.0773 12.1351 79.3182 11.6051 82.9316 13.9177C83.3171 14.2068 83.7025 14.4477 83.9916 14.7849C85.0997 16.2303 85.7742 17.8683 85.726 19.7473C85.6297 21.1927 84.9552 22.349 84.1843 23.5053C83.2207 24.9507 81.7272 25.4325 80.0891 25.7215C78.3065 26.0588 76.7647 25.6252 75.223 24.8061C74.404 24.3243 73.5367 23.8908 72.7177 23.409C72.2841 23.8908 71.8987 24.3725 71.465 24.758C70.4051 25.7697 69.2488 26.7333 68.1407 27.7451C67.7552 28.1305 67.3698 28.516 66.9844 28.9496C65.3945 30.684 63.6601 32.1775 61.7811 33.6229C60.8175 34.3456 59.9503 35.2128 59.1312 36.1764C58.6494 36.7064 58.0713 37.14 57.4931 37.6218C55.9032 38.9708 54.2651 40.368 52.6271 41.6688C51.4708 42.6324 50.2181 43.4996 48.9654 44.4632C48.9654 44.4632 44.4366 48.0285 44.1475 48.2694C43.1839 49.1366 42.124 49.9074 41.0159 50.5819C38.7997 51.8346 39.426 51.9791 36.198 53.7136C34.8972 54.3881 33.6927 55.2553 32.2473 55.7371C30.9465 56.1707 29.6456 56.7971 28.2003 56.6525C27.7185 56.6525 27.2849 56.4116 26.8031 56.3152C26.7067 56.2671 26.6104 56.1225 26.4658 56.1225C24.8277 55.7853 23.7196 54.4844 22.3224 53.7136C21.5516 53.2318 20.9252 52.4609 20.2989 51.7864C19.7208 51.1601 19.5762 50.4856 19.9616 49.7147C20.1544 49.3775 20.2507 48.992 20.4434 48.6548C20.7325 48.0766 21.2143 47.8357 21.8888 47.8357C23.6714 47.7394 25.4059 47.3058 26.9958 46.4385C28.4894 45.5713 30.1274 44.8968 31.7173 44.1741C32.9218 43.5478 34.2227 43.0178 35.3308 42.1506C35.3308 42.1024 35.379 42.0542 35.4271 41.9097C34.849 41.5885 34.2869 41.2673 33.7409 40.9461C33.1627 40.6249 32.5846 40.3037 32.0064 39.9825C30.8983 39.3562 29.742 38.7781 28.6339 38.1036C27.5739 37.4773 26.6104 36.7545 25.5504 36.08C25.0686 36.9473 24.0087 36.8991 23.2378 37.4291C22.3224 38.0554 21.3588 38.5854 20.4434 39.1153C20.2989 39.2117 20.2507 39.3081 20.1062 39.3562C18.9499 39.9344 17.7936 40.5125 16.5891 41.0907C15.481 41.6206 14.3247 42.1024 13.1684 42.5842C8.49505 44.5595 5.17068 42.7769 1.41272 39.5007C-0.0326548 38.2481 -2.00797 33.9602 4.92981 33.6229C6.61608 33.5266 8.20598 32.9002 9.74771 32.3703C12.783 31.3103 18.2272 27.0706 19.1426 26.2997C20.4435 25.1434 21.7925 24.0353 22.9488 22.6863C23.6233 21.8191 24.4905 21.0482 25.3095 20.2773C25.5504 20.0365 25.8395 19.7474 26.3695 20.0846C26.1286 20.3255 25.984 20.47 25.8395 20.6627C24.908 21.6263 23.9605 22.606 22.9969 23.6017C22.6758 23.9228 22.3546 24.244 22.0334 24.5652C20.7325 25.8179 19.3353 27.0224 17.89 28.0823C16.9746 28.7087 12.7348 32.2257 9.89224 32.9966C9.12138 33.2375 8.39868 33.5747 7.67599 33.8638C5.02614 34.8274 3.29171 34.1529 2.32813 34.972C2.47267 35.3574 4.30347 37.14 4.73708 37.4772C5.45977 37.959 6.08608 38.6817 6.71241 39.3562C6.85695 39.5008 6.80878 39.838 6.90514 40.2716C6.61606 40.1271 6.47154 40.0307 6.37518 39.9825C5.65249 39.4044 4.9298 38.7781 4.11076 38.2481C3.53261 37.8627 2.90627 37.5254 2.23177 37.2363C1.84633 37.0918 1.84635 37.0918 1.31638 37.3809C1.70181 38.3927 5.12251 41.3797 6.56788 41.9097C7.4351 38.6335 8.78413 39.7898 16.2519 36.5137C18.3718 35.5983 20.3953 34.5383 22.2743 33.1893C23.8642 32.033 25.4059 30.7804 27.0922 29.7686C28.0076 29.1904 30.561 27.0706 31.1392 26.4442C31.9582 25.4806 33.0182 25.4325 34.0781 25.8179C35.3308 26.2515 36.5352 26.7333 37.547 27.5524C37.8361 27.7933 38.0288 28.0823 38.2697 28.3714C38.3179 28.4677 38.2697 28.6605 38.3179 28.9496ZM36.8243 8.56982C37.3543 8.28075 37.8843 7.99166 38.4142 7.65441C40.3896 6.35357 41.7868 5.87181 39.3778 4.42643C39.0406 4.23372 38.7033 4.57095 38.366 4.76366C37.9324 5.00456 37.4988 5.19729 37.0652 5.43818C36.5834 5.6309 36.1016 5.77546 35.668 6.06453C34.9935 6.44997 34.3672 6.88357 33.7409 7.31718C32.6809 8.08804 31.7655 8.90705 31.1874 10.1115C31.091 10.3042 30.8983 10.4488 30.7056 10.5933C30.1756 11.0751 29.7902 11.6533 29.742 12.376C29.6938 12.7614 29.742 13.195 29.742 13.6286C29.5493 13.6768 29.3566 13.7732 29.1639 13.8695C28.8266 12.7614 28.8266 11.7496 29.5493 10.8342C30.0793 10.1597 30.6092 9.48523 31.2355 8.76255C31.091 8.85891 30.9947 8.85887 30.9465 8.90705C30.3683 9.4852 29.6938 10.0634 29.1639 10.6897C28.4894 11.5088 27.7185 12.2796 27.3331 13.2914C26.9476 14.3513 27.044 15.3631 27.1403 16.4712C28.8748 15.074 29.4529 14.7849 30.7056 17.5793C30.9947 15.9412 30.8983 14.3995 32.1991 12.8578C32.7773 12.2314 33.3554 11.5569 33.9818 10.9306C34.6563 10.2561 35.3789 9.67795 36.1016 9.00344C36.3586 8.84285 36.5995 8.6983 36.8243 8.56982ZM31.5728 21.1927C30.8019 20.6146 30.9947 19.651 30.8501 18.8801C30.7859 18.8801 30.7377 18.8801 30.7056 18.8801C30.7056 19.651 30.7056 20.4219 30.7056 21.2409C30.3202 21.2891 30.0311 21.3373 29.742 21.3854C30.7056 21.819 30.8983 21.819 31.5728 21.1927ZM29.8865 18.0611C29.9347 17.9647 29.9347 17.8684 29.8865 17.772C29.742 17.242 29.5011 16.7603 29.0675 16.423C28.4893 16.7121 28.2003 17.4829 27.4294 17.242C27.1403 17.6275 27.1403 18.0611 27.2849 18.4947C27.333 18.7356 27.4776 18.9765 27.4294 19.1692C27.2849 19.8919 27.7667 20.181 28.2484 20.5182C28.6821 20.8073 29.212 21.0964 29.742 21.3854C29.7902 20.2773 29.4529 19.1692 29.8865 18.0611ZM45.7374 10.3043C44.7257 11.2197 45.9301 10.4006 40.9195 14.5922C38.4142 16.7121 38.4624 16.7121 37.8843 16.8566C40.9195 18.6874 43.8585 20.4701 46.7492 22.2045C47.8091 21.3855 48.8209 20.6628 49.7845 19.8437C50.6999 19.0729 51.808 18.4947 52.7234 17.5311C52.1934 17.3866 51.808 17.2902 51.4226 17.1457C50.9408 17.0012 50.8444 16.7603 50.9408 16.2785C51.0371 15.9894 51.0853 15.7003 51.0853 15.4594C51.1335 14.3031 51.1335 13.195 51.1335 12.0869C51.1335 11.83 51.1496 11.573 51.1817 11.316C51.2299 10.786 51.3262 10.3043 51.3744 9.7743C51.5189 7.22081 52.4343 6.11268 52.9643 5.00456C51.1335 3.84826 50.0254 2.93288 47.8092 2.01748C47.231 1.77659 46.701 1.68023 46.0747 2.01748C44.822 2.69199 43.8585 3.60739 42.7504 4.42643C42.6058 4.52279 42.4613 4.61914 42.2686 4.7155C43.4249 5.82361 44.1475 6.93174 44.4848 7.55807C44.6775 7.9435 44.6775 8.32891 45.2075 8.37709C45.2075 9.09978 45.0147 9.77428 45.7374 10.3043ZM39.0406 39.1635C39.3296 39.019 39.6187 38.9226 39.8114 38.778C40.3414 38.3444 41.0159 37.9591 41.4013 37.3809C41.6904 36.8991 41.9955 36.4173 42.3167 35.9355C42.7022 35.4056 43.0394 34.8755 43.3285 34.4419C42.9912 34.2492 42.6058 34.1529 42.3649 33.912C41.7867 33.2375 41.0641 32.7075 40.2932 32.2739C39.9078 32.0812 39.5223 31.8885 39.2333 31.6476C38.1251 30.8285 36.8725 30.4913 35.5235 30.2022C34.7526 30.0095 34.0781 30.1541 33.4518 30.6358C32.97 30.9731 32.3919 31.2622 31.9101 31.5994C31.1874 32.0812 30.5129 32.6111 29.6938 33.1893C30.272 33.5747 30.7537 33.9602 31.2837 34.2493C32.7612 35.2128 34.2387 36.1603 35.7162 37.0918C36.8725 37.8145 37.9806 38.5372 39.0406 39.1635ZM37.8361 16.3748C43.8103 11.7496 44.533 11.1715 44.4366 10.4488C43.9067 6.83539 42.7022 5.82361 39.0406 8.08803C37.7879 8.85889 36.5834 9.77432 35.3308 10.6415C35.1862 10.7861 34.9935 10.8824 35.0899 11.1715C35.5717 11.027 35.8126 10.4488 36.4871 10.5933C35.668 11.1715 34.8972 11.6533 34.3672 12.4241C33.1627 14.1586 32.2955 15.9412 32.97 18.1575C33.1627 18.832 33.3073 18.9283 34.1263 18.5911C33.4518 17.9166 33.2109 17.0975 33.4518 16.1821C33.4518 16.134 33.4036 16.0376 33.4036 15.9894C33.3073 15.3631 33.5 14.8813 33.9336 14.4476C35.0899 13.0504 36.5834 11.9905 38.1251 11.0269C38.4624 10.786 38.896 10.6415 39.3296 10.5933C38.366 11.3642 37.4025 12.0387 36.4871 12.7132C35.8447 13.195 35.2183 13.6928 34.6081 14.2067C34.1745 14.544 33.8372 14.9776 33.8372 15.6521C34.0299 15.6039 34.1745 15.5558 34.319 15.5076C35.5235 14.8331 37.5952 15.5558 37.8361 16.3748ZM52.0489 23.5053C52.1934 22.9754 52.5307 22.879 52.8198 22.6863C53.6388 22.2045 54.4579 21.7227 55.2769 21.2409C56.9632 20.181 58.9867 18.7356 59.7575 16.9048C60.0948 16.0858 59.7094 15.6522 58.8421 15.7485C57.8786 15.8449 57.0113 16.1821 56.1923 16.6639C55.6784 16.953 55.1484 17.242 54.6024 17.5311C54.3454 17.6917 54.0885 17.8363 53.8315 17.9647C53.1088 18.3983 52.3862 18.7356 51.9044 19.4583C52.2577 19.2977 52.611 19.1371 52.9643 18.9765C52.9161 19.2174 52.7716 19.3137 52.6271 19.4101C51.0853 20.3255 49.7363 21.4818 48.7245 22.9754C48.3391 23.6017 47.8573 24.1798 48.2427 24.9989C48.2909 25.0952 48.1946 25.3361 48.0982 25.3843C48.0019 25.4325 47.8091 25.3843 47.7128 25.2879C47.4237 25.0952 47.1828 24.9025 46.9419 24.6616C46.8937 24.3726 46.8937 23.9871 46.8456 23.5053C45.882 24.6134 45.352 25.7697 45.4965 27.1187C45.5929 27.0866 45.6411 27.0224 45.6411 26.926C45.8338 26.4924 46.1229 25.9625 46.6047 25.9143C47.1828 25.7697 47.8573 25.9143 48.4836 25.9624C48.5318 25.9624 48.58 25.9624 48.58 26.0106C48.9654 26.4442 49.4954 26.8297 49.4954 27.5042C49.4954 27.6006 49.5918 27.6969 49.6399 27.8896C49.7363 27.7451 49.8326 27.6487 49.8326 27.6005C50.5072 26.1552 51.3744 24.8543 52.7716 24.0353C53.1088 23.7944 53.4461 23.6017 53.5906 23.0717C53.0607 23.2162 52.627 23.3608 52.0489 23.5053ZM62.9374 18.6392C60.0466 19.8437 56.7704 21.7227 54.7469 23.9389C54.3133 24.4689 53.687 24.9025 53.5424 25.7215C53.7352 25.6734 53.8315 25.6252 53.9761 25.577C54.217 25.4807 54.506 25.4325 54.6506 25.6734C54.8433 26.0588 55.3733 26.2997 55.1805 26.8297C53.8797 30.2022 52.4343 28.4196 52.3862 27.4078C51.8562 27.6487 51.0853 27.5523 51.278 30.1058C55.1805 28.5641 50.3626 32.033 60.0466 24.2762C57.5413 25.2398 57.1077 26.4443 55.855 26.5406C55.855 26.0588 56.1923 25.9625 56.4332 25.8179C60.3839 23.1199 61.492 22.6863 62.7928 21.53C62.9374 21.3855 63.2746 21.4818 63.5155 21.4336C63.9009 20.1328 63.7082 19.121 62.9374 18.6392ZM74.3558 19.3138C73.7776 19.9401 76.572 21.4336 77.0538 19.6028C77.2947 18.832 77.7283 18.1575 78.3546 17.6757C78.7883 17.2902 79.2219 16.9048 79.7037 16.5194C78.5474 15.7485 77.8728 15.4112 77.632 14.4476C77.4392 13.725 78.1619 13.725 78.2583 14.2067C78.4028 14.7849 78.7401 15.1703 79.1255 15.5558C79.7519 16.1821 80.33 16.2785 81.149 15.9412C81.7753 15.6522 82.4017 15.4594 83.0762 15.6039C83.2207 15.6521 83.3653 15.6039 83.6062 15.6039C83.2689 15.2667 83.028 14.9777 82.739 14.7368C79.7037 12.5205 77.0538 12.7614 74.5003 15.893C73.874 16.6639 74.5485 18.1574 75.5121 18.7356C75.3676 18.8319 75.223 18.9765 74.9821 19.1692C75.3194 19.4101 75.6084 19.651 75.9457 19.8919C75.2712 20.1328 74.8858 19.6028 74.3558 19.3138ZM29.9829 55.7371C31.0428 55.3999 32.0546 55.2553 32.9218 54.7735C36.6316 52.5091 39.715 50.0038 40.4377 49.4738C41.305 48.8475 42.1722 48.2212 42.9912 47.5467C46.9419 44.4632 46.8937 44.1741 48.3873 43.3551C49.0618 43.0178 49.7845 42.5842 50.3626 42.0542C51.5671 40.898 52.6752 39.6453 54.0724 38.6817C54.8433 38.1517 55.2287 37.0918 56.3368 36.9954C57.1077 36.2728 57.7822 35.5019 58.3603 34.6828C57.9267 34.9719 57.5895 35.3092 57.1559 35.6464C56.0959 36.4173 54.9878 37.1881 53.9279 38.0554C51.1817 40.1752 52.3861 39.5007 47.761 42.8251C44.6293 45.1377 42.2204 48.2212 32.0546 53.3763C31.091 53.8099 30.3683 54.5326 29.9829 55.7371ZM84.9552 19.3138C84.8106 18.7356 84.7143 18.1575 84.5216 17.6275C84.377 17.0494 84.088 16.9048 83.5098 16.9048C83.2207 16.9048 82.9799 16.953 82.739 16.953C82.1608 16.9048 81.679 17.1457 81.2454 17.4348C80.3782 18.0611 79.7518 18.9283 79.2219 19.8437C79.0773 20.1328 79.0292 20.5182 78.8846 20.7591C78.3065 21.5782 78.4028 22.4454 78.7883 23.2644C78.981 23.6499 79.3182 24.0353 79.7037 24.2762C80.5227 24.7098 82.3053 24.3726 82.9799 23.6499C84.088 22.4454 84.8588 21.0482 84.9552 19.3138ZM28.1039 32.9002C27.0922 33.2375 26.4177 33.7674 26.1286 34.4419C25.9359 34.7792 25.9359 35.0201 26.2731 35.2128C26.3695 35.3092 26.5622 35.4055 26.5622 35.5501C26.6104 35.9837 26.9958 36.1764 27.2849 36.3691C27.8309 36.7224 28.393 37.0758 28.9711 37.4291C30.5129 38.2963 32.0546 39.1635 33.5963 39.9825C34.4636 40.4643 35.3789 40.898 36.3425 41.3316C36.7761 40.9943 37.2579 40.657 37.8361 40.2234C36.6798 39.9825 35.8126 39.549 35.0899 38.8263C34.8972 38.5854 34.6081 38.4408 34.319 38.2963C33.0182 37.5736 31.6692 36.8509 30.3683 36.1282C29.742 35.7428 29.1639 35.3092 28.5375 34.8756C28.3448 34.731 28.2003 34.5865 28.3448 34.3938C28.4893 34.1529 28.7302 34.1529 28.923 34.2974C29.5011 34.6507 30.0792 34.988 30.6574 35.3092C30.8983 35.4537 31.1392 35.5501 31.3801 35.6464C31.4283 35.4537 31.3801 35.3574 31.2837 35.3092C30.2559 34.5062 29.196 33.7032 28.1039 32.9002ZM72.2359 10.9788C71.8023 10.5452 71.176 10.5933 70.7905 10.2561C70.4051 9.87065 70.0678 9.48523 69.5861 9.24434C68.9597 8.85891 68.3334 8.95525 67.7071 9.29251C67.4662 9.43704 67.2253 9.58159 66.9844 9.72613C66.5026 10.1116 66.0208 10.4488 65.6354 10.8824C64.72 11.8942 64.6718 13.195 64.4309 14.6404C66.069 13.0505 67.2735 14.1104 68.4779 15.2186C68.767 14.6886 69.0079 14.1586 69.297 13.725C70.0679 12.6168 70.6942 11.3642 72.2359 10.9788ZM56.3368 12.0869C56.4011 12.0548 56.4653 12.0387 56.5295 12.0387C56.1923 10.7379 55.9514 8.47347 54.6024 9.24434C54.1688 9.48523 53.7351 9.77427 53.4461 10.1115C52.7234 11.0751 52.3861 12.1832 52.2416 13.3877C52.1934 13.9177 52.1453 14.4477 52.0489 14.9777C51.6635 16.5194 51.5189 16.423 53.1088 17.0975C53.3497 17.1938 53.5424 17.1939 53.7352 17.0493C54.5542 16.4712 55.4214 15.9412 56.2405 15.4112C56.4332 15.2667 56.6259 14.9776 56.6259 14.7849C56.6259 14.255 56.5295 13.0987 56.3368 12.0869ZM53.9761 8.28076C53.7833 8.52165 53.5906 8.71434 53.4461 8.85888C54.1206 8.52163 54.7469 8.28075 55.5178 8.56982C56.2405 8.81071 56.5777 9.43707 56.915 10.1598C57.0595 9.8225 57.1559 9.58157 57.2522 9.34067C57.5895 8.42527 58.0231 7.60626 58.8903 7.02811C59.3721 6.73904 59.7094 6.25725 60.143 5.82364C59.8539 5.53456 59.613 5.24549 59.3239 5.10095C58.6012 4.57098 57.734 4.37824 56.8668 4.23371C56.4332 4.13735 56.0478 4.23373 55.6623 4.61916C55.566 4.71552 55.4214 4.81183 55.3251 4.81183C54.6506 4.71547 53.3979 6.35361 53.2534 6.78722C53.4461 6.78722 53.5906 6.78722 53.8797 6.78722C53.6388 7.22083 53.4461 7.60622 53.2534 7.94347C53.4943 8.08801 53.7352 8.1844 53.9761 8.28076ZM68.0925 22.349C68.2852 21.9154 68.3816 21.5782 68.1407 21.2409C68.0443 21.0964 67.9961 20.8554 67.9961 20.7109C67.9961 19.9882 67.948 19.2174 68.0925 18.4947C68.1889 17.7238 67.948 17.0012 67.8516 16.2785C67.8034 16.1339 67.6589 15.9894 67.5144 15.893C67.0326 15.6039 66.3099 15.7967 65.9726 16.3266C65.7799 16.6478 65.6033 16.969 65.4427 17.2902C65.1054 17.8684 64.9127 18.3984 64.9127 19.0729C64.9127 19.5065 64.8645 19.9401 64.8645 20.3737C64.8163 21 64.8645 21.1445 65.4908 21.3373C66.069 21.53 66.6632 21.6745 67.2735 21.7709C67.6589 21.8191 67.9962 21.819 68.0925 22.349ZM61.492 13.0505C61.235 12.922 60.9781 12.7935 60.7211 12.665C60.4321 12.4723 60.0948 12.376 59.8057 12.1832C59.0348 11.7496 58.6976 10.6897 59.3239 10.1598C59.9021 9.62978 60.432 9.00345 61.3956 9.19617C61.492 9.19617 61.6365 9.14797 61.8774 9.05161C61.7329 8.66618 61.6365 8.32895 61.4438 7.99169C61.2029 7.60626 60.5284 7.36537 60.143 7.5099C59.4685 7.84716 58.9385 8.32894 58.5531 9.00344C58.3604 9.3407 58.2158 9.72609 58.0713 10.1115C57.6377 11.2678 57.734 10.6415 57.4931 14.3031C57.4931 14.3513 57.5413 14.3995 57.6377 14.4959C58.8903 13.8695 60.1912 14.0141 61.5883 14.544C61.5402 14.255 61.492 14.0622 61.492 13.8695C61.492 13.6286 61.492 13.3877 61.492 13.0505ZM35.668 16.4712C35.5235 16.6639 35.4271 16.7603 35.2826 16.9048C34.849 17.3866 34.849 17.6275 35.3308 18.0129C35.668 18.3502 36.1498 18.5429 36.3907 18.9283C37.2579 20.2291 44.4366 23.7462 45.1111 23.7944C45.9783 22.1563 38.6551 18.1574 36.3425 16.7603C36.1498 16.6639 35.9089 16.5676 35.668 16.4712ZM73.4886 12.5205C73.1031 12.5687 72.8141 12.6168 72.5732 12.7132C71.6096 13.1468 70.9351 13.8695 70.5496 14.8813C70.2606 15.7003 70.0197 16.5676 69.827 17.4348C69.7306 17.8684 69.6824 18.302 69.6824 18.7356C69.6503 20.0525 69.6342 21.3694 69.6342 22.6863C69.6342 23.1199 69.6342 23.5535 69.6824 24.0834C69.6342 24.1316 69.4897 24.3725 69.3452 24.5652C69.3773 24.5652 69.3934 24.5813 69.3934 24.6135C70.0679 24.0835 70.6942 23.5053 71.4169 22.9272C70.6942 22.3972 70.5496 21.7709 70.5496 21.0482C70.5496 20.727 70.5657 20.4219 70.5978 20.1328C70.7424 19.4101 70.8869 18.7838 70.7905 18.0129C70.7423 17.5311 70.7424 17.0493 70.646 16.5675C70.5015 15.8448 70.8869 15.363 71.3687 14.9294C71.8023 14.4958 72.2359 14.544 72.7177 14.7368C72.7819 14.7689 72.8622 14.7849 72.9586 14.7849C73.3922 14.8813 73.4886 14.7849 73.5849 14.3513C73.6813 13.7732 73.6331 13.195 73.4886 12.5205ZM49.5918 31.8885C49.4954 31.4067 49.399 31.0694 49.3509 30.684C49.2545 30.2022 49.2545 29.6722 48.8209 29.335C48.7727 29.2386 48.7245 29.0941 48.7245 28.9496C48.7245 28.4999 48.7245 28.0502 48.7245 27.6005C48.7245 27.2633 48.5318 27.0224 48.2427 26.8779C47.9858 26.7494 47.7288 26.6209 47.4719 26.4924C46.8937 26.2997 46.412 26.4443 46.2674 27.0706C46.0747 27.7933 45.9783 28.5641 45.882 29.2868C45.7856 29.8168 46.0747 30.0577 46.5565 30.2986C47.3755 30.7322 48.1946 31.214 49.0136 31.6476C49.1582 31.7439 49.3027 31.7921 49.5918 31.8885ZM76.572 23.6499C76.5238 23.0236 76.4757 22.5417 76.3793 22.0599C76.3311 21.9154 76.1866 21.7709 76.0902 21.6745C75.9457 21.5781 75.8012 21.5782 75.6566 21.53C73.1995 20.7109 73.1995 19.3137 72.6214 17.9647C71.8505 19.3619 72.0432 20.6627 72.5732 21.9154C72.8622 22.5899 73.4886 22.9753 74.2594 23.1199C74.1149 22.8308 73.9222 22.5899 73.7295 22.3972C73.6331 22.2526 73.4404 22.0599 73.6331 21.8672C73.8258 21.6745 74.0667 21.7227 74.2113 21.9154C74.7894 22.7344 75.7048 23.0717 76.572 23.6499ZM60.0466 11.2197C61.1547 11.7496 62.2147 12.2796 63.2746 12.7614C63.5637 12.9059 63.7082 12.665 63.7564 12.4241C63.8849 12.0387 63.9973 11.6533 64.0937 11.2678C62.841 9.91882 60.9138 9.82247 60.0466 11.2197ZM62.2629 13.3877C62.022 14.9295 62.311 15.5076 63.4673 16.0376C63.4192 15.2185 63.371 14.4477 63.3228 13.6286C62.9855 13.5323 62.6483 13.4841 62.2629 13.3877ZM72.7659 15.6039C72.1877 15.3631 71.8987 15.4594 71.6578 15.7967C71.4651 16.1821 71.5614 16.6157 72.0432 17.0493C72.2841 16.5675 72.525 16.0857 72.7659 15.6039ZM62.5519 16.3266C62.4074 16.7602 62.311 17.0494 62.2147 17.3866C62.6965 17.5311 63.0337 17.6756 63.5155 17.8202C63.4191 17.1457 63.0337 16.7602 62.5519 16.3266ZM42.6058 6.06453C42.3167 5.77546 42.1722 5.63091 41.9313 5.39002C41.7868 5.63091 41.6422 5.82361 41.4977 6.16087C41.9313 6.11269 42.1722 6.11271 42.6058 6.06453ZM53.8315 27.5524C54.1688 27.4078 54.3615 27.1669 54.3615 26.7333C53.8797 26.8778 53.7834 27.1188 53.8315 27.5524ZM67.2253 26.5406C67.2574 26.5727 67.2895 26.6209 67.3217 26.6851C67.5786 26.4603 67.8356 26.2194 68.0925 25.9624C68.0283 25.9303 67.9801 25.8982 67.948 25.8661C67.691 26.0909 67.4501 26.3158 67.2253 26.5406ZM69.0561 24.9989C69.0561 24.9989 69.04 24.9828 69.0079 24.9507C68.7831 25.1113 68.5582 25.2879 68.3334 25.4806C68.3655 25.5128 68.3977 25.5449 68.4298 25.577C68.6546 25.3843 68.8634 25.1916 69.0561 24.9989ZM76.7166 24.2762C76.6845 24.3404 76.6684 24.4047 76.6684 24.4689C76.7969 24.501 76.9414 24.5492 77.102 24.6135C77.1341 24.5492 77.1502 24.485 77.1502 24.4207C76.9896 24.3886 76.845 24.3404 76.7166 24.2762Z" fill="white"/>
<path id="&#60;Path&#62;" d="M9.74773 35.8873C9.98862 35.8391 10.2295 35.7428 10.4222 35.6946C22.6115 33.382 26.514 26.7333 28.8266 23.9871C29.1639 23.9871 29.2602 24.0834 29.6457 24.228C28.2485 27.1187 25.3577 30.1058 23.2379 31.3585C22.2743 31.8884 21.2625 32.3702 20.2508 32.9002C12.783 36.6581 13.4575 36.1764 9.79589 36.0318C9.79589 35.9997 9.77985 35.9515 9.74773 35.8873Z" fill="white"/>
<path id="&#60;Path&#62;_2" d="M23.9605 35.02C23.7196 35.8872 20.058 37.8144 19.239 38.1998C17.4082 39.067 15.5774 40.0306 13.6502 40.6088C12.7348 40.8979 11.8194 41.1387 10.904 41.4278C10.7595 41.476 10.5668 41.5242 10.4704 41.476C10.3259 41.4278 10.1813 41.2351 10.1331 41.0906C10.1331 40.9942 10.2777 40.8015 10.374 40.7533C10.6631 40.657 10.9522 40.657 11.1931 40.5606C12.9275 40.0788 14.7102 39.6934 16.3964 38.9225C18.5645 37.9107 23.9605 35.02 23.9605 35.02Z" fill="white"/>
<path id="&#60;Path&#62;_3" d="M17.4564 31.3585C17.6009 30.684 18.0827 30.5394 18.42 30.3467C19.1908 29.9131 20.0098 29.5277 20.6843 29.0459C21.7925 28.2751 22.9488 27.456 23.9123 26.5406C24.8759 25.6734 25.0205 25.3843 28.0076 21.9636C28.4412 23.939 21.8888 29.0459 20.1544 30.1541C19.8653 30.395 19.4799 30.4913 19.1426 30.6358C18.6127 30.8767 18.1309 31.0695 17.4564 31.3585Z" fill="white"/>
<path id="&#60;Path&#62;_4" d="M42.3649 42.5842C39.0887 44.8004 43.2803 42.1988 30.2238 50.0038C29.742 50.2447 29.2121 50.5337 28.6821 50.5337C28.4894 50.2928 28.5376 50.052 28.7784 50.0038C31.091 48.992 41.5941 42.777 42.2686 42.4397C42.3007 42.5039 42.3328 42.5521 42.3649 42.5842Z" fill="white"/>
<path id="&#60;Path&#62;_5" d="M36.1498 9.00336C35.8126 8.95518 35.6198 9.05153 35.3308 9.29243C34.4635 9.96693 33.5963 10.6414 32.6809 11.3159C32.44 10.9305 32.6328 10.6896 32.8736 10.5451C34.5117 9.45301 36.1659 8.36099 37.8361 7.26893C38.0288 7.12439 38.2215 6.97982 38.5106 6.93164C38.1733 7.22071 37.7879 7.50981 37.4507 7.79889C37.2098 8.03978 37.017 8.32884 36.8243 8.56974L36.8725 8.52157C36.4871 8.47339 36.2944 8.71429 36.1498 9.00336Z" fill="white"/>
<path id="&#60;Compound Path&#62;_2" fill-rule="evenodd" clip-rule="evenodd" d="M83.2208 20.8073C83.2689 21.8191 82.1126 22.59 81.2454 22.4936C80.6673 22.4454 80.0409 21.4818 80.1373 20.9037C80.1855 20.6146 80.33 20.3256 80.4745 20.0365C80.7636 19.5065 81.5827 19.0729 82.0644 19.1692C82.6908 19.3138 83.1726 19.9883 83.2208 20.8073ZM81.5827 21.1446C82.0644 21.2409 82.2572 21.0964 82.3053 20.7592C82.3696 20.438 82.2411 20.2774 81.9199 20.2774C81.5827 20.2292 81.2936 20.4219 81.2936 20.7592C81.3418 20.9037 81.4863 21.0964 81.5827 21.1446Z" fill="white"/>
<path id="&#60;Path&#62;_6" d="M54.7469 16.0856C54.6988 15.652 54.6024 15.3629 54.6024 15.122L54.8433 10.8823C55.7587 11.1714 55.566 11.7495 55.036 15.652C54.9878 15.7484 54.9396 15.8447 54.7469 16.0856Z" fill="white"/>
<path id="&#60;Path&#62;_7" d="M36.3425 17.9166C36.4389 17.5312 36.6316 17.3866 36.9689 17.6275C37.2098 17.8203 37.4025 18.0129 37.6916 18.2057C42.124 21.0482 41.4013 20.5664 43.2803 21.8673C42.8467 22.5899 42.8949 22.5418 37.3061 18.832C36.9689 18.5911 36.6316 18.2057 36.3425 17.9166Z" fill="white"/>
</g>
</svg>
