<svg width="186" height="233" viewBox="0 0 186 233" fill="none" xmlns="http://www.w3.org/2000/svg">
<g id="&#60;Group&#62;" opacity="0.2">
<path id="&#60;Compound Path&#62;" fill-rule="evenodd" clip-rule="evenodd" d="M100.379 158.714C97.646 156.794 95.1376 155.076 92.7591 153.211C88.6017 150.017 84.704 146.53 80.8614 142.828C78.9025 140.944 76.619 139.427 74.5952 137.616C71.3722 134.733 68.1391 131.708 64.8411 128.757C62.8923 127.014 60.8036 125.276 58.8548 123.532C57.499 122.232 56.1648 120.906 54.8522 119.556C51.2044 115.635 47.6215 111.639 43.8987 107.65C42.3047 105.961 40.5807 104.418 38.8467 102.735C38.472 102.4 38.0323 102.138 37.8624 101.723C37.3626 100.618 36.763 100.081 35.4189 99.9313C34.4296 99.8355 33.4452 98.8231 32.6207 98.0854C30.7451 96.0563 28.9345 93.9538 27.1888 91.7779C26.1195 90.5579 25.2349 88.977 24.2305 87.6836C23.1311 86.042 21.8269 84.4803 20.7925 82.7653C19.6931 81.1237 18.7236 79.3352 18.0989 77.4605C16.9344 73.9187 15.9847 70.4375 15.0251 66.8158C14.7202 65.4904 14.6202 64.0851 14.4552 62.7533C14.3852 62.4276 14.3868 62.1221 14.4601 61.8368C14.7497 59.9908 14.9644 58.0777 15.394 56.2253C16.2181 53.0155 17.9118 50.189 20.4199 47.9596C20.7296 47.7105 21.0177 47.4859 21.2842 47.2858C24.4518 44.4624 28.3191 43.5807 32.5662 44.0916C36.9533 44.5961 40.9357 46.3174 45.048 47.8918C47.5813 48.9744 50.0048 50.485 52.5481 51.7082C54.5119 52.6758 56.4657 53.5029 58.4843 54.2565C62.6067 55.9714 65.6798 58.7212 67.304 62.8059C67.9837 64.4667 69.2479 65.4663 70.7719 66.1721C72.2209 66.8108 73.615 67.6635 75.0092 68.5162C76.918 69.6979 78.8917 70.806 80.8755 72.0547C82.7843 73.2363 84.7031 74.5585 86.5469 75.8136C87.8761 76.7397 89.2701 77.5924 90.5993 78.5186C92.4432 79.7737 94.2321 81.2427 96.086 82.6383C97.5001 83.772 98.9791 84.8324 100.328 86.0396C102.614 87.9089 104.852 89.7804 107.044 91.654C108.094 92.5929 109.068 93.4648 110.042 94.3366C113.2 97.2939 116.294 100.325 119.452 103.282C123.049 106.501 126.712 109.647 130.245 112.94C132.429 115.025 134.483 117.257 136.536 119.49C139.025 122.243 141.445 125.022 143.797 127.829C145.411 129.799 146.96 131.843 148.434 133.82C149.774 135.545 151.134 137.245 152.517 138.92C154.256 141.002 156.02 143.107 157.809 145.234C157.969 145.509 158.204 145.851 158.503 146.119C160.517 147.789 161.807 150.127 163.291 152.244C164.475 154.093 165.4 156.236 167.059 157.852C167.283 158.054 167.443 158.328 167.603 158.603C169.382 161.905 170.817 165.294 171.916 168.909C172.666 171.553 172.501 174.169 171.637 176.817C170.338 180.26 167.765 182.563 165.202 185.006C162.704 187.376 159.571 187.73 156.533 188.433C153.086 189.295 149.918 188.171 146.805 186.833C143.682 185.355 140.494 183.95 137.436 182.397C134.368 180.705 131.355 178.798 128.352 177.032C126.818 176.186 125.359 175.407 123.89 174.487C121.906 173.238 119.987 171.916 118.003 170.667C117.024 170.054 116.041 169.394 115.055 168.687C111.013 166.123 106.895 163.491 102.843 160.786C101.888 160.196 101.054 159.317 100.379 158.714ZM43.0032 94.0865C43.0982 94.4346 43.2581 94.7092 43.1382 94.9967C42.8984 95.5715 42.9934 95.9197 43.4531 96.4626C44.7373 97.7433 45.9666 99.2379 47.1859 100.592C49.7244 103.39 52.2629 106.187 54.8014 108.985C55.411 109.662 56.2905 110.186 56.8251 110.796C58.6541 112.827 60.3531 115.005 62.107 116.969C63.1764 118.189 64.3007 119.195 65.4251 120.201C66.0247 120.738 66.5494 121.207 67.149 121.744C68.4915 122.857 69.8123 123.995 71.1116 125.158C72.5107 126.41 73.9099 127.662 75.309 128.913C77.7925 131.267 80.3509 133.688 82.8994 135.968C84.8382 137.571 86.842 139.101 88.7808 140.704C90.3448 141.972 91.8439 143.314 93.4079 144.581C95.2934 146.093 97.2222 147.556 99.1943 148.97C100.68 150.123 102.212 151.275 103.791 152.425C106.31 154.284 108.948 155.855 111.412 157.928C113.96 160.208 116.703 162.268 119.567 164.04C123.544 166.678 127.706 168.955 131.814 171.446C133.423 172.36 135.162 173.126 137.125 174.094C136.97 172.902 136.91 172.059 136.775 171.149C136.276 168.07 137.27 165.276 138.414 162.615C138.828 161.539 139.598 160.517 140.227 159.501C142.58 156.081 145.478 153.411 150.02 153.133C150.999 153.088 151.979 153.043 153.163 152.918C152.608 152.027 152.278 151.338 151.808 150.654C151.414 150.038 150.879 149.428 150.409 148.744C149.31 147.103 148.21 145.461 147.046 143.893C145.017 141.025 143.063 138.224 140.905 135.503C139.965 134.136 138.756 132.923 137.677 131.562C136.757 130.476 135.773 129.464 134.918 128.305C134.074 127.286 133.434 126.187 132.46 125.315C130.426 123.364 128.262 121.56 126.423 119.388C125.129 117.967 123.705 116.693 122.346 115.345C121.211 114.198 120.152 113.119 119.093 112.039C116.694 109.893 114.435 107.741 112.047 105.735C108.384 102.589 104.517 99.5235 100.724 96.5246C100.049 95.921 99.1699 95.3973 98.4303 94.8672C95.6121 92.7402 92.7939 90.6133 90.0506 88.5534C88.8713 87.7614 87.702 87.1099 86.6627 86.3115C84.2942 84.5869 81.9906 82.7889 79.5571 81.1378C76.4124 79.0257 73.2494 76.985 70.0681 75.0156C68.1593 73.834 66.2056 73.0069 64.2419 72.0392C63.7772 72.4129 63.3126 72.7866 62.9229 73.2273C61.409 74.6358 59.8952 76.0443 57.8466 76.8429C57.0172 77.0217 56.1128 77.1335 55.2934 77.4529C52.8352 78.4112 50.242 78.4592 47.7486 77.9386C46.9642 77.763 46.6294 77.9898 46.3996 78.7052C46.3697 78.9415 46.3613 79.1534 46.3747 79.3407C46.4215 81.3124 46.4466 83.3085 46.4501 85.3291C46.4601 85.4696 46.5451 85.6772 46.4801 85.7506C45.7258 87.9703 45.821 90.2922 44.562 92.3234C44.1923 93.0452 43.9625 93.7607 43.0032 94.0865ZM60.039 63.2789C59.6842 63.2246 59.3944 63.0968 59.2445 62.9627C57.8854 62.2729 56.5512 61.6055 55.2421 60.9604C52.4739 59.536 49.7806 58.1788 47.0124 56.7545C45.9181 56.17 44.8787 55.3716 43.7295 55.0012C40.3467 53.8164 37.0738 52.2036 33.8758 50.658C32.2769 49.8851 30.7829 49.6009 29.169 49.6042C28.6094 49.6297 28.1147 49.5818 27.695 49.601C26.3609 49.5915 25.1767 49.7161 23.8077 50.2016C22.1689 50.8404 21.3946 52.779 19.4459 53.009C19.306 53.0154 19.316 53.1559 19.2511 53.2294C17.6574 55.4874 16.2885 57.9467 16.4986 60.8977C16.6938 64.6248 16.5342 68.2976 18.1284 71.9608C19.3628 74.5126 20.1975 77.3646 21.227 79.9963C21.6618 81.1747 22.3014 82.2734 23.0809 83.3656C24.1703 84.8667 25.3246 86.2942 26.5539 87.7889C28.4678 90.0277 30.3817 92.2664 32.1007 94.7256C32.7304 95.6837 33.4899 96.4949 34.2494 97.3061C35.4587 98.5197 37.2975 98.7176 38.3367 97.5422C39.7006 95.9996 41.4393 94.7924 42.5684 92.908C43.6875 90.8831 43.8172 88.7624 43.3773 86.5268C43.2924 86.3192 43.0675 86.118 42.9076 85.8434C42.6229 86.7728 42.7478 87.5425 42.668 88.392C42.5131 89.1745 42.3683 90.0975 41.9986 90.8193C41.6189 91.4005 41.9138 92.5854 40.5148 92.6493C40.7346 91.7934 40.7495 91.0173 40.9793 90.3019C41.5588 88.5837 41.7185 86.8846 41.3836 85.1376C41.1937 84.4413 41.2086 83.6653 40.8787 82.9754C40.359 81.5893 39.7743 80.2767 38.9847 79.0439C38.505 78.22 37.5206 77.2076 36.811 77.099C35.1122 76.8947 33.6231 75.6939 31.8344 76.1986C31.5646 76.3519 31.1248 76.09 30.825 75.8217C28.5764 73.8097 26.8025 71.5646 25.8928 68.6455C25.7879 68.1568 25.7378 67.4542 25.9127 66.9528C26.1525 66.3779 26.1224 65.9563 25.8026 65.407C24.8231 63.478 25.1328 61.9131 26.4318 60.4439C26.8864 59.9297 27.491 59.5496 27.9456 59.0354C28.2704 58.6681 28.6601 58.2273 29.1147 57.7131C25.6821 57.7995 22.7644 62.1623 23.1793 65.0334C23.3644 66.6463 23.8192 68.1058 24.209 69.6388C24.4739 70.4021 24.7388 71.1654 25.0137 72.0692C23.8945 72.1204 23.7046 71.4241 23.5246 70.8684C22.685 68.933 21.9204 67.0647 21.7703 64.9568C21.7303 64.3947 21.4754 63.7719 21.4354 63.2098C21.4054 62.7883 21.2904 62.1591 21.5402 61.7247C21.9548 60.6484 22.5843 59.6328 23.1389 58.5501C24.9223 55.0145 28.3199 53.4495 32.0624 53.7719C33.1166 53.7943 34.106 53.8901 35.1702 54.0529C36.3095 54.2828 37.5137 54.4393 38.533 54.9566C41.4512 56.5151 44.1645 58.1534 46.9527 59.8588C48.1219 60.5103 49.2262 61.2352 50.3306 61.9601C51.4998 62.6116 52.734 63.1897 53.8383 63.9146C54.5029 64.3777 55.1775 64.9813 55.7771 65.5178C56.2368 66.0607 56.1919 66.4153 55.7822 66.575C54.1832 65.8022 52.7891 64.9495 51.34 64.3107C49.826 63.7455 48.1172 63.4006 46.4733 62.9823C44.8293 62.564 43.7152 63.6722 43.9002 65.2851C43.9402 65.8472 44.2601 66.3965 44.0852 66.8979C43.8005 67.8273 44.1953 68.4437 44.7949 68.9802C45.6294 69.8585 46.4639 70.7367 47.3534 71.401C48.1679 71.9982 49.1872 72.5156 50.1316 72.9659C50.8511 73.215 51.6356 73.3906 52.4301 73.7067C54.2339 74.3997 56.0727 74.5977 57.8114 73.3904C58.7407 72.6431 59.595 71.8286 60.5243 71.0812C60.8491 70.7139 61.1089 70.4201 61.3586 69.9858C62.8125 67.7341 63.2968 63.694 60.5135 61.072C60.1387 60.7366 59.8289 60.3279 59.9937 59.6859C61.5427 59.7562 62.572 60.414 63.4365 61.7138C64.2361 63.0871 65.1656 64.3135 65.6304 65.9135C65.7003 64.9235 65.985 63.9941 65.4303 63.103C64.171 61.1868 62.7169 59.491 60.8081 58.3093C57.5152 56.4155 54.2223 54.5218 50.7445 52.9889C45.8826 50.7438 40.9009 48.7862 35.6794 47.4035C33.176 46.7424 30.6827 46.2219 28.1295 46.832C27.0952 47.0908 26.0609 47.3495 25.3465 48.1575C25.7113 48.3523 26.046 48.1255 26.3908 48.0393C28.4144 47.8764 30.353 47.5058 32.4916 47.972C35.3497 48.6873 38.0229 49.7636 40.7712 50.9069C43.1546 51.8553 45.7329 52.5834 47.9864 53.6788C50.165 54.7071 52.0189 56.1028 53.9377 57.4249C55.1819 58.1435 56.3612 58.9355 57.2706 59.8808C58.1151 60.8996 58.8847 61.8513 60.0439 62.3623C60.1189 62.4293 60.0839 62.9244 60.039 63.2789ZM116.464 164.816C116.377 164.914 116.269 165.037 116.139 165.184C115.185 164.593 114.24 164.143 113.351 163.478C109.963 161.236 106.65 159.062 103.337 156.887C102.058 156.005 100.782 155.171 99.5095 154.383C98.2553 153.524 96.7963 152.745 95.542 151.886C94.1279 150.752 92.7038 149.477 91.3546 148.27C87.9917 145.393 84.6288 142.515 81.3308 139.564C78.3975 136.808 75.5192 133.838 72.651 131.009C68.4202 126.784 64.1894 122.56 59.9586 118.336C56.9337 115.279 53.9089 112.221 50.8841 109.164C50.7342 109.03 50.6492 108.822 50.4344 108.762C48.8754 108.551 48.2257 107.312 47.2413 106.299C45.3374 104.201 43.5635 101.956 41.3349 100.225C40.1556 99.4329 39.8008 99.3786 38.4718 100.426C38.9316 100.969 39.3263 101.586 39.851 102.055C41.9698 104.214 44.2284 106.366 46.3471 108.525C48.7007 111.026 50.9344 113.814 53.363 116.382C54.967 118.212 56.711 120.035 58.5099 121.645C61.518 124.468 64.6561 127.144 67.7293 129.894C68.4788 130.565 69.2933 131.162 70.0429 131.833C72.7312 134.107 75.3546 136.454 77.978 138.801C79.3921 139.935 80.8062 141.069 82.1554 142.276C84.3291 144.221 86.2979 146.246 88.4716 148.191C91.8345 151.068 95.3923 153.725 99.015 156.309C100.344 157.235 101.628 158.516 103.033 159.509C106.57 161.885 110.238 164.114 113.916 166.484C116.339 167.994 118.698 169.578 121.186 171.015C122.58 171.868 124.029 172.507 125.413 173.219C125.407 173.125 125.447 173.029 125.533 172.931C124.591 172.176 123.648 171.42 122.705 170.664C123.115 170.504 123.255 170.498 123.405 170.632C124.724 171.418 126.043 172.203 127.362 172.989C128.691 173.915 129.816 174.921 131.2 175.633C132.959 176.681 134.837 177.441 136.586 178.348C138.335 179.255 139.964 180.449 141.768 181.142C144.301 182.225 146.815 183.026 149.403 183.895C150.692 184.259 152.121 184.617 153.4 184.84C155.314 185.105 157.228 185.37 158.826 184.169C159.496 183.716 160.11 183.476 160.875 183.371C162.059 183.246 163.008 182.78 163.638 181.764C164.018 181.183 164.547 180.736 164.852 180.087C165.546 178.998 166.306 177.836 166.71 176.619C167.435 173.978 167.664 171.289 167.194 168.631C167.174 168.35 167.219 167.996 167.199 167.715C167.336 167.662 167.451 167.633 167.544 167.629C167.854 168.037 168.229 168.373 168.399 168.788C168.579 169.344 168.619 169.906 168.659 170.468C168.509 172.307 168.424 174.073 168.339 175.84C168.249 176.549 168.159 177.258 168.07 177.967C169.673 175.849 170.063 173.435 170.013 170.758C169.988 169.42 169.888 168.015 169.303 166.702C168.143 164.218 166.649 161.96 165.21 159.488C165.2 159.347 164.91 159.219 164.76 159.085C164.311 158.683 163.796 158.354 163.346 157.952C161.632 156.55 159.863 155.361 157.8 154.962C156.371 154.605 154.897 154.602 153.553 154.451C153.273 154.464 153.068 154.544 152.723 154.63C153.453 155.02 154.162 155.129 154.872 155.237C156.226 155.528 157.645 155.745 158.769 156.751C159.619 157.511 160.422 158.273 161.178 159.037C162.162 160.05 162.942 161.142 163.786 162.161C164.246 162.704 164.211 163.199 163.402 163.659C163.007 163.042 162.557 162.64 162.237 162.091C161.278 160.443 160.049 158.948 158.105 158.261C156.516 157.629 154.722 157.077 153.068 156.518C150.265 155.589 147.797 156.406 145.368 157.786C143.08 159.159 142.056 161.532 140.367 163.442C140.053 163.95 139.878 164.452 139.638 165.026C138.549 167.473 138.589 170.009 139.264 172.586C139.599 174.333 140.398 175.706 142.072 176.546C143.431 177.236 144.766 177.904 146.075 178.549C146.215 178.542 146.419 178.462 146.634 178.523C145.31 176.68 143.921 174.911 142.811 173.129C140.818 169.766 139.039 166.464 141.576 162.682C141.62 162.633 141.638 162.562 141.631 162.468C142.241 161.172 143.31 160.418 144.604 159.865C145.079 159.632 145.563 159.539 146.013 159.942C145.554 161.373 143.475 161.75 144.045 163.838C144.37 163.471 144.639 163.318 144.834 163.097C146.543 161.468 148.347 160.188 150.865 160.073C151.145 160.06 151.424 160.047 151.554 159.9C152.559 159.22 153.483 159.389 154.492 159.766C155.996 160.191 157.575 160.682 158.959 161.395C159.989 162.052 161.103 162.918 161.808 163.943C162.757 165.451 163.577 167.105 164.117 168.772C165.146 171.404 165.056 174.086 163.902 176.606C162.519 179.842 160.085 182.138 156.948 183.409C155.449 184.042 153.855 184.326 152.116 183.559C150.277 182.704 148.392 181.85 146.46 180.998C144.796 180.299 143.197 179.526 141.718 178.466C140.314 177.473 138.78 176.626 137.246 175.78C135.711 174.934 134.187 174.228 132.718 173.308C129.061 171.22 125.328 169.064 121.725 166.761C119.077 165.049 116.364 163.411 113.91 161.479C110.857 159.01 107.944 156.535 104.631 154.36C101.178 152.192 97.9652 149.449 94.6972 146.919C92.6185 145.322 90.6697 143.579 88.656 141.908C84.7917 138.889 80.974 135.868 77.203 132.845C77.7477 133.595 78.3674 134.413 79.1169 135.084C80.9358 136.974 82.8097 138.651 84.6186 140.401C86.3525 142.084 88.0865 143.767 90.2751 144.936C91.4443 145.588 92.5686 146.594 93.618 147.532C95.0321 148.666 96.3164 149.947 97.6655 151.154C100.804 153.83 104.396 155.992 107.719 158.308C110.321 160.022 112.879 161.785 115.394 163.596C115.769 163.932 116.154 164.408 116.464 164.816ZM156.031 151.801C155.821 150.823 155.686 149.913 155.336 148.942C154.561 146.933 153.647 144.931 152.183 143.094C150.099 140.441 148.145 137.64 145.921 134.992C143.697 132.345 141.539 129.624 139.315 126.976C137.091 124.328 134.673 121.901 132.244 119.334C131.485 118.522 130.725 117.711 129.966 116.9C127.172 114.137 124.389 111.515 121.596 108.753C119.252 106.393 116.834 103.966 114.1 102.046C113.014 101.25 111.95 100.429 110.907 99.584C109.493 98.4502 108.134 97.1025 106.72 95.9687C105.381 94.9021 103.986 94.0494 102.712 92.9093C101.063 91.4338 99.4792 89.8849 97.8302 88.4094C96.4061 87.1352 94.907 85.7939 93.298 84.8805C90.7346 83.3763 88.4311 81.5782 86.1925 79.7067C84.6185 78.2983 82.8495 77.1104 81.1556 75.9894C79.3967 74.9419 77.6479 74.0349 75.824 73.0608C73.6354 71.892 71.5118 70.6497 69.1833 69.4873C68.1639 68.9699 66.8598 69.382 66.2303 70.3976C66.8666 70.7915 67.5029 71.1853 68.1392 71.5792C70.2728 72.962 72.4164 74.4854 74.6251 75.9353C76.8337 77.3852 79.0972 78.6211 81.2409 80.1445C84.4988 82.5333 87.8318 84.9892 91.0898 87.378C93.0935 88.9078 95.0323 90.511 97.101 91.9673C98.0654 92.6986 99.2996 93.2766 100.274 94.1485C102.887 96.3553 105.641 98.5557 108.459 100.683C109.938 101.743 111.287 102.95 112.701 104.084C113.891 105.016 115.2 105.662 116.259 106.741C119.032 109.223 121.676 111.851 123.995 114.847C125.064 116.067 126.208 117.354 127.343 118.5C129.087 120.324 131.035 122.067 132.714 123.964C135.388 127.014 137.921 130.071 140.52 133.054C142.049 134.817 143.578 136.579 144.912 138.563C146.002 140.064 147.231 141.558 148.395 143.127C149.964 145.452 151.533 147.777 153.038 150.175C153.817 151.267 154.632 151.864 156.031 151.801ZM158.28 163.681C156.556 162.139 154.657 161.098 152.354 161.273C151.375 161.318 150.405 161.503 149.436 161.689C148.682 161.935 148.002 162.248 147.333 162.701C145.324 164.062 144.785 166.342 143.955 168.495C143.835 168.782 143.93 169.13 144.025 169.478C144.322 170.358 144.618 171.237 144.915 172.116C145.924 174.467 147.808 176.284 149.013 178.414C150.142 180.478 151.991 180.816 153.84 181.155C154.119 181.142 154.399 181.129 154.614 181.19C157.872 181.605 160.355 180.011 161.479 177.069C161.599 176.782 161.784 176.421 162.044 176.127C163.148 174.878 163.682 173.515 163.067 171.781C162.878 171.084 162.818 170.241 162.553 169.478C162.288 168.715 162.023 167.951 161.563 167.408C160.484 166.048 159.349 164.901 158.28 163.681ZM38.2395 69.5617C38.2395 69.5617 38.2611 69.5372 38.3044 69.4882C38.3044 69.4882 38.2828 69.5127 38.2395 69.5617ZM38.4992 69.2679C39.7133 67.5911 41.0022 65.9814 41.122 63.7202C41.3716 61.3121 40.1973 59.6035 37.8538 59.2171C37.3309 59.1 36.8079 58.9829 36.2849 58.8658C34.5111 58.5944 33.0771 59.1534 32.2078 60.7439C32.0779 60.8908 31.9481 61.0377 31.8182 61.1847C30.3192 61.8171 29.7097 63.1138 29.1852 64.618C28.5608 66.6908 28.8958 68.4378 29.8652 70.2263C30.8247 71.8742 32.7984 72.9824 34.2973 72.35C35.6564 71.724 37.0804 71.0245 38.2395 69.5617C38.3044 69.4882 38.3693 69.4148 38.4992 69.2679ZM33.7929 74.1353C34.3925 74.6718 35.187 74.988 35.8416 75.3105C37.0658 75.748 38.29 76.1855 39.1145 76.9233C40.2488 78.0698 41.1883 79.4367 42.0528 80.7366C42.9173 82.0364 43.6419 83.3426 44.3665 84.6489C44.5031 84.5956 44.618 84.5669 44.7113 84.5626C44.8561 83.6396 44.936 82.7901 45.0808 81.8671C45.5353 79.3791 45.1703 77.2106 43.0166 75.5467C42.8667 75.4126 42.6419 75.2113 42.492 75.0772C41.4426 74.1383 40.3716 73.2238 39.279 72.3339C38.9042 71.9985 38.6044 71.7303 38.5294 71.6632C36.8357 72.516 35.3468 73.2889 33.7929 74.1353ZM42.0367 67.6964C41.657 68.2777 41.5371 68.5652 41.4172 68.8526C41.2573 69.2359 41.0975 69.6191 40.9376 70.0023C40.4031 71.3661 40.638 71.7079 41.8922 72.5669C42.6217 72.9566 43.4262 73.4132 43.6811 74.036C44.2658 75.3486 45.2951 76.0065 45.9897 76.8912C47.7135 76.46 49.2224 75.9681 51.0112 75.4634C47.4934 73.3684 44.2555 71.2606 42.0367 67.6964ZM94.1773 83.4304C91.1992 81.0288 88.3509 78.4803 84.5633 76.5386C84.8731 76.9474 84.9481 77.0145 85.023 77.0815C87.0368 78.7518 89.1805 80.2752 91.1942 81.9454C92.0937 82.7502 93.0381 83.2005 94.1773 83.4304ZM98 86.8508C100.344 89.2109 102.622 91.6446 105.54 93.203C103.197 90.8429 100.918 88.4093 98 86.8508ZM70.1822 125.905C71.8913 128.224 72.4909 128.76 73.5552 128.923C72.3559 127.85 71.3066 126.911 70.1822 125.905ZM75.8538 131.638C75.8971 131.589 75.9404 131.54 75.9837 131.491C75.4274 130.905 74.8744 130.367 74.3247 129.875C74.2814 129.924 74.2165 129.997 74.1299 130.095C74.6796 130.587 75.2542 131.101 75.8538 131.638ZM128.002 113.959C128.002 113.959 128.023 113.934 128.067 113.885C127.717 113.572 127.392 113.281 127.092 113.013C127.049 113.062 127.027 113.087 127.027 113.087C127.327 113.355 127.652 113.646 128.002 113.959ZM111.022 98.2394C110.979 98.2884 110.957 98.3129 110.957 98.3129C111.164 98.5854 111.392 98.8334 111.642 99.057C111.685 99.008 111.728 98.9591 111.772 98.9101C111.522 98.6865 111.272 98.463 111.022 98.2394ZM26.8216 61.9769C26.7284 61.9811 26.6567 61.9609 26.6067 61.9162C26.4336 62.1121 26.2853 62.3303 26.1621 62.5709C26.2121 62.6156 26.2621 62.6604 26.312 62.7051C26.4852 62.5092 26.6551 62.2664 26.8216 61.9769Z" fill="#101828"/>
</g>
</svg>
