<svg width="36" height="36" viewBox="0 0 36 36" fill="none" xmlns="http://www.w3.org/2000/svg">
<g id="ep:arrow-up">
<path id="Vector" d="M17.1855 23.8953L5.23796 11.356C5.03851 11.1468 4.92725 10.8688 4.92725 10.5798C4.92725 10.2907 5.03851 10.0128 5.23796 9.80354L5.25146 9.79004C5.34815 9.68826 5.46453 9.60721 5.59353 9.55183C5.72253 9.49645 5.86145 9.46789 6.00184 9.46789C6.14222 9.46789 6.28114 9.49645 6.41014 9.55183C6.53914 9.60721 6.65552 9.68826 6.75221 9.79004L18.0022 21.598L29.2477 9.79004C29.3444 9.68826 29.4608 9.60721 29.5898 9.55183C29.7188 9.49645 29.8577 9.46789 29.9981 9.46789C30.1385 9.46789 30.2774 9.49645 30.4064 9.55183C30.5354 9.60721 30.6518 9.68826 30.7485 9.79004L30.762 9.80354C30.9614 10.0128 31.0727 10.2907 31.0727 10.5798C31.0727 10.8688 30.9614 11.1468 30.762 11.356L18.8145 23.8953C18.7094 24.0056 18.583 24.0934 18.443 24.1533C18.303 24.2133 18.1523 24.2443 18 24.2443C17.8476 24.2443 17.6969 24.2133 17.5569 24.1533C17.4169 24.0934 17.2905 24.0056 17.1855 23.8953Z" fill="black"/>
</g>
</svg>
