<svg width="22" height="22" viewBox="0 0 22 22" fill="none" xmlns="http://www.w3.org/2000/svg">
  <g id="Group 1667">
    <path id="Star 1"
      d="M10.0914 1.97656C10.4483 1.20012 11.5517 1.20012 11.9086 1.97656L13.8625 6.22715C14.0082 6.54398 14.3083 6.76207 14.6547 6.80267L19.301 7.34748C20.1498 7.44699 20.4907 8.49635 19.8626 9.07573L16.4238 12.2475C16.1675 12.484 16.0528 12.8368 16.1213 13.1788L17.0389 17.7661C17.2065 18.604 16.3139 19.2525 15.5688 18.8342L11.4896 16.5439C11.1855 16.3732 10.8145 16.3732 10.5104 16.5439L6.43123 18.8342C5.68609 19.2525 4.79346 18.604 4.96108 17.7661L5.87875 13.1788C5.94715 12.8368 5.8325 12.484 5.57618 12.2475L2.13743 9.07573C1.50928 8.49635 1.85024 7.44699 2.69897 7.34748L7.34532 6.80267C7.69165 6.76207 7.99182 6.54398 8.13746 6.22715L10.0914 1.97656Z"
      fill="#289017" />
  </g>
</svg>