<svg width="30" height="30" viewBox="0 0 30 30" fill="none" xmlns="http://www.w3.org/2000/svg">
<g id="basil:vk-solid">
<path id="Vector" d="M26.88 22.9763H24.0275C22.9487 22.9763 22.6238 22.1026 20.69 20.1676C19 18.5388 18.2862 18.3363 17.8587 18.3363C17.2675 18.3363 17.1063 18.4988 17.1063 19.3126V21.8776C17.1063 22.5713 16.8813 22.9776 15.0688 22.9776C13.3104 22.8594 11.6052 22.3252 10.0937 21.419C8.58222 20.5128 7.30766 19.2604 6.375 17.7651C4.16048 15.0088 2.61963 11.7739 1.875 8.31755C1.875 7.89005 2.0375 7.50255 2.8525 7.50255H5.7025C6.435 7.50255 6.69875 7.8288 6.98625 8.58255C8.37 12.6551 10.7312 16.1976 11.69 16.1976C12.0575 16.1976 12.2175 16.0351 12.2175 15.1188V10.9238C12.0963 9.01005 11.08 8.8488 11.08 8.1563C11.0929 7.9736 11.1764 7.80311 11.313 7.68104C11.4495 7.55897 11.6283 7.49494 11.8113 7.50255H16.2913C16.9038 7.50255 17.1063 7.80755 17.1063 8.54005V14.2026C17.1063 14.8138 17.3688 15.0163 17.5538 15.0163C17.9212 15.0163 18.2038 14.8138 18.8775 14.1413C20.3217 12.38 21.5016 10.4178 22.38 8.3163C22.4699 8.06399 22.6399 7.84802 22.864 7.70132C23.0881 7.55463 23.354 7.48526 23.6213 7.5038H26.4725C27.3275 7.5038 27.5087 7.9313 27.3275 8.5413C26.2905 10.8643 25.0073 13.0694 23.5 15.1188C23.1925 15.5876 23.07 15.8313 23.5 16.3813C23.7825 16.8088 24.7825 17.6438 25.4538 18.4376C26.4313 19.4126 27.2425 20.5401 27.8563 21.7751C28.1012 22.5701 27.6938 22.9763 26.88 22.9763Z" fill="#796E5E"/>
</g>
</svg>
