<svg width="60" height="60" viewBox="0 0 60 60" fill="none" xmlns="http://www.w3.org/2000/svg">
<g id="&#208;&#145;&#208;&#181;&#208;&#183; &#208;&#189;&#208;&#176;&#208;&#183;&#208;&#178;&#208;&#176;&#208;&#189;&#208;&#184;&#209;&#143; (68) 1">
<path id="Vector" d="M59.0909 32.0909C59 31.6363 58.4545 31.3636 58 31.4545C55.8181 32.0909 53 32.4545 52 31.1818C50.3636 28.8182 54.1818 21.5454 56.9091 17.5454C59.1818 14.3636 58.0909 11.0909 55.5454 9.2727C56.7272 7.81816 56.6363 5.72725 55.2727 4.36361C53.8181 2.90907 51.4545 2.90907 50 4.36361C49.5454 4.81816 48.8181 6.2727 48 7.90907C41.7272 8.36361 33.9091 11.2727 28.6363 13.4545C28.1818 13.5454 28 14.0909 28.1818 14.5454C28.3636 15 28.9091 15.2727 29.3636 15C35.3636 12.5454 42 10.3636 47.0909 9.72725C46.3636 11.4545 45.7272 13 45.4545 13.6363L3.90906 55.2727C3.54542 55.6363 3.54542 56.1818 3.90906 56.5454C4.27269 56.9091 4.81815 56.9091 5.18178 56.5454L46.8181 14.9091C47.7272 14.3636 51.9091 11.9091 54.0909 10.4545C56.1818 11.6363 57.1818 14 55.4545 16.4545C54.6363 17.6363 47.5454 28 50.5454 32.1818C52.1818 34.4545 55.8182 33.9091 58.4545 33.1818C58.9091 33 59.1818 32.5454 59.0909 32.0909ZM53.9091 5.54543C54.6363 6.27271 54.6363 7.45452 53.9091 8.1818L53.8181 8.27271C52.7272 7.90907 51.4545 7.72725 50 7.63634C50.5454 6.54543 51 5.72725 51.2727 5.45452C52 4.81816 53.1818 4.81816 53.9091 5.54543ZM48.0909 12L49.1818 9.54543C50.1818 9.54543 51.0909 9.54543 51.8181 9.63634C50.7272 10.4545 49.3636 11.2727 48.0909 12ZM13.4545 25.9091C13.9091 26.1818 14.4545 26 14.7272 25.6363C15.2727 24.7273 16 23.8182 16.8181 22.9091L19 25.2727C19.3636 25.6363 19.9091 25.6363 20.2727 25.3636C20.6363 25 20.6363 24.4545 20.3636 24.0909L18.1818 21.6363C19.2727 20.6363 20.5454 19.7273 22 18.8182C22.4545 18.5454 22.5454 18 22.2727 17.5454C22 17.0909 21.4545 17 21 17.2727C19.4545 18.2727 18.0909 19.2727 16.9091 20.2727L15.1818 18.3636C14.8181 18 14.2727 18 13.9091 18.2727C13.5454 18.6363 13.5454 19.1818 13.8181 19.5454L15.5454 21.4545C14.5454 22.4545 13.7272 23.5454 13.0909 24.6363C12.9091 25.0909 13 25.6363 13.4545 25.9091ZM6.99997 31.1818C6.63633 30.8182 6.09088 30.8182 5.72724 31.1818C5.3636 31.5454 5.3636 32.0909 5.72724 32.4545L7.72724 34.5454L5.63633 36.6363C5.27269 37 5.27269 37.5454 5.63633 37.9091C5.99997 38.2727 6.54542 38.2727 6.90906 37.9091L8.99997 35.8182L11.0909 37.9091C11.4545 38.2727 12 38.2727 12.3636 37.9091C12.7272 37.5454 12.7272 37 12.3636 36.6363L10.3636 34.5454L12.4545 32.4545C12.8181 32.0909 12.8181 31.5454 12.4545 31.1818C12.0909 30.8182 11.5454 30.8182 11.1818 31.1818L9.09088 33.2727L6.99997 31.1818ZM41.2727 48.6363C40.9091 48.2727 40.3636 48.2727 40 48.6363L37.9091 50.7273L35.8181 48.6363C35.4545 48.2727 34.9091 48.2727 34.5454 48.6363C34.1818 49 34.1818 49.5454 34.5454 49.9091L36.6363 52L34.5454 54.0909C34.1818 54.4545 34.1818 55 34.5454 55.3636C34.7272 55.5454 35 55.6363 35.1818 55.6363C35.4545 55.6363 35.6363 55.5454 35.8181 55.3636L37.9091 53.2727L40 55.3636C40.1818 55.5454 40.4545 55.6363 40.6363 55.6363C40.9091 55.6363 41.0909 55.5454 41.2727 55.3636C41.6363 55 41.6363 54.4545 41.2727 54.0909L39.1818 52L41.2727 49.9091C41.6363 49.5454 41.6363 49 41.2727 48.6363ZM6.63633 16.5454C6.99997 16.9091 7.54542 16.9091 7.90906 16.5454C8.27269 16.1818 8.27269 15.6363 7.90906 15.2727L5.81815 13.1818L7.90906 11.0909C8.27269 10.7273 8.27269 10.1818 7.90906 9.81816C7.54542 9.45452 6.99997 9.45452 6.63633 9.81816L4.54542 11.9091L2.45451 9.81816C2.09088 9.45452 1.54542 9.45452 1.18178 9.81816C0.818149 10.1818 0.818149 10.7273 1.18178 11.0909L3.27269 13.1818L1.18178 15.2727C0.818149 15.6363 0.818149 16.1818 1.18178 16.5454C1.54542 16.9091 2.09088 16.9091 2.45451 16.5454L4.54542 14.4545L6.63633 16.5454Z" fill="#CBB79B"/>
</g>
</svg>
