<svg width="12" height="12" viewBox="0 0 12 12" fill="none" xmlns="http://www.w3.org/2000/svg">
<g id="ep:arrow-up">
<path id="Vector" d="M5.7285 7.96497L1.746 3.78522C1.67951 3.71548 1.64243 3.62283 1.64243 3.52647C1.64243 3.43012 1.67951 3.33747 1.746 3.26772L1.7505 3.26322C1.78273 3.2293 1.82152 3.20228 1.86452 3.18382C1.90752 3.16536 1.95383 3.15584 2.00062 3.15584C2.04742 3.15584 2.09372 3.16536 2.13672 3.18382C2.17972 3.20228 2.21852 3.2293 2.25075 3.26322L6.00075 7.19922L9.74925 3.26322C9.78148 3.2293 9.82027 3.20228 9.86327 3.18382C9.90627 3.16536 9.95258 3.15584 9.99937 3.15584C10.0462 3.15584 10.0925 3.16536 10.1355 3.18382C10.1785 3.20228 10.2173 3.2293 10.2495 3.26322L10.254 3.26772C10.3205 3.33747 10.3576 3.43012 10.3576 3.52647C10.3576 3.62283 10.3205 3.71548 10.254 3.78522L6.2715 7.96497C6.23647 8.00173 6.19435 8.031 6.14768 8.05099C6.10101 8.07099 6.05077 8.0813 6 8.0813C5.94922 8.0813 5.89898 8.07099 5.85231 8.05099C5.80564 8.031 5.76352 8.00173 5.7285 7.96497Z" fill="black"/>
</g>
</svg>
