<svg width="30" height="30" viewBox="0 0 30 30" fill="none" xmlns="http://www.w3.org/2000/svg">
<g id="ri:instagram-fill">
<path id="Vector" d="M16.285 2.5C17.6912 2.50375 18.405 2.51125 19.0212 2.52875L19.2637 2.5375C19.5437 2.5475 19.82 2.56 20.1537 2.575C21.4837 2.6375 22.3912 2.8475 23.1875 3.15625C24.0125 3.47375 24.7075 3.90375 25.4025 4.5975C26.0381 5.22237 26.5299 5.97824 26.8437 6.8125C27.1525 7.60875 27.3625 8.51625 27.425 9.8475C27.44 10.18 27.4525 10.4563 27.4625 10.7375L27.47 10.98C27.4887 11.595 27.4962 12.3088 27.4987 13.715L27.5 14.6475V16.285C27.5031 17.1968 27.4935 18.1085 27.4712 19.02L27.4637 19.2625C27.4537 19.5437 27.4412 19.82 27.4262 20.1525C27.3637 21.4837 27.1512 22.39 26.8437 23.1875C26.5308 24.0222 26.0389 24.7783 25.4025 25.4025C24.7775 26.0379 24.0216 26.5297 23.1875 26.8438C22.3912 27.1525 21.4837 27.3625 20.1537 27.425C19.8571 27.439 19.5605 27.4515 19.2637 27.4625L19.0212 27.47C18.405 27.4875 17.6912 27.4963 16.285 27.4988L15.3525 27.5H13.7162C12.8041 27.5031 11.8919 27.4936 10.98 27.4712L10.7375 27.4638C10.4408 27.4525 10.1441 27.4396 9.8475 27.425C8.5175 27.3625 7.61 27.1525 6.8125 26.8438C5.97833 26.5305 5.22277 26.0386 4.59875 25.4025C3.96255 24.7779 3.47028 24.0219 3.15625 23.1875C2.8475 22.3912 2.6375 21.4837 2.575 20.1525C2.56107 19.8559 2.54857 19.5592 2.5375 19.2625L2.53125 19.02C2.50821 18.1085 2.49779 17.1968 2.5 16.285V13.715C2.49651 12.8033 2.50568 11.8915 2.5275 10.98L2.53625 10.7375C2.54625 10.4563 2.55875 10.18 2.57375 9.8475C2.63625 8.51625 2.84625 7.61 3.155 6.8125C3.46889 5.97738 3.96215 5.22128 4.6 4.5975C5.22386 3.96184 5.97893 3.46998 6.8125 3.15625C7.61 2.8475 8.51625 2.6375 9.8475 2.575C10.18 2.56 10.4575 2.5475 10.7375 2.5375L10.98 2.53C11.8915 2.50779 12.8032 2.49821 13.715 2.50125L16.285 2.5ZM15 8.75C13.3424 8.75 11.7527 9.40848 10.5806 10.5806C9.40848 11.7527 8.75 13.3424 8.75 15C8.75 16.6576 9.40848 18.2473 10.5806 19.4194C11.7527 20.5915 13.3424 21.25 15 21.25C16.6576 21.25 18.2473 20.5915 19.4194 19.4194C20.5915 18.2473 21.25 16.6576 21.25 15C21.25 13.3424 20.5915 11.7527 19.4194 10.5806C18.2473 9.40848 16.6576 8.75 15 8.75ZM15 11.25C15.4925 11.2499 15.9801 11.3468 16.4351 11.5352C16.8901 11.7236 17.3036 11.9997 17.6518 12.3479C18.0001 12.6961 18.2764 13.1094 18.4649 13.5644C18.6535 14.0193 18.7505 14.5069 18.7506 14.9994C18.7507 15.4918 18.6538 15.9795 18.4654 16.4345C18.277 16.8895 18.0009 17.3029 17.6527 17.6512C17.3046 17.9995 16.8912 18.2758 16.4363 18.4643C15.9813 18.6528 15.4937 18.7499 15.0012 18.75C14.0067 18.75 13.0529 18.3549 12.3496 17.6517C11.6463 16.9484 11.2512 15.9946 11.2512 15C11.2512 14.0054 11.6463 13.0516 12.3496 12.3483C13.0529 11.6451 14.0067 11.25 15.0012 11.25H15ZM21.5625 6.875C21.1481 6.875 20.7507 7.03962 20.4576 7.33265C20.1646 7.62567 20 8.0231 20 8.4375C20 8.8519 20.1646 9.24933 20.4576 9.54235C20.7507 9.83538 21.1481 10 21.5625 10C21.9769 10 22.3743 9.83538 22.6674 9.54235C22.9604 9.24933 23.125 8.8519 23.125 8.4375C23.125 8.0231 22.9604 7.62567 22.6674 7.33265C22.3743 7.03962 21.9769 6.875 21.5625 6.875Z" fill="#796E5E"/>
</g>
</svg>
