<svg width="30" height="30" viewBox="0 0 30 30" fill="none" xmlns="http://www.w3.org/2000/svg">
<g id="basil:vk-solid">
<path id="Vector" d="M26.88 22.9764H24.0275C22.9487 22.9764 22.6238 22.1027 20.69 20.1677C19 18.5389 18.2862 18.3364 17.8587 18.3364C17.2675 18.3364 17.1063 18.4989 17.1063 19.3127V21.8777C17.1063 22.5714 16.8813 22.9777 15.0688 22.9777C13.3104 22.8595 11.6052 22.3254 10.0937 21.4191C8.58222 20.5129 7.30766 19.2605 6.375 17.7652C4.16048 15.009 2.61963 11.774 1.875 8.31767C1.875 7.89017 2.0375 7.50267 2.8525 7.50267H5.7025C6.435 7.50267 6.69875 7.82892 6.98625 8.58267C8.37 12.6552 10.7312 16.1977 11.69 16.1977C12.0575 16.1977 12.2175 16.0352 12.2175 15.1189V10.9239C12.0963 9.01017 11.08 8.84892 11.08 8.15642C11.0929 7.97372 11.1764 7.80323 11.313 7.68116C11.4495 7.55909 11.6283 7.49506 11.8113 7.50267H16.2913C16.9038 7.50267 17.1063 7.80767 17.1063 8.54017V14.2027C17.1063 14.8139 17.3688 15.0164 17.5538 15.0164C17.9212 15.0164 18.2038 14.8139 18.8775 14.1414C20.3217 12.3802 21.5016 10.4179 22.38 8.31642C22.4699 8.06411 22.6399 7.84814 22.864 7.70144C23.0881 7.55475 23.354 7.48538 23.6213 7.50392H26.4725C27.3275 7.50392 27.5087 7.93142 27.3275 8.54142C26.2905 10.8644 25.0073 13.0696 23.5 15.1189C23.1925 15.5877 23.07 15.8314 23.5 16.3814C23.7825 16.8089 24.7825 17.6439 25.4538 18.4377C26.4313 19.4127 27.2425 20.5402 27.8563 21.7752C28.1012 22.5702 27.6938 22.9764 26.88 22.9764Z" fill="white"/>
</g>
</svg>
