<svg width="30" height="30" viewBox="0 0 30 30" fill="none" xmlns="http://www.w3.org/2000/svg">
<g id="ri:whatsapp-fill">
<path id="Vector" d="M15.0012 2.5C21.905 2.5 27.5012 8.09625 27.5012 15C27.5012 21.9037 21.905 27.5 15.0012 27.5C12.7922 27.5036 10.6221 26.919 8.71374 25.8063L2.50624 27.5L4.19624 21.29C3.0826 19.3811 2.49755 17.21 2.50124 15C2.50124 8.09625 8.09749 2.5 15.0012 2.5ZM10.7412 9.125L10.4912 9.135C10.3294 9.14486 10.1712 9.18738 10.0262 9.26C9.89064 9.33679 9.76686 9.43278 9.65874 9.545C9.50874 9.68625 9.42374 9.80875 9.33249 9.9275C8.87014 10.5286 8.6212 11.2666 8.62499 12.025C8.62749 12.6375 8.78749 13.2338 9.03749 13.7913C9.54874 14.9187 10.39 16.1125 11.5 17.2188C11.7675 17.485 12.03 17.7525 12.3125 18.0013C13.6917 19.2156 15.3353 20.0913 17.1125 20.5588L17.8225 20.6675C18.0537 20.68 18.285 20.6625 18.5175 20.6512C18.8815 20.6325 19.237 20.5339 19.5587 20.3625C19.7224 20.2782 19.8822 20.1864 20.0375 20.0875C20.0375 20.0875 20.0912 20.0525 20.1937 19.975C20.3625 19.85 20.4662 19.7612 20.6062 19.615C20.71 19.5075 20.8 19.3813 20.8687 19.2375C20.9662 19.0338 21.0637 18.645 21.1037 18.3212C21.1337 18.0737 21.125 17.9388 21.1212 17.855C21.1162 17.7213 21.005 17.5825 20.8837 17.5238L20.1562 17.1975C20.1562 17.1975 19.0687 16.7238 18.4037 16.4213C18.3342 16.3909 18.2596 16.3735 18.1837 16.37C18.0982 16.3612 18.0118 16.3708 17.9303 16.3982C17.8488 16.4256 17.7741 16.4701 17.7112 16.5287C17.705 16.5262 17.6212 16.5975 16.7175 17.6925C16.6656 17.7622 16.5942 17.8149 16.5122 17.8438C16.4303 17.8728 16.3416 17.8767 16.2575 17.855C16.1761 17.8332 16.0963 17.8056 16.0187 17.7725C15.8637 17.7075 15.81 17.6825 15.7037 17.6375C14.9863 17.3244 14.3221 16.9014 13.735 16.3838C13.5775 16.2463 13.4312 16.0962 13.2812 15.9513C12.7895 15.4803 12.3609 14.9475 12.0062 14.3663L11.9325 14.2475C11.8795 14.1677 11.8367 14.0816 11.805 13.9913C11.7575 13.8075 11.8812 13.66 11.8812 13.66C11.8812 13.66 12.185 13.3275 12.3262 13.1475C12.4637 12.9725 12.58 12.8025 12.655 12.6813C12.8025 12.4438 12.8487 12.2 12.7712 12.0113C12.4212 11.1562 12.0587 10.305 11.6862 9.46C11.6125 9.2925 11.3937 9.1725 11.195 9.14875C11.1275 9.14125 11.06 9.13375 10.9925 9.12875C10.8246 9.12041 10.6564 9.12208 10.4887 9.13375L10.74 9.12375L10.7412 9.125Z" fill="white"/>
</g>
</svg>
