<svg width="105" height="158" viewBox="0 0 105 158" fill="none" xmlns="http://www.w3.org/2000/svg">
<g id="&#60;Group&#62;">
<path id="&#60;Compound Path&#62;" fill-rule="evenodd" clip-rule="evenodd" d="M52.8544 61.2595C53.2049 61.855 53.6234 62.4579 53.9202 63.1173C54.0927 63.4844 54.1556 63.9268 54.2404 64.3542C54.311 64.7103 54.3379 65.0966 54.3867 65.4678C54.5089 66.5439 54.1003 67.58 53.6578 68.6125C53.3086 69.446 53.0152 70.2681 52.9714 71.1345C52.9662 71.1921 52.9683 71.2446 52.9777 71.2921C53.0602 71.8469 53.1499 72.3968 53.247 72.9417C53.3099 73.3841 53.5601 73.7248 53.8322 74.0504C54.2104 74.4921 54.5666 74.9488 55.0006 75.3791C55.1066 75.4951 55.3441 75.5208 55.5159 75.5917C55.7095 75.6475 55.9032 75.7032 56.0969 75.759C56.5761 75.9154 57.0433 76.0531 57.4787 76.2396C57.8922 76.4411 58.3333 76.4888 58.7821 76.4502C59.3328 76.4227 59.8912 76.3088 60.4397 76.2287C60.7189 76.1718 60.9981 76.1149 61.2872 76.0242C62.1008 75.8159 62.9144 75.6077 63.7279 75.3995C64.1846 75.2746 64.6652 75.1872 65.1098 75.0436C65.5884 74.9037 66.0648 74.7113 66.5073 74.5152C67.5379 74.1039 68.4985 73.6328 69.5693 73.3827C70.3052 73.2009 71.0389 72.9666 71.7584 72.6611C72.2448 72.4349 72.6972 72.205 73.1955 71.9975C73.4167 71.8995 73.662 71.8389 73.8953 71.7596C74.1504 71.6652 74.5498 71.7955 74.682 72.0015C74.8 72.1362 74.9082 72.3047 74.9824 72.4696C75.1046 72.7093 75.3202 72.7501 75.5655 72.6895C75.9005 72.6212 76.2356 72.5528 76.5685 72.432C77.1128 72.2469 77.6231 72.0582 78.1434 71.8357C78.3208 71.7677 78.4862 71.6811 78.6615 71.5606C78.7711 71.4854 78.8785 71.3576 78.9181 71.2225C79.0072 70.9185 78.9506 70.6335 78.4721 70.7735C78.1272 70.8755 77.7822 70.9776 77.4252 71.061C77.2917 71.0988 77.122 71.0805 76.9743 71.0471C76.9064 71.0397 76.8464 70.9461 76.8541 70.8598C76.8739 70.7923 76.9375 70.6946 77.0153 70.6682C77.7525 70.2426 78.54 69.9444 79.3295 69.6987C79.6745 69.5966 80.0512 69.4457 80.4061 69.3099C81.0879 69.0932 81.7698 68.8765 82.4517 68.6599C83.2598 68.4104 84.072 68.1671 84.8882 67.9302C85.4226 67.7789 85.981 67.665 86.5054 67.5475C86.5493 67.5174 86.6171 67.5247 86.639 67.5096C87.0052 67.0962 87.5042 67.185 87.9368 67.0227C88.1142 66.9548 88.3037 66.9056 88.4931 66.8564C88.872 66.7579 89.2607 66.6257 89.6537 66.5985C90.2482 66.5409 90.8504 66.3969 91.4548 66.3054C92.5358 66.1203 93.6208 65.9414 94.7098 65.7688C94.9671 65.7269 95.2286 65.7901 95.4958 65.7144C95.9963 65.5594 96.4416 65.7122 96.8947 65.7786C97.687 65.8817 98.4914 66.0035 99.2838 66.1067C99.7927 66.1617 100.238 66.3144 100.61 66.5986C101.085 66.9462 101.571 67.2601 102.047 67.6078C102.327 67.8472 102.585 68.1016 102.843 68.356C103.007 68.5131 103.171 68.6703 103.269 68.8726C103.429 69.221 103.59 69.5694 103.629 69.9744C103.673 70.2406 103.62 70.6007 103.497 70.9011C103.259 71.4155 102.316 71.7666 101.847 71.5764C101.767 71.5503 101.697 71.4905 101.617 71.4644C101.213 71.2291 100.832 70.9787 100.44 70.7621C99.9587 70.5533 99.42 70.5995 98.868 70.8709C98.8242 70.901 98.7803 70.9311 98.7485 70.98C98.5994 71.1904 98.4622 71.4195 98.3131 71.6299C98.1639 71.8403 98.27 71.9563 98.3541 72.0873C98.4721 72.2221 98.6036 72.1317 98.7471 72.0601C99.1896 71.864 99.5013 72.0546 99.4525 72.5198C99.4303 72.7149 99.4082 72.9099 99.386 73.105C99.3408 73.3789 99.1916 73.5893 98.9287 73.77C98.2713 74.2216 97.5694 74.4071 96.859 74.3825C96.2724 74.3539 95.7337 74.4002 95.1633 74.4953C94.8575 74.5436 94.5578 74.6506 94.2642 74.8163C93.9892 74.9782 93.6782 75.084 93.3693 75.2423C93.1634 75.3478 92.9622 75.477 92.7657 75.63C92.3712 75.901 91.9888 76.1907 91.6064 76.4804C90.811 77.0449 90.0115 77.6032 89.2081 78.1552C89.0547 78.2606 88.8313 78.3061 88.6899 78.4302C88.2418 78.7651 87.8177 79.1374 87.3596 79.5061C87.2282 79.5964 87.0988 79.7392 86.9652 79.7771C86.4329 79.9809 86.0329 80.3906 85.6066 80.7105C84.9174 81.2109 84.2643 81.7676 83.549 82.1781C83.4712 82.2045 83.4394 82.2534 83.3836 82.2648C82.6357 82.4278 82.1423 83.0366 81.5168 83.4394C81.21 83.6502 80.9294 83.9509 80.5985 84.1242C80.3674 84.256 80.2183 84.4664 79.9991 84.617C79.7508 84.7876 79.5065 84.9645 79.2661 85.1476C79.0324 85.3082 78.7986 85.4687 78.5649 85.6293C78.3239 85.7949 78.0708 85.9418 77.8298 86.1074C77.5888 86.273 77.3816 86.4423 77.1406 86.6079C76.3298 87.1649 75.495 87.6845 74.6843 88.2415C74.1047 88.6667 73.5109 89.0207 72.9051 89.356C72.8613 89.3861 72.8248 89.4112 72.7956 89.4312C71.22 90.5677 69.5723 91.5918 67.9847 92.7095C67.5026 93.0407 66.9986 93.387 66.4946 93.7332C66.0126 94.0645 65.5065 94.3582 65.0463 94.6744C63.5774 95.6655 62.1126 96.6629 60.6518 97.6666C58.9718 98.8208 57.2958 99.9812 55.6239 101.148C55.0542 101.539 54.4866 101.983 53.8928 102.337C53.4645 102.605 53.0962 102.966 52.7039 103.289C52.6308 103.339 52.5578 103.389 52.4847 103.44C51.7835 103.921 51.079 104.414 50.3712 104.919C50.1302 105.084 49.8892 105.25 49.6481 105.415C48.7424 106.038 47.8327 106.654 46.9189 107.263C46.7875 107.354 46.6101 107.422 46.4546 107.475C46.4107 107.505 46.3549 107.516 46.3111 107.546C46.082 107.731 45.8311 107.93 45.5901 108.096C45.0741 108.423 44.546 108.732 44.03 109.059C43.8208 109.176 43.6356 109.33 43.4744 109.522C43.3253 109.732 43.1062 109.883 42.909 110.019C42.2954 110.44 41.6917 110.828 41.0881 111.216C40.8131 111.377 40.5382 111.539 40.2512 111.683C40.2074 111.713 40.1416 111.758 40.1197 111.773C39.7557 112.239 39.2354 112.461 38.7392 112.721C38.2988 112.97 37.8344 113.181 37.4683 113.595C37.2753 113.835 36.9763 113.96 36.7013 114.122C35.8394 114.714 34.9735 115.3 34.1036 115.879C34.0379 115.924 33.9941 115.955 33.9163 115.981C33.6195 116.158 33.3226 116.335 33.1098 116.643C32.9826 116.838 32.7634 116.989 32.5443 117.139C32.1937 117.38 31.947 117.685 31.7823 118.068C31.7757 118.09 31.7545 118.123 31.7187 118.165C31.4183 118.534 31.3016 118.991 31.127 119.408C30.8513 120.11 30.4597 120.73 29.7804 121.197C29.649 121.287 29.4836 121.374 29.3719 121.396C28.923 121.435 28.5576 121.308 28.2339 121.099C27.9681 120.931 28.0134 120.657 28.306 120.375C28.4255 120.266 28.535 120.191 28.4608 120.026C28.3986 119.88 28.3244 119.715 28.0911 119.794C27.8239 119.87 27.5645 119.859 27.3214 119.972C27.0683 120.119 26.8414 120.356 26.7064 120.638C26.5516 120.987 26.4646 121.343 26.5233 121.681C26.5742 122.104 26.6031 122.543 26.654 122.967C26.7169 123.409 26.5402 123.774 26.114 124.093C25.4806 124.582 24.9137 124.486 24.438 124.139C24.1723 123.971 23.9263 123.735 23.7362 123.488C23.5941 123.316 23.5178 123.098 23.4195 122.896C23.2789 122.48 23.1382 122.064 23.0414 121.618C22.9064 121.063 22.7933 120.493 22.6682 119.905C22.5672 119.354 22.7354 118.779 22.8697 118.201C23.111 117.298 23.3523 116.395 23.5936 115.492C23.6311 115.304 23.6347 115.113 23.8538 114.962C23.9633 114.887 24.0128 114.718 24.0524 114.583C24.4115 113.716 24.9205 112.935 25.4174 112.134C25.7454 111.612 26.1073 111.094 26.4452 110.538C26.6778 110.162 26.8743 109.731 27.0948 109.336C27.1782 109.171 27.2956 109.009 27.4249 108.867C27.7802 108.371 28.1469 107.876 28.5248 107.383C28.5665 107.3 28.6521 107.187 28.7079 107.176C28.9751 107.1 29.0126 106.913 29.1398 106.717C29.5017 106.199 29.8877 105.718 30.2616 105.218C30.8464 104.456 31.4279 103.706 32.0062 102.967C32.2064 102.722 32.3994 102.481 32.5851 102.246C33.2637 101.483 33.9083 100.716 34.565 99.9681C34.8676 99.6524 35.1941 99.374 35.4868 99.092C35.672 98.9378 35.8536 98.9749 35.8402 99.2C35.8564 99.3237 35.8169 99.4588 35.7532 99.5565C35.5843 99.8344 35.3694 100.09 35.1764 100.33C35.1406 100.373 35.1088 100.422 35.081 100.477C34.8343 100.781 34.8166 100.901 34.9566 101.021C35.1446 101.216 35.4598 101.215 35.6988 100.997C36.0571 100.67 36.4035 100.324 36.7159 99.9742C36.9966 99.6735 37.2531 99.3354 37.5218 99.0159C37.661 98.8393 37.8102 98.6289 37.9035 98.4299C38.0088 98.2496 38.0682 98.047 37.9042 97.8898C37.8441 97.7962 37.8279 97.6725 37.724 97.609C37.4342 97.4034 37.4653 97.0582 37.5543 96.7542C37.6137 96.5516 37.8088 96.3636 37.9481 96.1869C38.2944 95.8411 38.5949 95.4728 38.9532 95.1456C39.911 94.3257 40.579 93.3002 41.329 92.3532C41.5538 92.0639 41.8365 91.8157 42.0953 91.53C42.7958 90.752 43.5903 90.0712 44.1749 89.2109C44.7715 88.3694 45.438 87.5877 46.0106 86.7087C46.6249 85.747 47.3749 84.8001 47.7255 83.7228C47.8839 83.1824 47.9623 82.6158 47.997 82.0794C48.0387 81.1604 48.0126 80.2341 47.9985 79.3265C47.9914 78.8727 47.9066 78.4453 47.8656 77.9878C47.8303 77.3916 47.8289 76.799 47.7936 76.2027C47.7625 75.7115 47.6975 75.2166 47.6664 74.7253C47.6332 74.1816 47.6898 73.6301 47.882 73.0933C47.9534 72.9093 47.9231 72.7144 47.9824 72.5117C48.0199 72.3241 48.0574 72.1365 48.1288 71.9525C48.2702 71.5496 48.4268 71.1542 48.5989 70.7662C48.7855 70.3682 48.982 69.9364 49.2146 69.5608C49.4252 69.2002 49.564 68.8261 49.6309 68.4384C49.8204 67.5528 49.9978 66.6485 49.918 65.786C49.8283 64.9573 49.6388 64.1702 49.1745 63.5449C48.7942 63.0508 48.3482 62.6018 47.8803 62.1678C47.5643 61.8723 47.0872 61.7684 46.6023 61.7508C46.2871 61.7516 46.0015 61.651 45.6863 61.6517C45.1674 61.6305 44.6168 61.658 44.0888 61.9669C43.7481 62.174 43.4074 62.3811 43.1727 62.7042C43.119 62.7681 43.0893 62.8694 43.0356 62.9333C43.0158 63.0008 42.9741 63.0835 42.9302 63.1136C42.721 63.2303 42.6595 63.3805 42.5881 63.5645C42.4703 63.8073 42.3565 64.0563 42.2467 64.3116C42.2368 64.3454 42.2608 64.3829 42.229 64.4317C41.7575 65.0254 41.8706 65.5952 41.9618 66.1801C42.0303 66.4837 42.1328 66.791 42.2233 67.0796C42.3708 67.5719 42.5182 68.0641 42.6657 68.5563C42.73 68.7549 42.8502 68.9422 42.8926 69.1559C42.9717 69.722 42.5363 70.3719 41.9503 70.6396C41.8174 70.6949 41.6812 70.7615 41.5418 70.8394C41.2887 70.9862 41.0554 71.0656 40.7642 71.1038C39.9323 71.1358 39.3887 70.7807 38.9823 70.1966C38.4437 69.4065 38.1144 68.4997 38.0183 67.5135C37.9695 67.1423 37.9766 66.7597 37.9957 66.3959C38.0006 65.9608 38.0056 65.5257 38.0226 65.1094C38.048 64.903 38.0735 64.6967 38.1329 64.494C38.2396 64.0699 38.3923 63.6683 38.4991 63.2442C38.6412 62.58 39.0808 62.0351 39.5205 61.4902C39.9722 60.9641 40.4698 60.4603 40.9675 59.9565C41.0431 59.8776 41.0968 59.8137 41.1845 59.7535C42.1288 59.1586 43.1092 58.6199 44.1561 58.3324C44.824 58.1433 45.5083 58.0778 46.1805 57.9937C46.7749 57.936 47.3595 57.9121 47.9122 57.9371C48.5208 57.9506 49.0898 58.0993 49.627 58.2968C50.9191 58.785 51.7235 59.7432 52.496 60.7503C52.6041 60.9188 52.7342 61.0723 52.8544 61.2595ZM74.2473 72.1113C73.9228 72.4421 73.5736 72.4392 73.2626 72.545C72.0186 72.968 70.7724 73.3385 69.5283 73.7616C69.006 73.9316 68.4836 74.1016 67.9733 74.2904C67.2417 74.5772 66.5582 74.9389 65.8244 75.1732C65.025 75.4526 64.2213 75.6271 63.4198 75.854C62.6182 76.081 61.8166 76.3079 61.0052 76.5687C60.3492 76.7765 59.7053 77.0031 59.0288 76.9822C58.5319 76.9459 58.0011 76.9059 57.4724 76.9184C56.8758 76.9236 56.3089 76.8275 55.7399 76.6788C55.2387 76.5375 54.7058 76.445 54.2343 76.2023C53.4632 75.7878 52.931 75.1553 52.6178 74.3722C52.4454 74.005 52.3387 73.5927 52.232 73.1804C52.0729 72.5882 51.892 72.011 52.0122 71.3619C52.0574 71.088 52.0688 70.8104 52.126 70.5552C52.1713 70.2813 52.2285 70.0262 52.3296 69.7409C52.5636 69.1215 52.8315 68.5057 53.0655 67.8863C53.1468 67.6686 53.1941 67.4472 53.2874 67.2482C53.6529 66.5384 53.783 65.8555 53.6975 65.1319C53.677 64.9031 53.6883 64.6256 53.6339 64.3931C53.6092 64.0594 53.5505 63.722 53.4141 63.411C53.1413 62.7891 52.8246 62.1972 52.508 61.6054C52.2656 61.1784 52.0132 60.7852 51.6075 60.4974C51.4916 60.4152 51.3757 60.3329 51.2817 60.2356C50.8915 59.7752 50.4059 59.4614 49.8546 59.1926C49.4411 58.9911 49.0396 58.8083 48.6381 58.6254C47.7574 58.2862 46.794 58.4086 45.8164 58.4597C45.4793 58.4755 45.1103 58.5401 44.7413 58.6048C44.4282 58.658 44.115 58.7113 43.7941 58.8508C43.1085 59.16 42.3868 59.413 41.7414 59.8834C41.4785 60.0641 41.2276 60.2634 41.0007 60.5003C40.503 61.004 40.0414 61.564 39.5558 62.0865C39.1897 62.4999 38.9394 62.9956 38.8129 63.4872C38.6687 64.0989 38.5923 64.718 38.482 65.3333C38.4841 65.3858 38.4863 65.4383 38.4884 65.4908C38.4672 65.8022 38.4459 66.1135 38.4587 66.4285C38.5102 67.1485 38.4841 67.895 38.747 68.5507C38.8254 68.8205 38.9159 69.1091 39.0163 69.3639C39.1809 69.8173 39.463 70.1092 39.9641 70.2505C40.3055 70.3397 40.6427 70.3239 40.9558 70.2707C41.4704 70.1869 42.096 69.7841 41.8889 69.117C41.8026 68.9334 41.7942 68.7234 41.72 68.5586C41.515 67.944 41.2782 67.3782 41.0733 66.7636C40.8845 66.2727 40.8393 65.7102 41.0076 65.136C41.1956 64.4942 41.4614 63.8259 41.865 63.2249C42.1195 62.8342 42.398 62.481 42.8165 62.2475C43.0257 62.1307 43.189 61.9915 43.3862 61.856C43.8584 61.5586 44.3327 61.3137 44.8692 61.2149C45.5053 61.0746 46.1238 61.0543 46.7267 61.2067C47.3855 61.3476 48.0563 61.5073 48.5362 61.96C48.8062 62.2331 49.0225 62.5702 49.2268 62.8885C49.501 63.2666 49.7534 63.6598 49.9279 64.0795C50.3471 64.9786 50.3774 66.0099 50.2622 67.0604C50.2035 67.5594 50.0671 68.0848 49.9405 68.5764C49.8613 68.8466 49.7702 69.0981 49.657 69.3647C49.1191 70.5437 48.4794 71.7116 48.2369 72.9574C48.087 73.7079 47.993 74.447 48.0785 75.1706C48.1598 75.7893 48.1732 76.4006 48.1986 77.0307C48.2099 77.5895 48.1872 78.1446 48.2982 78.6619C48.429 79.1117 48.5039 79.5728 48.5569 80.049C48.6664 80.8101 48.6303 81.5903 48.5045 82.3783C48.2464 83.7966 47.5912 85.1371 46.7422 86.4219C46.2113 87.2182 45.5547 87.9662 45.0019 88.7776C44.4272 89.6042 43.7147 90.3635 43.012 91.089C42.5462 91.544 42.1023 91.9838 41.6944 92.4799C40.7494 93.6148 39.8403 94.8059 38.9073 95.9596C38.5849 96.3429 38.2725 96.6925 37.9063 97.1059C38.0145 97.2745 38.1028 97.5105 38.2569 97.7014C38.4831 98.0047 38.394 98.3087 38.2053 98.6542C37.7303 99.4392 37.1033 100.086 36.5003 100.77C36.2635 101.04 35.9787 101.236 35.7058 101.451C35.5086 101.586 35.3291 101.602 35.1354 101.546C34.6703 101.461 34.3805 101.255 34.483 100.726C34.483 100.726 34.471 100.707 34.459 100.689C34.3713 100.749 34.2497 100.805 34.1741 100.884C33.9446 101.15 33.7158 101.433 33.4877 101.733C32.5966 102.903 31.7135 104.086 30.8384 105.28C30.2934 106.006 29.7604 106.749 29.1935 107.49C28.8295 107.956 28.4195 108.399 28.0674 108.884C27.5783 109.598 27.1011 110.33 26.6339 111.029C26.103 111.825 25.5602 112.603 25.2689 113.478C25.2392 113.579 25.1876 113.695 25.1021 113.808C24.6016 114.799 24.2029 115.802 23.8841 116.83C23.7357 117.337 23.643 117.832 23.6402 118.32C23.6614 118.845 23.6607 119.385 23.7038 119.895C23.6967 120.277 23.7235 120.664 23.7843 121.054C23.8691 121.481 24.0098 121.897 24.1504 122.313C24.2911 122.729 24.4875 123.133 24.9109 123.301C25.3244 123.503 25.7379 123.704 26.2836 123.275C26.2653 123.099 26.2808 122.927 26.2405 122.765C26.1034 122.158 25.9444 121.566 26.2321 120.883C26.4385 120.417 26.4972 119.918 26.9772 119.534C27.3377 119.26 27.6883 119.019 28.123 118.909C28.2127 118.901 28.3463 118.863 28.422 118.785C28.651 118.6 28.8326 118.637 29.0284 118.746C29.1783 118.832 29.338 118.884 29.4879 118.97C29.5699 119.048 29.6639 119.145 29.702 119.254C29.8766 119.674 29.6702 120.139 29.2221 120.474C29.1125 120.549 28.9351 120.617 28.9534 120.794C29.4207 120.931 29.7197 120.807 30.0759 120.427C30.5297 119.953 30.6421 119.391 30.7545 118.828C30.7821 118.674 30.8316 118.505 30.7913 118.344C30.6584 117.842 30.809 117.387 31.289 117.004C31.3646 116.925 31.4523 116.864 31.5279 116.786C32.5472 115.815 33.6725 114.961 34.8219 114.145C35.4792 113.693 36.2066 113.301 36.8979 112.853C37.3361 112.552 37.7405 112.247 38.1667 111.928C38.4655 111.704 38.7755 111.482 39.0969 111.262C39.5012 110.957 39.8837 110.667 40.3 110.381C41.045 109.869 41.7801 109.391 42.5153 108.913C43.1448 108.516 43.7671 108.125 44.3821 107.738C44.9306 107.379 45.4831 107.027 46.0397 106.68C46.5882 106.322 47.1407 105.969 47.6972 105.623C47.9503 105.476 48.2154 105.348 48.4564 105.182C49.1894 104.651 49.9224 104.121 50.6554 103.59C50.8965 103.425 51.1375 103.259 51.3665 103.075C51.5298 102.935 51.6691 102.759 51.8663 102.623C52.5116 102.153 53.157 101.683 53.8363 101.216C53.9532 101.136 54.07 101.055 54.1869 100.975C54.669 100.644 55.155 100.319 55.6451 100C55.689 99.9701 55.7208 99.9212 55.7427 99.9062C56.2127 99.5563 56.6609 99.2214 57.143 98.8902C57.5275 98.653 57.97 98.4569 58.3785 98.2571C59.1497 97.8352 59.899 97.4284 60.562 96.8379C60.779 96.6349 61.0081 96.4505 61.2272 96.3C62.3016 95.5798 63.3687 94.8646 64.4285 94.1545C65.0421 93.733 65.6337 93.3265 66.2614 92.9762C66.624 92.754 66.9506 92.4757 67.3231 92.2198C67.7826 91.8861 68.2533 91.5537 68.7354 91.2225C68.8669 91.1322 69.0104 91.0606 69.1418 90.9702C70.0304 90.3868 70.9189 89.8033 71.8293 89.2048C73.2171 88.2513 74.6049 87.2978 75.9927 86.3443C76.8035 85.7873 77.6142 85.2303 78.3769 84.5984C78.7353 84.2712 79.1418 84.0189 79.5242 83.7292C80.072 83.3529 80.5979 82.9915 81.1118 82.6115C81.6037 82.2465 82.0618 81.8779 82.5318 81.5279C83.0358 81.1817 83.5639 80.8729 84.0099 80.4855C84.7726 79.8536 85.6194 79.3527 86.4422 78.8144C87.0677 78.4116 87.7053 78.0275 88.3309 77.6247C89.3608 76.9171 90.4246 76.2132 91.4305 75.4682C92.4702 74.7268 93.6804 74.3001 94.7322 73.5775C95.0729 73.3704 95.3761 73.3509 95.7076 73.4739C95.9373 73.5859 96.1254 73.7804 96.4307 73.8135C96.9856 73.8909 97.5305 74.0021 98.1406 73.7719C98.6389 73.5644 98.8955 73.2262 98.7987 72.7801C98.6672 72.8705 98.5237 72.9421 98.3922 73.0324C97.8444 73.4088 97.0994 73.0842 97.0485 72.6605C97.0181 72.4656 97.0097 72.2556 97.0132 72.0643C97.0047 71.8543 97.0443 71.7192 97.2535 71.6024C97.3631 71.5271 97.4486 71.4144 97.5123 71.3167C98.0375 70.6591 98.639 70.2189 99.4632 70.2731C99.5529 70.2654 99.6427 70.2577 99.7445 70.2687C100.106 70.2904 100.499 70.2632 100.81 70.4537C101.122 70.6442 101.424 70.8685 101.736 71.0591C101.852 71.1413 102.011 71.1934 102.149 71.2606C102.476 70.9823 102.657 70.7231 102.664 70.3405C102.703 69.9091 102.676 69.5228 102.382 69.2122C102.216 69.0201 102.044 68.833 101.864 68.6509C101.3 68.0672 100.572 67.6226 99.7835 67.3282C98.5932 66.8509 97.3392 66.4714 95.9326 66.4935C95.2124 66.5027 94.5076 66.3394 93.7499 66.5362C93.1477 66.6802 92.5511 66.6854 92.0153 67.0805C91.9715 67.1106 91.9156 67.122 91.8598 67.1333C91.5752 67.149 91.2978 67.1597 91.0278 67.1653C90.1619 67.1937 89.2939 67.1695 88.4146 67.4229C87.9022 67.5591 87.4038 67.7666 86.8914 67.9029C85.3441 68.3454 83.7728 68.7505 82.2135 69.1743C81.2005 69.4655 80.1657 69.7717 79.1429 70.0967C79.0312 70.1195 78.9337 70.2135 78.7902 70.2851C78.916 70.3336 78.986 70.3934 79.0878 70.4044C79.2595 70.4753 79.3217 70.6214 79.374 70.8013C79.4412 71.3487 79.2425 71.728 78.6905 71.9994C78.3038 72.1841 77.9151 72.3163 77.5383 72.4672C77.4572 72.5049 77.3649 72.5414 77.2612 72.5766C76.7488 72.7129 76.2144 72.8642 75.692 73.0342C75.1357 73.2006 74.8021 73.0251 74.5816 72.583C74.5074 72.4182 74.3674 72.2985 74.2473 72.1113Z" fill="white"/>
<path id="&#60;Compound Path&#62;_2" fill-rule="evenodd" clip-rule="evenodd" d="M94.4055 73.5367C93.9355 73.8553 93.4206 74.1524 92.974 74.507C91.9878 75.3574 90.8844 76.0274 89.8416 76.8382C89.1717 77.3702 88.4102 77.8085 87.7168 78.3045C87.3226 78.5977 86.9615 78.8944 86.5673 79.1876C85.9847 79.6172 85.3943 80.0347 84.796 80.4402C84.1027 80.9362 83.3859 81.3961 82.6926 81.8921C82.1798 82.2397 81.6788 82.6053 81.1447 82.9673C80.3445 83.5357 79.5444 84.1041 78.7442 84.6725C77.7835 85.341 76.8149 85.9976 75.8386 86.6421C75.5395 86.8449 75.2383 86.9971 74.9275 87.1818C74.1445 87.6347 73.3499 88.0695 72.5904 88.5583C72.0232 88.9169 71.4698 89.3439 70.926 89.7385C70.2566 90.1923 69.5943 90.6413 68.9391 91.0854C68.2009 91.5598 67.4511 92.0162 66.7247 92.5086C65.2057 93.4863 63.6984 94.4821 62.1912 95.4779C61.3889 95.9957 60.5867 96.5136 59.7962 97.0494C59.2835 97.397 58.8058 97.7987 58.2834 98.1788C57.7824 98.5444 57.26 98.9245 56.7472 99.2721C55.9567 99.808 55.1683 100.394 54.364 100.862C53.4198 101.398 52.6141 102.1 51.7285 102.726C51.1634 103.135 50.6451 103.616 50.0586 104.04C48.938 104.826 47.8153 105.561 46.6712 106.31C46.1584 106.658 45.6457 107.005 45.1308 107.302C43.9399 107.98 42.8992 108.841 41.7552 109.591C41.2346 109.926 40.703 110.261 40.1604 110.594C39.6242 110.905 39.0666 111.231 38.5422 111.561C38.0391 111.876 37.5263 112.224 37.0349 112.557C36.2968 113.031 35.5586 113.506 34.8205 113.98C34.3601 114.266 33.9328 114.556 33.4725 114.842C33.2588 114.987 33.0314 115.063 32.8391 115.193C31.9728 115.754 31.1182 116.334 30.2401 116.877C29.7584 117.178 29.2649 117.46 28.7088 117.552C28.5999 117.573 28.522 117.548 28.4345 117.556C28.347 117.563 28.2381 117.585 28.1622 117.61C28.0437 117.665 27.9741 117.842 27.828 117.759C27.7033 117.662 27.6095 117.518 27.6343 117.319C27.6536 117.254 27.6281 117.167 27.6357 117.084C27.7005 116.521 27.7771 115.976 27.8536 115.431C27.8708 115.315 27.9521 115.156 28.0238 115.029C28.2912 114.589 28.58 114.133 28.8688 113.678C29.0335 113.41 29.1652 113.139 29.3513 112.857C29.6821 112.356 30.0311 111.851 30.3982 111.342C30.8152 110.8 31.2321 110.258 31.6491 109.715C32.0952 109.171 32.5446 108.615 32.9972 108.049C33.521 107.434 34.0117 106.815 34.5141 106.215C34.7333 105.937 35.0207 105.716 35.2729 105.441C35.4942 105.213 35.7133 104.935 35.9559 104.692C36.3686 104.222 36.789 103.764 37.2172 103.318C37.353 103.148 37.5005 102.996 37.6693 102.83C38.2358 102.186 38.7789 101.506 39.3785 100.866C39.9354 100.255 40.5702 99.6689 41.1718 99.0792C41.5192 98.7139 41.8879 98.3341 42.2567 97.9543C43.1747 97.0464 44.1141 96.1239 45.0652 95.2195C45.8688 94.467 46.7172 93.7361 47.5325 93.0016C48.3361 92.2491 49.2059 91.5037 49.9295 90.6756C50.1818 90.4007 50.4575 90.1619 50.7331 89.9231C51.1039 89.5938 51.3755 89.2539 51.6567 88.8815C51.9282 88.5416 52.0888 88.1731 52.1171 87.7904C52.1433 87.3571 52.1812 86.9419 52.2074 86.5086C52.2322 86.31 52.2784 86.0969 52.3577 85.8874C52.5452 85.3707 52.6003 84.8399 52.9318 84.3555C53.4088 83.6687 53.9753 83.0249 54.6686 82.529C54.9347 82.3227 55.2806 82.192 55.6149 82.0434C56.2503 81.7425 56.9305 81.4631 57.6094 81.4185C57.872 81.3963 58.0822 81.4356 58.3351 81.4459C58.5218 81.4491 58.7086 81.4524 58.8857 81.4881C59.2283 81.5416 59.5377 81.5915 59.8395 81.7245C60.231 81.9006 60.6631 81.9972 61.0952 82.0938C61.2062 82.1225 61.3599 82.1222 61.5018 82.1039C62.0463 81.9945 62.5673 81.849 63.0842 81.6025C63.6983 81.3161 64.3027 81.0622 64.9285 80.7938C65.4959 80.5303 66.0594 80.2609 66.619 79.9854C67.2292 79.693 67.8322 79.4054 68.4282 79.1226C68.6108 79.0248 68.8148 78.9124 69.0091 78.8326C70.1661 78.3081 71.323 77.7835 72.4799 77.2589C73.6226 76.744 74.7556 76.2616 75.8886 75.7793C76.7301 75.4166 77.5716 75.0539 78.4503 74.7958C79.1774 74.5886 79.8887 74.2623 80.602 73.9865C81.2512 73.7542 81.879 73.5363 82.5282 73.304C82.8742 73.1733 83.2202 73.0427 83.5544 72.894C84.5572 72.448 85.5875 72.139 86.6296 71.8482C87.1389 71.6847 87.6482 71.5212 88.1575 71.3578C88.3169 71.3189 88.4764 71.2801 88.6358 71.2413C88.9838 71.1612 89.3319 71.0811 89.6992 70.9359C90.0879 70.7763 90.4904 70.6853 90.8929 70.5942C91.3829 70.4958 91.8825 70.3648 92.3843 70.2844C93.1796 70.1348 93.9535 69.9997 94.7082 69.9296C95.0583 69.9 95.4125 69.9715 95.7454 70.0575C96.1561 70.1686 96.5572 70.3122 96.9583 70.4558C97.0596 70.517 97.1396 70.5926 97.2098 70.7008C97.2684 70.7909 97.2512 70.9065 97.1113 70.9753C96.9169 71.0552 96.857 71.1997 96.8087 71.3622C96.7081 71.5863 96.5413 71.8032 96.3297 71.9986C95.7494 72.5737 95.0657 73.0372 94.4055 73.5367ZM57.9485 98.0423C58.5777 97.5898 59.2283 97.1228 59.8693 96.6883C60.6054 96.1634 61.3414 95.6384 62.0892 95.1315C63.1264 94.4544 64.1637 93.7772 65.2126 93.1181C65.5972 92.8574 65.9817 92.5967 66.378 92.3541C67.2347 91.8253 68.07 91.311 68.9149 90.7642C69.5035 90.3912 70.09 89.9676 70.6765 89.5441C71.9874 88.5776 73.3899 87.7048 74.8179 86.9185C75.29 86.6504 75.729 86.3788 76.1894 86.0927C76.574 85.832 76.9468 85.5533 77.3314 85.2926C77.545 85.1478 77.7704 85.021 77.9723 84.8581C79.1143 84.058 80.2232 83.2544 81.3535 82.4362C82.0799 81.9438 82.8063 81.4514 83.5328 80.959C84.2805 80.4521 85.0166 79.9272 85.7526 79.4022C86.5314 78.8483 87.3199 78.2619 88.1083 77.6755C88.2889 77.5272 88.5143 77.4004 88.7065 77.27C89.2193 76.9224 89.7107 76.5893 90.2021 76.2562C90.7245 75.8761 91.2352 75.478 91.7459 75.0799C91.9453 74.9447 92.1408 74.8035 92.3324 74.6563C92.7519 74.3546 93.1604 74.0518 93.5578 73.7478C93.8355 73.5595 94.0919 73.3857 94.3579 73.1794C94.5289 73.0635 94.6998 72.9476 94.859 72.8138C95.2842 72.4736 95.7308 72.1189 96.1326 71.7426C96.3442 71.5473 96.4641 71.2582 96.5648 71.0342C96.6847 70.7452 96.6165 70.6875 96.3498 70.6086C96.2719 70.5835 96.1609 70.5549 96.083 70.5297C95.4697 70.2963 94.8101 70.276 94.1141 70.4362C93.4511 70.6 92.7881 70.7637 92.1499 70.7289C92.0624 70.7363 91.9866 70.7617 91.9108 70.7871C90.5797 71.17 89.2526 71.559 87.9294 71.9539C87.593 72.052 87.2781 72.1357 86.9769 72.2879C86.398 72.6284 85.7681 72.7957 85.1616 72.9991C84.8253 73.0972 84.4889 73.1954 84.1643 73.3115C83.4841 73.5909 82.8039 73.8702 82.145 74.135C82.0051 74.2039 81.8301 74.2187 81.6902 74.2876C81.0354 74.6535 80.3318 74.8968 79.6495 75.1256C78.9341 75.3508 78.2677 75.6987 77.6109 76.0141C76.9423 76.3115 76.2973 76.6449 75.6501 76.9277C75.3062 77.1089 74.9602 77.2396 74.6046 77.4027C74.0799 77.6372 73.5481 77.8766 73.0091 78.1207C72.4688 78.3312 71.9071 78.5561 71.3689 78.8171C70.3778 79.2812 69.3836 79.7561 68.3861 80.2418C67.6535 80.5826 66.9091 80.9054 66.1903 81.3147C65.9009 81.485 65.588 81.6192 65.2613 81.6848C64.8044 81.7868 64.3612 81.9574 63.8946 82.0919C63.743 82.1427 63.6148 82.2296 63.4536 82.313C63.0221 82.5015 62.5941 82.506 62.1469 82.5755C61.3922 82.6456 60.6665 82.6182 60.0511 82.3342C59.4474 82.0682 58.8209 82.0514 58.1131 82.1936C57.2944 82.3072 56.5129 82.5253 55.8099 83.0538C55.7387 83.1021 55.6635 83.1443 55.5845 83.1806C54.6693 83.6192 53.9491 84.2633 53.457 85.1162C53.3136 85.3692 53.1585 85.6042 52.9938 85.8716C52.8174 86.1211 52.7071 86.3776 52.7078 86.6628C52.7043 86.847 52.7243 87.0671 52.6995 87.2657C52.616 88.1793 52.2797 89.0825 51.7428 89.9138C51.5781 90.1813 51.3238 90.4056 51.1142 90.6515C50.9667 90.8035 50.8193 90.9554 50.6931 91.0928C50.567 91.2302 50.474 91.3712 50.3478 91.5087C50.2858 91.6026 50.179 91.6751 50.1383 91.7546C50.0225 92.1447 49.6593 92.3909 49.3623 92.6442C48.7041 93.1942 48.1121 93.7514 47.4987 94.323C46.9487 94.8343 46.3987 95.3456 45.8487 95.8569C45.3304 96.3381 44.8122 96.8193 44.2939 97.3005C43.9135 97.6622 43.6109 98.0491 43.2518 98.3964C42.5621 99.0717 41.8576 99.7397 41.138 100.401C40.5246 100.972 39.8995 101.526 39.2744 102.079C39.158 102.184 39.0436 102.34 38.9388 102.463C38.5469 102.902 38.151 103.334 37.7513 103.761C37.4499 104.087 37.1446 104.406 36.8353 104.72C36.5307 105.056 36.2144 105.374 35.898 105.693C35.541 106.09 35.1723 106.47 34.8056 106.901C34.3749 107.374 34.0124 107.906 33.5368 108.358C33.1467 108.752 32.8014 109.168 32.4113 109.562C32.2354 109.734 32.0743 109.912 31.9282 110.098C31.616 110.517 31.2921 110.918 31.0012 111.323C30.4912 112.007 29.8564 112.593 29.5704 113.384C29.5394 113.431 29.5297 113.463 29.4987 113.51C29.2292 113.901 28.9501 114.324 28.6923 114.732C28.5276 115 28.3298 115.264 28.2526 115.524C28.1292 115.997 28.072 116.477 27.9817 116.954C27.9762 117.087 28.0134 117.192 28.1788 117.21C28.2994 117.206 28.4104 117.234 28.5523 117.216C28.8811 117.201 29.2057 117.085 29.4951 116.915C29.9459 116.661 30.3849 116.389 30.8239 116.118C31.3808 115.775 31.9266 115.431 32.4614 115.086C32.5682 115.013 32.6537 114.955 32.7723 114.901C33.1706 114.709 33.5359 114.513 33.897 114.216C34.1417 114.025 34.4215 113.887 34.6779 113.713C35.2878 113.326 35.8881 112.971 36.498 112.583C36.7544 112.409 36.997 112.167 37.2865 111.997C37.875 111.624 38.487 111.287 39.0756 110.914C39.7607 110.484 40.4379 110.042 41.1074 109.588C41.8455 109.114 42.5933 108.607 43.3314 108.133C44.0054 107.702 44.6794 107.271 45.3418 106.822C46.3687 106.16 47.3949 105.482 48.4204 104.787C49.0613 104.352 49.7236 103.903 50.3742 103.436C50.9608 103.013 51.559 102.607 52.1103 102.13C53.0752 101.294 54.1359 100.653 55.1945 99.9611C55.6645 99.6425 56.1249 99.3564 56.5949 99.0377C57.0649 98.7191 57.5115 98.3644 57.9485 98.0423Z" fill="white"/>
</g>
</svg>
