<svg width="113" height="194" viewBox="0 0 113 194" fill="none" xmlns="http://www.w3.org/2000/svg">
<g id="&#60;Group&#62;">
<path id="&#60;Compound Path&#62;" fill-rule="evenodd" clip-rule="evenodd" d="M64.4374 107.881C64.3531 108.039 64.237 108.222 64.1107 108.459C64.5559 108.842 64.8209 109.459 65.4665 109.502C65.5452 109.807 65.5905 110.001 65.7214 110.173C66.1261 110.772 66.5627 111.346 66.9993 111.92C67.7096 112.92 68.398 113.892 69.1083 114.893C69.2611 115.094 69.382 115.32 69.2892 115.667C69.2471 115.746 69.2705 115.911 69.336 115.997C69.6985 116.675 70.2209 117.228 71.0411 117.5C71.079 117.684 71.1315 117.888 71.1986 118.11C71.3701 118.067 71.5198 117.995 71.6492 118.031C71.8324 118.07 72.0375 118.139 72.1248 118.253C72.2995 118.483 72.4203 118.709 72.531 118.989C72.5747 119.046 72.5762 119.182 72.5341 119.261C72.2901 119.545 72.3369 119.874 72.2761 120.197C72.1357 121.087 71.8121 121.937 71.2399 122.661C70.3277 123.744 69.4256 124.773 68.5134 125.856C68.3013 126.115 68.1212 126.348 67.899 126.66C68.6552 126.983 69.4404 127.008 70.2528 126.599C70.3167 126.549 70.4025 126.527 70.4563 126.531C71.0278 126.678 71.4753 126.326 71.9564 126.086C72.3517 125.867 72.7353 125.566 73.1726 125.269C73.3574 125.444 73.5508 125.43 73.7964 125.283C75.0563 124.523 76.197 123.673 77.3041 122.712C78.805 121.395 80.3378 120.054 81.9042 118.824C82.8632 118.071 83.8557 117.429 84.9239 116.819C85.6606 116.378 86.4863 116.188 87.3354 116.163C88.7863 116.124 90.1328 116.35 91.4606 116.82C92.227 117.089 92.8772 117.541 93.5797 117.86C95.1695 118.674 96.8559 118.542 98.5462 117.81C100.268 117.053 101.816 116.067 103.09 114.654C103.44 114.242 103.878 113.944 104.271 113.589C105.123 112.829 105.996 112.097 106.968 111.563C108.25 110.831 109.555 110.265 110.942 110.276C111.189 110.265 111.415 110.225 111.694 110.19C111.771 110.358 111.848 110.527 111.937 110.778C111.766 110.821 111.702 110.871 111.648 110.867C110.614 110.717 109.628 111.032 108.655 111.43C106.867 112.101 105.44 113.313 104.025 114.608C103.195 115.397 102.507 116.304 101.525 116.892C100.254 117.706 98.897 118.405 97.4508 118.854C96.8403 119.058 96.2384 119.072 95.6786 119.008C94.7422 118.918 93.8682 118.642 93.0784 118.208C91.6399 117.458 90.139 116.895 88.3856 116.805C87.3096 116.734 86.2368 116.934 85.1889 117.436C83.9056 118.032 82.7431 118.853 81.636 119.814C80.1772 121.051 78.7301 122.371 77.2176 123.605C76.4083 124.286 75.5015 124.906 74.6267 125.502C73.8517 126.049 73.0549 126.568 72.2363 127.058C71.8628 127.306 71.4137 127.521 70.9748 127.682C70.0111 128.026 69.0474 128.371 68.0572 128.277C67.7563 128.284 67.4655 128.238 67.099 128.159C67.1895 128.546 67.3961 128.751 67.6347 128.93C67.8077 129.023 67.9169 129.167 67.9941 129.335C68.182 129.784 68.3161 130.228 68.504 130.677C68.9016 131.602 68.6537 132.484 68.0829 133.345C67.7867 133.761 67.4366 134.173 67.2159 134.622C66.8791 135.253 66.4113 135.712 65.9334 136.225C65.1155 137.096 64.2002 137.907 63.2412 138.66C63.0068 138.844 62.765 139.018 62.5161 139.183C57.8599 141.923 56.8081 141.145 55.0211 139.065C54.8683 138.864 54.6297 138.684 54.4769 138.484C53.8142 138.821 53.1835 139.133 52.5847 139.42C51.483 139.918 50.3813 140.416 49.2477 140.94C48.6489 141.227 48.015 141.266 47.3812 141.306C46.5539 141.359 45.7688 141.334 45.0663 141.015C44.7638 140.886 44.5455 140.599 44.3171 140.366C43.3713 139.458 42.5636 138.397 41.66 137.411C41.4315 137.177 41.2569 136.948 40.8483 136.948C40.8351 136.729 40.7142 136.503 40.8086 136.292C40.9536 135.811 40.7875 135.391 40.5256 135.047C40.4819 134.99 34.3171 127.088 32.7048 125.238C32.5738 125.066 32.3469 124.969 32.1419 124.901C30.4983 124.083 30.1015 122.286 27.3485 119.406C26.5758 118.592 25.8991 117.702 25.2543 116.788C24.9487 116.386 24.6852 115.906 24.6251 115.357C24.6236 115.221 24.5027 114.995 24.3733 114.959C23.4018 114.622 21.6382 110.827 20.1935 109.532C19.2377 108.679 17.0312 105.644 17.0094 105.616C16.3404 105.408 15.8298 104.938 15.5764 104.403C14.7944 102.772 13.6069 101.412 12.5692 99.9813C11.696 98.8336 10.8649 97.607 10.0236 96.4342C9.76165 96.0899 9.68134 95.6487 9.29151 95.4048C9.10907 94.4939 8.31771 93.9236 8.04951 93.0342C7.89358 92.5607 7.74779 92.0335 7.42189 91.7394C6.72643 91.0938 6.6399 88.2283 8.44952 85.7071C9.56056 84.1471 10.3987 83.168 10.3987 83.168C9.30718 81.7334 8.20863 80.6252 8.23203 78.9108C8.26087 78.6132 8.39733 78.3227 8.53377 78.0322C8.67021 77.7417 8.93763 77.6234 9.27055 77.5911C9.35631 77.5696 9.49432 77.4154 9.62218 77.315C11.8973 75.07 13.9572 72.8106 16.0919 71.4551C17.0205 70.8634 18.0348 70.2501 19.1513 70.1067C19.3228 70.0637 19.4842 70.0745 19.6339 70.0027C20.6194 69.6872 21.3219 70.0064 21.9098 70.6448C22.4657 71.3083 22.9577 72.0221 23.5252 72.7681C24.669 72.1907 25.9235 71.8931 27.21 71.5704C27.3815 71.5274 27.5749 71.513 27.7464 71.47C28.4761 71.3553 29.1958 71.2943 29.9037 71.1509C30.7512 70.9896 31.4638 71.255 32.2186 71.4415C33.2961 71.6496 34.0671 72.3275 34.8063 73.0304C34.8499 73.0878 34.9256 73.1201 34.9372 73.2026C34.9567 73.9665 35.5836 74.2534 36.0186 74.691C36.672 75.4155 37.4212 76.0647 38.1167 76.7103C38.4863 77.0617 38.8239 77.4383 38.9377 77.9907C39.0383 78.3242 39.3642 78.6183 39.6363 78.9088C40.2998 79.5795 40.9734 80.1964 41.6369 80.8671C41.9745 81.2437 42.2801 81.6454 42.5959 81.9933C43.0208 82.4846 43.4558 82.9222 43.8808 83.4136C44.6433 84.2815 45.3418 85.1997 46.0825 86.0389C46.5293 86.559 47.008 87.0539 47.4547 87.574C47.8903 88.057 48.2939 88.5651 48.6655 89.0983C49.7485 90.723 51.0653 92.1181 52.3923 93.4595C52.7837 93.8397 53.0574 94.2665 53.395 94.6431C53.5696 94.8726 53.7544 95.0484 54.0031 95.1739C54.4584 95.5039 54.7321 95.9307 54.7282 96.5296C54.7259 97.2648 55.0868 97.8064 55.5016 98.3516C55.7636 98.6959 55.9398 99.0617 56.2018 99.406C56.4957 99.7252 56.7795 100.098 57.1475 100.313C57.5693 100.532 57.8313 100.877 58.1252 101.196C58.7466 101.945 59.3578 102.749 59.9792 103.498C60.5453 104.108 61.1433 104.693 61.6235 105.324C62.0048 105.758 62.2364 106.264 62.5638 106.694C62.772 107.035 63.0339 107.379 63.306 107.669C63.7193 108.078 63.699 108.186 64.4374 107.881ZM21.686 72.6998C21.7616 72.7321 21.8809 72.8218 21.8607 72.9294C21.884 73.0944 21.8536 73.2557 21.7476 73.3848C21.1363 74.4607 20.221 75.2712 19.23 76.0494C19.092 76.2036 18.8581 76.4331 18.6515 76.2287C18.4551 75.9705 18.7108 75.7697 18.8589 75.5616C18.901 75.4827 18.9969 75.4074 19.0928 75.3321C19.2628 75.1528 19.4866 74.9771 19.7205 74.7476C19.3571 74.9412 19.0577 75.0847 18.802 75.2855C18.1627 75.7876 17.6208 76.3506 17.0353 76.8563C16.194 77.5627 15.3964 78.3266 14.4023 78.8322C14.039 79.0259 13.7193 79.2769 13.3459 79.5244C13.1541 79.675 13.1541 79.675 12.7455 79.675C13.2016 79.1334 13.777 78.6816 14.386 78.3409C14.6635 78.1688 14.9949 78.0002 15.2288 77.7707C16.1441 76.9602 16.9838 76.1175 17.8992 75.307C18.8246 74.4427 19.5653 73.4027 20.4035 72.4236C20.5516 72.2156 20.7099 71.9538 20.8362 71.7171C20.9945 71.4553 21.1948 71.1146 20.9664 70.8815C20.7699 70.6232 20.4978 70.3327 20.069 70.4403C19.4149 70.5873 18.717 70.6769 18.1401 70.9925C17.3058 71.3726 16.4615 71.8066 15.6724 72.3803C12.6458 74.7114 10.3434 77.3903 9.97147 77.774C9.49353 78.2869 9.43584 78.8822 9.44207 79.4274C9.44363 79.5636 9.57461 79.7358 9.6939 79.8255C9.94261 79.951 10.2015 80.0227 10.472 80.177C10.3052 80.6288 9.86152 80.3814 9.54186 80.6324C10.1531 81.4358 11.6984 83.0641 12.0142 83.412C12.9428 82.8203 13.8495 82.1999 14.7243 81.6046C15.6092 80.9555 16.3632 80.1342 17.0852 79.3381C17.8929 78.5204 18.6788 77.674 19.5084 76.8851C19.9863 76.3722 20.5079 75.9168 21.0513 75.49C22.224 74.615 23.5291 74.0484 24.8561 73.5105C25.5625 73.2308 26.3562 73.0659 27.0844 72.8149C27.3737 72.7252 27.6411 72.6069 27.9085 72.4885C28.112 72.4204 28.2836 72.3774 28.5089 72.3379C28.6804 72.2949 28.8738 72.2806 29.0453 72.2375C29.3244 72.2017 29.6035 72.1658 29.8608 72.1013C30.1181 72.0368 30.3855 71.9184 30.7286 71.8324C30.6982 71.9938 30.7317 72.1049 30.7216 72.1587C30.4136 72.4923 30.1493 72.8832 29.7977 73.1593C29.3283 73.482 29.0001 73.9232 28.6937 74.393C27.9748 75.4617 27.2778 76.5591 26.3858 77.5346C25.2498 78.7933 24.0484 79.966 22.7814 81.0527C22.1319 81.6085 21.4053 81.9958 20.6451 82.2719C20.5593 82.2934 20.4619 82.2325 20.235 82.1356C20.7161 81.8954 21.0474 81.7268 21.4107 81.5332C21.5604 81.4614 21.6782 81.4148 21.806 81.3144C22.8609 80.486 23.8402 79.6253 24.7423 78.5961C24.8163 78.4921 24.8904 78.3881 24.9965 78.2589C24.7392 78.3235 24.5793 78.449 24.4195 78.5745C24.1638 78.7753 23.9197 79.0587 23.6523 79.177C22.9459 79.4567 22.4025 79.8835 21.817 80.3891C21.2634 80.8697 20.5671 81.0956 19.9146 81.3789C19.8506 81.4291 19.775 81.3968 19.5918 81.3573C19.8257 81.1278 19.9738 80.9198 20.1555 80.823C21.3967 80.3066 22.3526 79.2809 23.4847 78.6211C24.3392 78.1334 25.0612 77.3372 25.7512 76.5662C26.6969 75.5943 27.5234 74.5328 28.4255 73.5035C28.4894 73.4533 28.5097 73.3457 28.5518 73.2668C27.9428 73.6075 27.3557 73.9769 26.9215 74.5471C26.3188 75.4329 25.575 76.2004 24.6682 76.8208C24.3907 76.9929 24.2004 77.2798 23.9766 77.4555C23.9127 77.5057 23.795 77.5524 23.5915 77.6205C23.7599 77.3049 23.8441 77.1471 23.9603 76.9642C23.9806 76.8566 23.9689 76.7741 23.979 76.7203C22.8415 77.8428 21.4536 78.7035 20.1531 79.6789C20.2865 79.1159 20.7995 78.8505 21.1932 78.4955C21.5971 78.0866 22.0665 77.7639 22.4703 77.355C22.8888 76.9653 23.2999 76.5661 23.7038 76.1572C24.0757 75.7735 24.5014 75.3934 24.7641 74.8662C23.6929 75.2032 23.0044 76.1106 22.1179 76.6234C21.2213 77.19 20.4876 77.9037 19.7002 78.6137C20.3185 77.2115 21.5667 76.3687 22.6419 75.4327C21.7741 75.7017 21.1683 76.3149 20.5087 76.9246C19.9871 77.38 19.6518 78.1475 18.8581 78.3124C18.8262 78.3375 18.7942 78.3626 18.7622 78.3877C18.0397 79.1385 17.3172 79.8892 16.5947 80.6399C16.3187 80.9483 16.0209 81.2281 15.7012 81.4791C14.9195 82.0624 14.1198 82.6446 13.3022 83.2256C12.8227 83.6021 12.2676 83.9464 11.7662 84.2942C11.5526 84.4162 11.339 84.5381 11.1542 84.3623C10.9694 84.1866 11.1612 84.036 11.2672 83.9069C11.4474 83.6738 11.3062 83.5554 11.1113 83.4335C10.8673 83.7168 10.6872 83.9499 10.4751 84.2081C10.295 84.4412 10.1687 84.6779 10.3114 84.9325C10.4221 85.2123 10.723 85.2051 10.9702 85.1944C12.1958 85.1944 13.2655 84.7211 14.2128 83.8855C14.6032 83.5484 14.9935 83.2113 15.3839 82.8742C15.4798 82.7989 15.6194 82.781 15.7371 82.7343C15.4088 83.1755 15.0369 83.5592 14.665 83.9429C13.7949 84.9471 12.7166 85.6105 11.4302 85.9332C10.9257 86.0085 10.4533 86.0587 10.0517 85.7323C9.88879 85.5852 9.75781 85.4131 9.59486 85.266C9.30716 85.492 9.07326 85.7215 9.17383 86.055C9.27441 86.3886 9.56678 86.5715 9.95349 86.5428C10.2544 86.5357 10.5437 86.446 10.833 86.3564C11.4972 86.1556 12.1615 85.9548 12.8258 85.754C12.8549 85.7922 12.8734 85.8388 12.8812 85.8938C12.2722 86.2345 11.6633 86.5752 11.0645 86.8621C10.1344 87.3175 9.31728 87.3175 8.64365 86.7006C7.84527 88.3359 10.8197 88.0169 13.1665 86.4031C14.191 85.7361 15.0845 84.8969 16.2719 84.3769C15.1328 85.3632 14.0475 86.3529 12.9724 87.2889C12.9802 87.3439 12.9986 87.3906 13.0277 87.4288C13.5906 87.1396 14.1463 86.8407 14.6947 86.5323C14.9941 86.3889 15.2599 86.1342 15.539 86.0984C15.9039 86.041 16.0739 85.8617 16.3078 85.6322C17.0313 84.9723 17.7549 84.3125 18.685 83.857C18.7708 83.8355 18.8784 83.8427 18.9961 83.7961C19.0039 83.8511 19.0151 83.8881 19.0296 83.9073C18.8916 84.0615 18.7318 84.187 18.572 84.3125C17.751 84.9114 16.9955 85.5964 16.3374 86.3423C16.0934 86.6256 15.8057 86.8516 15.5281 87.0237C14.7274 87.515 13.9485 88.035 13.126 88.4976C12.3673 88.91 11.4777 89.1502 10.6755 89.5053C9.30635 90.1221 8.50797 89.8781 7.832 89.9964C7.8125 91.1118 9.1512 90.6564 10.4478 90.2799C10.9405 90.1221 11.3678 89.8783 11.8068 89.7169C11.9884 89.6201 12.1818 89.6057 12.3853 89.5376C12.3931 89.5926 12.4009 89.6476 12.4087 89.7026C11.714 90.0648 10.999 90.5346 10.2607 90.8394C9.57611 91.1478 8.78241 91.3127 8.0542 91.5637C8.30759 92.0981 8.44871 92.2165 9.14495 91.9906C9.8412 91.7647 10.5577 91.4311 11.2641 91.1514C11.36 91.0761 11.4458 91.0546 11.7031 90.9901C10.7791 91.9906 9.6759 92.3528 8.63816 92.8011C8.78551 93.4646 9.00226 93.6152 9.61274 93.4108C9.96593 93.271 10.2536 93.045 10.617 92.8514C10.7986 92.7545 10.9904 92.6039 11.1503 92.4784C10.7394 93.2136 10.0345 93.6296 9.42718 94.1066C9.82481 95.0319 9.98619 95.0426 10.8929 94.4222C10.9249 94.3971 10.9351 94.3433 10.9889 94.3469C11.11 94.2824 11.2204 94.2262 11.3202 94.1784C11.3493 94.2166 11.3784 94.2549 11.4075 94.2932C11.1024 94.5633 10.7867 94.8418 10.4602 95.1287C10.3004 95.2543 10.1406 95.3798 10.2614 95.6057C10.3066 95.7994 10.4594 96.0002 10.7167 95.9357C11.0598 95.8496 11.4029 95.7636 11.7459 95.6775C12.089 95.5915 12.2909 95.3871 12.3837 95.0392C12.5646 94.561 12.7527 94.0924 12.9482 93.6333C13.4082 92.4929 14.1052 91.3955 17.8804 86.8266C18.0706 86.5396 18.3248 86.2025 18.7216 86.1201C18.6733 86.2803 18.5925 86.4201 18.4792 86.5397C18.1509 86.9808 17.7471 87.3896 17.4406 87.8594C14.4545 91.8545 13.628 92.9161 13.0464 94.7021C12.9115 95.1289 12.701 95.5234 12.5661 95.9501C12.2745 96.775 12.0687 97.5783 12.2394 98.4068C12.2745 98.6543 12.3299 98.7942 12.5684 98.9735C12.609 98.7583 12.6394 98.5969 12.6597 98.4893C12.8148 97.955 12.8842 97.4421 13.0612 96.9364C13.3185 96.2455 13.6156 95.5844 13.9524 94.9532C14.835 93.16 16.3007 91.5964 17.4196 90.7178C16.6703 91.9479 14.9558 93.386 14.3523 95.1433C13.5703 97.27 12.4406 99.0739 13.6397 100.516C14.2829 101.294 14.8723 102.069 15.4836 102.872C15.5272 102.929 15.6146 103.044 15.7003 103.023C16.3139 103.091 16.9174 103.213 17.5731 103.202C19.5839 103.227 21.4457 102.453 23.1852 101.316C23.2811 101.241 23.3668 101.219 23.4627 101.144C22.4312 102.137 21.257 102.876 19.9823 103.281C18.6436 103.737 17.3205 103.676 15.8797 103.661C16.098 103.948 16.2289 104.12 16.3381 104.264C16.671 104.231 16.9603 104.142 17.1653 104.21C18.3099 104.64 19.502 104.529 20.7011 104.092C21.2258 103.909 21.7607 103.672 22.3813 103.414C21.8496 103.923 21.3366 104.189 20.8118 104.371C19.0241 105.042 18.7317 104.859 17.5817 104.891C18.5983 105.422 22.1848 105.035 25.0392 103.619C25.9054 103.213 26.7818 102.754 27.6581 102.295C27.8398 102.198 28.0113 102.155 28.1711 102.03C29.0475 101.571 29.9558 101.087 30.8321 100.628C31.8582 100.097 32.8624 99.5376 33.9001 99.0893C36.1355 98.0673 39.6471 96.7763 40.3215 96.5217C40.9959 96.2671 41.6251 95.8189 42.3346 95.8117C42.3884 95.8153 42.4742 95.7938 42.5061 95.7687C43.3123 95.4412 44.1219 95.0957 44.9348 94.7323C45.1703 94.6391 45.4377 94.5208 45.695 94.4562C47.0992 94.0869 48.5065 93.9901 49.8919 93.8647C50.1929 93.8575 50.5157 93.8791 50.8166 93.8719C51.1394 93.8934 51.4521 93.9688 51.8286 93.9939C51.5955 93.3519 51.5635 93.377 50.9733 93.4738C50.8018 93.5168 50.6186 93.4774 50.4354 93.4379C49.842 93.2622 49.2503 93.2227 48.5743 93.341C48.1556 93.3948 47.7151 93.4199 47.2863 93.5274C46.5027 93.6386 45.6973 93.721 44.9691 93.972C43.6523 94.4561 42.3471 95.0227 41.0521 95.5355C40.9024 95.6072 40.7745 95.7076 40.6349 95.7256C40.5492 95.7471 40.3878 95.7363 40.3441 95.6789C40.3106 95.5678 40.341 95.4064 40.4369 95.3311C40.5749 95.1768 40.7885 95.0549 41.024 94.9617C41.3554 94.7931 41.7304 94.682 42.0617 94.5134C42.1896 94.413 42.3814 94.2624 42.3798 94.1261C42.4407 93.8033 42.6543 93.6814 42.9435 93.5918C44.2721 93.1902 45.6007 92.7885 46.951 92.4156C47.5615 92.2112 48.2375 92.0929 48.8916 91.9459C48.5034 91.8383 47.9568 91.9925 47.981 91.2859C46.7382 91.666 45.5492 92.0497 44.3384 92.4047C44.2713 92.1824 44.3236 92.0497 44.5154 91.8991C44.6006 91.8321 44.7111 91.7759 44.8467 91.7305C45.4824 91.5369 46.1074 91.3516 46.7218 91.1747C47.0649 91.0887 47.376 91.0277 47.6871 90.9667C47.6457 90.1741 47.5483 90.1132 46.8739 90.3678C46.6384 90.461 46.3928 90.608 46.1893 90.6762C45.9001 90.7658 45.6225 90.9379 45.32 90.8088C45.2311 90.5578 45.2716 90.3426 45.6147 90.2565C45.9796 90.1992 46.3445 90.1418 46.6657 90.0271C47.2224 89.8191 47.7487 89.7725 48.2461 90.0235C48.3217 90.0558 48.4293 90.063 48.5369 90.0702C48.5034 89.959 48.5135 89.9052 48.4698 89.8478C48.0434 89.2202 47.5951 88.5638 47.0828 87.9577C46.8427 87.6421 46.5807 87.2978 46.0646 87.2906C45.6176 88.3139 45.1706 89.3372 44.7235 90.3605C44.6877 90.3581 44.6445 90.3461 44.5941 90.3246C44.8491 89.116 45.4923 88.015 45.8666 86.8961C45.6264 86.5804 45.4299 86.3222 45.1898 86.0066C44.6323 87.0861 43.8909 88.9976 43.8737 89.3778C44.2745 88.6964 44.6432 88.0401 44.807 87.3156C44.8475 87.1004 44.8982 86.8315 45.2093 86.7705C45.5017 86.9534 45.3434 87.2152 45.2491 87.4268C44.9239 88.1405 44.5988 88.8542 44.198 89.5356C43.8511 90.2206 43.5798 90.9378 42.974 91.5511C42.4742 92.0352 42.1491 92.7489 41.7904 93.3514C41.6641 93.5881 41.5378 93.8248 41.1511 93.8535C41.5284 93.0071 42.0368 92.3329 42.4695 91.6264C42.3754 91.5475 42.2993 91.4698 42.2411 91.3933C42.3354 91.1817 42.4298 90.9701 42.4703 90.7549C42.3105 90.8804 42.1725 91.0346 42.0563 91.2175C41.6555 91.8989 41.233 92.5516 40.7784 93.2294C40.4473 93.7339 40.1055 94.2467 39.7531 94.768C39.5832 94.9473 39.4569 95.184 39.166 95.1373C39.0132 94.9365 39.1512 94.7823 39.2892 94.6281C39.5333 94.3447 39.8093 94.0363 39.9995 93.7494C40.6544 92.7309 41.3094 91.7124 41.8887 90.6616C42.2154 90.0842 42.4446 89.4458 42.6956 88.8362C43.0816 87.7997 43.4137 86.7597 43.8215 85.7519C44.0928 85.0346 44.0562 84.6509 43.448 84.1201C43.441 84.4464 43.4122 84.7441 43.3295 85.0382C42.928 86.5911 42.5264 88.144 41.8661 89.6251C41.5932 90.2061 41.3421 90.8158 40.9616 91.3896C40.3589 92.2754 39.7243 93.1863 38.9267 93.9502C38.6289 94.2299 38.4183 94.6244 38.1642 94.9615C37.804 95.4278 37.4437 95.894 37.0835 96.3602C37.0331 96.3387 36.99 96.3267 36.9541 96.3243C37.2574 95.582 37.5389 94.8109 37.8726 93.9071C37.4219 93.986 37.121 93.9932 36.8216 94.1366C36.1791 94.3661 35.5484 94.6781 34.9059 94.9076C34.3173 95.1407 33.6748 95.3702 32.9872 95.406C32.8983 95.1549 32.9825 94.9972 33.2398 94.9326C33.529 94.843 33.862 94.8107 34.1294 94.6924C34.8256 94.4665 35.5655 94.2979 36.1745 93.9572C36.8793 93.5413 37.5872 93.3978 38.2835 93.1719C38.6265 93.0859 38.625 92.9496 38.632 92.6232C38.4386 92.6376 38.1712 92.7559 38.0301 92.6375C37.6519 92.4761 37.3409 92.5371 36.9557 92.702C36.6664 92.7917 36.3554 92.8526 36.0341 92.9674C34.8054 93.3212 33.5766 93.675 32.3479 94.0288C32.2621 94.0503 32.1545 94.0431 31.9611 94.0575C32.0991 93.9033 32.1833 93.7455 32.2792 93.6701C32.5248 93.5231 32.7704 93.3761 33.0277 93.3115C34.775 92.8561 36.5105 92.3183 38.2476 91.9167C38.5049 91.8521 38.7957 91.8988 39.1505 91.8952C39.2027 91.7625 39.2752 91.5222 39.3695 91.3106C38.4285 90.8121 37.3962 90.7977 36.4092 90.9769C34.5426 91.3427 32.7096 91.8196 31.0341 92.9062C30.8205 93.0281 30.5414 93.0639 30.2739 93.1823C30.1952 92.8774 30.2911 92.8021 30.5047 92.6802C31.0817 92.3646 31.6368 92.0204 32.1818 91.7299C32.3954 91.608 32.6091 91.486 32.7907 91.3892C33.9782 90.8692 38.3825 89.6106 40.1773 90.493C40.8392 89.1481 36.9152 89.1587 35.9063 89.3092C35.7667 89.3272 35.6373 89.2913 35.5196 89.3379C34.9613 89.4096 34.4031 89.4813 33.8784 89.6642C33.3318 89.8184 32.7868 90.1089 32.2839 90.3204C32.2574 89.8829 32.2995 89.804 32.6629 89.6103C32.9623 89.4669 33.2616 89.3234 33.5727 89.2625C34.0335 89.1298 34.5263 88.972 35.0307 88.8968C35.8361 88.8143 36.6633 88.7606 37.4804 88.7606C38.738 88.7356 38.6102 88.836 40.4798 88.7428C40.5079 88.6902 40.536 88.6376 40.564 88.585C39.6768 88.09 40.2163 88.2622 38.1876 87.6094C38.112 87.5771 37.9607 87.5125 37.875 87.5341C37.0914 87.6452 36.3281 87.6487 35.5562 87.8424C34.4413 88.1221 33.3061 88.5093 32.181 88.8428C31.9775 88.911 31.8278 88.9827 31.6243 89.0508C31.5952 89.0125 31.5661 88.9743 31.537 88.936C31.6431 88.8069 31.7054 88.6204 31.8333 88.52C32.1327 88.3766 32.4859 88.2367 32.8289 88.1507C33.2999 87.9642 33.8144 87.8351 34.2854 87.6486C36.1807 86.9853 38.0067 86.8347 39.8405 87.3656C40.3582 87.5091 40.886 87.5988 41.5331 87.7781C41.53 87.5055 41.5924 87.3191 41.5051 87.2043C41.2096 86.7488 40.84 86.3973 40.2483 86.3578C39.8397 86.3578 39.3774 86.3542 38.9688 86.3542C38.8074 86.3434 38.6242 86.3039 38.5268 86.243C38.3739 86.0421 38.2024 86.0852 37.9872 86.0708C37.0625 86.0636 36.1628 86.3576 35.2311 86.6768C35.0276 86.7449 34.8023 86.7843 34.5988 86.8525C34.4764 86.4902 34.69 86.3683 34.9255 86.2751C35.4502 86.0922 36.017 85.8304 36.5433 85.7838C38.1962 85.54 39.8273 85.2675 41.4848 85.4326C41.5924 85.4398 41.7101 85.3932 41.8177 85.4003C41.9105 85.0525 41.8653 84.8588 41.5207 84.8086C41.2618 84.7368 40.9492 84.6615 40.7644 84.4857C40.5695 84.3638 40.4619 84.3566 40.2147 84.3674C39.0546 84.4534 37.9833 84.7905 36.87 85.2064C36.6984 85.2495 36.5269 85.2925 36.3554 85.3355C36.265 84.9482 36.5004 84.8549 36.7359 84.7617C38.3521 84.1342 39.9715 83.7792 41.6377 83.7542C41.7452 83.7613 41.8092 83.7111 41.8949 83.6896C41.9017 83.6537 41.9084 83.6179 41.9152 83.582C41.6665 83.4565 41.3219 83.4063 41.0833 83.2269C40.7792 82.9615 40.4463 82.9938 40.0612 83.1587C39.4725 83.3918 38.8839 83.6249 38.2952 83.858C38.1237 83.901 37.9303 83.9154 37.705 83.9548C37.8602 83.4204 37.9342 83.3164 38.2555 83.2017C38.9837 82.9507 39.7119 82.6997 40.4619 82.4773C40.5976 82.4319 40.7226 82.3949 40.8369 82.3662C40.6914 82.1749 40.5144 82.0541 40.306 82.0039C40.069 81.9609 39.8 81.9429 39.531 81.925C39.3158 81.9106 39.1108 81.8425 39.0975 81.6237C39.1162 81.3798 39.3517 81.2866 39.545 81.2723C39.5988 81.2758 39.6628 81.2256 39.7166 81.2292C39.7828 80.4438 39.7056 80.2752 39.0804 80.1246C39.031 80.1939 38.9995 80.2644 38.986 80.3362C38.632 81.3475 38.1151 82.2118 37.3175 82.9757C36.8178 83.4598 36.3936 83.9763 35.9157 84.4891C35.5859 84.7939 35.2007 84.9589 34.7836 85.1489C34.814 84.9875 34.8444 84.8262 34.9185 84.7222C35.4502 84.2129 36.0139 83.6786 36.5238 83.1406C36.9344 82.6959 37.3378 82.2417 37.7339 81.7779C37.882 81.5698 38.126 81.2865 38.1346 81.0964C38.1619 80.6625 38.3841 80.3505 38.5307 80.0062C38.7412 79.6117 38.6757 79.5256 38.2219 79.3319C37.429 80.5047 36.6143 81.6487 35.7473 82.9254C35.7558 82.7353 35.7442 82.6528 35.7543 82.599C36.1129 81.9965 36.5036 81.3689 36.8404 80.7377C37.1772 80.1065 37.6551 79.5937 37.7549 78.9195C37.8898 78.4927 37.868 78.464 37.3402 78.3743C37.2154 78.7473 37.1226 79.0952 36.9222 79.4359C36.3632 80.3791 35.7824 81.2936 35.1914 82.2619C34.959 82.6277 34.7586 82.9684 34.5045 83.3055C33.8059 84.2666 32.9443 85.0807 32.397 86.1064C32.3448 86.2391 32.2387 86.3682 32.1124 86.6049C32.3269 85.6115 32.5475 85.1632 33.2897 84.2594C34.4023 82.8357 35.3637 81.3474 36.0864 79.6797C36.2853 79.2027 36.4622 78.697 36.4342 78.1232C36.2221 78.3814 36.0537 78.697 35.8954 78.9588C35.4105 79.798 35.0011 80.6695 34.4725 81.4513C33.7856 82.4949 33.0114 83.4238 32.2809 84.41C31.7086 85.1344 31.1363 85.8589 30.4666 86.5223C29.8927 87.1105 29.4163 87.7596 28.8643 88.3764C28.8004 88.4266 28.7365 88.4768 28.6725 88.527C28.8799 87.86 29.2822 87.3149 29.7383 86.7733C30.2163 86.2605 30.7044 85.6939 31.1924 85.1272C31.5425 84.7148 31.817 84.2701 32.167 83.8577C33.2172 82.6204 34.1162 81.3186 34.8522 79.8697C35.07 79.4848 35.155 79.0819 35.1072 78.6611C34.6056 79.2995 34.1365 79.9582 33.6999 80.6372C33.1291 81.4979 32.6341 82.3909 32.0633 83.2516C31.4388 84.1087 30.8042 85.0196 30.0502 85.8409C29.0842 86.9203 28.0207 87.9388 27.0009 89.0147C26.8663 89.151 26.739 89.2968 26.6189 89.4522C26.5685 89.4307 26.5287 89.4008 26.4996 89.3626C26.6898 89.0757 26.8582 88.7601 27.0703 88.5019C27.8983 87.5766 28.7162 86.7051 29.5442 85.7799C30.6264 84.5175 31.633 83.2229 32.4446 81.8063C32.9441 80.9862 33.4291 80.147 33.8995 79.2887C34.0258 79.052 34.2277 78.8476 34.1155 78.4315C33.7958 78.6826 33.4106 78.8475 33.2524 79.1093C32.5621 80.1709 31.897 81.2432 31.2572 82.3263C30.4034 83.8217 29.2136 85.0769 28.002 86.3034C26.9284 87.3757 25.801 88.4444 24.8802 89.7176C24.8436 89.3338 25.0338 89.0469 25.2459 88.7887C26.7639 87.0924 28.2601 85.3674 29.7243 83.6675C30.3504 82.9467 32.2076 79.8839 32.3347 78.7757C32.0875 78.7865 31.884 78.8546 31.7764 78.8475C29.9676 82.3764 29.9723 82.7852 27.3456 85.3064C26.6439 85.9949 25.8447 86.6225 25.2303 87.4258C25.1562 87.5298 25.0065 87.6016 24.9106 87.6769C25.1274 87.2011 25.4164 86.7755 25.7776 86.4001C26.5097 85.5502 27.2855 84.7576 28.0395 83.9364C28.1775 83.7822 28.3155 83.628 28.3459 83.4666C28.6281 81.824 30.2802 80.5724 30.5687 79.475C29.1224 79.9232 29.8522 79.8085 28.0933 82.0607C27.2567 83.176 26.3445 84.2591 25.4642 85.317C25.4221 85.3959 25.3363 85.4174 25.2085 85.5179C25.7644 84.3021 26.7554 83.5239 27.291 82.4157C26.6096 82.9967 26.0037 83.6099 25.3761 84.1945C24.7383 84.8328 24.0787 85.4425 23.4511 86.0271C23.8529 85.4365 24.2911 84.8938 24.7656 84.3989C25.6155 83.5023 26.3796 82.6273 26.9807 81.6052C27.2333 81.1318 27.3783 80.6512 27.3822 80.0523C26.6337 80.4109 26.003 80.7229 25.3722 81.0348C25.3364 81.0325 25.3039 81.0121 25.2748 80.9739C25.327 80.8412 25.4112 80.6834 25.5071 80.6081C25.7091 80.4037 25.9445 80.3104 26.1363 80.1598C28.2492 78.7755 33.6336 77.664 36.159 77.5601C36.7609 77.5458 37.4166 77.5351 37.9475 77.8974C37.9912 77.9547 38.0988 77.9619 38.1744 77.9942C38.2004 77.7599 38.1591 77.5937 38.0504 77.4957C37.6255 77.0043 37.2326 76.4879 36.7437 76.0467C35.7878 75.1931 34.7899 74.4184 34.1217 73.3388C33.8587 72.9037 33.5003 72.5892 33.0466 72.3955C32.571 72.1732 32.0533 72.0297 31.5675 71.8611C30.8767 71.6244 30.1353 71.6566 29.3735 71.7964C28.0361 72.0522 26.6954 72.3259 25.3512 72.6175C24.8367 72.7466 24.3119 72.9295 23.7973 73.0586C23.7989 73.1949 23.7888 73.2487 23.8324 73.306C23.9096 73.4746 23.9548 73.6683 23.7412 73.7902C23.4956 73.9372 23.4067 73.6862 23.3194 73.5714C22.8828 72.9976 22.468 72.4524 22.0314 71.8786C21.9877 71.8212 21.9441 71.7638 21.8685 71.7315C21.7001 72.0471 21.5098 72.334 21.3734 72.6245C21.3313 72.7034 21.3328 72.8397 21.3445 72.9222C21.3531 72.7321 21.5028 72.6604 21.686 72.6998ZM23.979 76.7203C24.0003 76.7036 24.011 76.6952 24.011 76.6952C23.9964 76.6761 23.9891 76.6665 23.9891 76.6665C24.0037 76.6857 24.0003 76.7036 23.979 76.7203ZM25.5656 75.3827C25.7995 75.1531 25.9578 74.8913 25.911 74.5614C25.2883 75.2643 24.6477 75.966 23.9891 76.6665C24.5326 76.2398 25.076 75.813 25.5656 75.3827ZM20.9173 73.166C20.5992 73.5533 20.2709 73.9945 19.9746 74.4105C20.089 74.3818 20.1781 74.3423 20.2421 74.2921C20.6168 73.845 20.9809 73.4063 21.3344 72.976C21.1847 73.0477 20.9913 73.062 20.9173 73.166ZM21.9579 110.576C27.4444 109.934 25.9365 111.577 28.1524 107.912C28.2787 107.675 28.5344 107.474 28.6054 107.098C28.2943 107.158 28.069 107.198 27.8117 107.262C22.7048 108.202 24.3063 107.219 28.419 106.785C29.0849 106.721 29.7024 106.19 29.8341 105.491C27.4616 105.796 27.1466 106.455 27.2113 105.534C30.8688 104.77 29.8716 105.003 30.7058 104.623C30.7271 104.606 30.7664 104.591 30.8235 104.576C30.8571 104.688 30.9124 104.827 30.9343 104.856C30.6364 105.136 30.3807 105.337 30.1686 105.595C28.5259 107.664 26.4948 111.505 26.2656 112.143C25.9638 113.022 25.8671 113.969 25.7167 114.912C25.5662 115.855 26.2047 116.225 26.6413 116.799C27.1723 109.644 32.5482 104.964 33.0511 104.752C30.6341 107.75 28.5336 110.225 27.715 113.847C27.4803 114.948 27.1918 116.046 27.3656 117.147C27.4576 117.67 27.4639 118.215 27.5559 118.739C27.6011 118.933 27.7321 119.105 28.033 119.098C28.0416 118.908 28.0502 118.717 28.0486 118.581C27.8257 117.885 27.9356 117.157 28.1313 116.408C28.2849 115.737 28.5242 115.045 28.7098 114.349C29.8957 109.934 32.5107 107.331 33.9126 105.817C34.3445 105.356 34.7765 104.895 35.2084 104.433C35.1959 104.596 35.151 104.738 35.0735 104.86C34.6073 105.455 34.1091 106.076 33.589 106.667C31.8168 108.701 29.8411 110.802 28.4634 117.247C28.3215 118 28.4049 118.714 28.7441 119.227C29.1207 119.252 29.4434 119.273 29.7444 119.266C29.9596 119.281 30.1108 119.345 30.3042 119.331C33.9811 119.331 35.7143 119.528 38.1212 118.463C38.8275 118.184 39.5238 117.958 40.2302 117.678C39.9963 117.908 39.7405 118.108 39.4731 118.227C36.158 119.776 35.7377 119.693 30.687 119.901C30.3003 119.93 29.9877 119.854 29.5253 119.851C29.6781 120.052 29.7436 120.138 29.799 120.278C30.2753 121.508 35.5615 121.207 37.6284 120.5C38.1212 120.343 38.6123 120.049 39.1152 119.837C39.529 119.665 39.9534 119.484 40.3884 119.296C39.7592 119.744 39.1721 120.113 38.5094 120.45C35.4851 122.046 31.9314 121.537 30.1374 121.662C31.3692 124.087 36.6546 122.778 39.9128 120.952C40.1764 120.807 40.4292 120.669 40.6714 120.54C40.6192 120.673 40.5233 120.748 40.4274 120.823C36.0885 124.047 32.6494 123.219 31.5883 123.502C31.7193 123.674 31.7965 123.843 31.9259 123.879C33.5928 124.861 34.4434 124.973 40.0687 123.305C40.5833 123.176 41.0644 122.936 41.5673 122.724C41.9524 122.559 42.3376 122.394 42.7329 122.176C42.361 122.559 41.9774 122.86 41.5283 123.076C40.9654 123.365 40.384 123.608 39.7842 123.804C38.0385 124.395 39.7982 125.03 38.3753 127.523C38.0486 128.1 37.7539 128.652 37.3952 129.255C39.2391 129.732 41.1626 129.642 43.1367 129.284C43.0307 129.413 42.9566 129.517 42.8708 129.538C42.5177 129.678 42.1325 129.843 41.7777 129.847C40.5638 129.929 39.8325 129.908 37.5863 129.976C37.8911 131.249 41.7029 130.822 42.3032 130.672C42.357 130.675 42.4225 130.761 42.5738 130.826C41.3107 131.314 40.0937 131.124 38.7635 131.389C40.0102 132.289 42.3118 132.361 43.1406 130.564C43.6747 129.32 44.36 128.14 45.2184 127.053C45.3143 126.978 45.3666 126.845 45.4827 126.662C44.1105 127.006 42.8225 127.193 41.5415 127.053C41.5789 126.565 41.5891 126.511 41.9657 126.537C42.4818 126.544 43.0096 126.633 43.5577 126.616C44.2672 126.608 44.9853 126.411 45.6816 126.185C46.3458 125.984 46.6086 125.457 46.947 124.962C46.6678 124.998 46.4324 125.091 46.1969 125.185C45.4586 125.49 44.6649 125.654 43.9016 125.658C43.6864 125.644 43.5351 125.579 43.5858 125.31C43.6264 125.095 43.7979 125.052 43.9593 125.063C44.1745 125.077 44.346 125.034 44.5292 125.073C45.4555 125.217 46.3739 124.679 47.3189 124.579C47.7547 124.145 48.1586 123.736 48.6568 123.115C48.3036 123.255 48.1321 123.298 47.9824 123.37C47.6292 123.51 47.3516 123.682 47.0304 123.797C46.6021 123.95 46.1699 124.075 45.7338 124.173C45.648 124.195 45.5288 124.105 45.5171 124.023C45.4734 123.965 45.5677 123.754 45.6535 123.732C45.9209 123.614 46.232 123.553 46.4893 123.488C47.1536 123.288 47.7859 123.112 48.44 122.965C48.7293 122.875 48.8891 122.75 49.0154 122.513C49.2899 122.068 49.3538 122.018 49.7171 121.824C49.4443 122.405 49.2252 122.99 48.833 123.481C47.9223 124.701 46.8822 125.884 45.9178 127.1C45.3876 127.745 44.8691 128.473 44.4045 129.205C43.8454 130.148 43.362 131.124 42.9106 132.074C41.3879 135.241 41.423 135.488 41.844 136.579C41.9095 136.665 42.0069 136.726 42.0724 136.812C43.1749 133.562 44.7646 130.618 47.1543 128.054C46.7957 128.656 46.4051 129.284 46.0464 129.886C44.7163 132.031 43.5156 134.212 42.7905 136.614C42.686 136.88 42.5932 137.228 42.6821 137.479C42.8193 138.196 43.4142 138.508 44.1876 138.451C46.4105 138.218 48.5865 137.655 50.7291 136.981C51.8323 136.618 52.8802 136.116 53.7417 135.302C53.8376 135.227 53.9234 135.206 54.0411 135.159C53.8556 135.855 51.9243 137.142 49.5986 137.777C49.1697 137.884 48.7627 138.021 48.3659 138.103C47.0475 138.451 45.7844 138.939 44.4293 138.903C44.2898 138.921 44.172 138.967 44.0005 139.01C44.1011 139.344 44.3701 139.362 44.6071 139.405C45.7049 139.505 46.7777 139.304 47.8708 138.996C50.9583 138.222 51.9711 137.472 53.2178 136.493C53.3534 137.074 51.3146 138.354 50.7041 138.559C49.912 138.86 49.0863 139.05 48.2942 139.351C47.4061 139.728 46.5368 139.86 45.6558 139.911C45.4304 139.95 45.2051 139.989 44.9798 140.029C44.9876 140.084 44.9881 140.129 44.9813 140.165C45.2184 140.208 45.4554 140.251 45.6706 140.266C47.4007 140.19 49.0606 139.62 50.6753 138.856C53.3378 137.59 53.3909 136.586 55.3533 136.145C54.8551 136.766 54.0949 137.042 53.5749 137.634C54.2189 137.54 54.6344 137.214 55.8928 136.317C56.2343 136.095 56.7169 135.991 56.862 135.511C56.8721 135.457 56.9898 135.41 57.0756 135.389C57.7398 135.188 58.3152 134.736 58.783 134.277C59.6649 133.355 60.5248 132.405 61.3848 131.455C62.605 130.038 63.8252 128.621 65.0672 127.233C65.2154 127.025 65.429 126.904 65.6208 126.753C65.7588 126.599 65.9404 126.502 66.0566 126.319C66.565 125.645 67.066 124.961 67.5598 124.268C67.6659 124.139 67.6963 123.977 67.7805 123.819C67.577 123.887 67.4491 123.988 67.3431 124.117C66.486 125.004 65.6361 125.901 64.7936 126.807C63.4764 128.208 62.1593 129.609 60.8422 131.01C60.4383 131.419 60.0025 131.853 59.6423 132.319C58.7636 133.513 57.5473 134.331 56.3747 135.206C56.3427 135.231 56.2889 135.227 56.1813 135.22C56.0807 134.886 56.1969 134.704 56.5064 134.506C57.3812 133.911 58.2661 133.262 58.9445 132.408C59.1986 132.071 59.4746 131.763 59.7506 131.454C60.6964 130.483 61.6523 129.457 62.598 128.485C62.704 128.356 62.8101 128.227 62.8943 128.069C62.198 128.295 61.5454 128.578 60.8913 128.725C59.9799 128.937 59.1324 129.098 58.2311 129.256C57.8342 129.338 57.8225 129.256 57.8935 128.879C58.9125 128.675 59.9315 128.471 60.9506 128.266C61.7443 128.101 62.6253 128.051 63.2732 127.359C63.2833 127.305 63.3909 127.312 63.4229 127.287C63.6046 127.19 63.7761 127.147 63.9359 127.022C64.5877 126.357 65.2216 125.691 65.8375 125.024C66.2196 124.587 66.6016 124.149 66.9837 123.712C66.3934 123.809 65.8368 124.016 65.2902 124.171C64.3905 124.465 63.5024 124.841 62.5676 124.888C62.1271 124.913 61.7302 124.995 61.2796 125.074C61.2258 125.071 61.14 125.092 61.1182 125.063C60.9989 124.974 60.9015 124.913 60.8679 124.802C60.8243 124.744 60.9623 124.59 61.08 124.543C61.2835 124.475 61.4769 124.461 61.6804 124.393C62.4639 124.282 63.2795 124.145 64.0732 123.981C64.845 123.787 65.6052 123.511 66.3872 123.263C66.7942 123.127 67.2113 122.937 67.7142 122.725C67.7142 122.725 67.8117 122.786 67.9091 122.847C68.6093 122.023 69.2556 121.194 69.6096 120.183C69.4526 120.245 69.3281 120.327 69.2361 120.43C68.8759 120.896 68.3949 121.137 67.9037 121.431C66.632 122.109 65.3035 122.51 63.9749 122.912C63.3106 123.113 62.6347 123.231 61.9486 123.403C61.809 123.421 61.604 123.353 61.5704 123.242C61.5034 123.019 61.7388 122.926 61.9104 122.883C62.2214 122.822 62.5863 122.765 62.8756 122.675C63.7434 122.406 64.6431 122.112 65.489 121.814C65.7783 121.725 66.0894 121.664 66.3888 121.52C66.8379 121.305 67.287 121.09 67.768 120.85C67.9177 120.778 68.1649 120.767 68.2475 120.473C68.108 120.491 68.0323 120.459 67.9466 120.48C66.9174 120.739 65.942 121 64.9448 121.233C64.4942 121.312 64.0217 121.362 63.5812 121.388C63.4097 121.431 63.2366 121.337 63.299 121.151C63.3192 121.043 63.4791 120.918 63.6186 120.9C63.9617 120.814 64.3383 120.839 64.6813 120.753C66.0468 120.444 67.405 120.126 68.7559 119.799C69.4958 119.63 70.0579 118.96 70.1343 118.121C69.9202 118.197 69.7167 118.265 69.5238 118.325C68.3096 118.698 67.1061 119.063 65.9132 119.419C65.6559 119.483 65.3768 119.519 65.3518 119.218C65.3487 118.945 65.5304 118.848 65.8095 118.813C67.064 118.515 68.2966 118.189 69.5511 117.891C69.6689 117.844 69.7967 117.744 69.9784 117.647C69.6743 117.382 69.4241 117.12 69.2276 116.862C68.9555 116.571 68.7473 116.231 68.7426 115.822C68.6912 115.083 68.3318 114.678 67.609 114.466C67.1888 114.383 66.8208 114.168 66.3787 114.057C65.9366 113.946 65.461 113.723 65.0104 113.802C63.3037 114.043 61.6757 114.588 59.994 115.129C58.5695 115.606 57.1248 116.19 55.7222 116.696C55.5187 116.764 55.3253 116.779 55.1538 116.822C55.1172 116.438 55.3089 116.287 55.5764 116.169C55.7261 116.097 55.8976 116.054 56.1011 115.986C56.5619 115.853 57.0125 115.774 57.4078 115.556C58.7972 114.831 60.2973 114.387 61.7654 113.967C62.687 113.702 63.5984 113.49 64.5753 113.365C65.026 113.286 65.4665 113.261 65.8766 113.397C66.4278 113.652 67.0211 113.828 67.6581 114.061C67.5809 113.892 67.5911 113.838 67.5474 113.781C67.1209 113.153 66.7163 112.554 66.2797 111.98C66.1487 111.808 65.8898 111.737 65.6848 111.668C64.9839 111.485 64.2627 111.41 63.5937 111.202C62.8492 110.962 62.064 110.937 61.2384 111.127C61.0455 111.186 60.8488 111.219 60.6481 111.223C60.5405 111.216 60.4213 111.127 60.4314 111.073C60.4197 110.99 60.5039 110.833 60.546 110.754C60.6419 110.678 60.7277 110.657 60.8672 110.639C61.9081 110.463 62.9388 110.341 63.9001 110.732C64.3859 110.901 64.9457 110.965 65.4634 111.109C65.2217 110.657 64.9597 110.313 64.6977 109.968C64.5449 109.768 64.3718 109.674 64.1029 109.656C63.5548 109.674 63.0051 109.556 62.4484 109.764C62.1591 109.854 62.0399 109.764 61.951 109.513C61.7296 108.953 61.7296 108.953 62.1202 108.326C62.2262 108.197 62.3104 108.039 62.3728 107.852C62.3931 107.745 62.3915 107.608 62.3798 107.526C62.1935 107.214 61.997 106.956 61.767 106.586C61.6945 106.827 61.6103 106.984 61.5479 107.171C61.4232 107.544 61.2984 107.917 61.1737 108.29C60.8719 109.168 60.2022 109.832 59.7274 110.617C59.5168 111.012 59.2291 111.238 58.8845 111.188C58.2062 112.041 57.602 112.791 56.9876 113.594C56.7334 113.931 56.4021 114.1 56.0036 114.046C55.3051 115.007 54.8217 115.982 54.0474 116.911C53.8393 116.57 53.9118 116.33 54.1137 116.126C55.1218 114.967 55.73 113.619 56.3381 112.271C56.7223 111.388 57.117 110.498 57.5225 109.599C58.3513 107.802 59.1801 106.005 59.4374 104.061C59.4982 103.739 59.4108 103.624 59.1621 103.498C59.0577 103.764 58.9953 103.95 58.837 104.212C58.6431 104.181 58.4599 104.141 58.2873 104.094C57.7915 103.979 57.2956 103.864 56.8434 103.807C56.2618 103.713 55.638 103.699 55.0782 103.634C54.7017 103.609 54.3337 103.394 53.9368 103.476C53.1499 103.606 52.3624 103.689 51.5744 103.727C50.7472 103.781 49.8895 103.996 49.0522 104.104C48.9446 104.097 48.8471 104.036 48.7497 103.975C48.7419 103.92 48.7414 103.874 48.7481 103.838C48.9836 103.745 49.1871 103.677 49.4444 103.613C50.5273 103.358 51.622 103.186 52.6831 102.903C53.9259 102.522 55.1601 102.332 56.399 102.551C56.905 102.612 57.379 102.698 57.8749 102.813C57.6971 102.311 57.6535 102.254 57.2114 102.142C56.6836 102.053 56.1238 101.988 55.6061 101.845C54.1941 101.533 52.7213 101.543 51.2314 101.934C51.1136 101.981 50.9943 101.891 50.801 101.905C51.0653 101.515 51.3764 101.454 51.6875 101.393C52.1381 101.314 52.6106 101.264 53.115 101.188C54.2955 100.995 55.4252 101.07 56.5261 101.443C56.7748 101.569 57.1077 101.536 57.3985 101.583C57.0828 101.235 56.7569 100.941 56.3889 100.726C55.5772 100.263 54.7672 99.9367 53.7396 100.331C53.568 100.374 53.3747 100.389 53.2031 100.432C52.956 100.442 52.7728 100.403 52.7478 100.102C53.6125 99.5601 54.5489 99.6498 55.4923 99.4132C55.012 98.7819 54.5972 98.2368 54.1169 97.6055C54.0023 97.9247 53.908 98.1363 53.8456 98.3228C53.7092 98.6133 53.6265 98.9074 53.5002 99.1441C53.4261 99.2481 53.2125 99.37 53.1587 99.3664C53.0613 99.3054 52.9521 99.162 52.9505 99.0257C52.981 98.8643 53.0652 98.7065 53.1813 98.5236C53.4644 97.8888 53.618 97.2182 53.2234 96.5654C52.1935 97.6951 51.866 99.144 50.9335 100.335C51.247 99.5385 51.5721 98.8248 51.9074 98.0573C51.9814 97.9533 52.1194 97.7991 52.0539 97.713C51.9198 97.2683 52.2496 96.9635 52.4064 96.5654C52.5529 96.2211 52.7954 95.8015 52.3721 95.4464C52.2574 95.7656 52.1966 96.0884 52.0485 96.2964C51.5721 96.9455 51.2906 97.7166 50.5655 98.2401C50.4696 98.3155 50.4174 98.4481 50.3433 98.5521C50.0588 99.0506 49.828 99.5527 49.5434 100.051C49.0787 100.783 48.5821 101.54 48.1174 102.271C48.0433 102.375 47.9256 102.422 47.7876 102.576C48.4394 101.285 49.081 100.048 49.7126 98.8641C50.3543 97.6269 51.0614 96.4757 51.5737 95.2025C50.8946 95.0483 50.9164 95.0769 50.5999 95.6005C50.3051 96.1528 49.9886 96.6764 49.7258 97.2036C49.2323 98.2329 48.5977 99.1438 48.0285 100.141C47.0789 101.712 45.8587 103.128 44.8334 104.667C45.0205 104.107 45.1164 104.032 47.3221 100.421C47.4141 100.318 47.4882 100.214 47.5443 100.109C48.2008 99.2263 48.7817 98.3118 49.1138 97.2717C49.2892 96.6298 49.5504 95.9663 49.7578 95.2992C49.8522 95.0876 49.8491 94.8151 49.9317 94.521C49.5465 94.6859 49.3883 94.9477 49.2518 95.2382C48.915 95.8694 48.6218 96.558 48.1774 97.182C46.93 99.0326 48.2039 97.6196 43.9064 103.515C44.0311 103.142 44.1777 102.798 44.3563 102.429C44.3563 102.429 45.5718 100.603 47.3853 97.4833C47.4695 97.3255 47.4999 97.1641 47.4664 97.0529C47.4516 96.6978 47.5662 96.3786 47.7666 96.0379C48.0309 95.647 48.1119 95.2167 48.0301 94.6393C47.786 94.9226 47.648 95.0768 47.5319 95.2597C47.3315 95.6004 47.1849 95.9447 47.0165 96.2603C46.5737 97.0206 46.1526 97.8096 45.6879 98.5412C45.4338 98.8783 44.4069 100.281 44.0654 100.503C44.2424 99.9972 44.9426 99.1723 45.0338 98.6882C45.3441 97.6194 45.5468 96.5435 46.2018 95.525C46.2337 95.4999 46.254 95.3923 46.3382 95.2345C46.1246 95.3564 46.017 95.3493 45.9749 95.4282C45.8413 95.6553 45.7223 95.9016 45.6178 96.167C45.4611 96.565 45.2825 96.9344 44.9309 97.2106C44.6011 97.5154 44.3149 97.8776 44.2019 98.3331C44.2237 98.3618 41.9767 101.181 41.7311 101.328C42.7229 99.6779 44.0171 98.1573 43.9516 96.192C43.8659 96.2135 43.7583 96.2063 43.7162 96.2852C43.4838 96.651 43.2515 97.0168 43.041 97.4113C42.8406 97.752 42.7696 98.1286 42.5474 98.4406C41.7748 99.5057 40.9585 100.513 40.0681 101.625C40.1203 101.493 40.0868 101.381 40.1507 101.331C40.4673 100.808 40.6981 100.305 41.0583 99.8392C41.6407 99.061 42.018 98.2146 42.234 97.3575C42.3268 97.0096 42.2496 96.841 41.9588 96.7944C41.7 96.7227 41.5838 96.9056 41.4575 97.1422C40.84 98.2994 40.2225 99.4566 39.605 100.614C39.4989 100.743 39.4046 100.955 39.0818 100.933C39.2923 100.538 39.449 100.14 39.6814 99.7746C39.8178 99.4841 39.9979 99.251 39.8436 98.9139C39.81 98.8027 39.9262 98.6198 39.9784 98.4871C40.1032 98.1141 40.3792 97.8057 40.2568 97.4435C38.4643 97.7052 39.4872 98.7811 37.7002 100.46C37.7509 100.191 38.023 98.6018 37.9544 98.2431C35.5055 99.3871 37.3455 98.5838 35.907 99.7134C36.0099 99.3118 36.0606 99.0428 36.1097 98.6375C35.8103 98.781 35.6388 98.824 35.4571 98.9208C34.3991 99.4767 33.3411 100.032 32.2613 100.56C31.5666 100.922 30.914 101.205 30.4493 101.937C30.4493 101.937 29.0974 104.053 29.0132 104.21C28.6927 103.454 29.5543 102.64 30.231 101.65C30.0595 101.693 29.9737 101.714 29.9098 101.765C29.5145 101.983 29.141 102.231 28.7239 102.421C27.8257 102.851 27.9754 104.659 27.2184 105.207C26.8371 104.773 26.8621 105.075 27.9988 102.944C27.9484 102.923 27.9086 102.893 27.8795 102.855C27.3985 103.095 26.7646 103.134 26.4597 103.741C26.579 103.83 26.6765 103.891 26.7521 103.923C26.1175 104.834 26.3264 104.304 25.659 106.111C25.4618 106.724 24.4459 107.201 26.2882 103.784C25.6123 103.902 25.1312 104.142 24.9339 104.755C23.9359 107.739 24.2034 107.621 23.299 107.506C23.175 107.008 24.3671 105.017 24.6416 104.572C21.4496 105.612 22.4593 104.59 20.6567 108.664C20.5623 108.876 20.5857 109.041 20.7487 109.188C21.1517 109.651 21.5548 110.113 21.9579 110.576ZM66.2172 129.081C65.5155 129.769 64.8239 130.404 64.1862 131.042C63.6544 131.551 63.1765 132.064 62.6767 132.548C61.4636 133.639 60.326 134.761 59.2976 136.027C57.8989 137.813 56.3232 138.225 57.4857 139.283C58.0618 139.839 58.7495 139.804 59.5097 139.527C60.6028 139.219 61.5633 138.602 62.5356 138.068C63.5718 137.483 64.477 136.727 65.1436 135.791C65.6621 135.063 66.1704 134.388 66.6031 133.682C66.9836 133.108 67.3204 132.477 67.3345 131.824C67.3399 131.362 67.2058 130.917 67.1575 130.451C67.0756 129.873 66.7482 129.443 66.2172 129.081ZM36.639 128.932C37.8014 128.111 38.8275 125.701 38.4774 124.234C37.8989 124.413 37.3025 124.591 36.6881 124.768C36.5275 125.765 35.977 126.518 35.2972 127.236C35.45 127.436 35.5591 127.58 35.7119 127.781C36.2639 127.164 36.7302 126.569 36.8939 125.844C36.9345 125.629 36.9212 125.41 37.2424 125.295C37.1949 125.837 37.1255 126.35 36.8729 126.823C36.6203 127.297 36.3895 127.799 36.1267 128.326C36.2723 128.517 36.443 128.719 36.639 128.932ZM60.0775 104.567C59.8584 105.152 59.5738 105.65 59.4724 106.188C59.1855 107.422 58.5961 108.526 58.1041 109.692C57.8109 110.381 57.5178 111.069 57.3455 111.984C57.5357 111.697 57.6417 111.568 57.7478 111.439C58.3084 110.632 58.7395 109.789 59.127 108.889C59.3258 108.412 59.6541 107.971 59.8529 107.494C60.0821 106.855 60.2357 106.185 60.433 105.571C60.5679 105.144 60.4891 104.84 60.0775 104.567ZM66.4075 126.914C66.4579 126.936 66.5049 126.975 66.5486 127.033C66.7185 126.853 66.9423 126.678 67.1123 126.498C67.7064 125.803 68.3543 125.11 68.9266 124.386C69.6369 123.507 70.3471 122.629 70.8407 121.599C70.9873 121.255 71.2196 120.889 71.42 120.549C71.5884 120.233 71.703 119.914 71.6547 119.448C71.4644 119.735 71.4021 119.921 71.2641 120.075C70.7152 120.965 70.1663 121.854 69.5418 122.711C68.8432 123.672 68.0791 124.547 67.3587 125.48C66.9985 125.946 66.7139 126.445 66.4075 126.914ZM26.4956 110.634C25.0914 111.003 23.7465 110.913 22.3844 111.204C22.7851 112.402 22.439 112.215 25.8438 111.925C26.0543 111.53 26.2648 111.136 26.4956 110.634ZM60.8415 105.571C60.8548 105.79 60.9 105.984 60.8595 106.199C60.6583 106.785 60.4392 107.369 60.2022 107.953C59.8568 108.774 59.4794 109.62 59.134 110.442C59.1021 110.467 59.1457 110.524 59.1894 110.581C59.3477 110.32 59.5059 110.058 59.7079 109.853C60.4821 108.925 61.0076 107.87 61.36 106.723C61.5471 106.163 61.3928 105.826 60.8415 105.571ZM36.2172 124.955C35.3915 125.145 34.5627 125.062 33.663 125.356C34.0879 125.848 34.4255 126.224 34.8169 126.604C35.0453 126.837 36.2195 126.099 36.2172 124.955ZM20.0111 108.621C20.6762 107.549 21.3209 106.584 21.8566 105.476C20.5584 105.716 21.0582 105.232 19.5947 107.94C19.6719 108.108 19.8248 108.309 20.0111 108.621ZM41.8354 133.01C41.1376 133.1 40.6113 133.146 39.9135 133.236C40.3502 133.81 40.7213 134.298 41.1579 134.871C41.4191 134.208 41.5961 133.702 41.8354 133.01ZM23.3262 112.71C23.6365 113.521 23.5796 113.244 24.9853 113.011C25.5756 112.915 25.6075 112.889 25.6434 112.265C24.8817 112.405 24.1417 112.574 23.3262 112.71ZM42.7112 90.199C42.7471 90.2014 42.7796 90.2217 42.8087 90.26C42.8827 90.156 42.9467 90.1058 42.9888 90.0269C43.4976 88.7717 43.9959 87.5248 44.4834 86.2863C44.5357 86.1536 44.4702 86.0675 44.4686 85.9313C44.4182 85.9097 44.3751 85.8978 44.3392 85.8954C43.7209 87.2976 43.2539 88.7645 42.7112 90.199ZM42.1488 132.214C41.1821 132.286 40.2472 132.332 39.2805 132.404C39.2633 132.784 41.8908 133.15 42.1488 132.214ZM25.4071 113.23C24.916 113.524 24.4536 113.521 24.1456 113.854C24.3452 114.385 24.6392 114.704 25.1787 114.876C25.2481 114.363 25.3393 113.879 25.4071 113.23ZM12.0063 95.8856C11.3319 96.1402 11.204 96.2406 10.8758 96.6817C11.158 96.9184 11.2485 97.3057 11.6703 97.5245C11.8036 96.9615 11.8948 96.4773 12.0063 95.8856ZM20.5265 105.741C19.9971 105.515 18.5165 106.724 19.2759 107.319C19.6782 106.774 20.0704 106.283 20.5265 105.741ZM40.43 80.6232C40.3691 80.9459 40.3068 81.1324 40.2662 81.3476C40.6763 81.4839 41.0646 81.5915 41.4427 81.7529C41.4708 81.7003 41.4882 81.6561 41.495 81.6202C41.1691 81.3261 40.8751 81.0069 40.43 80.6232ZM62.793 107.935C62.5622 108.437 62.3938 108.753 62.2153 109.122C62.7852 109.133 62.9856 108.792 63.2398 108.455C63.1088 108.283 62.9895 108.193 62.793 107.935ZM9.84745 88.5512C8.67406 88.4185 9.16991 88.5333 8.01367 88.0203C8.19455 88.795 8.76605 88.9421 9.84745 88.5512ZM18.3676 105.924C18.3395 105.977 18.3294 106.031 18.3372 106.086C18.6412 106.351 18.8899 106.477 19.173 105.842C18.84 105.874 18.6147 105.914 18.3676 105.924ZM49.2464 91.9423C49.3267 92.3835 49.5317 92.4516 49.9403 92.4516C49.8077 92.1432 49.5169 92.0966 49.2464 91.9423ZM42.9763 90.8159C43.3919 90.4895 43.5603 90.1739 43.6312 89.7974C43.2578 90.0448 43.165 90.3927 42.9763 90.8159ZM48.6336 91.0027C48.2305 90.54 48.2305 90.54 47.9444 90.9022C48.1276 90.9417 48.3108 90.9811 48.6336 91.0027ZM70.2248 120.387C70.5967 120.004 70.5967 120.004 70.6458 119.598C70.4774 119.914 70.3511 120.151 70.2248 120.387Z" fill="white"/>
<path id="&#60;Path&#62;" d="M67.3865 115.47C66.4361 117.416 65.422 119.278 64.1447 120.991C64.2365 120.785 64.3594 120.555 64.4511 120.35C64.5414 120.012 64.6317 119.675 64.7743 119.341C64.9791 118.958 65.2362 118.578 65.4509 118.143C65.7371 117.563 66.0233 116.983 66.3095 116.403C66.3701 116.222 66.3997 116.065 66.49 115.727C66.2594 115.685 66.0501 115.671 65.9667 115.692C65.7012 116.256 65.4653 116.664 65.2507 117.099C64.4869 118.898 63.3552 120.541 62.0864 122.069C61.3021 122.995 60.5702 123.924 59.8072 124.878C59.7581 124.857 59.7265 124.838 59.7124 124.819C60.0727 124.314 60.4117 123.782 60.7932 123.305C61.5251 122.375 62.0788 121.408 62.5688 120.357C62.9048 119.559 63.3781 118.877 63.8089 118.139C64.1578 117.554 64.4544 116.966 64.3945 116.301C64.2193 116.527 64.0653 116.782 63.9113 117.036C63.0553 118.389 62.1959 119.759 61.3333 121.147C61.0352 121.602 60.7485 122.139 60.4193 122.619C59.94 123.38 59.3762 124.074 58.728 124.7C57.9832 125.417 57.3332 126.193 56.6096 126.938C56.5065 127.064 56.3821 127.161 56.1842 127.227C56.4216 126.952 56.6476 126.597 56.885 126.322C57.5661 125.522 58.2684 124.749 58.9495 123.948C59.2278 123.597 59.485 123.217 59.7208 122.81C60.0386 122.25 60.3564 121.689 60.7053 121.105C61.2492 120.189 61.8453 119.277 62.3368 118.358C62.6645 117.746 62.8663 117.098 63.0893 116.478C62.6494 116.423 62.5349 116.468 62.3399 116.799C61.388 118.612 60.2253 120.279 59.0838 121.974C58.6105 122.657 58.0948 123.283 57.5904 123.99C57.5621 123.953 57.5234 123.924 57.4744 123.903C57.5704 123.768 57.6594 123.624 57.7414 123.471C58.0607 123.043 58.3489 122.639 58.647 122.183C58.7698 121.954 58.8616 121.748 58.8374 121.456C58.7904 121.003 59.005 120.568 59.3145 120.192C60.0365 119.315 60.5591 118.372 61.0605 117.4C61.1325 117.3 61.1735 117.223 61.2243 117.094C60.4932 117.178 60.048 117.571 59.7203 118.183C59.0311 119.495 58.3348 120.796 57.6315 122.089C57.4949 122.344 57.3584 122.6 57.2219 122.855C57.1728 122.834 57.1412 122.814 57.1271 122.796C57.432 122.023 57.7544 121.251 58.0942 120.481C58.2269 120.199 58.3286 119.941 58.3043 119.649C58.2899 119.304 58.5159 118.949 58.6585 118.615C58.7503 118.409 58.9255 118.183 58.808 117.964C58.4826 117.863 58.4333 118.124 58.3514 118.277C57.7241 119.213 57.1591 120.101 56.8784 121.166C56.7783 121.556 56.6046 121.915 56.3786 122.27C56.5417 120.985 57.1447 119.756 57.4959 118.458C57.1607 118.409 56.9741 118.555 56.8512 118.785C56.6464 119.168 56.4417 119.551 56.1845 119.93C55.4048 121.253 54.618 122.566 53.8242 123.871C53.7931 123.895 53.762 123.919 53.6376 124.017C54.4537 122.22 55.345 120.588 56.2771 118.879C55.8077 118.98 55.5475 119.094 55.3215 119.45C54.6025 120.591 53.8 121.754 52.8391 122.774C53.4747 121.653 54.1315 120.56 54.8604 119.366C54.5676 119.373 54.4319 119.39 54.2226 119.376C54.1702 119.373 54.1065 119.289 54.1164 119.237C54.0739 119.181 54.1672 119.108 54.2082 119.031C54.2082 119.031 54.2393 119.007 54.2605 119.035C55.3223 118.604 56.4053 118.2 57.4671 117.769C58.3621 117.379 59.2047 116.986 60.1208 116.624C60.4955 116.464 60.8914 116.332 61.3184 116.175C61.9957 115.956 62.7253 115.74 63.4336 115.497C64.6524 115.076 65.9478 114.951 67.2431 114.826C67.7551 114.781 68.1965 114.969 68.5969 115.233C68.6704 115.265 68.6932 115.425 68.7357 115.481C68.6113 115.578 68.4869 115.676 68.3822 115.669C68.0682 115.648 67.7641 115.574 67.3865 115.47Z" fill="white"/>
<path id="&#60;Path&#62;_2" d="M44.9773 112.567C43.7367 113.586 42.4299 114.386 41.0369 115.073C37.2381 116.969 33.8772 117.255 32.1964 116.901C31.7285 116.816 31.7285 116.816 31.5431 116.374C31.4733 116.459 31.3963 116.534 31.3122 116.6C31.0356 116.546 30.8886 116.375 30.8712 116.087C30.8897 115.846 30.8335 115.574 30.9051 115.337C32.0843 110.792 33.4689 108.438 36.4257 105.302C37.16 104.545 37.8842 103.841 38.6084 103.136C38.6228 103.155 38.6548 103.175 38.7046 103.197C38.3375 103.575 37.9704 103.954 37.6248 104.361C37.1009 104.953 36.5948 105.547 36.1063 106.141C35.4052 107.008 33.2456 109.337 31.9541 113.337C31.6047 114.335 31.4461 115.319 31.7755 116.282C34.6161 116.902 36.5285 116.169 37.302 116.06C38.7427 115.833 40.061 115.115 41.434 114.535C42.2259 114.184 42.9101 113.692 43.6589 113.285C44.0807 113.045 44.4924 112.857 44.9773 112.567Z" fill="white"/>
<path id="&#60;Path&#62;_3" d="M58.249 131.559C57.8221 133.121 56.6631 133.982 55.4817 134.685C54.7938 135.135 54.0204 135.344 53.2681 135.58C51.5675 136.119 49.8768 136.606 48.186 137.093C48.021 137.134 47.8965 137.099 47.7622 137.116C47.6767 136.876 47.706 136.722 47.9843 136.636C48.6234 136.444 49.2317 136.276 49.8708 136.084C51.4903 135.696 53.0678 135.254 54.6438 134.681C55.5192 134.349 56.6376 133.563 57.3728 132.726C57.1463 132.815 56.9812 132.856 56.889 132.928C56.0053 133.443 55.0474 133.796 54.0993 134.098C53.1371 134.381 52.1647 134.673 51.1821 134.972C51.017 135.013 50.831 135.027 50.6757 135.016C50.5722 135.01 50.4365 134.896 50.4042 134.79C50.33 134.628 50.4837 134.508 50.6488 134.467C51.0306 134.388 51.4124 134.31 51.7942 134.231C52.7633 133.956 53.7325 133.682 54.6806 133.38C55.3505 133.164 55.9993 132.921 56.637 132.598C57.069 132.392 57.4786 132.029 57.8784 131.716C57.9917 131.672 58.0742 131.651 58.249 131.559Z" fill="white"/>
<path id="&#60;Path&#62;_4" d="M33.7817 115.059C33.726 114.789 33.7771 114.66 33.9977 114.621C34.0816 114.6 34.187 114.607 34.2923 114.614C35.3669 114.712 36.3629 114.379 37.3788 113.941C40.0594 112.735 39.88 112.697 40.6425 112.188C40.614 112.151 40.5959 112.105 40.5883 112.051C38.2719 112.882 34.0122 114.968 36.876 109.539C37.3289 108.646 37.8383 107.783 38.4042 106.951C38.8079 106.365 39.2857 105.811 39.7422 105.229C39.7915 105.25 39.8305 105.28 39.859 105.317C39.7864 105.419 39.7353 105.548 39.6315 105.675C38.6347 106.86 37.8927 108.249 37.2348 109.617C36.2883 111.524 36.7225 111.767 36.7103 112.538C38.249 112.721 42.543 110.877 43.2444 110.551C43.2757 110.526 43.2971 110.554 43.2971 110.554C43.2658 110.579 43.2872 110.607 43.2872 110.607C40.9028 111.939 38.7885 114.808 33.7817 115.059Z" fill="white"/>
<path id="&#60;Path&#62;_5" d="M66.246 112.577C66.0949 113.096 65.7413 113.284 65.2913 113.28C64.0575 113.357 62.8563 113.541 61.6679 113.938C60.73 114.272 59.8019 114.554 58.864 114.888C58.5825 114.975 58.3123 115.142 58.021 115.282C57.8753 115.351 57.6772 115.417 57.4791 115.484C57.4632 115.006 57.8169 114.818 58.0771 114.703C59.1281 114.192 60.2102 113.655 61.369 113.415C62.1415 113.255 62.9451 113.071 63.7487 112.886C63.9467 112.82 64.1562 112.834 64.3542 112.768C63.9437 112.555 63.5051 112.632 63.0453 112.681C61.7279 112.778 60.4038 113.192 59.1547 113.77C58.9779 113.864 58.6979 114.083 58.6 113.759C58.5659 113.519 58.7837 113.348 59.0439 113.233C59.8051 112.993 60.5647 112.621 61.3159 112.433C62.3912 112.214 63.4664 111.994 64.525 112.144C65.1434 112.239 65.7307 112.357 66.246 112.577Z" fill="white"/>
<path id="&#60;Path&#62;_6" d="M59.1198 104.36C59.0601 104.677 59.0103 104.941 59.0134 105.208C58.9024 105.655 58.5771 105.821 58.2158 105.609C57.6946 105.254 57.1022 105.134 56.4486 105.197C55.7421 105.257 55.0242 105.236 54.3889 105.06C53.7751 104.912 53.1115 105.028 52.4693 105.172C51.2164 105.436 49.9634 105.699 48.7319 105.991C48.4265 106.051 48.0584 106.16 47.7599 105.9C48.0209 105.65 47.3688 105.847 51.7468 104.75C53.2309 104.395 54.7066 104.226 56.2251 104.114C56.7946 104.072 57.3441 104.135 57.8738 104.304C58.0751 104.371 58.2963 104.332 58.5075 104.346C58.7501 104.336 58.9614 104.35 59.1198 104.36Z" fill="white"/>
<path id="&#60;Path&#62;_7" d="M47.5322 109.963C47.6472 109.918 47.7097 109.869 47.7936 109.848C48.7499 109.858 49.6591 109.414 50.537 108.994C51.7076 108.434 52.8811 108.14 54.0959 107.769C54.4937 107.636 57.6387 107.9 57.7126 107.931C57.7004 108.09 57.6953 108.258 57.6973 108.435C57.6706 108.859 57.3894 109.08 56.9688 109.052C56.1587 108.971 55.0233 108.922 54.1705 108.785C53.413 108.708 52.6898 108.872 51.9567 109.089C50.9836 109.449 49.9891 109.782 49.0258 110.09C48.7118 110.202 48.3552 110.258 47.9985 110.313C47.8095 110.327 47.5466 110.31 47.5322 109.963Z" fill="white"/>
<path id="&#60;Path&#62;_8" d="M58.5558 105.942C58.4438 106.254 58.3729 106.489 58.2707 106.748C58.1586 107.06 57.9185 107.203 57.6341 107.158C57.2857 107.028 56.9274 106.951 56.5691 106.874C56.053 106.786 55.517 106.803 55.0009 106.716C53.0416 106.372 50.2437 108.074 47.827 108.178C47.5853 108.189 47.3536 108.147 47.0905 108.129C47.2552 107.821 47.4344 107.86 47.6021 107.818C49.1787 107.79 51.2989 106.575 54.0365 106.039C54.834 105.907 55.2548 105.935 58.5558 105.942Z" fill="white"/>
<path id="&#60;Path&#62;_9" d="M47.9914 112.005C48.1998 111.887 48.3032 111.761 48.4081 111.768C49.3509 111.698 50.1744 111.276 51.0305 110.962C51.8342 110.644 52.5953 110.271 53.3891 110.006C54.1616 109.713 54.947 109.632 55.7339 109.685C56.0487 109.706 56.3848 109.755 56.7208 109.804C56.6501 110.038 56.4958 110.293 56.4889 110.611C56.4509 110.953 56.0129 111.162 55.6343 111.057C55.1081 110.89 52.2371 111.043 49.4589 111.971C49.1144 112.107 48.716 112.107 48.3389 112.135C48.2552 112.156 48.1914 112.072 47.9914 112.005Z" fill="white"/>
<path id="&#60;Path&#62;_10" d="M55.5845 112.026C55.8846 112.42 55.7223 112.997 55.3128 113.184C55.2286 113.205 55.0173 113.191 54.9959 113.162C54.8772 112.941 51.5943 112.908 50.9123 113.264C50.8496 113.313 50.6796 113.221 50.584 113.162C50.6567 113.06 50.6865 112.901 50.7807 112.827C51.0218 112.683 51.2744 112.62 51.5369 112.504C53.1765 111.892 54.8222 111.815 55.5845 112.026Z" fill="white"/>
<path id="&#60;Path&#62;_11" d="M39.3994 104.73C38.5428 105.725 37.6792 106.711 36.8086 107.688C35.7292 108.931 33.868 111.937 34.1436 113.271C34.1549 113.35 34.1874 113.458 34.1987 113.537C34.1579 113.613 34.0552 113.738 34.0242 113.762C33.92 113.755 33.7425 113.717 33.7213 113.69C33.676 113.371 33.6209 113.104 33.6489 112.817C33.7872 111.248 34.9535 109.405 35.9905 108.107C36.3803 107.58 36.8645 107.113 37.3275 106.618C37.9763 105.977 38.6561 105.312 39.3359 104.647C39.3641 104.684 39.3853 104.712 39.3994 104.73Z" fill="white"/>
<path id="&#60;Path&#62;_12" d="M48.3895 115.562C48.544 115.307 48.7653 115.401 48.9326 115.359C49.5084 115.265 50.0202 115.087 50.542 114.856C51.3558 114.486 52.191 114.144 53.0489 113.963C53.5821 113.813 54.1708 113.932 54.748 113.97C54.853 113.977 54.9595 114.117 54.9709 114.197C54.9199 114.327 54.8279 114.533 54.7343 114.606C54.5046 114.697 54.2536 114.76 54.0125 114.77C53.6779 114.854 53.3531 114.885 52.9971 114.941C52.6724 114.972 52.3803 115.112 52.0639 114.958C51.8852 114.92 51.6243 115.035 51.4258 115.101C50.6317 115.367 49.8491 115.712 48.9896 115.761C48.7485 115.771 48.5287 115.81 48.3895 115.562Z" fill="white"/>
<path id="&#60;Path&#62;_13" d="M45.2379 137.1C46.7057 133.792 48.7185 130.939 51.2638 128.331C51.2778 128.35 51.3092 128.369 51.3579 128.39C51.1325 128.654 50.9174 128.911 50.7125 129.159C49.9452 130.156 49.1989 131.181 48.5046 132.209C47.8623 133.24 47.3027 134.251 46.6393 135.255C46.3125 135.731 46.1837 136.272 45.9299 136.779C45.7672 137.083 45.7672 137.083 45.2379 137.1Z" fill="white"/>
<path id="&#60;Path&#62;_14" d="M53.1498 128.118C52.8335 128.541 52.569 128.967 52.2834 129.367C51.3344 130.636 50.3951 131.853 49.4671 133.15C49.1101 133.649 48.8163 134.23 48.4804 134.757C48.1679 134.605 48.1145 134.471 48.2671 134.22C48.4196 133.969 48.645 133.749 48.7976 133.498C49.2665 132.823 49.7143 132.122 50.214 131.423C50.5612 130.976 50.9084 130.529 51.2458 130.133C51.6951 129.562 52.1347 129.043 52.6051 128.5C52.7381 128.352 52.965 128.262 53.1498 128.118Z" fill="white"/>
<path id="&#60;Path&#62;_15" d="M53.9738 116.435C53.7138 116.55 53.444 116.717 53.1417 116.776C52.2444 116.901 51.3797 117.134 50.4953 117.471C50.0898 117.655 49.6518 117.731 49.1827 117.832C49.0683 117.877 48.9425 117.842 48.7856 117.832C48.7614 117.54 48.9592 117.474 49.157 117.408C49.8436 117.137 50.5302 116.865 51.2069 116.647C51.6859 116.494 52.1762 116.421 52.6355 116.372C53.0735 116.296 53.4918 116.324 53.9412 116.327C53.9488 116.381 53.9596 116.417 53.9738 116.435Z" fill="white"/>
<path id="&#60;Path&#62;_16" d="M66.011 125.796C65.7754 126.202 65.4634 126.313 65.1613 126.372C63.6521 126.799 62.1231 127.33 60.57 127.57C60.5493 127.586 60.5286 127.602 60.5079 127.618C60.3511 127.608 60.1535 127.674 60.1406 127.462C60.1278 127.25 60.2943 127.208 60.4609 127.167C60.9956 127.044 61.5302 126.921 62.0648 126.799C63.3454 126.462 64.5949 126.15 66.011 125.796Z" fill="white"/>
<path id="&#60;Path&#62;_17" d="M28.4414 106.787C27.0926 107.308 24.7864 107.685 24.2098 107.779C24.1332 107.81 24.0494 107.831 23.9585 107.842C23.7384 107.881 23.6219 107.793 23.6089 107.58C23.596 107.366 23.7636 107.324 23.9311 107.283C28.9212 106.5 27.9456 106.594 28.4399 106.654C28.4333 106.689 28.4338 106.733 28.4414 106.787Z" fill="white"/>
<path id="&#60;Path&#62;_18" d="M56.9423 131.663C56.4001 132.133 55.7908 132.252 55.1601 132.344C54.4667 132.484 53.7933 132.519 53.1198 132.554C52.6571 132.603 52.6571 132.603 52.5983 132.066C54.059 131.817 55.4831 132.045 56.9423 131.663Z" fill="white"/>
<path id="&#60;Path&#62;_19" d="M54.7791 127.142C54.7285 127.271 54.7202 127.454 54.6386 127.607C53.8505 128.844 53.0525 130.132 52.2644 131.369C52.1519 131.546 52.0816 131.778 51.969 131.955C51.8874 132.107 51.8058 132.26 51.6524 132.513C51.4703 132.079 51.5081 131.74 51.6925 131.463C52.7073 130.004 53.7432 128.573 54.8101 127.118L54.7791 127.142Z" fill="white"/>
<path id="&#60;Path&#62;_20" d="M46.2593 126.943C45.4407 127.315 44.6834 127.505 43.9245 127.561C40.6151 127.821 41.1453 127.135 42.0212 127.167C43.3722 127.23 44.7331 127.241 46.1208 126.826C46.1208 126.826 46.1637 126.883 46.2593 126.943Z" fill="white"/>
<path id="&#60;Path&#62;_21" d="M43.3098 122.824C43.0511 123.914 41.7554 126.436 40.9885 126.859C40.8894 126.404 40.574 127.095 42.7236 123.549C42.8462 123.32 42.9052 123.008 43.3098 122.824Z" fill="white"/>
<path id="&#60;Path&#62;_22" d="M42.1924 105.372C41.0529 106.929 39.7977 108.399 39.3395 110.265C39.0589 110.351 38.9841 110.188 39.0234 109.98C39.0726 109.72 39.1739 109.463 39.3063 109.182C39.8681 108.166 40.4511 107.178 41.2541 106.284C41.5739 105.989 41.8302 105.611 42.0767 105.285C42.105 105.322 42.1435 105.351 42.1924 105.372Z" fill="white"/>
<path id="&#60;Path&#62;_23" d="M24.7806 103.541C24.4242 104.308 24.4764 104.311 22.9518 106.925C22.8292 107.154 22.718 107.463 22.3934 107.362C22.1945 107.296 22.2648 107.063 22.5213 106.685C23.2499 105.627 24.4704 103.784 24.686 103.482C24.7142 103.519 24.7457 103.539 24.7806 103.541Z" fill="white"/>
<path id="&#60;Path&#62;_24" d="M42.461 109.821C41.4052 110.822 38.6025 112.177 37.9015 111.581C37.9323 111.557 40.1331 111.025 41.524 110.334C41.8433 110.172 42.1416 109.983 42.461 109.821Z" fill="white"/>
<path id="&#60;Path&#62;_25" d="M47.2977 120.037C47.1869 121.325 45.9992 123.546 45.3234 123.897C45.0914 123.723 45.2256 123.573 45.3599 123.424C45.7611 122.842 46.1312 122.285 46.4801 121.701C46.7471 121.269 46.9094 120.83 47.1028 120.367C47.1782 120.249 47.2431 120.139 47.2977 120.037Z" fill="white"/>
<path id="&#60;Path&#62;_26" d="M45.2279 121.798C45.1673 121.978 45.1801 122.19 45.0983 122.343C44.7302 123.031 44.3098 123.716 43.9106 124.428C43.8697 124.505 43.7978 124.606 43.6834 124.651C43.6213 124.699 43.5168 124.692 43.4335 124.713C43.4319 124.581 43.3683 124.498 43.4092 124.421C43.666 124.043 43.9751 123.667 44.2318 123.288C44.5083 122.805 44.7946 122.27 45.0711 121.787C45.1267 121.773 45.1789 121.777 45.2279 121.798Z" fill="white"/>
<path id="&#60;Path&#62;_27" d="M41.2705 108.665C41.2547 108.192 41.6469 107.929 41.9447 107.608C41.8597 108.057 41.635 108.41 41.2705 108.665Z" fill="white"/>
<path id="&#60;Path&#62;_28" d="M52.979 128.121C53.2032 127.77 53.4344 127.428 53.6726 127.095C53.7006 127.132 53.739 127.16 53.7876 127.181C53.5008 127.493 53.2313 127.807 52.979 128.121Z" fill="white"/>
<path id="&#60;Path&#62;_29" d="M55.3038 126.203C55.352 126.135 55.4106 126.06 55.4796 125.976C55.4938 125.995 55.5183 126.005 55.5533 126.007C55.4843 126.091 55.4153 126.175 55.3464 126.259C55.3322 126.24 55.318 126.221 55.3038 126.203Z" fill="white"/>
<path id="&#60;Path&#62;_30" d="M54.6652 127.118C54.7672 126.95 54.8763 126.792 54.9924 126.642C55.005 126.853 54.8407 127.025 54.6343 127.142L54.6652 127.118Z" fill="white"/>
<path id="&#60;Path&#62;_31" d="M42.0122 116.56C42.1146 116.48 42.2067 116.408 42.2885 116.344C42.3025 116.363 42.3164 116.381 42.3304 116.399C42.2485 116.463 42.1666 116.527 42.0848 116.59C42.0708 116.572 42.0466 116.562 42.0122 116.56Z" fill="white"/>
<path id="&#60;Path&#62;_32" d="M44.7425 121.213C44.8034 121.166 44.8745 121.11 44.9556 121.047C44.9695 121.065 44.9764 121.074 44.9764 121.074C44.8952 121.137 44.8242 121.193 44.7633 121.24C44.7494 121.222 44.7425 121.213 44.7425 121.213Z" fill="white"/>
<path id="&#60;Path&#62;_33" d="M16.5224 69.9182C16.3133 70.607 15.8525 70.9668 15.3917 71.3265C14.4185 72.0425 13.3516 72.7002 12.848 73.8379C12.7573 74.0401 12.6974 74.2183 12.6067 74.4205C12.6552 74.4411 12.6934 74.4697 12.7214 74.5062C12.8959 74.4137 13.1222 74.3247 13.2758 74.2048C14.2476 73.3586 15.1774 72.4575 16.0653 71.5015C16.4631 71.0595 16.882 70.645 17.4027 70.107C17.4364 70.3435 17.5203 70.4532 17.4491 70.5526C17.2873 70.8542 17.1367 71.2346 16.8812 71.4778C15.8397 72.5537 14.9128 73.7153 13.7455 74.6266C13.6226 74.7225 13.4998 74.8184 13.4286 74.9178C12.8269 75.6065 12.0575 76.0758 11.2558 76.4388C10.9164 76.5724 10.5657 76.6271 10.1926 76.5241C9.79857 76.3937 9.67271 76.2292 9.78137 75.7939C9.91926 75.2044 10.1298 74.6458 10.6618 74.1867C10.6618 74.1867 11.0387 73.7173 14.1915 71.1684C14.7445 70.7367 15.3184 70.3325 15.9455 70.0619C16.1201 69.9695 16.2752 69.9798 16.5224 69.9182Z" fill="white"/>
<path id="&#60;Path&#62;_34" d="M24.2079 98.1277C23.0648 98.7997 22.5626 99.1938 19.8362 99.8938C18.9312 100.154 18.0446 100.175 17.1765 99.9566C16.4782 99.8298 15.9882 99.4496 15.4768 99.0412C15.4554 99.013 15.4026 99.0095 15.4125 98.9567C15.3972 98.8488 15.3924 98.7326 15.398 98.6083C15.535 98.5907 15.6506 98.545 15.7249 98.5766C15.9515 98.6987 16.1572 98.8372 16.342 98.9921C18.112 100.527 20.474 99.3483 23.5656 98.2719C23.7654 98.205 23.9438 98.11 24.1536 97.9904C24.1612 98.0444 24.1793 98.0901 24.2079 98.1277Z" fill="white"/>
<path id="&#60;Path&#62;_35" d="M33.9217 75.7214C33.4286 75.7948 32.9356 75.8682 32.4737 75.9171C31.56 75.9624 30.6904 76.1968 29.8422 76.4593C29.4756 76.5677 29.0763 76.5676 28.7097 76.6761C28.1574 76.781 27.6194 76.9046 27.0956 77.0469C26.8753 77.0854 26.7176 77.0748 26.6833 76.8332C26.6917 76.6477 26.8167 76.5496 26.9843 76.5077C27.5925 76.3887 28.1902 76.278 28.7776 76.1754C29.1967 76.0705 29.606 76.018 29.9825 75.8571C30.6417 75.6086 31.2811 75.4652 31.9433 75.4828C32.49 75.5016 33.0263 75.5286 33.5521 75.5637C33.6885 75.5462 33.815 75.5813 33.9415 75.6163C33.9349 75.6513 33.9283 75.6863 33.9217 75.7214Z" fill="white"/>
<path id="&#60;Path&#62;_36" d="M14.4413 97.0028C13.2261 95.8646 16.4286 90.6876 18.3997 89.3658C18.3277 89.4667 18.308 89.5711 18.2049 89.6964C16.8205 91.1366 15.2898 93.492 14.4413 97.0028Z" fill="white"/>
<path id="&#60;Path&#62;_37" d="M23.7855 96.6175C21.8915 98.1921 19.7706 98.2896 17.4623 98.5341C16.8429 98.5725 16.2548 98.5863 15.7871 98.1032C15.8135 97.9633 15.8607 97.8069 15.9288 97.6343C16.0865 97.6448 16.2229 97.6274 16.3181 97.6869C16.6891 97.9774 17.1721 97.9566 17.6452 97.9882C20.9553 98.0764 23.1791 96.8694 23.7855 96.6175Z" fill="white"/>
<path id="&#60;Path&#62;_38" d="M20.5449 88.7471C19.8885 89.5701 19.1898 90.3377 18.5545 91.1884C16.5672 93.8926 15.7839 96.362 15.7839 96.362C15.5162 95.6874 16.113 94.2038 16.5627 93.4983C17.3693 92.16 18.2912 90.9081 19.3807 89.7463C19.7406 89.3763 20.1427 89.0617 20.5026 88.6917C20.5167 88.7102 20.5308 88.7286 20.5449 88.7471Z" fill="white"/>
<path id="&#60;Path&#62;_39" d="M24.6944 94.4873C24.3762 94.9136 23.931 95.1735 23.5281 95.4888C21.9166 96.7503 20.1283 97.1312 18.2607 96.9538C18.0732 96.9676 17.8956 96.9294 17.749 96.867C17.6545 96.808 17.5797 96.6451 17.6417 96.5966C17.6613 96.4926 17.8163 96.3713 17.9206 96.3782C18.5449 96.2883 20.8698 97.2597 24.1041 94.8164C24.2694 94.6871 24.4314 94.575 24.5901 94.4803C24.6211 94.456 24.6211 94.456 24.6944 94.4873Z" fill="white"/>
<path id="&#60;Path&#62;_40" d="M32.9983 73.0981C32.4496 73.3505 31.87 73.6272 31.3214 73.8796C30.3788 74.2634 29.4151 74.6195 28.4514 74.9756C28.2235 75.0654 27.9956 75.1553 27.7775 75.1933C27.6424 75.2106 27.4017 75.0894 27.4115 75.0375C27.441 74.8818 27.5436 74.7573 27.656 74.5809C27.687 74.5567 27.7391 74.5601 27.8221 74.5394C29.2947 74.0946 30.7569 73.658 32.2089 73.2294C32.4579 73.1671 32.707 73.1049 32.956 73.0427C32.9701 73.0612 32.9842 73.0796 32.9983 73.0981Z" fill="white"/>
<path id="&#60;Path&#62;_41" d="M23.7726 93.7261C23.3311 94.2483 22.8052 94.6598 22.2046 94.9087C21.6968 95.085 18.8877 96.0008 18.8817 95.475C18.8772 95.0806 19.2529 95.1845 20.2391 94.9876C21.4954 94.7563 22.6573 94.466 23.7726 93.7261Z" fill="white"/>
<path id="&#60;Path&#62;_42" d="M21.218 89.3039C19.9512 91.2667 18.3903 92.9737 17.5215 95.1993C17.2471 94.8397 17.3678 94.4803 17.5306 94.1762C17.7652 93.7719 18.0208 93.3952 18.3073 92.9944C18.7437 92.3586 19.1974 91.7239 19.6684 91.0904C20.0884 90.541 20.5197 90.071 20.9609 89.5493C21.0016 89.4732 21.1252 89.3765 21.218 89.3039Z" fill="white"/>
<path id="&#60;Path&#62;_43" d="M32.7898 96.2554C32.6512 96.0086 32.7543 95.8834 32.9308 95.7896C33.9293 95.4074 34.9376 94.9731 36.0452 94.9943C36.0974 94.9978 36.1399 95.0534 36.2868 95.116C35.0482 95.5085 33.9452 95.8837 32.7898 96.2554Z" fill="white"/>
<path id="&#60;Path&#62;_44" d="M31.6925 71.539C31.1259 72.0265 30.4748 72.4033 29.8011 72.621C29.5424 72.735 29.2512 72.7418 28.9909 72.7245C28.9079 72.7452 28.8332 72.5826 28.7699 72.4996C28.8627 72.427 28.9343 72.3267 29.0581 72.2299C29.089 72.2057 29.2142 72.2403 29.2874 72.2715C29.8291 72.3339 30.2847 72.1542 30.791 71.8465C31.0286 71.7048 31.2874 71.5907 31.5462 71.4766C31.5771 71.4524 31.6193 71.5078 31.6925 71.539Z" fill="white"/>
</g>
</svg>
