<svg width="78" height="73" viewBox="0 0 78 73" fill="none" xmlns="http://www.w3.org/2000/svg">
<g id="&#60;Group&#62;">
<path id="&#60;Compound Path&#62;" fill-rule="evenodd" clip-rule="evenodd" d="M75.4709 9.55096C77.0606 9.87613 77.9277 11.2852 78 12.7666C78 13.453 77.9277 14.1395 77.9277 14.826C77.9277 14.9705 77.8916 15.115 77.8916 15.2595C77.9277 16.6325 77.9639 18.0416 77.9639 19.4145C77.9639 20.3178 77.8916 21.221 77.8555 22.1243C77.8194 23.6418 77.7832 25.1954 77.8194 26.7128C77.8194 28.158 77.9277 29.5671 77.9277 31.0123C77.9639 31.7711 77.7832 32.5659 77.8916 33.3247C78 34.1195 77.7471 34.6254 77.2413 35.2034C76.1212 36.4319 74.9289 37.4796 73.3031 38.0216C72.2192 38.3829 71.1353 38.7442 70.0152 39.1416C68.8229 39.5391 67.6306 40.0088 66.3661 40.2978C64.8847 40.6952 63.3672 40.9481 61.8859 41.201C61.0188 41.3456 60.1517 41.4179 59.2484 41.4901C57.6948 41.5624 56.1412 41.5985 54.5876 41.6708C53.576 41.7069 52.5643 41.8153 51.5527 41.8875C51.0468 41.9237 50.541 41.8875 50.0352 41.8875C48.6141 41.8394 47.1809 41.8032 45.7357 41.7791C44.9408 41.743 44.146 41.6708 43.3511 41.7069C41.2194 41.7791 39.0877 41.4901 36.956 41.4901C36.1973 41.454 35.4747 41.3094 34.716 41.201C34.4269 41.1649 34.1379 41.2011 33.8488 41.1649C33.8247 41.2131 33.8007 41.2733 33.7766 41.3456C34.174 41.7069 34.5353 42.1043 34.9327 42.4295C35.9083 43.1521 36.8476 43.9108 37.9677 44.4166C38.329 44.5973 38.6542 44.9225 39.0155 45.1393C40.3523 46.0064 41.653 46.8735 42.9898 47.7406C43.3511 47.9574 43.7485 48.0297 44.0737 48.2103C45.1215 48.8607 46.0609 49.5833 47.1086 50.1614C48.1925 50.7756 49.1319 51.5343 50.1797 52.1847C51.1191 52.7627 51.4804 53.7383 51.914 54.6415C51.9501 54.7138 51.9501 54.8222 51.914 54.8944C51.6611 55.7977 51.6249 56.7732 51.0107 57.5681C50.5771 58.1823 50.0713 58.7604 49.9268 59.5191C49.8907 59.6636 49.8184 59.772 49.7461 59.8804C48.59 61.7953 47.4338 63.7102 46.2776 65.589C45.6273 66.6367 44.9408 67.6123 44.2543 68.6239C43.893 69.1659 43.5679 69.7439 43.2066 70.2859C42.5924 71.1169 41.9781 71.9479 40.9665 72.3815C40.7136 72.4899 40.3884 72.5621 40.0994 72.5621C39.2322 72.526 38.4374 72.2731 37.7148 71.8034C35.9083 70.6111 34.0656 69.4549 32.2591 68.2265C31.4642 67.6845 30.8139 66.9619 30.3803 66.0948C29.9106 65.0832 29.0435 64.5051 28.2125 63.8909C26.948 62.9515 25.575 62.0844 24.2743 61.1811C22.6846 60.1333 21.0949 59.0494 19.5413 57.9655C17.7709 56.7371 15.9282 55.5809 14.3746 54.0634C13.2546 52.9795 12.0262 52.0401 10.87 51.0646C10.6893 50.9201 10.4364 50.9201 10.1835 50.8478C10.0751 50.5949 9.93061 50.2698 9.74996 49.9807C9.00327 48.9932 8.16023 48.0899 7.22084 47.271C6.89567 47.018 6.64276 46.6206 6.35372 46.2593C5.55885 45.2476 4.69172 44.2721 3.96912 43.2244C3.3549 42.285 2.81295 41.2733 2.30713 40.2617C1.87356 39.3945 1.50022 38.4913 1.18709 37.5519C0.934179 36.8654 0.825787 36.1067 0.681266 35.3841C0.536745 34.6615 0.464485 33.9389 0.139312 33.2885C-0.14973 32.7466 0.0670525 32.1324 0.283834 31.5904C0.861918 30.1091 1.47613 28.5916 2.05421 27.1103C2.271 26.6044 2.34326 26.0264 2.52391 25.5205C2.92134 24.545 3.31877 23.5695 3.75234 22.594C3.78847 22.4494 3.86073 22.3049 3.93299 22.1604C4.76398 19.9203 5.59498 17.6803 6.4621 15.4763C6.89567 14.4647 7.36536 13.4891 7.97958 12.5498C8.55766 11.6465 8.95509 10.671 9.46092 9.73161C9.71383 9.26191 10.0029 8.75608 10.328 8.32252C10.9423 7.56378 11.8816 7.41926 12.8572 7.05796C12.8572 7.38313 12.8933 7.63606 12.821 7.81671C12.6404 8.21414 12.4597 8.6477 12.1707 9.009C11.8455 9.40644 11.6649 9.84 11.7733 10.4542C12.0262 10.1652 12.2068 9.94839 12.4597 9.62322C12.532 9.80387 12.6042 9.87612 12.6042 9.94838C12.7126 10.4903 12.7488 11.0684 12.8933 11.5742C13.0378 12.0801 13.3269 12.5136 13.7604 12.8749C14.9166 13.9589 16.2895 14.5731 17.7709 15.0066C18.5296 15.2595 19.2883 15.5486 20.0471 15.8015C21.1792 16.1387 22.3112 16.4759 23.4433 16.8131C24.5272 17.1022 25.6473 17.4274 26.7312 17.6803C28.1764 17.9693 29.5855 18.2222 31.0307 18.4751C32.0423 18.6919 33.054 18.8726 34.0656 19.0171C34.9689 19.1616 35.836 19.2339 36.7031 19.3422C37.4619 19.4506 38.2206 19.5229 38.9432 19.5952C39.991 19.6674 41.0388 19.8842 42.0865 19.5952C42.484 19.4868 42.9537 19.559 43.3872 19.5229C44.4711 19.5229 45.555 19.559 46.6389 19.4868C47.6506 19.4145 48.6622 19.27 49.71 19.1616C50.3965 19.1255 51.0468 19.1255 51.7333 19.1255C53.323 19.1255 54.9128 18.9448 56.4664 18.6919C58.9232 18.3306 61.344 17.9693 63.8008 17.5719C64.8125 17.3912 65.788 17.066 66.7635 16.777C66.8719 16.7409 66.9442 16.6325 67.0525 16.5602C67.1971 16.4157 67.3416 16.2712 67.5222 16.2351C68.5339 15.9099 69.5455 15.6208 70.521 15.2595C71.0991 15.0427 71.5688 14.6453 72.0746 14.3563C72.2673 14.2358 72.46 14.1154 72.6527 13.995C73.2308 13.6337 73.2669 13.5614 73.0502 12.7304C72.7973 12.8388 72.5805 12.9472 72.3637 13.0556C71.4243 13.6698 70.3404 13.9588 69.2926 14.2479C68.2328 14.561 67.1609 14.8621 66.077 15.1511C65.0292 15.4402 63.9815 15.7292 62.8976 15.9821C62.2111 16.1267 61.4885 16.1989 60.8381 16.3434C59.5013 16.6686 58.2006 17.1022 56.8638 17.3551C55.9605 17.5357 54.985 17.5357 54.0095 17.5357C52.1067 17.5598 50.2038 17.5719 48.3009 17.5719C45.6996 17.5357 43.0982 17.5719 40.5329 17.4996C39.0155 17.4274 37.5341 17.1383 36.0167 17.0299C33.885 16.8854 31.7533 16.8131 29.6216 16.6686C29.0435 16.6325 28.4654 16.4518 27.9235 16.3434C26.695 16.0905 25.4666 15.8376 24.2382 15.5847C23.6601 15.4763 23.0459 15.4402 22.4678 15.2957C21.3116 15.0066 20.1555 14.6092 19.1077 14.0311C18.3851 13.6337 17.7347 13.2362 16.9038 13.0917C16.0728 12.9833 15.314 12.5859 14.6998 12.0078C14.483 11.8151 14.2662 11.6345 14.0495 11.4659C13.363 10.96 13.0017 10.3097 13.0017 9.40643C13.0017 8.28639 13.2185 7.34701 14.3385 6.76892C14.8082 6.55214 15.1695 6.11858 15.6392 5.86567C16.145 5.57662 16.6508 5.35984 17.2651 5.25145C18.096 5.0708 18.8909 4.63724 19.6858 4.31207C19.758 4.31207 19.7942 4.20367 19.7942 3.98689C19.2522 4.09528 18.6741 4.16755 18.1322 4.31207C17.5902 4.42046 17.0844 4.67337 16.5786 4.85402C16.0366 5.07081 15.5308 5.35986 14.9888 5.54051C14.5192 5.72116 14.1217 6.15471 13.5798 6.22697C13.5557 6.1788 13.5316 6.11858 13.5075 6.04632C13.6159 5.93793 13.6882 5.75729 13.7965 5.72116C14.5192 5.32373 15.2779 5.03468 15.9644 4.63725C16.9399 4.05917 18.0238 3.84238 19.1077 3.58946C21.0587 3.11977 23.0098 2.54169 24.9608 2.21652C27.2009 1.81909 29.4771 1.6023 31.7172 1.53004C33.3069 1.45778 34.8966 1.27714 36.4863 1.20488C38.341 1.08444 40.1957 1.00013 42.0504 0.951961C43.4595 0.8797 44.8324 0.879687 46.2054 0.915817C47.6867 0.951947 49.1319 1.06036 50.5771 1.20488C53.1785 1.45779 55.7438 1.7107 58.3451 2.03587C59.5374 2.18039 60.7297 2.39718 61.922 2.65009C63.5479 2.97526 65.1738 3.30042 66.7996 3.69785C67.6667 3.91463 68.57 4.23981 69.4371 4.56499C70.3043 4.85403 71.2075 5.1792 72.0385 5.57663C72.7611 5.9018 73.4837 6.26311 74.1702 6.7328C74.676 7.05797 75.0373 7.5638 75.1457 8.17801C75.2662 8.63566 75.3745 9.09331 75.4709 9.55096ZM34.3908 67.4316C34.439 67.3594 34.4992 67.2991 34.5714 67.251C35.1254 67.5882 35.6915 67.9254 36.2696 68.2626C36.5225 68.4071 36.7393 68.6601 36.956 68.6962C37.4257 68.7684 37.6786 69.0214 37.9677 69.3104C38.2206 69.5272 38.4735 69.7078 38.7626 69.8885C39.0877 70.0691 39.4129 69.9969 39.7019 69.7801C40.0271 69.4549 40.3884 69.1659 40.6413 68.8046C41.111 68.1542 41.5446 67.4678 41.9781 66.8174C42.0865 66.6729 42.1949 66.4922 42.3033 66.3838C42.3756 66.3477 42.5562 66.2755 42.6285 66.3477C42.7369 66.42 42.8453 66.5645 42.8453 66.6729C42.8453 66.8174 42.7369 66.9619 42.6285 67.0703C42.2431 67.6725 41.8457 68.2747 41.4362 68.8768C40.8581 69.7078 40.28 70.5749 39.1239 70.8279C39.7381 71.1892 40.28 71.1169 40.7136 70.5388C41.4362 69.5633 42.1227 68.5155 42.773 67.4678C43.2427 66.6729 43.604 65.8058 44.146 65.0832C44.6879 64.3606 45.1576 63.6379 45.555 62.8431C46.2776 61.3617 47.0725 59.9527 48.048 58.6158C48.8429 57.5319 49.6378 56.3758 50.1797 55.1112C50.3242 54.7499 50.3604 54.3525 50.3965 53.955C50.4326 53.8828 50.3242 53.8467 50.2881 53.7744C50.1797 53.8467 50.0352 53.9189 49.8907 53.9912C49.6378 53.7021 49.5294 53.2324 48.9513 53.2324C49.0235 53.377 49.0235 53.4853 49.0597 53.5215C49.6016 54.0996 49.4932 54.7499 49.1681 55.3641C48.8068 56.1228 48.3371 56.8816 47.8674 57.6403C47.7951 57.7487 47.5783 57.8571 47.4699 57.821C47.2532 57.7487 47.217 57.5319 47.3254 57.3152C47.6145 56.8455 47.9396 56.3758 48.1925 55.9061C48.4093 55.5448 48.6261 55.1473 48.7345 54.7499C48.8068 54.5692 48.7706 54.2802 48.6261 54.1357C48.0842 53.5576 47.5422 52.9073 46.8919 52.4737C45.6273 51.6066 44.4711 50.6672 43.3872 49.5471C43.4234 49.4026 43.4956 49.222 43.5317 49.0413C42.8814 48.5716 42.0504 48.4271 41.1471 48.5355C39.449 48.7523 38.6542 50.053 39.0516 51.5343C39.0877 51.7511 39.1239 52.004 39.16 52.2208C39.3406 52.8711 39.0516 53.2324 38.3651 53.3047C37.2451 53.4131 36.1612 53.7021 35.1495 54.2802C33.6321 55.1835 32.9817 56.99 33.5237 58.7242C33.5598 58.941 33.7404 59.2301 33.6321 59.3746C33.4153 59.7359 33.4875 60.0972 33.5237 60.4585C33.054 60.4946 32.6565 60.4946 32.2952 60.603C31.7894 60.7475 31.2836 60.9643 31.1752 61.5785C31.1391 61.723 31.0668 61.8676 30.9584 61.9759C30.4165 62.554 30.5249 63.2766 30.4887 63.9631C30.4887 64.216 30.6694 64.5773 30.85 64.758C31.9821 65.9141 33.1262 67.0342 34.2824 68.1181C34.716 68.5517 35.2218 68.8768 35.8721 68.9491C35.3904 68.4433 34.8966 67.9374 34.3908 67.4316ZM14.0495 19.6313C14.0495 19.6313 14.0495 19.6192 14.0495 19.5952C14.0495 19.5952 14.0374 19.6072 14.0133 19.6313C14.0374 19.6313 14.0495 19.6313 14.0495 19.6313ZM14.194 19.27C14.2422 18.2824 14.2662 17.2828 14.2662 16.2712C14.2662 16.1628 14.1217 16.0544 13.9772 15.8737C13.9772 17.1022 13.9772 18.1861 13.9772 19.2339C13.9772 19.3422 14.0133 19.4868 14.0495 19.5952C14.0856 19.4868 14.1579 19.3784 14.194 19.27ZM13.9411 20.9681C13.9411 21.1849 14.0133 21.4378 14.1217 21.6546C14.6275 22.4133 15.1334 23.1359 15.7115 23.8585C16.1811 24.5089 16.7592 25.1231 17.2651 25.7373C17.3373 25.7132 17.4096 25.6891 17.4818 25.665C17.6264 24.3282 17.5902 22.9553 17.5541 21.5823C17.518 20.2094 17.5541 18.8364 17.5541 17.319C17.0844 18.2583 17.1205 19.1255 17.1567 20.0287C17.0121 19.7758 16.8676 19.559 16.8676 19.3061C16.7592 18.6558 16.7231 18.0054 16.6508 17.3551C16.6508 17.2106 16.5424 17.0661 16.4341 16.8493C16.0005 17.319 15.9644 17.8609 15.8921 18.2945C15.7837 18.7642 15.9282 19.3061 16.0005 19.7758C15.7837 19.6674 15.6031 19.5229 15.5669 19.3061C15.4706 18.8726 15.4224 18.427 15.4224 17.9693C15.4224 17.608 15.5308 17.2106 15.5669 16.8493C15.6031 16.4518 15.4224 16.3796 15.0611 16.4518C14.9888 16.9938 14.9166 17.4996 14.8805 18.0416C14.8443 18.6196 14.6275 19.1616 14.8805 19.7397C14.9166 19.812 14.8443 20.0287 14.7721 20.0648C14.6998 20.101 14.5192 20.101 14.4108 20.0287C14.2662 19.9203 14.1578 19.7758 14.0495 19.6313C14.0133 20.0649 13.9411 20.4984 13.9411 20.9681ZM9.3164 16.5241C9.29231 16.5241 9.28026 16.5241 9.28026 16.5241C9.28026 16.5482 9.28026 16.5723 9.28026 16.5964C9.28026 16.5723 9.29231 16.5602 9.3164 16.5602C9.3164 16.5361 9.3164 16.5241 9.3164 16.5241ZM8.62992 17.6441C8.59379 18.0054 8.34088 18.15 8.05184 18.1138C7.72667 18.1138 7.79893 17.8248 7.79893 17.608C7.47376 17.4635 7.22084 17.4273 7.11245 17.2467C6.85954 17.0299 7.14858 16.8131 7.25697 16.5964C7.61828 15.7051 7.97958 14.8019 8.34088 13.8866C8.44927 13.6337 8.4854 13.3808 8.52153 13.1279C7.94345 13.6337 7.61827 14.284 7.36536 14.9344C6.82341 16.2351 6.35371 17.5719 5.84789 18.8726C5.16142 20.6429 4.47494 22.3772 3.78847 24.1476C3.31877 25.4483 2.84908 26.749 2.37939 27.9774C2.92134 28.6277 2.92134 28.5916 2.52391 29.2058C2.30713 29.531 2.05422 29.8562 1.9097 30.2175C1.72904 30.6149 1.44 30.9762 1.47613 31.5904C1.62065 31.3736 1.69291 31.3014 1.72904 31.193C2.09035 30.6149 2.41552 30.0729 2.74069 29.4949C2.92134 29.2058 3.13812 29.0252 3.60782 29.2058C3.10199 29.6394 2.66843 30.0368 2.52391 30.6872C2.74069 30.7594 2.92134 30.8317 3.13812 30.9039C2.52391 31.5904 1.98195 32.2769 1.87356 33.2524C2.23487 32.855 2.48778 32.5298 2.77682 32.2408C2.9936 32.024 3.21038 31.8795 3.46329 32.2046C2.19874 33.6137 1.44 34.9866 1.51226 35.7815C2.05421 34.7699 2.34326 33.5776 3.68008 33.3969C4.43881 32.1685 4.80012 30.7955 5.16142 29.4587C5.23368 29.2419 5.30594 29.0252 5.3782 28.8084C5.76359 27.8449 6.16102 26.8935 6.5705 25.9541C6.95588 24.9906 7.34127 24.0272 7.72666 23.0637C8.1241 22.1604 8.44927 21.221 8.8467 20.2816C9.30435 19.2218 9.78609 18.174 10.2919 17.1383C10.4364 16.8131 10.5448 16.5602 10.4003 16.1267C10.2197 16.3796 10.039 16.5602 9.93061 16.777C9.42479 17.7525 8.95509 18.728 8.4854 19.6674C8.41314 19.8119 8.30475 19.9203 8.08797 20.1371C8.05184 19.4145 8.26862 18.9448 8.4854 18.4751C8.75036 17.8489 9.01531 17.2226 9.28026 16.5964C8.88283 16.8493 8.66605 17.1744 8.62992 17.6441ZM7.79893 17.608C7.82301 17.608 7.83505 17.608 7.83505 17.608C7.83505 17.608 7.82301 17.596 7.79893 17.5719C7.79893 17.596 7.79893 17.608 7.79893 17.608ZM10.1474 15.4402C10.2197 15.3318 10.1474 15.1511 10.1474 14.8621C9.85835 15.2595 9.64157 15.4763 9.53318 15.7292C9.42478 15.9821 9.13575 16.1989 9.3164 16.5241C9.56931 16.1628 9.89448 15.8015 10.1474 15.4402ZM50.6133 3.37269C50.6374 3.44495 50.6614 3.52924 50.6855 3.62559C50.3965 3.66172 50.1074 3.73399 49.8184 3.73399C49.3126 3.77012 48.7706 3.77011 48.2648 3.80624C47.9035 3.80624 47.5422 3.84238 47.1809 3.84238C45.6634 3.91464 44.1098 3.5172 42.5562 3.8785C42.484 3.8785 42.4117 3.8785 42.3394 3.8785C40.7136 3.91463 39.1239 3.87851 37.498 4.13142C36.4863 4.27594 35.4024 4.31207 34.3547 4.38433C32.9817 4.50477 31.6088 4.63724 30.2358 4.78176C28.7545 4.92628 27.2731 5.10694 25.8279 5.28759C24.9969 5.39598 24.2021 5.68502 23.3711 5.75728C21.4562 5.9018 19.8303 6.87732 18.1683 7.63606C17.9515 7.74445 17.7347 7.85283 17.5902 8.03348C17.1567 8.50317 16.7231 9.009 16.7954 9.73161C16.976 10.9962 17.7347 11.7549 18.9993 12.333C18.7825 11.7549 18.6741 11.2852 18.4935 10.8516C18.2767 10.3819 18.349 10.0206 18.6019 9.58708C19.0716 8.68382 19.7942 8.17801 20.6974 7.81671C21.6368 7.41928 22.6123 7.13023 23.5878 6.76892C25.9363 5.86567 28.3932 5.68502 30.85 5.75728C31.7894 5.75728 32.7288 5.72115 33.6682 5.68502C34.3547 5.64888 35.0411 5.46825 35.6915 5.54051C36.4623 5.63685 37.233 5.6248 38.0038 5.50436C39.2684 5.32371 40.5329 5.25145 41.7975 5.32371C42.3394 5.35984 42.8814 5.32371 43.4234 5.32371C44.146 5.32371 44.8324 5.28758 45.555 5.32371C46.7473 5.32371 47.9758 5.39598 49.1681 5.46824C49.2765 5.46824 49.3848 5.50438 49.6378 5.54051C49.3848 5.68503 49.2765 5.82955 49.1681 5.82955C48.6984 5.86567 48.1926 5.82955 47.7229 5.82955C46.4944 5.82955 45.266 5.81749 44.0376 5.7934C43.2427 5.76931 42.4358 5.75728 41.6168 5.75728C40.7136 5.72115 39.8465 5.72116 38.9432 5.90181C38.1483 6.08246 37.3173 6.11857 36.5225 6.1547C35.9805 6.19083 35.4386 6.04633 34.8966 6.08246C33.4514 6.22698 32.0423 6.33536 30.5971 6.29923C29.4771 6.29923 28.3932 6.44375 27.2731 6.58827C25.5389 6.76892 23.913 7.34702 22.3233 8.06962C21.3478 8.53932 20.589 9.18965 20.1555 10.2013C19.6858 11.3213 20.1193 12.6582 21.2032 13.2362C21.8536 13.5975 22.5762 13.8866 23.2627 14.1395C24.8765 14.7417 26.5385 15.1752 28.2486 15.4402C29.1519 15.5486 30.019 15.8015 30.9223 15.9099C32.9456 16.1267 34.9689 16.3434 36.9922 16.5241C39.9187 16.8493 42.8814 16.9577 45.808 16.9215C46.0247 16.9215 46.2054 16.8854 46.4222 16.8493C46.3138 16.3434 45.9886 16.4157 45.7357 16.4157C45.0131 16.3434 44.2543 16.3073 43.5317 16.2351C43.2066 16.2351 42.8814 16.1267 42.4478 15.8015C42.8091 15.7654 42.9898 15.6931 43.1704 15.6931C43.4234 15.6931 43.6763 15.7292 43.9292 15.7292C45.0853 15.681 46.2415 15.6208 47.3977 15.5486C48.1925 15.5124 48.9513 15.4763 49.7461 15.4041C50.252 15.3318 50.7939 15.1511 51.2997 15.0428C50.7217 14.8982 50.1797 14.8621 49.6016 14.8982C49.1319 14.8982 48.6984 14.9705 48.2648 15.0066C47.6386 15.0548 47.0123 15.0909 46.386 15.115C45.3985 15.1391 44.4109 15.1511 43.4234 15.1511C42.3033 15.1511 41.1833 15.0789 40.0271 15.1511C38.7264 15.2234 37.498 15.0066 36.2334 14.6815C35.6192 14.5008 35.1495 14.0672 34.7882 13.5614C34.4269 13.0195 34.4992 12.5498 35.0411 12.2607C35.6192 11.9356 36.2334 11.6104 36.8476 11.3936C38.3651 10.8155 39.8826 10.4542 41.5084 10.4542C41.7252 10.4542 41.942 10.4181 42.1949 10.3819C43.5679 10.2374 44.977 10.0568 46.386 10.2013C47.4338 10.2736 48.4455 10.3097 49.4932 10.3819C51.083 10.4542 52.7088 10.1652 54.2263 10.9239C54.3708 10.9962 54.5876 10.96 54.7321 11.0323C55.4547 11.2491 56.1412 11.502 56.8638 11.9355C56.7193 12.1523 56.5748 12.2968 56.4664 12.4775C56.1773 12.2968 55.9967 12.1162 55.7799 12.0078C54.8044 11.5381 53.7927 11.3213 52.745 11.2129C50.7578 10.9962 48.7706 10.96 46.7835 11.2129C45.6996 11.3213 44.6157 11.3213 43.5679 11.4659C42.6044 11.5622 41.653 11.7067 40.7136 11.8994C40.0632 12.0078 39.3768 12.1885 38.7626 12.4414C38.4735 12.5498 38.0399 12.7304 38.0399 13.1279C38.0761 13.6337 38.5458 13.7421 38.9071 13.8866C38.9793 13.9588 39.0877 13.9589 39.1961 13.9589C39.7381 13.995 40.28 14.0672 40.8581 14.0672C41.6168 14.0672 42.4117 14.0311 43.2066 14.1034C44.7963 14.1756 46.386 14.4285 48.0119 14.1756C48.048 14.1756 48.1203 14.2118 48.1564 14.2118C48.6261 14.2479 49.0597 14.3201 49.4932 14.284C50.7578 14.2479 52.0224 14.1395 53.2869 14.0672C53.5037 14.0672 53.7566 13.995 53.865 14.3563C53.3953 15.0066 52.5643 14.6092 51.8417 15.0428C52.4198 15.115 52.8533 15.2595 53.2869 15.2234C54.5515 15.1511 55.7076 14.6815 56.7554 14.0672C57.478 13.6337 57.7309 12.9833 57.6225 12.0801C57.9477 12.1523 58.309 12.1162 58.4174 12.2968C58.7787 12.9472 59.0677 13.6337 58.8148 14.4285C58.5258 15.2234 57.8755 15.5847 57.1529 15.7654C56.2857 15.9821 55.3825 16.0544 54.4792 16.1628C53.8289 16.235 53.1785 16.3796 52.6004 16.7047C53.7566 16.9577 54.9489 16.8493 56.1051 16.777C56.6832 16.7409 57.2612 16.5964 57.8032 16.3796C58.7065 16.0544 59.6097 15.6208 60.513 15.2595C61.1994 14.9705 61.5969 14.4647 61.7775 13.7782C61.922 13.2362 61.8136 12.9833 61.344 12.7666C60.9104 12.5498 60.4768 12.3691 60.0433 12.2246C59.2484 11.9356 58.4535 11.6465 57.6948 11.3575C57.9838 11.2129 58.3452 11.0684 58.5981 11.1768C59.682 11.502 60.7659 11.6826 61.7414 12.2607C62.5363 12.7304 62.6808 13.164 62.3556 14.0311C62.2472 14.3202 62.1027 14.6453 61.922 15.0789C62.8614 14.6814 63.3672 14.1034 63.6924 13.3446C63.9815 12.6943 64.0176 12.0078 63.4395 11.4659C63.4034 11.3936 63.4034 11.3213 63.4034 11.2491C63.9092 11.0684 64.1621 11.1768 64.3428 11.6104C64.6679 12.3691 64.4873 13.0556 64.126 13.7421C63.9453 14.0672 63.6924 14.4285 63.4756 14.7537C63.9815 14.6453 64.415 14.5008 64.7402 14.2118C65.4628 13.6337 65.9686 12.8749 65.8602 11.9355C65.6796 10.5626 64.8125 9.37031 63.2589 9.18965C62.9337 9.15352 62.6446 9.04514 62.3556 8.97288C62.3556 8.90062 62.3677 8.8404 62.3917 8.79223C63.3673 8.57545 64.3066 8.79222 65.1015 9.37031C66.3661 10.2736 66.8719 11.5743 66.4383 13.2362C67.4138 12.7666 67.8113 12.0078 68.2448 11.1768C68.6061 11.6465 68.4616 11.9717 68.2087 12.2607C67.9678 12.5739 67.727 12.8749 67.4861 13.164C67.5343 13.2122 67.5825 13.2483 67.6306 13.2724C67.8113 13.1278 68.0642 13.0556 68.2448 12.8749C68.6423 12.4775 69.112 12.0078 69.0758 11.4297C69.0036 10.6349 68.7145 9.87614 67.9197 9.51484C67.3055 9.18966 66.6912 8.90061 66.077 8.6477C65.4267 8.35866 64.7763 8.06962 64.0899 7.88897C63.7286 7.81671 63.295 8.06962 62.9698 7.9251C62.6085 7.74444 62.2833 7.5638 61.8498 7.52767C61.5246 7.52767 61.2356 7.45541 60.9104 7.34702C60.802 7.31089 60.7297 7.16636 60.5852 6.94957C61.2717 7.02183 61.8137 7.13023 62.3195 7.0941C63.3673 7.05797 64.3066 7.31089 65.246 7.70832C66.2577 8.10576 67.2332 8.57544 68.281 8.90062C68.8952 9.1174 69.2926 9.51482 69.5094 10.129C69.5817 10.3819 69.7262 10.6349 69.8707 10.8878C69.9189 10.8637 69.9791 10.8516 70.0513 10.8516C70.0513 10.3458 70.1959 9.80388 70.0513 9.33418C69.943 8.86449 69.5455 8.46705 69.2565 7.99736C69.943 7.99736 70.3404 8.46704 70.9185 9.58708C71.5688 10.8516 71.0269 11.9356 70.3043 12.9472C70.3404 12.9472 70.4127 12.9833 70.4488 12.9472C71.7495 12.4775 72.8334 11.7188 73.7005 10.5987C74.2786 9.87614 74.4231 9.15353 74.0618 8.35866C73.8089 7.85284 73.4476 7.38315 73.1224 6.91345C73.0502 6.80506 72.8695 6.76893 72.725 6.7328C72.2914 6.55215 71.8217 6.40762 71.3882 6.22697C70.5933 5.82954 69.7984 5.43211 68.9674 5.03467C68.9313 4.99854 68.8229 5.03468 68.7507 4.99855C68.4255 4.92629 68.1365 4.85403 67.8113 4.74564C67.2332 4.56499 66.6912 4.31207 66.077 4.20368C64.3428 3.84238 62.5724 3.5172 60.8381 3.1559C59.9349 3.01138 59.0678 2.83072 58.1645 2.72233C57.0445 2.54168 55.9244 2.43331 54.8044 2.28878C54.0095 2.18039 53.2508 2.03586 52.492 1.9636C50.7337 1.81908 48.9754 1.69865 47.217 1.6023C45.8079 1.53004 44.3989 1.45778 42.9898 1.49391C41.5446 1.53004 40.0994 1.71068 38.618 1.63842C37.7509 1.63842 36.8838 1.74681 36.0167 1.81907C35.1134 1.89133 34.2463 1.99974 33.3791 2.10813C32.9456 2.14426 32.4759 2.18039 32.0423 2.21652C31.5726 2.21652 31.1391 2.18038 30.6694 2.18038C29.9106 2.25264 29.1519 2.28877 28.4293 2.43329C27.4177 2.61394 26.3699 2.54169 25.4666 3.22816C25.3582 3.30042 25.1776 3.30043 25.0331 3.30043C24.3827 3.2643 23.8046 3.55333 23.2627 3.80624C23.07 3.90258 22.8773 3.98689 22.6846 4.05915C21.0949 4.60111 19.5051 5.1792 17.9154 5.72116C17.4457 5.90181 16.9038 6.04631 16.4702 6.33536C15.6031 6.80505 14.6998 7.31088 14.5553 8.46705C14.483 9.37031 14.6998 10.0929 15.4947 10.7794C15.5669 10.2374 15.6031 9.83999 15.6753 9.40643C15.7114 8.82834 15.8921 8.32253 16.3257 7.9251C17.0121 7.27475 17.807 6.69666 18.6741 6.33536C20.0471 5.7934 21.4562 5.46823 22.8652 5.14306C26.0086 4.38433 29.188 4.16755 32.3675 3.95077C34.3547 3.80625 36.3418 3.58946 38.329 3.44493C38.4976 3.42085 38.6782 3.39678 38.8709 3.37269C40.4245 3.33656 42.0143 3.55333 43.604 3.26428C44.0376 3.19202 44.5073 3.26429 44.9408 3.33655C46.2054 3.48107 47.4338 3.58947 48.6984 3.37269C49.3126 3.30043 49.9991 3.37269 50.6133 3.37269ZM47.6145 41.0565C47.6506 40.912 47.759 40.7675 47.759 40.623C47.8794 39.6836 47.9878 38.7321 48.0842 37.7687C48.1203 37.5158 48.1203 37.2267 48.1925 36.9738C48.2287 36.8654 48.3732 36.7932 48.4816 36.6848C48.5538 36.8293 48.6261 36.9738 48.6984 37.1183C48.6984 37.1183 48.6622 37.1545 48.6622 37.1906C48.5538 38.0216 48.4455 38.8526 48.3732 39.7197C48.3371 40.1533 48.3371 40.623 48.6261 41.0204C48.9152 41.0204 49.1801 41.0204 49.421 41.0204C49.6739 39.3945 49.0235 22.2327 48.6984 20.932C48.3009 20.8959 47.9035 20.6429 47.3616 20.932C47.3616 21.2933 47.3616 21.6907 47.3616 22.0882C47.3616 23.0516 47.3736 24.003 47.3977 24.9424C47.3977 25.1953 47.3616 25.4121 47.0003 25.376C46.9521 23.8826 46.9039 22.4013 46.8557 20.932C46.2054 20.7513 46.0247 20.7875 45.9886 21.1126C45.8802 22.3049 45.6634 23.4611 45.9525 24.6534C46.0247 24.9786 46.097 25.2676 45.6273 25.5928C45.5912 25.5205 45.555 25.4121 45.5189 25.3399C45.1576 23.9308 45.3021 22.5217 45.4828 21.1488C44.6157 20.8958 44.435 20.9681 44.3266 21.7269C44.1821 22.5217 44.1821 23.3166 44.0737 24.1114C44.0255 24.545 43.9653 24.9665 43.893 25.376C43.8569 25.4483 43.7124 25.5205 43.4956 25.665C43.3872 24.1114 43.604 22.6662 43.7124 21.221C43.5679 21.1849 43.4595 21.1488 43.3872 21.1488C42.7369 21.1126 42.7369 21.1488 42.5924 21.763C42.4478 22.4856 42.4117 23.2082 42.5201 23.9308C42.5562 24.3282 42.5562 24.7618 42.484 25.1231C42.4478 25.4844 42.3033 25.8096 42.1588 26.1348C42.1588 26.207 41.942 26.2431 41.8336 26.2431C41.7975 26.207 41.6891 26.0986 41.6891 25.9902C41.653 25.8818 41.6891 25.7373 41.6891 25.6289C41.9059 24.6173 41.8698 23.5695 41.8336 22.5578C41.8336 22.0882 41.8336 21.6185 41.8336 21.0765C40.8581 20.7875 39.7742 20.8597 38.6903 20.8959C38.329 20.8959 38.2567 21.1126 38.1483 21.4017C37.8232 22.6301 37.8232 23.8224 37.9677 25.0508C38.0038 25.4121 37.9677 25.7012 37.498 25.8096C37.3173 24.1837 37.498 22.594 37.6425 20.9681C36.7393 20.6068 35.9083 20.4984 35.0411 20.4623C34.6437 21.2572 34.7521 22.052 34.716 22.8108C34.6798 23.3166 34.716 23.8224 34.7882 24.2921C34.8605 24.834 34.8244 24.9063 34.1379 25.0508C34.1017 24.7618 34.0295 24.5089 34.0295 24.2198C34.1017 23.0998 34.2101 21.9798 34.3185 20.8597C34.3547 20.39 34.2824 20.3539 33.8488 20.2816C33.2708 20.1733 33.0901 20.2455 33.0178 20.6791C32.8733 21.8352 32.9456 22.9553 33.1624 24.1114C33.2708 24.7257 33.1624 25.0147 32.4036 25.3399C32.4036 24.545 32.4036 23.7863 32.4036 23.0275C32.3555 23.0275 32.3073 23.0275 32.2591 23.0275C32.1507 24.3644 32.1146 25.665 32.1507 27.0019C32.2591 29.1335 32.3314 31.2652 32.4036 33.3969C32.4036 34.1557 32.3314 34.9144 32.2952 35.6731C32.2711 36.5643 32.2711 37.4676 32.2952 38.3829C32.2952 38.7081 32.4036 38.9971 32.4398 39.3223C32.4879 39.3223 32.5481 39.3102 32.6204 39.2862C32.6565 38.7081 32.6927 38.0939 32.7288 37.5158C32.7649 37.1545 32.8011 36.9377 33.3069 36.9016C33.343 37.9855 33.1262 39.0694 33.0178 40.1894C33.4153 40.2617 33.7404 40.2978 34.1379 40.3339C34.2463 39.5029 34.3185 38.7803 34.4269 38.0216C34.4631 37.7687 34.5353 37.5519 34.6437 37.299C34.6437 37.2267 34.8244 37.1545 34.9327 37.1545C35.005 37.1545 35.1134 37.299 35.1495 37.4074C35.1857 37.5158 35.1495 37.6603 35.1134 37.7687C34.8244 38.6358 34.8244 39.5391 34.8605 40.4423C35.0773 40.5146 35.2218 40.5146 35.2579 40.2617C35.3302 39.7197 35.4386 39.2139 35.4747 38.7081C35.547 38.2384 35.547 37.8048 35.6553 37.3351C35.6553 37.1906 35.836 37.0822 35.9444 36.9738C36.0889 37.0822 36.2696 37.2267 36.3057 37.3713C36.378 37.588 36.3057 37.8048 36.2696 38.0216C36.0528 38.8526 35.9444 39.7197 36.1612 40.623C36.5586 40.623 36.9199 40.623 37.2812 40.623C37.2812 39.9365 37.3173 39.2861 37.2812 38.6719C37.2812 38.2384 37.209 37.8048 37.209 37.4074C37.209 37.2629 37.3535 37.0461 37.4257 37.0461C37.5703 37.0822 37.787 37.1906 37.8232 37.299C37.8954 37.5519 37.8954 37.8409 37.8954 38.13C37.8954 38.7081 37.8232 39.3223 38.1122 39.9004C38.2206 40.1533 38.1845 40.4423 37.787 40.4784C37.7148 40.5146 37.6425 40.5868 37.5341 40.6591C38.7264 40.8759 38.8348 40.8036 38.8709 39.7558C38.9432 38.2745 39.0516 36.7932 39.16 35.3118C39.16 35.1312 39.2322 34.9144 39.3045 34.7337C39.3406 34.6615 39.4852 34.517 39.5574 34.517C39.7019 34.5531 39.8465 34.6615 39.9187 34.7337C39.991 34.806 39.9549 34.9505 39.9549 35.0589C40.0271 36.1067 40.0994 37.1545 40.0994 38.2022C40.0994 38.8526 39.9548 39.5029 39.9187 40.1533C39.8465 40.6591 39.991 40.7675 40.6413 40.7675C40.6413 40.4423 40.6052 40.081 40.6413 39.7197C40.6775 39.0332 40.7136 38.3829 40.7858 37.6964C40.822 37.5519 41.0026 37.3351 41.111 37.299C41.4001 37.2629 41.4001 37.5158 41.4001 37.7326C41.376 38.5997 41.3639 39.4548 41.3639 40.2978C41.3278 40.4784 41.4001 40.623 41.4001 40.8397C41.6891 40.8397 41.942 40.8397 42.1949 40.8397C42.2311 40.6591 42.3033 40.5146 42.3033 40.3339C42.3756 39.5391 42.4238 38.7322 42.4478 37.9132C42.4478 37.588 42.4478 37.2267 42.9898 37.3351C43.1343 37.9132 42.9898 38.4552 42.9175 39.0332C42.8814 39.6113 42.8091 40.2255 42.773 40.8397C43.0982 40.8397 43.315 40.8397 43.5317 40.8397C43.8569 39.792 44.0737 38.7442 44.0014 37.6603C43.9653 37.5158 44.146 37.3713 44.2182 37.2629C44.3266 37.3713 44.5434 37.4435 44.5434 37.588C44.5795 37.9132 44.5795 38.2745 44.5434 38.6358C44.5073 39.3584 44.3989 40.1171 44.3266 40.912C44.8324 40.9481 45.266 40.9843 45.808 41.0204C45.808 39.9004 45.808 38.8887 45.808 37.8409C45.808 37.299 45.9525 37.1906 46.5306 37.3713C46.4944 38.5997 46.4944 39.792 46.4583 41.0565C46.7955 41.0565 47.1809 41.0565 47.6145 41.0565ZM19.0716 47.4516C19.0354 47.5961 18.9993 47.6684 18.927 47.7406C18.2406 48.6439 17.7709 49.6194 17.3373 50.6311C17.1205 51.173 16.7231 51.6066 16.4702 52.1124C16.1811 52.7627 15.9282 53.4131 15.6753 54.0634C15.6392 54.1357 15.6753 54.208 15.6392 54.3163C15.7837 54.4247 15.9644 54.5331 16.1811 54.7138C16.4702 54.3163 16.7592 53.9912 16.976 53.5937C17.3012 53.1241 17.518 52.5821 17.8431 52.1124C18.1683 51.6066 18.5296 51.1369 19.2161 50.9562C19.2883 51.6788 18.638 51.8595 18.349 52.293C18.0599 52.7627 17.7347 53.2324 17.4818 53.7021C17.2289 54.208 17.0483 54.7138 16.8315 55.2557C17.1567 55.4725 17.4096 55.6532 17.6986 55.8699C17.807 55.6893 17.8793 55.5809 17.9154 55.4725C18.3851 54.6054 18.8548 53.7383 19.3245 52.9073C19.4329 52.7266 19.6496 52.5821 19.8303 52.4376C19.9748 52.293 20.1916 52.2569 20.3723 52.4737C20.4927 52.6664 20.4566 52.835 20.2639 52.9795C19.3967 53.666 19.0354 54.6415 18.638 55.5809C18.4212 56.0867 18.638 56.4841 19.1438 56.7371C19.2161 56.6287 19.3245 56.5203 19.3967 56.3758C19.758 55.6531 20.0832 54.9305 20.4806 54.2079C20.6974 53.8466 20.9865 53.5215 21.2755 53.2324C21.3478 53.1602 21.6368 53.3047 21.7813 53.3408C21.7452 53.4853 21.7452 53.666 21.6368 53.7744C20.6974 54.5331 20.2639 55.617 19.8303 56.7009C19.6135 57.2068 19.7219 57.279 20.3 57.5681C20.4084 57.3513 20.5168 57.1345 20.6252 56.9177C21.0106 56.1951 21.408 55.4846 21.8175 54.786C21.9861 54.497 22.1667 54.2079 22.3594 53.9189C22.5039 53.7021 22.6485 53.6299 22.9014 53.9189C22.1788 55.1835 21.6729 56.5926 20.589 57.7487C21.0949 58.1462 21.5284 58.5436 22.1788 58.7242C22.5401 58.0739 22.9014 57.4958 23.2265 56.8816C24.1298 55.2196 24.9969 53.5215 25.8641 51.8595C26.5144 50.5949 27.1647 49.2942 27.8873 48.0658C28.7545 46.5483 29.6577 45.067 30.561 43.5857C30.9223 42.9714 31.3197 42.3572 31.7172 41.743C32.0423 41.2372 32.0062 41.0927 31.5004 40.7314C31.4281 40.6591 31.3197 40.623 31.1391 40.5146C30.4887 41.7069 30.1635 43.0798 28.7906 43.8386C28.7545 43.5857 28.7183 43.4411 28.7545 43.3689C28.9713 43.0437 29.1519 42.7185 29.4048 42.4656C30.019 41.8514 30.3442 41.0565 30.6694 40.3339C30.7055 40.2617 30.6332 40.1533 30.5971 40.0088C30.4165 40.1533 30.2358 40.2255 30.1636 40.3701C29.5855 41.2613 29.0194 42.1525 28.4654 43.0437C28.4293 43.0798 28.3932 43.1882 28.357 43.2244C28.2486 43.2966 28.1041 43.3689 27.9957 43.405C27.9235 43.2966 27.779 43.1521 27.8151 43.0437C27.8873 42.7547 27.9957 42.4656 28.1764 42.2127C28.61 41.5624 29.0796 40.912 29.5493 40.2256C30.0913 39.5029 29.9829 39.2139 29.0796 38.8887C28.4293 39.8281 27.7428 40.8036 27.0563 41.7791C26.948 41.8875 26.7673 41.9598 26.6228 42.0682C26.5746 42.0441 26.5264 42.02 26.4783 41.9959C26.5144 41.7791 26.4783 41.5624 26.5505 41.3817C26.7312 41.0927 26.948 40.8398 27.1286 40.5869C27.6706 39.8642 28.1764 39.1416 28.7906 38.3106C28.5016 37.9855 28.2125 37.6964 27.9596 37.4435C27.3454 37.9493 26.948 38.4552 26.6589 38.9971C26.418 39.3825 26.1892 39.7679 25.9724 40.1533C25.8279 40.4062 25.6473 40.5507 25.3582 40.4062C25.3582 39.792 26.406 38.0216 27.3815 37.0822C27.1286 36.8654 26.9118 36.6486 26.5867 36.3957C26.0447 37.2267 25.3944 37.9493 24.9608 38.8165C24.8163 39.1055 24.7079 39.3946 24.1659 39.3223C24.3466 37.841 25.5389 37.0099 26.2254 35.8538C26.0086 35.637 25.8641 35.4202 25.6473 35.2034C25.4666 35.3841 25.3221 35.4925 25.2498 35.6009C24.6958 36.5162 24.1539 37.4315 23.624 38.3468C23.1543 39.1778 22.793 40.081 22.3233 40.912C22.1426 41.2011 22.0342 41.5262 21.5646 41.4178C21.5646 41.2733 21.5646 41.1288 21.6007 40.9843C21.8175 40.4785 22.0342 39.9726 22.2149 39.4668C22.3955 38.9971 22.9014 38.5636 22.5039 37.9855C22.4317 37.9493 22.5039 37.8048 22.5401 37.7326C22.7207 37.3713 22.8652 37.0461 23.082 36.7209C23.4433 36.0706 23.8769 35.4564 24.2743 34.806C24.4188 34.5531 24.744 34.264 24.2021 33.9389C23.9853 34.1918 23.7324 34.4447 23.5517 34.7337C23.2988 35.1673 23.082 35.637 22.8291 36.0706C22.6485 36.3596 22.4678 36.6486 22.2149 36.9377C22.1788 37.0099 21.9259 37.01 21.8536 36.9738C21.7452 36.9016 21.7452 36.6848 21.7452 36.5764C21.7813 36.468 21.8897 36.3596 21.962 36.2873C22.5039 35.4925 23.0098 34.7337 23.5517 33.975C23.7444 33.71 23.7324 33.4692 23.5156 33.2524C23.3711 33.1079 23.1904 33.0356 22.9736 32.8911C22.8652 33.0717 22.7207 33.1801 22.6485 33.3247C22.1667 34.1436 21.7091 34.9626 21.2755 35.7815C21.1671 35.9622 21.131 36.2151 20.8781 36.1067C20.589 35.9983 20.6252 35.7454 20.7336 35.5286C20.9142 35.2034 21.0226 34.8783 21.2032 34.5892C21.6007 33.9027 22.0342 33.2163 22.5039 32.4575C22.2149 32.2408 21.9259 32.024 21.6007 31.7349C20.9865 32.8188 20.4084 33.7944 19.8664 34.7699C19.7219 35.0589 19.5413 35.2034 19.2161 35.0589C19.18 34.9866 19.1438 34.9144 19.18 34.8421C19.6135 33.5414 20.4806 32.5298 21.3116 31.4098C21.0587 31.193 20.8058 31.0123 20.5529 30.7955C20.4084 30.9762 20.3 31.0846 20.2639 31.193C19.758 32.0601 19.2522 32.9272 18.8187 33.8305C18.638 34.1195 18.4935 34.3724 17.9877 34.1918C18.7103 32.8911 19.4329 31.6265 20.1916 30.362C19.9387 30.0729 19.7219 29.82 19.4329 29.4949C19.2522 29.7839 19.1077 29.9645 19.0354 30.1813C18.1683 32.1324 17.3734 34.0834 16.4702 35.9983C15.7115 37.588 14.9888 39.1778 14.3385 40.8036C13.7604 42.3211 12.7849 43.6218 12.3875 45.2115C12.3152 45.4644 12.2429 45.6812 12.0984 46.0425C12.3513 45.8619 12.4959 45.7896 12.6404 45.6812C12.7608 45.6089 12.8933 45.5367 13.0378 45.4644C12.0984 46.9458 11.3397 48.4271 10.8339 50.0891C10.9784 50.0409 11.0747 49.9687 11.1229 49.8723C11.6287 48.9329 12.1707 47.9935 12.6765 47.0542C12.821 46.7651 13.0378 46.5483 13.2185 46.3316C13.3991 46.1509 13.5798 46.1148 13.7965 46.3677C13.5436 46.6929 13.2546 47.018 13.0378 47.3793C12.5681 48.2103 12.1346 49.0413 11.701 49.9085C11.6046 50.0771 11.5324 50.2577 11.4842 50.4504C11.3758 50.7033 11.5203 50.9201 11.7371 51.0285C11.9539 51.1007 12.1346 51.0285 12.2429 50.8117C12.3513 50.5949 12.532 50.342 12.6404 50.0891C12.9656 49.4749 13.2546 48.8245 13.6159 48.2464C13.8688 47.8129 14.2301 47.4516 14.5192 47.0542C15.025 47.4155 15.0611 47.56 14.7721 47.9213C14.5914 48.1742 14.3385 48.391 14.1217 48.6439C13.4352 49.4749 13.1101 50.4865 12.6404 51.4259C12.6042 51.5343 12.7488 51.715 12.7849 51.8595C13.4714 51.6066 13.6882 51.0285 14.0133 50.5227C14.4108 49.8723 14.8443 49.222 15.3501 48.6077C15.6031 48.2464 15.7115 48.2826 16.1089 48.6439C15.6031 49.2942 15.0611 49.9807 14.5553 50.6672C14.3746 50.9201 14.2301 51.173 14.1217 51.4621C13.9772 51.8234 13.9049 52.2208 13.7965 52.6905C14.0856 52.9434 14.4469 53.2324 14.8805 53.5576C15.6392 52.1847 16.3257 50.884 17.0483 49.5833C17.3373 49.0413 17.6264 48.4632 17.9877 47.9574C18.2044 47.5961 18.5296 47.271 19.0716 47.4516ZM56.358 27.6883C56.358 25.1954 56.358 22.7024 56.358 20.2094C55.9606 20.101 55.8522 20.2455 55.8522 20.5346C55.816 20.8959 55.816 21.221 55.816 21.5823C55.8401 22.5217 55.8762 23.4491 55.9244 24.3644C55.9244 24.7257 55.8883 25.0147 55.3825 25.0508C55.3825 23.4611 55.3825 21.9075 55.3825 20.3539C54.7321 20.1371 54.5876 20.1733 54.5515 20.5707C54.4792 21.2933 54.4431 22.0159 54.4431 22.7385C54.4431 23.425 54.5153 24.1476 54.5515 24.834C54.5515 24.9786 54.4069 25.1231 54.3347 25.2676C54.2263 25.1231 54.0818 25.0147 54.0095 24.9063C53.9734 24.8341 53.9734 24.7618 53.9734 24.6895C53.9493 23.5815 53.9252 22.4735 53.9011 21.3656C53.9011 21.0404 53.9011 20.7152 53.9011 20.2816C53.6482 20.4262 53.3953 20.4984 53.3592 20.6068C53.2147 21.0404 53.034 21.4739 53.034 21.9075C52.9979 22.883 53.034 23.8585 53.0701 24.8702C53.0701 25.087 53.1063 25.3037 52.7811 25.4844C52.7088 25.3399 52.5643 25.2315 52.5282 25.087C52.4559 24.7257 52.4198 24.3764 52.4198 24.0392C52.4559 23.0637 52.492 22.1243 52.492 21.1488C52.5282 20.6068 52.3837 20.4984 51.8056 20.6429C51.7333 20.6429 51.661 20.6791 51.6249 20.7152C51.2997 21.2572 51.3359 21.8352 51.372 22.4133C51.4081 23.2082 51.4081 24.0392 51.4804 24.834C51.5165 25.3037 51.3359 25.6289 50.9746 25.8818C50.6133 25.7373 50.6855 25.4844 50.6855 25.2315C50.7337 23.9549 50.7698 22.6662 50.7939 21.3656C50.7939 21.221 50.7217 21.0404 50.6855 20.8959C50.0352 20.8597 49.8545 21.0042 49.8545 21.6546C49.8907 22.4133 49.9991 23.2082 49.9629 23.9669C49.9268 25.5567 50.0713 27.1103 50.1797 28.6639C50.2881 30.4343 50.3965 32.2046 50.3604 33.975C50.3242 34.517 50.3965 35.0589 50.3965 35.5647C50.4326 36.5041 50.4688 37.4435 50.4688 38.3468C50.4688 38.9249 50.3965 39.4668 50.4326 40.0088C50.4688 40.4062 50.6133 40.8036 50.6855 41.201C50.8662 41.0204 50.9384 40.8759 50.9384 40.7314C51.0107 39.6475 51.083 38.5635 51.1191 37.4796C51.1552 37.1906 51.1191 36.8654 51.6611 36.8293C51.6611 37.1183 51.6972 37.3351 51.6611 37.588C51.5888 38.3106 51.4443 39.0332 51.372 39.7558C51.3359 40.2255 51.2997 40.6952 51.6611 41.0927C52.0585 41.1288 52.1669 40.912 52.1669 40.5869C52.2391 39.792 52.2994 38.9971 52.3475 38.2022C52.3837 37.9493 52.3837 37.7326 52.4559 37.5158C52.5282 37.1906 52.745 37.1545 53.034 37.3713C53.0099 37.5639 52.9858 37.7566 52.9617 37.9493C52.8895 38.7081 52.7811 39.4668 52.7088 40.1894C52.6727 40.5146 52.6727 40.8036 53.1063 40.9843C53.1785 40.7675 53.2146 40.5869 53.2508 40.4062C53.3592 39.3946 53.4676 38.3468 53.576 37.3351C53.6121 37.0822 53.6843 36.757 54.0095 36.8293C54.3347 36.9016 54.2624 37.1906 54.1902 37.4435C54.154 37.4796 54.154 37.5158 54.154 37.5158C54.0095 38.3468 53.865 39.1778 53.7566 39.9726C53.7205 40.1894 53.7205 40.4062 53.7927 40.5869C53.8289 40.8398 54.0456 40.9843 54.3347 40.9843C54.6237 40.9481 54.7321 40.7675 54.7321 40.5146C54.7321 39.9365 54.7683 39.3584 54.8044 38.7803C54.8044 37.9493 54.7683 37.1545 54.8044 36.3596C54.8044 36.2151 54.985 35.9983 55.0934 35.9983C55.3463 35.9622 55.4547 36.1428 55.4186 36.3957C55.3463 37.5158 55.2741 38.5997 55.2379 39.7197C55.2379 40.1171 55.2741 40.4785 55.3102 40.9482C55.6354 40.912 55.816 40.8759 56.0689 40.8397C56.1412 39.6474 56.1773 38.4913 56.2135 37.3351C56.2496 36.5764 56.2135 35.8176 56.2496 35.0589C56.2857 34.7337 56.4302 34.4086 56.5386 34.0834C56.6109 33.9028 56.8999 33.9027 56.9722 34.1195C57.0083 34.2279 57.0445 34.3363 57.0445 34.4808C57.0445 35.3841 57.0083 36.2873 57.0083 37.1906C57.0083 38.2745 57.0083 39.3584 56.9722 40.4423C56.9722 40.8398 57.1528 40.9843 57.5864 40.8397C57.5864 40.6952 57.6225 40.5507 57.6587 40.4062C57.6828 39.2259 57.7189 38.0457 57.7671 36.8654C57.7671 36.757 57.7309 36.6125 57.8032 36.5764C57.9116 36.5041 58.1284 36.4319 58.2368 36.468C58.3452 36.5403 58.4535 36.757 58.4535 36.9016C58.4535 37.2267 58.3451 37.5519 58.309 37.8771C58.2006 38.672 58.02 39.4307 57.9477 40.2256C57.9116 40.6952 58.02 40.6952 58.5619 40.5869C58.6342 39.3343 58.7065 38.0938 58.7787 36.8654C58.8148 36.7209 58.8148 36.5764 58.851 36.4319C58.8871 36.3235 58.9955 36.2151 59.1039 36.2151C59.1761 36.1789 59.3568 36.2873 59.3929 36.3596C59.4291 36.5764 59.4291 36.8293 59.3929 37.0461C59.2484 38.0938 59.1039 39.1778 58.9955 40.1894C59.6097 40.8036 59.6097 40.8036 60.2962 40.5146C60.26 39.5752 60.2239 38.5997 60.1878 37.588C60.1878 37.1545 60.26 36.7209 60.2962 36.2512C60.3323 36.0344 60.4407 35.8176 60.6936 35.926C60.802 35.9622 60.8743 36.2151 60.9104 36.3596C60.9465 36.468 60.8743 36.5764 60.8743 36.6848C60.6214 37.7687 60.5852 38.8526 60.6213 39.9726C60.6213 40.5146 60.7297 40.623 61.3078 40.5869C61.8498 40.5146 62.3556 40.4423 62.8976 40.3701C63.1505 40.3339 63.4395 40.2978 63.6924 40.2256C64.0537 40.1172 64.126 39.792 63.8008 39.6475C63.5118 39.4668 63.4756 39.2861 63.4756 39.0332C63.4395 38.7442 63.4034 38.4552 63.4034 38.2022C63.4395 37.2267 63.5118 36.2151 63.5118 35.2396C63.5118 33.5053 63.4034 31.7711 63.3673 30.0368C63.3311 26.496 63.2589 22.9553 63.2227 19.3784C63.1866 19.1977 63.1505 19.0171 63.1143 18.7642C62.6447 18.8726 62.2472 18.9448 61.8498 19.0532C61.922 20.932 61.9943 22.7385 62.0304 24.5089C61.3801 22.8108 61.5246 20.9681 61.2717 19.1255C60.6575 19.2339 60.0794 19.3061 59.6097 19.4145C59.6097 19.8481 59.682 20.2455 59.6097 20.6429C59.4652 21.4739 59.5013 22.2688 59.6458 23.0998C59.682 23.3888 59.6097 23.714 59.5374 23.9669C59.5013 24.0753 59.3207 24.1476 59.1761 24.2198C59.1039 24.0753 58.9594 23.9308 58.9594 23.7863C58.9594 23.4972 59.0678 23.2082 59.0678 22.9191C59.0678 21.9436 59.0678 21.0042 59.0678 20.0287C59.0678 19.8842 59.0678 19.7036 59.0678 19.4507C58.309 19.5952 57.5864 19.6313 56.9722 19.9565C57.0445 20.3178 57.1529 20.6068 57.1529 20.8959C57.1529 22.0882 57.189 23.2805 57.1529 24.4366C57.1167 25.4121 57.0445 26.3515 57.0083 27.327C56.9722 27.6522 56.8277 27.8329 56.358 27.6883ZM46.2776 51.2091C46.097 50.884 45.8802 50.5949 45.4828 50.5949C45.6996 50.8478 45.8802 51.173 46.2776 51.2091ZM44.2905 49.6555C44.6157 50.0168 44.9047 50.4504 45.4105 50.5949C45.266 50.0168 44.6518 49.9807 44.2905 49.6555ZM9.82222 48.9329C9.89448 48.7884 9.96674 48.7162 10.0029 48.6439C10.87 46.5483 11.6649 44.4889 12.5681 42.4295C13.3991 40.5507 14.3385 38.7081 15.2056 36.8293C15.9041 35.3118 16.5906 33.7703 17.2651 32.2046C17.4457 31.7349 17.5541 31.2291 17.7347 30.5788C17.1928 31.1207 17.1928 31.8794 16.3979 32.2408C16.4702 31.9517 16.4341 31.7349 16.5063 31.5904C17.0483 30.651 17.5541 29.7116 18.0961 28.7723C18.1322 28.6639 18.2406 28.5916 18.2406 28.5193C18.2406 28.3748 18.1683 28.2664 18.1322 28.1219C18.0238 28.158 17.8793 28.1942 17.7347 28.2303C17.6625 28.3026 17.6625 28.411 17.5902 28.4832C17.0483 29.4226 16.5424 30.3259 16.0005 31.2291C15.9282 31.3736 15.7837 31.4459 15.6392 31.5543C15.591 31.5061 15.5428 31.47 15.4947 31.4459C15.5308 31.2291 15.5308 30.9762 15.6392 30.7955C16.1932 29.9043 16.7592 29.0131 17.3373 28.1219C17.6986 27.58 17.7347 27.5799 17.1567 27.1103C17.0844 27.1825 16.9399 27.2187 16.8676 27.327C16.3859 28.0737 15.9041 28.8325 15.4224 29.6032C15.2418 29.8562 15.1334 30.1452 14.9888 30.3981C14.8805 30.5065 14.6998 30.5065 14.5192 30.5426C14.5192 30.3981 14.4469 30.2175 14.5192 30.0729C14.8323 29.4949 15.1575 28.9288 15.4947 28.3748C15.8198 27.869 16.1811 27.327 16.5063 26.7851C16.7954 26.3154 16.7954 26.3154 16.2173 25.8457C15.7476 26.6044 15.314 27.3632 14.8443 28.1219C14.6275 28.4832 14.4469 28.8806 14.2301 29.2419C14.0856 29.4587 13.9049 29.531 13.6882 29.2781C14.3024 28.0858 14.9527 26.9657 15.5669 25.8096C15.9644 25.1231 15.8921 24.9063 15.0972 24.4005C14.6637 25.3037 14.194 26.1348 13.7965 27.038C13.2546 28.1942 12.7126 29.3503 12.0262 30.4342C11.8816 30.7233 11.6649 30.9039 11.2313 30.8317C11.3036 30.5426 11.3397 30.3259 11.4481 30.1091C11.8816 29.1697 12.3513 28.3026 12.7488 27.3632C13.1462 26.3876 13.5075 25.376 13.9049 24.4005C13.9411 24.256 13.9049 24.1115 13.9411 23.9669C13.0739 24.9786 12.3875 26.0263 12.0262 27.2909C11.6287 27.0741 11.701 26.7851 11.8094 26.5683C12.1707 25.8457 12.532 25.1592 12.8572 24.4366C13.1462 23.8585 13.4714 23.3166 14.0856 22.9914C14.1217 22.9914 14.1217 22.9191 14.1578 22.8469C13.8327 22.3411 13.7965 22.3411 13.3991 22.6662C13.2185 22.8108 13.0739 22.9914 12.9656 23.1721C12.7488 23.4972 12.532 23.8224 12.3875 24.1476C12.0262 24.9063 11.701 25.6651 11.412 26.4238C11.2313 26.8212 11.159 26.9296 10.581 26.8574C11.3397 25.0508 12.2429 23.3166 13.4352 21.6907C13.2907 21.5101 13.1462 21.3294 12.9294 21.0765C12.4597 21.6185 12.0262 22.0882 11.6649 22.6301C11.0145 23.4972 10.4726 24.4366 10.1474 25.4844C10.039 25.7373 9.64157 25.9541 9.49705 25.8457C9.17188 25.6289 9.38866 25.376 9.49705 25.1954C10.4726 23.6056 11.4119 22.052 12.4236 20.39C12.3513 20.2455 12.2309 19.9806 12.0623 19.5952C11.8455 19.8842 11.6287 20.0287 11.5203 20.2455C10.9784 21.2571 10.4364 22.2688 9.89448 23.2805C9.74996 23.4972 9.56931 23.6779 9.38866 23.8947C9.02735 23.6056 9.09961 23.3527 9.28026 23.0998C9.47296 22.7626 9.66566 22.4374 9.85835 22.1243C10.4003 21.0765 10.7977 19.9926 11.5565 19.0894C11.8094 18.8003 11.7733 18.6558 11.2674 18.2945C11.0868 18.6197 10.9061 18.9809 10.7255 19.3422C10.5448 19.6674 10.2919 19.9565 10.1113 20.2816C9.82222 20.8356 9.53318 21.4017 9.24414 21.9798C8.88284 22.7746 8.52153 23.5695 8.16023 24.3644C7.87119 25.0147 7.59419 25.6651 7.32923 26.3154C6.75115 27.6884 6.17307 29.0974 5.63111 30.5065C5.16142 31.6988 4.80011 32.9272 4.33042 34.1195C4.04138 34.9144 3.64395 35.7093 3.31877 36.468C3.21038 36.757 3.17425 37.0461 3.06586 37.3351C3.11404 37.3592 3.16221 37.3713 3.21038 37.3713C3.45125 36.9377 3.69212 36.5041 3.93299 36.0706C4.22203 35.5647 4.36655 35.4563 4.87238 35.4925C4.22203 36.3596 3.68008 37.299 3.46329 38.3829C3.75234 38.0577 3.93299 37.6964 4.22203 37.4074C4.51107 37.1183 4.65559 36.5764 5.23368 36.6486C5.23368 36.757 5.23368 36.8654 5.16142 36.9016C4.29429 37.7687 3.8246 38.8526 3.31877 39.9004C3.21038 40.1171 3.17425 40.4785 3.28264 40.6952C3.42716 41.1288 3.71621 41.5262 3.96912 41.9959C4.36655 41.6707 4.65559 41.3456 4.87238 40.9482C5.16142 40.4062 5.48659 39.9004 5.77563 39.3584C6.1008 38.8526 6.46211 38.3829 7.22084 38.7442C7.40149 38.3829 7.54601 38.0216 7.72666 37.6964C7.87118 37.4435 7.97958 37.1545 8.16023 36.9377C8.34088 36.6848 8.55766 36.6125 8.81057 36.7932C9.06348 36.9738 8.99123 37.2267 8.88284 37.4074C8.26862 38.2384 8.01571 39.2139 7.58214 40.1171C7.04019 41.3456 6.38985 42.5379 5.81176 43.7663C5.7395 43.9108 5.7395 44.0554 5.70337 44.1999C5.88402 44.0915 5.92015 44.0192 5.99241 43.9108C6.49824 43.0437 7.00406 42.1766 7.50988 41.3095C7.72667 40.9843 8.01571 40.6952 8.52153 40.8036C8.30475 41.0204 8.05184 41.2372 7.90731 41.4901C7.43762 42.3934 6.60663 43.1521 6.49824 44.2721C6.46211 44.3805 6.35371 44.4889 6.28145 44.5612C6.02854 44.8502 6.17307 45.0309 6.53437 45.1754C7.04019 44.4166 7.58214 43.6579 8.08797 42.8992C8.23249 42.6463 8.34088 42.3211 8.52153 42.1043C8.81057 41.743 9.02735 41.743 9.46092 42.1404C8.81057 42.4656 8.52153 43.0798 8.19636 43.694C8.05184 43.947 7.90731 44.1999 7.72666 44.4528C7.43762 44.9225 7.14858 45.3922 6.78728 45.9341C7.04019 46.0786 7.22084 46.187 7.47375 46.3316C7.76279 45.898 7.97958 45.5006 8.19636 45.1031C8.59379 44.4528 8.99123 43.7663 9.42479 43.116C9.6777 42.7185 9.85835 42.7547 10.2919 43.0076C10.2197 43.0798 10.1835 43.1882 10.1113 43.2605C9.49705 43.6579 9.13575 44.2721 8.88284 44.9225C8.77444 45.1393 8.62992 45.3199 8.55766 45.5367C8.37701 45.9702 8.19636 46.44 8.05184 46.9096C8.01571 47.0542 8.1241 47.2709 8.23249 47.3432C8.34088 47.4155 8.59379 47.3793 8.70218 47.3071C8.8467 47.2709 8.91896 47.0903 8.99122 46.9819C9.42478 46.1509 9.85835 45.3199 10.2919 44.4889C10.4605 44.1999 10.6532 43.9108 10.87 43.6218C10.9784 43.4411 11.1952 43.405 11.3758 43.6218C11.159 43.9831 10.87 44.3083 10.6893 44.6696C10.2197 45.609 9.82222 46.5483 9.38866 47.4877C9.09961 48.1019 9.17187 48.4994 9.82222 48.9329ZM31.4642 39.6113C31.5004 39.3584 31.5365 39.2139 31.5004 39.1055C31.5004 38.13 31.4642 37.1545 31.4642 36.1428C31.4402 34.7699 31.4281 33.3849 31.4281 31.9878C31.4642 31.3014 31.5004 30.5788 31.5004 29.8923C31.5004 28.2303 31.4883 26.5683 31.4642 24.9063C31.4642 24.3644 31.4642 23.7863 31.4642 23.2443C31.4161 22.3531 31.3679 21.4499 31.3197 20.5346C31.3197 20.366 31.3197 20.1973 31.3197 20.0287C29.8022 19.7397 30.019 20.0287 29.9468 20.932C29.9106 21.0042 29.9106 21.0765 29.9106 21.1488C29.9468 21.9436 29.6577 22.7024 29.9106 23.4972C29.9106 23.5334 29.9106 23.5695 29.8745 23.714C29.73 23.7863 29.5855 23.8585 29.2603 24.0392C29.3326 22.5578 29.4048 21.2572 29.4409 19.9203C29.1519 19.7397 28.8629 19.6313 28.7545 20.0287C28.5377 21.0765 28.2848 22.0882 28.4654 23.1721C28.5738 23.6779 28.4654 23.7863 27.779 23.9308C27.779 23.6056 27.7428 23.2804 27.779 22.9553C27.8873 21.9798 28.0319 21.0042 28.1403 20.0287C28.1764 19.6313 28.068 19.5229 27.6706 19.4145C27.3093 19.3422 27.0563 19.4868 26.9841 19.8481C26.9118 20.4623 26.7673 21.0765 26.7312 21.7269C26.695 22.4133 26.7312 23.0998 26.6589 23.8224C26.6589 23.9308 26.5144 24.1476 26.406 24.1837C26.2976 24.2198 26.117 24.0392 26.0086 23.9308C25.9724 23.8585 25.9724 23.714 25.9724 23.6418C26.0447 22.6301 26.129 21.6185 26.2254 20.6068C26.2615 20.1732 26.3337 19.7397 26.406 19.2339C26.0447 19.2339 25.8279 19.2339 25.575 19.2339C25.3221 20.4623 25.2498 21.6546 25.3221 22.883C25.3582 23.3889 25.2137 23.5334 24.6356 23.4972C24.5995 23.3527 24.5995 23.2082 24.5995 23.0637C24.6718 22.1243 24.744 21.1849 24.7801 20.2094C24.8042 19.8963 24.7922 19.5711 24.744 19.2339C24.744 19.1255 24.5995 19.0532 24.4911 18.9087C24.4188 19.0532 24.3827 19.1255 24.3827 19.1977C24.2382 20.932 24.0937 22.7024 23.9853 24.4366C23.9853 24.8702 23.8046 25.1231 23.4072 25.3399C23.3349 25.1954 23.2627 25.0508 23.2627 24.9424C23.2988 24.2198 23.2988 23.4972 23.4433 22.7746C23.6601 21.6185 23.5517 20.4623 23.5878 19.3061C23.624 18.7642 23.5517 18.7642 22.8652 18.728C22.7207 19.0894 22.5401 19.4868 22.4317 19.9203C22.3594 20.3178 22.3233 20.7513 22.2872 21.1488C21.7813 20.2816 22.0342 19.4145 22.251 18.5474C21.9981 18.4751 21.8175 18.439 21.5284 18.3667C21.42 18.8364 21.3478 19.2339 21.2755 19.6674C21.2032 20.0649 21.2032 20.4623 21.0949 20.8597C21.0226 21.2572 21.3478 21.6546 21.0587 22.0882C20.9503 22.0159 20.8781 21.9798 20.8419 21.9436C20.7697 21.7991 20.6974 21.6546 20.6974 21.5101C20.6613 20.4623 20.6974 19.4145 20.6974 18.2583C20.5529 18.2222 20.3361 18.15 20.0832 18.0416C20.0471 18.981 20.011 19.7758 20.011 20.6068C19.9748 21.1849 19.7942 21.5823 19.18 21.7991C19.1077 20.4262 19.2161 19.0893 19.2161 17.7525C19.0716 17.8609 18.9993 17.9693 18.9632 18.0777C18.927 18.4029 18.9632 18.7642 18.8909 19.0894C18.5657 21.5823 18.4935 24.0753 18.5296 26.6044C18.5296 27.5077 18.5296 27.5077 19.3967 27.869C19.5413 28.6277 19.9748 29.2058 20.5168 29.7116C20.9503 30.0729 21.3116 30.5426 21.7813 30.8678C22.3233 31.2652 22.6485 31.9878 23.624 31.7711C23.2988 32.4575 23.7685 32.6021 24.1298 32.8188C24.3466 32.9995 24.5272 33.1802 24.744 33.3608C25.575 34.0111 26.117 34.9505 27.0925 35.4564C27.1647 35.4925 27.2009 35.5647 27.2009 35.637C27.3815 36.2873 27.9235 36.5764 28.3932 36.9738C28.5377 36.6848 28.6461 36.4319 28.7545 36.2151C29.188 36.5041 29.188 36.5041 29.1158 37.0099C29.0435 37.6242 29.1158 37.7326 29.8022 37.9855C29.8504 37.6483 29.8866 37.3231 29.9106 37.0099C29.9468 36.3596 29.9468 36.3596 30.4165 36.2873C30.4165 37.1545 30.4165 38.0216 30.4165 38.8887C30.7416 39.1416 31.0668 39.3584 31.4642 39.6113ZM65.3183 18.4751C64.957 18.5113 64.6679 18.5113 64.3789 18.5474C64.0899 18.5956 63.9333 18.7642 63.9092 19.0532C63.7647 19.9926 63.7286 20.932 63.9092 21.8352C63.9453 21.8352 63.9815 21.8714 64.0537 21.8714C64.0537 21.3294 64.0899 20.7875 64.0537 20.2816C64.0537 19.5229 64.1621 19.1255 64.4512 18.8364C64.4873 18.981 64.5596 19.0893 64.5596 19.1977C64.5596 20.0287 64.5234 20.8597 64.5234 21.6907C64.5234 21.9798 64.5234 22.2688 64.5957 22.594C64.7402 23.4611 64.7763 23.4611 63.9815 23.8947C63.9815 24.0392 63.9453 24.2198 63.9453 24.4005C63.9453 24.545 63.9815 24.6534 64.0176 24.7618C64.3428 26.7851 64.6318 28.8084 64.5234 30.8678C64.5234 31.3736 64.5595 31.8794 64.5957 32.3491C64.6198 33.0236 64.6439 33.686 64.6679 34.3363C64.7161 35.2275 64.7522 36.1308 64.7763 37.0461C64.7763 37.4074 64.7402 37.8048 64.7402 38.1661C64.7402 38.5274 64.6679 38.8526 64.7041 39.2139C64.7041 39.4668 64.7763 39.7558 65.1376 40.0088C65.1376 39.7197 65.1738 39.5029 65.2099 39.2862C65.234 38.1782 65.2701 37.0702 65.3183 35.9622C65.3183 35.8176 65.3183 35.6731 65.3905 35.5286C65.4267 35.4564 65.5712 35.3841 65.6796 35.348C65.7157 35.348 65.8602 35.4564 65.8602 35.5286C65.8843 35.7695 65.8843 35.9983 65.8602 36.2151C65.788 37.0099 65.6796 37.8048 65.6073 38.6358C65.5712 38.9971 65.6435 39.3584 65.6435 39.8281C66.0048 39.7197 66.2938 39.6474 66.5467 39.5752C66.4745 39.2861 66.4022 39.0332 66.4022 38.8165C66.4022 37.8289 66.4142 36.8293 66.4383 35.8177C66.4383 35.5647 66.4745 35.3118 66.5106 35.0589C66.5467 34.9505 66.6912 34.8783 66.7996 34.7699C66.908 34.8783 67.0525 34.9505 67.0887 35.0589C67.1248 35.2396 67.0887 35.4202 67.0525 35.6009C66.9803 36.8293 66.7635 38.0938 67.0164 39.3945C67.6306 39.1778 68.2448 38.961 68.8229 38.7442C68.9313 38.7081 69.0036 38.4913 69.0036 38.3829C69.0397 37.4435 69.0397 36.5041 69.0036 35.6009C68.9674 34.6253 68.8229 33.686 68.7868 32.7466C68.7507 32.6021 68.859 32.4214 68.9313 32.2769C69.0758 32.3492 69.3288 32.3491 69.401 32.4937C69.5817 32.7827 69.7262 33.1079 69.7623 33.433C69.8346 33.975 69.7984 34.4808 69.7984 35.0228C69.7984 36.1067 69.7984 37.1545 69.7984 38.3468C70.521 38.419 71.2437 38.0577 71.9663 37.8048C71.9663 36.179 71.6772 34.5892 71.894 32.8188C72.1108 33.0718 72.2914 33.144 72.3276 33.2885C72.3998 33.5053 72.3998 33.7221 72.3998 33.9389C72.3998 34.806 72.3878 35.6611 72.3637 36.5041C72.3276 37.1183 72.3637 37.1545 73.0502 37.3713C73.014 36.9377 72.9418 36.5403 72.9418 36.179C72.9056 34.9867 72.8695 33.7944 72.9056 32.6021C72.9056 31.193 72.9779 29.7839 73.014 28.3748C73.0502 27.8329 73.1586 27.2909 73.1586 26.7489C73.1224 24.5089 73.0863 22.2688 73.014 20.0287C73.014 19.5952 72.9779 19.1616 72.7611 18.5835C72.7611 19.7758 72.7611 20.7513 72.7611 21.763C72.3998 21.6907 72.4359 21.4017 72.4359 21.1849C72.3998 20.0287 72.3637 18.8726 72.3276 17.7164C72.3276 17.4996 72.2914 17.319 72.2553 17.1022C72.2071 17.1022 72.1469 17.1022 72.0746 17.1022C72.0024 17.8971 71.894 18.6919 71.8217 19.5229C71.8217 19.7035 71.894 19.9565 71.9663 20.1371C72.183 20.6429 71.9662 21.1488 71.2798 21.4378C71.4604 19.9926 71.0991 18.5835 71.7495 17.2106C70.8462 17.3551 70.774 17.3912 70.774 18.1861C70.774 19.1255 70.8101 20.101 70.8101 21.0404C70.8101 21.2572 70.8101 21.5101 70.7017 21.6907C70.6656 21.7991 70.4488 21.9436 70.3043 21.9075C70.1959 21.9075 70.0152 21.7269 69.9791 21.6185C69.9068 21.4378 69.9068 21.221 69.9068 21.0042C69.943 20.4262 70.0152 19.8481 69.9791 19.27C69.943 18.728 70.0152 18.15 69.7623 17.5719C69.3649 17.8248 69.3287 18.15 69.3649 18.4751C69.401 18.8726 69.4371 19.27 69.4371 19.6674C69.4371 20.2094 69.4371 20.7152 69.4371 21.2572C69.4733 22.2688 69.5094 23.2443 69.5455 24.256C69.5817 24.6173 69.4371 24.8341 69.0036 24.8702C68.8952 24.6173 68.7507 24.3644 68.7145 24.1114C68.6784 23.0998 68.7145 22.052 68.6784 21.0404C68.6784 20.2455 68.6423 19.4506 68.6061 18.6558C68.4616 18.8244 68.3773 19.005 68.3532 19.1977C68.3171 19.8842 68.3171 20.5707 68.2448 21.2572C68.2448 21.3656 68.1726 21.4739 68.1003 21.763C67.6306 20.4262 68.1003 19.2339 67.9558 18.0416C67.2332 18.15 66.6551 18.2584 66.0048 18.3667C65.788 19.6674 65.7157 20.9681 65.8241 22.2327C65.8241 22.4133 65.9686 22.594 66.077 22.7746C65.9325 22.9914 65.8241 23.3166 65.3544 23.2443C65.2099 21.6907 65.3544 20.1371 65.3183 18.4751ZM36.7393 44.5973C36.4141 44.9947 36.125 45.3199 35.8721 45.6812C35.4024 46.2954 34.9689 46.9458 34.4992 47.56C34.3547 47.8129 34.1017 48.1742 33.8127 47.9574C33.4514 47.6322 33.885 47.3793 34.0656 47.1625C34.7882 46.2232 35.5831 45.356 36.1612 44.1999C35.8721 44.0192 35.547 43.8386 35.1857 43.6218C34.5714 44.5612 34.0295 45.4283 33.4514 46.2954C33.2708 46.5483 33.1985 46.9096 32.7649 46.8735C32.6204 46.4399 32.6565 46.3316 32.9456 45.8619C33.4514 45.1393 33.9452 44.4166 34.4269 43.694C34.8244 43.116 34.7521 43.0076 33.9572 42.7547C33.4514 43.405 32.9456 44.1276 32.4036 44.8141C32.1868 45.1392 31.9701 45.4283 31.7172 45.7173C31.6449 45.8257 31.4281 45.8257 31.1752 45.9341C31.3559 45.1031 31.8617 44.5612 32.223 44.0192C32.6204 43.405 33.1262 42.8631 33.6321 42.2127C33.343 42.0321 33.0901 41.8514 32.8011 41.6346C32.6565 41.8153 32.5843 41.8875 32.512 41.9959C31.6449 43.5134 30.5249 44.9225 29.73 46.4761C28.7906 48.3187 27.6706 50.0891 26.695 51.8956C25.5027 54.0273 24.5634 56.3035 23.2627 58.3629C23.082 58.652 23.082 59.0133 23.0098 59.3384C23.2265 59.3384 23.3349 59.2662 23.3711 59.1578C23.8046 58.5797 24.2021 58.0016 24.5995 57.4597C24.9608 56.9779 25.3462 56.5082 25.7557 56.0506C25.9002 55.8699 26.117 55.7977 26.2615 56.0145C26.406 56.1951 26.3699 56.3758 26.1531 56.5203C26.129 56.5203 26.1049 56.5323 26.0808 56.5564C25.575 56.9177 25.1776 57.3513 24.9608 57.9655C24.9247 58.0739 24.8524 58.1823 24.7801 58.2907C24.4429 58.7724 24.0937 59.2421 23.7324 59.6997C23.9491 60.0972 24.1659 60.4224 24.5995 60.4946C24.7079 60.3501 24.8163 60.2417 24.8885 60.0972C25.4907 59.1819 26.0929 58.2545 26.695 57.3152C26.7673 57.2068 26.8396 57.0261 26.948 56.9539C27.0925 56.8816 27.2731 56.9177 27.4177 56.8816C27.4177 57.0261 27.4899 57.2429 27.4177 57.3513C26.948 58.0739 26.4783 58.8326 25.9002 59.5191C25.5027 60.0249 25.3582 60.5308 25.3944 61.1811C25.6111 61.2895 25.7918 61.3617 26.0808 61.4701C26.2976 61.0366 26.4783 60.6391 26.695 60.2417C26.9841 59.7359 27.2731 59.2301 27.5983 58.7604C27.7428 58.5436 27.9596 58.3991 28.1764 58.2907C28.2848 58.2184 28.4654 58.2907 28.6099 58.3268C28.5738 58.4352 28.5738 58.6158 28.5016 58.6881C28.3932 58.8688 28.1764 58.9771 28.068 59.1217C27.6103 59.8443 27.1647 60.5669 26.7312 61.2895C26.5505 61.5785 26.5867 61.9037 26.8757 62.1205C27.0925 62.3011 27.3454 62.4457 27.6344 62.6263C27.8512 62.265 28.0319 61.9398 28.2125 61.6508C28.8147 60.5428 29.4169 59.4348 30.019 58.3268C30.3442 57.7848 30.5971 57.6765 31.2475 57.7848C30.1997 59.5552 29.2242 61.2895 28.3209 63.1683C28.7183 63.385 29.0074 63.5657 29.3326 63.7463C29.6939 61.9398 30.561 60.603 32.223 59.8081C31.9701 58.7242 32.0062 57.6403 32.4398 56.6287C32.4759 56.5203 32.4398 56.4119 32.4759 56.3396C32.7288 55.4725 33.0901 54.6415 33.8127 54.0996C34.8605 53.2324 36.0889 52.7266 37.4257 52.546C37.787 52.5098 38.1483 52.4014 38.5819 52.3292C37.7509 49.7639 38.7264 48.2465 41.3278 47.56C40.6413 47.0903 40.0994 46.729 39.5574 46.3677C39.3045 46.2232 39.0516 46.2593 38.8709 46.4761C38.4735 46.9819 38.0038 47.4877 37.6425 48.0297C37.0644 48.8607 36.5586 49.7639 36.0528 50.6672C35.9083 50.9201 35.7276 51.1007 35.4386 51.1007C35.2218 50.6311 35.2218 50.6311 35.4024 50.342C35.6674 49.8603 35.9323 49.3906 36.1973 48.9329C35.7999 49.0775 35.7276 49.6917 35.0773 49.4749C35.3302 48.6439 36.0167 48.1019 36.378 47.3793C36.7393 46.6567 37.2812 46.0064 37.7148 45.2838C37.3896 45.067 37.1006 44.8502 36.7393 44.5973ZM76.1212 34.8783C76.5909 34.6253 76.5187 34.2641 76.5187 33.9028C76.5187 33.2163 76.4825 32.5298 76.9884 31.9156C77.169 31.6988 77.2051 31.3375 77.2051 31.0485C77.1811 29.8682 77.1329 28.688 77.0606 27.5077C76.9884 25.8457 76.9884 24.1837 77.169 22.5217C77.2774 21.6185 77.2774 20.6791 77.3135 19.7397C77.0606 19.6674 76.88 19.5952 76.6993 19.5229C76.6632 18.9087 76.6271 18.3667 76.5548 17.7886C76.3741 18.4029 76.3019 18.9809 76.2658 19.5952C76.2296 20.1732 76.2296 20.7875 76.1935 21.4017C76.1935 21.9436 76.3741 22.5217 76.1574 23.0998C76.061 22.9794 76.0128 22.871 76.0128 22.7746C75.9767 22.052 75.9406 21.3656 75.9044 20.6429C75.9044 20.4262 75.9044 20.1371 75.7961 19.9926C75.507 19.559 75.5793 19.1255 75.5793 18.6558C75.5793 17.7164 75.5793 16.765 75.5793 15.8015C75.3625 15.8015 75.218 15.946 75.218 16.1628C75.1457 17.0299 75.0373 17.8609 75.0012 18.728C74.9651 19.0894 75.0735 19.4506 75.1457 19.9565C75.1457 19.9203 75.0373 20.0287 74.9651 20.101C74.387 20.5346 73.845 21.0042 74.0618 21.8714C74.1702 22.1965 74.1341 22.594 74.0979 22.9914C73.9895 24.4005 73.8812 25.7734 73.7728 27.1825C73.7005 28.0737 73.6523 28.9529 73.6282 29.82C73.5921 31.1207 73.5921 32.3853 73.556 33.686C73.556 33.8787 73.556 34.0714 73.556 34.2641C73.6283 35.1794 73.7005 36.0826 73.7728 36.9738C74.1341 36.8293 74.1341 36.8293 74.1341 36.468C74.1341 35.8176 74.122 35.1673 74.0979 34.517C74.0739 33.8666 74.0377 33.2163 73.9895 32.5659C74.2786 32.4937 74.4592 32.5659 74.5315 32.8188C74.5676 33.1079 74.5676 33.3969 74.5676 33.686C74.5676 34.4447 74.5676 35.2034 74.5676 35.9622C74.5676 36.1428 74.676 36.2873 74.7122 36.468C74.7844 36.4439 74.8567 36.4319 74.9289 36.4319C75.0373 35.0951 75.0735 33.7221 75.1457 32.3853C75.4348 32.4214 75.6154 32.4575 75.7961 32.4214C76.3019 32.313 76.338 32.313 76.3741 32.7466C76.3741 33.0356 76.338 33.3247 76.3019 33.5776C76.2296 34.0111 76.1694 34.4447 76.1212 34.8783ZM75.507 10.3458C75.4709 11.3575 75.1457 12.2607 75.4348 13.2001C75.1096 13.6698 74.7483 14.0311 74.2063 14.1395C74.0257 14.1756 73.8812 14.284 73.7366 14.3563C72.5805 14.9103 71.4243 15.4643 70.2681 16.0183C70.1236 16.0905 70.0152 16.1628 69.9068 16.2351C70.0514 16.3073 70.1597 16.3073 70.2681 16.2712C70.774 16.0905 71.2437 15.9099 71.7495 15.7654C73.5199 15.2234 75.0012 14.3202 76.2296 12.9472C77.0967 12.0078 76.8438 10.8517 75.507 10.3458ZM6.85954 39.0332C5.7395 40.081 5.26981 41.454 4.43881 42.6463C4.58333 42.839 4.72785 43.0317 4.87238 43.2244C5.55885 42.7185 6.82341 40.081 6.85954 39.0332ZM9.49705 12.6943C8.88283 14.2479 8.23249 15.6208 7.90731 17.1383C8.05184 17.1022 8.1241 17.1022 8.1241 17.066C8.62992 16.1507 9.1237 15.2234 9.60544 14.284C9.85835 13.7782 9.74996 13.3446 9.49705 12.6943ZM3.35491 33.9389C2.37939 34.7337 2.01808 35.8176 1.83743 37.0099C2.6323 36.1067 2.9936 35.0228 3.35491 33.9389ZM50.8301 16.5602C50.8301 16.6325 50.8301 16.7047 50.8301 16.777C51.1432 16.7529 51.4443 16.7168 51.7333 16.6686C51.7333 16.6445 51.7333 16.6084 51.7333 16.5602C51.4202 16.5602 51.1191 16.5602 50.8301 16.5602ZM50.252 16.777C50.252 16.7047 50.2399 16.6445 50.2158 16.5964C49.9629 16.5964 49.6378 16.4157 49.2765 16.8854C49.71 16.8493 49.9629 16.8131 50.252 16.777ZM76.5909 15.3679C76.3019 15.4763 76.1574 15.5125 75.9406 15.5847C76.0851 15.7654 76.1935 15.8737 76.3019 16.0544C76.3741 15.8376 76.4464 15.6931 76.5909 15.3679ZM74.5315 17.5357C74.4592 17.6803 74.4231 17.7525 74.4231 17.7525C74.4592 17.8248 74.5315 17.8609 74.5676 17.9332C74.5676 17.8248 74.5676 17.7164 74.5315 17.5357ZM32.3314 20.932C32.3314 20.932 32.3434 20.932 32.3675 20.932C32.3675 20.7875 32.3675 20.6309 32.3675 20.4623C32.3434 20.4623 32.3193 20.4623 32.2952 20.4623C32.2952 20.6309 32.3073 20.7875 32.3314 20.932ZM75.4348 35.637C75.4829 35.637 75.5191 35.637 75.5432 35.637C75.5432 35.4684 75.5432 35.2877 75.5432 35.0951C75.5191 35.0951 75.495 35.0951 75.4709 35.0951C75.4709 35.2877 75.4588 35.4684 75.4348 35.637Z" fill="white"/>
<path id="&#60;Compound Path&#62;_2" fill-rule="evenodd" clip-rule="evenodd" d="M44.5434 8.17807C43.3631 8.17807 42.1829 8.17807 41.0026 8.17807C42.0504 8.5755 43.1343 8.46711 44.1821 8.53937C44.2182 8.68389 44.2182 8.79228 44.2182 8.9368C44.4591 8.98497 44.6999 9.0211 44.9408 9.04518C44.9408 9.09336 44.9408 9.1295 44.9408 9.15359C44.4711 9.15359 44.0014 9.15359 43.5678 9.15359C42.7369 9.18972 41.9059 9.1897 41.0749 9.22583C40.1355 9.29809 39.16 9.37037 38.2206 9.51489C36.9199 9.76781 35.5469 9.98457 34.3185 10.5627C33.8849 10.7794 33.4514 11.0685 32.9455 11.2853C33.0178 11.1769 33.0539 10.9962 33.1623 10.924C34.1378 10.1291 35.2218 9.69553 36.4502 9.47875C37.4257 9.2981 38.4374 9.15359 39.4129 8.97294C39.4851 8.97294 39.5574 8.90067 39.6658 8.82841C39.2322 8.53937 38.8348 8.64775 38.4735 8.68388C36.8115 8.8284 35.1495 8.97292 33.5236 9.22583C31.9339 9.51488 30.3803 9.84006 29.0435 10.8878C28.4654 11.3214 28.2125 11.8995 28.0318 12.586C27.9234 13.0195 27.9234 13.0195 27.4538 13.2363C27.526 12.044 27.7789 11.0685 28.8267 10.4543C29.2964 10.1652 29.7661 9.91232 30.2719 9.62328C30.1635 9.51489 30.1274 9.47875 30.0913 9.47875C29.0074 9.6594 27.9957 9.98458 27.0924 10.6349C26.5505 11.0324 26.5505 11.6827 26.3337 12.2608C26.2976 12.3692 26.2976 12.4776 26.1531 12.6221C26.0808 12.4414 25.9363 12.2247 26.0085 12.044C26.2615 11.1408 26.5505 10.2014 27.5983 9.84005C28.5617 9.55101 29.5252 9.24993 30.4887 8.9368C30.7416 8.86454 30.9945 8.75615 31.3558 8.64776C30.9945 8.35872 30.6332 8.43099 30.3442 8.43099C29.3687 8.46712 28.3931 8.50324 27.4176 8.53937C26.2976 8.61163 25.2859 9.00907 24.3827 9.62328C24.2382 9.74371 24.1177 9.86415 24.0214 9.98458C23.4433 10.6711 23.4072 10.9962 23.8769 11.7188C23.8046 11.9717 23.6239 11.9718 23.4072 11.8634C22.9736 11.6827 22.7568 11.213 22.9013 10.671C23.1542 9.6594 23.8769 9.04519 24.7801 8.57549C25.7556 8.06967 26.8395 7.8529 27.9596 7.88903C29.7661 7.92516 31.5365 7.92515 33.343 8.03354C35.0772 8.1058 36.8115 7.92515 38.5457 7.85289C40.5329 7.81676 42.5562 7.78064 44.5434 8.17807ZM32.9094 8.82841C32.9094 8.78024 32.8974 8.73205 32.8733 8.68388C32.7288 8.73205 32.5842 8.78024 32.4397 8.82841C32.4397 8.87658 32.4397 8.91271 32.4397 8.9368C32.6083 8.91271 32.7649 8.87658 32.9094 8.82841Z" fill="white"/>
<path id="&#60;Path&#62;" d="M31.7533 14.0311C31.7894 13.0194 32.4398 12.4052 33.1262 11.8271C33.8489 11.2129 34.716 10.96 35.5831 10.7071C36.8115 10.3458 38.0761 10.129 39.3406 10.0206C39.5093 9.9965 39.6658 10.0086 39.8103 10.0567C38.6903 10.3096 37.5341 10.4903 36.4141 10.7793C34.8605 11.1406 33.4153 11.8632 32.3675 13.1278C32.1507 13.4168 31.9339 13.7059 31.7533 14.0311Z" fill="white"/>
<path id="&#60;Path&#62;_2" d="M39.8103 28.4832C39.3768 28.3387 39.449 28.0858 39.449 27.869C39.4852 26.6767 39.4852 25.4844 39.5574 24.256C39.6297 23.4611 39.7381 22.6663 39.8465 21.8714C39.8826 21.5823 39.9549 21.1849 40.3523 21.221C40.7497 21.2933 40.5691 21.6908 40.5691 21.9798C40.4727 23.6177 40.3643 25.2556 40.2439 26.8935C40.2439 27.2187 40.2439 27.5439 40.1716 27.869C40.0994 28.0858 39.9187 28.2665 39.8103 28.4832Z" fill="white"/>
<path id="&#60;Path&#62;_3" d="M36.4502 21.0403C36.3418 21.9436 36.2334 22.7746 36.1612 23.6056C36.125 23.8946 36.1612 24.2559 36.1612 24.5811C36.1973 25.0146 36.1973 25.0146 35.6915 25.3759C35.6553 25.123 35.6192 24.8701 35.6192 24.6533C35.7276 23.5694 35.836 22.5578 35.9444 21.51C35.9805 21.221 36.0528 21.0042 36.4502 21.0403Z" fill="white"/>
<path id="&#60;Path&#62;_4" d="M57.9477 24.8703C57.5503 23.136 57.5142 21.5463 57.9839 19.9927C58.0561 19.9686 58.1163 19.9565 58.1645 19.9565C58.2006 20.1011 58.309 20.2456 58.309 20.4262C58.3452 21.3295 58.3813 22.2689 58.4174 23.2083C58.4536 23.3167 58.4536 23.4251 58.4897 23.5334C58.7426 24.1838 58.7065 24.2922 57.9477 24.8703Z" fill="white"/>
<path id="&#60;Path&#62;_5" d="M62.3556 40.1893C61.8136 40.0087 61.8497 39.6474 61.8497 39.3583C61.8136 38.708 61.8136 38.0938 61.8136 37.4434C61.8136 37.0099 61.8016 36.5643 61.7775 36.1066C61.7775 35.9621 61.7052 35.8176 61.7775 35.7453C61.8859 35.5647 62.0304 35.3118 62.211 35.2756C62.5362 35.2756 62.4639 35.6008 62.4639 35.7814C62.4278 37.2267 62.3917 38.6357 62.3556 40.1893Z" fill="white"/>
<path id="&#60;Path&#62;_6" d="M60.513 19.6675C60.8743 19.9927 60.802 20.354 60.802 20.7153C60.802 21.6908 60.7659 22.7024 60.7659 23.7141C60.7659 23.979 60.6575 24.1115 60.4407 24.1115C60.1517 24.1115 60.1517 23.9308 60.1878 23.6779C60.3684 22.5218 60.4046 21.3295 60.2601 20.1372C60.2239 20.0649 60.2601 19.9565 60.2962 19.8481C60.3323 19.812 60.4046 19.7759 60.513 19.6675Z" fill="white"/>
<path id="&#60;Compound Path&#62;_3" fill-rule="evenodd" clip-rule="evenodd" d="M41.9781 52.8349C41.111 52.8349 40.4607 52.2206 40.4968 51.3896C40.5329 50.4864 41.111 49.9806 42.1949 50.0167C43.0259 50.0167 43.4956 50.4864 43.4956 51.3174C43.4956 52.2206 42.8814 52.8349 41.9781 52.8349ZM41.6891 50.6309C41.2917 51.0645 41.2555 51.2451 41.5446 51.5342C41.9059 51.8232 42.1588 51.751 42.5923 51.209C42.3033 51.0283 42.0143 50.8477 41.6891 50.6309Z" fill="white"/>
<path id="&#60;Path&#62;_7" d="M39.5936 56.0867C39.5936 56.2673 39.6297 56.448 39.5936 56.6286C39.3407 57.8932 36.9561 64.8663 36.6309 65.2638C36.4502 65.0108 36.5225 64.7218 36.5948 64.4689C37.2692 62.1084 37.9557 59.7479 38.6542 57.3874C38.6903 57.3151 38.7265 57.2067 38.7626 57.2067C39.3045 57.2067 39.0878 56.7009 39.2684 56.448C39.3407 56.3396 39.3768 56.1951 39.4129 56.0505C39.4852 56.0746 39.5454 56.0867 39.5936 56.0867Z" fill="white"/>
<path id="&#60;Compound Path&#62;_4" fill-rule="evenodd" clip-rule="evenodd" d="M34.2463 64.1798C34.2463 64.6134 34.0295 64.9747 33.4514 65.0108C33.054 65.047 32.6204 64.9747 32.2591 64.9024C32.1146 64.9024 31.9701 64.7579 31.8978 64.6495C31.3558 63.4934 31.8617 62.3733 33.054 62.2649C33.5598 62.2288 34.0656 62.554 34.1379 63.0598C34.2101 63.385 34.2101 63.7101 34.2463 64.1798ZM33.5959 63.8547C33.5959 63.5656 33.1624 62.8069 32.9817 62.843C32.7288 62.843 32.3675 63.3488 32.3314 63.7463C32.3314 64.1076 32.5481 64.3605 32.9456 64.3605C33.2707 64.3966 33.5598 64.1437 33.5959 63.8547Z" fill="white"/>
<path id="&#60;Path&#62;_8" d="M38.329 54.4248C38.329 54.9306 38.0038 55.0029 37.6425 55.039C37.209 55.1113 36.7754 55.1474 36.378 55.2919C35.1495 55.6532 34.4631 56.5203 34.3185 57.7849C34.3185 57.8933 34.2824 58.0378 34.2463 58.2546C33.7405 57.4958 33.7043 56.8455 34.1018 56.159C34.7882 55.0751 36.4864 54.0996 38.0038 54.2802C38.1122 54.2802 38.2206 54.3886 38.329 54.4248Z" fill="white"/>
<path id="&#60;Path&#62;_9" d="M39.6658 63.096C40.3161 59.8804 41.6891 56.9539 42.9536 53.9189C43.2788 54.0273 43.2788 54.208 43.2065 54.4248C42.4839 55.9784 41.7252 57.5681 41.111 59.1578C40.6413 60.314 40.3522 61.5063 39.9909 62.6625C39.9428 62.8311 39.8826 62.9876 39.8103 63.1322C39.7621 63.1322 39.7139 63.1201 39.6658 63.096Z" fill="white"/>
<path id="&#60;Path&#62;_10" d="M31.681 61.8676C31.681 61.3979 32.0061 61.2534 32.2952 61.2173C32.8371 61.145 33.4152 61.1812 33.9572 61.1812C34.0656 61.1812 34.1378 61.3618 34.2462 61.4341C34.1378 61.5424 34.0294 61.687 33.8849 61.7592C33.8127 61.7954 33.7043 61.7231 33.5959 61.7231C32.9817 61.7592 32.3674 61.7954 31.681 61.8676Z" fill="white"/>
<path id="&#60;Path&#62;_11" d="M42.4478 49.1496C41.5807 49.4387 40.822 49.7277 40.0632 49.9806C39.8826 49.7277 40.0632 49.5832 40.2439 49.4387C40.7136 49.0774 41.7614 48.8967 42.4478 49.1496Z" fill="white"/>
<path id="&#60;Path&#62;_12" d="M43.3511 58.7964C43.4595 57.8932 43.857 57.2067 44.0015 56.3035C44.2183 57.0261 43.857 58.3267 43.3511 58.7964Z" fill="white"/>
<path id="&#60;Path&#62;_13" d="M44.4711 55.1111C44.724 55.4363 44.4711 55.6169 44.2543 55.7976C44.3266 55.5567 44.3989 55.3279 44.4711 55.1111Z" fill="white"/>
<path id="&#60;Path&#62;_14" d="M45.1576 53.9912C45.0612 54.1839 44.9649 54.3766 44.8685 54.5693C44.8203 54.5452 44.7722 54.5211 44.724 54.497C44.8203 54.3043 44.9046 54.0996 44.9769 53.8828C45.0251 53.931 45.0853 53.9671 45.1576 53.9912Z" fill="white"/>
<path id="&#60;Path&#62;_15" d="M45.3383 53.1601C45.3864 53.0156 45.4226 52.8711 45.4466 52.7266C45.4948 52.7266 45.543 52.7386 45.5912 52.7627C45.5189 52.9072 45.4587 53.0397 45.4105 53.1601C45.3864 53.1601 45.3623 53.1601 45.3383 53.1601Z" fill="white"/>
<path id="&#60;Path&#62;_16" d="M6.06465 37.6963C5.45044 38.708 4.87235 39.6112 4.29427 40.5145C4.14975 40.7313 4.00522 40.9119 3.64392 40.8396C3.68005 40.659 3.68005 40.5145 3.75231 40.4061C4.25814 39.5751 4.80009 38.7802 5.34204 37.9492C5.5227 37.6963 5.70335 37.5518 6.06465 37.6963Z" fill="white"/>
<path id="&#60;Path&#62;_17" d="M70.9546 37.8411C70.8824 37.6604 70.8101 37.5159 70.774 37.3714C70.6776 36.0466 70.5933 34.7219 70.5211 33.3971C70.5211 33.2526 70.6294 32.9635 70.7378 32.9274C70.9907 32.8551 71.1714 33.108 71.1714 33.3248C71.2075 33.9029 71.2437 34.481 71.2437 35.0591C71.2437 35.7455 71.2075 36.432 71.4604 37.1185C71.605 37.5159 71.352 37.7327 70.9546 37.8411Z" fill="white"/>
<path id="&#60;Path&#62;_18" d="M67.9919 36.6848C67.9919 37.0822 68.028 37.7326 68.0642 38.3829C68.0642 38.4552 68.1003 38.5275 68.0642 38.5997C67.9558 38.7081 67.8474 38.8526 67.739 38.8526C67.6667 38.8526 67.4861 38.672 67.4861 38.5636C67.4138 38.2384 67.45 37.9132 67.45 37.5881C67.4138 36.8655 67.3777 36.1429 67.3416 35.4203C67.3416 35.2035 67.3416 34.9867 67.3777 34.7699C67.4138 34.517 67.5583 34.3002 67.8113 34.3725C67.9558 34.4447 68.1003 34.6977 68.1003 34.8422C68.1003 35.3841 68.028 35.8899 67.9919 36.6848Z" fill="white"/>
<path id="&#60;Path&#62;_19" d="M67.4861 18.5112C67.4861 18.728 67.5222 18.9809 67.4861 19.1977C67.4139 20.0287 67.2693 20.8236 67.1971 21.6546C67.1609 22.0159 67.2332 22.3772 67.2693 22.8468C67.0526 22.9552 66.8719 22.9552 66.8358 22.5578C66.7996 22.0159 66.7274 21.4739 66.7635 20.932C66.7996 20.3177 66.908 19.7035 66.9803 19.0532C67.0164 18.8725 67.1248 18.6919 67.1971 18.4751C67.2934 18.4992 67.3898 18.5112 67.4861 18.5112Z" fill="white"/>
</g>
</svg>
