<svg width="178" height="116" viewBox="0 0 178 116" fill="none" xmlns="http://www.w3.org/2000/svg">
<g id="&#60;Group&#62;" opacity="0.5">
<path id="&#60;Compound Path&#62;" fill-rule="evenodd" clip-rule="evenodd" d="M79.5323 58.2359C77.5323 56.1359 75.0322 56.8358 72.9322 56.1358C72.3322 56.0358 71.6323 55.9359 71.0323 55.8359C65.1323 55.1359 64.0322 62.3358 61.4322 59.0358C59.3656 60.6358 57.3322 62.2025 55.3322 63.7359C54.1322 64.7359 52.7323 65.6359 51.7323 66.8359C50.2323 68.5359 33.9322 76.3358 35.3322 75.6358C33.2322 76.7358 23.4323 80.6358 22.0323 81.1358C20.1323 81.8358 18.3323 83.7358 18.2323 86.0358C18.9323 86.0358 19.5322 86.0358 20.1322 85.9358C24.4322 85.2358 28.6323 84.0358 32.7323 82.6358C36.2323 81.4358 39.4322 79.7359 42.6322 77.8359C45.9322 75.9359 49.2322 74.0358 52.6322 72.0358C52.6322 72.1358 52.6322 72.0358 52.6322 71.9358C52.0322 70.6358 52.2323 69.3358 53.0323 68.1358C53.9323 66.8358 55.1323 65.9358 56.7323 65.5358C58.1323 65.2358 59.6322 64.8358 60.8322 66.1358C63.4322 63.4358 64.4322 62.2358 69.9322 59.1358C70.4322 58.8358 71.0323 58.6359 71.5323 58.7359C74.7323 59.0359 77.8323 59.5359 80.5323 61.2359C82.4323 62.3359 84.2323 63.3358 86.0323 64.5358C87.2323 65.3358 88.2322 66.4359 89.4322 67.3359C89.8322 67.7359 90.2323 68.0358 90.7323 68.4358C91.7323 66.2358 91.5322 65.5358 89.6322 64.5358C87.9322 63.6358 86.4322 62.7359 85.3322 61.3359C85.0322 60.9359 84.6323 60.8358 84.2323 60.6358C83.5323 60.1358 82.8323 59.7359 82.2323 59.3359C82.3323 58.5359 82.8323 58.4358 83.2323 58.6358C86.0323 60.3358 89.3322 60.8358 91.8322 63.0358C92.3322 63.4358 92.8323 63.8359 93.2323 64.3359C93.7323 64.7359 94.0322 65.2359 94.8322 65.2359C95.5322 65.2359 95.5322 65.9358 95.3322 66.4358C94.9989 67.3025 94.5989 68.1691 94.1322 69.0358C93.4322 70.0358 92.8323 71.1358 92.0323 72.0358C91.2323 73.1358 90.3322 74.3358 89.3322 75.1358C87.3322 76.6358 85.5322 78.5358 83.3322 79.9358C80.8322 81.5358 78.5322 83.6358 76.1322 85.5358C74.8322 86.4358 73.5323 87.3358 72.2323 88.0358C68.2323 90.0358 64.1322 92.0358 60.1322 94.0358C58.8322 94.6358 57.6322 95.4358 56.3322 96.0358C53.6322 97.4358 50.8322 98.5358 47.8322 99.0358C47.2322 99.1358 46.7323 99.3358 46.2323 99.4358C45.6323 99.5358 45.0322 99.6359 44.1322 99.7359C43.7322 100.636 43.1322 101.736 42.8322 102.836C42.7322 103.436 43.2323 104.336 43.7323 104.836C46.4323 107.836 49.9322 109.736 53.6322 111.336C53.7322 111.436 53.9323 111.336 54.2323 111.336C54.0323 110.936 53.9323 110.636 53.7323 110.536C52.5989 109.469 51.4323 108.403 50.2323 107.336C49.8323 107.036 49.3322 106.736 48.9322 106.436C48.6322 106.236 48.2323 106.136 48.0323 105.936C47.1323 104.636 46.0322 103.536 44.6322 102.736C43.9322 102.336 44.2322 101.536 44.9322 101.236C45.8322 101.036 46.6322 101.036 47.3322 101.636C49.1322 103.036 50.9656 104.436 52.8322 105.836C52.9322 105.936 53.1322 105.936 53.3322 106.036C53.2322 104.836 51.5322 104.336 52.4322 102.936C52.6322 103.036 52.7322 102.936 52.8322 103.036C53.8322 104.836 55.6322 105.136 57.4322 105.336C58.8322 105.536 60.1322 105.236 61.4322 104.736C70.3322 100.636 89.1322 88.6358 89.3322 88.6358C86.2322 90.7358 73.0323 100.636 72.7323 100.836C69.7323 103.103 66.4989 105.002 63.0323 106.536C62.5323 106.836 62.0323 107.036 61.5323 107.336C59.7323 108.536 58.0323 108.736 56.2323 107.436C56.0323 107.336 55.8323 107.436 55.2323 107.336C56.1323 108.136 56.7322 108.736 57.4322 109.236C58.6322 110.236 58.6323 111.336 58.0323 112.636C57.9323 112.836 57.9322 113.036 57.8322 113.236C59.2322 113.936 59.7323 113.936 60.7323 113.136C60.5323 112.736 60.1322 112.436 60.1322 112.136C60.0322 111.536 59.9323 110.736 60.2323 110.236C62.0323 107.036 62.8322 107.536 74.4322 101.736C74.7322 101.636 75.0322 101.436 75.3322 101.336C81.3322 99.7359 89.1322 91.4359 97.9322 85.2359C98.3322 84.9359 98.9322 84.7359 99.4322 84.3359C112.132 75.8359 109.432 77.3358 112.732 74.6358C113.232 74.2358 113.832 74.0358 114.332 73.6358C115.332 72.7358 116.332 71.7359 117.332 70.8359C120.732 67.6359 123.832 64.1358 127.532 61.1358C128.532 60.4358 129.232 59.3358 130.132 58.4358C130.332 58.1358 130.632 57.7358 130.932 57.5358C133.432 56.3358 134.832 53.9358 136.732 52.0358C138.232 50.5358 139.732 49.0358 141.232 47.5358C141.732 47.0358 142.232 46.5358 141.832 45.9358C141.432 45.3358 140.832 45.3358 140.232 45.5358C139.532 45.8358 138.832 46.2358 138.132 46.5358C136.132 45.6358 136.232 45.6359 134.332 47.2359C132.332 48.8359 130.332 50.3359 128.232 51.8359C117.632 59.6359 128.832 50.4358 116.132 59.1358C113.999 60.6024 111.866 62.0358 109.732 63.4358C108.399 64.3692 107.066 65.3025 105.732 66.2359C104.832 66.9359 103.932 67.0359 102.932 66.3359C101.932 65.7359 100.932 65.1358 99.9322 64.5358C98.5322 63.7358 97.0322 62.9359 95.6322 62.2359C94.1322 61.6359 93.3323 60.6358 93.0323 59.0358C92.5323 56.6358 92.1322 54.2359 92.6322 51.8359C92.8322 51.0359 93.0323 50.3358 93.2323 49.4358C93.0323 49.3358 92.8322 49.1358 92.6322 49.0358C81.4322 43.0358 78.5323 41.5358 74.0323 39.1358C73.3323 38.7358 72.8323 38.7359 72.2323 39.2359C71.2323 39.9359 70.3322 40.6359 69.3322 41.3359C69.1322 41.5359 68.9323 41.7359 68.7323 41.8359C67.1323 42.2359 65.8323 43.2359 64.5323 44.2359C62.8323 45.6359 61.3323 44.5359 57.2323 41.8359C56.7323 41.4359 56.3322 40.9358 55.9322 40.4358C55.7322 40.1358 55.5322 39.7358 55.3322 39.5358C54.5322 39.1358 54.6323 38.6358 54.7323 37.9358C54.9323 37.1358 54.9322 36.1359 54.8322 35.2359C54.7322 33.0359 54.6323 30.7358 54.5323 28.4358C54.5323 26.2358 55.4322 24.3359 56.6322 22.7359C60.5322 17.5359 65.2323 13.2358 70.7323 10.0358C73.3323 8.53581 75.9322 7.13588 78.6322 6.23588C80.8322 5.53588 83.2322 5.13583 85.4322 6.43583C86.1322 6.83583 86.6323 6.83586 87.2323 6.33586C88.5323 5.23586 93.1322 1.33586 96.1322 0.335855C97.7322 -0.164145 99.5322 -0.16412 101.132 0.73588C111.632 6.23588 110.832 5.73583 111.432 6.43583C111.832 6.93583 112.332 6.83586 112.732 6.33586C112.799 6.26919 112.866 6.23588 112.932 6.23588C115.832 2.83588 119.832 3.23586 122.932 5.33586C123.932 5.93585 124.732 6.83578 125.632 7.63578C125.832 7.83578 125.932 8.13578 126.132 8.13578C127.632 8.53578 128.032 9.93581 128.732 11.0358C129.232 11.8358 129.732 12.6358 130.132 13.5358C130.232 13.8358 130.232 14.2358 130.332 14.5358C130.332 15.3358 130.232 16.0359 130.332 16.8359C130.332 17.1359 130.632 17.6359 130.932 17.8359C132.132 18.4359 133.432 19.0358 134.732 19.6358C135.032 19.3358 135.432 19.0358 135.632 18.6358C136.232 17.5358 137.132 16.7358 138.032 15.9358C138.732 15.4358 139.432 15.0358 140.232 14.9358C143.332 14.7358 146.232 15.2358 148.632 17.4358C149.632 18.2358 150.732 18.9358 151.732 19.6358C153.432 20.7358 154.532 22.0359 154.332 24.2359C154.232 25.1359 154.432 26.2359 154.532 27.2359C164.132 23.3359 164.632 22.2358 172.132 27.0358C172.932 27.6358 173.732 28.1359 174.332 28.8359C176.632 31.8359 178.032 35.2358 177.932 39.1358C177.732 42.1358 176.332 44.5358 174.732 46.9358C172.732 49.9358 169.632 50.9358 166.232 51.5358C162.532 52.2358 159.332 51.3358 156.132 49.6358C154.432 48.6358 152.632 47.7359 150.932 46.7359C150.032 47.7359 149.232 48.7358 148.332 49.5358C146.132 51.6358 143.732 53.6359 141.432 55.7359C140.632 56.5359 139.832 57.3359 139.032 58.2359C135.732 61.8359 132.132 64.9358 128.232 67.9358C126.232 69.4358 124.432 71.2359 122.732 73.2359C121.732 74.3359 120.532 75.2359 119.332 76.2359C116.032 79.0359 112.632 81.9358 109.232 84.6358C106.832 86.6358 104.232 88.4358 101.632 90.4358C101.632 90.4358 92.2322 97.8359 91.6322 98.3359C89.6322 100.136 87.4322 101.736 85.1322 103.136C80.5322 105.736 81.8322 106.036 75.1322 109.636C72.4322 111.036 69.9322 112.836 66.9322 113.836C64.2322 114.736 61.5323 116.036 58.5323 115.736C57.5323 115.736 56.6322 115.236 55.6322 115.036C55.4322 114.936 55.2322 114.636 54.9322 114.636C51.5322 113.936 49.2322 111.236 46.3322 109.636C44.7322 108.636 43.4322 107.036 42.1322 105.636C40.9322 104.336 40.6322 102.936 41.4322 101.336C41.8322 100.636 42.0322 99.8358 42.4322 99.1358C43.0322 97.9358 44.0322 97.4358 45.4322 97.4358C49.1322 97.2358 52.7323 96.3358 56.0323 94.5358C59.1323 92.7358 62.5322 91.3359 65.8322 89.8359C68.3322 88.5359 71.0322 87.4358 73.3322 85.6358C73.3322 85.5358 73.4323 85.4358 73.5323 85.1358C72.3323 84.4691 71.1656 83.8024 70.0323 83.1358C68.8323 82.4691 67.6322 81.8024 66.4322 81.1358C64.1322 79.8358 61.7322 78.6359 59.4322 77.2359C57.2322 75.9359 55.2323 74.4358 53.0323 73.0358C52.0323 74.8358 49.8323 74.7359 48.2323 75.8359C46.3323 77.1359 44.3322 78.2359 42.4322 79.3359C42.1322 79.5359 42.0323 79.7359 41.7323 79.8359C39.3323 81.0359 36.9322 82.2358 34.4322 83.4358C32.1322 84.5358 29.7322 85.5358 27.3322 86.5358C17.6322 90.6358 10.7322 86.9358 2.93222 80.1358C-0.0677781 77.5358 -4.16773 68.6358 10.2323 67.9358C13.7323 67.7358 17.0323 66.4359 20.2323 65.3359C26.5323 63.1359 37.8323 54.3359 39.7323 52.7359C42.4323 50.3359 45.2322 48.0359 47.6322 45.2359C49.0322 43.4359 50.8323 41.8359 52.5323 40.2359C53.0323 39.7359 53.6323 39.1359 54.7323 39.8359C54.2323 40.3359 53.9322 40.6358 53.6322 41.0358C51.6989 43.0358 49.7323 45.0691 47.7323 47.1358C47.0656 47.8024 46.3989 48.4691 45.7323 49.1358C43.0323 51.7358 40.1322 54.2358 37.1322 56.4358C35.2322 57.7358 26.4323 65.0358 20.5323 66.6358C18.9323 67.1358 17.4322 67.8358 15.9322 68.4358C10.4322 70.4358 6.83225 69.0359 4.83225 70.7359C5.13225 71.5359 8.93225 75.2358 9.83225 75.9358C11.3322 76.9358 12.6322 78.4359 13.9322 79.8359C14.2322 80.1359 14.1322 80.8359 14.3322 81.7359C13.7322 81.4359 13.4323 81.2358 13.2323 81.1358C11.7323 79.9358 10.2323 78.6358 8.53226 77.5358C7.33226 76.7358 6.03223 76.0358 4.63223 75.4358C3.83223 75.1358 3.83227 75.1359 2.73227 75.7359C3.53227 77.8359 10.6322 84.0358 13.6322 85.1358C15.4322 78.3358 18.2323 80.7358 33.7323 73.9358C38.1323 72.0358 42.3323 69.8358 46.2323 67.0358C49.5323 64.6358 52.7323 62.0358 56.2323 59.9358C58.1323 58.7358 63.4322 54.3358 64.6322 53.0358C66.3322 51.0358 68.5323 50.9359 70.7323 51.7359C73.3323 52.6359 75.8322 53.6359 77.9322 55.3359C78.5322 55.8359 78.9322 56.4358 79.4322 57.0358C79.5322 57.2358 79.4323 57.6359 79.5323 58.2359ZM76.4322 15.9358C77.5322 15.3358 78.6323 14.7358 79.7323 14.0358C83.8323 11.3358 86.7323 10.3359 81.7323 7.33586C81.0323 6.93585 80.3322 7.63581 79.6322 8.03581C78.7322 8.53581 77.8322 8.93583 76.9322 9.43583C75.9322 9.83583 74.9323 10.1359 74.0323 10.7359C72.6323 11.5359 71.3323 12.4359 70.0323 13.3359C67.8323 14.9359 65.9323 16.6358 64.7323 19.1358C64.5323 19.5358 64.1323 19.8358 63.7323 20.1358C62.6323 21.1358 61.8323 22.3359 61.7323 23.8359C61.6323 24.6359 61.7323 25.5358 61.7323 26.4358C61.3323 26.5358 60.9323 26.7358 60.5323 26.9358C59.8323 24.6358 59.8322 22.5358 61.3322 20.6358C62.4322 19.2358 63.5322 17.8359 64.8322 16.3359C64.5322 16.5359 64.3323 16.5358 64.2323 16.6358C63.0323 17.8358 61.6323 19.0359 60.5323 20.3359C59.1323 22.0359 57.5323 23.6359 56.7323 25.7359C55.9323 27.9359 56.1322 30.0359 56.3322 32.3359C59.9322 29.4359 61.1323 28.8358 63.7323 34.6358C64.3323 31.2358 64.1322 28.0359 66.8322 24.8359C68.0322 23.5359 69.2323 22.1359 70.5323 20.8359C71.9323 19.4359 73.4322 18.2359 74.9322 16.8359C75.4656 16.5025 75.9656 16.2025 76.4322 15.9358ZM65.5323 42.1358C63.9323 40.9358 64.3323 38.9359 64.0323 37.3359C63.8989 37.3359 63.7989 37.3359 63.7323 37.3359C63.7323 38.9359 63.7323 40.5359 63.7323 42.2359C62.9323 42.3359 62.3323 42.4358 61.7323 42.5358C63.7323 43.4358 64.1323 43.4358 65.5323 42.1358ZM62.0323 35.6358C62.1323 35.4358 62.1323 35.2358 62.0323 35.0358C61.7323 33.9358 61.2322 32.9359 60.3322 32.2359C59.1322 32.8359 58.5322 34.4358 56.9322 33.9358C56.3322 34.7358 56.3322 35.6358 56.6322 36.5358C56.7322 37.0358 57.0322 37.5358 56.9322 37.9358C56.6322 39.4358 57.6322 40.0359 58.6322 40.7359C59.5322 41.3359 60.6323 41.9358 61.7323 42.5358C61.8323 40.2358 61.1323 37.9358 62.0323 35.6358ZM94.9322 19.5358C92.8322 21.4358 95.3322 19.7358 84.9322 28.4358C79.7322 32.8358 79.8322 32.8358 78.6322 33.1358C84.9322 36.9358 91.0323 40.6359 97.0323 44.2359C99.2323 42.5359 101.332 41.0359 103.332 39.3359C105.232 37.7359 107.532 36.5358 109.432 34.5358C108.332 34.2358 107.532 34.0359 106.732 33.7359C105.732 33.4359 105.532 32.9358 105.732 31.9358C105.932 31.3358 106.032 30.7359 106.032 30.2359C106.132 27.8359 106.132 25.5359 106.132 23.2359C106.132 22.7025 106.166 22.1691 106.232 21.6358C106.332 20.5358 106.532 19.5358 106.632 18.4358C106.932 13.1358 108.832 10.8358 109.932 8.53581C106.132 6.13581 103.832 4.23586 99.2323 2.33586C98.0323 1.83586 96.9322 1.63586 95.6322 2.33586C93.0322 3.73586 91.0323 5.63585 88.7323 7.33586C88.4323 7.53585 88.1323 7.73583 87.7323 7.93583C90.1323 10.2358 91.6322 12.5359 92.3322 13.8359C92.7322 14.6359 92.7322 15.4358 93.8322 15.5358C93.8322 17.0358 93.4322 18.4358 94.9322 19.5358ZM81.0323 79.4358C81.6323 79.1358 82.2322 78.9358 82.6322 78.6358C83.7322 77.7358 85.1322 76.9359 85.9322 75.7359C86.5322 74.7359 87.1656 73.7359 87.8322 72.7359C88.6322 71.6359 89.3322 70.5358 89.9322 69.6358C89.2322 69.2358 88.4322 69.0358 87.9322 68.5358C86.7322 67.1358 85.2322 66.0358 83.6322 65.1358C82.8322 64.7358 82.0322 64.3359 81.4322 63.8359C79.1322 62.1359 76.5323 61.4359 73.7323 60.8359C72.1323 60.4359 70.7322 60.7359 69.4322 61.7359C68.4322 62.4359 67.2323 63.0359 66.2323 63.7359C64.7323 64.7359 63.3322 65.8358 61.6322 67.0358C62.8322 67.8358 63.8322 68.6359 64.9322 69.2359C67.9989 71.2359 71.0656 73.2024 74.1322 75.1358C76.5322 76.6358 78.8323 78.1358 81.0323 79.4358ZM78.5323 32.1358C90.9323 22.5358 92.4323 21.3359 92.2323 19.8359C91.1323 12.3359 88.6323 10.2358 81.0323 14.9358C78.4323 16.5358 75.9322 18.4359 73.3322 20.2359C73.0322 20.5359 72.6322 20.7359 72.8322 21.3359C73.8322 21.0359 74.3323 19.8358 75.7323 20.1358C74.0323 21.3358 72.4322 22.3358 71.3322 23.9358C68.8322 27.5358 67.0322 31.2359 68.4322 35.8359C68.8322 37.2359 69.1322 37.4359 70.8322 36.7359C69.4322 35.3359 68.9322 33.6359 69.4322 31.7359C69.4322 31.6359 69.3322 31.4359 69.3322 31.3359C69.1322 30.0359 69.5322 29.0358 70.4322 28.1358C72.8322 25.2358 75.9322 23.0358 79.1322 21.0358C79.8322 20.5358 80.7322 20.2358 81.6322 20.1358C79.6322 21.7358 77.6323 23.1358 75.7323 24.5358C74.3989 25.5358 73.0989 26.5691 71.8322 27.6358C70.9322 28.3358 70.2323 29.2358 70.2323 30.6358C70.6323 30.5358 70.9323 30.4359 71.2323 30.3359C73.7323 28.9359 78.0323 30.4358 78.5323 32.1358ZM108.032 46.9358C108.332 45.8358 109.032 45.6359 109.632 45.2359C111.332 44.2359 113.032 43.2359 114.732 42.2359C118.232 40.0359 122.432 37.0359 124.032 33.2359C124.732 31.5359 123.932 30.6359 122.132 30.8359C120.132 31.0359 118.332 31.7359 116.632 32.7359C115.566 33.3359 114.466 33.9358 113.332 34.5358C112.799 34.8691 112.266 35.1692 111.732 35.4358C110.232 36.3358 108.732 37.0358 107.732 38.5358C108.466 38.2025 109.199 37.8691 109.932 37.5358C109.832 38.0358 109.532 38.2358 109.232 38.4358C106.032 40.3358 103.232 42.7359 101.132 45.8359C100.332 47.1359 99.3322 48.3358 100.132 50.0358C100.232 50.2358 100.032 50.7359 99.8322 50.8359C99.6322 50.9359 99.2323 50.8358 99.0323 50.6358C98.4323 50.2358 97.9322 49.8359 97.4322 49.3359C97.3322 48.7359 97.3323 47.9358 97.2323 46.9358C95.2323 49.2358 94.1322 51.6358 94.4322 54.4358C94.6322 54.3692 94.7323 54.2358 94.7323 54.0358C95.1323 53.1358 95.7323 52.0358 96.7323 51.9358C97.9323 51.6358 99.3322 51.9358 100.632 52.0358C100.732 52.0358 100.832 52.0358 100.832 52.1358C101.632 53.0358 102.732 53.8359 102.732 55.2359C102.732 55.4359 102.932 55.6358 103.032 56.0358C103.232 55.7358 103.432 55.5358 103.432 55.4358C104.832 52.4358 106.632 49.7358 109.532 48.0358C110.232 47.5358 110.932 47.1358 111.232 46.0358C110.132 46.3358 109.232 46.6358 108.032 46.9358ZM130.632 36.8359C124.632 39.3359 117.832 43.2359 113.632 47.8359C112.732 48.9359 111.432 49.8358 111.132 51.5358C111.532 51.4358 111.732 51.3359 112.032 51.2359C112.532 51.0359 113.132 50.9358 113.432 51.4358C113.832 52.2358 114.932 52.7359 114.532 53.8359C111.832 60.8359 108.832 57.1358 108.732 55.0358C107.632 55.5358 106.032 55.3358 106.432 60.6358C114.532 57.4358 104.532 64.6358 124.632 48.5358C119.432 50.5358 118.532 53.0359 115.932 53.2359C115.932 52.2359 116.632 52.0359 117.132 51.7359C125.332 46.1359 127.632 45.2359 130.332 42.8359C130.632 42.5359 131.332 42.7358 131.832 42.6358C132.632 39.9358 132.232 37.8359 130.632 36.8359ZM154.332 38.2359C153.132 39.5359 158.932 42.6359 159.932 38.8359C160.432 37.2359 161.332 35.8359 162.632 34.8359C163.532 34.0359 164.432 33.2358 165.432 32.4358C163.032 30.8358 161.632 30.1358 161.132 28.1358C160.732 26.6358 162.232 26.6358 162.432 27.6358C162.732 28.8358 163.432 29.6358 164.232 30.4358C165.532 31.7358 166.732 31.9359 168.432 31.2359C169.732 30.6359 171.032 30.2358 172.432 30.5358C172.732 30.6358 173.032 30.5358 173.532 30.5358C172.832 29.8358 172.332 29.2359 171.732 28.7359C165.432 24.1359 159.932 24.6358 154.632 31.1358C153.332 32.7358 154.732 35.8358 156.732 37.0358C156.432 37.2358 156.132 37.5358 155.632 37.9358C156.332 38.4358 156.932 38.9358 157.632 39.4358C156.232 39.9358 155.432 38.8359 154.332 38.2359ZM62.2323 113.836C64.4323 113.136 66.5322 112.836 68.3322 111.836C76.0322 107.136 82.4322 101.936 83.9322 100.836C85.7322 99.5359 87.5323 98.2359 89.2323 96.8359C97.4323 90.4359 97.3322 89.8358 100.432 88.1358C101.832 87.4358 103.332 86.5358 104.532 85.4358C107.032 83.0358 109.332 80.4358 112.232 78.4358C113.832 77.3358 114.632 75.1358 116.932 74.9358C118.532 73.4358 119.932 71.8358 121.132 70.1358C120.232 70.7358 119.532 71.4358 118.632 72.1358C116.432 73.7358 114.132 75.3358 111.932 77.1358C106.232 81.5358 108.732 80.1358 99.1322 87.0358C92.6322 91.8358 87.6323 98.2358 66.5323 108.936C64.5323 109.836 63.0323 111.336 62.2323 113.836ZM176.332 38.2359C176.032 37.0359 175.832 35.8359 175.432 34.7359C175.132 33.5359 174.532 33.2359 173.332 33.2359C172.732 33.2359 172.232 33.3359 171.732 33.3359C170.532 33.2359 169.532 33.7359 168.632 34.3359C166.832 35.6359 165.532 37.4359 164.432 39.3359C164.132 39.9359 164.032 40.7359 163.732 41.2359C162.532 42.9359 162.732 44.7358 163.532 46.4358C163.932 47.2358 164.632 48.0358 165.432 48.5358C167.132 49.4358 170.832 48.7359 172.232 47.2359C174.532 44.7359 176.132 41.8359 176.332 38.2359ZM58.3322 66.4358C56.2322 67.1358 54.8323 68.2358 54.2323 69.6358C53.8323 70.3358 53.8323 70.8359 54.5323 71.2359C54.7323 71.4359 55.1322 71.6358 55.1322 71.9358C55.2322 72.8358 56.0322 73.2358 56.6322 73.6358C57.7656 74.3691 58.9322 75.1025 60.1322 75.8359C63.3322 77.6359 66.5323 79.4358 69.7323 81.1358C71.5323 82.1358 73.4322 83.0358 75.4322 83.9358C76.3322 83.2358 77.3323 82.5358 78.5323 81.6358C76.1323 81.1358 74.3322 80.2359 72.8322 78.7359C72.4322 78.2359 71.8323 77.9358 71.2323 77.6358C68.5323 76.1358 65.7323 74.6358 63.0323 73.1358C61.7323 72.3358 60.5323 71.4358 59.2323 70.5358C58.8323 70.2358 58.5322 69.9358 58.8322 69.5358C59.1322 69.0358 59.6323 69.0359 60.0323 69.3359C61.2323 70.0692 62.4322 70.7692 63.6322 71.4358C64.1322 71.7358 64.6322 71.9358 65.1322 72.1358C65.2322 71.7358 65.1322 71.5358 64.9322 71.4358C62.7989 69.7692 60.5989 68.1025 58.3322 66.4358ZM149.932 20.9358C149.032 20.0358 147.732 20.1358 146.932 19.4358C146.132 18.6358 145.432 17.8359 144.432 17.3359C143.132 16.5359 141.832 16.7358 140.532 17.4358C140.032 17.7358 139.532 18.0359 139.032 18.3359C138.032 19.1359 137.032 19.8359 136.232 20.7359C134.332 22.8359 134.232 25.5358 133.732 28.5358C137.132 25.2358 139.632 27.4359 142.132 29.7359C142.732 28.6359 143.232 27.5358 143.832 26.6358C145.432 24.3358 146.732 21.7358 149.932 20.9358ZM116.932 23.2359C117.066 23.1692 117.199 23.1358 117.332 23.1358C116.632 20.4358 116.132 15.7359 113.332 17.3359C112.432 17.8359 111.532 18.4358 110.932 19.1358C109.432 21.1358 108.732 23.4358 108.432 25.9358C108.332 27.0358 108.232 28.1359 108.032 29.2359C107.232 32.4359 106.932 32.2358 110.232 33.6358C110.732 33.8358 111.132 33.8358 111.532 33.5358C113.232 32.3358 115.032 31.2358 116.732 30.1358C117.132 29.8358 117.532 29.2359 117.532 28.8359C117.532 27.7359 117.332 25.3359 116.932 23.2359ZM112.032 15.3359C111.632 15.8359 111.232 16.2358 110.932 16.5358C112.332 15.8358 113.632 15.3358 115.232 15.9358C116.732 16.4358 117.432 17.7359 118.132 19.2359C118.432 18.5359 118.632 18.0358 118.832 17.5358C119.532 15.6358 120.432 13.9359 122.232 12.7359C123.232 12.1359 123.932 11.1359 124.832 10.2359C124.232 9.63588 123.732 9.03588 123.132 8.73588C121.632 7.63588 119.832 7.23583 118.032 6.93583C117.132 6.73583 116.332 6.93588 115.532 7.73588C115.332 7.93588 115.032 8.13578 114.832 8.13578C113.432 7.93578 110.832 11.3359 110.532 12.2359C110.932 12.2359 111.232 12.2359 111.832 12.2359C111.332 13.1359 110.932 13.9358 110.532 14.6358C111.032 14.9358 111.532 15.1359 112.032 15.3359ZM141.332 44.5358C141.732 43.6358 141.932 42.9359 141.432 42.2359C141.232 41.9359 141.132 41.4358 141.132 41.1358C141.132 39.6358 141.032 38.0358 141.332 36.5358C141.532 34.9358 141.032 33.4358 140.832 31.9358C140.732 31.6358 140.432 31.3358 140.132 31.1358C139.132 30.5358 137.632 30.9358 136.932 32.0358C136.532 32.7025 136.166 33.3691 135.832 34.0358C135.132 35.2358 134.732 36.3359 134.732 37.7359C134.732 38.6359 134.632 39.5358 134.632 40.4358C134.532 41.7358 134.632 42.0358 135.932 42.4358C137.132 42.8358 138.366 43.1359 139.632 43.3359C140.432 43.4359 141.132 43.4358 141.332 44.5358ZM127.632 25.2359C127.099 24.9692 126.566 24.7025 126.032 24.4358C125.432 24.0358 124.732 23.8358 124.132 23.4358C122.532 22.5358 121.832 20.3359 123.132 19.2359C124.332 18.1359 125.432 16.8359 127.432 17.2359C127.632 17.2359 127.932 17.1358 128.432 16.9358C128.132 16.1358 127.932 15.4359 127.532 14.7359C127.032 13.9359 125.632 13.4359 124.832 13.7359C123.432 14.4359 122.332 15.4359 121.532 16.8359C121.132 17.5359 120.832 18.3358 120.532 19.1358C119.632 21.5358 119.832 20.2359 119.332 27.8359C119.332 27.9359 119.432 28.0359 119.632 28.2359C122.232 26.9359 124.932 27.2359 127.832 28.3359C127.732 27.7359 127.632 27.3358 127.632 26.9358C127.632 26.4358 127.632 25.9359 127.632 25.2359ZM74.0323 32.3359C73.7323 32.7359 73.5323 32.9359 73.2323 33.2359C72.3323 34.2359 72.3322 34.7358 73.3322 35.5358C74.0322 36.2358 75.0323 36.6358 75.5323 37.4358C77.3323 40.1358 92.2322 47.4358 93.6322 47.5358C95.4322 44.1358 80.2322 35.8358 75.4322 32.9358C75.0322 32.7358 74.5323 32.5359 74.0323 32.3359ZM152.532 24.1358C151.732 24.2358 151.132 24.3358 150.632 24.5358C148.632 25.4358 147.232 26.9358 146.432 29.0358C145.832 30.7358 145.332 32.5359 144.932 34.3359C144.732 35.2359 144.632 36.1358 144.632 37.0358C144.566 39.7691 144.532 42.5025 144.532 45.2359C144.532 46.1359 144.532 47.0358 144.632 48.1358C144.532 48.2358 144.232 48.7358 143.932 49.1358C143.999 49.1358 144.032 49.1692 144.032 49.2359C145.432 48.1359 146.732 46.9359 148.232 45.7359C146.732 44.6359 146.432 43.3359 146.432 41.8359C146.432 41.1692 146.466 40.5358 146.532 39.9358C146.832 38.4358 147.132 37.1358 146.932 35.5358C146.832 34.5358 146.832 33.5358 146.632 32.5358C146.332 31.0358 147.132 30.0358 148.132 29.1358C149.032 28.2358 149.932 28.3359 150.932 28.7359C151.066 28.8025 151.232 28.8359 151.432 28.8359C152.332 29.0359 152.532 28.8358 152.732 27.9358C152.932 26.7358 152.832 25.5358 152.532 24.1358ZM102.932 64.3359C102.732 63.3359 102.532 62.6359 102.432 61.8359C102.232 60.8359 102.232 59.7358 101.332 59.0358C101.232 58.8358 101.132 58.5359 101.132 58.2359C101.132 57.3025 101.132 56.3692 101.132 55.4358C101.132 54.7358 100.732 54.2358 100.132 53.9358C99.5989 53.6692 99.0656 53.4024 98.5323 53.1358C97.3323 52.7358 96.3323 53.0359 96.0323 54.3359C95.6323 55.8359 95.4323 57.4358 95.2323 58.9358C95.0323 60.0358 95.6322 60.5358 96.6322 61.0358C98.3322 61.9358 100.032 62.9359 101.732 63.8359C102.032 64.0359 102.332 64.1359 102.932 64.3359ZM158.932 47.2359C158.832 45.9359 158.732 44.9358 158.532 43.9358C158.432 43.6358 158.132 43.3358 157.932 43.1358C157.632 42.9358 157.332 42.9359 157.032 42.8359C151.932 41.1359 151.932 38.2358 150.732 35.4358C149.132 38.3358 149.532 41.0358 150.632 43.6358C151.232 45.0358 152.532 45.8358 154.132 46.1358C153.832 45.5358 153.432 45.0358 153.032 44.6358C152.832 44.3358 152.432 43.9358 152.832 43.5358C153.232 43.1358 153.732 43.2358 154.032 43.6358C155.232 45.3358 157.132 46.0359 158.932 47.2359ZM124.632 21.4358C126.932 22.5358 129.132 23.6358 131.332 24.6358C131.932 24.9358 132.232 24.4358 132.332 23.9358C132.599 23.1358 132.832 22.3358 133.032 21.5358C130.432 18.7358 126.432 18.5358 124.632 21.4358ZM129.232 25.9358C128.732 29.1358 129.332 30.3358 131.732 31.4358C131.632 29.7358 131.532 28.1358 131.432 26.4358C130.732 26.2358 130.032 26.1358 129.232 25.9358ZM151.032 30.5358C149.832 30.0358 149.232 30.2358 148.732 30.9358C148.332 31.7358 148.532 32.6358 149.532 33.5358C150.032 32.5358 150.532 31.5358 151.032 30.5358ZM129.832 32.0358C129.532 32.9358 129.332 33.5359 129.132 34.2359C130.132 34.5359 130.832 34.8358 131.832 35.1358C131.632 33.7358 130.832 32.9358 129.832 32.0358ZM88.4322 10.7359C87.8322 10.1359 87.5323 9.83586 87.0323 9.33586C86.7323 9.83586 86.4322 10.2358 86.1322 10.9358C87.0322 10.8358 87.5322 10.8359 88.4322 10.7359ZM111.732 55.3359C112.432 55.0359 112.832 54.5358 112.832 53.6358C111.832 53.9358 111.632 54.4359 111.732 55.3359ZM139.532 53.2359C139.599 53.3025 139.666 53.4025 139.732 53.5358C140.266 53.0691 140.799 52.5691 141.332 52.0358C141.199 51.9691 141.099 51.9025 141.032 51.8359C140.499 52.3025 139.999 52.7692 139.532 53.2359ZM143.332 50.0358C143.332 50.0358 143.299 50.0025 143.232 49.9358C142.766 50.2692 142.299 50.6358 141.832 51.0358C141.899 51.1025 141.966 51.1692 142.032 51.2359C142.499 50.8359 142.932 50.4358 143.332 50.0358ZM159.232 48.5358C159.166 48.6691 159.132 48.8025 159.132 48.9358C159.399 49.0025 159.699 49.1025 160.032 49.2359C160.099 49.1025 160.132 48.9692 160.132 48.8359C159.799 48.7692 159.499 48.6691 159.232 48.5358Z" fill="#101828"/>
<path id="&#60;Path&#62;" d="M20.2323 72.6355C20.7323 72.5355 21.2323 72.3356 21.6323 72.2356C46.9323 67.4356 55.0323 53.6355 59.8323 47.9355C60.5323 47.9355 60.7323 48.1355 61.5323 48.4355C58.6323 54.4355 52.6323 60.6356 48.2323 63.2356C46.2323 64.3356 44.1323 65.3355 42.0323 66.4355C26.5323 74.2355 27.9323 73.2355 20.3323 72.9355C20.3323 72.8689 20.299 72.7688 20.2323 72.6355Z" fill="#101828"/>
<path id="&#60;Path&#62;_2" d="M49.7323 70.8359C49.2323 72.6359 41.6323 76.6359 39.9323 77.4359C36.1323 79.2359 32.3323 81.2359 28.3323 82.4359C26.4323 83.0359 24.5323 83.5359 22.6323 84.1359C22.3323 84.2359 21.9323 84.336 21.7323 84.236C21.4323 84.136 21.1323 83.7359 21.0323 83.4359C21.0323 83.2359 21.3323 82.836 21.5323 82.736C22.1323 82.536 22.7323 82.5359 23.2323 82.3359C26.8323 81.3359 30.5323 80.5359 34.0323 78.9359C38.5323 76.8359 49.7323 70.8359 49.7323 70.8359Z" fill="#101828"/>
<path id="&#60;Path&#62;_3" d="M36.2323 63.2358C36.5323 61.8358 37.5323 61.5357 38.2323 61.1357C39.8323 60.2357 41.5323 59.4358 42.9323 58.4358C45.2323 56.8358 47.6323 55.1358 49.6323 53.2358C51.6323 51.4358 51.9323 50.8358 58.1323 43.7358C59.0323 47.8358 45.4323 58.4358 41.8323 60.7358C41.2323 61.2358 40.4323 61.4358 39.7323 61.7358C38.6323 62.2358 37.6323 62.6358 36.2323 63.2358Z" fill="#101828"/>
<path id="&#60;Path&#62;_4" d="M87.9322 86.5358C81.1322 91.1358 89.8323 85.7358 62.7323 101.936C61.7323 102.436 60.6323 103.036 59.5323 103.036C59.1323 102.536 59.2323 102.036 59.7323 101.936C64.5323 99.8358 86.3323 86.9358 87.7323 86.2358C87.799 86.3692 87.8656 86.4691 87.9322 86.5358Z" fill="#101828"/>
<path id="&#60;Path&#62;_5" d="M75.0323 16.8357C74.3323 16.7357 73.9322 16.9357 73.3322 17.4357C71.5322 18.8357 69.7322 20.2356 67.8322 21.6356C67.3322 20.8356 67.7323 20.3356 68.2323 20.0356C71.6323 17.769 75.0656 15.5024 78.5323 13.2357C78.9323 12.9357 79.3322 12.6356 79.9322 12.5356C79.2322 13.1356 78.4323 13.7357 77.7323 14.3357C77.2323 14.8357 76.8322 15.4357 76.4322 15.9357L76.5323 15.8357C75.7323 15.7357 75.3323 16.2357 75.0323 16.8357Z" fill="#101828"/>
<path id="&#60;Compound Path&#62;_2" fill-rule="evenodd" clip-rule="evenodd" d="M172.732 41.3357C172.832 43.4357 170.432 45.0357 168.632 44.8357C167.432 44.7357 166.132 42.7357 166.332 41.5357C166.432 40.9357 166.732 40.3358 167.032 39.7358C167.632 38.6358 169.332 37.7357 170.332 37.9357C171.632 38.2357 172.632 39.6357 172.732 41.3357ZM169.332 42.0357C170.332 42.2357 170.732 41.9358 170.832 41.2358C170.966 40.5691 170.699 40.2358 170.032 40.2358C169.332 40.1358 168.732 40.5358 168.732 41.2358C168.832 41.5358 169.132 41.9357 169.332 42.0357Z" fill="#101828"/>
<path id="&#60;Path&#62;_6" d="M113.632 31.5358C113.532 30.6358 113.332 30.0358 113.332 29.5358L113.832 20.7358C115.732 21.3358 115.332 22.5357 114.232 30.6357C114.132 30.8357 114.032 31.0358 113.632 31.5358Z" fill="#101828"/>
<path id="&#60;Path&#62;_7" d="M75.4323 35.3356C75.6323 34.5356 76.0323 34.2357 76.7323 34.7357C77.2323 35.1357 77.6323 35.5356 78.2323 35.9356C87.4323 41.8356 85.9323 40.8356 89.8323 43.5356C88.9323 45.0356 89.0323 44.9357 77.4323 37.2357C76.7323 36.7357 76.0323 35.9356 75.4323 35.3356Z" fill="#101828"/>
</g>
</svg>
