<svg width="115" height="109" viewBox="0 0 115 109" fill="none" xmlns="http://www.w3.org/2000/svg">
<g id="&#60;Group&#62;" opacity="0.5">
<path id="&#60;Compound Path&#62;" fill-rule="evenodd" clip-rule="evenodd" d="M69.7474 60.9687C69.7465 61.1347 69.7286 61.3334 69.7273 61.5826C70.3136 61.7692 70.8482 62.2199 71.4533 62.0417C71.6701 62.2819 71.8035 62.436 72.0043 62.5427C72.6567 62.931 73.326 63.2867 73.9953 63.6424C75.1162 64.2797 76.2036 64.8992 77.3245 65.5364C77.5588 65.6609 77.7761 65.818 77.8581 66.1531C77.8577 66.2362 77.9576 66.3726 78.058 66.4259C78.7099 66.8973 79.4466 67.2055 80.3195 67.1696C80.4417 67.3178 80.5863 67.4779 80.7532 67.6499C80.8879 67.5549 80.9893 67.4422 81.1236 67.4303C81.3083 67.4036 81.5265 67.3946 81.6604 67.4657C81.9281 67.608 82.1454 67.7651 82.3792 67.9726C82.4462 68.0082 82.5126 68.1268 82.5122 68.2099C82.4265 68.5391 82.6264 68.8119 82.7254 69.1143C83.0229 69.9387 83.1357 70.7898 82.9633 71.6144C82.6544 72.866 82.3289 74.0672 82.0199 75.3189C81.9512 75.6155 81.8994 75.8794 81.8471 76.2264C82.6861 76.2558 83.409 76.0154 83.9495 75.3865C83.9834 75.3212 84.0508 75.2737 84.1012 75.2589C84.6889 75.1964 84.9264 74.7396 85.2473 74.3688C85.5008 74.0455 85.7044 73.6539 85.9583 73.2475C86.2095 73.3394 86.3778 73.2622 86.53 73.0516C87.3079 71.9659 87.935 70.8417 88.4787 69.6315C89.2094 67.9794 89.9571 66.2946 90.7882 64.6958C91.2971 63.7169 91.8894 62.8241 92.5655 61.9341C93.0221 61.3023 93.6791 60.8602 94.4359 60.5545C95.731 60.0351 97.0582 59.7826 98.4848 59.7495C99.3072 59.7285 100.112 59.9061 100.9 59.9504C102.729 60.1307 104.192 59.4511 105.374 58.2466C106.572 57.0095 107.503 55.6302 107.982 53.9692C108.102 53.4917 108.356 53.0853 108.543 52.6433C108.951 51.6942 109.392 50.7628 110.017 49.9708C110.829 48.9028 111.74 47.9713 113.001 47.5171C113.22 47.4251 113.405 47.3154 113.641 47.1907C113.791 47.3123 113.942 47.4338 114.142 47.6235C114.007 47.7185 113.973 47.7838 113.923 47.7986C112.915 48.0125 112.173 48.6177 111.481 49.2911C110.183 50.4749 109.469 52.0113 108.806 53.616C108.431 54.583 108.241 55.6062 107.632 56.4487C106.871 57.5848 105.976 58.6498 104.88 59.525C104.425 59.9077 103.887 60.1214 103.349 60.2521C102.458 60.4867 101.535 60.5374 100.612 60.422C98.952 60.2476 97.3241 60.257 95.6934 60.7646C94.6849 61.0615 93.8093 61.5956 93.1001 62.3848C92.2222 63.3341 91.5616 64.4405 91.0179 65.6507C90.2877 67.2198 89.6074 68.8571 88.8267 70.441C88.4192 71.3072 87.8943 72.1526 87.3863 72.9653C86.9459 73.703 86.4721 74.4228 85.9648 75.1248C85.7447 75.466 85.4408 75.8042 85.1203 76.0919C84.4121 76.715 83.7038 77.338 82.7627 77.5874C82.4936 77.6943 82.208 77.7507 81.8385 77.8042C82.1053 78.1126 82.39 78.2222 82.6916 78.2992C82.8929 78.3229 83.0602 78.4118 83.2106 78.5333C83.5947 78.8624 83.9285 79.2063 84.3127 79.5354C85.1145 80.2113 85.3111 81.0654 85.2053 82.0085C85.1356 82.4712 85.0155 82.9487 85.0297 83.4144C85.026 84.0787 84.8216 84.6363 84.6336 85.2443C84.3091 86.2795 83.8672 87.2939 83.3583 88.2727C83.234 88.512 83.0984 88.7454 82.9517 88.9728C80.0435 92.9241 78.7195 92.5953 76.1082 91.3742C75.874 91.2498 75.5723 91.1727 75.3381 91.0483C74.8989 91.5644 74.4767 92.048 74.0714 92.4989C73.3118 93.3029 72.5522 94.1068 71.7757 94.9434C71.3704 95.3943 70.8152 95.6406 70.2601 95.887C69.5367 96.2105 68.8137 96.4509 68.0252 96.4067C67.6897 96.3949 67.355 96.2171 67.0368 96.0897C65.7473 95.6126 64.509 94.9546 63.2199 94.3945C62.9017 94.2671 62.634 94.1248 62.2641 94.2613C62.1476 94.0745 61.9303 93.9174 61.9147 93.7009C61.8166 93.2324 61.4659 92.9211 61.0643 92.7077C60.9974 92.6721 51.6429 87.8261 49.2994 86.7474C49.0986 86.6407 48.8469 86.6318 48.6287 86.6408C46.7501 86.4753 45.5329 85.0373 41.6651 83.44C40.5767 82.9866 39.5393 82.4353 38.5188 81.8514C38.0503 81.6024 37.5822 81.2704 37.2659 80.8108C37.1994 80.6922 36.9821 80.5351 36.8478 80.547C35.8071 80.577 32.3986 77.8496 30.4723 77.2008C29.1992 76.7741 25.7527 74.8593 25.7192 74.8415C25.0141 74.8833 24.3274 74.6433 23.8428 74.2609C22.3557 73.0958 20.6315 72.3045 19.0086 71.4005C17.67 70.6891 16.3318 69.8947 15.0101 69.1508C14.6085 68.9374 14.3252 68.5786 13.8558 68.4957C13.2556 67.7604 12.2668 67.5264 11.5993 66.8386C11.2321 66.4769 10.8484 66.0648 10.4129 65.9166C9.47491 65.5848 8.02851 63.1088 8.46352 60.3002C8.72479 58.5651 9.01634 57.4291 9.01634 57.4291C7.34304 56.54 5.81919 55.9384 5.02195 54.4321C4.90596 54.1622 4.89083 53.8627 4.8757 53.5632C4.86056 53.2636 5.04622 53.0708 5.33228 52.9313C5.39967 52.8838 5.45101 52.7029 5.51886 52.5724C6.5072 49.8496 7.29383 47.1861 8.5797 45.2876C9.13806 44.46 9.76381 43.5849 10.7063 43.0864C10.8411 42.9914 10.9924 42.9469 11.0937 42.8341C11.8354 42.2289 12.624 42.2731 13.4611 42.6347C14.2812 43.0289 15.0674 43.4883 15.9375 43.9507C16.6976 43.0637 17.6915 42.3842 18.7023 41.6721C18.8371 41.5772 19.0053 41.5 19.1401 41.4051C19.7462 41.0608 20.3687 40.767 20.9413 40.405C21.6317 39.9807 22.4037 39.9745 23.1762 39.8853C24.2512 39.707 25.273 40.0418 26.2779 40.4093C26.3449 40.4448 26.4288 40.4478 26.4787 40.516C26.8611 41.1772 27.5657 41.2185 28.1685 41.4556C29.106 41.8705 30.0944 42.1875 31.0324 42.5193C31.5348 42.7031 32.0203 42.9194 32.3871 43.3642C32.6374 43.6221 33.0729 43.7702 33.458 43.9332C34.379 44.2977 35.2835 44.6118 36.2045 44.9763C36.69 45.1926 37.1585 45.4416 37.6105 45.6402C38.2298 45.9276 38.8327 46.1647 39.452 46.4522C40.5569 46.956 41.6278 47.5251 42.6991 48.0111C43.352 48.3164 44.0217 48.589 44.6746 48.8943C45.2996 49.1709 45.9076 49.4801 46.4987 49.822C48.255 50.8802 50.1135 51.6596 51.9555 52.3885C52.4914 52.59 52.9429 52.8717 53.4284 53.088C53.6962 53.2303 53.9474 53.3221 54.2325 53.3487C54.8024 53.485 55.2539 53.7666 55.5363 54.2914C55.8852 54.9349 56.4706 55.2876 57.1065 55.6255C57.5081 55.8389 57.8423 56.0998 58.2439 56.3132C58.6624 56.4939 59.0975 56.7251 59.5335 56.7902C60.0199 56.8405 60.4214 57.0539 60.84 57.2347C61.7605 57.6822 62.6976 58.1802 63.6181 58.6277C64.4218 58.9715 65.2424 59.2826 65.9786 59.6738C66.531 59.9258 66.9821 60.2904 67.4841 60.5572C67.8353 60.7854 68.2369 60.9988 68.622 61.1618C69.1914 61.3811 69.2244 61.4819 69.7474 60.9687ZM14.2395 44.5058C14.3234 44.5088 14.4742 44.5473 14.5072 44.6481C14.6072 44.7845 14.6567 44.9357 14.6223 45.084C14.5825 46.2288 14.1405 47.2432 13.6147 48.2547C13.5634 48.4356 13.4612 48.7144 13.1765 48.6048C12.8753 48.4447 13.011 48.1837 13.0458 47.9524C13.0463 47.8693 13.0972 47.7714 13.148 47.6736C13.2163 47.46 13.3351 47.2316 13.4373 46.9528C13.2008 47.2435 12.9981 47.469 12.8624 47.73C12.5232 48.3826 12.3013 49.0559 12.0125 49.6936C11.588 50.5923 11.2305 51.5266 10.5717 52.3009C10.3352 52.5916 10.1656 52.9179 9.94551 53.259C9.84374 53.4548 9.84374 53.4548 9.47378 53.5914C9.62827 52.9655 9.93358 52.3782 10.3223 51.8769C10.4915 51.6336 10.7111 51.3756 10.8133 51.0967C11.2552 50.0823 11.6132 49.065 12.0551 48.0506C12.4805 46.9857 12.6547 45.829 12.9463 44.6931C12.9811 44.4617 12.9994 44.18 13.0008 43.9308C13.0191 43.6491 13.0379 43.2843 12.7198 43.1569C12.4186 42.9968 12.0335 42.8338 11.6966 43.0712C11.1744 43.4184 10.5853 43.73 10.2135 44.1987C9.6396 44.8098 9.08215 45.4713 8.64161 46.2366C7.01376 49.2859 6.20788 52.3972 6.05431 52.8569C5.86637 53.465 6.09835 54.0047 6.36425 54.4791C6.43072 54.5977 6.63151 54.7044 6.78234 54.7429C7.06748 54.7695 7.33613 54.7457 7.65474 54.7901C7.71939 55.2409 7.19952 55.1728 7.0299 55.4991C7.96695 55.997 10.1436 56.9039 10.5956 57.1024C11.154 56.2748 11.6789 55.4294 12.1868 54.6166C12.6782 53.7534 12.9689 52.7836 13.2425 51.8463C13.5836 50.8616 13.8912 49.8591 14.2657 48.8921C14.4537 48.2841 14.7085 47.7116 14.9969 47.1569C15.641 46.0001 16.5523 45.0686 17.4971 44.1548C18.0032 43.6742 18.6432 43.2647 19.1828 42.8019C19.4019 42.6269 19.5876 42.434 19.7732 42.2412C19.925 42.1136 20.0597 42.0187 20.245 41.9089C20.3797 41.8139 20.548 41.7368 20.6828 41.6418C20.9184 41.5172 21.154 41.3926 21.3562 41.2501C21.5584 41.1077 21.744 40.9149 22.0136 40.725C22.0631 40.8762 22.1465 40.9622 22.163 41.0126C22.0434 41.4071 21.9907 41.8371 21.8041 42.1961C21.5332 42.6351 21.4465 43.1304 21.3934 43.6435C21.2526 44.8179 21.1454 46.0102 20.8034 47.161C20.3757 48.641 19.8476 50.0677 19.2191 51.4411C18.8964 52.144 18.4233 52.7255 17.8668 53.2209C17.7994 53.2684 17.682 53.2477 17.4304 53.2389C17.7513 52.868 17.9709 52.61 18.2074 52.3192C18.3087 52.2065 18.3931 52.1264 18.4609 51.9959C19.0206 50.9192 19.4965 49.8395 19.8219 48.6383C19.8394 48.5226 19.8568 48.4069 19.8912 48.2586C19.689 48.401 19.6042 48.5642 19.5194 48.7273C19.3837 48.9883 19.298 49.3176 19.1123 49.5104C18.6062 49.991 18.3178 50.5457 18.029 51.1834C17.7572 51.7885 17.2346 52.2187 16.7789 52.6845C16.745 52.7497 16.6611 52.7468 16.4764 52.7736C16.5786 52.4947 16.6134 52.2634 16.7317 52.118C17.6091 51.2518 17.985 50.0357 18.6951 49.0805C19.2361 48.3686 19.5097 47.4313 19.7664 46.5267C20.1588 45.361 20.4004 44.1569 20.7259 42.9556C20.7598 42.8904 20.7268 42.7895 20.7272 42.7065C20.3385 43.2078 19.9832 43.727 19.8622 44.3706C19.7394 45.3463 19.4322 46.2658 18.9073 47.1112C18.7382 47.3544 18.7029 47.6688 18.5842 47.8972C18.5502 47.9625 18.4659 48.0426 18.3141 48.1702C18.316 47.838 18.3169 47.6719 18.3348 47.4732C18.3017 47.3724 18.2518 47.3042 18.2353 47.2538C17.7411 48.6152 16.8953 49.8314 16.1834 51.1188C16.0353 50.582 16.3732 50.1786 16.5602 49.7366C16.7307 49.2443 17.0017 48.8052 17.1722 48.3129C17.365 47.8324 17.5467 47.3459 17.7172 46.8536C17.8708 46.3938 18.0748 45.9192 18.061 45.3706C17.2519 46.0233 17.0617 47.0465 16.5038 47.7911C15.9624 48.5861 15.6387 49.4552 15.2647 50.3391C15.1551 48.9067 15.8831 47.7528 16.4098 46.5752C15.7524 47.1003 15.4966 47.8389 15.1904 48.5923C14.9355 49.1648 14.9983 49.9477 14.3583 50.3572C14.3414 50.3898 14.3244 50.4224 14.3075 50.455C14.0116 51.3528 13.7158 52.2505 13.42 53.1482C13.3173 53.5101 13.1811 53.8541 13.0115 54.1804C12.5821 54.9516 12.1359 55.7278 11.6729 56.5089C11.4185 56.9984 11.0802 57.4848 10.7923 57.9565C10.6571 58.1345 10.5218 58.3125 10.2706 58.2206C10.0194 58.1287 10.1212 57.933 10.1555 57.7847C10.2073 57.5207 10.0231 57.4644 9.78834 57.423C9.70262 57.7522 9.65081 58.0162 9.58205 58.3128C9.53025 58.5767 9.52889 58.8259 9.77966 59.0008C10.0135 59.2083 10.2826 59.1014 10.5012 59.0094C11.6111 58.5998 12.3537 57.8285 12.8126 56.7814C13.0052 56.3563 13.1977 55.9311 13.3902 55.506C13.4411 55.4081 13.5589 55.3458 13.6433 55.2657C13.5566 55.761 13.4031 56.2207 13.2495 56.6804C12.941 57.849 12.2813 58.7894 11.2705 59.5015C10.8497 59.7359 10.4458 59.9377 9.92637 59.7866C9.70861 59.7125 9.50782 59.6058 9.29006 59.5318C9.1374 59.8254 9.03518 60.1042 9.28549 60.3622C9.5358 60.6201 9.88787 60.6823 10.2244 60.528C10.4935 60.4211 10.7126 60.2461 10.9317 60.071C11.4374 59.6734 11.943 59.2759 12.4487 58.8783C12.4933 58.902 12.5322 58.9366 12.5656 58.9821C12.1768 59.4834 11.7881 59.9847 11.3828 60.4356C10.758 61.1447 10.0181 61.4177 9.11359 61.1037C9.17138 62.8 11.7125 61.5269 13.0671 59.3319C13.6763 58.4064 14.0848 57.3742 14.9118 56.5227C14.3511 57.7655 13.8409 58.9935 13.3142 60.1711C13.3475 60.2165 13.3865 60.2511 13.4311 60.2748C13.8027 59.8338 14.1632 59.3869 14.5125 58.934C14.7152 58.7085 14.8343 58.3971 15.07 58.2725C15.373 58.1004 15.4413 57.8868 15.5435 57.608C15.8837 56.7893 16.2238 55.9707 16.8486 55.2617C16.916 55.2142 17.0169 55.1845 17.1012 55.1044C17.1346 55.1499 17.1624 55.1785 17.1847 55.1904C17.1333 55.3713 17.0485 55.5345 16.9637 55.6976C16.5062 56.4955 16.1491 57.3468 15.9094 58.2188C15.8236 58.548 15.671 58.8417 15.5018 59.0849C15.0113 59.782 14.5543 60.4969 14.0303 61.1762C13.5402 61.7903 12.8494 62.2977 12.2924 62.8762C11.3471 63.8729 10.5077 63.9266 9.95211 64.256C10.4669 65.2375 11.4617 64.3919 12.4561 63.6294C12.8269 63.3268 13.0974 62.9708 13.4179 62.683C13.5361 62.5377 13.7044 62.4605 13.8561 62.3329C13.8894 62.3784 13.9227 62.4239 13.956 62.4693C13.4999 63.0181 13.0768 63.6678 12.5537 64.181C12.0811 64.6794 11.4411 65.0889 10.9016 65.5517C11.3861 65.9341 11.5704 65.9904 12.093 65.5602C12.6156 65.13 13.1052 64.599 13.6113 64.1184C13.6622 64.0205 13.7296 63.973 13.9318 63.8306C13.5728 65.014 12.7467 65.6994 12.0211 66.4381C12.4712 66.9688 12.7394 67.028 13.1947 66.6453C13.4477 66.405 13.6004 66.1113 13.8369 65.8206C13.9552 65.6753 14.0569 65.4795 14.1418 65.3164C14.1207 66.0964 13.6811 66.6956 13.3588 67.3155C14.1606 67.9914 14.3119 67.9469 14.8368 67.1015C14.8537 67.0689 14.8372 67.0185 14.8877 67.0036C14.9665 66.9067 15.0397 66.8207 15.1072 66.7455C15.1519 66.7692 15.1965 66.793 15.2411 66.8167C15.0938 67.1548 14.9408 67.5038 14.7822 67.8637C14.6974 68.0269 14.6126 68.19 14.8299 68.3471C14.9633 68.5013 15.1976 68.6258 15.3997 68.4834C15.6693 68.2935 15.9389 68.1036 16.2084 67.9137C16.478 67.7238 16.5632 67.4776 16.4812 67.1425C16.4167 66.6641 16.3633 66.1915 16.3212 65.7249C16.1932 64.5743 16.3005 63.382 17.5377 58.1264C17.573 57.812 17.6422 57.4323 17.9622 57.2276C17.9949 57.3838 17.9885 57.5331 17.943 57.6754C17.8563 58.1707 17.6858 58.6631 17.6326 59.1762C16.836 63.6666 16.5944 64.8707 16.9204 66.6263C17.002 67.0445 16.9997 67.4597 17.0813 67.8778C17.211 68.6963 17.4082 69.4673 17.9583 70.1344C18.1082 70.339 18.2251 70.4428 18.5268 70.5198C18.4607 70.3182 18.4112 70.1669 18.3782 70.0661C18.2636 69.5471 18.0816 69.0756 18.0005 68.5745C17.9036 67.8845 17.8569 67.2073 17.8606 66.543C17.8037 64.6805 18.3845 62.8238 18.9782 61.6818C18.887 63.0075 18.021 64.8376 18.3135 66.5755C18.6207 68.6959 18.4589 70.6503 20.2331 71.5098C21.1871 71.9751 22.0907 72.4553 23.0277 72.9532C23.0946 72.9888 23.2285 73.0599 23.2959 73.0125C23.8841 72.867 24.4887 72.7719 25.0774 72.5433C26.9102 71.8932 28.2263 70.5938 29.2587 69.0187C29.3096 68.9208 29.377 68.8733 29.4278 68.7755C28.968 69.9886 28.2575 71.0268 27.2966 71.8071C26.3018 72.6527 25.0746 73.0416 23.763 73.5106C24.0977 73.6884 24.2985 73.7951 24.4658 73.884C24.7519 73.7445 24.971 73.5695 25.1892 73.5605C26.4311 73.5542 27.4576 73.0586 28.3345 72.2754C28.7224 71.9401 29.0937 71.5544 29.5324 71.1213C29.294 71.7442 28.9562 72.1476 28.5683 72.4829C27.2696 73.6666 26.9175 73.6045 25.8916 74.017C27.0656 74.1412 30.1284 72.604 32.0368 70.4117C32.6277 69.768 33.2021 69.0738 33.7765 68.3796C33.8948 68.2343 34.0296 68.1393 34.1144 67.9762C34.6888 67.282 35.2802 66.5552 35.8546 65.8611C36.5303 65.0542 37.1725 64.2295 37.8982 63.4908C39.4344 61.8502 41.9979 59.548 42.4871 59.1C42.9762 58.6521 43.332 58.0499 43.971 57.8065C44.0214 57.7917 44.0888 57.7442 44.1058 57.7116C44.6794 57.1558 45.2476 56.5832 45.8102 55.9939C45.9789 55.8337 46.1646 55.6408 46.3667 55.4984C47.4619 54.7062 48.6901 54.1512 49.8847 53.5785C50.1538 53.4716 50.4564 53.3825 50.7255 53.2757C51.0281 53.1866 51.3471 53.148 51.7001 53.0441C51.1826 52.5608 51.1656 52.5934 50.6774 52.8753C50.5426 52.9703 50.3578 52.997 50.1731 53.0238C49.5519 53.0685 48.9972 53.2318 48.4416 53.5611C48.0881 53.7481 47.7012 53.9173 47.3643 54.1546C46.7078 54.5137 46.0179 54.855 45.4783 55.3178C44.517 56.1811 43.6056 57.1127 42.6778 57.9938C42.5765 58.1065 42.5086 58.237 42.3908 58.2993C42.3234 58.3468 42.1721 58.3913 42.1052 58.3558C42.0218 58.2698 41.9722 58.1186 42.0231 58.0207C42.0745 57.8397 42.2097 57.6618 42.3784 57.5016C42.598 57.2435 42.8845 57.0209 43.1041 56.7629C43.1719 56.6323 43.2737 56.4366 43.2072 56.318C43.1082 56.0155 43.2434 55.8375 43.4626 55.6625C44.4739 54.8673 45.4852 54.0722 46.5299 53.2948C46.9851 52.9121 47.5407 52.5827 48.0629 52.2356C47.6599 52.2713 47.2386 52.5888 46.9232 51.9631C45.9793 52.7107 45.0859 53.4436 44.1589 54.1586C43.992 53.9867 43.976 53.8532 44.0778 53.6574C44.123 53.5704 44.1962 53.4844 44.2973 53.3993C44.7805 53.0176 45.2581 52.6467 45.7299 52.2867C45.9995 52.0968 46.2521 51.9396 46.5047 51.7823C46.0889 51.1033 45.9715 51.0826 45.4824 51.5306C45.3137 51.6908 45.1615 51.9014 45.0097 52.0289C44.7906 52.204 44.6214 52.4472 44.2859 52.4355C44.0855 52.2457 44.0195 52.0441 44.2891 51.8542C44.5921 51.6821 44.8951 51.51 45.1312 51.3023C45.536 50.9344 45.9903 50.7178 46.5606 50.771C46.6445 50.7739 46.7453 50.7442 46.8462 50.7145C46.7628 50.6286 46.7463 50.5782 46.6793 50.5426C45.9935 50.1365 45.2742 49.7126 44.521 49.354C44.1529 49.1584 43.7513 48.945 43.2805 49.1112C43.3642 50.1551 43.448 51.199 43.5317 52.2429C43.4981 52.2528 43.4533 52.2568 43.3974 52.2549C43.0513 51.1132 43.1081 49.9357 42.9128 48.8326C42.5447 48.6369 42.2435 48.4769 41.8754 48.2813C41.8859 49.4112 42.1271 51.33 42.293 51.668C42.3306 50.9384 42.3512 50.2415 42.1536 49.5535C42.0876 49.3518 42.0051 49.0998 42.2577 48.9425C42.6098 49.0047 42.5914 49.2864 42.607 49.5029C42.6533 50.2354 42.6997 50.968 42.6621 51.6975C42.6749 52.4123 42.7717 53.1299 42.5159 53.8685C42.2945 54.4587 42.3408 55.1913 42.3037 55.8378C42.3023 56.0869 42.3009 56.336 41.9644 56.4904C41.9021 55.6244 42.0405 54.8651 42.095 54.1029C41.9722 54.0654 41.8661 54.0229 41.7769 53.9755C41.7613 53.759 41.7457 53.5425 41.6797 53.3409C41.5949 53.504 41.5435 53.6849 41.5257 53.8836C41.4881 54.6132 41.417 55.325 41.329 56.0694C41.2701 56.6211 41.2054 57.1836 41.1351 57.757C41.0668 57.9706 41.0655 58.2197 40.7799 58.2761C40.5456 58.1516 40.5969 57.9707 40.6483 57.7898C40.734 57.4606 40.8367 57.0987 40.872 56.7843C40.9788 55.6751 41.0856 54.5659 41.1085 53.4537C41.1286 52.8398 41.0314 52.2052 40.9677 51.5883C40.8224 50.5533 40.6266 49.5332 40.5147 48.516C40.418 47.7983 40.2016 47.4751 39.3975 47.2144C39.547 47.502 39.6629 47.7719 39.7285 48.0566C40.1063 49.5482 40.4841 51.0398 40.5932 52.5553C40.6235 53.1544 40.6872 53.7712 40.6166 54.4C40.4938 55.3757 40.3539 56.3841 39.9964 57.3184C39.8602 57.6625 39.858 58.0777 39.7887 58.4573C39.6851 58.9853 39.5815 59.5132 39.4779 60.0411C39.422 60.0392 39.3772 60.0431 39.3436 60.053C39.2638 59.3027 39.1506 58.5347 39.0213 57.6331C38.6509 57.8527 38.3818 57.9595 38.1792 58.185C37.707 58.6004 37.2848 59.0839 36.8126 59.4993C36.3908 59.8998 35.9187 60.3151 35.3131 60.5763C35.1127 60.3866 35.1137 60.2205 35.3158 60.0781C35.5349 59.903 35.821 59.7635 36.0067 59.5707C36.5293 59.1405 37.1188 58.7459 37.5076 58.2445C37.9472 57.6453 38.5198 57.2833 39.0424 56.8531C39.3119 56.6632 39.2454 56.5446 39.096 56.257C38.9278 56.3342 38.7421 56.527 38.5578 56.4707C38.1383 56.456 37.8857 56.6133 37.6157 56.8862C37.3966 57.0613 37.144 57.2185 36.9079 57.4262C35.9642 58.1462 35.0204 58.8662 34.0767 59.5861C34.0093 59.6336 33.9084 59.6633 33.7402 59.7405C33.7915 59.5595 33.7924 59.3935 33.8433 59.2956C33.9955 59.085 34.1477 58.8743 34.3499 58.7319C35.7146 57.7498 37.0294 56.6995 38.4106 55.7679C38.6128 55.6254 38.8984 55.569 39.2179 55.4473C39.2019 55.3139 39.1528 55.0796 39.1372 54.8631C38.0471 54.7418 37.1055 55.0743 36.2972 55.5609C34.7817 56.5045 33.3496 57.5341 32.3511 59.044C32.2159 59.2219 31.9802 59.3466 31.7946 59.5394C31.5777 59.2993 31.6286 59.2014 31.7639 59.0234C32.1356 58.5547 32.474 58.0682 32.8288 57.6321C32.964 57.4541 33.0992 57.2762 33.2175 57.1308C34.0445 56.2794 37.4318 53.707 39.4783 53.8784C39.4356 52.4815 35.8874 53.8024 35.0457 54.2712C34.9279 54.3336 34.7936 54.3455 34.7092 54.4256C34.2379 54.6748 33.7667 54.9241 33.3789 55.2594C32.9576 55.5768 32.6027 56.0129 32.2484 56.3659C32.0155 55.9923 32.0159 55.9093 32.2525 55.6186C32.4551 55.3931 32.6577 55.1677 32.9103 55.0104C33.2642 54.7404 33.6351 54.4378 34.0559 54.2034C34.7459 53.8621 35.4693 53.5386 36.2092 53.2655C37.336 52.8232 37.2682 52.9538 38.9167 52.2474C38.917 52.192 38.9173 52.1367 38.9176 52.0813C37.8779 51.9452 38.4486 51.9154 36.2999 52.0228C36.2161 52.0199 36.0483 52.014 35.9809 52.0615C35.3244 52.4205 34.6349 52.6788 34.0284 53.106C33.1524 53.7232 32.3093 54.4412 31.4498 55.1087C31.298 55.2363 31.1967 55.349 31.045 55.4766C31.0004 55.4529 30.9557 55.4292 30.9111 55.4055C30.9455 55.2572 30.9129 55.0733 30.9808 54.9428C31.1834 54.7173 31.4365 54.477 31.706 54.2871C32.0434 53.9667 32.4477 53.6819 32.7851 53.3615C34.1847 52.1481 35.7663 51.4061 37.6803 51.2572C38.2176 51.2096 38.7383 51.1116 39.4099 51.052C39.277 50.8148 39.2444 50.631 39.1106 50.5598C38.6255 50.2604 38.1231 50.0767 37.5684 50.24C37.1984 50.3766 36.7781 50.5279 36.4081 50.6645C36.2568 50.709 36.0721 50.7358 35.9547 50.715C35.7205 50.5906 35.5857 50.6855 35.384 50.7449C34.5432 51.0477 33.8689 51.6054 33.1776 52.1958C33.0258 52.3234 32.8406 52.4332 32.6889 52.5608C32.4051 52.2851 32.5403 52.1071 32.709 51.9469C33.0969 51.6116 33.4851 51.1933 33.9394 50.9767C35.3198 50.2111 36.6666 49.4277 38.2464 49.0179C38.3473 48.9882 38.4316 48.9081 38.5325 48.8784C38.4504 48.5433 38.317 48.3892 37.981 48.4604C37.7123 48.4843 37.3932 48.5229 37.142 48.4311C36.9073 48.3896 36.8064 48.4193 36.5878 48.5113C35.5783 48.9743 34.7692 49.627 33.9596 50.3628C33.8248 50.4577 33.6901 50.5527 33.5553 50.6476C33.2885 50.3393 33.4572 50.1791 33.6259 50.0188C34.7898 48.9301 36.0867 48.0785 37.5835 47.4997C37.6843 47.47 37.7183 47.4047 37.7856 47.3573C37.7746 47.3237 37.7636 47.29 37.7526 47.2564C37.4675 47.2298 37.1315 47.3011 36.8298 47.2241C36.4278 47.0937 36.1417 47.2332 35.8717 47.5062C35.4499 47.9067 35.0282 48.3072 34.6064 48.7077C34.4717 48.8026 34.3034 48.8798 34.1182 48.9896C34.0036 48.4706 34.021 48.3549 34.2571 48.1473C34.7967 47.6844 35.3362 47.2216 35.9093 46.7766C36.0104 46.6915 36.1059 46.6174 36.1958 46.5541C35.9727 46.4355 35.7548 46.3891 35.5421 46.4149C35.3069 46.4565 35.0547 46.5307 34.8026 46.6049C34.6009 46.6643 34.3827 46.6733 34.2662 46.4865C34.1668 46.267 34.3355 46.1068 34.5037 46.0297C34.5541 46.0148 34.588 45.9496 34.6385 45.9347C34.3235 45.226 34.1731 45.1045 33.535 45.1818C33.5234 45.2589 33.5286 45.3311 33.5506 45.3983C33.7129 46.4006 33.6575 47.3289 33.2999 48.2632C33.0785 48.8535 32.941 49.4467 32.753 50.0547C32.5999 50.4314 32.3299 50.7043 32.0429 51.0099C31.9934 50.8587 31.9439 50.7074 31.9613 50.5918C32.1997 49.9689 32.455 49.3134 32.6599 48.6727C32.8194 48.1467 32.9678 47.6148 33.105 47.077C33.1399 46.8457 33.2256 46.5164 33.1426 46.3474C32.9601 45.959 33.0124 45.612 32.9808 45.262C32.9831 44.8468 32.8827 44.7935 32.3793 44.7758C32.2212 46.066 32.0296 47.3383 31.854 48.7441C31.771 48.5751 31.721 48.5069 31.7045 48.4565C31.7417 47.81 31.7957 47.1308 31.7994 46.4665C31.8031 45.8022 31.991 45.1941 31.7595 44.5714C31.6779 44.1533 31.6444 44.1355 31.1236 44.2335C31.1887 44.6012 31.2708 44.9363 31.252 45.3011C31.1961 46.3125 31.1067 47.306 31.0338 48.35C30.9981 48.7474 30.9793 49.1122 30.9101 49.4918C30.7364 50.5655 30.3449 51.565 30.3389 52.6446C30.355 52.778 30.3206 52.9263 30.3192 53.1754C30.0391 52.2354 30.0249 51.7698 30.2656 50.7317C30.5933 49.1153 30.7533 47.493 30.6116 45.7936C30.5639 45.3102 30.4828 44.8091 30.1834 44.3168C30.1146 44.6134 30.1128 44.9456 30.0945 45.2274C30.056 46.123 30.1014 47.0216 29.9959 47.8817C29.8722 49.0236 29.6146 50.0943 29.4239 51.2005C29.2515 52.0251 29.0792 52.8496 28.7894 53.6534C28.5506 54.3593 28.4291 55.086 28.2238 55.8097C28.1898 55.8749 28.1559 55.9402 28.122 56.0054C27.9913 55.353 28.0954 54.742 28.2499 54.1162C28.4378 53.5082 28.6093 52.8498 28.7807 52.1913C28.9008 51.7138 28.937 51.2333 29.0571 50.7558C29.4174 49.3232 29.6099 47.8848 29.5847 46.3723C29.5981 45.963 29.4828 45.5825 29.2386 45.2306C29.0891 45.9563 28.9788 46.6888 28.9076 47.4283C28.8017 48.3714 28.7798 49.3175 28.6739 50.2607C28.5176 51.2186 28.3777 52.227 28.0871 53.1969C27.7277 54.4634 27.251 55.7091 26.8412 56.9905C26.7843 57.1546 26.7386 57.3246 26.7041 57.5006C26.6482 57.4987 26.5979 57.4858 26.5533 57.4621C26.5886 57.1477 26.5904 56.8156 26.6592 56.519C26.9672 55.4334 27.2918 54.3983 27.5998 53.3127C27.9771 51.8475 28.2704 50.3794 28.3291 48.8698C28.3899 47.986 28.4284 47.0904 28.4446 46.1828C28.446 45.9337 28.5312 45.6875 28.2309 45.3614C28.0613 45.6877 27.7913 45.9606 27.773 46.2424C27.6547 47.401 27.5644 48.5607 27.5021 49.7213C27.443 51.3139 26.9649 52.8088 26.4533 54.2859C25.993 55.582 25.4824 56.893 25.2564 58.3137C25.04 57.9905 25.0753 57.6761 25.144 57.3795C25.7088 55.3893 26.2401 53.3814 26.7544 51.406C26.9772 50.5667 27.1967 47.2687 26.7828 46.2575C26.5641 46.3495 26.4123 46.4771 26.3115 46.5068C26.3583 50.1961 26.5577 50.552 25.3828 53.6337C25.0761 54.4702 24.6521 55.2859 24.4793 56.1934C24.4619 56.3091 24.3606 56.4218 24.3097 56.5197C24.2788 56.0314 24.3373 55.5628 24.4852 55.1139C24.7424 54.1262 25.0665 53.1741 25.3571 52.2043C25.4085 52.0233 25.4598 51.8424 25.4103 51.6912C24.8817 50.161 25.7802 48.5148 25.5175 47.459C24.4219 48.3343 25.0279 47.9901 24.5104 50.5467C24.2853 51.8013 23.9763 53.0529 23.6843 54.2719C23.6839 54.3549 23.6165 54.4024 23.5486 54.5329C23.4716 53.2844 23.9974 52.2729 23.9534 51.1252C23.6137 51.8608 23.3579 52.5993 23.0686 53.3201C22.7959 54.0913 22.4897 54.8447 22.2004 55.5654C22.2823 54.9149 22.42 54.2941 22.6134 53.7028C22.9549 52.6351 23.2291 51.6148 23.2854 50.5204C23.2882 50.0221 23.1901 49.5536 22.9077 49.0287C22.4011 49.5924 21.9789 50.0759 21.5567 50.5595C21.5231 50.5694 21.4839 50.5625 21.4393 50.5388C21.4233 50.4053 21.4242 50.2392 21.4751 50.1414C21.5603 49.8952 21.729 49.735 21.8308 49.5392C23.0832 47.6229 27.4282 44.8516 29.6653 43.9166C30.2035 43.7029 30.7922 43.4744 31.4459 43.6136C31.5128 43.6491 31.6137 43.6195 31.6976 43.6224C31.6093 43.4089 31.4925 43.2774 31.3473 43.2281C30.728 42.9406 30.1256 42.6205 29.4723 42.3983C28.1992 41.9716 26.9257 41.628 25.8053 40.9077C25.3594 40.6152 24.8847 40.4601 24.3814 40.4425C23.8446 40.4071 23.3073 40.4547 22.787 40.4697C22.0484 40.4937 21.3924 40.7697 20.7694 41.1465C19.6805 41.8171 18.5971 42.5045 17.5191 43.2087C17.1148 43.4936 16.727 43.8288 16.3226 44.1137C16.3891 44.2323 16.4056 44.2827 16.4725 44.3183C16.6229 44.4398 16.7563 44.594 16.6211 44.772C16.4689 44.9826 16.2686 44.7928 16.1347 44.7217C15.4654 44.366 14.8295 44.0281 14.1602 43.6725C14.0933 43.6369 14.0263 43.6013 13.9424 43.5984C13.9406 43.9306 13.9053 44.2449 13.9204 44.5445C13.92 44.6275 13.9865 44.7461 14.0364 44.8143C13.9535 44.6453 14.0548 44.5326 14.2395 44.5058ZM18.2353 47.2538C18.2466 47.232 18.2522 47.2211 18.2522 47.2211C18.2299 47.2093 18.2188 47.2034 18.2188 47.2034C18.2411 47.2152 18.2466 47.232 18.2353 47.2538ZM19.0334 45.5541C19.1356 45.2753 19.1539 44.9936 18.9541 44.7208C18.7258 45.5434 18.4807 46.3709 18.2188 47.2034C18.5071 46.6487 18.7955 46.094 19.0334 45.5541ZM13.766 45.1703C13.6628 45.6152 13.5762 46.1105 13.5065 46.5732C13.5964 46.5099 13.6583 46.4456 13.6922 46.3803C13.8181 45.8642 13.9383 45.3591 14.0529 44.8647C13.9516 44.9775 13.7834 45.0546 13.766 45.1703ZM32.5683 77.5233C37.23 75.1285 36.6488 77.0683 36.9054 73.1238C36.9068 72.8747 37.0425 72.6136 36.927 72.2607C36.6744 72.418 36.4892 72.5278 36.287 72.6702C32.1112 75.1984 33.0922 73.8042 36.6093 72.0503C37.1814 71.7713 37.4871 71.101 37.2726 70.4456C35.2697 71.505 35.2995 72.1871 34.9181 71.3598C37.8653 69.4697 37.0736 70.0068 37.6476 69.3956C37.6589 69.3739 37.687 69.3472 37.7319 69.3155C37.8154 69.4015 37.9323 69.5053 37.9657 69.5231C37.8296 69.8671 37.6939 70.1282 37.6251 70.4248C37.1255 72.7827 37.12 76.819 37.2172 77.4537C37.3635 78.3226 37.728 79.1825 38.042 80.0573C38.356 80.9321 39.1106 81.0416 39.7799 81.3973C36.8449 74.9655 39.4785 69.0777 39.8329 68.7247C39.0756 72.1533 38.355 75.0184 39.343 78.4584C39.6561 79.4992 39.9188 80.555 40.6019 81.4593C40.9352 81.8862 41.2011 82.3607 41.5344 82.7876C41.6678 82.9418 41.8686 83.0485 42.1377 82.9416C42.0547 82.7726 41.9717 82.6036 41.9053 82.485C41.3712 81.9513 41.1231 81.2782 40.9425 80.5576C40.7614 79.92 40.6477 79.235 40.4836 78.5648C39.4497 74.3093 40.5747 71.1593 41.1216 69.3678C41.2924 68.8201 41.4632 68.2724 41.6341 67.7247C41.7004 67.8709 41.7276 68.0103 41.7157 68.1428C41.5777 68.819 41.4228 69.5279 41.2344 70.219C40.6004 72.5888 39.8147 75.0862 41.6439 81.1802C41.875 81.8859 42.2913 82.4819 42.8432 82.8169C43.1962 82.713 43.4988 82.6239 43.7679 82.517C43.9696 82.4577 44.1374 82.4635 44.3056 82.3864C47.6352 81.1575 49.2989 80.7507 50.9698 79.0152C51.4759 78.5346 51.9985 78.1044 52.5046 77.6238C52.4024 77.9026 52.2667 78.1636 52.0811 78.3564C49.8187 80.8187 49.3988 80.887 44.9245 82.7569C44.588 82.9112 44.269 82.9499 43.8486 83.1013C44.0828 83.2257 44.1832 83.2791 44.3001 83.3829C45.3188 84.2989 49.9618 82.2689 51.4961 80.9605C51.867 80.6579 52.1714 80.2367 52.5258 79.8836C52.8182 79.5949 53.1164 79.2952 53.4202 78.9847C53.0644 79.5869 52.7091 80.106 52.27 80.6222C50.2932 83.028 46.8321 83.7706 45.2675 84.4799C47.5404 86.1874 51.7016 83.2767 53.7805 80.592C53.9495 80.3765 54.1129 80.1718 54.2706 79.978C54.2866 80.1114 54.2357 80.2093 54.1848 80.3072C51.7951 84.5757 48.2853 85.0009 47.4597 85.6032C47.6605 85.7099 47.8109 85.8314 47.9452 85.8195C49.9238 86.1214 50.7471 85.9343 55.0449 82.5965C55.4492 82.3116 55.7701 81.9408 56.1245 81.5878C56.3945 81.3149 56.6645 81.0419 56.918 80.7186C56.7645 81.1783 56.5609 81.5698 56.257 81.908C55.8854 82.3491 55.4748 82.7555 55.0252 83.1273C53.7269 84.228 55.6235 84.1948 55.525 86.8492C55.5048 87.4631 55.5016 88.0444 55.4645 88.6909C57.3619 88.4916 59.0609 87.7704 60.6773 86.7971C60.6429 86.9454 60.6255 87.0611 60.5581 87.1086C60.3051 87.3489 60.035 87.6218 59.7155 87.7435C58.6556 88.2213 57.9831 88.4469 55.9816 89.2572C56.8655 90.2682 60.1134 88.6212 60.5852 88.2889C60.6356 88.2741 60.736 88.3274 60.9038 88.3333C59.9929 89.1818 58.8 89.4224 57.7223 90.0989C59.281 90.4691 61.3994 89.7626 61.2921 87.915C61.1816 86.6487 61.2388 85.3882 61.4974 84.1514C61.5483 84.0535 61.5322 83.9201 61.5501 83.7214C60.4719 84.4809 59.3946 85.0744 58.1678 85.3803C57.9688 84.9414 57.9523 84.891 58.3053 84.7871C58.7761 84.6209 59.2969 84.5228 59.7847 84.324C60.4237 84.0806 60.9798 83.6682 61.5024 83.238C62.0081 82.8404 61.9943 82.2918 62.0644 81.746C61.8288 81.8707 61.6601 82.0309 61.4914 82.1911C60.9683 82.7043 60.3284 83.1138 59.6389 83.372C59.4372 83.4314 59.2694 83.4255 59.1869 83.1735C59.1208 82.9718 59.2556 82.8769 59.4069 82.8323C59.6086 82.773 59.7434 82.678 59.9281 82.6513C60.8354 82.4671 61.4102 81.6899 62.218 81.2863C62.4055 80.7613 62.576 80.2689 62.731 79.5601C62.4779 79.8004 62.3431 79.8953 62.2418 80.0081C61.9888 80.2484 61.8196 80.4916 61.5835 80.6993C61.2687 80.9762 60.9373 81.2304 60.5892 81.4618C60.5218 81.5093 60.371 81.4708 60.321 81.4026C60.2541 81.367 60.2385 81.1505 60.3059 81.103C60.4915 80.9102 60.7441 80.7529 60.9463 80.6105C61.4519 80.213 61.9406 79.848 62.4628 79.5009C62.6819 79.3258 62.7667 79.1627 62.7681 78.9135C62.8043 78.4331 62.8382 78.3678 63.0748 78.0771C63.105 78.6762 63.1857 79.2604 63.0652 79.821C62.8227 81.1912 62.4459 82.5734 62.1529 83.9584C61.981 84.6999 61.8591 85.5096 61.7876 86.3044C61.7317 87.3158 61.7597 88.33 61.8046 89.3117C61.9376 92.5888 62.0875 92.7934 62.9893 93.6057C63.0897 93.659 63.207 93.6798 63.3074 93.7331C62.7545 90.5244 62.7884 87.4192 63.7281 84.3791C63.691 85.0256 63.6369 85.7048 63.5998 86.3513C63.4192 88.6706 63.3729 90.9779 63.8635 93.3207C63.8956 93.5876 63.9777 93.9227 64.178 94.1125C64.6447 94.6936 65.3324 94.7675 66.0053 94.4589C67.9069 93.5122 69.6086 92.2927 71.2268 90.9873C72.0529 90.3019 72.7621 89.5128 73.1536 88.5133C73.2045 88.4154 73.2719 88.3679 73.3562 88.2878C73.5204 88.958 72.3862 90.7289 70.5832 92.0611C70.2463 92.2985 69.9428 92.5536 69.6228 92.7583C68.595 93.5031 67.6841 94.3516 66.4399 94.7731C66.3221 94.8354 66.2378 94.9155 66.103 95.0105C66.3533 95.2684 66.6054 95.1942 66.8406 95.1526C67.8826 94.8735 68.7582 94.3394 69.6008 93.7044C72.0268 91.9954 72.5861 91.0017 73.2476 89.7292C73.6478 90.1917 72.4128 91.9923 71.9576 92.375C71.3841 92.9031 70.7272 93.3452 70.1537 93.8733C69.5293 94.4992 68.8055 94.9058 68.0316 95.2441C67.8464 95.3539 67.6612 95.4637 67.476 95.5735C67.5093 95.619 67.5315 95.6585 67.5425 95.6921C67.7777 95.6505 68.0128 95.6089 68.2145 95.5495C69.7452 94.9055 70.9761 93.8523 72.0736 92.6449C73.8803 90.6483 73.4488 89.7528 75.0153 88.7114C74.8604 89.4202 74.3038 89.9157 74.1154 90.6068C74.6541 90.31 74.8746 89.8858 75.5861 88.6815C75.7891 88.373 76.1765 88.1208 76.0784 87.6523C76.0619 87.6018 76.1462 87.5218 76.2136 87.4743C76.7193 87.0767 77.0246 86.4894 77.229 85.9318C77.5875 84.8314 77.9125 83.7132 78.2375 82.595C78.6661 80.9489 79.0948 79.3028 79.5568 77.6744C79.5917 77.4431 79.7269 77.2651 79.8287 77.0693C79.88 76.8884 79.9983 76.7431 80.0161 76.5444C80.1546 75.7851 80.2819 75.0199 80.398 74.2488C80.4324 74.1005 80.3829 73.9492 80.3838 73.7831C80.232 73.9107 80.1642 74.0412 80.1298 74.1895C79.7771 75.2514 79.4356 76.3191 79.1053 77.3928C78.5815 79.0578 78.0576 80.7227 77.5338 82.3876C77.3633 82.88 77.1758 83.405 77.0722 83.9329C76.8467 85.2705 76.1357 86.3918 75.4916 87.5487C75.4746 87.5813 75.4242 87.5961 75.3233 87.6258C75.073 87.3679 75.0909 87.1692 75.277 86.8933C75.785 86.0805 76.2764 85.2173 76.4831 84.2445C76.5523 83.8649 76.655 83.503 76.7577 83.1412C77.1501 81.9755 77.526 80.7595 77.9184 79.5938C77.9528 79.4455 77.9872 79.2972 77.9881 79.1311C77.4655 79.5613 77.0098 80.0271 76.4876 80.3742C75.7633 80.8638 75.0729 81.2881 74.3321 81.7273C74.0121 81.932 73.9622 81.8638 73.8466 81.5109C74.6718 80.9917 75.497 80.4724 76.3221 79.9532C76.9621 79.5437 77.7359 79.2053 77.9922 78.3838C77.9757 78.3333 78.0765 78.3037 78.0935 78.271C78.2118 78.1257 78.3466 78.0307 78.4314 77.8676C78.7043 77.0687 78.9604 76.2748 79.1997 75.4859C79.3367 74.9757 79.4738 74.4655 79.6108 73.9554C79.1226 74.2373 78.7178 74.6052 78.2965 74.9226C77.6222 75.4804 76.9978 76.1064 76.1736 76.4596C75.7866 76.6287 75.4667 76.8335 75.0962 77.0531C75.0458 77.0679 74.9784 77.1154 74.945 77.0976C74.7941 77.0591 74.6768 77.0384 74.5933 76.9524C74.5264 76.9168 74.5778 76.7359 74.6621 76.6558C74.8138 76.5282 74.9821 76.4511 75.1338 76.3235C75.7903 75.9644 76.4637 75.5727 77.1037 75.1633C77.7102 74.736 78.2667 74.2405 78.8567 73.7629C79.1602 73.5077 79.4472 73.2022 79.8015 72.8491C79.8015 72.8491 79.9189 72.8698 80.0363 72.8906C80.2765 71.9355 80.4662 70.9953 80.3039 69.993C80.1915 70.0998 80.1181 70.2135 80.0839 70.3341C79.9803 70.862 79.6594 71.2329 79.355 71.6541C78.5271 72.6716 77.5158 73.4667 76.5045 74.2619C75.9989 74.6594 75.4433 74.9888 74.9041 75.3686C74.7863 75.4309 74.5681 75.4399 74.4847 75.3539C74.3178 75.1819 74.4865 75.0217 74.6213 74.9268C74.8739 74.7695 75.1769 74.5974 75.396 74.4224C76.0534 73.8972 76.7278 73.3395 77.3517 72.7965C77.5708 72.6215 77.8234 72.4642 78.026 72.2387C78.33 71.9006 78.6339 71.5624 78.9548 71.1916C79.0561 71.0788 79.2748 70.9868 79.2092 70.7021C79.0914 70.7644 79.0075 70.7615 78.9401 70.809C78.1314 71.3787 77.3732 71.9335 76.5815 72.4705C76.2111 72.6901 75.8072 72.8919 75.4203 73.0611C75.2855 73.156 75.0843 73.1324 75.0517 72.9485C75.0187 72.8477 75.1035 72.6845 75.2213 72.6222C75.4909 72.4323 75.8439 72.3284 76.1134 72.1385C77.2027 71.4126 78.2807 70.6807 79.3476 69.9429C79.9372 69.5482 80.126 68.7741 79.7946 68.015C79.6372 68.1534 79.4855 68.281 79.3394 68.3977C78.4179 69.1296 77.5021 69.8505 76.592 70.5606C76.3898 70.703 76.1542 70.8277 75.9878 70.5727C75.8549 70.3354 75.9731 70.1901 76.2088 70.0655C77.2026 69.386 78.163 68.6887 79.1569 68.0093C79.2413 67.9292 79.3091 67.7987 79.4274 67.6533C79.0253 67.5229 78.6737 67.3777 78.3725 67.2177C77.9874 67.0547 77.6363 66.8264 77.4368 66.4706C77.0375 65.842 76.5186 65.6079 75.7631 65.6645C75.3432 65.7328 74.9072 65.6677 74.4538 65.7183C74.0004 65.7688 73.4636 65.7334 73.0932 65.953C71.6624 66.7334 70.4485 67.754 69.1841 68.7895C68.122 69.6825 67.0928 70.6763 66.0641 71.5871C65.9124 71.7147 65.7441 71.7919 65.6093 71.8868C65.3929 71.5636 65.4947 71.3679 65.6804 71.175C65.7817 71.0623 65.9165 70.9674 66.0682 70.8398C66.4221 70.5698 66.7925 70.3502 67.046 70.0269C67.9583 68.9292 69.1044 68.0392 70.2335 67.1817C70.9413 66.6417 71.6656 66.1521 72.4903 65.7159C72.8607 65.4963 73.2476 65.3272 73.6841 65.3092C74.3048 65.3476 74.926 65.3029 75.6141 65.2938C75.4637 65.1722 75.4472 65.1218 75.3803 65.0863C74.6945 64.6802 74.0421 64.2919 73.3728 63.9362C73.172 63.8295 72.9033 63.8533 72.6851 63.8623C71.9631 63.9366 71.2741 64.1118 70.569 64.1536C69.78 64.1924 69.0571 64.4328 68.4002 64.875C68.2541 64.9916 68.0913 65.0856 67.9119 65.1569C67.8111 65.1865 67.6603 65.148 67.6437 65.0976C67.5938 65.0294 67.5947 64.8634 67.5951 64.7803C67.646 64.6824 67.7134 64.6349 67.8312 64.5726C68.6899 64.0711 69.565 63.6201 70.6222 63.6405C71.1425 63.6255 71.6802 63.4948 72.2175 63.4472C71.7829 63.133 71.3813 62.9196 70.9797 62.7062C70.7455 62.5817 70.5442 62.558 70.2921 62.6323C69.8043 62.8311 69.2501 62.9114 68.8453 63.2793C68.6261 63.4543 68.4753 63.4158 68.275 63.2261C67.8074 62.811 67.8074 62.811 67.8615 62.1318C67.8958 61.9835 67.8967 61.8174 67.8642 61.6336C67.8312 61.5328 67.7647 61.4141 67.7147 61.346C67.3971 61.1355 67.0959 60.9754 66.7112 60.7294C66.7603 60.9637 66.7594 61.1298 66.7919 61.3136C66.857 61.6814 66.9221 62.0491 66.9872 62.4168C67.1335 63.2857 66.8438 64.0895 66.7888 64.9348C66.7865 65.35 66.6338 65.6436 66.2978 65.7149C66.0911 66.6878 65.9017 67.5449 65.7289 68.4525C65.6597 68.8321 65.4401 69.0902 65.0537 69.1763C64.8799 70.25 64.9079 71.2642 64.6503 72.335C64.2991 72.1067 64.2501 71.8724 64.3353 71.6262C64.6952 70.2767 64.6021 68.8947 64.509 67.5127C64.4357 66.6132 64.3679 65.7027 64.3059 64.7814C64.1986 62.9337 64.0913 61.0861 63.3963 59.301C63.2972 58.9985 63.1634 58.9274 62.8782 58.9008C62.9103 59.1677 62.9429 59.3515 62.9245 59.6333C62.7341 59.6709 62.5494 59.6977 62.3703 59.7135C61.8665 59.779 61.3627 59.8444 60.9258 59.9453C60.3546 60.0582 59.7829 60.2541 59.2452 60.3848C58.8922 60.4887 58.4562 60.4236 58.1362 60.6283C57.4852 61.0042 56.8121 61.3405 56.1168 61.6373C55.3934 61.9608 54.7195 62.4355 54.0126 62.8095C53.9118 62.8391 53.7944 62.8184 53.6771 62.7977C53.6437 62.7522 53.6216 62.7127 53.6106 62.6791C53.7793 62.5189 53.931 62.3913 54.1332 62.2489C54.9923 61.6644 55.9014 61.1481 56.727 60.5457C57.6709 59.7981 58.6978 59.2194 59.9241 58.9966C60.4114 58.8808 60.8817 58.7976 61.3856 58.7322C60.9849 58.3527 60.918 58.3171 60.4646 58.3677C59.9438 58.4657 59.406 58.5964 58.8688 58.644C57.4412 58.8432 56.1127 59.3448 54.9501 60.1845C54.8657 60.2646 54.7149 60.2261 54.5467 60.3033C54.5994 59.8732 54.852 59.7159 55.1046 59.5587C55.475 59.3391 55.8789 59.1373 56.2997 58.9029C57.2762 58.3391 58.3351 58.0273 59.5101 57.9854C59.7952 58.012 60.0813 57.8726 60.3669 57.8161C59.9149 57.6176 59.4794 57.4694 59.0434 57.4043C58.0876 57.2711 57.1982 57.2566 56.456 57.9449C56.3212 58.0398 56.153 58.117 56.0182 58.2119C55.7995 58.304 55.6148 58.3307 55.4484 58.0757C55.9728 57.3133 56.8635 57.0788 57.6048 56.5566C56.8686 56.1653 56.2327 55.8274 55.4965 55.4362C55.5451 55.7535 55.5606 55.97 55.5932 56.1539C55.6083 56.4534 55.6739 56.7381 55.6725 56.9872C55.6551 57.1029 55.5199 57.2809 55.4694 57.2957C55.3521 57.275 55.1848 57.1861 55.1183 57.0675C55.0688 56.9162 55.0697 56.7501 55.0876 56.5514C55.0408 55.902 54.8597 55.2644 54.1908 54.8257C53.7975 56.1574 54.1927 57.5334 53.9167 58.8858C53.8205 58.0851 53.7742 57.3526 53.7113 56.5697C53.7288 56.454 53.7801 56.2731 53.6797 56.2197C53.346 55.8758 53.4991 55.4991 53.4509 55.0987C53.4193 54.7488 53.4385 54.301 52.8857 54.1321C52.9343 54.4494 53.0333 54.7519 52.9984 54.9832C52.877 55.7099 52.9902 56.478 52.5836 57.178C52.5327 57.2759 52.5488 57.4093 52.5313 57.525C52.5116 58.0559 52.5424 58.5719 52.5227 59.1028C52.4512 59.8976 52.3627 60.7251 52.2912 61.5199C52.2738 61.6356 52.1894 61.7157 52.1381 61.8966C52.1119 60.5502 52.1023 59.2542 52.1091 58.0086C52.0995 56.7125 52.1902 55.4699 52.0463 54.1858C51.3577 54.2779 51.3912 54.2957 51.3545 54.8592C51.3513 55.4405 51.3146 56.004 51.3284 56.5526C51.3729 57.6173 51.2331 58.6257 51.1937 59.6874C51.0837 61.3779 50.6551 63.0241 50.4612 64.7116C50.3635 64.16 50.4144 64.0621 50.6876 60.1681C50.7218 60.0474 50.7392 59.9318 50.7398 59.821C50.9131 58.8304 51.0025 57.8369 50.8067 56.8167C50.6591 56.197 50.5788 55.5297 50.4482 54.8773C50.4326 54.6608 50.2996 54.4236 50.2341 54.1389C49.9641 54.4118 49.9457 54.6936 49.9609 54.9931C49.9572 55.6574 50.0205 56.3573 49.916 57.0513C49.6698 59.0859 50.1489 57.4249 49.0721 64.0151C49.007 63.6474 48.9754 63.2975 48.9607 62.9149C48.9607 62.9149 49.1899 60.9129 49.3425 57.5794C49.3434 57.4133 49.2939 57.2621 49.2104 57.1761C49.0275 56.8707 48.9789 56.5534 48.9977 56.1886C49.0504 55.7585 48.9184 55.3552 48.5686 54.8779C48.4829 55.2071 48.4315 55.388 48.4137 55.5867C48.3949 55.9515 48.4265 56.3015 48.4247 56.6336C48.3866 57.4463 48.3821 58.2767 48.3106 59.0715C48.2413 59.4511 47.981 61.0201 47.7779 61.3286C47.6968 60.8274 47.937 59.8724 47.7884 59.4187C47.5592 58.3807 47.2291 57.3725 47.3359 56.2633C47.3529 56.2306 47.3198 56.1298 47.3208 55.9637C47.1855 56.1417 47.0847 56.1714 47.0842 56.2544C47.0717 56.4976 47.0815 56.7527 47.1136 57.0196C47.1617 57.42 47.1764 57.8025 46.9898 58.1614C46.8367 58.5381 46.7505 58.9504 46.8656 59.3863C46.8991 59.4041 46.2101 62.6192 46.0579 62.8298C46.1683 61.0563 46.6144 59.2945 45.6168 57.5984C45.5494 57.6459 45.4485 57.6756 45.4481 57.7586C45.4123 58.156 45.3766 58.5534 45.3743 58.9686C45.3555 59.3334 45.471 59.6863 45.4188 60.0333C45.2276 61.2226 44.9696 62.3764 44.6941 63.6458C44.678 63.5124 44.5946 63.4264 44.6285 63.3611C44.6652 62.7976 44.6344 62.2816 44.738 61.7537C44.8939 60.8787 44.8315 60.0127 44.6179 59.1913C44.5358 58.8562 44.3855 58.7347 44.0999 58.7911C43.8312 58.8149 43.8133 59.0136 43.812 59.2627C43.8053 60.4807 43.7986 61.6986 43.7918 62.9165C43.7575 63.0648 43.7731 63.2813 43.4705 63.3704C43.4728 62.9552 43.4246 62.5548 43.4604 62.1574C43.4452 61.8579 43.4971 61.5939 43.1963 61.3508C43.1129 61.2648 43.1308 61.0661 43.1147 60.9327C43.0496 60.5649 43.1523 60.2031 42.8685 59.9274C41.3704 60.7553 42.8103 61.3539 41.9934 63.4183C41.9109 63.1662 41.3988 61.6865 41.1655 61.3959C39.494 63.2145 40.7767 61.8973 40.0134 63.3656C39.9149 62.98 39.8324 62.728 39.6834 62.3573C39.4807 62.5828 39.346 62.6777 39.2277 62.8231C38.535 63.6626 37.8423 64.5021 37.1162 65.3239C36.66 65.8727 36.2044 66.3384 36.1329 67.1333C36.1329 67.1333 35.9188 69.4347 35.9179 69.6008C35.2665 69.0464 35.6579 68.0469 35.7982 66.9554C35.6634 67.0504 35.596 67.0978 35.5621 67.1631C35.3086 67.4864 35.0886 67.8276 34.8016 68.1331C34.1937 68.8095 35.1922 70.3395 34.7686 71.0722C34.2162 70.8203 34.3826 71.0753 34.395 68.8332C34.339 68.8312 34.2888 68.8184 34.2441 68.7947C33.9232 69.1655 33.3681 69.4118 33.3814 70.0435C33.5322 70.082 33.6496 70.1028 33.7335 70.1057C33.5937 71.1141 33.5295 70.5803 33.7881 72.3834C33.9022 72.9854 33.21 73.7418 33.2466 70.1385C32.691 70.4678 32.3701 70.8387 32.4843 71.4407C33.0051 74.3825 33.1908 74.1897 32.317 74.3916C31.9667 73.9973 32.096 71.859 32.1322 71.3785C29.7383 73.3544 30.1646 72.1235 30.4773 76.2873C30.4929 76.5038 30.5928 76.6402 30.8106 76.7143C31.3965 76.984 31.9824 77.2537 32.5683 77.5233ZM81.48 78.9046C81.1733 79.741 80.8501 80.5271 80.5774 81.2982C80.339 81.9211 80.151 82.5292 79.9296 83.1194C79.3516 84.4779 78.8574 85.8393 78.5306 87.2897C78.1166 89.3184 76.8866 90.2055 78.4444 90.7418C79.2316 91.0352 79.8371 90.774 80.3937 90.2785C81.2363 89.6436 81.8116 88.7833 82.4369 87.9913C83.0961 87.134 83.5545 86.17 83.7113 85.129C83.8332 84.3193 83.9716 83.56 84.0262 82.7978C84.0968 82.169 84.1004 81.5047 83.8015 80.9295C83.5856 80.5232 83.2518 80.1793 82.9855 79.7879C82.6357 79.3105 82.1337 79.0438 81.48 78.9046ZM54.6255 88.6615C55.2861 87.5551 55.0647 85.1055 54.0474 83.9403C53.6091 84.2904 53.1541 84.6454 52.6822 85.0054C53.0127 85.9306 52.8738 86.7729 52.6006 87.6271C52.8349 87.7516 53.0022 87.8405 53.2365 87.965C53.4418 87.2413 53.5798 86.5651 53.3822 85.8771C53.3162 85.6755 53.1997 85.4886 53.4358 85.281C53.6513 85.7702 53.8333 86.2417 53.8306 86.74C53.8278 87.2382 53.8586 87.7543 53.8723 88.3029C54.0954 88.4215 54.3465 88.541 54.6255 88.6615ZM64.2173 59.5291C64.298 60.1133 64.2783 60.6442 64.4434 61.1483C64.7725 62.3226 64.7661 63.4852 64.8771 64.6685C64.9404 65.3684 65.0037 66.0683 65.2842 66.9253C65.3195 66.6109 65.3539 66.4626 65.3883 66.3143C65.5107 65.4216 65.4987 64.5408 65.4199 63.6244C65.3722 63.141 65.4588 62.6457 65.4111 62.1623C65.3139 61.5276 65.1328 60.8901 65.0187 60.2881C64.9371 59.8699 64.7202 59.6298 64.2173 59.5291ZM80.6181 76.9475C80.674 76.9495 80.7354 76.9682 80.8024 77.0038C80.8707 76.7902 80.9894 76.5618 81.0577 76.3483C81.2635 75.5415 81.5198 74.72 81.6921 73.8954C81.9158 72.89 82.1395 71.8845 82.095 70.8198C82.0634 70.4699 82.0992 70.0725 82.118 69.7077C82.1198 69.3755 82.0712 69.0582 81.8048 68.6668C81.7695 68.9812 81.8021 69.1651 81.7508 69.346C81.6783 70.3069 81.6059 71.2678 81.4496 72.2258C81.2759 73.2994 81.0017 74.3197 80.7946 75.3756C80.691 75.9035 80.6713 76.4344 80.6181 76.9475ZM36.7047 76.057C35.6095 76.8492 34.3488 77.2203 33.2541 77.9294C34.1888 78.8426 33.7863 78.7953 36.7308 77.4034C36.7331 76.9882 36.7354 76.573 36.7047 76.057ZM65.3886 60.1515C65.5051 60.3383 65.6385 60.4925 65.7045 60.6941C65.802 61.2734 65.8827 61.8576 65.9466 62.4468C66.0259 63.2801 66.0883 64.1461 66.1676 64.9795C66.1506 65.0121 66.2176 65.0477 66.2845 65.0832C66.3028 64.8015 66.3212 64.5197 66.4064 64.2735C66.664 63.2028 66.6365 62.1055 66.4077 60.9846C66.3101 60.433 66.0094 60.1899 65.3886 60.1515ZM52.3448 85.3258C51.6878 85.7679 50.898 85.9728 50.2236 86.5306C50.843 86.818 51.3284 87.0344 51.8644 87.2359C52.1825 87.3633 52.8931 86.3251 52.3448 85.3258ZM29.8722 76.4654C29.9625 75.3058 30.0858 74.247 30.0418 73.0993C28.9809 73.7432 29.2024 73.1529 29.1699 76.009C29.3202 76.1305 29.5545 76.255 29.8722 76.4654ZM61.2779 90.4893C60.6888 90.8008 60.2345 91.0175 59.6454 91.3291C60.3148 91.6848 60.8837 91.9871 61.553 92.3427C61.4727 91.6755 61.3916 91.1743 61.2779 90.4893ZM34.8261 78.9314C35.494 79.5361 35.3106 79.3138 36.4723 78.6402C36.9605 78.3583 36.9775 78.3257 36.712 77.7682C36.089 78.145 35.4995 78.5397 34.8261 78.9314ZM41.6325 52.7744C41.6661 52.7645 41.7052 52.7714 41.7498 52.7951C41.7672 52.6795 41.8012 52.6142 41.8016 52.5312C41.6631 51.2639 41.519 50.0074 41.3692 48.7619C41.3532 48.6284 41.2528 48.5751 41.1863 48.4565C41.1304 48.4545 41.0856 48.4585 41.052 48.4684C41.1616 49.9008 41.439 51.3391 41.6325 52.7744ZM61.1816 89.6885C60.3404 90.0744 59.5161 90.4275 58.6749 90.8134C58.8409 91.1514 61.3948 90.593 61.1816 89.6885ZM36.9587 78.6905C36.6543 79.1117 36.2339 79.2631 36.1143 79.6575C36.5484 80.0548 36.967 80.2356 37.5377 80.2057C37.3557 79.7343 37.2072 79.2806 36.9587 78.6905ZM16.5435 68.0085C16.0544 68.4565 15.9866 68.587 15.8999 69.0823C16.2685 69.1949 16.5353 69.5032 17.0217 69.5535C16.8736 69.0167 16.7251 68.563 16.5435 68.0085ZM28.964 73.7758C28.3767 73.7552 27.613 75.3066 28.5849 75.5732C28.6889 74.9622 28.8095 74.4016 28.964 73.7758ZM34.9951 45.1665C35.0941 45.469 35.1267 45.6528 35.1927 45.8545C35.6292 45.8365 36.0321 45.8008 36.4516 45.8155C36.4519 45.7601 36.4465 45.7157 36.4355 45.6821C36 45.5339 35.5815 45.3531 34.9951 45.1665ZM68.2841 61.5652C68.3148 62.0813 68.313 62.4134 68.3277 62.796C68.8489 62.6149 68.8677 62.2501 68.9369 61.8705C68.7361 61.7638 68.5853 61.7253 68.2841 61.5652ZM11.0872 62.319C9.96126 62.5952 10.4651 62.5297 9.1732 62.4679C9.70683 63.0846 10.2945 63.0221 11.0872 62.319ZM27.0963 74.6572C27.096 74.7126 27.1125 74.763 27.1459 74.8085C27.5479 74.9388 27.833 74.9654 27.7863 74.316C27.5002 74.4554 27.315 74.5652 27.0963 74.6572ZM48.3824 52.1139C48.6657 52.4726 48.884 52.4637 49.2539 52.3271C48.9866 52.1018 48.701 52.1583 48.3824 52.1139ZM42.167 53.225C42.3875 52.8009 42.3893 52.4687 42.2738 52.1158C42.0537 52.457 42.1358 52.7921 42.167 53.225ZM47.3789 51.4973C46.793 51.2276 46.793 51.2276 46.7068 51.6399C46.8916 51.6131 47.0763 51.5864 47.3789 51.4973ZM80.9586 69.9661C81.1122 69.5063 81.1122 69.5063 80.9632 69.1357C80.9613 69.4678 80.96 69.717 80.9586 69.9661Z" fill="#101828"/>
<path id="&#60;Path&#62;" d="M74.7008 66.5427C74.7739 68.6373 74.7457 70.6782 74.3964 72.6744C74.3806 72.4563 74.382 72.2053 74.3663 71.9872C74.2836 71.6495 74.2008 71.3119 74.1689 70.9593C74.1712 70.541 74.2244 70.1077 74.21 69.6385C74.1909 69.013 74.1718 68.3875 74.1527 67.762C74.1199 67.5768 74.07 67.4244 73.9872 67.0868C73.7501 67.1287 73.5468 67.1885 73.4788 67.2363C73.5093 67.8399 73.4899 68.2911 73.5043 68.7603C73.6799 70.6577 73.4327 72.5403 72.9997 74.3661C72.7228 75.4778 72.4968 76.5745 72.2537 77.7041C72.1974 77.7021 72.1579 77.6952 72.1354 77.6832C72.2232 77.1005 72.2773 76.4999 72.3988 75.9351C72.6248 74.8384 72.6646 73.7686 72.6031 72.6451C72.5231 71.8055 72.6289 71.0226 72.6673 70.2038C72.7047 69.5524 72.6913 68.9159 72.3054 68.3334C72.2531 68.5993 72.2346 68.8832 72.2162 69.1671C72.0837 70.691 71.9568 72.232 71.8354 73.7898C71.7818 74.3068 71.7786 74.8924 71.7079 75.4423C71.6355 76.2989 71.4505 77.1237 71.1528 77.9166C70.8094 78.8251 70.5844 79.7545 70.2747 80.6809C70.2401 80.8303 70.1717 80.9618 70.0187 81.0903C70.1051 80.7586 70.1411 80.3582 70.2276 80.0265C70.4697 79.0642 70.7457 78.1199 70.9878 77.1577C71.0747 76.7423 71.1278 76.309 71.1472 75.8578C71.1676 75.2392 71.1879 74.6207 71.2253 73.9693C71.2817 72.9503 71.3889 71.9164 71.3944 70.9124C71.3981 70.243 71.2664 69.5857 71.1684 68.9463C70.7279 69.048 70.6429 69.1287 70.6239 69.4963C70.63 71.4714 70.3657 73.3869 70.1351 75.3202C70.0292 76.1032 69.8559 76.8503 69.733 77.666C69.688 77.6422 69.6373 77.6292 69.5809 77.6273C69.6043 77.4719 69.6165 77.3105 69.6174 77.1432C69.7048 76.6441 69.775 76.178 69.8286 75.661C69.83 75.41 69.8143 75.1919 69.6465 74.9349C69.378 74.5406 69.3636 74.0715 69.4676 73.6232C69.7103 72.5773 69.7329 71.5404 69.7218 70.4856C69.7393 70.3691 69.7398 70.2854 69.7236 70.1509C69.0789 70.4798 68.8561 70.9909 68.8524 71.6602C68.8558 73.0885 68.848 74.5109 68.8289 75.9273C68.8274 76.2061 68.8259 76.485 68.8243 76.7639C68.7679 76.762 68.7285 76.755 68.706 76.743C68.6089 75.9363 68.5288 75.1245 68.4656 74.3078C68.4504 74.006 68.418 73.7371 68.2502 73.4802C68.0658 73.1725 68.1019 72.772 68.07 72.4195C68.0542 72.2013 68.1065 71.9354 67.8874 71.7771C67.532 71.7981 67.6152 72.0521 67.6142 72.2194C67.4899 73.2862 67.3998 74.2872 67.6647 75.3509C67.764 75.7393 67.7788 76.1248 67.7428 76.5252C67.2589 75.3032 67.2154 73.9795 66.9011 72.6798C66.5623 72.7516 66.4597 72.9489 66.4583 73.1999C66.456 73.6182 66.4537 74.0365 66.4006 74.4698C66.3248 75.94 66.2378 77.4042 66.1395 78.8624C66.1224 78.8953 66.1053 78.9282 66.0369 79.0597C65.9121 77.1473 65.9389 75.3574 65.9661 73.4839C65.5756 73.738 65.3884 73.9323 65.3524 74.3327C65.2438 75.6176 65.0672 76.9504 64.6712 78.2085C64.7118 76.9714 64.7862 75.7522 64.8782 74.4165C64.6069 74.5242 64.4881 74.587 64.2847 74.6468C64.2339 74.6618 64.1327 74.608 64.116 74.5572C64.0485 74.5214 64.0998 74.4227 64.1003 74.3391C64.1003 74.3391 64.1174 74.3062 64.1511 74.3241C64.9336 73.5649 65.7498 72.8236 66.5323 72.0644C67.1789 71.4008 67.7746 70.7522 68.4549 70.1065C68.7271 69.8315 69.0331 69.5745 69.3562 69.2845C69.8831 68.8511 70.4608 68.4027 71.0048 67.9363C71.9398 67.1322 73.0933 66.5701 74.247 66.008C74.705 65.7897 75.2125 65.8075 75.7195 65.9089C75.8041 65.9119 75.9048 66.0493 75.9723 66.0851C75.9039 66.2166 75.8355 66.3481 75.7338 66.378C75.4288 66.4678 75.1071 66.5067 74.7008 66.5427Z" fill="#101828"/>
<path id="&#60;Path&#62;_2" d="M53.6934 73.3458C53.0463 74.6736 52.2317 75.8288 51.2827 76.9126C48.7069 79.89 45.7524 81.287 44.0335 81.5435C43.5615 81.627 43.5615 81.627 43.1761 81.2967C43.1531 81.3959 43.1189 81.4892 43.0735 81.5766C42.7926 81.6223 42.5743 81.5202 42.4185 81.2702C42.3186 81.0499 42.1347 80.8267 42.0854 80.5916C40.9648 76.1509 41.0968 73.588 42.2964 69.7954C42.6046 68.8725 42.9293 68.0003 43.254 67.128C43.2764 67.1399 43.3157 67.1469 43.3718 67.1488C43.2177 67.6103 43.0636 68.0717 42.9431 68.551C42.7484 69.2555 42.5705 69.955 42.4096 70.6496C42.1851 71.6588 41.3277 74.463 42.0803 78.4574C42.2432 79.4634 42.5748 80.392 43.3453 81.1359C46.2607 80.7213 47.6655 79.42 48.3242 79.0596C49.5403 78.3687 50.4051 77.2819 51.3871 76.2993C51.946 75.7187 52.337 75.0489 52.8287 74.4326C53.1001 74.0753 53.388 73.7686 53.6934 73.3458Z" fill="#101828"/>
<path id="&#60;Path&#62;_3" d="M73.149 84.5497C73.5311 86.1406 72.8616 87.3423 72.0909 88.4062C71.6624 89.0625 71.0309 89.5272 70.4334 90.0098C69.0847 91.1038 67.7192 92.147 66.3537 93.1901C66.2173 93.286 66.0812 93.2981 65.9619 93.361C65.759 93.1693 65.7088 93.0165 65.9308 92.8397C66.4429 92.438 66.9378 92.0693 67.4499 91.6677C68.7977 90.7414 70.0778 89.7792 71.2905 88.6971C71.9567 88.0827 72.6257 86.9648 72.9034 85.934C72.7325 86.0959 72.596 86.1918 72.5445 86.2907C71.9623 87.0759 71.2278 87.7383 70.4766 88.3498C69.7028 88.9493 68.9232 89.5598 68.138 90.1813C68.0015 90.2772 67.8311 90.3552 67.6779 90.4002C67.5757 90.4302 67.3891 90.3733 67.3046 90.2864C67.1523 90.1636 67.2382 89.9988 67.3747 89.9029C67.6987 89.696 68.0228 89.4892 68.3469 89.2823C69.132 88.6888 69.9171 88.0953 70.6683 87.4838C71.1976 87.0492 71.693 86.5966 72.1378 86.0751C72.4456 85.7334 72.6522 85.254 72.8755 84.8254C72.9609 84.7445 73.0292 84.6965 73.149 84.5497Z" fill="#101828"/>
<path id="&#60;Path&#62;_4" d="M44.6299 79.3452C44.4454 79.1215 44.4293 78.9872 44.6156 78.8768C44.6834 78.829 44.7848 78.7992 44.8863 78.7693C45.9345 78.4886 46.6977 77.8469 47.4277 77.1039C49.3295 75.0985 49.1437 75.1254 49.6034 74.4063C49.5585 74.3825 49.5193 74.3477 49.4858 74.302C47.7385 75.8448 44.7996 79.184 44.7981 73.319C44.7809 72.3604 44.8311 71.4097 44.9489 70.467C45.0369 69.8017 45.2094 69.1394 45.3482 68.4591C45.4045 68.4611 45.455 68.474 45.4999 68.4979C45.4824 68.6142 45.4985 68.7485 45.464 68.8976C45.1186 70.3058 45.1103 71.8094 45.1698 73.2652C45.2261 75.3057 45.7491 75.3741 46.1166 76.0721C47.638 75.7076 50.7277 72.5743 51.2202 72.0401C51.2373 72.0073 51.2709 72.0252 51.2709 72.0252C51.2539 72.058 51.2875 72.0759 51.2875 72.0759C49.7233 74.0931 49.1649 77.3986 44.6299 79.3452Z" fill="#101828"/>
<path id="&#60;Path&#62;_5" d="M72.6032 64.3104C72.7187 64.8332 72.4803 65.1261 72.0566 65.2786C70.9374 65.7749 69.9023 66.3579 68.9846 67.129C68.2707 67.7566 67.5401 68.3335 66.8262 68.9611C66.6053 69.1375 66.4348 69.3825 66.2306 69.6096C66.1285 69.7232 65.9755 69.8517 65.8226 69.9802C65.5712 69.5531 65.8096 69.2602 65.9968 69.066C66.7287 68.2381 67.4777 67.3774 68.4453 66.7587C69.0904 66.3462 69.7526 65.9008 70.4147 65.4554C70.5677 65.3269 70.771 65.2671 70.924 65.1385C70.4337 65.0879 70.0603 65.3091 69.6532 65.5124C68.4661 66.0565 67.4297 66.8904 66.5448 67.8468C66.4256 67.9932 66.2717 68.2891 66.0194 68.0292C65.8683 67.8231 65.9879 67.593 66.1751 67.3988C66.7698 66.9176 67.2975 66.3169 67.9088 65.8864C68.8085 65.3155 69.7082 64.7446 70.7752 64.5142C71.4018 64.3855 72.0113 64.2897 72.6032 64.3104Z" fill="#101828"/>
<path id="&#60;Path&#62;_6" d="M62.8379 59.962C62.9375 60.2661 63.0204 60.5194 63.154 60.7579C63.2697 61.196 63.049 61.4554 62.6108 61.39C61.9538 61.2501 61.3461 61.3457 60.7711 61.6261C60.1454 61.9214 59.4695 62.1482 58.7945 62.208C58.1532 62.2857 57.5947 62.6168 57.07 62.9657C56.0375 63.6308 55.0049 64.2959 54.0061 64.9789C53.7522 65.137 53.4642 65.3606 53.0602 65.2296C53.18 64.9166 52.6718 65.3162 56.1936 62.8349C57.3957 62.0087 58.6812 61.3525 60.0339 60.732C60.5412 60.4993 61.0816 60.368 61.6552 60.338C61.8745 60.329 62.0607 60.2186 62.2634 60.159C62.4832 60.0665 62.6859 60.0068 62.8379 59.962Z" fill="#101828"/>
<path id="&#60;Path&#62;_7" d="M54.5397 69.0243C54.6246 68.9437 54.6587 68.878 54.7266 68.8302C55.6235 68.5106 56.2524 67.7971 56.8642 67.1165C57.6799 66.209 58.6295 65.5402 59.5795 64.7878C59.8849 64.531 62.9468 63.6855 63.0312 63.6884C63.0979 63.8356 63.1759 63.9888 63.2651 64.1479C63.4488 64.5388 63.2951 64.8343 62.8891 64.9538C62.0941 65.16 61.0112 65.5066 60.1489 65.677C59.4046 65.8682 58.8113 66.2653 58.2345 66.7132C57.5046 67.3729 56.741 68.0148 55.9945 68.6239C55.7569 68.8329 55.4519 69.0061 55.1469 69.1793C54.9776 69.2569 54.7238 69.3316 54.5397 69.0243Z" fill="#101828"/>
<path id="&#60;Path&#62;_8" d="M62.9909 61.604C63.0398 61.9232 63.0891 62.159 63.1214 62.4275C63.1703 62.7468 63.0172 62.9587 62.7298 63.0155C62.3413 63.0186 61.9695 63.0725 61.5976 63.1263C61.0736 63.2249 60.5827 63.425 60.0586 63.5237C58.0638 63.8884 56.2937 66.3837 54.0932 67.3094C53.8731 67.402 53.6364 67.4439 53.3827 67.5185C53.3846 67.1843 53.5705 67.1574 53.7061 67.0619C55.1616 66.4944 56.5396 64.6707 58.8273 63.2465C59.505 62.8524 59.911 62.7329 62.9909 61.604Z" fill="#101828"/>
<path id="&#60;Path&#62;_9" d="M55.8125 70.7198C55.9487 70.5406 55.9833 70.3913 56.0849 70.3614C56.9323 69.9729 57.4938 69.3068 58.1393 68.7273C58.734 68.1627 59.2613 67.5624 59.8727 67.0485C60.4504 66.5168 61.1453 66.1732 61.9072 65.949C62.212 65.8593 62.5505 65.7875 62.8889 65.7157C62.9383 65.9516 62.9199 66.2353 63.0704 66.5249C63.2039 66.8474 62.8977 67.1879 62.4918 67.2239C61.9169 67.2539 59.3075 68.3835 57.1678 70.1819C56.9129 70.4239 56.5402 70.5613 56.2013 70.7167C56.1334 70.7645 56.0323 70.7108 55.8125 70.7198Z" fill="#101828"/>
<path id="&#60;Path&#62;_10" d="M62.7399 68.07C63.2108 68.3203 63.3426 68.8926 63.0542 69.1997C62.9864 69.2474 62.7837 69.3071 62.7501 69.2892C62.5317 69.1313 59.4729 70.2263 59.0145 70.7779C58.9804 70.8435 58.7781 70.8197 58.6602 70.7989C58.6777 70.6827 58.6279 70.5306 58.6791 70.4323C58.832 70.2206 59.0352 70.0774 59.2218 69.8836C60.4423 68.7743 61.93 68.1418 62.7399 68.07Z" fill="#101828"/>
<path id="&#60;Path&#62;_11" d="M44.9606 68.1178C44.6489 69.3243 44.326 70.5249 43.9918 71.7195C43.5937 73.2302 43.3378 76.6223 44.2636 77.7437C44.3141 77.8125 44.3983 77.8992 44.4488 77.968C44.4483 78.0518 44.4136 78.2013 44.3965 78.2342C44.2946 78.2642 44.1081 78.2912 44.0743 78.2732C43.8725 77.9981 43.6873 77.7738 43.5702 77.5017C42.9174 76.0212 43.0984 73.9333 43.4289 72.3867C43.534 71.7705 43.7575 71.1752 43.9473 70.5619C44.2399 69.7512 44.5496 68.9076 44.8592 68.064C44.9043 68.0879 44.9381 68.1058 44.9606 68.1178Z" fill="#101828"/>
<path id="&#60;Path&#62;_12" d="M57.6594 73.8208C57.6779 73.5372 57.9313 73.5461 58.0671 73.4505C58.5588 73.1666 58.9494 72.8291 59.3234 72.4408C59.9014 71.8255 60.5132 71.2282 61.2256 70.7681C61.6499 70.4485 62.2589 70.3527 62.8175 70.1883C62.9191 70.1584 63.0876 70.2479 63.138 70.3166C63.1541 70.451 63.1698 70.6689 63.1186 70.7675C62.9487 70.9288 62.7451 71.0722 62.5248 71.1648C62.2534 71.356 61.9653 71.4964 61.6601 71.6697C61.372 71.8101 61.1679 72.0371 60.7962 72.0074C60.6101 72.0343 60.4232 72.2285 60.2703 72.3569C59.659 72.8707 59.0981 73.4531 58.3187 73.7938C58.0985 73.8864 57.9119 73.9969 57.6594 73.8208Z" fill="#101828"/>
<path id="&#60;Path&#62;_13" d="M63.9858 94.5346C63.7169 90.9874 64.1934 87.6675 65.2974 84.3863C65.32 84.3982 65.3595 84.4052 65.416 84.4072C65.3351 84.7285 65.2599 85.0389 65.1903 85.3382C64.9632 86.5207 64.77 87.7212 64.6277 88.9066C64.5364 90.0771 64.5133 91.1997 64.3881 92.3522C64.3172 92.903 64.4669 93.4448 64.4809 93.9986C64.479 94.3339 64.479 94.3339 63.9858 94.5346Z" fill="#101828"/>
<path id="&#60;Path&#62;_14" d="M66.9782 83.3992C66.8905 83.8994 66.8539 84.3847 66.7833 84.8519C66.5203 86.3525 66.2406 87.8022 66.0114 89.3208C65.9233 89.9048 65.9368 90.5428 65.8825 91.1448C65.509 91.115 65.3907 91.0102 65.4093 90.7256C65.4278 90.4411 65.5313 90.1595 65.5498 89.875C65.656 89.0903 65.7284 88.2876 65.8518 87.4699C65.9566 86.9367 66.0615 86.4036 66.183 85.9213C66.3227 85.2384 66.479 84.6064 66.6525 83.9415C66.7045 83.7587 66.8752 83.5969 66.9782 83.3992Z" fill="#101828"/>
<path id="&#60;Path&#62;_15" d="M63.1597 72.6856C62.9724 72.8799 62.8019 73.1251 62.5471 73.2835C61.7663 73.7082 61.0696 74.2195 60.4062 74.8324C60.1168 75.1403 59.7432 75.3616 59.3525 75.6157C59.2675 75.6965 59.132 75.7084 58.9795 75.7533C58.8116 75.4964 58.9647 75.3678 59.1177 75.2392C59.6281 74.7549 60.1385 74.2706 60.6655 73.837C61.0395 73.5321 61.4639 73.2958 61.8712 73.0925C62.2448 72.8712 62.6516 72.7515 63.0755 72.599C63.1091 72.6448 63.1372 72.6736 63.1597 72.6856Z" fill="#101828"/>
<path id="&#60;Path&#62;_16" d="M77.7904 76.1497C77.771 76.6011 77.5328 76.8104 77.278 76.9689C76.071 77.881 74.8974 78.8948 73.5558 79.6515C73.5444 79.6734 73.533 79.6954 73.5216 79.7173C73.369 79.7622 73.2159 79.8907 73.0985 79.7025C72.981 79.5142 73.1169 79.4185 73.2529 79.3228C73.6947 79.0257 74.1365 78.7286 74.5783 78.4315C75.6151 77.6809 76.6348 76.9632 77.7904 76.1497Z" fill="#101828"/>
<path id="&#60;Path&#62;_17" d="M36.3129 74.5203C35.311 75.4549 33.3451 76.5897 32.8536 76.8735C32.797 76.9272 32.7292 76.975 32.6501 77.0168C32.4636 77.1273 32.3118 77.0885 32.1946 76.9005C32.0774 76.7125 32.213 76.617 32.3487 76.5214C36.6193 74.0963 35.7554 74.5175 36.246 74.4009C36.2571 74.4347 36.2794 74.4745 36.3129 74.5203Z" fill="#101828"/>
<path id="&#60;Path&#62;_18" d="M72.0677 85.1062C71.7942 85.7148 71.2861 86.0312 70.7443 86.3297C70.1684 86.6937 69.5593 86.9564 68.9502 87.2191C68.544 87.4221 68.544 87.4221 68.2259 86.9598C69.462 86.2346 70.8983 85.9508 72.0677 85.1062Z" fill="#101828"/>
<path id="&#60;Path&#62;_19" d="M68.0548 81.846C68.0711 81.9806 68.1548 82.151 68.1539 82.3185C68.0276 83.7213 67.9179 85.175 67.7916 86.5778C67.7735 86.7782 67.823 87.0144 67.805 87.2148C67.8041 87.3823 67.8031 87.5498 67.7846 87.834C67.3968 87.5021 67.263 87.1791 67.2986 86.8621C67.5282 85.1781 67.7915 83.512 68.072 81.8131L68.0548 81.846Z" fill="#101828"/>
<path id="&#60;Path&#62;_20" d="M60.56 85.2789C59.983 85.8933 59.3734 86.3228 58.6969 86.6331C55.7542 87.9995 55.9104 87.2034 56.7384 86.9318C58.0227 86.5259 59.2904 86.0694 60.3747 85.2223C60.3747 85.2223 60.442 85.2581 60.56 85.2789Z" fill="#101828"/>
<path id="&#60;Path&#62;_21" d="M56.0418 82.6746C56.3407 83.757 56.3764 86.505 55.8647 87.157C55.545 86.7774 55.5917 87.5159 55.8508 83.5389C55.8522 83.2877 55.7522 82.9827 56.0418 82.6746Z" fill="#101828"/>
<path id="&#60;Path&#62;_22" d="M47.8527 67.5064C47.5547 69.3216 47.1045 71.0981 47.6024 72.958C47.3812 73.1345 47.2295 73.0119 47.1628 72.8086C47.0795 72.5545 47.0471 72.2853 47.0319 71.9833C47.055 70.8619 47.1119 69.7584 47.4228 68.6638C47.5774 68.284 47.6306 67.8503 47.7004 67.4675C47.7455 67.4914 47.7962 67.5044 47.8527 67.5064Z" fill="#101828"/>
<path id="&#60;Path&#62;_23" d="M31.5225 73.0024C31.5688 73.8246 31.6197 73.8096 31.4851 76.7189C31.4837 76.9701 31.5327 77.29 31.177 77.311C30.9568 77.3201 30.9073 77.0839 30.9605 76.6503C31.1196 75.4334 31.3513 73.3313 31.4041 72.9815C31.4491 73.0054 31.4886 73.0124 31.5225 73.0024Z" fill="#101828"/>
<path id="&#60;Path&#62;_24" d="M50.1056 71.4397C49.606 72.7307 47.6236 74.9597 46.6572 74.6575C46.6744 74.6245 48.4986 73.363 49.4728 72.2396C49.695 71.9789 49.8834 71.7003 50.1056 71.4397Z" fill="#101828"/>
<path id="&#60;Path&#62;_25" d="M58.4706 78.5371C59.0053 79.7441 58.992 82.1705 58.5321 82.7234C58.228 82.6458 58.2797 82.4635 58.3315 82.2812C58.4198 81.6149 58.4909 80.9813 58.5284 80.3299C58.5649 79.8458 58.4997 79.3917 58.4516 78.9046C58.4636 78.7711 58.4699 78.6486 58.4706 78.5371Z" fill="#101828"/>
<path id="&#60;Path&#62;_26" d="M57.3749 80.9611C57.4077 81.1464 57.5252 81.3347 57.5243 81.502C57.5201 82.2553 57.4651 83.0235 57.4439 83.8097C57.4434 83.8934 57.4258 84.01 57.3407 84.0907C57.3065 84.1565 57.2048 84.1864 57.1368 84.2342C57.0698 84.1147 56.9685 84.0609 56.969 83.9772C57.0221 83.5438 57.1262 83.0954 57.1793 82.6619C57.1992 82.1269 57.2024 81.541 57.2223 81.0059C57.2676 80.974 57.3185 80.9591 57.3749 80.9611Z" fill="#101828"/>
<path id="&#60;Path&#62;_27" d="M48.5538 70.7664C48.3013 70.3383 48.5408 69.9613 48.6616 69.5633C48.8065 70.0043 48.7706 70.4053 48.5538 70.7664Z" fill="#101828"/>
<path id="&#60;Path&#62;_28" d="M67.0361 83.3988C67.0721 82.9975 67.1193 82.6022 67.1779 82.2129C67.2231 82.2369 67.274 82.2499 67.3307 82.2519C67.2155 82.6392 67.1173 83.0215 67.0361 83.3988Z" fill="#101828"/>
<path id="&#60;Path&#62;_29" d="M68.3059 80.7276C68.3174 80.6499 68.3347 80.5613 68.3576 80.4617C68.3802 80.4737 68.4085 80.4748 68.4425 80.4649C68.4196 80.5645 68.3967 80.664 68.3738 80.7636C68.3511 80.7516 68.3285 80.7396 68.3059 80.7276Z" fill="#101828"/>
<path id="&#60;Path&#62;_30" d="M68.1184 81.8132C68.1307 81.6235 68.1542 81.4398 68.1891 81.2622C68.3071 81.4509 68.2381 81.6665 68.1013 81.8461L68.1184 81.8132Z" fill="#101828"/>
<path id="&#60;Path&#62;_31" d="M52.4268 77.542C52.4842 77.432 52.5358 77.333 52.5817 77.245C52.6045 77.2571 52.6273 77.2691 52.65 77.2811C52.6041 77.3691 52.5582 77.4571 52.5123 77.5451C52.4895 77.5331 52.461 77.532 52.4268 77.542Z" fill="#101828"/>
<path id="&#60;Path&#62;_32" d="M56.7858 80.5948C56.8203 80.5287 56.8607 80.4516 56.9067 80.3635C56.9294 80.3754 56.9408 80.3814 56.9408 80.3814C56.8947 80.4696 56.8544 80.5467 56.8198 80.6128C56.7971 80.6008 56.7858 80.5948 56.7858 80.5948Z" fill="#101828"/>
<path id="&#60;Path&#62;_33" d="M10.2809 46.2845C10.43 46.9948 10.1722 47.4894 9.91441 47.984C9.34768 48.9882 8.66203 49.9715 8.75728 51.2003C8.77308 51.4191 8.80607 51.6049 8.82186 51.8237C8.87854 51.8257 8.92948 51.8387 8.9747 51.8626C9.09455 51.7157 9.26551 51.5538 9.35145 51.389C9.85082 50.2649 10.2824 49.1048 10.6461 47.9089C10.8022 47.3603 10.9921 46.8298 11.217 46.1494C11.3689 46.3561 11.5045 46.428 11.4869 46.5449C11.485 46.8806 11.5338 47.2852 11.413 47.5999C10.9634 48.9608 10.6666 50.3605 10.0134 51.6135C9.94467 51.7454 9.87592 51.8773 9.85827 51.9942C9.63252 52.8425 9.13547 53.547 8.55387 54.1646C8.29744 54.4074 7.99037 54.5813 7.58204 54.6174C7.13979 54.6356 6.93632 54.5277 6.81971 54.0872C6.65293 53.4938 6.57115 52.9034 6.84662 52.2919C6.84662 52.2919 6.96879 51.7254 8.68848 48.2601C8.99786 47.6666 9.34115 47.0911 9.8029 46.6204C9.92275 46.4735 10.0761 46.4285 10.2809 46.2845Z" fill="#101828"/>
<path id="&#60;Path&#62;_34" d="M29.014 68.6436C28.2834 69.6364 28.0107 70.1611 25.8265 71.7208C25.1152 72.2635 24.3039 72.5857 23.3927 72.6873C22.6836 72.8127 22.0437 72.64 21.3702 72.4495C21.3366 72.4316 21.2859 72.4465 21.2693 72.3959C21.2023 72.3045 21.1411 72.2022 21.0855 72.0889C21.2039 72.0263 21.2886 71.9458 21.3729 71.9487C21.6426 71.9804 21.9009 72.034 22.1478 72.1094C24.5384 72.8777 26.1508 71.0142 28.4893 68.9925C28.6418 68.8643 28.7607 68.7182 28.8966 68.5393C28.93 68.585 28.9692 68.6198 29.014 68.6436Z" fill="#101828"/>
<path id="&#60;Path&#62;_35" d="M28.4984 44.5041C28.0748 44.74 27.6513 44.9759 27.2448 45.1789C26.4152 45.5344 25.7199 46.0449 25.0583 46.5734C24.7699 46.7973 24.3976 46.9347 24.1092 47.1586C23.646 47.4433 23.2052 47.7398 22.7869 48.0484C22.6005 48.1588 22.4482 48.2037 22.2973 47.9978C22.2138 47.8277 22.2821 47.6964 22.4177 47.6008C22.9262 47.2843 23.4289 46.9788 23.926 46.6841C24.2651 46.4453 24.6209 46.2571 24.8926 45.9825C25.3849 45.5317 25.9104 45.1824 26.5365 44.9703C27.0554 44.799 27.5687 44.6387 28.0762 44.4893C28.1948 44.4266 28.33 44.4146 28.4651 44.4026C28.4762 44.4364 28.4873 44.4703 28.4984 44.5041Z" fill="#101828"/>
<path id="&#60;Path&#62;_36" d="M19.9284 71.257C18.2226 70.6449 18.6608 64.8353 19.8556 62.9522C19.8381 63.0687 19.8714 63.1703 19.8367 63.3198C19.2515 65.107 18.983 67.7758 19.9284 71.257Z" fill="#101828"/>
<path id="&#60;Path&#62;_37" d="M27.9998 67.4244C27.0087 69.4961 25.0784 70.3145 23.0458 71.3299C22.487 71.5779 21.9452 71.7929 21.2711 71.5185C21.2268 71.3833 21.1939 71.2261 21.1723 71.047C21.3246 71.0022 21.4432 70.9395 21.5613 70.9603C22.0504 71.0945 22.4907 70.9093 22.9475 70.7748C26.0784 69.7143 27.5582 67.8603 27.9998 67.4244Z" fill="#101828"/>
<path id="&#60;Path&#62;_38" d="M21.5455 61.5136C21.3366 62.4951 21.0602 63.4407 20.8851 64.4401C20.3591 67.6058 20.8537 70.137 20.8537 70.137C20.2632 69.6135 20.0853 68.0487 20.1576 67.2469C20.2506 65.7418 20.4961 64.2756 20.9448 62.8333C21.1 62.3695 21.3227 61.9416 21.4779 61.4777C21.5004 61.4897 21.523 61.5017 21.5455 61.5136Z" fill="#101828"/>
<path id="&#60;Path&#62;_39" d="M27.9115 65.0803C27.824 65.5798 27.5339 65.9717 27.3113 66.3994C26.4209 68.1104 24.9247 69.0798 23.0754 69.5679C22.9056 69.6457 22.7191 69.6727 22.5497 69.6667C22.4312 69.6458 22.2794 69.5233 22.3137 69.4575C22.2804 69.3558 22.366 69.1913 22.4678 69.1613C23.0116 68.8621 25.6879 68.939 27.5191 65.5859C27.6104 65.4104 27.7073 65.2518 27.8097 65.1102C27.8268 65.0773 27.8268 65.0774 27.9115 65.0803Z" fill="#101828"/>
<path id="&#60;Path&#62;_40" d="M26.5629 42.4543C26.1707 42.8763 25.7613 43.3312 25.3691 43.7531C24.6703 44.4325 23.9377 45.0939 23.2052 45.7554C23.0348 45.917 22.8644 46.0786 22.6773 46.1894C22.5583 46.2522 22.2702 46.2254 22.2536 46.1746C22.2035 46.022 22.2383 45.8724 22.2563 45.6719C22.2735 45.639 22.3244 45.624 22.3925 45.5761C23.5616 44.6563 24.725 43.7474 25.8826 42.8494C26.0869 42.7058 26.2911 42.5621 26.4953 42.4184C26.5178 42.4304 26.5404 42.4423 26.5629 42.4543Z" fill="#101828"/>
<path id="&#60;Path&#62;_41" d="M26.7462 64.7078C26.5902 65.3391 26.2989 65.8987 25.8557 66.3357C25.4639 66.6739 23.2669 68.4907 22.9983 68.0121C22.7969 67.6531 23.2039 67.6171 24.0375 67.0932C25.1092 66.4436 26.0622 65.7731 26.7462 64.7078Z" fill="#101828"/>
<path id="&#60;Path&#62;_42" d="M22.425 61.7143C22.2091 63.9527 21.587 66.0596 21.8794 68.3996C21.4398 68.1664 21.374 67.7953 21.3758 67.4602C21.3953 67.0083 21.4485 66.5744 21.5189 66.1075C21.6134 65.3733 21.7249 64.6341 21.8534 63.89C21.9756 63.2406 22.1484 62.66 22.3045 62.0285C22.305 61.9447 22.3736 61.813 22.425 61.7143Z" fill="#101828"/>
<path id="&#60;Path&#62;_43" d="M35.8122 63.038C35.5593 62.8618 35.594 62.7123 35.7132 62.5658C36.4618 61.8721 37.1938 61.1277 38.2452 60.7627C38.2961 60.7477 38.3636 60.7835 38.5328 60.7895C37.5637 61.5759 36.7134 62.2995 35.8122 63.038Z" fill="#101828"/>
<path id="&#60;Path&#62;_44" d="M24.7233 41.5148C24.4316 42.158 24.0046 42.7295 23.4765 43.1633C23.2889 43.3578 23.0169 43.4655 22.7621 43.5403C22.694 43.5881 22.542 43.4654 22.4405 43.4116C22.4919 43.3128 22.5094 43.1962 22.578 43.0645C22.5951 43.0316 22.7308 43.0196 22.8156 43.0226C23.3591 42.891 23.7001 42.5679 24.0247 42.1101C24.1785 41.8977 24.3661 41.7032 24.5537 41.5088C24.5708 41.4758 24.6385 41.5118 24.7233 41.5148Z" fill="#101828"/>
</g>
</svg>
