<svg width="84" height="76" viewBox="0 0 84 76" fill="none" xmlns="http://www.w3.org/2000/svg">
<g id="&#60;Group&#62;" opacity="0.5">
<path id="&#60;Compound Path&#62;" fill-rule="evenodd" clip-rule="evenodd" d="M78.4488 57.0369C78.4488 57.8821 78.4488 58.6481 78.4488 59.4141C78.4753 60.4442 78.5017 61.4742 78.4753 62.5043C78.4489 63.059 78.3168 63.6137 78.264 64.1948C78.2111 64.591 78.1847 64.9871 78.1847 65.4097C78.2375 66.1229 78.1319 66.836 78.0527 67.5228C77.8942 68.8434 77.5508 70.0848 76.4151 70.93C75.4906 71.5903 74.619 72.3827 73.4304 72.5412C72.8757 72.594 72.3211 72.5676 71.7928 72.6997C70.3401 73.0431 68.861 73.1487 67.3819 73.2808C64.7671 73.4921 62.1522 73.7298 59.5373 73.9675C57.9525 74.0995 56.3414 74.0995 54.7566 74.0995C53.8057 74.0995 52.8549 74.1524 51.904 74.2052C51.7719 74.2052 51.6399 74.2052 51.5078 74.2052C48.8665 74.1788 46.1989 74.126 43.5576 74.1524C42.6331 74.1524 41.7087 74.2844 40.7842 74.3109C40.2032 74.3373 39.5957 74.3109 39.0146 74.3109C38.5392 74.3109 38.0637 74.2844 37.6147 74.3373C36.7695 74.3901 35.9243 74.6278 35.0791 74.5486C33.6264 74.4165 32.2265 74.7599 30.7738 74.7863C30.3248 74.7863 29.8758 74.707 29.4268 74.7335C27.6571 74.7599 25.861 74.8127 24.0914 74.8391C23.0085 74.8655 21.9255 74.8919 20.8426 75.0504C20.2879 75.1296 19.6805 74.9712 19.0994 74.9448C18.6504 74.892 18.2277 74.8391 17.8051 74.8391C17.4882 74.8391 17.1712 74.9712 16.8807 74.9712C15.9562 74.9712 15.0318 74.9448 14.1074 74.8919C13.9225 74.8919 13.7112 74.8391 13.5263 74.8655C10.8058 74.9448 8.11168 74.707 5.44399 74.3373C4.73084 74.258 4.0441 74.0996 3.38378 73.9147C2.85552 73.7562 2.51217 73.3336 2.14239 72.9374C1.45566 72.2506 1.13869 71.4054 0.900972 70.5074C0.716082 69.8471 0.584038 69.2132 0.557625 68.5265C0.478387 67.5492 0.346323 66.5719 0.293498 65.5947C0.214259 64.1948 0.187821 62.7949 0.134995 61.395C0.108582 60.3649 0.0293442 59.3348 0.00293141 58.3311C0.00293141 57.3275 -0.0234685 56.2974 0.0821826 55.3201C0.240659 53.6825 0.399149 52.0449 0.953817 50.4865C1.16512 49.879 1.34999 49.2451 1.69335 48.7169C2.43291 47.6076 3.25172 46.6039 4.54595 46.1284C4.88931 45.9964 5.20625 45.7851 5.54961 45.6266C6.26276 45.3097 7.00232 45.1512 7.76829 45.0719C9.61718 44.887 11.4397 44.6757 13.2886 44.6493C14.0545 44.6493 14.8205 44.5437 15.5865 44.4908C15.9298 44.4644 16.2996 44.438 16.7222 44.3852C16.6166 42.5363 16.5109 40.7402 16.4317 38.8914C16.1676 38.8914 15.9298 38.8914 15.6657 38.8914C15.1639 38.9178 14.6884 38.9706 14.1866 38.9706C13.7904 38.9442 13.447 38.7857 13.2622 38.3367C13.0509 37.7292 13.3414 37.2009 14.0017 37.1217C14.7941 37.016 15.6129 36.9368 16.4053 36.8311C16.4845 36.8311 16.5637 36.7783 16.775 36.6727C16.5373 36.5934 16.4317 36.4878 16.326 36.4878C15.2695 36.4349 14.2042 36.3997 13.1301 36.3821C12.7603 36.3557 12.3905 36.3821 12.0207 36.4085C11.7038 36.4085 11.5981 36.567 11.5981 36.8576C11.5981 37.0953 11.6245 37.3066 11.6245 37.5443C11.6245 38.231 11.1755 38.6008 10.4888 38.5744C10.0662 38.548 9.61719 38.6008 9.19459 38.6272C8.87763 38.6272 8.63992 38.548 8.53427 38.231C8.37579 37.8084 8.63991 37.465 9.08893 37.5443C9.59077 37.6499 10.0662 37.5971 10.568 37.4651C10.568 37.1481 10.568 36.8311 10.568 36.4878C10.2247 36.4085 10.1718 36.0916 10.0398 35.8274C9.72283 35.2464 9.32664 34.7181 8.98327 34.1635C8.50784 33.3711 8.00602 32.6051 7.58341 31.7863C7.16081 30.9147 6.76461 30.0431 6.28918 29.1978C5.76093 28.2734 5.52322 27.2697 5.44399 26.2132C5.44399 26.0811 5.47038 25.9227 5.39114 25.817C5.1006 25.3152 5.17983 24.7605 5.15342 24.2587C5.10059 23.0701 5.04778 21.8815 4.99495 20.6929C4.96854 20.2439 5.02136 19.7949 4.99495 19.3459C4.99495 17.7347 4.96855 16.1499 4.94214 14.5388C4.91573 13.403 4.99496 12.2673 5.23267 11.1315C5.39115 10.3127 5.60245 9.52034 5.76093 8.70155C6.07788 7.24884 6.89668 6.11309 8.11167 5.29429C8.7984 4.84528 9.59078 4.60756 10.3832 4.50191C11.2636 4.39626 12.144 4.30822 13.0244 4.23778C14.6884 4.15854 16.326 4.07931 17.99 4.00008C18.4655 3.97366 18.9673 3.94724 19.4428 3.97365C20.4464 4.05289 21.4237 3.92084 22.3746 3.73595C23.1669 3.57747 23.9329 3.55106 24.7253 3.55106C25.6233 3.55106 26.5214 3.44541 27.393 3.41899C28.9954 3.36617 30.5889 3.32215 32.1737 3.28693C32.834 3.26052 33.5207 3.31334 34.1811 3.28693C35.1583 3.26052 36.1356 3.18128 37.1129 3.12846C38.4071 3.07563 39.7013 3.04921 40.9692 2.96997C41.7615 2.91715 42.5275 2.78509 43.3199 2.73227C44.1387 2.70585 44.9839 2.70585 45.8027 2.67944C47.0177 2.62661 48.2062 2.54736 49.4212 2.52095C50.1344 2.49454 50.8475 2.54737 51.5871 2.54737C51.9569 2.54737 52.3266 2.52095 52.6964 2.52095C53.8057 2.49454 54.9151 2.49454 56.0244 2.44172C57.1866 2.4153 58.3751 2.30965 59.5637 2.25682C59.7222 1.80781 59.6165 1.38521 59.5637 0.989015C59.5109 0.619236 59.5901 0.355105 59.9335 0.143803C60.4089 -0.146738 60.8844 0.011739 61.0429 0.539994C61.1749 1.01542 61.2805 1.49085 61.3862 1.9927C63.8426 1.86063 66.2726 1.75498 68.729 1.64933C68.729 1.41162 68.7818 1.14749 68.7818 0.90978C68.7818 0.672065 68.9139 0.540007 69.1252 0.487182C69.2836 0.451965 69.4421 0.425539 69.6006 0.407931C69.988 0.390322 70.2169 0.575221 70.2873 0.962608C70.3401 1.27956 70.3666 1.62293 70.4194 1.93988C71.0533 1.99271 71.6344 2.01911 72.2947 2.04553C72.2683 1.7814 72.2683 1.57009 72.2418 1.33238C72.189 1.04184 72.3211 0.88337 72.5852 0.830544C72.8317 0.777719 73.0871 0.733698 73.3512 0.698481C73.8002 0.672068 74.0115 0.830548 74.0643 1.27956C74.0643 1.46445 74.0379 1.62293 74.0379 1.80782C74.0115 1.93988 73.9851 2.09835 73.9851 2.23042C73.9851 2.28324 74.0115 2.33607 74.0379 2.41531C74.6982 2.44172 75.1208 2.91715 75.517 3.36616C76.1509 4.10572 76.732 4.92452 77.2867 5.71691C77.7357 6.3244 77.8678 7.09037 77.9998 7.82993C78.0527 8.16449 78.1143 8.49025 78.1847 8.8072C78.713 8.86003 79.2148 8.91284 79.7167 8.99208C80.4034 9.09773 80.7468 9.52034 80.8524 10.1807C80.9053 10.7353 80.9581 11.3164 80.9845 11.8711C81.0373 13.6143 81.1166 15.3576 81.143 17.0744C81.1958 18.6063 81.1694 20.1119 81.2222 21.6438C81.275 23.0173 81.0901 24.3379 80.8524 25.685C80.7204 26.3981 80.3506 26.9792 79.6903 27.3225C79.3469 27.5074 78.9771 27.6659 78.5809 27.5603C78.4488 27.5339 78.3432 27.5603 78.1319 27.5603C78.1319 27.798 78.1055 28.0357 78.1055 28.247C78.1055 30.0166 78.1055 31.8127 78.1319 33.5824C78.1583 34.6125 78.2111 35.6426 78.264 36.6463C78.3432 38.1782 78.4224 39.6837 78.4488 41.2157C78.4753 42.3778 78.4488 43.5664 78.4488 44.755C78.4488 44.887 78.4753 45.0191 78.4753 45.204C79.2941 45.0455 80.06 45.1248 80.826 45.2304C81.1165 45.2832 81.3807 45.336 81.6712 45.3096C82.4108 45.204 82.8862 45.8643 82.9655 46.419C83.0711 47.2906 83.1767 48.1886 83.2031 49.0603C83.256 50.7507 83.2824 52.4675 83.3088 54.1579C83.3352 54.8711 83.1239 55.5578 82.8598 56.2181C82.7541 56.4558 82.5164 56.5879 82.2523 56.6407C81.3807 56.7728 80.509 56.9313 79.611 57.0369C79.2676 57.0897 78.9243 57.0369 78.4488 57.0369ZM1.79901 68.8698C1.82543 69.5037 1.95749 69.9263 2.45933 70.164C2.53857 70.1905 2.6178 70.2169 2.64421 70.2961C3.01399 70.9036 3.62149 71.247 4.17616 71.6432C4.59877 71.9601 5.12702 72.2243 5.62886 72.3299C6.7382 72.6204 7.87396 72.7525 9.00971 72.911C10.5945 73.1223 12.2056 73.043 13.7904 73.0694C15.3752 73.1223 16.9864 72.9374 18.5711 73.0694C18.9145 73.0959 19.2579 73.1487 19.6012 72.9638C19.7069 72.911 19.8653 72.9374 20.0238 72.9374C20.9483 72.9374 21.8727 72.9902 22.7972 72.9902C25.0158 72.9902 27.2609 72.9638 29.4796 72.9638C29.8494 72.9638 30.2192 73.0695 30.5361 72.7789C30.6154 72.6733 30.8266 72.7261 30.9851 72.6997C32.0768 72.6645 33.1598 72.6205 34.2339 72.5676C35.1319 72.5412 36.03 72.4884 36.9016 72.4884C37.9845 72.462 39.0674 72.4884 40.1503 72.4356C41.9992 72.3563 43.8481 72.2242 45.697 72.145C47.0177 72.0922 48.3383 72.0658 49.6589 72.0394C50.0023 72.0394 50.3721 72.0394 50.7154 72.0394C52.1417 72.0394 53.5416 72.0658 54.9679 72.0129C56.0508 71.9865 57.1073 71.8545 58.1903 71.7752C59.3524 71.6696 60.5146 71.5903 61.6767 71.4847C63.0766 71.379 64.4765 71.2206 65.8764 71.0885C66.748 71.0357 67.646 71.0093 68.5177 70.93C69.1516 70.8772 69.759 70.798 70.3665 70.6395C70.7363 70.5602 71.0533 70.3225 71.4495 70.5338C71.5023 70.5602 71.6079 70.5338 71.6872 70.5074C72.5852 70.0056 73.6153 69.8207 74.4869 69.1604C75.834 68.1831 76.6264 66.9945 76.8113 65.3833C76.9433 64.1155 77.0754 62.8741 77.1811 61.6063C77.2339 61.0253 77.2339 60.4442 77.2867 59.8367C77.3131 59.1499 77.3923 58.4632 77.3923 57.7765C77.4187 56.4558 77.3659 55.1352 77.3923 53.8146C77.4187 52.0977 77.5244 50.4073 77.5244 48.7169C77.5244 46.868 77.4716 45.0455 77.4188 43.1966C77.4188 43.1174 77.4187 43.0382 77.3923 42.9853C77.3395 42.1929 77.2339 41.4006 77.2075 40.6082C77.181 39.2875 77.2075 37.9405 77.1811 36.5934C77.1811 35.0615 77.2075 33.5031 77.1811 31.9712C77.1546 30.1487 77.0754 28.3526 77.0226 26.5302C76.9698 25.3152 76.8641 24.1266 76.8641 22.9116C76.8641 21.591 76.9433 20.2439 76.9433 18.8969C76.9433 17.541 76.8993 16.1764 76.8113 14.8029C76.732 13.5615 76.6 12.3465 76.4943 11.1051C76.4591 10.8058 76.4327 10.5152 76.4151 10.2335C76.3623 9.36186 75.9397 8.64872 75.5963 7.90916C75.3586 7.43373 75.0152 7.01113 74.4869 6.77342C73.5889 6.40364 72.638 6.21874 71.6872 6.08668C70.076 5.84896 68.4384 5.82256 66.8008 5.76974C66.3254 5.74332 65.85 5.79614 65.401 5.79614C64.1067 5.82255 62.8389 5.63766 61.5447 5.69048C59.009 5.79613 56.4734 5.87538 53.9378 5.66408C53.0926 5.58484 52.2738 5.58484 51.4286 5.58484C50.2488 5.60245 49.0691 5.63766 47.8893 5.69048C47.0441 5.74331 46.2253 5.84896 45.3801 5.87538C44.2971 5.9282 43.1878 5.87537 42.1313 5.95461C40.9163 6.03385 39.7277 6.19234 38.5392 6.29799C37.2978 6.40364 36.0828 6.53569 34.8678 6.61493C33.8377 6.66776 32.7812 6.72058 31.7511 6.74699C30.7474 6.79982 29.7701 6.85265 28.7928 6.85265C27.2345 6.79983 25.7026 6.9319 24.1178 7.09037C24.0914 7.3545 24.0386 7.59221 24.0121 7.82993C24.0121 8.49905 24.0209 9.16817 24.0385 9.83729C24.065 10.6561 24.0386 11.4749 24.1442 12.2673C24.3291 13.6671 24.3291 15.067 24.3027 16.4669C24.3027 17.6555 24.2763 18.8705 24.3027 20.059C24.3555 21.5117 24.514 22.938 24.5932 24.3907C24.6197 25.0775 24.5404 25.7906 24.514 26.5038C24.514 27.032 24.4876 27.5339 24.4876 28.0357C24.4876 28.1678 24.5404 28.2998 24.5668 28.4319C24.6989 28.4583 24.7781 28.4583 24.8838 28.4583C25.6762 28.4319 26.4685 28.379 27.2609 28.4055C27.7099 28.4055 28.0269 28.247 28.3438 27.93C28.5551 27.7451 28.8193 27.5603 29.0834 27.481C29.9286 27.1905 30.7738 26.9264 31.619 26.6622C32.2265 26.4773 32.8604 26.4245 33.4943 26.4245C33.9698 26.4509 34.4452 26.4509 34.9206 26.3981C36.5054 26.2132 38.0637 26.0019 39.6749 26.134C40.3352 26.1604 41.022 26.0547 41.6823 26.0547C43.3199 26.0019 44.9575 26.0019 46.5951 25.9755C46.6831 25.9579 46.7623 25.9491 46.8328 25.9491C47.4931 25.817 48.1534 25.817 48.8401 25.9755C49.6325 26.134 50.4513 26.266 51.2701 26.4509C52.6172 26.7943 53.7529 27.4546 54.4397 28.7224C55.232 30.1751 55.9188 31.6806 56.1565 33.3447C56.2093 33.7673 56.315 34.1899 56.3414 34.6389C56.3942 35.5897 56.447 36.5406 56.4998 37.5179C56.5527 38.7064 56.6319 39.8686 56.6319 41.0572C56.6583 41.9288 56.4734 42.7476 55.681 43.2759C55.6018 43.3287 55.549 43.4079 55.4962 43.4871C55.1792 43.8305 54.9415 44.2003 54.5981 44.5173C53.9114 45.1247 53.1454 45.5738 52.221 45.7587C51.8512 45.8115 51.4814 45.8643 51.1116 45.9171C50.3457 46.0756 49.6061 46.2605 48.8401 46.3661C47.6516 46.4982 46.4102 46.6039 45.1952 46.7095C43.3991 46.868 41.5766 47.0265 39.7541 47.1585C38.6184 47.2378 37.5091 47.2378 36.3733 47.2906C36.1092 47.317 35.8187 47.3963 35.5545 47.3963C34.3219 47.4139 33.0981 47.4227 31.8832 47.4227C31.4341 47.4227 30.9851 47.3698 30.5361 47.3698C29.9814 47.3434 29.4532 47.3699 28.9249 47.3434C28.4231 47.317 27.9212 47.2378 27.4194 47.2114C26.6006 47.1321 25.7818 47.0001 24.9366 47.0001C24.2763 47.0001 23.616 47.0001 22.9292 47.1585C23.0085 47.3434 23.0349 47.5283 23.1141 47.6868C23.2902 48.0742 23.4751 48.4616 23.6688 48.849C23.8537 49.2187 23.748 49.4036 23.3254 49.43C22.982 49.4564 22.6123 49.5093 22.2689 49.43C21.6086 49.298 20.9483 49.2715 20.2879 49.4036C20.0238 49.4564 19.7597 49.5093 19.4692 49.5357C17.3385 49.6413 15.2167 49.7558 13.1037 49.8791C12.8396 49.8791 12.5754 49.879 12.3905 49.5621C12.7075 48.8754 13.2357 48.2679 13.2886 47.4227C13.0773 47.4227 12.8395 47.4226 12.6547 47.4491C11.4661 47.6604 10.2775 47.8981 9.08893 48.0566C8.11166 48.1886 7.13439 48.2414 6.15712 48.3735C5.4968 48.4527 4.81007 48.2415 4.17616 48.6112C3.85921 48.7961 3.62151 48.9282 3.59509 49.3244C3.59509 49.4565 3.54225 49.5885 3.51584 49.7206C3.35737 50.5658 3.2253 51.3846 3.27812 52.2298C3.38377 53.3656 3.46302 54.5277 3.25171 55.6635C3.19889 55.954 3.27811 56.2445 3.30453 56.6143C3.56865 56.5087 3.72714 56.4294 3.91203 56.3766C4.28181 56.2445 4.65158 56.0596 5.02136 56.0068C6.31558 55.8747 7.58339 55.7691 8.85121 55.6635C9.4587 55.637 10.0398 55.5842 10.6209 55.6106C12.7339 55.6106 14.8205 55.637 16.9071 55.637C17.4354 55.637 17.9636 55.6106 18.4919 55.6106C19.7245 55.593 20.9571 55.593 22.1897 55.6106C22.6387 55.6106 23.1141 55.637 23.5895 55.6635C24.2763 55.6899 24.963 55.7955 25.6498 55.7955C26.7591 55.7955 27.8684 55.7163 28.9778 55.6635C29.4796 55.6635 30.0078 55.7691 30.5097 55.6899C31.4605 55.5314 32.385 55.637 33.3359 55.6899C35.3961 55.7955 37.4562 56.0068 39.5429 55.7427C39.6133 55.7427 39.6925 55.7427 39.7806 55.7427C41.2861 55.7163 42.818 55.7163 44.3236 55.6635C45.1952 55.6106 46.0668 55.5314 46.8856 55.1616C47.0441 55.0824 47.2025 55.0031 47.3874 55.0031C48.2591 55.0031 49.1043 54.7918 49.9495 54.6334C50.7683 54.4749 51.5342 54.1843 52.2738 53.8146C52.8549 53.524 53.436 53.1807 54.0435 52.8901C55.0207 52.4411 55.9716 51.9921 56.9489 51.5695C57.4243 51.3846 57.8469 51.1469 58.111 50.6978C58.2431 50.4865 58.428 50.3545 58.5865 50.1696C58.9298 50.3281 58.9826 50.4865 58.7713 50.7243C58.6129 50.8827 58.4016 50.9884 58.3487 51.1469C58.2167 51.543 57.8997 51.7015 57.6092 51.86C56.7112 52.3354 55.7867 52.7844 54.8623 53.2599C54.5189 53.4448 54.1755 53.6561 53.8322 53.8146C52.8813 54.2548 51.9304 54.695 50.9796 55.1352C50.8475 55.188 50.7154 55.2144 50.5834 55.2408C50.0287 55.3201 49.4477 55.4257 48.893 55.4785C48.2062 55.5842 47.5195 55.5842 46.8328 55.7427C44.9575 56.1653 43.0557 56.2445 41.154 56.2709C39.5957 56.2709 38.0373 56.5351 36.479 56.3502C35.5017 56.2445 34.498 56.2974 33.5207 56.2445C32.7284 56.2181 31.936 56.0596 31.17 56.1653C30.272 56.2709 29.3475 56.1917 28.4495 56.2445C27.842 56.2709 27.2345 56.1653 26.627 56.2181C25.4913 56.3238 24.3555 56.3238 23.2198 56.2445C22.1897 56.1917 21.1596 56.2181 20.1295 56.1917C19.0994 56.1917 18.0429 56.1125 17.0128 56.2445C16.5902 56.2797 16.1764 56.2973 15.7714 56.2973C14.3979 56.2973 13.0509 56.2709 11.6774 56.2973C9.98698 56.3238 8.29654 56.403 6.60612 56.5351C5.81374 56.5879 4.99497 56.72 4.25541 57.0105C3.14608 57.3803 2.53858 58.384 2.03673 59.3612C1.71978 59.9687 1.5613 60.6555 1.50848 61.3422C1.42924 62.3195 1.16511 63.2967 1.24435 64.3004C1.29718 64.8023 1.32358 65.3305 1.27076 65.8324C1.16511 66.6248 1.3236 67.3379 1.61414 67.9982C2.24804 68.1039 2.8291 68.2095 3.41018 68.2887C4.16735 68.3944 4.93334 68.4912 5.70811 68.5793C6.20996 68.6321 6.71178 68.6585 7.24004 68.7113C7.53058 68.7113 7.82113 68.7642 8.11167 68.7906C9.55557 68.8962 10.9906 68.9931 12.4169 69.0811C12.6811 69.0811 12.9716 69.0811 13.2358 69.1075C14.3451 69.2132 15.4808 69.3189 16.5902 69.3981C17.3033 69.4509 18.0164 69.4509 18.7296 69.4509C19.7333 69.4773 20.737 69.5037 21.7407 69.5037C23.0085 69.5037 24.2763 69.5037 25.5177 69.4773C25.8875 69.4773 26.2572 69.5565 26.6006 69.4773C28.2382 69.2132 29.9022 69.266 31.5398 69.134C32.0416 69.0811 32.517 69.1075 33.0189 69.1075C33.4415 69.1075 33.8377 69.1604 34.2603 69.134C35.3432 69.1076 36.4261 69.0283 37.5091 69.0283C38.8825 69.0547 40.2296 68.9226 41.5766 68.7113C42.1313 68.6321 42.686 68.5529 43.2406 68.5529C44.3764 68.6057 45.4593 68.368 46.5686 68.1303C47.678 67.919 48.7609 67.6548 49.8438 67.3907C50.7155 67.1794 51.5871 67.0209 52.4059 66.704C53.8057 66.2021 55.1 65.4626 56.0772 64.3004C56.2621 64.0891 56.447 63.9042 56.6583 63.7194C57.5035 62.9534 58.2431 62.0817 58.6657 61.0252C59.0883 59.9423 59.3788 58.7801 59.643 57.618C59.8279 56.7992 59.9071 55.954 59.9599 55.1088C60.0479 53.7705 60.092 52.4235 60.092 51.0676C60.092 49.9583 60.0127 48.8225 59.9599 47.7132C59.9335 46.5774 59.9071 45.4417 59.8543 44.3324C59.775 42.8797 59.6694 41.4534 59.5637 40.0271C59.5109 39.129 59.5373 38.2046 59.4316 37.3066C59.2468 35.5369 59.2732 33.7673 59.2204 31.9712C59.194 30.8883 59.2203 29.8054 58.9034 28.7488C58.8506 28.5375 58.8242 28.3262 58.7978 28.1149C58.7185 27.032 58.6393 25.9491 58.5865 24.8662C58.56 24.602 58.5072 24.2851 58.8506 24.0738C58.9034 24.153 58.9562 24.2323 58.9826 24.2851C59.3524 24.9718 59.2996 25.7114 59.326 26.4245C59.4053 27.4546 59.5373 28.4583 59.6958 29.4884C59.8807 30.7826 59.8543 32.1032 59.9335 33.4239C59.9863 34.5861 60.0127 35.7482 60.0656 36.9104C60.092 37.1745 60.1712 37.4386 60.1712 37.7292C60.224 38.7681 60.2769 39.807 60.3297 40.8459C60.3297 41.0572 60.3297 41.2421 60.3297 41.4534C60.3033 41.7703 60.2769 42.0873 60.3033 42.3778C60.3825 43.54 60.4618 44.6757 60.541 45.8115C60.5674 46.1549 60.5674 46.5246 60.5674 46.868C60.6466 48.4528 60.7259 50.0639 60.8051 51.6487C60.8051 52.2298 60.7787 52.8373 60.7259 53.4184C60.6731 54.2372 60.5674 55.0559 60.4618 55.8747C60.4618 55.9276 60.4618 55.9804 60.4618 56.0068C60.6466 56.5086 60.5146 56.9841 60.3825 57.4595C60.092 58.5953 59.7486 59.7046 59.4316 60.8139C59.2203 61.6063 58.8242 62.293 58.3223 62.9005C57.4771 63.8514 56.5263 64.723 55.6546 65.6475C55.6018 65.7003 55.5578 65.7443 55.5226 65.7795C53.9642 66.9153 52.1681 67.4964 50.3192 67.919C49.1043 68.2095 47.8893 68.4472 46.6743 68.7113C45.5386 68.9491 44.4028 69.1868 43.2142 69.1604C42.8973 69.1604 42.5803 69.1868 42.2634 69.2396C41.2068 69.3452 40.1767 69.5301 39.0938 69.6094C37.5883 69.6886 36.0828 69.715 34.5508 69.7678C33.283 69.7943 32.0416 69.7943 30.7738 69.8471C29.4796 69.8999 28.2118 70.0584 26.944 70.1112C26.0723 70.1641 25.2007 70.1112 24.3291 70.1376C23.0349 70.1376 21.7406 70.164 20.4464 70.164C19.8918 70.164 19.3371 70.1376 18.7824 70.1112C17.9636 70.1112 17.1448 70.1376 16.2996 70.0848C14.6884 70.0056 13.0509 69.8471 11.4133 69.7414C11.2196 69.7238 11.0259 69.7062 10.8322 69.6886C9.8637 69.6182 8.90406 69.5477 7.9532 69.4773C7.77711 69.4773 7.60103 69.4685 7.42494 69.4509C6.81745 69.3981 6.23635 69.266 5.65527 69.2924C4.73082 69.3188 3.85921 69.2396 2.96118 68.9755C2.61781 68.8698 2.24803 68.8963 1.79901 68.8698ZM18.7296 37.8612C19.3899 37.8348 20.0238 37.8084 20.6313 37.7556C21.1068 37.7028 21.2652 37.782 21.2916 38.231C21.3093 38.548 21.3093 38.8649 21.2916 39.1819C21.2652 39.3404 21.2124 39.5252 21.1331 39.6045C20.7634 39.9478 20.3936 40.2648 19.8125 40.1856C19.522 40.1591 19.205 40.1856 18.9145 40.1856C18.8617 41.2156 18.8353 42.1665 18.8088 43.1174C18.8088 43.6457 18.8616 44.1739 18.8881 44.7022C19.654 44.7022 20.3144 44.7022 20.9747 44.7022C21.318 44.7022 21.635 44.6229 21.9784 44.6229C23.0085 44.6493 24.065 44.7021 25.0951 44.755C25.3328 44.755 25.5705 44.7814 25.8082 44.7814C26.7591 44.6757 27.7099 44.5437 28.6872 44.6229C29.8494 44.7021 31.0115 44.8606 32.1737 44.7022C32.2529 44.7022 32.3322 44.7022 32.4114 44.7022C33.6264 44.7022 34.8414 44.755 36.0564 44.5173C36.3205 44.4644 36.611 44.4644 36.8752 44.4908C37.6676 44.5173 38.4599 44.6229 39.2523 44.6229C41.2597 44.5965 43.2935 44.5173 45.3273 44.5173C46.8856 44.5173 48.3911 44.3324 49.9231 44.0947C50.9532 43.9362 51.9568 43.6721 52.9605 43.4079C53.5416 43.2495 54.1227 42.9853 54.6509 42.7212C54.8622 42.5891 55.0471 42.325 55.1264 42.0609C55.2585 41.7175 55.3377 41.3213 55.3905 40.9251C55.4433 40.6874 55.5226 40.3969 55.4169 40.1856C55.232 39.8158 55.3641 39.4988 55.3641 39.129C55.3905 38.1254 55.4433 37.1217 55.3905 36.118C55.3377 35.1143 55.2584 34.0842 55.0735 33.0805C54.9151 32.1297 54.651 31.1788 54.334 30.2808C53.9906 29.2243 53.2511 28.4847 52.2738 27.93C51.8776 27.6923 51.455 27.5074 50.9532 27.481C50.0287 27.4282 49.1043 27.349 48.1798 27.2961C47.3874 27.2433 46.5686 27.2169 45.7763 27.1905C45.2216 27.1641 44.6669 27.1641 44.1387 27.1377C43.6633 27.1112 43.1878 27.0056 42.7124 27.0584C41.1276 27.1641 39.5429 27.3225 37.9581 27.4546C37.7996 27.481 37.6676 27.5074 37.5355 27.4546C37.1129 27.2961 36.6903 27.3754 36.2677 27.4282C35.1583 27.5603 34.0754 27.8244 32.9661 27.6659C32.2001 27.5603 31.5134 27.7451 30.8266 28.0093C30.5361 28.1149 30.2456 28.2206 29.955 28.3526C29.1626 28.7753 28.4495 29.2771 27.9212 30.0167C27.5779 30.5449 27.2609 31.0732 26.944 31.6278C26.4685 32.4202 25.9667 33.239 25.5177 34.0578C25.2007 34.7181 24.963 35.3785 24.3291 35.8539C24.0914 36.0388 23.8801 36.1972 23.5895 36.1972C22.85 36.1972 22.1104 36.1973 21.3973 36.2501C20.8162 36.3029 20.2615 36.4878 19.7069 36.4614C18.6768 36.4349 18.8088 36.7519 18.7296 37.4915C18.7296 37.5707 18.7296 37.6764 18.7296 37.8612ZM19.3107 7.16961C18.756 7.19602 18.3334 7.19602 17.8844 7.22244C17.1712 7.27526 16.4317 7.32808 15.7185 7.38091C14.979 7.43373 14.213 7.40732 13.4734 7.51297C12.4169 7.67145 11.3604 7.93558 10.3039 8.17329C9.4587 8.35818 8.6399 8.70155 7.92676 9.20339C7.10796 9.75806 6.7382 10.6297 6.42125 11.5277C5.84017 13.1653 5.68168 14.8557 5.78733 16.599C5.89298 18.2366 5.98982 19.8829 6.07787 21.5381C6.13069 22.7795 6.18354 23.9945 6.23637 25.2095C6.2892 26.6094 6.42126 28.0093 7.29288 29.145C7.79472 29.8318 8.03242 30.6241 8.42861 31.3637C8.95687 32.2617 9.4323 33.1862 9.98697 34.0578C10.5416 34.9558 11.4925 35.1143 12.4169 35.22C13.2357 35.2992 14.0545 35.2464 14.8997 35.2464C15.4016 35.2464 15.9298 35.22 16.4317 35.1936C17.0832 35.1583 17.7347 35.1319 18.3862 35.1143C18.5799 35.0967 18.7824 35.0879 18.9937 35.0879C18.9937 34.903 18.9937 34.8238 18.9937 34.7181C18.9673 33.7408 18.9145 32.7372 18.9145 31.7599C18.9409 31.2845 19.0201 30.7826 19.1786 30.3072C19.3899 29.6205 19.654 28.9073 20.5257 28.7224C20.4993 28.3791 20.4728 28.0621 20.4464 27.7451C19.9974 27.5338 20.1559 27.1641 20.1559 26.7943C20.1383 25.8258 20.1031 24.8662 20.0502 23.9153C19.971 22.2513 19.8389 20.5873 19.7333 18.9497C19.6805 18.1837 19.6276 17.4178 19.6012 16.6518C19.566 15.8418 19.5396 15.0318 19.522 14.2218C19.522 13.6143 19.5748 13.0068 19.5748 12.3993C19.5484 11.6334 19.4956 10.8938 19.4692 10.1542C19.4163 9.17698 19.3635 8.22612 19.3107 7.16961ZM59.6694 3.07563C59.3788 3.07563 59.1411 3.07563 58.9298 3.07563C58.7185 3.07563 58.4984 3.07563 58.2695 3.07563C56.2886 3.12846 54.3076 3.20769 52.3266 3.2341C51.6663 3.26051 51.006 3.18127 50.3721 3.18127C49.1571 3.20768 47.9685 3.28692 46.7535 3.31333C46.3309 3.33975 45.9083 3.36617 45.4593 3.39259C44.6669 3.419 43.8481 3.419 43.0557 3.47182C42.3162 3.49823 41.5502 3.60388 40.8106 3.63029C39.7013 3.68312 38.5656 3.73594 37.4562 3.76236C35.9507 3.84159 34.4716 3.92083 32.9661 3.97365C32.6491 3.97365 32.3322 3.89442 32.0152 3.89442C30.8266 3.94724 29.6117 3.97366 28.4231 4.02648C27.9829 4.04409 27.5515 4.0617 27.1289 4.07931C26.1252 4.13214 25.1215 4.15854 24.1178 4.23778C23.3782 4.26419 22.6387 4.2642 21.9255 4.42267C21.2124 4.55474 20.5521 4.6868 19.8125 4.55474C19.7069 4.52833 19.6012 4.55474 19.4692 4.55474C18.5711 4.60756 17.6731 4.66039 16.7486 4.6868C15.6921 4.71321 14.6356 4.71322 13.5527 4.71322C12.5226 4.73964 11.5189 5.03018 10.4624 5.10942C9.32666 5.18865 8.34938 5.79614 7.58341 6.64135C6.89668 7.38091 6.60612 8.30535 6.34199 9.25621C6.26276 9.46751 6.23636 9.70522 6.15712 10.0486C6.92309 8.96567 7.55699 8.43741 8.42861 8.06763C9.41469 7.62742 10.4448 7.32809 11.5189 7.16961C12.3377 7.06396 13.1301 6.87907 13.9225 6.77342C14.7677 6.69418 15.6657 6.72059 16.5109 6.64135C18.0428 6.50929 19.5748 6.43005 21.1067 6.43005C22.7443 6.40364 24.3555 6.27156 25.9667 6.21874C26.7591 6.19233 27.5779 6.24515 28.3702 6.21874C29.3211 6.21874 30.2455 6.16592 31.17 6.1395C31.3549 6.11309 31.5398 6.06028 31.7247 6.03386C31.7511 5.82256 31.8039 5.69049 31.8039 5.53201C31.8303 5.37354 31.8303 5.24148 31.8303 5.10942C31.8831 4.6604 31.9888 4.55475 32.4378 4.4491C32.6227 4.42268 32.8076 4.42267 32.9661 4.36985C33.5472 4.13213 34.049 4.36985 34.5508 4.55474C34.815 4.66039 34.947 4.84528 34.9998 5.13582C35.0527 5.39995 35.1319 5.63766 35.2112 5.87538C36.0035 5.82255 36.7431 5.79614 37.4562 5.74331C39.939 5.55842 42.4218 5.37353 44.9046 5.21506C46.0668 5.13582 47.229 5.13582 48.3911 5.03016C50.2664 4.84528 52.1682 4.81886 54.0435 5.03016C55.4698 5.18864 56.896 5.16223 58.3223 5.16223C59.8543 5.16223 61.3862 5.08299 62.9182 5.08299C63.9747 5.08299 65.0312 5.16224 66.0613 5.18865C66.4575 5.18865 66.8537 5.10941 67.2499 5.13582C68.5441 5.21506 69.8383 5.32071 71.1325 5.45278C71.8721 5.5056 72.5852 5.55842 73.2984 5.69048C74.2492 5.87537 75.1473 6.16592 75.9132 6.72059C76.2038 6.93189 76.4943 7.1432 76.6792 7.43374C76.9433 7.82993 77.0754 8.30535 77.2603 8.72795C77.3131 8.80719 77.3659 8.88644 77.4188 8.96567C77.4452 8.30535 77.3659 7.64503 77.2339 7.01112C77.0754 6.45645 76.7849 5.95462 76.3623 5.50561C75.834 4.92453 75.385 4.26421 74.8831 3.65671C74.6718 3.44541 74.4341 3.23411 74.0907 3.20769C74.0643 3.47182 74.0379 3.68313 74.0115 3.92084C73.6065 4.00888 73.2191 4.09693 72.8493 4.18497C72.3475 4.31703 72.2418 4.23778 72.2418 3.70953C72.2418 3.41899 72.2418 3.12845 72.2418 2.83791C71.6344 2.65302 71.1061 2.49454 70.5515 2.78508C70.4986 3.13725 70.4458 3.4454 70.393 3.70953C70.3137 3.76235 70.2873 3.78878 70.2345 3.78878C70.0056 3.8416 69.7767 3.89442 69.5478 3.94725C69.1516 4.0529 68.9139 3.89443 68.861 3.47182C68.8082 3.15487 68.7818 2.83791 68.729 2.49455C67.514 2.38889 66.3254 2.38889 65.1104 2.52095C63.869 2.65302 62.6276 2.44172 61.3598 2.75867C61.3862 2.96998 61.4126 3.12845 61.439 3.31333C61.4919 3.68311 61.3598 3.92083 60.99 3.89442C60.6731 3.86801 60.4882 4.02649 60.3033 4.21138C59.6166 4.07931 59.9071 3.419 59.6694 3.07563ZM21.186 28.5111C22.084 28.3262 22.9821 28.5904 23.8273 28.2998C23.8273 28.1413 23.8537 28.0357 23.8537 27.9036C23.8537 26.8471 23.8449 25.7906 23.8273 24.7341C23.8273 23.9945 23.8273 23.255 23.8009 22.489C23.7744 21.1155 23.6424 19.7421 23.6688 18.3422C23.7216 14.8029 23.6424 11.2636 23.5367 7.69786C23.5367 7.48656 23.4839 7.30167 23.4575 7.11678C22.401 7.11678 21.4501 7.11678 20.3936 7.11678C20.4728 7.40732 20.5521 7.5922 20.6049 7.80351C20.6313 7.90916 20.7105 8.01482 20.7105 8.14688C20.7105 8.49025 20.6841 8.83361 20.7105 9.17697C20.7634 11.6862 20.8955 14.1954 20.8955 16.7046C20.9219 18.4214 20.9483 20.1119 21.0539 21.8287C21.1244 23.0965 21.186 24.3555 21.2388 25.6057C21.2652 26.134 21.3445 26.6886 21.2124 27.1905C21.1332 27.6131 21.1332 28.0093 21.186 28.5111ZM53.885 44.1739C53.1454 44.2796 52.3794 44.3852 51.6399 44.5173C50.9796 44.6229 50.3192 44.7814 49.6589 44.887C49.2099 44.9399 48.7345 44.8606 48.3119 44.9927C47.2818 45.2304 46.2517 45.204 45.1952 45.2568C43.8746 45.3361 42.5275 45.2832 41.1804 45.3096C40.3088 45.3096 39.4108 45.3625 38.5392 45.2832C37.0072 45.1512 35.5281 45.3625 33.9962 45.4153C33.5472 45.4417 33.0982 45.4153 32.6491 45.4153C31.8303 45.4417 31.0115 45.4945 30.1663 45.4945C29.6645 45.4945 29.1626 45.3625 28.6344 45.3625C27.9476 45.3625 27.2345 45.4681 26.5214 45.4681C25.6497 45.4945 24.7517 45.4417 23.8801 45.4153C22.5066 45.4153 21.1331 45.4153 19.6804 45.4153C19.7333 45.7851 19.7597 46.0756 19.8125 46.3133C20.1295 46.3397 20.3672 46.3397 20.5785 46.3926C21.4237 46.5774 22.2689 46.551 23.1141 46.3661C23.2462 46.3133 23.4047 46.3397 23.5631 46.3397C23.8449 46.3397 24.1266 46.3485 24.4083 46.3661C25.1215 46.3926 25.8346 46.3926 26.5742 46.4454C27.4458 46.5246 28.291 46.6567 29.1626 46.7095C29.9814 46.7624 30.8002 46.7359 31.6454 46.7359C32.5435 46.7623 33.4415 46.8416 34.3395 46.8152C35.1583 46.7888 35.9507 46.6567 36.7695 46.6039C37.5355 46.5775 38.3014 46.6039 39.0674 46.5775C39.6485 46.551 40.2296 46.419 40.8106 46.3926C42.1841 46.2869 43.584 46.2341 44.9575 46.1549C45.9876 46.0756 47.0441 46.0492 48.0742 45.9171C48.7081 45.8379 49.342 45.6266 49.9759 45.4945C50.7683 45.3361 51.5871 45.204 52.4059 45.0191C52.9869 44.9135 53.4095 44.4909 53.885 44.1739ZM19.6276 35.2464C20.8954 35.1407 22.1104 35.352 23.3254 35.0351C23.616 34.9822 23.8273 34.8502 23.9857 34.6125C24.2763 34.0842 24.6196 33.6088 24.9366 33.1069C25.2271 32.6579 25.5177 32.2353 25.7818 31.7599C26.0195 31.3373 26.2044 30.8883 26.4157 30.4392C26.5213 30.2279 26.5742 30.0167 26.7063 29.8054C26.8647 29.5148 27.0496 29.2243 27.2609 28.9073C26.2572 28.9601 25.3328 29.013 24.3819 29.0658C24.3291 29.2507 24.2763 29.4091 24.2499 29.594C24.1706 30.0431 23.8537 30.3072 23.4311 30.4128C22.9292 30.5449 22.4274 30.5977 21.9255 30.677C21.8199 30.2808 21.8727 30.2015 22.2161 30.1487C22.5066 30.0959 22.7972 30.0695 23.0877 29.9902C23.3782 29.911 23.5631 29.7261 23.6688 29.4356C23.7744 29.1186 23.6952 28.9601 23.3254 28.9865C22.9028 28.9865 22.5066 28.9601 22.084 28.9865C21.8199 28.9865 21.5558 29.0394 21.3181 29.0658C21.2388 29.4356 21.4237 29.6469 21.5822 29.8582C21.7671 30.0959 21.635 30.3864 21.3445 30.4128C21.0803 30.4128 20.9218 30.3072 20.8426 30.0695C20.7546 29.8406 20.6753 29.6029 20.6049 29.3563C20.1559 29.462 20.1295 29.4884 19.971 29.8318C19.4163 31.0732 19.4956 32.3674 19.4163 33.6616C19.3899 34.137 19.5484 34.6389 19.6276 35.2464ZM78.4224 46.0756C78.396 47.3434 78.3432 48.532 78.396 49.747C78.4489 51.1205 78.6602 52.4675 78.6338 53.841C78.6338 54.1315 78.6602 54.422 78.7394 54.6862C78.7922 54.9503 78.8979 55.2144 79.2412 55.2408C79.7959 55.3201 80.9317 54.7654 81.2486 54.3164C81.6184 53.7881 81.6976 53.1806 81.724 52.5731C81.8033 51.1469 82.0146 49.747 81.8297 48.3207C81.7769 47.9861 81.7416 47.634 81.724 47.2642C81.724 46.6039 81.4335 46.1813 80.7468 46.0756C80.0072 45.9436 79.2676 45.9436 78.4224 46.0756ZM78.9771 25.0246C79.5582 24.7341 79.6902 24.2323 79.7695 23.7568C79.9544 22.6475 80.1129 21.4853 80.1129 20.3496C80.1393 18.9233 80.0072 17.497 79.928 16.0707C79.9016 15.4632 79.8487 14.8821 79.8751 14.2746C79.8751 13.1389 79.9544 12.0296 79.928 10.8674C79.9016 10.1014 79.0828 9.28262 78.264 9.70523C77.9734 10.6033 78.0527 11.5277 78.0527 12.4522C78.0262 13.5087 78.1319 14.5652 78.1319 15.6217C78.1319 17.18 78.396 18.6856 78.5809 20.1911C78.6337 20.6929 78.6866 21.1684 78.7394 21.6702C78.7922 22.6211 78.8186 23.5983 78.8715 24.5492C78.8715 24.6813 78.9243 24.8133 78.9771 25.0246ZM16.1412 45.3625C15.877 45.3361 15.6393 45.3096 15.3752 45.3096C14.4595 45.3096 13.5351 45.3184 12.6018 45.336C12.1264 45.3625 11.6246 45.3625 11.1227 45.4153C10.1983 45.5209 9.30024 45.6794 8.3758 45.7322C7.26646 45.8379 6.18354 46.0492 5.20627 46.5511C4.70442 46.8152 4.25541 47.1585 4.12335 47.7924C4.70443 47.766 5.25907 47.7396 5.81374 47.7132C6.73819 47.634 7.63623 47.5283 8.56067 47.4491C9.74925 47.3962 10.9114 47.2378 12.0736 46.9208C12.1792 46.8856 12.2937 46.868 12.4169 46.868C13.2357 46.8152 14.0545 46.8152 14.8469 46.5246C15.2167 46.3926 15.6129 46.3926 16.0091 46.3397C16.0619 46.0228 16.0883 45.7058 16.1412 45.3625ZM3.27812 48.1094C3.2429 48.0918 3.20768 48.0742 3.17246 48.0566C2.6178 48.532 2.14239 49.0602 2.01033 49.8262C1.9575 49.9847 1.93106 50.1432 1.85182 50.2752C1.48205 50.9092 1.32359 51.5959 1.24435 52.2826C1.08587 53.7617 0.742515 55.2144 0.821753 56.6935C0.874578 57.75 0.821753 58.8066 0.821753 59.8631C0.874578 59.8807 0.9186 59.8895 0.953817 59.8895C1.08588 59.6518 1.19151 59.4141 1.32357 59.1763C1.42922 58.9386 1.53488 58.7009 1.69335 58.4896C1.93107 58.1462 2.19521 57.8029 2.43293 57.4331C2.53858 57.301 2.59139 57.1161 2.6178 56.9577C2.67063 56.2181 2.72345 55.505 2.74987 54.7654C2.77628 54.2636 2.82911 53.7617 2.72346 53.2599C2.45933 51.8072 2.64421 50.4073 3.01399 49.0074C3.09323 48.6905 3.19888 48.3999 3.27812 48.1094ZM20.0766 46.8152C20.0502 46.868 20.0238 46.8944 20.0238 46.8944C20.0062 47.0529 19.9974 47.2114 19.9974 47.3698C19.9974 47.8717 19.9446 47.9509 19.4163 48.0038C18.5359 48.0918 17.6555 48.1622 16.775 48.215C16.4053 48.2679 16.2732 48.1094 16.2468 47.7132C16.2204 47.5019 16.2204 47.317 16.194 47.1057C16.0091 47.0529 15.8242 46.9737 15.6657 46.9737C15.0582 47.0001 14.4243 47.0529 14.0545 47.5547C13.7112 48.0302 13.5527 48.6112 13.2622 49.2451C13.6848 49.2451 14.0017 49.2716 14.2923 49.2451C15.5601 49.1659 16.8279 49.0867 18.0957 49.0074C18.9409 48.9282 19.7597 48.8225 20.6049 48.7697C21.2916 48.7433 22.0312 48.4792 22.6915 48.9546C22.8236 49.0603 22.982 48.9018 22.9292 48.7169C22.85 48.3999 22.7179 48.083 22.5858 47.766C22.401 47.2906 22.1369 47.0001 21.5558 47.0001C21.0539 47.0265 20.5521 46.8944 20.0766 46.8152ZM17.2505 36.4614C17.2241 37.0689 17.1448 37.5971 17.1712 38.1254C17.1976 38.6536 17.3033 39.1555 17.2769 39.6837C17.2505 41.1628 17.3561 42.6155 17.3561 44.0682C17.3561 44.3588 17.5674 44.4908 17.6995 44.6493C17.7787 44.755 17.99 44.7814 18.2013 44.8606C18.2013 42.0081 18.2013 39.2611 18.2013 36.4614C17.9372 36.4614 17.6467 36.4614 17.2505 36.4614ZM19.2578 46.4718C19.1786 46.1284 19.0994 45.7851 18.9937 45.4417C18.7824 45.4681 18.5711 45.5738 18.4391 45.521C17.99 45.3625 17.5938 45.5474 17.1712 45.521C16.8807 45.4945 16.7486 45.6002 16.7222 45.8643C16.7222 46.0492 16.7222 46.2077 16.7222 46.4718C17.5938 46.4718 18.3862 46.4718 19.2578 46.4718ZM18.7824 39.4988C19.1786 39.5517 19.522 39.5781 19.8389 39.6045C20.1031 39.6045 20.3144 39.5781 20.3672 39.2347C20.3672 39.1026 20.4993 38.9706 20.6313 38.8914C20.7898 38.7857 20.8426 38.6272 20.737 38.4952C20.6841 38.3895 20.5257 38.3367 20.42 38.3103C20.1295 38.2838 19.8389 38.2838 19.5484 38.3103C19.2843 38.3367 19.0466 38.4423 18.7824 38.4952C18.7824 38.7065 18.7824 38.8649 18.7824 39.0234C18.7824 39.1555 18.7824 39.2875 18.7824 39.4988ZM34.366 5.98103C34.366 5.82256 34.3924 5.71691 34.3924 5.63767C34.4188 5.13583 34.3395 4.95093 33.8641 4.87169C33.5736 4.81887 33.2566 4.87169 32.9661 4.95093C32.3058 5.10941 32.2265 5.37354 32.5435 5.98103C33.1246 5.98103 33.7056 5.98103 34.366 5.98103ZM72.8758 1.33238C72.9286 1.70216 72.8758 2.04553 72.9814 2.41531C73.0871 2.75868 72.8758 3.18128 72.8229 3.55106C72.7965 3.57747 72.8493 3.60388 72.9022 3.70953C73.0606 3.67431 73.2456 3.6391 73.4569 3.60388C73.404 2.78509 73.5625 1.9927 73.4833 1.17391C73.3248 1.20032 73.2456 1.20032 73.1927 1.22674C73.0871 1.25315 73.0078 1.27955 72.8758 1.33238ZM60.4353 3.47182C60.9636 2.96998 60.8844 1.27956 60.3033 0.487182C60.2505 0.724897 60.1976 0.883367 60.224 1.04184C60.3033 1.83423 60.2769 2.62661 60.4353 3.47182ZM19.2314 47.317C18.4919 46.7623 17.6995 47.0001 16.8807 47.0793C16.9071 47.2642 16.9335 47.3962 16.9599 47.5547C17.7523 47.4755 18.5183 47.7132 19.2314 47.317ZM69.4157 3.39259C69.7855 3.47182 69.944 3.31333 69.9175 3.04921C69.8911 2.38889 69.8383 1.72857 69.7855 1.06825C69.7591 1.01542 69.7062 0.962612 69.5742 0.751309C69.4949 0.909786 69.4157 0.989011 69.4157 1.06825C69.4157 1.86063 69.4157 2.62662 69.4157 3.39259ZM14.7677 38.0197C14.7853 38.0902 14.8029 38.1518 14.8205 38.2046C15.3488 38.2838 15.877 38.231 16.4053 38.099C16.4581 38.0726 16.5638 37.8612 16.5373 37.7556C16.5109 37.6499 16.3524 37.5179 16.2468 37.5179C15.877 37.5443 15.5072 37.5971 15.1375 37.7028C14.979 37.7292 14.8733 37.9141 14.7677 38.0197ZM79.9015 56.1389C79.4789 56.0596 79.0564 56.0068 78.5281 55.954C78.9771 56.403 79.4525 56.1917 79.9015 56.1389ZM81.9618 55.7427C81.997 55.7603 82.0322 55.7867 82.0674 55.8219C82.1202 55.7339 82.1819 55.637 82.2523 55.5314C82.2171 55.5138 82.1907 55.4962 82.1731 55.4785C82.1026 55.5666 82.0322 55.6546 81.9618 55.7427Z" fill="#101828"/>
<path id="&#60;Compound Path&#62;_2" fill-rule="evenodd" clip-rule="evenodd" d="M75.8869 34.8239C76.0453 34.8415 76.1862 34.8679 76.3094 34.9031C75.702 35.3257 75.1209 35.7219 74.4077 35.7747C73.6946 35.8275 73.0079 35.854 72.2947 35.8804C71.2118 35.9332 70.1289 35.9596 69.0459 36.0124C68.1831 36.0653 67.3203 36.1533 66.4575 36.2766C65.3746 36.4086 64.2652 36.4879 63.1559 36.303C62.7861 36.2237 62.3899 36.1973 61.9937 36.1445C61.4919 36.0653 61.2806 35.854 61.2806 35.3521C61.263 34.0667 61.2542 32.7813 61.2542 31.4958C61.2542 31.2581 61.2278 31.0468 61.2542 30.8091C61.2542 30.7299 61.3334 30.677 61.3334 30.7035C61.9673 30.6506 62.522 30.6242 63.0767 30.5714C63.6401 30.5362 64.2124 30.501 64.7935 30.4658C66.616 30.3337 68.4385 30.2809 70.2874 30.3601C70.8948 30.3601 71.5288 30.2544 72.1627 30.228C73.3512 30.1224 74.5662 30.0432 75.7812 29.9375C76.0189 30.228 76.0981 30.5714 76.0717 30.9676C76.0189 32.0065 75.9749 33.0454 75.9397 34.0843C75.9132 34.322 75.9133 34.5597 75.8869 34.8239ZM66.8537 30.9412C66.8537 32.4995 66.8537 34.0051 66.8537 35.537C67.1442 35.537 67.3555 35.5634 67.5668 35.537C67.9894 35.4842 68.0687 35.3785 68.0158 34.9559C67.9894 34.771 67.9102 34.5069 68.0158 34.4013C68.2007 34.1635 68.1479 33.9258 68.1743 33.6617C68.2096 33.0806 68.2359 32.4907 68.2536 31.892C68.2536 31.6015 68.2536 31.311 68.2536 30.9412C67.7253 30.9412 67.2763 30.9412 66.8537 30.9412ZM65.1633 30.9412C65.0576 32.2618 64.9784 33.5032 64.8991 34.7446C64.8991 35.088 64.9256 35.4313 64.9256 35.8275C65.401 35.7747 65.7972 35.7219 66.2462 35.6691C66.1141 34.0843 66.4047 32.5788 66.1141 30.994C65.7708 30.9676 65.4802 30.9676 65.1633 30.9412ZM69.9704 35.3521C70.1289 33.8466 70.2081 32.4203 69.944 30.9676C69.5742 30.9676 69.2836 30.9676 68.9403 30.9676C68.5441 32.4203 68.8082 33.8994 68.7026 35.4313C69.0988 35.4049 69.495 35.3785 69.9704 35.3521ZM74.038 35.1144C74.5398 35.1144 75.0152 35.0352 75.5699 34.8767C75.2265 34.5861 75.2529 34.2692 75.2793 33.9522C75.3322 33.0366 75.385 32.1121 75.4378 31.1789C75.4378 30.994 75.4114 30.7827 75.385 30.5714C74.9888 30.6242 74.6455 30.677 74.3021 30.7035C74.17 32.1562 73.8267 33.5825 74.038 35.1144ZM70.6571 30.9412C70.6571 32.3939 70.6571 33.8466 70.6571 35.3257C71.0005 35.3257 71.291 35.3257 71.5816 35.3257C71.7929 35.3257 71.8985 35.1936 71.9249 34.9823C71.9249 34.2956 71.9778 33.6089 71.9513 32.9221C71.9249 32.2618 71.8457 31.6015 71.7929 30.9412C71.3967 30.9412 71.0533 30.9412 70.6571 30.9412ZM62.9446 31.2053C62.073 31.1525 61.8881 31.2317 61.8617 31.9977C61.8353 33.0542 61.8881 34.1107 61.9145 35.1672C61.9145 35.2729 61.9673 35.4049 61.9937 35.537C62.2579 35.537 62.4956 35.537 62.7333 35.537C62.9974 34.0843 63.0238 32.658 62.9446 31.2053ZM73.272 35.1936C73.2456 33.7409 73.6682 32.3146 73.6154 30.8355C73.2192 30.6242 72.8758 30.7035 72.4532 30.8884C72.506 32.3323 72.55 33.7674 72.5853 35.1936C72.823 35.1936 73.0079 35.1936 73.272 35.1936ZM64.5822 31.0204C64.1596 31.0468 63.8426 31.0997 63.5521 31.1261C63.5521 31.9449 63.5521 32.6844 63.5521 33.4504C63.5257 34.19 63.4993 34.9295 63.4728 35.7219C63.737 35.7219 63.9483 35.7483 64.2124 35.7747C64.3181 34.1899 64.4501 32.658 64.5822 31.0204Z" fill="#101828"/>
<path id="&#60;Compound Path&#62;_3" fill-rule="evenodd" clip-rule="evenodd" d="M63.1559 46.1816C63.1823 45.0723 63.4728 44.2271 63.9747 43.4083C64.4501 42.6423 65.0576 42.0084 65.9028 41.6651C66.2197 41.533 66.4839 41.2953 66.8008 41.1896C67.9366 40.8727 69.0459 40.9519 70.0496 41.6915C70.4458 41.982 70.842 42.2461 71.1853 42.6159C71.9513 43.3819 72.2419 44.3063 72.189 45.3364C72.1362 46.0232 72.0306 46.7363 71.7928 47.3702C71.4231 48.3475 70.7099 49.0871 69.6798 49.4568C68.5441 49.853 67.4083 49.853 66.2726 49.4832C66.0084 49.3776 65.7179 49.3248 65.4274 49.2455C64.0803 48.8757 63.0766 47.4495 63.1559 46.1816ZM64.0011 45.6534C64.0275 46.4194 64.5029 47.2117 65.401 47.5287C65.9292 47.74 66.4839 47.8457 67.0385 48.0041C67.1706 48.0305 67.3027 48.0305 67.4347 48.0041C67.8926 47.9337 68.3416 47.8545 68.7818 47.7664C69.3364 47.6872 69.8647 47.5551 70.1024 46.9476C70.1288 46.8948 70.1817 46.842 70.2081 46.8156C70.6571 46.3665 70.842 45.8119 71.0005 45.2572C71.0533 44.9931 71.1061 44.7025 71.0797 44.4384C70.9476 43.4611 70.3401 42.7744 69.5213 42.3254C69.178 42.1141 68.7025 42.0084 68.2799 42.0348C67.6724 42.0876 67.0386 42.2197 66.4575 42.4046C65.7972 42.5895 65.2425 42.9329 64.8199 43.5404C64.3973 44.2007 64.1067 44.861 64.0011 45.6534ZM67.6196 48.8229C68.3063 49.0606 69.31 48.8229 70.076 48.2683C69.2572 48.4532 68.4648 48.6116 67.6196 48.8229ZM70.8684 47.5023C70.4194 47.7664 70.4194 47.7664 70.3401 48.1626C70.5162 47.9513 70.6923 47.7312 70.8684 47.5023Z" fill="#101828"/>
<path id="&#60;Compound Path&#62;_4" fill-rule="evenodd" clip-rule="evenodd" d="M65.7971 18.3689C64.4765 18.3689 63.6049 17.9198 62.7861 17.2859C62.1786 16.7841 61.888 16.0974 61.6767 15.3578C61.4126 14.3805 61.5447 13.4033 61.888 12.4524C62.1522 11.7657 62.6012 11.1582 63.1294 10.6299C63.147 10.6123 63.1647 10.5947 63.1823 10.5771C63.8954 9.75829 64.8199 9.52058 65.85 9.57341C66.4574 9.59982 67.0649 9.57341 67.6724 9.57341C68.9138 9.57341 69.8119 10.1545 70.4986 11.1582C70.7891 11.6072 71.1061 12.0562 71.2382 12.6109C71.5815 14.0372 71.1061 15.2522 70.2873 16.3615C69.8383 16.9426 69.3629 17.4708 68.7025 17.7614C68.4384 17.867 68.1743 17.9198 67.9102 17.9991C67.7253 18.0519 67.514 18.0519 67.3291 18.1311C66.7744 18.4217 66.1405 18.316 65.7971 18.3689ZM66.7216 10.313C66.7216 10.2954 66.7216 10.2866 66.7216 10.2866C66.4046 10.2866 66.0877 10.2601 65.7707 10.2866C64.8727 10.313 64.0539 10.4979 63.4728 11.2638C63.2967 11.4751 63.1382 11.6952 62.9974 11.9241C62.2842 12.9807 62.1257 14.1428 62.4691 15.3578C62.5748 15.7276 62.8917 16.203 63.2087 16.3351C64.4765 16.9162 65.8235 17.1275 67.1442 16.4407C67.5492 16.2294 67.9366 16.0005 68.3064 15.754C68.5177 15.5955 68.729 15.4106 68.861 15.1729C69.5477 13.9843 69.5213 12.7429 69.2572 11.4487C69.1251 10.7884 68.8082 10.4186 67.8837 10.313C67.5139 10.2865 67.0914 10.313 66.7216 10.313ZM70.0496 12.1619C70.0496 12.6637 70.076 13.192 70.0232 13.6938C69.9704 14.5918 69.7855 15.4635 69.0195 16.071C68.5705 16.4143 68.0158 16.6784 67.514 16.969C67.2763 17.101 67.0385 17.2067 66.7744 17.3388C66.8801 17.418 66.9065 17.4444 66.9329 17.4444C67.8837 17.2859 68.8082 17.0482 69.4685 16.2294C70.208 15.305 70.6835 14.3013 70.5514 13.0599C70.525 12.7165 70.393 12.3996 70.0496 12.1619Z" fill="#101828"/>
<path id="&#60;Path&#62;" d="M56.9224 24.5754C56.9224 25.0245 56.764 25.1829 56.2885 25.2093C55.8131 25.2358 55.3377 25.2358 54.8622 25.2093C53.9906 25.1829 53.1454 25.1301 52.2738 25.1037C50.8475 25.0773 49.4212 25.0773 48.0213 25.0509C47.7836 25.0509 47.5723 25.0245 47.361 25.0245C46.7799 24.9716 46.2252 24.9452 45.6706 25.1301C45.4329 25.2094 45.1952 25.2093 44.9574 25.2093C44.0066 25.2886 43.0293 25.3678 42.0784 25.3942C41.0748 25.4471 40.0975 25.4471 39.1202 25.4735C38.0637 25.4999 36.9808 25.5263 35.9243 25.5527C34.8942 25.5791 33.8905 25.5527 32.8604 25.7904C32.5434 25.8433 32.2001 25.8168 31.8831 25.8168C30.4832 25.8432 29.1362 26.081 27.7627 26.213C27.525 26.2394 27.2609 26.2395 27.0232 26.2395C26.9175 26.2395 26.8119 26.1866 26.759 26.1338C26.6798 26.0281 26.5742 25.8697 26.6006 25.7904C26.627 25.7112 26.8119 25.6319 26.9439 25.6319C27.2345 25.6055 27.525 25.6848 27.8156 25.6584C28.9249 25.5527 30.0342 25.3942 31.17 25.2886C31.4869 25.2358 31.8039 25.2622 32.1208 25.2358C32.5435 25.2093 32.966 25.2093 33.3886 25.1565C34.4452 24.998 35.4753 25.0509 36.5054 25.0509C37.6147 25.0245 38.6976 24.9452 39.807 24.9188C40.256 24.8924 40.6786 24.8924 41.1012 24.866C42.052 24.8308 43.0029 24.7867 43.9537 24.7339C45.0631 24.6811 46.1724 24.6019 47.3082 24.549C48.1006 24.5226 48.8929 24.549 49.6589 24.5754C51.4286 24.6018 53.1718 24.6811 54.9415 24.6811C55.4169 24.7075 55.9188 24.6018 56.4206 24.5754C56.5791 24.5754 56.7639 24.5754 56.9224 24.5754Z" fill="#101828"/>
<path id="&#60;Compound Path&#62;_5" fill-rule="evenodd" clip-rule="evenodd" d="M32.2266 10.736C32.253 11.8718 32.1209 12.9811 32.2794 14.0905C32.385 14.9093 32.385 15.728 32.4115 16.5733C32.4115 16.943 32.2794 17.1015 31.9096 17.1807C31.1436 17.3392 30.3777 17.5241 29.5853 17.4185C28.6608 17.3128 27.7364 17.5505 26.8119 17.6298C26.178 17.709 26.046 17.6298 26.0724 16.9694C26.0988 15.5696 26.1516 14.1961 26.1516 12.8226C26.1516 12.4264 26.046 12.0567 25.9931 11.6605C25.9667 11.4756 25.9403 11.2643 25.9931 11.0794C26.046 10.9473 26.2573 10.7889 26.3893 10.8153C26.8648 10.8945 27.3138 10.7096 27.7628 10.6304C28.2647 10.5776 28.7665 10.4719 29.2947 10.4455C29.9286 10.3927 30.5714 10.3575 31.2229 10.3398C31.8304 10.3398 31.8304 10.3663 32.2266 10.736ZM26.7591 17.0751C27.1553 17.0487 27.4987 17.0487 27.842 17.0223C28.4759 16.943 29.0834 16.8374 29.7173 16.8902C30.2456 16.943 30.8003 16.8902 31.3285 16.811C31.7776 16.7846 31.8304 16.7053 31.8568 16.2563C31.8832 15.728 31.9096 15.147 31.8304 14.6187C31.7247 13.8792 31.6983 13.166 31.7511 12.4264C31.7776 11.9246 31.7511 11.4228 31.7511 10.9473C30.8267 10.736 29.9815 10.8153 29.1363 10.9209C28.2911 11.0266 27.4723 11.2379 26.6799 11.3964C26.7063 13.3245 26.495 15.1734 26.7591 17.0751Z" fill="#101828"/>
<path id="&#60;Compound Path&#62;_6" fill-rule="evenodd" clip-rule="evenodd" d="M31.4869 12.8217C31.4605 13.1123 31.4077 13.3764 31.3813 13.6405C31.3548 13.9047 31.4077 14.1424 31.3813 14.4065C31.3284 14.8819 31.3284 14.9348 30.8266 14.9612C30.0606 15.0404 29.2946 15.0668 28.5287 15.0932C28.2381 15.1197 27.9212 15.0932 27.525 15.0932C27.4722 14.5386 27.3665 13.9839 27.3401 13.4292C27.3401 13.1123 27.5778 12.901 27.8948 12.8482C28.1237 12.8129 28.3438 12.8041 28.5551 12.8217C29.4267 12.8481 30.2719 12.901 31.1435 12.7689C31.2492 12.7425 31.3548 12.7953 31.4869 12.8217ZM30.6945 13.35C29.9286 13.35 29.189 13.35 28.4758 13.35C28.3438 13.35 28.1325 13.4292 28.1061 13.4821C28.0797 13.799 28.0532 14.116 28.1061 14.4065C28.1325 14.6706 28.423 14.5914 28.6079 14.5914C29.277 14.5738 29.955 14.5474 30.6417 14.5122C30.7209 14.5122 30.7738 14.4329 30.853 14.3801C30.8002 14.0367 30.7474 13.7198 30.6945 13.35Z" fill="#101828"/>
</g>
</svg>
