<svg width="161" height="215" viewBox="0 0 161 215" fill="none" xmlns="http://www.w3.org/2000/svg">
<g id="&#60;Group&#62;" opacity="0.5">
<path id="&#60;Compound Path&#62;" fill-rule="evenodd" clip-rule="evenodd" d="M106.925 86.7709C106.925 86.7709 106.935 86.7887 106.957 86.7755C108.28 86.4479 109.603 86.1203 110.942 85.6646C112.194 85.2615 113.458 84.8275 114.686 84.274C115.621 83.8734 116.555 83.5213 117.5 83.1383C117.662 83.0642 117.823 82.9901 117.963 82.9291C118.286 82.7809 118.59 82.5973 118.899 82.5285C119.314 82.4427 119.702 82.2551 120.1 82.0853C120.455 81.9417 120.841 81.8027 121.195 81.6591C121.646 81.4807 122.127 81.3556 122.57 81.1109C123.001 80.8971 123.409 80.745 123.848 80.5975C124.835 80.2369 125.829 79.9426 126.794 79.5951C127.47 79.3519 128.131 79.1881 128.8 79.0906C130.361 78.8792 131.94 78.4913 133.489 78.3108C134.093 78.2526 134.716 78.2299 135.309 78.2026C135.741 78.2008 136.141 78.243 136.562 78.2721C136.994 78.2703 137.449 78.2554 137.88 78.3022C138.216 78.3351 138.538 78.4475 138.872 78.5291C139.31 78.6583 139.751 78.7935 140.195 78.9346C140.299 78.9662 140.36 79.024 140.452 79.0864C141.049 79.4345 141.646 79.7827 142.232 80.1617C142.569 80.4066 142.907 80.6516 143.167 80.9668C143.538 81.4284 143.831 81.9602 144.168 82.4658C144.515 82.9891 144.787 83.5341 144.938 84.1754C144.949 84.2638 144.973 84.3435 145.012 84.4144C145.091 84.5562 145.222 84.6895 145.279 84.8444C145.53 85.6145 145.579 86.4363 145.702 87.2366C145.72 87.3206 145.735 87.4532 145.776 87.4755C145.955 87.4854 145.908 87.6088 145.882 87.7191C145.814 88.0676 145.756 88.4339 145.656 88.7778C145.517 89.3982 145.377 90.0187 145.238 90.6391C145.214 90.7008 145.188 90.8111 145.133 90.8682C144.861 91.0565 144.766 91.3032 144.576 91.5362C143.737 92.6353 142.805 93.672 141.669 94.5485C141.157 94.9296 140.662 95.3948 140.088 95.7182C139.329 96.1773 138.602 96.6411 137.834 97.0825C137.412 97.314 136.949 97.5232 136.518 97.737C135.86 98.0643 135.262 98.4493 134.565 98.7057C133.687 99.0007 132.824 99.4283 131.918 99.6216C131.407 99.7421 130.873 99.8758 130.328 100.04C129.375 100.357 128.396 100.523 127.418 100.69C126.78 100.792 126.113 100.841 125.456 100.907C124.545 100.986 123.628 101.21 122.733 101.16C122.092 101.099 121.413 101.179 120.758 101.197C120.032 101.21 119.307 101.223 118.582 101.236C118.403 101.227 118.224 101.217 118.035 101.189C117.752 101.148 117.471 101.057 117.154 101.06C116.501 101.029 115.893 100.924 115.217 100.955C115.16 100.958 115.1 100.955 115.038 100.945C114.339 100.832 113.633 100.723 112.92 100.619C112.039 100.49 111.17 100.33 110.267 100.214C109.732 100.136 109.205 100.124 108.649 100.059C108.186 100.007 107.7 100.017 107.25 99.9352C106.727 99.826 106.192 99.7477 105.618 99.859C105.455 99.8787 105.292 99.8983 105.13 99.9179C104.153 100.036 103.189 100.123 102.214 100.452C101.722 100.608 101.22 100.747 100.716 100.933C99.9006 101.238 99.0874 101.493 98.2972 101.948C98.037 102.105 97.7671 102.245 97.4874 102.367C96.7979 102.69 96.1203 102.981 95.4308 103.304C95.3126 103.352 95.2042 103.418 95.0861 103.465C94.6546 103.679 94.2112 103.924 93.7819 104.089C92.8076 104.489 91.834 104.874 90.861 105.242C90.2072 105.472 89.536 105.618 88.9115 105.901C88.1906 106.219 87.4759 106.392 86.7809 106.599C85.9676 106.855 85.1663 107.08 84.3713 107.159C84.0427 107.192 83.714 107.226 83.3875 107.21C83.065 107.185 82.7392 107.153 82.4101 107.116C82.1682 107.097 81.922 107.175 81.7031 107.355C81.5395 107.477 81.3758 107.6 81.2024 107.705C80.2961 108.159 79.48 108.724 78.6324 109.284C78.045 109.687 77.4792 110.076 76.8625 110.426C75.682 111.117 74.5211 111.843 73.3407 112.533C72.5169 113.032 71.7225 113.584 70.8715 113.98C70.6882 114.068 70.5267 114.142 70.3435 114.229C70.0736 114.369 69.8036 114.508 69.5239 114.63C68.8051 114.9 68.1254 115.24 67.4631 115.665C67.3764 115.717 67.2969 115.765 67.2247 115.809C66.1624 116.452 65.1001 117.095 64.0379 117.737C63.1057 118.301 62.1931 118.901 61.2609 119.465C60.1889 120.09 59.1287 120.684 58.0686 121.279C56.6084 122.091 55.1798 122.909 53.7196 123.721C52.6595 124.316 51.5798 124.874 50.4881 125.464C49.2191 126.169 47.9501 126.874 46.6811 127.579C45.4345 128.254 44.1872 128.946 42.9392 129.654C42.1746 130.085 41.4093 130.532 40.6433 130.996C40.1566 131.267 39.6993 131.591 39.2342 131.849C38.1958 132.43 37.1692 132.98 36.1524 133.548C35.0489 134.168 33.9258 134.754 32.8321 135.392C31.5867 136.122 30.3042 136.732 29.0098 137.374C27.3923 138.163 25.7749 138.953 24.1791 139.729C23.3812 140.118 22.605 140.493 21.8092 140.833C21.1197 141.155 20.4344 141.381 19.7352 141.686C19.2625 141.877 18.766 142.13 18.2911 142.37C17.5898 142.724 16.8884 143.077 16.187 143.431C15.7772 143.631 15.3772 143.85 14.9814 143.971C14.6171 144.097 14.2723 144.258 13.9059 144.433C13.6143 144.586 13.3325 144.756 13.0409 144.909C12.5129 145.157 11.948 145.287 11.4591 145.606C11.3941 145.645 11.3095 145.649 11.2249 145.653C11.0687 145.685 10.9021 145.715 10.7249 145.743C10.5753 145.786 10.4473 145.816 10.2977 145.86C10.0537 145.889 9.77818 145.914 9.50268 145.939C8.61119 146.052 7.92535 145.805 7.49833 145.189C7.39071 144.994 7.28307 144.799 7.20692 144.608C7.13076 144.418 7.11963 144.188 7.03158 144.029C6.89461 143.781 6.95832 143.529 7.09683 143.256C7.3284 142.785 7.6935 142.399 8.02712 142.007C8.416 141.559 8.80488 141.111 9.2231 140.716C10.0043 139.983 10.8268 139.273 11.6178 138.558C12.1682 138.035 12.6969 137.526 13.2669 137.039C13.5312 136.785 13.825 136.583 14.0774 136.36C14.8215 135.752 15.5729 135.139 16.3315 134.523C16.3604 134.505 16.386 134.482 16.4084 134.453C17.0294 134.006 17.6721 133.546 18.2518 133.077C19.2575 132.279 20.3023 131.552 21.3352 130.856C22.2262 130.27 23.1247 129.75 24.0038 129.194C24.3507 128.984 24.6996 128.726 25.0367 128.498C25.4388 128.231 25.8193 127.977 26.2214 127.71C26.7654 127.334 27.378 127.081 27.8221 126.576C27.8557 126.532 27.9305 126.51 27.9956 126.471C28.6361 126.06 29.2767 125.649 29.8956 125.25C30.8201 124.62 31.7349 123.972 32.6789 123.377C33.7097 122.729 34.7601 122.117 35.8007 121.488C36.7256 120.928 37.6499 120.384 38.5734 119.857C39.4503 119.35 40.3154 118.874 41.1706 118.38C42.2387 117.765 43.293 117.143 44.3336 116.513C44.984 116.12 45.5637 115.651 46.2239 115.275C47.284 114.681 48.2931 114.046 49.312 113.43C49.6589 113.22 49.9841 113.023 50.2995 112.808C50.5163 112.677 50.682 112.506 50.8988 112.375C51.7779 111.819 52.6569 111.264 53.5457 110.726C54.5213 110.135 55.4402 109.39 56.4549 108.871C56.7682 108.705 57.0325 108.45 57.3144 108.28C58.1479 107.799 58.9326 107.229 59.8053 106.82C60.7549 106.339 61.6871 105.775 62.6389 105.247C63.4508 104.779 64.2746 104.281 65.0864 103.813C65.4622 103.585 65.8419 103.348 66.2256 103.1C66.811 102.746 67.3767 102.356 67.962 102.002C68.5257 101.661 69.1208 101.324 69.6844 100.983C70.118 100.721 70.5201 100.454 70.9537 100.191C71.5488 99.8549 72.0733 99.4429 72.6782 99.1242C73.823 98.526 74.9481 97.8924 76.0831 97.2765C76.5579 97.0365 77.0544 96.7833 77.5509 96.5302C77.9292 96.3249 78.288 96.0841 78.6859 95.9143C79.267 95.6572 79.7481 95.2715 80.2216 94.8194C80.7793 94.2928 81.4003 93.8461 82.0846 93.4792C82.5714 93.2083 83.0798 92.9243 83.5881 92.6403C83.6532 92.601 83.7084 92.5439 83.7714 92.5531C84.035 92.5591 84.2539 92.3793 84.4804 92.2659C84.9 92.0829 85.2902 91.8468 85.7119 91.6153C85.6727 91.5443 85.6532 91.5089 85.6455 91.4426C85.6539 91.2483 85.5897 91.0271 85.6611 90.842C85.7248 90.5906 85.8731 90.3353 86.0311 90.0978C86.2466 89.7546 86.4935 89.416 86.7306 89.0597C87.1139 88.4966 87.4973 87.9336 87.912 87.3752C88.1373 87.0497 88.4254 86.7334 88.6821 86.4126C89.241 85.696 89.7782 84.9926 90.3685 84.2806C90.6923 83.8718 91.0672 83.5031 91.4127 83.0812C91.9478 82.4263 92.4514 81.7669 92.9865 81.112C93.2313 80.822 93.5075 80.5366 93.774 80.2334C94.1412 79.7984 94.4888 79.3279 94.8875 78.8974C95.2526 78.511 95.6708 78.116 96.0457 77.7473C96.3245 77.484 96.5961 77.225 96.8605 76.9704C97.0696 76.773 97.3199 76.5978 97.5291 76.4003C98.0459 75.922 98.5313 75.4391 99.0383 74.9431C99.4869 74.4982 99.9459 74.0549 100.415 73.6132C100.999 73.0469 101.595 72.4499 102.221 71.906C103.173 71.1167 104.167 70.3498 105.149 69.6138C106.174 68.8515 107.187 68.12 108.222 67.3754C109.509 66.4233 110.796 65.4712 112.083 64.5191C112.509 64.1904 112.934 63.8618 113.392 63.5377C114.328 62.8764 115.306 62.2375 116.274 61.5809C116.524 61.4057 116.774 61.2306 117.025 61.0554C117.776 60.53 118.517 59.9868 119.268 59.4613C119.627 59.2206 120.005 59.0153 120.374 58.7923C121.535 58.0661 122.674 57.3531 123.854 56.6624C124.645 56.2079 125.442 55.8196 126.252 55.4005C126.77 55.1343 127.31 54.8549 127.84 54.5577C128.349 54.2737 128.867 54.0075 129.422 53.8607C130.03 53.7053 130.641 53.5015 131.249 53.3462C131.513 53.2653 131.783 53.1963 132.06 53.1391C132.732 52.993 133.434 52.8515 134.092 52.5243C134.136 52.498 134.186 52.4836 134.242 52.481C134.645 52.426 135.061 52.3402 135.452 52.3161C136.066 52.2757 136.668 52.2661 137.27 52.2565C137.618 52.2586 138 52.2168 138.346 52.2675C139.196 52.3919 140.055 52.534 140.902 52.707C141.718 52.8754 142.398 53.2682 142.979 53.7444C143.528 54.2159 143.989 54.7885 144.461 55.3302C144.712 55.6277 144.908 55.9822 145.115 56.3059C145.194 56.4477 145.337 56.5502 145.394 56.7051C145.62 57.3249 145.825 57.9577 146.029 58.5906C146.106 58.781 146.225 58.9451 146.248 59.144C146.372 59.9443 146.592 60.7097 146.481 61.5571C146.473 61.5777 146.476 61.5997 146.489 61.6234C146.67 62.0573 146.533 62.5424 146.48 63.0235C146.446 63.328 146.443 63.6372 146.387 63.9549C146.381 64.1006 146.353 64.2594 146.293 64.4137C146.186 64.6913 146.079 64.9689 145.931 65.2242C145.804 65.4663 145.668 65.6908 145.51 65.9283C145.251 66.2978 144.961 66.6626 144.702 67.032C144.433 67.3838 144.226 67.7933 143.937 68.1095C143.438 68.6718 142.929 69.2164 142.369 69.721C141.785 70.2872 141.16 70.8311 140.452 71.3303C139.983 71.6852 139.503 72.0224 138.995 72.3064C138.361 72.6588 137.726 73.0113 137.092 73.3637C136.54 73.674 135.969 73.9487 135.417 74.259C134.79 74.5909 134.142 74.9358 133.525 75.2854C132.637 75.8071 131.72 76.2756 130.773 76.6909C130.03 77.0221 129.278 77.3355 128.515 77.6313C128.214 77.7663 127.883 77.8482 127.56 77.9965C126.958 78.2666 126.396 78.5591 125.793 78.8293C125.244 79.091 124.692 79.4012 124.123 79.6275C122.846 80.0923 121.617 80.6943 120.37 81.2124C119.198 81.7088 117.995 82.2005 116.791 82.6923C115.781 83.1146 114.78 83.5546 113.75 83.9415C112.12 84.5499 110.538 85.247 108.948 85.8778C108.529 86.0607 108.09 86.2082 107.682 86.3603C107.417 86.4736 107.151 86.5868 106.886 86.7C106.899 86.7237 106.912 86.7473 106.925 86.7709ZM108.504 87.1162C108.738 87.0852 108.972 87.0381 109.207 86.9747C109.762 86.8279 110.317 86.6811 110.863 86.5166C110.969 86.4996 111.056 86.4471 111.162 86.4301C111.483 86.3305 111.806 86.1823 112.125 86.1312C112.731 86.0245 113.31 85.816 113.879 85.5898C114.212 85.4593 114.535 85.3111 114.844 85.2423C115.206 85.165 115.48 84.9281 115.804 84.7799C115.477 84.7647 115.142 84.9437 114.831 85.0611C114.672 84.826 114.684 84.7952 114.93 84.7172C115.198 84.6261 115.454 84.5658 115.722 84.4747C116.492 84.2453 117.273 83.985 118.034 83.7379C118.463 83.5726 118.871 83.4205 119.29 83.2376C120.021 82.9372 120.742 82.6192 121.451 82.332C122.117 82.071 122.792 81.8278 123.45 81.5005C123.828 81.2952 124.222 81.2226 124.598 81.0658C125.546 80.6343 126.546 80.4549 127.511 80.1074C127.853 79.9947 128.174 79.895 128.523 79.8972C128.723 79.894 128.969 79.816 129.204 79.7688C129.587 79.6946 129.974 79.6101 130.365 79.5153C130.493 79.4851 130.611 79.4373 130.729 79.3894C130.694 79.2213 130.59 79.1898 130.431 79.2153C130.254 79.2437 130.066 79.2705 129.868 79.2958C129.443 79.3639 128.998 79.3965 128.561 79.4955C128.039 79.5983 127.526 79.7674 127.002 79.9188C126.567 80.0398 126.136 80.1668 125.708 80.2996C125.515 80.3691 125.354 80.4432 125.182 80.4996C124.753 80.6648 124.322 80.8786 123.894 80.9953C123.105 81.1893 122.38 81.6044 121.608 81.8824C121.113 82.087 120.587 82.287 120.093 82.4916C119.77 82.6398 119.478 82.7926 119.155 82.9408C118.647 83.2248 118.111 83.4071 117.566 83.5716C116.55 83.879 115.559 84.3367 114.57 84.7459C113.83 85.0285 113.099 85.3288 112.349 85.5937C111.866 85.7674 111.386 85.8926 110.893 86.0486C110.423 86.1915 109.94 86.3652 109.491 86.495C108.915 86.6549 108.338 86.8149 107.782 86.9616C107.377 87.0652 106.95 87.1818 106.544 87.2854C105.682 87.4524 104.842 87.6063 103.979 87.7733C103.351 87.8931 102.724 88.013 102.086 88.1151C101.417 88.2126 100.745 88.3587 100.102 88.346C99.447 88.3641 98.766 88.4924 98.1066 88.6077C97.3626 88.7268 96.6208 88.7974 95.8649 88.9474C94.8 89.1662 93.7588 89.3233 92.7092 89.6747C91.9492 89.9218 91.1499 90.098 90.38 90.3274C90.0276 90.4225 89.6948 90.5529 89.3207 90.6611C87.8872 91.1029 86.4461 91.4784 85.0922 92.274C84.6055 92.5449 84.1188 92.8158 83.6244 93.0204C82.8286 93.3601 82.1838 93.8685 81.5586 94.4124C81.3614 94.579 81.1641 94.7457 80.9571 94.8946C80.2613 95.363 79.8011 95.9962 79.3094 96.6248C79.1751 96.8007 79.031 96.9588 78.8163 97.0414C78.7296 97.0939 78.6527 97.1641 78.6072 97.2389C78.1448 97.9207 77.7552 98.6294 77.4795 99.3875C77.3605 99.6959 77.2828 100.027 77.2485 100.331C77.2274 100.817 77.2496 101.277 77.26 101.767C77.3036 102.544 77.5408 103.236 77.9718 103.843C78.1403 104.095 78.3185 104.366 78.4967 104.637C78.7043 104.96 79.0993 105.1 79.4173 105.309C79.7159 105.483 79.9927 105.67 80.3129 105.831C80.5918 105.97 80.8805 106.126 81.193 106.221C82.0795 106.465 83.0297 106.457 84.0037 106.388C84.4387 106.338 84.8715 106.336 85.2945 106.317C85.4105 106.317 85.4951 106.313 85.6014 106.296C86.3272 106.109 87.057 105.912 87.7908 105.705C88.0998 105.636 88.4306 105.554 88.7201 105.45C89.3974 105.245 90.0682 105.028 90.7325 104.799C91.536 104.526 92.3352 104.35 93.0799 103.97C93.403 103.822 93.7333 103.669 94.0708 103.512C94.0578 103.489 94.0447 103.465 94.0317 103.441C93.6457 103.58 93.2478 103.75 92.8303 103.885C92.4227 104.037 92.0269 104.158 91.5227 104.345C91.8143 104.192 92.0094 104.074 92.2458 103.978C93.2269 103.503 94.2646 103.182 95.2087 102.587C95.4471 102.443 95.715 102.352 95.9632 102.225C96.9205 101.811 97.8995 101.384 98.8666 100.988C99.4358 100.762 100.017 100.505 100.609 100.478C100.747 100.465 100.887 100.404 101.027 100.343C101.972 99.9605 102.943 99.7279 103.919 99.6102C104.247 99.5769 104.578 99.4949 104.897 99.4439C105.735 99.3386 106.576 99.1847 107.38 99.1233C108.386 99.0588 109.363 99.153 110.295 99.3221C110.651 99.3906 111.015 99.5253 111.458 99.2806C111.533 99.259 111.625 99.3214 111.7 99.2998C111.785 99.2959 111.871 99.2434 111.968 99.2086C111.677 99.1009 111.42 98.9491 111.072 98.947C110.015 98.9715 108.961 98.9474 107.885 98.9365C107.462 98.9398 107.037 98.9372 106.608 98.9287C106.545 98.9195 106.449 98.9542 106.429 98.9188C106.2 98.6082 105.761 98.7557 105.436 98.6919C105.247 98.6642 105.035 98.6983 104.858 98.6398C104.284 98.4905 103.658 98.5618 103.042 98.6508C102.519 98.7153 101.994 98.7961 101.47 98.893C100.714 99.043 99.9613 99.3564 99.2208 99.639C98.7264 99.8436 98.2124 100.013 97.7062 100.248C97.0936 100.501 96.4517 100.7 95.8545 101.085C95.7992 101.142 95.681 101.19 95.6691 101.221C95.625 101.508 95.3929 101.506 95.1782 101.589C94.9754 101.641 94.7488 101.754 94.5656 101.841C93.6377 102.308 92.7293 102.811 91.86 103.384C91.5013 103.625 91.1034 103.795 90.7544 104.053C91.0005 103.975 91.2565 103.915 91.483 103.801C92.2907 103.431 93.0788 103.025 93.8984 102.623C94.8697 102.13 95.8095 101.632 96.8004 101.175C97.4368 100.86 98.1004 100.648 98.7542 100.418C98.9472 100.348 99.1479 100.345 99.3604 100.311C99.4522 100.303 99.548 100.284 99.6478 100.256C99.7974 100.212 99.9471 100.169 100.104 100.192C99.9114 100.262 99.7065 100.362 99.5037 100.414C98.7674 100.599 98.0465 100.917 97.3451 101.271C96.4887 101.71 95.6323 102.15 94.7759 102.589C94.1283 102.918 93.4847 103.236 92.8451 103.545C91.992 103.99 91.0899 104.347 90.19 104.655C89.7411 104.784 89.29 104.963 88.839 105.141C88.7642 105.163 88.7208 105.189 88.6677 105.198C87.6028 105.416 86.5098 105.794 85.4504 106.128C85.3106 106.189 85.2162 106.175 85.2009 106.042C85.4142 105.747 85.782 105.785 86.0736 105.632C86.375 105.497 86.6742 105.411 86.9952 105.311C86.9582 105.192 86.8302 105.222 86.7239 105.239C86.3932 105.321 86.0624 105.403 85.7415 105.502C85.1646 105.662 84.6353 105.699 84.1004 105.62C83.8488 105.583 83.5397 105.652 83.2565 105.611C82.8573 105.569 82.4819 105.465 82.0945 105.392C81.4143 105.259 80.9473 104.833 80.4013 104.524C80.0008 104.27 79.6121 103.985 79.2885 103.661C78.9138 103.296 78.5413 102.883 78.2435 102.449C78.0457 102.143 78.0214 101.732 78.1229 101.339C78.1518 101.322 78.1839 101.31 78.2194 101.304C78.2487 101.358 78.2781 101.411 78.276 101.459C78.3228 101.597 78.3577 101.765 78.3514 101.91C78.3701 102.206 78.4442 102.445 78.6917 102.579C78.7231 102.584 78.7644 102.606 78.7839 102.642C79.0894 103.143 79.6689 103.407 80.138 103.785C80.3616 103.981 80.5926 104.172 80.8307 104.359C81.396 104.79 82.0594 105.066 82.821 105.188C83.0609 105.256 83.3363 105.231 83.6216 105.224C83.9265 105.253 84.253 105.268 84.5697 105.265C84.9081 105.25 85.2682 105.221 85.6087 105.157C86.28 105.011 86.9296 104.878 87.5813 104.696C88.4043 104.458 89.2273 104.22 90.021 103.929C90.472 103.751 90.8979 103.422 91.3413 103.178C91.5581 103.046 91.7748 102.915 91.9721 102.749C91.3896 102.794 90.8162 103.117 90.2142 103.127C90.2311 102.738 90.2794 102.354 90.4753 101.975C89.9291 102.4 89.8387 103.023 89.4065 103.497C89.273 103.412 89.352 103.294 89.4094 103.188C89.6172 102.778 89.8152 102.351 90.0761 101.933C90.337 101.515 90.6294 101.102 90.9218 100.688C91.0917 100.42 91.2401 100.165 91.4198 99.914C91.7674 99.4435 92.1563 98.9953 92.5137 98.5426C92.725 98.2965 92.9264 98.0327 93.0649 97.7597C93.4525 97.0995 93.9637 96.5064 94.424 95.8731C94.5247 95.7413 94.6059 95.5739 94.6968 95.4243C94.9458 95.0371 95.1876 94.6543 95.4222 94.2759C95.5803 94.0383 95.7286 93.7831 95.9062 93.581C96.1608 93.3087 96.2168 92.991 96.4812 92.7364C96.7239 92.495 96.947 92.2181 97.1799 91.9589C97.3457 91.7876 97.5017 91.5987 97.6891 91.4143C98.2966 90.8732 98.9146 90.3337 99.5431 89.7957C99.6634 89.6993 99.8249 89.6252 100.02 89.5071C99.4635 89.4419 98.9601 89.3682 98.4678 89.5242C98.0818 89.6632 97.6924 89.6387 97.2749 89.7731C96.8889 89.9121 96.4736 89.9979 96.082 90.022C95.0647 90.1174 94.0508 90.3763 93.0607 90.5734C91.9209 90.8138 90.8007 91.0897 89.6806 91.3656C88.6569 91.6067 87.6681 92.0158 86.6968 92.509C85.9737 92.8757 85.2409 93.2246 84.5059 93.622C84.1276 93.8273 83.7884 94.1035 83.4177 94.3751C83.0839 94.6086 82.7639 94.8496 82.4575 95.0981C81.8127 95.6065 81.1463 96.128 80.5113 96.6542C80.314 96.8208 80.1874 97.063 80.0098 97.2651C79.8834 97.4204 79.7328 97.5667 79.558 97.704C79.6021 97.4172 79.8014 97.202 79.9693 96.9822C80.1155 96.7755 80.3344 96.5957 80.5239 96.3628C80.8813 95.91 81.3897 95.626 81.8275 95.2665C82.3087 94.8807 82.7898 94.495 83.2591 94.14C83.7967 93.7517 84.3473 93.387 84.9109 93.0459C85.3662 92.7704 85.8291 92.5612 86.3039 92.3211C87.1235 91.9198 87.943 91.5184 88.7975 91.2851C89.6422 91.0341 90.4652 90.7961 91.3078 90.5937C92.2371 90.3387 93.1643 90.1324 94.1034 89.8951C94.6861 89.7632 95.2727 89.6211 95.8634 89.4686C96.1941 89.3867 96.5053 89.2693 96.8046 89.1828C97.0073 89.131 97.2297 89.1147 97.4422 89.0807C97.9205 89.0041 98.3988 88.9275 98.877 88.8509C99.7469 88.7502 100.605 88.6803 101.465 88.5619C102.081 88.4729 102.683 88.4633 103.284 88.2417C103.616 88.1112 103.981 87.9853 104.323 87.8726C104.569 87.7946 104.804 87.7474 105.053 87.8328C105.208 87.9045 105.498 87.8002 105.732 87.753C106.159 87.6364 106.577 87.502 107.014 87.4031C107.185 87.3467 107.364 87.3566 107.524 87.3311C107.395 87.3774 107.259 87.4281 107.116 87.4832C107.123 87.495 107.125 87.5171 107.124 87.5495C107.305 87.5109 107.486 87.4722 107.667 87.4336C107.667 87.4336 107.703 87.341 107.715 87.3102C107.975 87.1527 108.229 87.141 108.504 87.1162ZM111.968 99.2086C111.968 99.2086 111.971 99.2146 111.978 99.2264C111.978 99.2264 111.974 99.2205 111.968 99.2086ZM112.178 99.2232C112.122 99.2258 112.055 99.2268 111.978 99.2264C112.017 99.2973 112.068 99.3373 112.178 99.2232ZM108.892 87.6619C107.695 88.0079 106.488 88.3363 105.312 88.6692C104.907 88.7727 104.531 88.9295 104.157 89.0376C103.387 89.267 102.629 89.4656 101.9 89.7173C101.601 89.8038 101.319 89.9744 101.047 90.1627C99.8308 90.9459 98.6658 91.7692 97.5692 92.7165C97.3384 92.9271 97.1369 93.1909 96.9474 93.4239C96.5921 93.8281 96.2563 94.2677 95.901 94.6719C95.3443 95.3399 94.7778 95.9901 94.2427 96.645C93.8636 97.1109 93.4314 97.5853 93.1564 98.0827C92.8815 98.5802 92.4318 98.9705 92.2003 99.4417C92.1191 99.6091 91.9555 99.7317 91.8624 99.9299C91.9636 99.8687 92.0647 99.8075 92.1659 99.7463C91.6517 100.649 91.0551 101.506 90.6647 102.476C91.2233 102.492 91.7309 102.469 92.2372 102.233C92.9365 101.928 93.6379 101.575 94.3372 101.27C94.7784 101.074 95.2511 100.883 95.6924 100.686C95.9504 100.578 96.1889 100.433 96.4469 100.324C97.286 99.9585 98.1154 99.5749 98.9643 99.2267C99.502 98.9959 100.069 98.8182 100.636 98.6406C101.138 98.5023 101.67 98.4172 102.182 98.2966C103.034 98.1119 103.839 98.0505 104.687 97.9629C104.899 97.9289 105.132 97.9303 105.342 97.9449C105.847 97.97 106.353 97.9952 106.859 98.0203C107.091 98.0217 107.313 98.0054 107.523 98.02C107.913 98.0444 108.257 98.1437 108.648 98.1196C109.589 98.0944 110.446 98.2851 111.341 98.3347C112.478 98.4035 113.603 98.5031 114.752 98.541C115.542 98.559 116.319 98.6565 117.076 98.7185C117.381 98.7469 117.698 98.7444 117.993 98.755C118.373 98.7618 118.752 98.7685 119.132 98.7752C119.342 98.7897 119.553 98.8043 119.763 98.8188C119.858 98.8326 119.976 98.7848 120.08 98.8163C120.29 98.8309 120.515 98.766 120.699 98.8908C120.864 98.9801 121.13 98.9375 121.341 98.9521C121.474 98.95 121.611 98.9537 121.752 98.9634C121.661 99.113 121.582 99.2318 121.469 99.3946C121.723 99.3828 121.89 99.4236 122.081 99.4027C122.553 99.385 123.022 99.3613 123.488 99.3317C123.541 99.3232 123.572 99.3278 123.616 99.3016C124.023 99.1495 124.427 99.0945 124.85 99.075C125.082 99.0764 125.371 98.9722 125.637 98.9296C125.987 98.8832 126.338 98.8367 126.698 98.808C127.111 98.7708 127.536 98.7027 127.971 98.6523C128.522 98.6027 129.093 98.5885 129.646 98.4903C130.305 98.375 130.976 98.2289 131.616 98.0782C132.48 97.8626 133.313 97.6424 134.148 97.3737C134.737 97.1829 135.296 96.939 135.877 96.6819C136.685 96.3114 137.493 95.9409 138.283 95.4863C139.02 95.0403 139.757 94.5942 140.394 94.0195C140.878 93.5852 141.31 93.1108 141.711 92.6318C141.955 92.3418 142.086 92.0025 142.237 91.6986C142.528 91.0732 142.797 90.4609 143.066 89.8486C143.243 89.4345 143.356 89.0111 143.491 88.5747C143.527 88.4821 143.574 88.3588 143.632 88.2531C143.844 88.2191 143.85 88.3339 143.877 88.4357C143.919 88.6156 143.963 88.8013 144.011 88.993C144.031 89.0285 144.029 89.077 144.017 89.1079C143.757 89.7379 143.519 90.3548 143.218 90.9625C142.882 91.6628 142.473 92.3361 141.908 92.9378C141.622 93.2054 141.419 93.5178 141.184 93.8256C141.562 93.6203 141.817 93.348 142.124 93.0672C142.708 92.5009 143.147 91.8808 143.534 91.2206C143.695 90.9345 143.928 90.6753 144.139 90.4293C144.307 90.2095 144.453 90.0028 144.507 89.7337C144.603 89.2263 144.708 88.7367 144.773 88.2247C144.827 87.9556 144.828 87.695 144.797 87.4298C144.757 86.4137 144.61 85.4146 144.442 84.4286C144.363 83.8142 144.067 83.3309 143.74 82.8431C143.401 82.3861 143.096 81.8851 142.769 81.3972C142.681 81.2377 142.537 81.1352 142.372 81.0459C142.147 80.8988 141.988 80.6637 141.784 80.5035C141.599 80.3787 141.415 80.2539 141.24 80.1468C141.11 80.2255 141.002 80.2911 140.895 80.3081C140.811 80.312 140.74 80.2365 140.667 80.2096C140.306 80.0263 139.976 79.8476 139.538 79.7345C139.508 79.9419 139.621 79.9912 139.724 80.0713C140.188 80.3892 140.657 80.6968 141.129 80.9942C141.241 81.092 141.387 81.1459 141.39 81.3094C141.378 81.3402 141.388 81.3579 141.419 81.3625C141.791 81.5636 141.931 81.9752 142.235 82.2641C142.59 82.5931 142.803 83.0317 142.973 83.4965C143.073 83.7827 143.181 84.0646 143.295 84.3421C143.418 84.6697 143.596 84.9402 143.526 85.3373C143.5 85.4476 143.559 85.5539 143.586 85.6557C143.695 86.0627 143.72 86.4736 143.754 86.9023C143.761 86.9686 143.716 87.0434 143.68 87.1359C143.564 87.1352 143.492 87.1083 143.464 87.0065C143.453 86.7768 143.42 86.5601 143.388 86.3435C143.283 85.8393 143.2 85.3221 143.042 84.8264C142.97 84.5389 142.802 84.2861 142.633 84.0333C142.294 83.5763 141.977 83.1062 141.604 82.6931C141.334 82.3602 140.998 82.0667 140.673 81.7908C140.145 81.3062 139.394 81.0984 138.811 80.6709C138.32 80.3057 137.746 80.1565 137.105 80.0951C136.379 80.0377 135.675 79.9672 134.983 79.8658C134.124 79.7236 133.232 79.8375 132.343 79.9027C131.919 79.9384 131.488 79.9785 131.05 80.023C130.656 80.0956 130.275 80.1375 129.869 80.241C128.823 80.5115 127.78 80.7878 126.741 81.07C126.174 81.2477 125.616 81.443 125.049 81.6207C124.118 81.9242 123.223 82.3472 122.317 82.801C121.777 83.0804 121.239 83.3113 120.69 83.5729C120.367 83.7211 120.085 83.8917 119.762 84.0399C118.706 84.537 117.652 84.9855 116.586 85.4649C116.307 85.5869 116.058 85.7134 115.779 85.8354C114.789 86.277 113.788 86.717 112.777 87.1555C112.68 87.1902 112.584 87.225 112.487 87.2597C112.44 87.1225 112.549 87.0569 112.645 87.0222C113.087 86.8261 113.516 86.6609 113.957 86.4648C114.324 86.2903 114.678 86.1467 115.11 85.9329C114.65 85.833 111.897 86.5052 110.834 86.936C110.839 86.9802 110.847 87.0304 110.859 87.0864C110.207 87.2679 109.544 87.4803 108.892 87.6619ZM107.339 98.3678C107.439 98.4965 107.471 98.5011 107.613 98.3915C107.518 98.3777 107.456 98.3685 107.339 98.3678ZM107.613 98.3915C107.613 98.3915 107.62 98.3872 107.635 98.3784C107.635 98.3784 107.627 98.3828 107.613 98.3915ZM107.853 98.4592C107.818 98.2912 107.719 98.3745 107.635 98.3784C107.707 98.4053 107.78 98.4323 107.853 98.4592ZM125.886 100.009C126.001 100.27 126.249 100.144 126.462 100.11C127.227 99.9773 127.993 99.845 128.749 99.695C128.855 99.678 128.993 99.6656 129.07 99.5954C129.354 99.3763 129.643 99.272 129.964 99.1724C130.321 99.0509 130.682 98.9353 131.045 98.8256C131.245 98.7679 131.444 98.7103 131.644 98.6526C132.018 98.5444 132.382 98.4186 132.756 98.3104C132.938 98.2718 133.109 98.2154 133.306 98.0488C133.19 98.0481 133.137 98.0566 133.062 98.0782C132.422 98.2289 131.792 98.3973 131.152 98.548C130.631 98.6508 130.121 98.7228 129.597 98.8742C129.011 99.0164 128.452 98.9998 127.879 99.0625C127.507 99.1221 127.14 99.0845 126.742 99.2544C126.624 99.3022 126.488 99.2661 126.35 99.2785C126.054 99.3002 125.761 99.3279 125.471 99.3615C124.92 99.4111 124.39 99.4477 123.861 99.4842C123.511 99.5306 123.149 99.6079 122.81 99.6236C122.206 99.6817 121.624 99.7268 121.041 99.7718C121.01 99.7672 120.988 99.7803 120.978 99.7626C120.638 99.5662 120.199 99.7137 119.82 99.7069C118.807 99.7052 117.781 99.7343 116.778 99.7503C116.251 99.7382 115.724 99.7262 115.185 99.745C114.938 99.7523 114.676 99.8008 114.397 99.8904C114.627 99.9404 114.867 100.008 115.109 100.027C115.922 100.103 116.736 100.162 117.55 100.205C118.266 100.245 119.004 100.272 119.741 100.298C120.394 100.329 121.057 100.377 121.722 100.377C122.208 100.366 122.718 100.294 123.225 100.271C123.532 100.251 123.849 100.248 124.187 100.233C123.833 100.289 123.486 100.342 123.146 100.39C123.062 100.394 123.006 100.451 122.929 100.521C123.882 100.465 124.848 100.329 125.858 100.168C125.797 100.11 125.777 100.074 125.758 100.039C125.811 100.03 125.886 100.009 125.886 100.009ZM68.1948 114.37C68.4746 114.249 68.7109 114.153 68.906 114.035C69.9503 113.482 70.9946 112.928 72.0389 112.375C72.9354 111.904 73.8319 111.432 74.6969 110.956C75.6605 110.397 76.6459 109.824 77.5899 109.229C78.2305 108.818 78.8536 108.322 79.4963 107.863C79.6817 107.727 79.8984 107.596 80.074 107.442C80.1607 107.39 80.2278 107.302 80.295 107.214C80.5419 106.875 80.5189 106.676 80.1435 106.572C79.3709 106.378 78.7879 105.95 78.2504 105.448C78.17 105.354 78.0777 105.292 77.9756 105.212C77.8421 105.127 77.7184 105.06 77.7268 104.866C77.731 104.769 77.6388 104.706 77.5682 104.631C77.2641 104.342 77.0684 103.987 77.0896 103.502C77.112 103.228 76.9848 102.997 76.9541 102.732C76.8851 102.136 76.7846 101.534 76.7903 100.916C76.8038 100.364 76.955 99.7995 77.1376 99.2396C77.3419 98.6667 77.5658 98.1292 77.947 97.6147C78.1268 97.3641 78.2339 97.0865 78.3213 96.7734C78.1815 96.8344 78.0612 96.9308 77.943 96.9787C77.041 97.3354 76.1955 97.847 75.3619 98.3278C74.1934 98.9876 73.013 99.6783 71.8325 100.369C71.3339 100.671 70.8136 100.986 70.315 101.287C69.6549 101.663 68.9752 102.004 68.2933 102.392C67.7633 102.69 67.2647 102.991 66.7444 103.306C65.8772 103.831 65.0513 104.378 64.1863 104.854C63.1261 105.448 62.0856 106.078 61.0548 106.726C60.4359 107.124 59.7659 107.482 59.1373 107.862C58.4869 108.256 57.8365 108.649 57.1981 109.012C56.6561 109.34 56.1065 109.602 55.5645 109.93C54.8708 110.35 54.175 110.818 53.5008 111.273C53.1854 111.488 52.87 111.702 52.5546 111.917C51.7189 112.446 50.8735 112.958 50.0378 113.487C49.7441 113.688 49.472 113.877 49.1902 114.047C48.3762 114.563 47.5524 115.062 46.7503 115.547C46.2517 115.849 45.7335 116.115 45.2349 116.417C44.5748 116.793 43.9656 117.209 43.3055 117.585C42.6453 117.961 41.944 118.314 41.274 118.672C41.2524 118.685 41.1992 118.694 41.1775 118.707C40.9698 119.116 40.523 119.198 40.1859 119.425C38.9579 120.239 37.7005 121 36.3942 121.672C35.9942 121.891 35.6138 122.145 35.2334 122.399C34.0627 123.107 32.8921 123.815 31.7431 124.511C30.4922 125.283 29.2447 126.062 28.0004 126.847C27.208 127.35 26.394 127.866 25.6115 128.387C25.0143 128.772 24.4366 129.192 23.8492 129.595C23.1436 130.046 22.4282 130.479 21.7225 130.929C21.2673 131.205 20.8435 131.485 20.4078 131.796C19.3511 132.554 18.2727 133.324 17.2258 134.1C16.374 134.757 15.532 135.432 14.6998 136.125C14.0312 136.695 13.3507 137.296 12.6919 137.884C11.8135 138.668 10.9383 139.457 10.0665 140.253C9.64823 140.648 9.20832 141.056 8.80965 141.487C8.34385 142.005 7.92907 142.563 7.52618 143.091C7.38211 143.249 7.26737 143.46 7.33164 143.682C7.57778 143.604 7.79035 143.57 8.00502 143.487C8.73506 143.203 9.46184 142.913 10.1853 142.617C10.7664 142.36 11.3573 142.12 11.9503 141.833C12.7482 141.444 13.558 141.025 14.3678 140.606C15.0652 140.263 15.7594 139.914 16.4503 139.559C17.1701 139.186 17.8971 138.809 18.6314 138.428C19.0628 138.214 19.4531 137.978 19.8845 137.764C20.0894 137.664 20.3355 137.586 20.5404 137.486C21.2299 137.163 21.888 136.836 22.5677 136.495C23.204 136.181 23.8502 135.885 24.4865 135.571C24.918 135.357 25.3613 135.112 25.7928 134.898C26.0844 134.746 26.3858 134.61 26.6557 134.471C27.4655 134.052 28.2753 133.633 29.0949 133.231C29.5914 132.978 30.0976 132.743 30.5725 132.503C31.134 132.21 31.6955 131.918 32.2571 131.625C33.5601 130.947 34.8559 130.273 36.1445 129.604C37.0409 129.132 37.9179 128.625 38.7948 128.118C39.7368 127.572 40.7081 127.078 41.6577 126.598C42.4458 126.192 43.2339 125.786 44.022 125.38C44.8351 124.967 45.6481 124.554 46.4612 124.141C46.6661 124.041 46.8731 123.892 47.0996 123.778C47.6514 123.468 48.2346 123.162 48.7864 122.852C49.4997 122.468 50.2032 122.066 50.8948 121.694C51.4899 121.358 52.1143 121.075 52.7094 120.738C53.401 120.367 54.1045 119.965 54.7961 119.594C55.1961 119.375 55.6472 119.197 56.057 118.996C56.3052 118.87 56.522 118.738 56.7702 118.612C57.5269 118.201 58.2954 117.76 59.0835 117.354C59.3968 117.188 59.6982 117.053 59.9409 116.811C60.1598 116.632 60.4374 116.558 60.7073 116.419C60.9339 116.305 61.1898 116.245 61.3794 116.012C61.4346 115.955 61.5192 115.951 61.5842 115.912C61.7556 115.855 61.9052 115.812 62.0493 115.654C62.1164 115.566 62.2661 115.523 62.3842 115.475C62.6423 115.366 62.9101 115.275 63.1583 115.148C63.3199 115.074 63.4521 114.947 63.594 114.837C63.8325 114.693 64.0926 114.535 64.3409 114.409C65.0206 114.068 65.7101 113.746 66.4094 113.441C66.7758 113.266 67.1814 113.163 67.589 113.011C67.9084 113.432 68.3069 113.735 68.1948 114.37ZM136.779 52.6245C135.965 52.6682 135.174 52.6501 134.341 52.8703C133.796 53.0348 133.272 53.1862 132.717 53.333C132.567 53.3763 132.418 53.4195 132.268 53.4628C131.532 53.6482 130.817 53.8206 130.081 54.006C129.27 54.2131 128.527 54.5442 127.78 54.9726C127.272 55.2566 126.724 55.4697 126.184 55.749C125.548 56.0632 124.931 56.4128 124.305 56.7447C123.948 56.9368 123.579 57.1599 123.223 57.352C122.941 57.5226 122.671 57.6623 122.399 57.8505C121.477 58.4324 120.595 59.0365 119.685 59.5875C118.97 60.0204 118.315 60.5112 117.66 61.0019C117.238 61.3203 116.817 61.6225 116.397 61.9085C115.318 62.6793 114.16 63.3568 113.142 64.1854C112.683 64.5581 112.201 64.9438 111.662 65.2232C111.575 65.2757 111.476 65.359 111.378 65.4424C110.949 65.7489 110.517 66.0658 110.08 66.3929C109.982 66.4762 109.871 66.5904 109.751 66.6869C108.868 67.3396 107.975 67.9746 107.091 68.6274C106.502 69.0625 105.91 69.508 105.313 69.9637C104.541 70.5567 103.78 71.1513 103.03 71.7475C102.826 71.9023 102.625 72.063 102.428 72.2297C102.055 72.5498 101.641 72.8477 101.31 73.1902C100.889 73.6337 100.359 73.9308 100.031 74.4368C99.9978 74.4807 99.9544 74.507 99.9208 74.5509C99.7432 74.753 99.4753 74.8442 99.327 75.0994C99.2123 75.3108 99.0032 75.5082 98.8472 75.6972C98.8025 75.7558 98.7544 75.8085 98.7032 75.8553C98.2849 76.2503 97.8884 76.6322 97.4289 77.0048C96.7939 77.531 96.2393 78.1504 95.6238 78.712C95.0517 79.2474 94.5209 79.8051 94.0508 80.4206C93.7053 80.8425 93.2969 81.2552 92.8884 81.6679C92.8213 81.7559 92.7443 81.8261 92.6989 81.9009C92.3177 82.4153 91.9777 82.9521 91.5553 83.4442C90.6215 84.5295 89.7095 85.6017 88.8366 86.7448C88.4791 87.1975 88.0882 87.6943 87.7405 88.1648C87.5629 88.3669 87.4265 88.5913 87.2901 88.8157C87.0312 89.1852 86.7627 89.5369 86.5255 89.8932C86.3516 90.1719 86.1842 90.4624 86.0233 90.7647C85.9876 90.8572 86.0148 90.959 85.9889 91.0692C86.156 91.11 86.2916 91.1462 86.4175 91.1646C86.5119 91.1784 86.6496 91.166 86.7461 91.1313C87.0573 91.0139 87.3804 90.8657 87.7132 90.7352C88.35 90.4918 88.9933 90.2601 89.6432 90.0403C90.2439 89.8187 90.8326 89.6279 91.4367 89.5697C91.8283 89.5456 92.236 89.3935 92.6199 89.3031C93.4715 89.1345 94.3304 88.9616 95.1965 88.7843C95.8776 88.656 96.5514 88.532 97.218 88.4124C97.6117 88.3397 97.9717 88.3109 98.3535 88.2691C98.5661 88.2351 98.7905 88.1702 98.9933 88.1184C99.7373 87.9992 100.491 87.8978 101.237 87.7301C102.036 87.5539 102.859 87.316 103.671 87.1089C104.397 86.9057 105.096 86.6008 105.793 86.3444C106.522 86.0927 107.227 85.9026 107.934 85.664C108.834 85.3559 109.722 85.0786 110.612 84.7528C111.085 84.5613 111.55 84.3035 112.044 84.0989C112.546 83.89 113.047 83.6972 113.547 83.5206C114.094 83.3075 114.65 83.1607 115.197 82.9476C116.111 82.5601 117.037 82.1417 117.941 81.7364C118.867 81.3181 119.773 80.8642 120.709 80.4636C121.215 80.2281 121.772 80.0328 122.289 79.8151C122.45 79.7409 122.602 79.6491 122.773 79.5927C123.224 79.4144 123.675 79.236 124.126 79.0577C124.9 78.7311 125.684 78.4223 126.439 78.0603C127.075 77.7462 127.682 77.3788 128.309 77.047C128.395 76.9945 128.46 76.9551 128.557 76.9204C129.707 76.4371 130.816 75.9315 131.881 75.2401C132.945 74.5487 134.039 73.9105 135.113 73.2368C135.852 72.7422 136.613 72.2345 137.342 71.7222C137.636 71.5208 137.9 71.2662 138.175 71.0294C139.043 70.244 139.92 69.4764 140.757 68.6864C141.66 67.8086 142.523 66.9084 143.21 65.9011C143.536 65.4437 143.792 64.9108 144.057 64.3956C144.136 64.2769 144.183 64.1535 144.262 64.0347C144.667 63.4586 144.809 62.8764 144.856 62.2804C144.882 61.9095 144.825 61.5426 144.788 61.1625C144.756 60.6853 144.734 60.2258 144.649 59.7571C144.599 59.4564 144.464 59.1597 144.382 58.8544C144.353 58.8012 144.292 58.7435 144.294 58.6949C144.32 58.5846 144.399 58.4658 144.456 58.3602C144.529 58.3871 144.623 58.401 144.684 58.4587C144.959 58.6945 144.976 59.0391 145.024 59.3884C145.085 59.9188 145.146 60.4492 145.186 60.9927C145.213 61.0944 145.209 61.1916 145.215 61.3065C145.236 61.5539 145.276 61.8369 145.254 62.1106C145.253 62.3712 145.156 62.6665 145.102 62.9356C145.002 63.5401 144.599 64.0677 144.3 64.6268C144.2 64.8294 144.092 65.0363 143.977 65.2476C143.655 65.8684 143.199 66.4045 142.784 66.9629C142.516 67.3147 142.196 67.6263 141.888 67.9071C141.734 68.0475 141.622 68.2103 141.478 68.3684C141.091 68.768 140.692 69.1984 140.274 69.5934C139.779 70.0586 139.284 70.5237 138.728 70.9311C138.422 71.1634 138.146 71.4488 137.84 71.681C137.479 71.9703 137.097 72.2728 136.707 72.5089C136.155 72.8192 135.683 73.2226 135.183 73.5729C134.966 73.7041 134.708 73.813 134.479 73.975C133.872 74.3423 133.263 74.7582 132.644 75.1564C132.341 75.3401 132.049 75.4929 131.755 75.6943C131.69 75.7336 131.647 75.7599 131.621 75.8701C131.761 75.8092 131.901 75.7482 132.062 75.6741C133.014 75.1454 133.988 74.6036 134.949 74.0927C135.792 73.6297 136.643 73.2329 137.487 72.7698C138.308 72.3199 139.14 71.8877 139.893 71.3137C141.039 70.4549 142.102 69.5515 143.065 68.5194C143.463 68.089 143.799 67.6493 144.094 67.1873C144.388 66.7254 144.797 66.3127 145.111 65.8861C145.267 65.6972 145.36 65.499 145.474 65.2876C145.532 65.182 145.579 65.0586 145.637 64.953C145.83 64.6229 145.94 64.2967 145.891 63.9475C145.866 63.7971 145.969 63.6167 145.997 63.4578C146.039 62.747 146.112 62.0407 146.11 61.3561C146.064 60.6977 145.988 60.0347 145.836 59.3933C145.675 58.7342 145.439 58.0967 145.203 57.4593C145.097 57.2157 144.938 56.9806 144.801 56.7325C144.598 57.0448 144.851 57.2937 144.679 57.6107C144.649 57.5575 144.608 57.5352 144.589 57.4997C144.59 56.9785 144.324 56.5485 144.186 56.0883C144 55.4909 143.587 55.0555 143.053 54.7165C142.878 54.6095 142.681 54.5155 142.485 54.4216C142.412 54.3946 142.296 54.3939 142.139 54.3709C142.307 54.8843 142.883 54.9849 142.968 55.4537C142.887 55.3604 142.776 55.2626 142.674 55.1824C142.562 55.0846 142.428 54.9998 142.275 54.8797C142.282 55.2065 142.532 55.292 142.661 55.4739C142.786 55.666 142.929 55.8554 143.09 56.0418C143.263 56.1975 143.435 56.3531 143.628 56.5442C143.537 56.6938 143.518 56.8704 143.65 57.0037C143.679 57.0569 143.708 57.1101 143.685 57.1718C143.53 57.5728 143.815 57.8263 143.831 58.1709C143.864 58.3875 143.928 58.6087 143.971 58.8431C144 58.8963 143.953 59.0197 143.909 59.0459C143.779 59.1246 143.718 59.0668 143.691 58.9651C143.617 58.7261 143.403 58.5481 143.479 58.2659C143.503 58.2042 143.473 58.151 143.444 58.0978C143.321 57.7703 143.188 57.4249 143.022 57.1236C142.914 56.9286 142.763 56.7598 142.612 56.591C142.361 56.2936 142.122 55.9653 141.85 55.6809C141.646 55.5207 141.388 55.369 141.117 55.2966C140.611 55.1139 140.091 54.9562 139.555 54.8234C138.719 54.6195 137.848 54.5082 136.941 54.4894C136.235 54.4675 135.541 54.4147 134.82 54.4721C134.344 54.5001 133.815 54.5367 133.325 54.6441C132.472 54.8288 131.649 55.0668 130.807 55.2692C129.858 55.4887 128.924 55.8408 128.022 56.1975C127.786 56.2932 127.569 56.4244 127.343 56.5379C126.523 56.9393 125.684 57.3052 124.894 57.7597C123.952 58.3061 122.98 58.7993 122.117 59.4875C121.756 59.7768 121.303 60.0037 120.842 60.1643C120.478 60.2902 120.119 60.531 119.823 60.7809C120.029 60.8926 120.029 60.8926 120.319 60.7884C119.613 61.239 118.908 61.6897 118.212 62.158C117.831 62.4119 117.482 62.6704 117.112 62.942C116.596 63.301 116.078 63.6541 115.556 64.0014C114.632 64.6318 113.719 65.2313 112.816 65.8486C112.041 66.3651 111.273 66.8772 110.512 67.3849C110.37 67.4945 110.218 67.5863 110.157 67.7891C110.143 67.8686 110.023 67.965 109.957 68.0043C109.473 68.2267 109.067 68.5908 108.672 68.9241C108.53 69.0336 108.352 69.2357 108.134 69.1549C108.103 69.1503 108.026 69.2205 107.961 69.2598C107.381 69.7289 106.792 70.1803 106.19 70.6625C106.07 70.7589 105.979 70.9085 105.89 71.0096C105.608 71.1801 105.329 71.3021 105.088 71.495C104.518 71.9818 103.948 72.4686 103.388 72.9731C102.763 73.517 102.137 74.0609 101.522 74.6225C100.796 75.2983 100.08 75.9918 99.3539 76.6676C99.0559 76.9661 98.7265 77.2601 98.4286 77.5586C98.2076 77.7869 97.9964 78.033 97.7753 78.2613C97.2879 78.7928 96.7808 79.2888 96.2933 79.8203C95.7091 80.4734 95.1386 81.1339 94.5818 81.8019C93.7229 82.8656 92.8955 83.9338 92.0366 84.9975C91.9477 85.0985 91.8687 85.2173 91.8407 85.3762C91.9339 85.3355 92.0344 85.2905 92.1421 85.2411C92.1302 85.2719 92.1183 85.3028 92.0966 85.3159C91.9861 85.43 91.8539 85.5573 91.7022 85.6492C91.3987 85.8328 91.2504 86.0881 91.1118 86.3611C90.9733 86.6341 90.8467 86.8763 90.5334 87.0422C90.4467 87.0947 90.3676 87.2135 90.3103 87.3191C90.0277 87.7502 89.7549 88.1991 89.4604 88.6611C89.3142 88.8678 89.168 89.0745 88.9079 89.2319C88.7352 89.0763 88.7751 88.8866 88.8779 88.7061C89.2049 88.1457 89.535 87.5912 89.8685 87.0426C90.0049 86.8181 90.1825 86.616 90.3287 86.4093C90.6568 85.9034 91.0044 85.4329 91.301 84.9223C91.9775 83.6853 92.9036 82.5337 93.7667 81.3729C94.1794 80.8631 94.5508 80.3309 94.9516 79.8519C95.3188 79.4168 95.6957 78.9995 96.0727 78.5822C96.5266 78.0947 96.9806 77.6072 97.4659 77.1243C97.8072 76.7995 98.1681 76.5102 98.5192 76.2032C98.7453 76.019 98.9649 75.8231 99.178 75.6153C99.62 75.1586 100.062 74.702 100.535 74.2499C101.052 73.7716 101.589 73.3288 102.094 72.8813C102.401 72.6005 102.699 72.302 103.041 71.9772C103.21 71.9694 103.374 71.8467 103.571 71.6801C104.545 70.8777 105.56 70.0977 106.605 69.3709C107.214 68.955 107.816 68.4728 108.386 67.9859C109.276 67.2582 110.195 66.5836 111.144 65.9621C111.861 65.4806 112.559 64.9637 113.267 64.4645C113.691 64.1844 114.136 63.8912 114.572 63.5802C115.355 63.0594 116.178 62.5608 116.902 61.9336C117.439 61.4908 118.014 61.1189 118.619 60.8001C119.342 60.4335 119.985 59.9736 120.657 59.5669C121.358 59.1266 122.06 58.6862 122.762 58.2458C123.055 58.0445 123.349 57.8431 123.674 57.6463C123.903 57.4843 124.163 57.3268 124.433 57.1871C125.298 56.711 126.185 56.2217 127.101 55.7855C127.824 55.4189 128.608 55.1101 129.36 54.7967C130.026 54.5357 130.66 54.2701 131.324 54.0577C132.009 53.8322 132.692 53.6553 133.407 53.483C133.887 53.3578 134.375 53.2989 134.875 53.2092C134.928 53.2007 135.013 53.1968 135.056 53.1706C135.618 52.8781 136.179 52.8461 136.728 52.8451C136.95 52.8287 137.18 52.8787 137.432 52.655C137.2 52.6536 137.002 52.6082 136.779 52.6245ZM65.5046 116.046C64.6771 116.468 63.8424 116.894 63.0004 117.325C62.3088 117.696 61.6486 118.072 60.957 118.443C60.2004 118.854 59.447 119.27 58.6969 119.692C58.0053 120.064 57.3452 120.44 56.6535 120.811C55.7473 121.265 54.8627 121.705 53.9662 122.177C53.3613 122.496 52.7738 122.898 52.169 123.217C51.361 123.675 50.5433 124.114 49.7158 124.536C48.2459 125.331 46.7781 126.077 45.3081 126.872C44.4984 127.291 43.6984 127.728 42.8984 128.165C42.0051 128.643 41.1119 129.12 40.2186 129.598C39.4837 129.995 38.7802 130.397 38.0452 130.795C37.2571 131.201 36.4592 131.589 35.6613 131.977C35.0683 132.265 34.4634 132.584 33.8704 132.872C33.4607 133.072 33.0509 133.273 32.6411 133.474C32.1999 133.67 31.7782 133.901 31.3467 134.115C30.4838 134.543 29.5992 134.983 28.7363 135.411C27.43 136.083 26.102 136.769 24.7957 137.441C24.1915 137.743 23.5841 138.04 22.9734 138.331C22.7153 138.44 22.4594 138.5 22.2112 138.626C21.3797 139.059 20.5364 139.522 19.6951 139.936C18.7357 140.399 17.8175 140.883 16.8623 141.248C16.0372 141.535 15.2414 141.875 14.4729 142.316C14.1813 142.469 13.8582 142.617 13.5372 142.717C13.11 142.833 12.7002 143.034 12.2904 143.235C11.6009 143.557 10.9093 143.929 10.2198 144.251C9.71356 144.487 9.22897 144.709 8.72268 144.944C8.66954 144.953 8.61428 145.01 8.52757 145.063C8.58837 145.12 8.61773 145.174 8.67087 145.165C8.95403 145.207 9.24697 145.266 9.58961 145.153C10.3909 144.928 11.2335 144.726 12.0468 144.47C12.3677 144.37 12.681 144.204 12.9845 144.021C13.7628 143.597 14.5782 143.293 15.3837 142.971C15.6201 142.875 15.825 142.775 16.0613 142.679C16.8019 142.397 17.5641 142.101 18.2948 141.8C18.9822 141.526 19.6815 141.221 20.3591 140.93C20.757 140.76 21.1472 140.524 21.5548 140.372C22.7974 139.951 23.952 139.37 25.138 138.794C26.3023 138.232 27.4666 137.669 28.6309 137.106C29.1274 136.853 29.6358 136.569 30.1225 136.298C30.8141 135.927 31.5274 135.543 32.219 135.172C33.0624 134.708 33.9155 134.263 34.7589 133.8C36.0199 133.116 37.2705 132.43 38.5106 131.743C38.9756 131.485 39.4428 131.178 39.9078 130.921C40.8281 130.387 41.7799 129.859 42.7002 129.326C43.7603 128.731 44.8204 128.137 45.8806 127.543C46.4974 127.193 47.1239 126.861 47.7526 126.481C48.6079 125.987 49.4631 125.493 50.3401 124.986C50.9568 124.636 51.6149 124.309 52.2512 123.995C52.6079 123.803 52.9624 123.659 53.2974 123.48C54.2274 122.965 55.1477 122.431 56.068 121.898C57.2463 121.256 58.403 120.627 59.5715 119.967C60.0799 119.683 60.5904 119.351 61.089 119.049C61.5128 118.769 61.9345 118.537 62.3583 118.257C63.194 117.728 64.008 117.212 64.8437 116.682C65.2989 116.407 65.7737 116.167 66.2171 115.922C66.5206 115.738 66.8458 115.542 67.1493 115.358C67.1297 115.322 67.1101 115.287 67.0906 115.252C66.5507 115.531 66.0228 115.78 65.5046 116.046ZM12.1109 142.752C12.1857 142.731 12.2822 142.696 12.3353 142.687C12.6402 142.716 12.9101 142.576 13.18 142.436C13.7947 142.135 14.4387 141.887 15.0241 141.533C15.901 141.026 16.8562 140.661 17.7506 140.238C18.1387 140.05 18.4974 139.81 18.8855 139.622C19.5436 139.295 20.231 139.021 20.889 138.694C21.8051 138.257 22.7232 137.773 23.661 137.323C24.5239 136.896 25.3868 136.468 26.2812 136.045C26.433 135.953 26.6064 135.849 26.7581 135.757C27.6351 135.25 28.5295 134.827 29.4455 134.391C30.6944 133.824 31.9455 133.209 33.1693 132.492C34.0028 132.011 34.8168 131.495 35.6406 130.996C36.4211 130.524 37.1943 130.056 37.9603 129.593C38.047 129.54 38.1337 129.488 38.254 129.391C38.0316 129.408 37.8918 129.469 37.74 129.56C37.0846 129.91 36.4218 130.263 35.7519 130.622C35.1333 130.933 34.5211 131.256 33.9156 131.591C33.354 131.883 32.824 132.181 32.2722 132.491C31.2002 133.116 30.0792 133.652 28.9485 134.171C28.3555 134.459 27.7723 134.765 27.1793 135.053C26.5114 135.362 25.8436 135.672 25.1856 135.999C24.3877 136.387 23.5779 136.806 22.78 137.194C21.9073 137.604 21.0367 137.966 20.1738 138.393C19.5808 138.681 19.0388 139.009 18.4556 139.315C18.0155 139.565 17.5689 139.804 17.1158 140.031C16.8281 140.174 16.5405 140.316 16.2528 140.459C16.0165 140.554 15.7801 140.65 15.5438 140.746C15.5004 140.772 15.4256 140.794 15.3822 140.82C14.7123 141.178 14.0641 141.523 13.406 141.85C12.748 142.178 12.0487 142.482 11.3711 142.774C11.1662 142.875 11.0243 142.984 10.9312 143.182C11.3389 143.03 11.7249 142.891 12.1109 142.752ZM47.0762 125.046C46.558 125.312 46.158 125.53 45.758 125.749C45.5965 125.823 45.4447 125.915 45.2832 125.989C45.165 126.037 45.0371 126.067 44.9308 126.084C44.7909 126.145 44.6511 126.206 44.5427 126.271C43.8392 126.673 43.1455 127.093 42.4517 127.513C42.2133 127.657 41.9553 127.766 41.6951 127.924C40.4454 128.751 39.0958 129.449 37.7972 130.188C37.007 130.642 36.1972 131.062 35.407 131.516C34.7468 131.892 34.1083 132.255 33.4461 132.679C33.5209 132.657 33.6055 132.654 33.6706 132.614C34.3615 132.259 35.0451 131.908 35.7216 131.562C36.1097 131.375 36.4978 131.187 36.8859 130.999C37.5125 130.668 38.139 130.336 38.7656 130.004C39.7705 129.467 40.7852 128.947 41.7803 128.392C43.0355 127.68 44.332 126.99 45.5481 126.207C46.374 125.66 47.2293 125.166 48.0748 124.654C48.4097 124.475 48.7545 124.314 49.0894 124.135C49.8678 123.711 50.6852 123.358 51.4146 122.846C51.9251 122.513 52.4846 122.269 52.9951 121.937C53.5056 121.604 54.0671 121.312 54.5874 120.997C54.6307 120.971 54.6426 120.94 54.7196 120.87C54.6133 120.887 54.5601 120.895 54.5168 120.921C53.6459 121.37 52.7679 121.822 51.8825 122.279C51.2777 122.598 50.6749 122.868 50.121 123.227C49.5574 123.568 48.935 123.803 48.4399 124.268C48.3846 124.325 48.2979 124.377 48.235 124.368C48.0126 124.384 47.849 124.507 47.6755 124.612C47.4902 124.748 47.3049 124.884 47.0707 124.931C47.0077 124.922 46.9091 125.005 46.8441 125.044C46.8506 125.056 46.8604 125.074 46.8734 125.097C46.8951 125.084 46.9483 125.076 47.0762 125.046ZM134.502 79.0457C134.661 79.0202 134.813 78.9284 135.081 78.8373C134.711 78.8483 134.459 78.8114 134.183 78.8362C133.601 78.8813 132.965 78.9348 132.383 78.9798C131.98 79.0348 131.617 79.1121 131.288 79.406C132.358 79.3021 133.419 79.1805 134.502 79.0457ZM137.44 96.422C136.658 96.6823 135.904 97.0443 135.137 97.4371C135.137 97.4371 135.157 97.4726 135.167 97.4903C135.931 97.146 136.769 97.0407 137.44 96.422ZM94.7918 103.194C95.5148 102.828 96.2316 102.607 96.8959 102.134C95.2988 102.698 94.9974 102.833 94.7918 103.194ZM109.574 99.6402C109.02 99.5264 108.499 99.3686 107.881 99.5062C108.447 99.5892 108.992 99.6852 109.574 99.6402ZM110.595 99.7082C110.594 99.7406 110.589 99.7671 110.581 99.7877C111.051 99.9054 111.535 99.9436 112.031 99.9511C112.046 99.9099 112.062 99.8688 112.078 99.8277C111.58 99.7981 111.086 99.7583 110.595 99.7082ZM141.077 53.5473C140.802 53.5721 140.629 53.4165 140.442 53.3403C140.297 53.2864 140.154 53.1839 139.946 53.3328C140.119 53.4885 140.662 53.6331 141.167 53.6583C141.138 53.6051 141.099 53.5342 141.077 53.5473ZM104.592 71.4875C104.636 71.4613 104.638 71.4127 104.662 71.351C104.394 71.4422 103.53 72.1304 103.435 72.3771C103.813 72.085 104.199 71.7884 104.592 71.4875ZM136.611 79.5665C137.244 79.8221 137.495 79.859 137.767 79.6707C137.351 79.5445 136.993 79.5247 136.611 79.5665ZM55.2055 120.859C55.1976 120.88 55.2001 120.902 55.2132 120.926C55.6817 120.831 56.023 120.507 56.4327 120.306C56.4197 120.282 56.4139 120.254 56.4153 120.222C56.012 120.434 55.6088 120.647 55.2055 120.859ZM112.555 99.5391C112.653 99.7163 112.854 99.7131 113.082 99.8117C113.091 99.3568 112.698 99.6415 112.555 99.5391ZM140.317 79.7834C140.523 79.8951 140.556 80.1117 140.918 80.0344C140.712 79.9227 140.669 79.6884 140.317 79.7834ZM113.804 99.7057C113.627 99.6472 113.448 99.6373 113.2 99.7638C113.583 99.934 113.583 99.934 113.804 99.7057ZM118.831 61.4993C119.036 61.3989 119.237 61.3957 119.395 61.1582C119.12 61.183 118.958 61.2571 118.831 61.4993ZM18.4121 140.074C18.4316 140.11 18.4407 140.144 18.4393 140.176C18.6193 140.083 18.7952 140 18.9673 139.927C18.9687 139.895 18.9629 139.867 18.9498 139.843C18.7633 139.925 18.5841 140.002 18.4121 140.074ZM130.987 99.1919C131.119 99.3252 131.28 99.2511 131.41 99.1724C131.412 99.14 131.413 99.1076 131.415 99.0752C131.265 99.1185 131.122 99.1574 130.987 99.1919ZM134.286 97.8339C134.155 97.7006 134.001 97.841 133.863 97.8534C133.862 97.8858 133.865 97.9079 133.871 97.9197C134.013 97.897 134.151 97.8684 134.286 97.8339ZM11.7305 143.006C11.7435 143.03 11.7461 143.052 11.7381 143.072C11.9101 143 12.0717 142.926 12.2227 142.85C12.2162 142.838 12.2137 142.816 12.2151 142.784C12.0496 142.868 11.888 142.942 11.7305 143.006ZM118.278 100.687C118.286 100.666 118.294 100.646 118.302 100.625C118.191 100.598 118.079 100.571 117.968 100.544C117.952 100.585 117.936 100.626 117.92 100.667C118.04 100.674 118.159 100.68 118.278 100.687ZM99.5868 100.931C99.5737 100.907 99.5679 100.879 99.5693 100.847C99.4472 100.905 99.329 100.953 99.2148 100.991C99.2278 101.014 99.2337 101.042 99.2323 101.075C99.3544 101.016 99.4726 100.969 99.5868 100.931ZM121.623 100.721C121.63 100.7 121.638 100.679 121.646 100.659C121.544 100.579 121.395 100.622 121.235 100.648C121.234 100.68 121.232 100.712 121.231 100.745C121.358 100.731 121.489 100.723 121.623 100.721ZM130.772 79.6237C130.773 79.5914 130.771 79.5693 130.764 79.5574C130.679 79.5775 130.594 79.5976 130.508 79.6177C130.507 79.6501 130.505 79.6825 130.504 79.7149C130.597 79.6742 130.687 79.6438 130.772 79.6237ZM131.68 99.0327C131.687 99.0445 131.686 99.0607 131.678 99.0812C131.731 99.0727 131.763 99.0773 131.816 99.0688C131.859 99.0426 131.903 99.0164 132.033 98.9376C131.852 98.9763 131.777 98.9979 131.68 99.0327ZM105.98 87.8871C105.973 87.8752 105.974 87.8591 105.982 87.8385C105.917 87.8617 105.85 87.8789 105.779 87.8903C105.778 87.9226 105.783 87.9506 105.797 87.9743C105.861 87.9511 105.922 87.922 105.98 87.8871ZM96.9513 89.4487C96.9354 89.4898 96.9268 89.5266 96.9254 89.559C96.9818 89.5564 97.0415 89.5597 97.1044 89.5689C97.1123 89.5483 97.113 89.5321 97.1065 89.5203C97.0515 89.4905 96.9998 89.4667 96.9513 89.4487ZM138.022 52.9368C138.024 52.8883 138.048 52.8266 138.05 52.778C138.028 52.7911 137.975 52.7996 137.953 52.8128C137.92 52.8567 137.908 52.8876 137.884 52.9493C137.937 52.9408 138 52.95 138.022 52.9368Z" fill="#101828"/>
<path id="&#60;Compound Path&#62;_2" fill-rule="evenodd" clip-rule="evenodd" d="M128.615 86.613C128.56 86.6219 128.505 86.6309 128.45 86.6399C127.835 86.7708 127.217 86.9526 126.64 87.2088C125.831 87.5332 125.013 87.839 124.264 88.2749C123.785 88.5456 123.297 88.7467 122.829 88.985C122.384 89.2095 121.907 89.4292 121.482 89.6909C120.967 90.0076 120.495 90.3478 120.013 90.6694C119.295 91.1611 118.618 91.7271 118.046 92.3771C117.416 93.087 116.84 93.8389 116.253 94.5722C115.748 95.1809 115.5 95.879 115.33 96.5544C115.291 96.7024 115.317 96.8601 115.355 96.9854C115.494 97.2965 115.534 97.6442 115.795 97.9051C115.837 97.9285 115.855 98.0166 115.886 98.0723C115.936 98.1653 115.954 98.2534 115.81 98.3174C115.765 98.345 115.635 98.3257 115.605 98.27C115.42 98.0033 115.243 97.7321 115.074 97.4563C114.851 97.0474 114.861 96.5703 115.045 96.0849C115.264 95.5534 115.482 95.0219 115.841 94.5282C116.291 93.9285 116.742 93.3287 117.182 92.7104C117.321 92.5259 117.463 92.3306 117.61 92.1245C117.264 92.3125 116.929 92.5191 116.624 92.7814C116.204 93.1636 115.795 93.5644 115.396 93.9837C114.93 94.4443 114.602 94.9938 114.501 95.5769C114.457 95.8268 114.381 96.0719 114.306 96.317C114.256 96.4465 114.262 96.567 114.073 96.6586C113.938 96.2455 114.33 95.7566 114.085 95.3615C113.902 95.5736 113.666 95.7437 113.625 95.9426C113.498 96.3681 113.49 96.7943 113.461 97.2342C113.438 97.248 113.458 97.2851 113.468 97.3037C113.555 97.647 113.642 97.9903 113.729 98.3336C113.747 98.4217 113.765 98.5099 113.828 98.5704C114.097 98.9008 114.366 99.2313 114.68 99.5341C114.868 99.7158 115.123 99.8562 115.346 99.9918C115.63 100.148 115.918 100.293 116.21 100.427C116.787 100.667 117.306 101.017 117.968 101.081C118.055 101.077 118.118 101.138 118.215 101.152C118.525 101.284 118.855 101.452 119.213 101.505C120.186 101.65 121.183 101.78 122.203 101.846C123.104 101.911 124.03 101.912 124.979 101.625C125.354 101.51 125.728 101.412 126.102 101.33C126.74 101.186 127.387 101.06 128.025 100.915C129.081 100.661 130.128 100.389 131.184 100.136C131.976 99.9457 132.76 99.686 133.526 99.3382C134.26 98.9856 134.941 98.591 135.665 98.2198C136.366 97.8624 137.017 97.412 137.617 96.8688C137.878 96.6339 138.126 96.4315 138.386 96.1967C138.726 95.8882 139.066 95.5797 139.363 95.2478C139.683 94.9022 139.94 94.496 140.26 94.1503C140.693 93.6848 140.922 93.1719 141.011 92.6211C141.038 92.5055 141.054 92.3712 141.251 92.3491C141.426 92.3408 141.454 92.4476 141.415 92.5956C141.304 93.1601 141.118 93.6965 140.704 94.1991C140.351 94.648 139.987 95.0954 139.612 95.5411C139.498 95.6609 139.372 95.8131 139.248 95.9143C138.871 96.2457 138.483 96.5756 138.084 96.9038C137.632 97.2811 137.191 97.6771 136.709 97.9987C135.904 98.4945 135.098 98.9903 134.253 99.4118C133.474 99.7919 132.655 100.098 131.849 100.371C131.241 100.572 130.606 100.665 130 100.815C129.318 100.987 128.603 101.154 127.921 101.327C127.679 101.376 127.405 101.421 127.163 101.471C126.184 101.702 125.191 102.016 124.216 102.145C123.351 102.256 122.493 102.214 121.634 102.172C120.97 102.159 120.368 101.984 119.717 101.939C119.445 101.933 119.21 101.829 118.952 101.74C118.564 101.648 118.183 101.552 117.81 101.451C117.455 101.347 117.11 101.262 116.778 101.144C116.308 100.938 115.862 100.666 115.414 100.446C114.228 99.9115 113.405 99.0545 112.943 97.8752C112.717 97.2949 112.569 96.6918 112.732 95.9469C112.909 95.1187 113.268 94.3517 113.897 93.6418C114.219 93.2452 114.606 92.8582 114.938 92.4802C115.317 92.0237 115.768 91.6463 116.23 91.2876C116.67 90.9426 117.089 90.5604 117.538 90.234C118.582 89.5172 119.693 88.9814 120.828 88.4318C121.25 88.2211 121.669 88.0211 122.084 87.8319C122.395 87.6901 122.706 87.5482 123.014 87.4573C123.39 87.325 123.796 87.2485 124.172 87.1163C125.066 86.8387 125.962 86.5102 126.868 86.2002C127.443 85.9949 128.018 85.7897 128.591 85.6354C129.991 85.2448 131.374 84.9885 132.758 84.9545C134.023 84.9199 135.285 84.9362 136.437 85.2437C137.407 85.49 138.295 85.861 139.009 86.4625C139.335 86.7331 139.592 87.0958 139.873 87.3939C140.323 87.8365 140.67 88.3665 140.996 88.9104C141.167 89.2263 141.097 89.5919 141.059 89.9623C140.775 89.9885 140.772 89.8171 140.756 89.678C140.742 89.488 140.761 89.3028 140.68 89.1541C140.478 88.7824 140.232 88.4382 140.007 88.0802C139.997 88.0617 139.987 88.0431 139.955 88.0383C139.878 88.061 139.788 88.1161 139.733 88.125C139.274 87.6639 138.879 87.2123 138.43 86.7697C138.295 86.63 138.104 86.4992 137.924 86.387C137.626 86.2232 137.316 86.0918 137.028 85.9465C136.452 85.6561 135.805 85.5089 135.099 85.4725C134.72 85.4333 134.34 85.3942 133.961 85.355C133.624 85.3392 133.287 85.3234 132.938 85.34C132.611 85.3428 132.282 85.3966 131.943 85.4317C131.649 85.4394 131.332 85.4607 131.025 85.5007C130.345 85.622 129.675 85.7619 129.005 85.9017C128.785 85.9376 128.564 86.0244 128.365 86.0974C128.356 86.1189 128.352 86.1467 128.35 86.1807C128.438 86.1765 128.502 86.1862 128.557 86.1772C129.262 85.9912 129.95 85.9395 130.614 85.9524C130.734 85.9531 130.843 85.9352 130.986 85.9221C131.379 85.8779 131.777 85.84 132.177 85.8083C132.265 85.8041 132.384 85.8048 132.472 85.8007C132.701 85.7834 132.943 85.7338 133.172 85.7165C133.968 85.6978 134.774 85.6977 135.553 85.8132C136.04 85.8854 136.547 85.9948 136.915 86.2887C137.63 86.8903 138.164 87.653 138.63 88.4571C138.996 89.0752 139.26 89.7809 139.269 90.5684C139.266 91.166 139.294 91.7684 139.181 92.3839C139.113 92.6985 139.078 93.018 138.89 93.332C138.643 93.7568 138.451 94.1726 138.204 94.5974C137.815 95.3087 137.287 95.9311 136.569 96.4228C136.189 96.6569 135.871 96.9517 135.524 97.1906C135.141 97.4757 134.759 97.7608 134.346 97.9901C134.033 98.1829 133.69 98.32 133.356 98.4756C133.222 98.5583 133.088 98.6409 132.954 98.7235C133.061 98.7566 133.148 98.7524 133.248 98.7159C133.89 98.4693 134.544 98.1904 135.138 97.8C135.866 97.3269 136.615 96.891 137.239 96.2829C137.557 95.9882 137.895 95.7307 138.242 95.4917C138.657 95.2115 138.934 94.8424 139.191 94.4362C139.505 93.9701 139.809 93.4853 140.028 92.9538C140.089 92.792 140.183 92.635 140.457 92.5902C140.453 92.6921 140.493 92.7665 140.446 92.845C140.277 93.2301 140.102 93.6028 139.919 93.9631C139.527 94.7253 139.018 95.4358 138.255 95.9551C138.064 96.0976 137.863 96.2216 137.682 96.3827C137.161 96.8523 136.619 97.2847 136.016 97.6566C135.601 97.9369 135.174 98.2495 134.706 98.4878C133.982 98.859 133.208 99.1372 132.424 99.3969C131.717 99.6339 131 99.8522 130.303 100.108C129.628 100.35 128.934 100.554 128.243 100.657C127.57 100.773 126.897 100.89 126.225 101.007C126.06 101.034 125.893 101.112 125.717 101.171C125.617 101.207 125.507 101.225 125.353 101.271C125.368 101.187 125.36 101.118 125.382 101.104C125.718 100.897 126.023 100.635 126.414 100.642C126.567 100.647 126.686 100.648 126.792 100.459C126.695 100.444 126.608 100.448 126.521 100.453C126.331 100.47 126.138 100.481 125.942 100.486C125.635 100.526 125.325 100.395 125.038 100.745C125.038 100.745 125.016 100.759 125.006 100.741C124.741 100.804 124.455 100.881 124.193 100.894C123.546 100.912 122.897 100.906 122.245 100.878C121.212 100.845 120.297 100.589 119.662 99.914C119.599 99.8534 119.514 99.8066 119.429 99.7598C119.333 99.6944 119.216 99.6428 119.165 99.5499C119.026 99.2387 118.763 99.0288 118.532 98.8237C118.417 98.7211 118.291 98.6 118.357 98.3363C118.813 98.6261 119.112 99.0122 119.468 99.3385C119.379 99.0631 119.281 98.7924 119.177 98.5262C119.047 98.2336 118.906 97.9734 118.787 97.6994C118.529 97.1143 118.425 96.4837 118.377 95.8441C118.361 95.705 118.377 95.5708 118.548 95.3911C118.599 95.484 118.694 95.5494 118.702 95.6189C118.757 95.8663 118.797 96.1228 118.821 96.3886C118.859 96.7872 119.073 97.1266 119.265 97.4797C119.312 97.4012 119.316 97.2993 119.361 97.2718C119.418 97.2119 119.495 97.1891 119.562 97.1478C119.523 96.8002 119.493 96.4711 119.464 96.142C119.345 95.099 119.727 94.0449 120.337 93.0245C120.56 92.6644 120.804 92.2906 121.016 91.9119C121.159 91.6255 121.365 91.3996 121.658 91.1696C122.323 90.636 122.988 90.1023 123.654 89.5686C124.455 88.9014 125.318 88.3457 126.22 87.8643C126.476 87.7314 126.732 87.5985 127.011 87.4518C127.367 87.2654 127.735 87.0806 128.113 86.8974C128.279 86.8196 128.456 86.7603 128.623 86.6825C128.631 86.6609 128.628 86.6378 128.615 86.613ZM136.882 95.7343C137.299 95.4031 137.546 94.9783 137.803 94.572C137.968 94.2718 138.166 93.9765 138.331 93.6763C138.461 93.4222 138.582 93.1496 138.648 92.8859C138.763 92.4928 138.867 92.081 138.895 91.6921C138.935 91.2707 138.954 90.8122 138.862 90.4226C138.766 89.8615 138.571 89.3369 138.375 88.8123C138.317 88.6499 138.147 88.5563 138.054 88.4399C137.708 87.8589 137.182 87.4391 136.608 87.0977C136.3 86.9153 135.936 86.7928 135.603 86.6752C135.183 86.5616 134.776 86.4157 134.331 86.3669C133.877 86.2995 133.408 86.3155 132.929 86.3128C132.33 86.3094 131.727 86.408 131.112 86.5389C130.892 86.5747 130.663 86.592 130.421 86.6416C130.137 86.6678 129.895 86.7174 129.657 86.9384C129.511 87.0534 129.279 87.1216 129.082 87.1437C128.556 87.2195 128.034 87.4668 127.534 87.7002C126.778 88.0666 126.03 88.5025 125.322 89.0128C124.895 89.3254 124.435 89.6332 124.008 89.9459C123.75 90.1297 123.511 90.3508 123.296 90.558C122.742 91.0228 122.179 91.469 121.658 91.9386C120.921 92.6155 120.377 93.3722 120.1 94.237C119.9 94.8566 119.83 95.4615 119.892 96.0517C119.95 96.4875 119.93 96.946 119.965 97.3956C119.979 97.5856 120.08 97.7715 120.183 97.9064C120.5 98.3807 120.929 98.7861 121.405 99.113C121.713 99.2954 122.078 99.4179 122.409 99.5865C122.516 99.6365 122.637 99.6774 122.774 99.709C122.956 99.7703 123.171 99.8363 123.378 99.8328C123.77 99.8397 124.164 99.7955 124.578 99.7886C124.817 99.7899 125.055 99.8422 125.304 99.8621C125.619 99.8917 125.85 100.097 126.223 100.015C126.575 99.948 126.899 99.9961 127.238 99.9609C128.465 99.801 129.696 99.5392 130.908 99.1893C131.14 99.1211 131.374 99.0019 131.595 98.9151C132.638 98.4716 133.65 97.9723 134.699 97.3759C135.437 96.9214 136.149 96.3093 136.882 95.7343ZM135.608 86.2999C135.819 86.4679 136.032 86.5849 136.326 86.5773C136.409 86.658 136.501 86.7342 136.599 86.8058C136.622 86.775 136.638 86.7489 136.646 86.7273C136.573 86.6481 136.513 86.5366 136.326 86.5773C136.219 86.2709 135.89 86.3247 135.608 86.2999ZM120.559 89.3661C120.839 89.4417 120.965 89.2896 121.112 89.1746C121.246 89.0919 121.37 88.9907 121.492 88.9404C121.86 88.7387 122.216 88.5693 122.571 88.3998C121.848 88.4977 121.273 88.9763 120.559 89.3661ZM116.041 92.6439C116.448 92.294 116.852 91.9381 117.252 91.5759C117.224 91.5603 117.206 91.5463 117.2 91.5339C116.74 91.8417 116.333 92.1915 116.041 92.6439ZM124.094 87.6857C124.323 87.5943 124.555 87.5091 124.791 87.4301C124.523 87.3221 124.289 87.4412 124.094 87.6857ZM123.76 87.8413C123.747 87.8165 123.733 87.7917 123.72 87.767C123.557 87.834 123.395 87.901 123.232 87.9681C123.231 88.002 123.233 88.0252 123.24 88.0376C123.403 87.9706 123.576 87.9051 123.76 87.8413ZM119.698 98.0566C119.683 98.0657 119.66 98.0795 119.63 98.0979C119.684 98.197 119.735 98.2899 119.782 98.3767C119.827 98.3491 119.864 98.3262 119.894 98.3078C119.832 98.2303 119.766 98.1465 119.698 98.0566Z" fill="#101828"/>
<path id="&#60;Path&#62;" d="M109.6 88.3602C109.844 88.3077 110.077 88.2536 110.3 88.1979C110.065 88.1967 109.821 88.1774 109.6 88.3602Z" fill="#101828"/>
<path id="&#60;Compound Path&#62;_3" fill-rule="evenodd" clip-rule="evenodd" d="M139.726 58.5503C139.924 58.9115 140.1 59.2861 140.298 59.6473C140.59 60.2881 140.634 61.0084 140.602 61.7508C140.561 62.6912 140.159 63.6115 139.715 64.5089C139.62 64.7109 139.546 64.949 139.379 65.1235C138.724 65.9568 138.13 66.8489 137.205 67.5095C137.162 67.5363 137.128 67.5811 137.084 67.6078C136.651 67.9923 136.228 68.3949 135.764 68.7747C135.012 69.3778 134.197 69.9716 133.435 70.5567C132.807 71.012 132.199 71.5035 131.573 71.9094C130.398 72.699 129.17 73.4479 127.974 74.2014C127.865 74.2683 127.723 74.3305 127.592 74.4107C127.09 74.6688 126.566 74.9402 126.074 75.2163C125.801 75.3588 125.558 75.5553 125.295 75.7158C124.496 76.1792 123.707 76.6606 122.886 77.1373C122.394 77.4134 121.84 77.6307 121.356 77.9744C120.584 78.5414 119.736 78.9144 118.917 79.3417C118.317 79.6352 117.722 79.8297 117.162 80.1954C117.118 80.2222 117.043 80.2442 116.967 80.2663C116.521 80.4662 116.055 80.6299 115.609 80.8298C114.967 81.1006 114.356 81.4255 113.707 81.6287C113.253 81.7611 112.785 81.9743 112.329 82.1562C111.974 82.2921 111.624 82.4175 111.277 82.5325C111.126 82.5766 110.987 82.5893 110.826 82.6154C110.308 82.7383 109.801 82.8793 109.305 82.9889C108.971 83.0725 108.638 83.1065 108.326 83.1767C108.099 83.2429 107.892 83.3451 107.689 83.3485C107.132 83.3992 106.597 83.4365 106.064 83.4244C105.125 83.4188 104.314 83.1665 103.643 82.636C103.095 82.2232 102.757 81.6587 102.518 81.0092C102.337 80.5176 102.177 80.0125 102.039 79.4942C101.955 79.2326 101.902 78.9758 102 78.6748C102.05 78.4996 102.122 78.311 102.087 78.1398C102.031 77.7164 102.187 77.3078 102.397 76.8905C102.663 76.415 102.917 75.9709 103.37 75.6225C103.457 75.569 103.525 75.4794 103.593 75.3898C104.411 74.481 105.053 73.4632 106.048 72.6635C106.347 72.4087 106.574 72.077 106.886 71.7908C107.777 70.9094 108.701 70.0328 109.593 69.1514C110.372 68.3864 111.256 67.703 112.087 66.9789C112.464 66.6525 112.871 66.3804 113.196 66.0133C113.755 65.4315 114.385 64.9267 115.015 64.4218C115.501 64.0286 116.027 63.7077 116.546 63.3192C117.317 62.7522 118.1 62.1537 118.914 61.6094C119.914 60.9268 120.966 60.2849 121.996 59.6564C122.435 59.3889 122.885 59.09 123.415 58.9357C123.652 58.8875 123.903 58.7585 124.154 58.6295C124.919 58.2109 125.674 57.7743 126.494 57.5631C126.57 57.5411 126.635 57.501 126.723 57.4475C126.994 57.3546 127.299 57.2168 127.569 57.1239C128.035 56.9602 128.511 56.8144 128.977 56.6507C129.078 56.6213 129.182 56.5979 129.289 56.5805C130.132 56.3559 130.983 56.1494 131.847 55.9115C132.765 55.6649 133.645 55.562 134.491 55.7201C134.555 55.7294 134.629 55.7569 134.682 55.7482C135.146 55.6339 135.502 55.8025 135.903 55.8949C136.104 55.9411 136.271 56.0321 136.471 56.0783C137.284 56.2811 137.983 56.6498 138.559 57.1662C138.775 57.3475 138.935 57.587 139.096 57.8265C139.207 57.9756 139.161 58.0519 138.91 58.1809C138.542 57.5622 138.062 57.0598 137.239 56.8389C137.403 57.2449 137.494 57.358 137.762 57.5801C137.865 57.6617 137.956 57.7747 138.069 57.8744C138.406 58.223 138.514 58.6872 138.742 59.1025C138.938 59.5132 139.036 59.9594 139.09 60.4323C139.109 60.7339 139.15 61.0222 139.191 61.3105C139.532 61.0784 139.586 60.8042 139.526 60.4798C139.49 60.3086 139.543 60.0839 139.573 59.8725C139.57 59.706 139.566 59.5395 139.585 59.3595C139.609 59.0312 139.481 58.7964 139.342 58.5435C139.293 58.4532 139.212 58.3582 139.377 58.2332C139.586 58.3469 139.627 58.3697 139.726 58.5503ZM134.165 57.0998C134.148 57.1747 134.122 57.2706 134.089 57.3874C134.047 57.3646 133.993 57.3733 133.973 57.3372C133.855 57.1205 133.646 57.0067 133.336 57.0274C132.747 57.0734 132.15 57.0519 131.559 57.1475C130.753 57.2777 129.951 57.5745 129.178 57.9255C128.975 58.0173 128.765 58.0971 128.549 58.1648C127.573 58.5191 126.619 58.86 125.671 59.318C125.159 59.558 124.687 59.8703 124.227 60.1511C124.183 60.1778 124.139 60.2046 124.117 60.218C123.077 60.8284 122.086 61.5291 121.118 62.2165C120.599 62.605 120.093 62.9621 119.597 63.3372C119.178 63.6408 118.75 63.9263 118.309 64.2432C117.56 64.7969 116.81 65.3505 116.029 65.8995C115.554 66.2612 115.038 66.6002 114.564 66.962C114.101 67.2923 113.627 67.654 113.174 68.0024C113.158 68.1328 113.164 68.2499 113.118 68.3261C113.072 68.4023 112.962 68.4692 112.864 68.5046C112.243 68.8115 111.774 69.2903 111.285 69.733C110.785 70.2071 110.336 70.722 109.857 71.1827C109.346 71.6388 108.961 72.1631 108.607 72.692C108.503 72.876 108.431 73.0646 108.327 73.2485C108.279 73.3742 108.231 73.4999 108.183 73.6257C108.149 73.6705 108.093 73.7286 108.091 73.7781C108.128 74.1654 107.775 74.4289 107.559 74.7291C107.114 75.4106 106.988 76.0894 107.044 76.7783C107.073 77.098 107.165 77.4271 107.236 77.7696C107.35 78.3508 107.76 78.7268 108.237 79.0627C108.693 79.3624 109.128 79.6755 109.708 79.8274C110.11 79.9198 110.491 79.9761 110.955 79.8618C111.903 79.6693 112.842 79.4094 113.737 78.9601C114.173 78.7421 114.611 78.4747 115.018 78.2025C116.201 77.4804 117.377 76.6908 118.593 75.9733C119.742 75.296 120.853 74.5465 122.081 74.0137C122.179 73.9782 122.267 73.9247 122.354 73.8712C123.024 73.5272 123.686 73.171 124.343 72.8028C124.801 72.5715 125.239 72.3041 125.697 72.0727C126.498 71.6484 127.292 71.2285 128.078 70.8131C128.536 70.5818 129.016 70.3371 129.484 70.1238C129.905 69.9313 130.336 69.7568 130.777 69.6004C131.872 69.1973 132.937 68.74 133.916 68.0707C134.341 67.7792 134.753 67.4636 135.152 67.1239C136.314 66.1496 137.197 64.9847 137.976 63.7381C138.24 63.3121 138.365 62.8988 138.501 62.454C138.903 61.3178 138.764 60.3178 138.389 59.366C138.215 58.9419 138.042 58.5178 137.726 58.1559C137.473 57.8529 137.151 57.6395 136.69 57.4387C136.745 57.6461 136.783 57.7678 136.83 57.9076C136.475 57.4735 135.905 57.3396 135.412 57.1342C135.035 56.9789 134.669 56.7922 134.268 56.6999C133.888 56.5941 133.497 56.5198 133.077 56.6073C133.045 56.6026 133.001 56.6294 132.903 56.6648C133.448 56.6455 133.802 56.8636 134.165 57.0998ZM134.279 69.054C133.697 69.4331 133.073 69.7894 132.432 70.0602C132.074 70.2066 131.723 70.4206 131.374 70.585C130.807 70.8832 130.229 71.1633 129.671 71.4796C129.113 71.7958 128.565 72.1302 127.995 72.4778C127.842 72.5714 127.701 72.6336 127.537 72.7092C126.948 73.0207 126.36 73.2828 125.82 73.6847C125.411 74.0063 124.955 74.1881 124.539 74.4422C124.511 74.427 124.49 74.4074 124.477 74.3833C124.646 74.2643 124.807 74.1497 124.961 74.0396C125.346 73.7809 125.743 73.4907 126.127 73.2319C126.457 73.0148 126.782 72.8082 127.104 72.6121C127.929 72.1249 128.746 71.6422 129.557 71.1639C130.265 70.748 130.973 70.3321 131.681 69.9162C131.976 69.7605 132.229 69.5819 132.494 69.372C132.104 69.5137 131.725 69.624 131.345 69.7838C130.65 70.0632 129.933 70.356 129.268 70.6896C128.461 71.0854 127.684 71.5354 126.887 71.9492C126.517 72.1271 126.124 72.3183 125.764 72.5142C124.487 73.1727 123.242 73.836 121.955 74.4765C120.514 75.2106 119.134 76.053 117.75 76.945C116.674 77.6497 115.568 78.3003 114.482 78.987C113.647 79.5446 112.785 79.9986 111.853 80.3261C110.855 80.6938 109.842 80.9264 108.88 80.7182C108.383 80.6117 107.922 80.411 107.685 79.9775C107.396 79.5033 107.095 79.0604 106.828 78.5728C106.679 78.3019 106.629 77.9955 106.644 77.6491C106.656 77.5291 106.647 77.4061 106.617 77.2799C106.499 76.7976 106.532 76.2713 106.629 75.7543C106.653 75.6914 106.633 75.6553 106.638 75.5563C106.428 75.7081 106.356 75.8967 106.296 76.0538C106.126 76.5434 105.933 77.0463 105.804 77.5586C105.726 77.8957 105.711 78.2422 105.74 78.5619C105.745 78.9444 105.837 79.2735 105.864 79.6427C105.869 79.7598 105.853 79.8902 105.805 80.0159C105.428 79.5952 105.335 79.05 105.328 78.4514C105.307 77.7177 105.563 76.9586 105.82 76.1996C105.907 75.93 106.098 75.6926 106.195 75.4412C106.431 74.9115 106.613 74.3905 106.869 73.897C107.101 73.4663 107.407 73.063 107.744 72.6645C107.858 72.4986 107.96 72.3642 107.978 72.1843C107.831 72.1294 107.712 72.1782 107.558 72.2718C107.228 72.5219 106.916 72.8081 106.637 73.099C106.143 73.6571 105.643 74.2198 105.134 74.7868C104.34 75.6328 103.681 76.565 103.274 77.5842C102.976 78.3205 102.699 79.0435 102.709 79.8087C102.719 79.8267 102.716 79.8762 102.726 79.8943C102.982 80.8949 103.216 81.9089 104.229 82.4234C104.542 82.5693 104.788 82.8048 105.104 82.9012C105.251 82.956 105.389 82.9928 105.548 83.0163C106.389 83.0573 107.24 83.1163 108.136 82.883C109.139 82.6324 110.158 82.5169 111.185 82.2034C112.039 81.9474 112.856 81.5697 113.702 81.2461C114.668 80.8738 115.636 80.4519 116.604 80.0301C117.386 79.6972 118.169 79.3643 118.932 78.9952C119.444 78.7552 119.916 78.4429 120.43 78.1534C120.838 77.9368 121.24 77.6917 121.636 77.418C121.955 77.1993 122.313 77.0529 122.652 76.8704C122.968 76.7012 123.297 76.5006 123.626 76.3C123.714 76.2466 123.804 76.1436 123.867 76.153C124.166 76.1637 124.377 75.9624 124.608 75.7973C125.278 75.3647 125.928 74.8959 126.575 74.4767C127.333 73.9906 128.078 73.536 128.855 73.086C129.905 72.4936 130.864 71.7882 131.874 71.1235C132.621 70.6194 133.337 70.1105 134.023 69.5475C134.344 69.2794 134.633 69.0065 134.944 68.7203C134.931 68.6963 134.914 68.6827 134.893 68.6795C134.695 68.7999 134.488 68.9022 134.279 69.054ZM116.466 64.6689C116.707 64.5218 116.948 64.3747 117.255 64.1875C117.091 64.5286 116.858 64.7432 116.563 64.899C116.431 64.9792 116.31 65.0775 116.21 65.1624C116.035 65.2694 115.879 65.4125 115.704 65.5195C115.506 65.6399 115.287 65.7736 115.139 65.9842C115.284 66.0886 115.386 65.9542 115.464 65.8826C115.948 65.5389 116.423 65.1772 116.907 64.8335C117.447 64.4316 118.017 64.084 118.557 63.6821C119.726 62.8249 120.906 61.9362 122.084 61.0971C122.502 60.7935 122.941 60.5261 123.357 60.272C123.764 59.9998 124.148 59.7411 124.565 59.487C124.916 59.273 125.276 59.0771 125.635 58.9307C126.407 58.5798 127.188 58.2963 127.959 57.9948C128.317 57.8484 128.685 57.7201 129.054 57.5917C129.151 57.5563 129.249 57.5209 129.349 57.436C129.285 57.4266 129.221 57.4172 129.168 57.4259C127.659 57.768 126.178 58.2139 124.787 59.0383C124.436 59.2522 124.058 59.3625 123.729 59.5631C123.281 59.8125 122.852 60.098 122.436 60.3521C122.032 60.5747 121.637 60.8154 121.221 61.0695C121.045 61.1765 120.88 61.3015 120.682 61.4218C120.144 61.7742 119.584 62.14 119.056 62.5104C118.628 62.7959 118.219 63.1175 117.8 63.4211C117.404 63.7113 116.997 63.9834 116.61 64.2917C116.311 64.5465 116.032 64.8374 115.721 65.1236C115.742 65.1267 115.759 65.1403 115.772 65.1644C116.023 65.0353 116.235 64.834 116.466 64.6689ZM118.571 62.3725C118.934 62.1271 119.297 61.8817 119.689 61.6905C119.994 61.5528 120.259 61.3428 120.534 61.1509C121.039 60.8269 121.54 60.4968 122.039 60.1607C122.178 60.0595 122.293 59.9492 122.384 59.8297C121.808 60.0603 121.332 60.4716 120.784 60.8059C120.236 61.1402 119.678 61.4564 119.14 61.8088C118.634 62.1659 118.115 62.5544 117.587 62.9248C117.965 62.8145 118.284 62.5959 118.571 62.3725ZM134.575 56.2471C134.787 56.5274 135.127 56.5609 135.434 56.6392C135.686 56.7262 136.006 56.7236 136.27 56.7792C136.461 56.8073 136.618 56.8802 136.797 56.9398C136.28 56.3157 135.448 56.2928 134.575 56.2471ZM138.7 64.0439C138.905 63.7256 139.048 63.3979 139.263 63.0976C139.401 62.8689 139.463 62.6622 139.484 62.4328C139.483 62.2168 139.481 62.0008 139.394 61.7887C139.244 62.3144 139.103 62.8581 138.888 63.3744C138.642 63.886 138.301 64.3836 138.023 64.8905C138.029 64.9026 138.047 64.9162 138.074 64.9313C138.29 64.6311 138.516 64.3489 138.7 64.0439ZM133.333 56.1138C132.804 56.0026 132.286 56.1256 131.777 56.3161C132.288 56.3416 132.791 56.2996 133.333 56.1138ZM109.541 69.8577C109.845 69.72 111.032 68.6828 111.547 68.1278C111.519 68.1126 111.502 68.099 111.495 68.087C110.863 68.6413 110.241 69.2137 109.541 69.8577ZM129.211 56.9176C129.473 57.0226 129.732 56.9612 130.537 56.6149C130.095 56.7158 129.653 56.8167 129.211 56.9176ZM139.759 60.2652C139.883 60.1174 139.909 60.005 139.83 59.8606C139.684 60.0217 139.68 60.1207 139.759 60.2652ZM139.856 61.2424C139.658 61.3627 139.708 61.453 139.789 61.548C139.825 61.4537 139.839 61.3728 139.856 61.2424ZM139.839 60.6257C139.804 60.6315 139.778 60.6388 139.764 60.6478C139.768 60.7258 139.775 60.8098 139.785 60.8999C139.814 60.8821 139.847 60.8703 139.882 60.8645C139.858 60.7833 139.843 60.7037 139.839 60.6257ZM117.021 63.439C117.007 63.4149 116.998 63.3969 116.991 63.3848C116.918 63.4294 116.845 63.474 116.772 63.5186C116.778 63.5306 116.785 63.5426 116.792 63.5547C116.865 63.5101 116.941 63.4715 117.021 63.439Z" fill="#101828"/>
<path id="&#60;Compound Path&#62;_4" fill-rule="evenodd" clip-rule="evenodd" d="M89.5734 97.0247C89.5976 97.2376 89.5535 97.4926 89.6232 97.6773C89.7728 98.0657 89.6538 98.5188 89.7476 98.9164C89.7557 98.9873 89.7285 99.1054 89.6808 99.1855C89.3468 99.7462 89.1221 100.341 88.5591 100.815C88.4454 100.885 88.3727 101.031 88.3022 101.126C87.7157 101.893 87.0367 102.49 86.115 102.806C85.6211 102.959 85.1499 103.099 84.6604 103.148C84.2164 103.169 83.76 103.224 83.3307 103.16C82.4061 103.023 81.6723 102.565 81.216 101.835C80.7187 101.028 80.4921 100.105 80.6149 99.0425C80.7186 98.1686 81.2265 97.4245 81.8108 96.7091C82.2315 96.1961 82.8128 95.8116 83.3302 95.3654C83.4565 95.262 83.593 95.1777 83.7398 95.1123C84.5522 94.7621 85.3977 94.4168 86.2526 94.3694C86.7854 94.3439 87.258 94.4315 87.6351 94.6793C88.1854 95.0226 88.5742 95.5163 88.8948 96.0521C89.0078 96.2607 89.1105 96.4503 89.2234 96.6589C89.3475 96.6076 89.4385 96.5513 89.5067 96.5091C89.688 96.6755 89.58 96.8688 89.5734 97.0247ZM88.292 97.4622C88.2228 98.5679 87.7162 99.5389 86.8692 100.442C86.6724 100.639 86.4222 100.794 86.1719 100.949C86.1036 100.991 85.9613 100.952 85.8725 100.957C85.8588 100.931 85.8527 100.901 85.8542 100.867C85.9349 100.792 86.0281 100.683 86.1419 100.613C86.9096 100.012 87.4279 99.2869 87.6636 98.4326C87.7097 98.2185 87.7591 98.0108 87.812 97.8094C88.0272 96.9172 87.4588 95.6994 86.7103 95.3267C86.1248 95.0305 85.4658 95.1593 84.7818 95.3542C84.5234 95.4379 84.2856 95.5595 84.0478 95.6812C83.595 95.9104 83.1092 96.1347 82.6769 96.4018C82.4266 96.5564 82.2174 96.7869 82.0309 97.0034C81.4966 97.5866 81.1251 98.2464 80.995 98.9595C80.9803 99.0445 80.9429 99.1435 80.9737 99.2004C81.1006 99.6029 81.0146 100.061 81.1187 100.477C81.3225 101.414 81.8243 102.117 82.7276 102.495C83.1092 102.639 83.5656 102.585 83.9971 102.596C84.538 102.642 85.0466 102.403 85.5471 102.094C85.9794 101.827 86.4139 101.508 86.869 101.227C87.6073 100.796 87.9685 100.117 88.2307 99.4235C88.3929 98.9942 88.5119 98.5411 88.5854 98.1161C88.6192 97.8421 88.5415 97.5864 88.4968 97.3357C88.499 97.2837 88.4227 97.2549 88.3589 97.1931C88.3317 97.3112 88.284 97.3913 88.292 97.4622Z" fill="#101828"/>
<path id="&#60;Path&#62;_2" d="M124.823 104.653C125.249 104.603 125.672 104.565 126.091 104.536C125.685 104.442 125.272 104.5 124.823 104.653Z" fill="#101828"/>
</g>
</svg>
