<svg width="102" height="106" viewBox="0 0 102 106" fill="none" xmlns="http://www.w3.org/2000/svg">
<g id="&#60;Group&#62;" opacity="0.5">
<path id="&#60;Path&#62;" d="M37.3023 80.2018C37.2548 80.2459 37.212 80.2764 37.1737 80.2935C37.2195 80.158 37.2845 80.014 37.3686 79.8616C37.371 79.9986 37.3735 80.1356 37.3023 80.2018Z" fill="#101828"/>
<path id="&#60;Compound Path&#62;" fill-rule="evenodd" clip-rule="evenodd" d="M30.7693 5.47273C30.2884 5.797 28.6271 5.88172 28.6271 5.88172C25.3444 7.05585 22.5988 10.2669 22.0116 15.5509C21.3881 18.976 21.881 24.2389 25.0534 31.1297C25.252 31.5154 25.4372 31.9414 25.6775 32.342C26.0581 32.8825 26.4937 33.3976 26.916 33.9529C27.5069 34.7033 28.0426 35.4791 28.6335 36.2294C31.9801 40.3457 31.6263 39.7246 33.1283 42.5097C33.2134 42.675 33.2017 42.851 33.2868 43.0163C33.457 43.3469 34.6786 45.8523 34.7236 46.1384C34.8922 46.3334 35.3295 46.9842 35.2075 47.2109C35.503 47.5861 35.4528 48.0185 35.4577 48.4255C35.4176 48.5463 35.5728 48.7815 35.6146 48.7964C36.1822 48.7731 36.5328 49.1228 36.8967 49.4323C37.3023 49.7566 37.5243 49.7905 37.9368 49.5319C37.9919 49.5065 38.0887 49.4959 38.1438 49.4705C38.5028 49.373 38.8618 49.2755 39.2342 49.1377C41.1778 48.343 43.5799 49.9624 44.6815 51.7047C44.7182 51.6877 44.7689 51.6757 44.8334 51.6687C45.2892 51.5606 45.69 51.4779 46.0689 51.8828C46.2658 52.1329 46.5446 52.277 46.795 52.3661C47.0738 52.5102 47.3793 52.5738 47.6298 52.6628C47.9219 52.7667 48.1322 52.9765 48.1639 53.303C48.1655 53.4386 48.1388 53.5191 48.1404 53.6548C48.4577 53.5424 48.7899 53.5255 49.0654 53.3984C49.5614 53.1695 50.0573 52.9406 50.655 53.108C50.7518 53.0974 50.8486 53.0868 50.9455 53.0762C51.4163 53.0635 51.8454 53.036 52.2895 53.1038C53.1911 53.1992 53.9723 53.6571 54.6851 54.1806C55.1459 54.4795 55.1191 54.5601 54.8619 55.0539C55.0289 55.1133 55.1958 55.1726 55.321 55.2171C55.4462 55.2616 55.5581 55.3464 55.6282 55.4163C55.7534 55.4609 55.8652 55.5456 55.9904 55.5901C56.2542 55.6389 56.4896 55.6326 56.7534 55.6814C56.9337 55.7004 57.1558 55.7343 57.3361 55.7534C57.4329 55.7428 57.5581 55.7873 57.5865 55.8424C57.7417 56.0777 57.9504 56.1519 58.1992 56.1053C58.3795 56.1244 58.5598 56.1435 58.6717 56.2282C59.2042 56.7327 59.7885 56.9405 60.468 57.002C60.5231 56.9765 60.5097 57.0168 60.5514 57.0316C60.8753 57.0867 61.1853 57.1369 61.4814 57.1821C61.5648 57.2118 61.7585 57.1906 61.7869 57.2457C61.9571 57.5764 62.3311 57.5743 62.5832 57.799C62.7935 58.0088 63.0038 58.2186 63.3344 58.066C63.3895 58.0406 63.488 58.1657 63.5715 58.1953C63.7384 58.2547 63.8503 58.3395 64.0172 58.3988C64.2826 58.5832 64.493 58.7931 64.7584 58.9775C64.912 59.0771 65.0656 59.1767 65.2041 59.181C65.4963 59.2849 65.7868 59.253 66.0239 59.3823C66.5113 59.6007 66.9587 59.9398 67.5146 60.0924C67.8068 60.1963 68.2225 60.209 68.4629 60.6096C68.533 60.6796 68.7266 60.6584 68.8652 60.6627C69.129 60.7114 69.4062 60.7199 69.6849 60.864C69.8936 60.9382 70.0488 61.1735 70.2725 61.343C70.2608 61.519 70.194 61.7203 70.1138 61.962C71.0655 61.625 71.9071 61.3389 72.7486 61.0528C73.5484 60.7518 74.3348 60.4911 75.163 60.2453C75.6188 60.1372 76.1031 60.0843 76.5872 60.0313C77.2234 59.9423 77.8595 59.8532 78.4957 59.7642C78.9381 59.6964 79.4073 59.5481 79.8631 59.44C80.2505 59.3976 80.6646 59.2747 81.0118 59.3532C82.0119 59.5736 82.9985 59.8344 83.9334 60.3918C85.4408 61.333 85.1986 61.9222 86.1114 64.0926C86.4251 64.8345 86.6703 65.642 86.777 66.4453C87.3821 70.6675 85.0325 80.2775 83.5305 84.3808C81.8549 89.0078 77.6688 97.9648 72.7649 99.1028C71.8666 99.2787 68.5894 98.6089 66.047 96.8496C65.8233 96.68 65.6681 96.4447 65.4995 96.2497C64.9186 95.563 64.3333 94.8897 63.7435 94.2297C63.6734 94.1598 63.6584 94.0644 63.5883 93.9945C63.1794 93.3989 62.7571 92.8435 62.3482 92.2479C61.996 91.7625 61.5053 91.2729 61.4003 90.6052C61.3686 90.2788 61.0631 90.2153 60.7859 90.2068C59.9127 90.1665 59.1999 89.6429 58.3936 89.4012C58.3519 89.3864 58.2817 89.3165 58.24 89.3016C58.1148 89.2571 57.9896 89.2126 57.8644 89.1681C57.3785 89.0854 56.851 88.9879 56.4453 88.6636C56.3619 88.6339 56.2233 88.6297 56.0981 88.5852C55.7926 88.5216 55.4453 88.4431 55.1114 88.3244C54.7775 88.2057 54.457 88.0467 54.1231 87.928C53.8309 87.8242 53.5538 87.8157 53.2616 87.7118C53.0947 87.6524 52.9127 87.4977 52.7041 87.4235C52.0646 87.2412 51.4119 87.0992 50.7858 86.8766C50.3551 86.7685 49.9511 86.5799 49.4786 86.4569C49.1865 86.3531 48.8526 86.2344 48.5187 86.1156C47.9761 85.9228 47.4469 85.6896 46.9043 85.4967C46.7791 85.4522 46.5854 85.4734 46.5036 85.5793C46.2982 85.7765 46.0494 85.823 45.7873 85.9099C44.9725 86.1155 43.5635 85.2995 43.2765 84.4771C43.1464 84.0256 43.0078 84.0213 42.537 84.0341C42.3984 84.0298 42.2181 84.0107 42.0512 83.9514C41.7874 83.9026 41.5503 83.7733 41.2865 83.7246C40.9437 83.6327 40.5965 83.5543 40.2447 83.4892C39.9298 83.4073 39.6242 83.3437 39.3282 83.2985C39.1245 83.2561 38.9164 83.2271 38.7038 83.2115C38.5786 83.167 38.4533 83.1225 38.3565 83.1331C38.1495 83.1946 37.9975 83.2306 37.8423 82.9953C37.869 82.9148 37.7856 82.8851 37.7021 82.8554C37.228 82.5968 36.7522 82.2026 36.1696 82.1305C36.0727 82.1411 35.9342 82.1369 35.864 82.0669C35.3749 81.7129 34.7655 81.7214 34.2096 81.5688C33.9041 81.5052 33.6269 81.4967 33.3631 81.4479C32.9741 81.3546 32.6119 81.1808 32.2646 81.1024C31.8756 81.0091 31.3914 81.0621 31.1645 80.6212C31.0943 80.5513 31.1211 80.4707 31.1061 80.3754C31.2029 80.3648 31.258 80.3393 31.3832 80.3838C31.647 80.4326 31.9392 80.5365 32.203 80.5852C32.4434 80.6107 32.5714 80.5061 32.587 80.2715C32.635 79.6583 32.6925 79.0634 32.7594 78.4869C32.7845 78.2707 32.8797 78.1245 32.9599 77.8828C33.03 77.9528 33.0584 78.0079 33.0584 78.0079C33.0917 78.4699 33.0832 78.9172 33.1165 79.3792C33.1765 79.7607 33.1814 80.1677 33.2415 80.5492C33.2565 80.6446 33.5069 80.7336 33.6187 80.8184C33.6454 80.7379 33.7557 80.687 33.7273 80.6319C33.679 80.0745 33.7559 79.5616 33.8328 79.0486C33.9365 78.4552 34.152 77.9464 34.4643 77.4271C34.4542 77.7387 34.2772 77.9909 34.2805 78.2622C34.2336 78.9659 34.2417 79.6442 34.2366 80.3627C34.2532 80.5938 34.729 80.988 34.951 81.022C34.8146 78.9024 35.327 76.9835 36.4884 75.2653C36.3681 75.6278 36.0306 76.3632 35.9905 76.484C35.8318 77.1029 35.673 77.7218 35.6111 78.3302C35.5264 78.9604 35.4834 79.6054 35.4821 80.2653C35.4903 80.9435 35.926 81.4586 36.4953 81.571C36.4931 81.3901 36.5093 81.2007 36.5438 81.0029C36.6475 80.4094 36.696 79.8414 36.7997 79.2479C36.7847 79.1526 36.9082 79.0614 36.9767 78.9957C37.0324 79.0155 37.0741 79.0303 37.1019 79.0402C36.9197 80.011 36.7509 80.9414 37.537 81.8063C37.4459 81.1435 37.4984 80.5168 37.6944 79.9262C37.6677 80.0067 37.7378 80.0767 37.9047 80.1361C37.9465 80.1509 37.9331 80.1912 37.9748 80.206C37.9197 80.2314 37.8646 80.2569 37.8513 80.2972C37.8946 80.4476 37.9514 80.5578 37.9948 80.7083C38.0915 81.0729 38.1744 81.4325 38.2433 81.7872C38.33 82.0882 38.4836 82.1878 38.7458 82.1009C38.8229 80.4625 38.7946 80.4074 39.2087 80.2845C39.1683 81.5308 39.3685 82.0522 39.9395 82.3002C39.6541 81.6134 39.7711 80.9797 40.0134 80.3905C40.2139 79.7864 40.4144 79.1823 40.8803 78.7627C40.9092 78.863 40.9058 78.9669 40.8702 79.0743C40.5044 79.7546 40.4441 80.4986 40.287 81.2531C40.2234 81.7258 40.4204 81.9759 40.8244 82.1645C41.0601 81.0327 41.2123 79.8712 41.7818 78.8581C41.8236 78.8729 41.4925 81.2765 41.5006 81.9547C41.4938 82.5376 41.8861 82.9022 42.4821 82.934C42.5072 82.7178 42.6086 77.3511 42.6621 77.19C42.7491 76.3655 43.0715 75.5347 43.2971 74.7144C43.6157 73.567 43.9438 72.4381 44.2813 71.3274C44.308 71.2469 44.3765 71.1812 44.4032 71.1007C44.577 70.5771 44.7925 70.0685 44.9378 69.4898C45.1367 68.7501 45.2938 67.9955 45.4927 67.2558C45.5996 66.9337 45.79 66.6412 45.8552 66.3042C45.9471 65.8866 45.9973 65.4542 46.0475 65.0218C46.0928 64.1825 46.1931 63.3177 46.1549 62.4487C46.105 61.7556 45.8748 61.0434 45.728 60.361C45.683 60.0748 45.6246 59.8289 45.5796 59.5428C45.5629 59.3117 45.5313 58.9853 45.8218 58.9535C46.0021 58.9726 46.1857 59.263 46.3543 59.458C46.396 59.4729 46.3827 59.5131 46.3693 59.5534C46.4872 60.1356 46.6095 60.7043 46.7362 61.2597C46.8263 61.8319 47.0131 62.3936 47.0197 62.9362C46.976 63.9112 46.8773 64.9117 46.6116 65.8527C46.5464 66.1897 46.3427 66.5225 46.2775 66.8595C46.1054 67.5187 46.0451 68.2626 45.873 68.9218C45.6073 69.8629 45.2164 70.7594 44.9507 71.7005C44.7101 72.4253 44.5113 73.1651 44.3258 73.8645C44.1921 74.2672 44.0167 74.6551 43.8831 75.0578C43.7243 75.6767 43.4687 76.3062 43.3517 76.9399C43.2347 77.5737 43.2004 81.6136 43.2186 81.9802C43.2252 82.5228 43.2601 83.1205 43.654 83.6208C43.7809 83.8009 43.9495 83.9959 44.0212 84.2015C44.1664 84.7484 44.6538 84.9667 45.1129 85.13C45.2248 85.2147 45.4168 85.0579 45.4986 84.9519C45.5805 84.8459 45.6339 84.6848 45.5906 84.5343C45.2218 83.8179 45.1852 83.0846 45.2037 82.3258C45.2422 82.0693 45.2806 81.8129 45.3191 81.5564C45.3575 81.2999 45.4795 81.0731 45.5597 80.8315C45.6153 80.8513 45.6571 80.8661 45.6849 80.876C45.6949 80.9396 45.6865 81.0117 45.6598 81.0922C45.6331 81.1728 45.5512 81.2787 45.5662 81.3741C45.6863 82.1371 45.7512 82.9256 45.8713 83.6887C45.9163 83.9748 46.1132 84.2249 46.2551 84.5005C46.2918 84.4835 46.3424 84.4715 46.407 84.4644C46.4337 84.3839 46.5156 84.2779 46.5139 84.1423C46.4356 83.3941 46.3707 82.6056 46.3058 81.8171C46.2474 81.5712 46.2859 81.3148 46.2692 81.0838C46.3059 81.0668 46.3382 81.0633 46.366 81.0732C46.5562 81.9062 46.7463 82.7392 46.9498 83.5319C47.0232 83.8731 47.1801 84.244 47.3086 84.5599C47.3787 84.6298 47.4905 84.7146 47.574 84.7443C47.4575 83.127 47.7166 81.6434 48.4065 80.2678C48.4349 80.3229 48.4081 80.4035 48.4231 80.4988C48.2644 81.1177 48.1056 81.7367 48.002 82.3301C47.91 82.7477 47.9567 83.1694 47.9616 83.5764C47.9649 83.8477 47.9965 84.1741 48.11 84.3946C48.337 84.8354 48.6191 85.2509 48.9562 85.6409C49.0547 85.7659 49.3318 85.7744 49.5122 85.7935C49.5539 85.8083 49.6491 85.6621 49.6341 85.5667C49.6425 85.1195 49.6092 84.6574 49.576 84.1954C49.4848 83.5327 49.5278 82.8876 49.705 82.2602C49.7434 82.0038 49.852 81.8173 49.9188 81.6159C49.9466 81.6258 49.9884 81.6406 50.044 81.6604C49.9906 81.8215 49.9087 81.9275 49.897 82.1034C49.7383 82.7223 49.8149 83.3348 49.8916 83.9474C49.9516 84.3289 49.9148 84.721 49.9748 85.1025C50.3521 85.3717 50.1698 86.3425 51.028 86.2874C51.0548 86.2069 51.0681 86.1666 51.0949 86.0861C51.0805 85.6607 51.075 85.2086 51.0785 84.7296C51.0635 84.6342 51.0902 84.5536 51.1303 84.4328C51.186 84.4526 51.2277 84.4674 51.2555 84.4773C51.2755 84.6045 51.3139 84.7232 51.3706 84.8334C51.4006 85.0242 51.3889 85.2001 51.4607 85.4057C51.5892 85.7215 51.7594 86.0522 51.8879 86.368C51.988 86.6287 52.4204 86.8724 52.6691 86.8258C52.7242 86.8004 52.7927 86.7347 52.8061 86.6944C52.8952 86.426 52.9659 86.1659 53.0183 85.9144C53.1236 85.4566 53.2289 84.9988 53.3893 84.5155C53.4294 84.3947 53.5246 84.2485 53.6064 84.1425C53.6113 84.5495 53.5194 84.967 53.4959 85.3188C53.4608 85.8466 53.4256 86.3744 53.4872 86.8915C53.5472 87.273 53.7843 87.4024 54.1984 87.2794C54.2587 86.5355 54.0835 85.7979 54.2273 85.0836C54.4141 85.6453 54.5042 86.2176 54.691 86.7792C54.8078 87.271 55.0347 87.7119 55.6191 87.9196C56.1065 88.1379 56.5056 87.9196 56.5141 87.4724C56.5108 87.2011 56.6044 86.9192 56.6428 86.6627C56.8864 87.3346 56.9781 88.0426 57.5389 88.6022C57.4773 88.085 57.3889 87.6484 57.384 87.2414C57.3908 86.6585 57.3976 86.0756 57.4461 85.5076C57.4862 85.3868 57.6098 85.2956 57.6917 85.1897C57.7195 85.1996 57.7612 85.2144 57.8169 85.2342C57.5479 85.904 57.6947 86.5864 57.8281 87.3092C57.9031 87.7861 58.0065 88.3181 58.5641 88.6064C58.5924 88.6615 58.6208 88.7167 58.6492 88.7718C58.791 89.0473 59.3336 89.2402 59.5958 89.1533C59.6509 89.1279 59.7327 89.0219 59.7043 88.9668C59.7144 88.6552 59.6828 88.3288 59.6928 88.0172C59.7564 87.5446 59.8333 87.0317 59.9102 86.5187C59.9102 86.5187 59.9653 86.4933 60.0756 86.4424C60.0355 86.5632 60.0087 86.6438 60.0104 86.7794C59.8966 87.6845 59.9766 88.5683 60.4305 89.4501C60.544 89.6705 60.6975 89.7701 60.9463 89.7235C60.8563 89.1512 60.808 88.5938 60.8148 88.0109C60.7783 87.2775 60.7551 86.5039 60.8153 85.7599C60.8906 85.1114 61.0494 84.4925 61.153 83.899C61.2684 83.1296 61.3421 82.3454 61.4574 81.576C61.6833 79.6302 62.2013 77.7884 62.8578 75.9507C63.2605 74.8783 63.8017 73.81 64.2176 72.6973C64.3647 72.2543 64.7471 71.805 64.4217 71.2391C64.435 71.1988 64.4484 71.1585 64.4618 71.1182C64.7858 70.423 65.0681 69.713 65.3922 69.0178C65.9585 67.7334 66.6366 66.5337 67.1895 65.2896C67.6339 64.2319 68.2318 63.2739 68.9132 62.3456C69.0084 62.1993 69.1738 62.123 69.4075 61.981C69.4075 61.981 69.4059 61.8454 69.4326 61.7649C69.7332 61.4215 69.4411 61.3176 69.2174 61.148C68.9937 60.9785 68.7866 61.0399 68.623 61.2519C68.309 61.6355 68.0368 62.034 67.7512 62.4727C67.1666 63.3904 66.9443 64.482 66.2479 65.3149C66.0024 65.6329 65.9522 66.0653 65.7351 66.4383C65.695 66.5591 65.5714 66.6503 65.4896 66.7562C65.4617 66.7463 65.4244 66.7181 65.3777 66.6715C65.675 66.0568 65.9724 65.4421 66.228 64.8126C66.5253 64.198 66.836 63.543 66.8412 62.8245C66.8133 62.8146 66.7855 62.8047 66.7577 62.7948C65.9694 64.0453 65.181 65.2959 64.3927 66.5464C64.3649 66.5365 64.3231 66.5216 64.2675 66.5019C64.3844 66.2433 64.5152 65.9896 64.66 65.741C65.0108 64.9652 65.39 64.2446 65.8109 63.5388C66.2986 62.6316 66.8982 61.8093 67.4276 60.917C67.4544 60.8364 67.4243 60.6457 67.3409 60.616C67.0187 60.3214 66.1472 60.4167 65.9434 60.7495C65.439 61.4256 64.8929 62.0868 64.5004 62.8478C63.7955 64.1279 63.1741 65.4378 62.511 66.7328C62.3623 67.0402 62.1719 67.3326 62.0233 67.64C62.0746 67.298 62.1631 66.9843 62.2889 66.6989C62.5729 66.1245 62.8569 65.5501 63.0991 64.9609C63.5184 64.1195 63.8408 63.2886 64.3018 62.462C64.6943 61.7011 65.1703 60.9699 65.6463 60.2386C65.7549 60.0521 65.7533 59.9165 65.5446 59.8423C65.0437 59.6642 64.5996 59.5964 64.2038 60.086C64.0402 60.2979 63.8765 60.5099 63.7412 60.7769C63.3203 61.4827 62.871 62.1334 62.4919 62.854C62.1528 63.4539 61.8972 64.0834 61.5999 64.698C61.2213 65.4639 60.8426 66.2297 60.464 66.9956C60.464 66.9956 60.4223 66.9808 60.2987 67.0719C60.434 66.8048 60.4457 66.6289 60.5409 66.4827C60.8099 65.8129 61.1206 65.1579 61.3895 64.4882C61.6318 63.8989 61.8323 63.2949 62.1162 62.7205C62.6708 61.612 63.2671 60.5183 63.8634 59.4247C63.9452 59.3187 64.0254 59.0771 63.9553 59.0071C63.8435 58.9223 63.6348 58.8482 63.4962 58.8439C62.9135 58.7718 62.5161 59.1258 62.132 59.4395C61.4323 60.0011 61.0398 60.762 60.6189 61.4678C59.9274 62.7077 59.3194 63.9773 58.6696 65.2321C58.4079 65.7393 58.1646 66.2381 57.9396 66.7285C57.884 66.7087 57.8423 66.6938 57.8144 66.6839C57.8545 66.5631 57.8529 66.4275 57.9347 66.3215C58.3256 65.4249 58.7165 64.5284 59.1491 63.6467C59.7989 62.3919 60.4353 61.1774 61.1134 59.9778C61.1402 59.8973 61.1808 59.8217 61.2354 59.751C61.536 59.4077 61.8783 59.0791 62.1505 58.6806C62.2875 58.5492 62.3961 58.3627 62.1724 58.1932C61.8786 57.9536 60.9369 57.9791 60.7465 58.2716C59.9966 59.2656 59.2467 60.2597 58.5803 61.2834C58.0642 62.1354 57.6734 63.0319 57.2407 63.9136C57.0503 64.2061 56.8733 64.4584 56.7246 64.7657C56.5492 65.1536 56.4156 65.5563 56.2402 65.9442C56.2134 66.0247 56.145 66.0904 56.1183 66.1709C56.1016 65.9399 56.1684 65.7385 56.2219 65.5775C56.5003 64.9261 56.7743 64.2881 57.0438 63.6636C57.3946 62.8878 57.7454 62.1121 58.1245 61.3914C58.4486 60.6962 58.8979 60.0455 59.3054 59.38C59.6461 58.9159 59.9868 58.4517 60.3692 58.0023C60.5596 57.7099 60.5296 57.5191 60.1824 57.4407C59.8351 57.3622 59.391 57.2944 59.1038 57.5975C58.5427 58.1634 57.9949 58.689 57.6575 59.4245C57.2933 60.2405 56.8173 60.9717 56.4665 61.7475C55.9788 62.6546 55.5328 63.5766 55.0868 64.4986C55.0467 64.6194 54.9782 64.6851 54.9098 64.7508C54.9532 64.5262 55.0106 64.3064 55.0819 64.0917C55.4444 63.14 55.8069 62.1883 56.2112 61.2515C56.5069 60.5012 56.8443 59.7657 57.2519 59.1002C57.6043 58.4601 58.0402 57.8497 58.4627 57.2795C58.6949 57.0019 58.6932 56.8662 58.3176 56.7327C58.0955 56.6988 57.9019 56.72 57.7499 56.756C57.5562 56.7772 57.3909 56.8535 57.239 56.8895C57.032 56.9509 56.8383 56.9722 56.7147 57.0633C56.2772 57.5381 55.8112 57.9577 55.5406 58.4918C54.784 60.0687 54.1391 61.7304 53.4659 63.337C53.2103 63.9665 53.0098 64.5706 52.7676 65.1598C52.7409 65.2404 52.6858 65.2658 52.659 65.3463C52.9231 64.2696 53.1871 63.1929 53.5346 62.1458C53.9239 61.1136 54.3265 60.0412 54.7992 59.0387C55.3137 58.051 55.9266 57.1883 56.5112 56.2706C56.1489 56.0968 55.3325 56.1667 55.0452 56.4698C54.7714 56.7326 54.4975 56.9954 54.3071 57.2879C53.776 58.0446 53.3284 58.8309 52.8524 59.5621C52.5267 60.1217 52.1592 60.6664 51.8335 61.2259C51.426 61.8914 51.1019 62.5866 50.7228 63.3073C50.6409 63.4132 50.5591 63.5192 50.4772 63.6252C50.4494 63.6153 50.4216 63.6054 50.3938 63.5955C50.5825 63.1674 50.7296 62.7244 50.9601 62.3111C51.1355 61.9232 51.366 61.5099 51.5414 61.122C51.7301 60.6939 51.8638 60.2912 52.0943 59.8779C52.5553 59.0513 53.0029 58.265 53.5056 57.4532C53.6276 57.2264 53.833 57.0293 53.9549 56.8025C54.0501 56.6562 54.1587 56.4697 54.2389 56.2281C53.6862 56.3468 53.7061 56.8491 53.3071 57.0674C53.4792 56.4082 53.8199 55.9441 54.3976 55.6092C54.1205 55.6007 53.8851 55.607 53.678 55.6685C53.5261 55.7045 53.3608 55.7808 53.2773 55.7512C53.0403 55.6218 52.9033 55.7533 52.8081 55.8995C52.3438 56.4548 51.9213 57.025 51.5271 57.6502C51.0645 58.3412 50.672 59.1021 50.2511 59.8079C49.8435 60.4734 49.4076 61.0838 49.0418 61.7642C48.7295 62.2835 48.5424 62.8472 48.2718 63.3814C48.2584 63.4216 48.1899 63.4874 48.1348 63.5128C48.3086 62.9893 48.469 62.506 48.7262 62.0121C48.9016 61.6243 49.1187 61.2513 49.2808 60.9037C49.822 59.8354 50.3081 58.7926 50.8776 57.7795C51.4205 56.8469 51.8381 55.8698 52.7298 55.1513C52.3375 54.7868 52.1572 54.7677 51.7298 54.9308C51.6196 54.9817 51.4676 55.0177 51.3842 54.9881C51.1621 54.9542 51.0653 54.9647 50.9567 55.1512C50.2652 56.3912 49.5453 57.576 48.8538 58.8159C48.5699 59.3903 48.4111 60.0092 48.0854 60.5687C47.7597 61.1283 47.5175 61.7175 47.4005 62.3512C47.3737 62.4318 47.2502 62.5229 47.1817 62.5886C47.1539 62.5787 47.1261 62.5688 47.0982 62.5589C47.1233 62.3427 47.1484 62.1266 47.2019 61.9655C47.3712 61.4554 47.5544 60.9502 47.7515 60.45C47.9387 59.8862 48.1391 59.2822 48.4231 58.7078C49.0311 57.4382 49.7092 56.2386 50.359 54.9838C50.3857 54.9033 50.4408 54.8778 50.4676 54.7973C50.5221 54.7267 50.5628 54.651 50.5895 54.5705C50.5061 54.5408 50.3942 54.456 50.3391 54.4814C50.077 54.5683 49.7731 54.6404 49.6094 54.8524C49.3355 55.1152 49.1184 55.4882 48.9013 55.8613C48.2499 56.9804 47.5851 58.1397 47.2542 59.4178C47.2275 59.4983 47.1173 59.5492 47.0488 59.6149C47.4517 57.4169 48.2035 55.4331 49.6514 53.7417C49.416 53.7481 49.2089 53.8095 49.0303 53.9261C48.4241 54.2059 47.7896 54.4305 47.2402 54.8205C46.6625 55.1554 46.058 55.5708 45.6071 56.0858C44.9925 56.8128 44.4614 57.5695 43.9169 58.3664C43.2505 59.3901 42.6676 60.4435 42.0296 61.5224C41.1878 62.9339 40.5546 64.4197 39.9916 65.9754C39.8162 66.3633 39.766 66.7957 39.604 67.1433C39.3078 67.8484 38.9837 68.5436 38.6318 69.2289C38.266 69.9092 37.9553 70.5642 37.5478 71.2297C37.1804 71.7744 36.7428 72.2492 36.3337 72.7791C35.7074 73.682 35.1094 74.64 34.4414 75.5281C34.1691 75.9265 33.8268 76.255 33.5128 76.6386C33.0502 77.3296 32.5742 78.0609 32.0698 78.737C31.3333 79.6907 30.6385 80.6593 29.5799 81.3185C29.0021 81.6534 28.396 81.9331 27.633 81.842C26.8282 81.736 26.3792 81.2612 25.8885 80.7716C25.4261 80.337 25.281 79.7902 25.1492 79.2031C25.1058 79.0526 24.9506 78.8173 24.7971 78.7177C24.4899 78.5184 24.0725 78.3701 23.8739 77.9843C23.8455 77.9292 23.7487 77.9398 23.6652 77.9101C23.1243 77.8529 22.6518 77.7299 22.1777 77.4713C22.0525 77.4268 21.9557 77.4374 21.8305 77.3929C20.8053 77.3886 20.0492 76.7146 19.1978 76.1868L19.1694 76.1317C18.9024 75.8116 18.5284 75.8137 18.1844 76.0066C17.0021 76.7568 15.5026 77.6195 13.3386 78.516C12.6908 78.7809 10.607 79.4358 9.8156 79.2895C8.67698 79.0648 8.41649 79.2873 6.40822 78.1681C5.97585 77.9244 5.63868 77.5343 5.30152 77.1443C4.8525 76.6695 4.55543 76.1587 4.3953 75.5165C4.30636 75.0346 4.22188 74.5394 4.14185 74.0307C3.9367 73.1023 3.73155 72.174 3.58151 71.2202C3.5365 70.934 3.55995 70.5822 3.59841 70.3257C3.92324 66.2541 7.00312 54.0223 8.64852 50.3301C8.74208 50.0482 11.7236 44.5798 12.2097 43.537C12.2097 43.537 12.3065 43.5265 12.3482 43.5413C12.3567 43.0941 13.636 41.2077 14.2705 40.983C13.9451 40.4171 17.0445 37.8271 18.3252 37.2019C18.4905 37.1256 18.8511 37.1638 18.9212 37.2337C19.1482 37.6746 19.5906 37.6068 19.9245 37.7255C20.4955 37.9735 21.2836 37.8485 21.6657 38.5246C21.6936 38.5345 21.7075 38.5395 21.7075 38.5395C22.1131 38.8638 22.477 39.1732 22.9094 39.417C23.6773 39.9151 24.2665 40.5298 24.8424 41.1848C25.6987 42.1195 26.6734 43.6816 26.7017 43.7367C27.7132 44.9068 27.9067 46.0111 28.7046 46.6999C28.9566 46.9246 29.4558 46.967 29.8715 46.9797C30.1487 46.9882 32.2339 47.5945 32.2756 47.6093C32.5461 47.8255 32.807 48.0234 33.0585 48.2028C33.1837 48.2474 33.3089 48.2919 33.4058 48.2813C33.7364 48.1287 34.0286 48.2325 34.3207 48.3364C34.5995 48.4805 34.8333 48.3385 34.7883 48.0524C34.7433 47.7662 34.6982 47.4801 34.5981 47.2194C30.6933 38.1773 26.1462 34.4446 25.2266 32.8571C24.5324 31.5747 23.99 30.2564 23.3509 28.9486C23.0939 28.317 22.8598 27.6634 22.6484 26.988L21.2989 21.9159C21.2634 21.2729 21.2324 20.6166 21.2058 19.9468C21.1604 19.2403 21.1288 18.5387 21.1112 17.8421C21.0596 17.0133 21.3711 12.9819 23.0765 9.67127C23.4557 8.95063 24.0451 8.43986 24.5228 7.84428C25.1925 7.09186 25.9606 6.46451 26.7989 5.9071C27.39 5.53196 29.5123 4.62063 30.7693 5.47273ZM68.1158 96.0993C68.498 96.7755 68.977 97.441 69.77 97.7229C70.2708 97.901 70.7032 98.1447 71.1489 98.3482C71.8868 98.6556 72.6348 98.6514 73.296 98.3462C73.9439 98.0813 74.4916 97.5557 75.0544 97.1254C75.2192 97.0039 75.3884 96.8689 75.5621 96.7206C76.3853 96.0678 77.0834 95.3705 77.6546 94.493C77.7498 94.3468 77.9702 94.245 78.1071 94.1136C78.6415 93.6283 78.9522 92.9733 79.3046 92.3332C79.7656 91.5066 80.2172 90.6616 80.6593 89.7983C80.7812 89.5715 80.8748 89.2896 80.9549 89.048C81.2523 88.4334 81.4945 87.8441 81.7367 87.2549C81.8988 86.9073 81.9773 86.53 82.0976 86.1676C82.2997 85.6991 82.5303 85.2858 82.6773 84.8429C83.0181 84.0035 83.3355 83.1409 83.6295 82.2549C83.7999 81.8353 83.9425 81.4057 84.0572 80.9663C84.2243 80.2753 84.3915 79.5843 84.5586 78.8934C84.6773 78.3953 84.7408 77.9226 84.8594 77.4245C84.8979 77.1681 85.0332 76.901 85.1134 76.6594C85.2103 76.2736 85.3028 75.9013 85.3908 75.5424C85.456 75.2054 85.5629 74.8832 85.6281 74.5462C85.7468 74.0481 85.8654 73.55 85.9424 73.0371C85.9792 72.645 85.9876 72.1978 85.9827 71.7908C86.0596 71.2779 86.1232 70.8052 86.1584 70.2775C86.1818 69.9256 86.1636 69.5589 86.187 69.2071C86.2072 68.5839 86.3242 67.9502 86.2609 67.2974C86.2543 66.7548 86.0675 66.1931 85.9224 65.6463C85.7772 65.0994 85.6872 64.5271 85.4452 63.9909C85.2183 63.55 85.2952 63.0371 84.9163 62.6322C84.7761 62.4923 84.7862 62.1807 84.6727 61.9603C84.6009 61.7547 84.4607 61.6148 84.1718 61.7822C84.1034 61.8479 83.9364 61.7886 83.8396 61.7992C83.7427 61.8098 83.6175 61.7653 83.5624 61.7907C83.0381 61.9645 82.5138 62.1383 81.9762 62.3523C81.5487 62.5155 81.1213 62.6787 80.7088 62.9373C80.3782 63.0899 80.1043 63.3527 79.8305 63.6155C79.4614 64.0246 79.1207 64.4888 78.78 64.9529C78.6981 65.0589 78.6447 65.22 78.5912 65.3811C78.6379 65.4277 78.6752 65.4559 78.7031 65.4658C78.9919 65.2984 79.2808 65.131 79.5413 64.9085C79.8837 64.5799 80.1976 64.1963 80.5817 63.8826C80.7187 63.7512 80.9123 63.73 81.0776 63.6537C81.0965 63.6905 81.1338 63.7187 81.1895 63.7385C81.0826 64.0607 81.0174 64.3977 80.6317 64.5757C80.5214 64.6266 80.4262 64.7728 80.3578 64.8385C79.6865 65.4553 79.0986 66.1017 78.5675 66.8584C78.3086 67.2166 78.1616 67.6596 77.9311 68.0729C77.4077 69.0874 76.8888 70.0885 76.3743 71.0762C76.3209 71.2373 76.2674 71.3984 76.1722 71.5446C76.0503 71.7714 75.9567 72.0533 75.6395 72.1656C75.1987 72.3691 75.2319 72.8312 75.0565 73.2191C74.8009 73.8485 74.5871 74.4929 74.3315 75.1224C74.3048 75.2029 74.2363 75.2686 74.1812 75.294C74.0309 75.4657 73.8389 75.6225 73.7303 75.8091C73.5148 76.3178 73.3828 76.8561 73.1956 77.4199C73.1021 77.7018 72.9117 77.9943 72.8048 78.3165C72.6026 78.7849 72.4706 79.3232 72.2969 79.8467C72.2568 79.9676 72.1332 80.0587 72.0931 80.1795C71.9177 80.5674 71.9793 81.0846 71.8457 81.4873C71.6853 81.9705 71.58 82.4283 71.4747 82.8862C71.4613 82.9264 71.1842 82.918 71.1976 82.8777C71.1258 82.6721 71.0674 82.4262 71.0925 82.21C71.2513 81.5911 71.4234 80.932 71.5821 80.3131C71.688 79.9005 71.7938 79.4879 71.8997 79.0753C71.9531 78.9142 71.9932 78.7934 71.8113 78.6386C71.5041 78.4394 71.7496 78.1215 71.8164 77.9201C71.9351 77.422 72.179 76.9684 72.3527 76.4449C72.5399 75.8811 72.8939 75.3767 72.7471 74.6942C72.7193 74.6843 72.7099 74.6659 72.7188 74.6391C72.9594 73.9142 72.8661 73.0706 73.3287 72.3797C73.6828 71.8752 73.8549 71.216 74.1806 70.6565C74.4646 70.0821 74.8454 69.4971 75.2262 68.9121C75.592 68.2318 75.9995 67.5662 76.407 66.9007C76.6525 66.5828 76.9264 66.32 77.1586 66.0423C77.1719 66.002 77.2821 65.9512 77.2955 65.9109C77.4409 65.3323 77.9919 65.078 78.3059 64.6943C78.6883 64.245 79.029 63.7808 79.4532 63.3463C79.6035 63.1747 79.7955 63.0178 79.9742 62.9012C80.0293 62.8758 80.071 62.8907 80.1261 62.8652C80.7407 62.1382 81.6807 61.9772 82.4789 61.5406C82.878 61.3223 83.3756 61.229 83.9282 61.1104C83.5376 60.8814 83.2021 60.6271 82.8264 60.4935C82.2839 60.3006 81.6862 60.1332 81.1586 60.0356C80.8397 60.0123 80.4807 60.1098 80.1919 60.2773C79.751 60.4807 79.367 60.7944 78.9545 61.0529C78.7207 61.1949 78.4452 61.3221 78.2532 61.479C77.8424 61.8732 77.4599 62.3225 77.0491 62.7168C76.7351 63.1004 76.3377 63.4543 76.0237 63.8379C75.7098 64.2216 75.3407 64.6306 75.0551 65.0694C74.5122 66.0019 73.9694 66.9345 73.4817 67.8417C73.21 68.2854 72.9661 68.7389 72.7501 69.2024C72.1955 70.3109 71.6827 71.4343 71.1982 72.6127C70.9009 73.2274 70.7154 73.9268 70.5299 74.6263C70.2983 75.3243 70.0805 76.0273 69.8767 76.7352C69.7714 77.193 69.6794 77.6106 69.5324 78.0536C69.3335 78.7933 69.0796 79.5584 68.8807 80.2981C68.7621 80.7962 68.7403 81.2837 68.6634 81.7966C68.4544 82.8479 68.2455 83.8992 68.0232 84.9908C67.8326 86.0336 67.6465 87.063 67.4648 88.079C67.3612 88.6724 67.3126 89.2405 67.2641 89.8085C67.2706 90.3511 67.3323 90.8683 67.3388 91.4109C67.3871 91.9683 67.3386 92.5363 67.3869 93.0938C67.4051 93.4605 67.5203 93.8165 67.5519 94.1429C67.6019 94.836 67.8037 95.4931 68.1158 96.0993ZM78.4725 65.8792C78.2371 65.8855 77.9114 66.445 77.9982 66.746C78.1886 66.4535 78.3239 66.1865 78.4725 65.8792ZM70.6746 62.5215C70.152 62.831 69.6443 63.2358 69.3887 63.8653C69.1866 64.3337 68.7758 64.7279 68.4485 65.1518C68.3666 65.2578 68.3683 65.3935 68.3148 65.5545C68.3426 65.5644 68.3704 65.5743 68.3983 65.5842C68.5486 65.4125 68.7273 65.296 68.8358 65.1094C69.3819 64.4482 69.8997 63.7318 70.4875 63.0853C70.7747 62.7823 71.1305 62.4135 71.7399 62.405C71.5762 62.617 71.5094 62.8183 71.3724 62.9497C70.8664 63.4902 70.3738 63.9904 69.9229 64.5054C69.7859 64.6368 69.7191 64.8382 69.5688 65.0099C69.694 65.0544 69.7491 65.029 69.7908 65.0438C69.8743 65.0735 69.9439 65.0982 69.9995 65.118C69.9728 65.1985 69.9505 65.2657 69.9327 65.3193C69.7022 65.7327 69.4851 66.1057 69.2679 66.4787C68.8069 67.3053 68.3042 68.1171 67.8432 68.9437C67.3911 69.7434 66.9668 70.5531 66.5704 71.3727C66.2731 71.9873 65.9206 72.6274 65.7068 73.2717C65.4244 73.9818 65.239 74.6812 64.9984 75.4061C64.9733 75.6223 64.8647 75.8088 64.6293 75.8152C64.3622 75.4951 64.3873 75.2789 64.5911 74.9461C64.7949 74.6134 64.9018 74.2912 65.0638 73.9436C65.3328 73.2739 65.5734 72.549 65.8841 71.894C66.4119 70.8661 66.9397 69.8381 67.4676 68.8101C67.7114 68.3566 68.0254 67.9729 68.2559 67.5596C68.4541 67.1499 68.629 66.7168 68.7804 66.2604C68.712 66.3261 68.6435 66.3918 68.575 66.4575C68.2477 66.8814 67.907 67.3455 67.6214 67.7843C67.1871 68.5303 66.7529 69.2764 66.3737 69.9971C65.7507 71.1713 65.1828 72.32 64.6148 73.4688C64.4528 73.8164 64.3742 74.1937 64.2122 74.5413C64.0251 75.1051 63.7545 75.6392 63.5674 76.203C63.2733 77.089 62.9241 78.0004 62.7002 78.9563C62.4244 80.2089 62.2739 81.506 62.0949 82.7481C61.9779 83.3818 61.9995 84.0198 61.9376 84.6281C61.8773 85.3721 61.7753 86.1012 61.715 86.8452C61.7049 87.1567 61.7783 87.498 61.7682 87.8095C61.8328 87.8025 61.8929 87.8089 61.9485 87.8286C61.847 86.3068 62.1629 84.9334 62.7559 83.5684C62.9128 83.9393 62.7188 85.086 62.5819 85.2174C62.5884 85.76 62.5533 86.2878 62.5732 86.7901C62.5797 87.3327 62.6414 87.8499 62.6897 88.4073C62.7164 88.3268 62.7982 88.2208 62.8935 88.0746C62.9786 88.2399 63.0487 88.3098 63.0503 88.4455C63.0367 89.6112 63.0648 90.7918 63.5771 91.9194C63.719 92.195 63.8742 92.4303 64.0578 92.7207C64.0945 92.7037 64.1312 92.6867 64.168 92.6698C64.2081 92.5489 64.2899 92.443 64.2883 92.3073C64.402 91.4023 64.4874 90.4422 64.6011 89.5371C64.6412 89.4163 64.723 89.3103 64.8884 89.234C64.8783 89.5456 64.8131 89.8826 64.8581 90.1687C64.8979 91.1734 64.5638 92.1801 64.8391 93.1785C65.0259 93.7401 65.1577 94.3273 65.7436 94.6707C65.757 94.6304 65.7704 94.5901 65.7704 94.5901C65.7357 92.8669 65.7979 91.1332 66.1238 89.4481C66.3461 88.3566 66.6936 87.3095 66.916 86.2179C66.9929 85.705 66.9997 85.1222 67.0349 84.5944C67.0616 84.5139 67.0466 84.4185 67.0583 84.2425C67.1568 84.3676 67.1852 84.4227 67.2269 84.4376C67.2736 84.4842 67.3248 84.5174 67.3805 84.5372C67.4356 84.5117 67.4623 84.4312 67.4757 84.3909C67.5392 83.9183 67.5477 83.471 67.5979 83.0387C67.6631 82.7016 67.77 82.3795 67.8218 82.0827C67.9177 81.6065 67.9996 81.1254 68.0676 80.6394C68.1245 79.9993 68.1998 79.3507 68.2934 78.6936C68.3023 78.6668 68.2973 78.635 68.2784 78.5982C68.1134 77.549 68.5176 76.6122 68.8668 75.7008C69.0154 75.3935 69.2192 75.0607 68.9655 74.7004C68.9371 74.6453 68.9639 74.5648 68.9772 74.5245C69.3248 73.4774 69.6022 72.3604 70.0198 71.3833C70.3289 70.5928 70.7915 69.9018 71.1289 69.1663C71.4813 68.5263 71.7787 67.9116 72.0894 67.2567C72.3199 66.8434 72.5787 66.4851 72.851 66.0867C73.6259 64.8764 74.5679 63.7256 75.6366 62.7548C76.3898 62.0321 76.9326 61.0995 77.6991 60.3365C76.704 60.523 75.7223 60.6692 74.7555 60.9108C74.0375 61.1058 73.2945 61.517 72.5481 61.6568C71.8152 61.7564 71.2657 62.1464 70.6746 62.5215ZM62.3757 88.7909C62.4341 89.0368 62.4925 89.2827 62.5225 89.4735C62.5503 89.4833 62.5781 89.4932 62.606 89.5031C62.6116 89.205 62.6356 88.8983 62.678 88.5832C62.5544 88.6744 62.4308 88.7655 62.3757 88.7909ZM50.9971 53.905C51.3727 54.0385 51.7483 54.172 52.1507 54.225C52.6499 54.2675 53.0972 54.6066 53.5847 54.825C53.7238 54.8744 53.8674 54.9105 54.0154 54.9331C54.2375 54.967 54.4596 55.0009 54.695 54.9945C54.241 54.1128 51.6416 53.3687 50.2191 53.7184C50.5246 53.782 50.7466 53.816 50.9971 53.905ZM43.1489 50.9797C42.9119 50.8504 42.7016 50.6406 42.4645 50.5113C41.9203 50.1828 41.3343 49.8394 40.7634 49.5914C40.5263 49.4621 40.1807 49.5193 39.8902 49.5511C39.5029 49.5935 39.1722 49.746 38.7715 49.8287C38.7904 49.8654 38.7954 49.8972 38.7865 49.9241C38.87 49.9537 38.9401 50.0237 38.9818 50.0386C39.4259 50.1064 39.87 50.1742 40.3008 50.2824C40.3842 50.312 40.4827 50.4371 40.5662 50.4667C40.8033 50.596 41.0687 50.7804 41.3325 50.8292C41.9018 50.9415 42.4711 51.0539 43.0537 51.126C43.0716 51.0723 43.1033 51.0235 43.1489 50.9797ZM41.8614 52.1879C41.2436 52.6436 40.9329 53.2985 40.5521 53.8834C40.0276 54.8075 39.517 55.7366 39.0204 56.6706C38.6546 57.351 38.3305 58.0462 38.0198 58.7011C37.8845 58.9682 37.7359 59.2755 37.6423 59.5574C37.5872 59.5828 37.5321 59.6083 37.4636 59.674C37.4069 59.5637 37.3501 59.4535 37.4186 59.3878C37.7427 58.6926 38.0667 57.9974 38.4042 57.262C38.6748 56.7278 38.8619 56.164 39.1325 55.6299C39.4566 54.9347 39.6971 54.2098 40.0913 53.5846C40.5406 52.9339 40.8914 52.1582 41.5226 51.6622C41.536 51.6219 41.5627 51.5414 41.6312 51.4757C41.2973 51.357 40.95 51.2785 40.7029 51.4608C40.222 51.7851 39.7277 52.1496 39.4303 52.7643C39.0913 53.3641 38.627 53.9194 38.2746 54.5595C37.9221 55.1996 37.5697 55.8397 37.3007 56.5095C36.6559 58.1712 36.0945 59.8625 35.4497 61.5242C35.154 62.2745 34.8583 63.0249 34.5209 63.7604C34.4808 63.8812 34.3438 64.0126 34.2203 64.1037C34.1924 64.0938 34.1646 64.0839 34.1368 64.074C34.1635 63.9935 34.1351 63.9384 34.1619 63.8578C34.3312 63.3477 34.5144 62.8426 34.7115 62.3424C34.7784 62.141 34.9003 61.9142 34.9805 61.6726C35.2344 60.9075 35.3916 60.1529 35.6455 59.3877C36.0882 58.1944 36.4892 56.9864 37.002 55.863C37.4748 54.8605 38.1144 53.9173 38.6423 52.8893C38.9813 52.2895 39.3621 51.7045 39.9666 51.2891C40.0351 51.2234 40.0886 51.0623 40.1704 50.9564C40.0168 50.8567 39.8349 50.702 39.6545 50.6829C39.349 50.6193 39.0585 50.6511 38.7696 50.8185C38.2336 51.1682 37.8795 51.6727 37.5672 52.1919C37.2682 52.6709 36.9409 53.0949 36.6553 53.5336C36.3146 53.9978 36.0156 54.4768 35.7584 54.9706C35.284 55.8375 34.7963 56.7447 34.3637 57.6264C33.9483 58.4092 33.5374 59.1786 33.131 59.9345C33.0497 60.0857 32.945 60.2136 32.817 60.3181C32.9239 59.996 33.0442 59.6335 33.1929 59.3262C33.5838 58.4297 34.003 57.5882 34.3806 56.7319C34.5827 56.2635 34.7982 55.7548 35.0421 55.3012C35.3126 54.7671 35.625 54.2479 35.9507 53.6883C36.0459 53.5421 36.1544 53.3556 36.263 53.169C36.862 52.3015 37.4705 51.4523 38.0885 50.6214C38.3473 50.2632 38.3457 50.1276 37.8882 50.1C37.6662 50.0661 37.3623 50.1381 37.1836 50.2547C36.1817 51.024 35.6271 52.1325 34.9891 53.2114C34.6901 53.6904 34.3628 54.1143 34.0772 54.553C33.9686 54.7395 33.8601 54.926 33.7515 55.1125C33.1636 56.1341 32.7008 57.2003 32.3633 58.3109C32.2447 58.809 32.0425 59.2774 31.8538 59.7056C31.8271 59.7861 31.7719 59.8115 31.635 59.9429C31.6868 59.6462 31.7119 59.43 31.7788 59.2287C31.9108 58.6903 32.0562 58.1117 32.2299 57.5882C32.4438 56.9438 32.6994 56.3143 32.9834 55.7399C33.3892 54.9387 33.8652 54.2075 34.2995 53.4614C34.6787 52.7408 35.0578 52.0202 35.4787 51.3144C35.687 50.9682 35.9508 50.6418 36.2703 50.3352C36.571 49.9918 36.5393 49.6654 36.1487 49.4365C35.521 49.0783 34.9967 49.252 34.5875 49.7819C33.6055 51.0536 33.0842 52.6242 32.3259 54.0655C32.082 54.519 31.8382 54.9726 31.636 55.441C31.2452 56.3376 30.8543 57.2342 30.5185 58.1053C30.3837 58.4176 30.249 58.7298 30.1142 59.0421C30.0708 58.8916 29.9857 58.7263 30.0258 58.6055C30.492 57.0603 31.0416 55.5449 31.8283 54.1587C32.1808 53.5186 32.4214 52.7938 32.6903 52.124C32.8162 51.8386 32.9559 51.558 33.1096 51.2825C33.4347 50.6777 33.7738 50.078 34.1268 49.4831C34.222 49.3368 34.3038 49.2309 34.3439 49.11C33.9784 48.6649 33.591 48.7073 33.3471 49.1609C33.1701 49.4131 32.9513 49.6505 32.816 49.9175C32.2727 50.8049 31.7432 51.6972 31.2277 52.5945C31.0656 52.9421 30.8752 53.2345 30.6715 53.5673C30.3608 54.2222 29.9666 54.8475 29.6843 55.5576C29.3752 56.3481 29.0945 57.1938 28.8272 57.9992C28.7737 58.1603 28.762 58.3363 28.6952 58.5376C28.4562 59.3981 28.2039 60.2989 27.9516 61.1997C27.8847 61.4011 27.9014 61.6321 27.8479 61.7932C27.8496 61.9288 27.726 62.02 27.6725 62.181C27.6158 62.0708 27.5173 61.9458 27.5023 61.8504C27.5926 61.2972 27.6278 60.7695 27.7464 60.2714C27.8785 59.733 28.0522 59.2095 28.2126 58.7262C28.3997 58.1624 28.642 57.5732 28.7322 57.02C28.9796 55.7123 29.6594 54.6483 30.1856 53.4847C30.4829 52.87 30.7102 52.1854 31.0492 51.5856C31.415 50.9052 31.8793 50.3499 32.2735 49.7246C32.3637 49.5466 32.4494 49.382 32.5307 49.2308C32.6794 48.9235 32.4508 48.3469 32.1302 48.1879C32.0468 48.1583 31.8948 48.1943 31.8263 48.26C31.4305 48.7496 31.0347 49.2392 30.6807 49.7436C30.2047 50.4749 29.6869 51.1913 29.2944 51.9522C28.8067 52.8593 28.4024 53.7962 27.9431 54.7584C27.8361 55.0806 27.7292 55.4028 27.6089 55.7652C27.5533 55.7454 27.5115 55.7306 27.4837 55.7207C27.7644 54.875 28.0167 53.9742 28.3391 53.1433C28.6749 52.2722 29.0524 51.4159 29.5001 50.6296C29.9611 49.803 30.5623 49.1163 31.0934 48.3596C30.9248 48.1646 30.7846 48.0247 30.5743 47.8149C28.5486 49.8411 26.9986 52.2616 25.5322 54.7117C26.7498 52.3082 27.9392 49.8496 29.853 47.7386C29.6326 47.8403 29.4406 47.9971 29.2736 47.9378C29.135 47.9335 29.0082 47.7534 28.8262 47.5986C28.4539 47.7364 28.2651 48.1645 27.9779 48.4676C27.8409 48.599 27.7457 48.7453 27.6372 48.9318C27.3109 49.4461 26.9802 49.9739 26.6451 50.515C26.2375 51.1806 25.8256 51.8595 25.4091 52.5519C25.2187 52.8444 24.9866 53.122 25.0199 53.5841C25.0499 53.7748 24.8728 54.0271 24.7926 54.2687C24.6211 54.5979 24.4497 54.9272 24.2782 55.2564C24.1429 55.5235 24.0076 55.7905 23.8305 56.0427C23.5449 56.4815 23.5649 56.9838 23.4596 57.4416C23.381 57.8189 23.1772 58.1516 23.0152 58.4992C22.9751 58.6201 22.935 58.7409 22.8949 58.8617C22.7245 59.2814 22.5725 59.6925 22.4388 60.0952C22.2233 60.6039 22.0078 61.1126 21.8341 61.6361C21.7004 62.0389 21.7337 62.5009 21.2662 62.7849C21.2896 62.4331 21.258 62.1067 21.3515 61.8248C21.5386 61.261 21.7675 60.712 21.968 60.108C22.1206 59.742 22.2592 59.3711 22.384 58.9952C22.5193 58.7282 22.6129 58.4462 22.7482 58.1792C22.9519 57.8464 22.9754 57.4946 23.0957 57.1321C23.2143 56.6341 23.4298 56.1254 23.687 55.6316C23.9293 55.0423 24.2266 54.4276 24.5239 53.813C24.9571 52.9765 25.3858 52.1534 25.8101 51.3438C26.0807 50.8096 26.3468 50.289 26.6085 49.7817C26.8256 49.4087 27.0845 49.0505 27.3016 48.6774C27.492 48.3849 27.6546 48.0825 27.7894 47.7703C27.2233 47.9292 26.9378 48.3679 26.6371 48.7113C26.1996 49.1861 25.8038 49.6757 25.3662 50.1505C25.0389 50.5744 24.8501 51.0025 24.6897 51.4858C24.5561 51.8885 24.3523 52.2212 24.1903 52.5688C23.908 53.2788 23.6807 53.9635 23.3984 54.6735C23.223 55.0614 23.0059 55.4344 22.7754 55.8477C22.7219 56.0088 22.6546 56.1649 22.5733 56.3161C22.5482 56.5323 22.5648 56.7633 22.498 56.9647C22.1205 57.821 21.7429 58.6773 21.519 59.6332C21.3619 60.3877 21.0795 61.0978 20.8807 61.8375C20.6701 62.7531 20.4729 63.6285 20.2757 64.5038C20.157 65.0019 19.9966 65.4852 19.8914 65.943C19.7994 66.3605 19.7626 66.7527 19.7124 67.185C19.601 67.8958 19.4895 68.6066 19.378 69.3173C19.3546 69.6691 19.3311 70.021 19.2793 70.3177C19.2943 70.4131 19.3093 70.5085 19.2826 70.589C19.037 70.907 19.1522 71.2631 19.1287 71.6149C19.1069 72.1024 19.0434 72.575 19.0349 73.0223C18.9847 73.4546 18.8928 73.8722 18.9945 74.2686C19.1397 74.8154 19.2163 75.428 19.6921 75.8222C19.9918 74.6381 20.287 73.4674 20.5778 72.3102C20.6423 72.3031 20.6885 72.3045 20.7164 72.3144C20.6528 72.787 20.631 73.2745 20.5674 73.7472C20.4237 74.4615 20.2933 75.1355 20.3299 75.8689C20.3582 75.924 20.4567 76.049 20.4984 76.0638C20.5953 76.0532 20.789 76.0321 20.8157 75.9515C20.8692 75.7904 20.9226 75.6294 20.9343 75.4534C20.9379 74.5993 21.1785 73.8744 21.5159 73.1389C21.5715 73.1587 21.6177 73.1601 21.6545 73.1432C21.5759 73.5205 21.4974 73.8977 21.4605 74.2898C21.3953 74.6268 21.4003 75.0338 21.3634 75.4259C21.3684 75.8328 21.4835 76.189 21.7372 76.5493C21.893 76.4546 22.035 76.355 22.163 76.2505C22.4153 75.3497 22.6944 74.3683 22.9868 73.3467C23.0146 73.3565 23.0563 73.3714 23.112 73.3912C23.0852 73.4717 23.142 73.582 23.0735 73.6477C22.8179 74.2772 22.8261 74.9554 22.7926 75.6188C22.7541 75.8753 22.7858 76.2017 22.8859 76.4624C22.9443 76.7083 23.0444 76.969 23.3916 77.0474C23.5168 77.0919 23.5736 77.2022 23.7555 77.3569C24.2054 76.3763 24.6648 75.414 25.1336 74.4701C25.1614 74.48 25.2032 74.4948 25.2588 74.5146C25.2605 74.6503 25.2755 74.7456 25.2487 74.8262C25.0065 75.4154 24.7092 76.0301 24.5504 76.649C24.4569 76.9309 24.4751 77.2976 24.5485 77.6388C24.6219 77.9801 24.9692 78.0585 25.2747 78.1221C25.3999 78.1666 25.5101 78.1158 25.6353 78.1603C25.8023 78.2196 25.9258 78.1285 25.9376 77.9525C25.9127 77.0433 26.3186 76.2421 26.5576 75.3816C26.5693 75.2056 26.7062 75.0742 26.8014 74.928C26.8293 74.9379 26.8526 74.9612 26.8715 74.9979C26.8582 75.0382 26.8732 75.1336 26.8598 75.1738C26.7529 75.496 26.6593 75.7779 26.6492 76.0895C26.5589 76.6427 26.5655 77.1853 26.5587 77.7682C26.5452 78.1836 26.7288 78.474 27.1095 78.6393C27.2764 78.6987 27.3882 78.7835 27.5418 78.8831C27.9008 78.7856 27.7991 78.3892 27.8793 78.1476C27.9862 77.8254 28.0514 77.4884 28.1583 77.1663C28.1717 77.126 28.2819 77.0751 28.3921 77.0243C28.2066 77.7237 28.1179 78.4126 28.3899 79.1396C28.49 79.4003 28.6987 79.4745 28.8924 79.4533C29.1278 79.4469 29.4467 79.4703 29.5119 79.1333C29.8416 78.1399 30.1529 77.155 30.4459 76.1786C30.4302 76.4132 30.4146 76.6477 30.399 76.8823C30.341 77.432 30.269 77.9767 30.1832 78.5165C30.1464 78.9086 30.1513 79.3155 30.031 79.678C30.046 79.7733 29.7839 79.8603 29.6319 79.8963C29.273 79.9938 28.9273 80.051 28.6101 80.1633C28.3479 80.2502 28.196 80.2862 28.0959 80.0255C27.9808 79.6694 27.6886 79.5656 27.3697 79.5423C26.8839 79.4596 26.398 79.3769 26.0742 78.9466C26.0175 78.8364 25.8372 78.8173 25.6986 78.8131C26.0958 79.5846 26.3694 80.4473 27.316 80.8288C28.3744 81.2952 29.1175 80.884 29.7754 80.3075C30.5018 79.6653 31.1715 78.9129 31.716 78.1159C32.1519 77.5055 32.5611 76.9756 33.0955 76.4903C33.3009 76.2932 33.3661 75.9562 33.5431 75.7039C34.3732 74.4683 35.2032 73.2326 36.1034 72.0669C36.6857 71.3434 37.1935 70.5635 37.6266 69.727C38.1545 68.699 38.6272 67.6965 38.9881 66.6091C39.4425 65.2399 39.9253 63.9258 40.6452 62.741C41.2281 61.6876 41.7977 60.6745 42.409 59.6762C42.6662 59.1824 43.0353 58.7733 43.3209 58.3346C43.6199 57.8556 43.9055 57.4168 44.1911 56.9781C44.3681 56.7259 44.6152 56.5436 44.7923 56.2914C45.4603 55.4033 46.3804 54.7399 47.2872 54.1168C47.4658 54.0003 47.6445 53.8837 47.8516 53.8222C47.5695 53.4068 47.3292 53.0062 46.83 52.9638C46.6496 52.9447 46.4008 52.9913 46.2773 53.0825C45.7964 53.4067 45.3856 53.801 44.933 54.1803C45.0315 54.3054 45.1166 54.4707 45.2017 54.636C45.3002 54.7611 45.3719 54.9667 45.1649 55.0281C45.0129 55.0642 44.7775 55.0705 44.6657 54.9858C44.4837 54.831 44.3703 54.6106 44.1733 54.3605C44.0915 54.4665 43.9679 54.5575 43.8861 54.6635C43.3566 55.5558 42.8689 56.463 42.3811 57.3702C42.164 57.7432 42.0854 58.1205 41.8683 58.4935C41.6528 59.0022 41.3956 59.496 41.1517 59.9496C41.115 59.9666 41.0688 59.9651 41.0131 59.9453C40.9981 59.85 40.9698 59.7949 40.9831 59.7546C41.4943 58.4956 42.0606 57.2112 42.6269 55.9268C42.8424 55.4181 43.1547 54.8988 43.4253 54.3647C43.5072 54.2587 43.589 54.1527 43.7126 54.0616C44.0415 53.7733 44.1902 53.466 44.1436 53.0442C44.0669 52.4317 43.9351 51.8445 43.4444 51.3549C43.3743 51.285 43.3042 51.215 43.2207 51.1853C43.072 51.4927 42.9367 51.7597 42.7731 51.9717C42.7463 52.0522 42.4975 52.0988 42.4558 52.084C42.1904 51.8996 41.9983 52.0565 41.8614 52.1879ZM11.2754 47.6172C11.0583 47.9902 10.771 48.2933 10.791 48.7956C10.8076 49.0266 10.6857 49.2534 10.5637 49.4802C10.0476 50.3322 9.8237 51.2882 9.4328 52.1847C9.28414 52.492 9.05199 52.7697 8.94506 53.0919C8.78467 53.5751 8.66602 54.0732 8.49226 54.5967C8.3586 54.9994 8.18321 55.3873 8.00782 55.7752C7.76723 56.5 7.54054 57.2299 7.32778 57.9646C7.30996 58.0183 7.27823 58.0671 7.23258 58.1109C7.05883 58.6344 6.8567 59.1028 6.69631 59.5861C6.32425 60.8945 5.98446 62.1995 5.67696 63.5008C5.54494 64.0392 5.49637 64.6073 5.41945 65.1202C5.22888 66.163 5.06615 67.2157 4.93123 68.2783C4.81421 68.912 4.76728 69.6157 4.692 70.2643C4.4697 71.3559 4.77333 72.4093 4.88327 73.4839C4.93156 74.0413 5.27038 74.567 5.51235 75.1032C5.57072 75.3491 5.68421 75.5695 5.83943 75.8048C5.66455 73.9417 5.89204 72.1316 6.21636 70.3109C6.2731 70.4212 6.38492 70.506 6.38656 70.6416C6.37974 71.2245 6.33121 71.7925 6.3795 72.35C6.35932 72.9731 6.3525 73.556 6.40079 74.1134C6.50583 74.7811 6.61087 75.4487 6.771 76.091C6.90276 76.6781 7.19984 77.1889 7.67558 77.5831C7.94101 77.7676 8.2749 77.8863 8.56705 77.9902C8.81747 78.0792 9.123 78.1428 9.51199 78.236C9.39851 78.0156 9.34176 77.9054 9.24328 77.7803C8.55394 76.9049 8.33379 75.8812 8.26558 74.8214C8.23746 73.6408 8.04239 72.4009 8.05602 71.2352C8.09801 70.1245 8.2786 69.0181 8.41744 67.8969C8.47771 67.1529 8.59308 66.3835 8.70846 65.6141C8.77201 65.1415 8.89066 64.6434 9.00931 64.1453C9.04777 63.8888 8.9894 63.6429 9.02786 63.3865C9.07313 62.5471 9.1735 61.6824 9.26051 60.8579C9.35525 60.2913 9.47337 59.748 9.61485 59.228C9.75859 58.5137 9.97244 57.8694 10.1579 57.1699C10.2499 56.7524 10.3 56.32 10.4754 55.9321C10.6715 55.3415 10.8953 54.7607 11.147 54.1898C11.4293 53.4798 11.7818 52.8397 12.0507 52.17C12.2662 51.6613 12.3565 51.1081 12.5586 50.6397C12.7741 50.131 13.0731 49.6519 13.3587 49.2132C13.8197 48.3866 14.2763 47.5734 14.7284 46.7737C14.7417 46.7334 14.7551 46.6931 14.7684 46.6529C14.7184 46.3349 14.6684 46.017 14.6184 45.6991C14.5767 45.6842 14.5349 45.6694 14.5216 45.7097C14.0873 46.4557 13.6113 47.1869 13.2187 47.9479C13.0283 48.2403 12.8914 48.3718 12.5425 48.1577C12.4942 47.6002 12.8499 47.2314 13.1355 46.7927C13.4429 46.2416 13.7825 45.687 14.1544 45.1289C14.2902 44.907 14.4261 44.6852 14.5619 44.4633C14.5341 44.4535 14.4968 44.4252 14.4501 44.3786C14.194 44.5877 13.9424 44.7834 13.6953 44.9657C13.6764 44.9289 13.653 44.9056 13.6252 44.8957C13.9703 44.4181 14.3066 43.9674 14.6339 43.5435C14.4653 43.3485 14.3385 43.1683 14.1699 42.9733C14.0341 43.1951 13.8982 43.417 13.7624 43.6388C13.1912 44.5163 12.6483 45.4489 12.1055 46.3815C11.8332 46.7799 11.5059 47.2039 11.2754 47.6172ZM12.4617 43.7617C12.5085 43.8084 12.5596 43.8416 12.6153 43.8614C12.76 43.6127 12.8864 43.3724 12.9945 43.1407C12.8308 43.3527 12.6532 43.5597 12.4617 43.7617ZM13.0496 43.1153C13.1047 43.0899 13.2015 43.0792 13.2149 43.039C13.4966 42.6589 13.7827 42.2654 14.0733 41.8584C14.0867 41.8182 14.0583 41.763 14.07 41.5871C13.5073 42.0174 13.25 42.5112 13.0496 43.1153ZM21.8174 39.614C21.8592 39.6289 21.9293 39.6989 22.0127 39.7285C22.0216 39.7017 22.0445 39.6798 22.0812 39.6628C21.7874 39.4233 21.507 39.1435 21.1731 39.0248C20.5888 38.8171 20.0045 38.6093 19.4352 38.497C18.7273 38.3804 18.1779 38.7704 17.712 39.19C17.3145 39.544 16.9588 39.9128 16.6165 40.2413C16.548 40.307 16.5213 40.3875 16.5647 40.538C17.2109 40.1375 17.8437 39.7771 18.5033 39.3363C18.5467 39.4868 18.6034 39.597 18.6185 39.6924C18.2711 39.9891 17.9238 40.2858 17.5764 40.5825C17.5953 40.6193 17.6187 40.6426 17.6465 40.6525C17.6883 40.6674 17.7851 40.6568 17.8402 40.6313C18.3629 40.3219 18.8438 39.9976 19.4082 39.703C19.5735 39.6267 19.8506 39.6352 20.0443 39.614C20.0994 39.5886 20.1829 39.6183 20.2246 39.6331C20.4868 39.5462 20.7623 39.4191 21.0528 39.3873C21.2882 39.3809 21.567 39.525 21.8174 39.614ZM27.5327 46.0132C26.7994 44.9421 26.0433 43.8928 25.2644 42.8655C24.8605 42.3017 24.4198 41.7549 23.9425 41.225C23.7455 40.9749 23.4517 40.7353 23.1445 40.5361C22.7255 40.2521 22.243 40.4407 21.8706 40.5785C21.3463 40.7523 20.8371 41.0214 20.4396 41.3754C19.8635 41.8459 19.3992 42.4012 18.8381 42.9671C18.6059 43.2447 18.3187 43.5478 18.0732 43.8657C17.8277 44.1837 17.6657 44.5313 17.4619 44.8641C17.2715 45.1566 17.0717 45.4307 16.8623 45.6864C16.6541 46.0326 16.432 46.3738 16.1959 46.7101C15.8875 47.1708 15.5791 47.6314 15.2707 48.092C15.0892 48.3577 14.9077 48.6233 14.7262 48.889C14.5814 49.1377 14.4411 49.3729 14.3053 49.5948C14.2507 49.6654 14.2145 49.7276 14.1967 49.7813C13.9529 50.2349 13.7229 50.6934 13.5069 51.1569C13.4384 51.2226 13.4684 51.4133 13.4417 51.4938C13.0742 52.0386 12.9856 52.7274 12.6181 53.2722C12.3743 53.7257 12.2139 54.209 12.2622 54.7664C12.2772 54.8618 12.2371 54.9826 12.2104 55.0631C12.0099 55.6672 11.7676 56.2564 11.5672 56.8605C11.3132 57.6256 11.0592 58.3908 10.8337 59.2111C10.5546 60.1924 10.359 61.2034 10.1217 62.1996C9.93787 63.0347 9.75848 63.8563 9.58355 64.6646C9.49326 65.2178 9.44471 65.7858 9.35443 66.339C9.2686 66.8788 9.19221 67.437 9.1253 68.0135C9.03165 68.6705 8.96138 69.3509 8.91447 70.0546C8.83919 70.7032 8.76391 71.3517 8.78546 71.9897C8.75028 72.5175 8.81193 73.0347 8.91533 73.5667C9.16667 74.4965 9.46421 75.4277 9.80793 76.3603C9.96479 76.7312 10.287 77.0258 10.554 77.3459C10.7927 77.6108 11.1266 77.7295 11.5006 77.7274C12.0132 77.7296 12.5257 77.7317 12.9933 77.4477C13.1169 77.3565 13.3239 77.2951 13.4374 77.5155C13.4657 77.5706 13.6327 77.63 13.7429 77.5791C13.9499 77.5177 14.1837 77.3756 14.4041 77.2739C14.6335 77.1453 14.8722 77.0351 15.1205 76.9433C15.46 76.7639 15.7995 76.5844 16.139 76.405C16.7268 76.1337 17.3051 75.844 17.874 75.536C18.2046 75.3834 18.2848 75.1418 18.2665 74.7751C18.1715 73.7959 18.2152 72.8209 18.4809 71.8798C18.668 71.316 18.6882 70.6929 18.7367 70.1248C18.8303 69.4678 18.924 68.8107 19.0176 68.1537C19.1197 67.4246 19.1799 66.6806 19.2953 65.9112C19.3739 65.5339 19.5075 65.1312 19.6412 64.7285C19.7549 64.1986 19.8685 63.6687 19.9822 63.1389C20.1526 62.344 20.3365 61.5089 20.5487 60.7289C20.6807 60.1906 20.938 59.6967 21.1251 59.1329C21.232 58.8108 21.3389 58.4886 21.4876 58.1813C21.6747 57.6175 21.9587 57.0431 22.1458 56.4793C22.2544 56.2928 22.2377 56.0618 22.3179 55.8202C22.5685 55.1589 22.8375 54.4891 23.1248 53.8108C23.4756 53.0351 23.9232 52.2487 24.2323 51.4582C24.5547 50.6273 25.0307 49.8961 25.5067 49.1649C26.0378 48.4082 26.7509 47.8063 27.282 47.0496C27.3772 46.9034 27.5976 46.8016 27.8314 46.6596C27.7463 46.4943 27.6879 46.2484 27.5327 46.0132ZM45.214 52.2091C44.8132 52.2918 44.7598 52.4529 44.8331 52.7942C44.8648 53.1206 44.8413 53.4724 44.8313 53.784C44.8869 53.8037 44.9286 53.8186 44.9565 53.8285C45.2571 53.4851 45.5994 53.1566 45.7047 52.6988C45.7833 52.3215 45.6431 52.1816 45.214 52.2091Z" fill="#101828"/>
<path id="&#60;Path&#62;_2" d="M41.5632 65.9113C41.5612 65.7741 41.5453 65.6776 41.5871 65.5553C42.0074 64.4693 42.5153 63.4132 42.7164 62.2525C42.9335 61.1884 43.4574 60.2288 44.0989 59.3547C44.2562 59.1807 44.4017 59.1847 44.5929 59.3409C44.4801 59.5756 44.3672 59.8103 44.2543 60.045C44.0013 60.6417 43.6468 61.2493 43.3798 61.8867C43.099 62.565 42.9357 63.3288 42.6548 64.007C42.3739 64.6853 42.0194 65.2928 41.6648 65.9004C41.6263 65.9176 41.5924 65.9213 41.5632 65.9113Z" fill="#101828"/>
<path id="&#60;Path&#62;_3" d="M44.637 61.371C44.6649 61.2895 44.8102 61.2936 44.8819 61.227C44.931 61.2741 44.9801 61.3212 45.0293 61.3683C44.4774 62.6973 43.9209 64.04 43.3597 65.3962C43.3013 65.3763 43.2429 65.3564 43.1845 65.3364C43.2263 65.2141 43.2382 65.0361 43.2799 64.9138C43.4729 64.2058 43.6798 63.457 43.9604 62.7789C44.1275 62.2897 44.3822 61.8303 44.637 61.371Z" fill="#101828"/>
<path id="&#60;Path&#62;_4" d="M49.4921 65.528C49.3712 65.1681 49.7763 64.1234 50.1215 63.9684C50.0276 64.1486 49.9482 64.3339 49.8833 64.5241C49.7986 64.6771 49.7384 64.8537 49.7026 65.0539C49.647 65.2169 49.635 65.3949 49.5794 65.5579C49.5503 65.5479 49.5212 65.538 49.4921 65.528Z" fill="#101828"/>
<path id="&#60;Path&#62;_5" d="M56.4491 85.3385C56.3017 85.7728 56.1781 86.1848 56.0781 86.5748C55.884 86.1442 56.1051 85.4928 56.4491 85.3385Z" fill="#101828"/>
<path id="&#60;Path&#62;_6" d="M57.4159 66.8377C57.2674 67.1804 57.1236 67.5096 56.9843 67.8251C56.9646 67.788 56.9258 67.7595 56.868 67.7395C57.0072 67.4239 57.1464 67.1084 57.2857 66.7928C57.3435 66.8128 57.3869 66.8278 57.4159 66.8377Z" fill="#101828"/>
<path id="&#60;Path&#62;_7" d="M37.5694 79.0153C37.5989 79.0253 37.6284 79.0354 37.658 79.0455C37.5838 79.2628 37.5096 79.4801 37.4354 79.6974C37.4059 79.6873 37.3763 79.6772 37.3468 79.6671C37.421 79.4498 37.4952 79.2326 37.5694 79.0153Z" fill="#101828"/>
<path id="&#60;Path&#62;_8" d="M43.8672 52.3705C43.869 52.5076 43.8709 52.6447 43.7999 52.7112C43.5019 53.0182 43.1882 53.2287 42.9336 53.5505C42.5651 53.9697 42.2355 54.4174 41.9446 54.8936C41.5635 55.4449 41.2554 56.0668 40.904 56.6738C40.6986 57.0884 40.4931 57.503 40.2877 57.9176C40.0783 58.3915 39.725 58.8614 39.6457 59.38C39.4305 60.4889 39.1095 61.5765 38.6827 62.6429C38.5425 62.9131 38.3451 63.2091 38.2048 63.4794C38.1852 63.4422 38.1464 63.4138 38.0886 63.3939C38.3905 62.3148 38.6826 61.2173 38.9648 60.1012C39.117 59.6531 39.1963 59.1344 39.4057 58.6605C39.7679 57.7842 40.1689 56.9365 40.6087 56.1172C41.0155 55.3473 41.3928 54.5217 41.9159 53.8373C42.2969 53.2859 42.8809 52.85 43.4215 52.3991C43.5064 52.2918 43.7232 52.3664 43.8672 52.3705Z" fill="#101828"/>
<path id="&#60;Path&#62;_9" d="M42.936 58.0069C43.1319 57.7115 43.3279 57.416 43.4808 57.1057C43.6749 56.6732 43.8552 56.2815 44.0493 55.8491C44.1335 55.7421 44.3333 55.7205 44.4469 55.6691C44.4488 55.8061 44.5368 55.973 44.4663 56.0394C44.1788 56.606 43.8672 57.149 43.5314 57.6685C43.3922 57.9383 43.1669 58.1781 42.9847 58.4328C42.956 58.4228 42.9129 58.4079 42.8555 58.3879C42.8967 58.2659 42.8948 58.1289 42.936 58.0069Z" fill="#101828"/>
<path id="&#60;Path&#62;_10" d="M31.208 61.0279C31.2274 61.0649 31.2513 61.0883 31.2797 61.0983C31.1505 61.2945 31.007 61.4858 30.8493 61.672C30.83 61.635 30.8061 61.6115 30.7777 61.6015C30.9069 61.4053 31.0504 61.2141 31.208 61.0279Z" fill="#101828"/>
<path id="&#60;Path&#62;_11" d="M28.2301 76.8988C28.1569 77.1156 28.0936 77.3509 28.0401 77.6048C27.9065 77.2859 27.9731 76.9457 28.2301 76.8988Z" fill="#101828"/>
<path id="&#60;Path&#62;_12" d="M29.9312 60.1151C29.9704 59.8561 29.9958 59.6379 30.035 59.3789C30.1215 59.4089 30.1648 59.4239 30.208 59.4389C30.1256 59.6829 30.0477 59.9132 29.9744 60.1301C29.9744 60.1301 29.96 60.1251 29.9312 60.1151Z" fill="#101828"/>
<path id="&#60;Path&#62;_13" d="M74.0711 84.695C73.6673 84.0543 73.5037 83.4071 73.6927 82.702C73.8152 82.3366 73.8952 81.9563 73.9751 81.576C74.0499 80.7855 74.2814 80.0952 74.5691 79.3794C74.7609 78.9021 74.9482 78.4384 75.1309 77.9882C75.2143 77.8814 75.2552 77.7596 75.3676 77.7082C75.5362 77.6312 75.7201 77.6503 75.9313 77.5883C75.9194 77.7656 75.9637 77.9172 75.9092 78.0796C75.8139 78.3638 75.676 78.6331 75.5807 78.9173C75.528 79.2164 75.5178 79.5305 75.465 79.8296C75.4004 80.3061 75.3222 80.8231 75.3001 81.3145C75.2593 81.4363 75.3325 81.6435 75.4041 81.714C75.7175 81.9146 76.2965 81.8907 76.5622 81.6663C76.7949 81.4454 76.985 81.2095 77.1326 80.9588C77.4101 80.557 77.6025 80.1253 77.8374 79.7085C78.4878 78.6207 78.8112 77.3729 79.1209 76.1657C79.2026 75.9221 79.1992 75.6486 79.1957 75.3751C79.2485 75.076 79.4886 75.0694 79.6589 75.1292C79.7441 75.159 79.831 75.3256 79.8463 75.4217C79.877 75.614 79.8651 75.7913 79.8532 75.9687C79.8039 76.5412 79.7972 77.1288 79.6628 77.6715C79.5403 78.415 79.3565 79.1522 79.1114 79.883C78.9128 80.5696 78.6904 81.2327 78.4441 81.8724C78.2245 82.3852 77.9334 82.8277 77.6712 83.3256C77.6996 83.3355 77.7138 83.3405 77.7138 83.3405C77.6184 83.6247 77.5095 83.9495 77.2864 84.1889C77.0225 84.5501 76.6309 84.8665 76.2818 85.1979C75.8629 85.5955 74.8598 85.6068 74.4169 85.2246C74.2738 85.0837 74.158 84.8616 74.0711 84.695Z" fill="#101828"/>
<path id="&#60;Path&#62;_14" d="M68.7585 92.5243C68.767 92.0762 68.8861 91.577 68.9364 91.1437C68.9465 90.8315 68.9852 90.5745 69.0237 90.3175C69.1278 89.7227 69.3156 89.1578 69.4196 88.563C69.5236 87.9683 69.5857 87.3587 69.6898 86.7639C69.7133 86.4113 69.8491 86.1438 69.9145 85.806C69.9424 85.8159 69.9704 85.8259 69.9983 85.8358C69.9999 85.9717 69.9882 86.148 69.9898 86.2839C69.9797 86.5962 69.9143 86.9339 69.9042 87.2461C69.8672 87.6391 69.914 88.0618 69.919 88.4696C69.9072 88.6459 69.8267 88.888 69.815 89.0643C69.7646 89.4976 69.7276 89.8906 69.6907 90.2835C69.585 90.7423 69.4375 91.1862 69.4993 91.7045C69.5295 91.8957 69.4071 92.1229 69.3266 92.3651C69.3852 92.6115 69.3751 92.9237 69.4622 93.2253C69.6514 93.9241 69.7853 94.6484 70.127 95.3111C70.4703 96.1098 71.226 96.5134 72.0706 96.2266C72.4309 96.1289 72.6639 95.8506 73.0108 95.7933C73.7448 95.5575 74.2677 95.1115 74.7202 94.5954C75.3521 93.9624 75.8432 93.1893 76.3763 92.431C76.7719 91.8044 77.1256 91.163 77.4927 90.4811C77.6419 90.1732 77.7627 89.81 77.9538 89.5168C77.994 89.3958 78.118 89.3044 78.242 89.2131C78.2889 89.2598 78.3264 89.2881 78.3543 89.298C78.2201 89.7016 78.1279 90.12 77.9519 90.5087C77.8027 90.8167 77.5831 91.0546 77.4339 91.3626C77.1891 91.8172 77.0282 92.3014 76.7834 92.756C76.5387 93.2105 76.2101 93.6353 75.8816 94.0601C75.4441 94.6718 74.9647 95.2687 74.5976 95.9505C74.0378 96.7895 73.1378 97.1017 72.2245 97.4543C71.643 97.654 71.1688 97.5308 70.6376 97.2971C70.5538 97.2674 70.4265 97.0868 70.4534 97.0061C70.4232 96.815 70.4769 96.6535 70.239 96.524C70.0714 96.4645 69.9156 96.2287 69.7883 96.0481C69.3075 95.3812 68.9793 94.6781 68.8722 93.8731C68.8253 93.4504 68.75 92.9725 68.7585 92.5243Z" fill="#101828"/>
<path id="&#60;Path&#62;_15" d="M82.634 74.9693C82.8384 74.2219 83.0428 73.4745 83.2042 72.7122C83.2712 72.3718 83.252 72.0014 83.3189 71.661C83.4869 70.31 83.7408 68.9889 83.895 67.6785C84.039 66.6829 83.9834 65.7089 83.4285 64.7891C83.3561 64.7186 83.4111 64.5558 83.4231 64.3781C83.5522 64.4229 83.7812 64.4569 83.8398 64.5681C84.0742 65.0131 84.3809 65.5286 84.488 66.0658C84.5658 66.5474 84.5299 67.0805 84.5078 67.5729C84.4206 68.5427 84.3041 69.457 84.1445 70.3563C84.0931 70.793 83.9556 71.1999 83.8612 71.6218C83.7273 72.3027 83.6365 72.9986 83.4889 73.7202C83.3173 74.7972 82.7877 75.7954 82.3149 76.7679C82.2443 76.8343 82.1738 76.9008 82.0464 76.993C82.0721 76.7746 82.0996 76.6932 82.1409 76.5711C82.2765 76.0272 82.4553 75.4983 82.634 74.9693Z" fill="#101828"/>
<path id="&#60;Path&#62;_16" d="M79.2398 74.2062C79.2583 74.5742 79.0648 74.7316 78.6023 74.5678C78.6443 74.5827 78.5602 74.5529 78.5181 74.538C78.1447 74.8123 77.6855 74.9208 77.4534 75.3356C77.3861 75.5376 77.2481 75.6695 77.1523 75.8163C77.0698 75.9226 76.9605 76.1098 76.7351 75.9396C76.5383 75.8247 76.5921 75.6631 76.6594 75.461C76.7822 75.2334 76.9605 74.9802 77.1253 74.7675C77.5509 74.1954 77.9193 73.5125 78.8276 73.6084C78.9252 73.5978 79.08 73.6978 79.1372 73.8084C79.1944 73.919 79.2381 74.0701 79.2398 74.2062Z" fill="#101828"/>
<path id="&#60;Path&#62;_17" d="M20.266 45.7412C19.7661 46.5196 19.4368 47.3578 19.0223 48.166C18.8141 48.5018 18.5497 48.8631 18.2852 49.2246C18.1743 49.4127 17.9763 49.4343 17.8038 49.2377C18.0547 48.9169 18.3055 48.5962 18.4846 48.2049C18.8156 47.5036 19.0748 46.7317 19.4484 46.0453C19.8221 45.3589 20.2811 44.7024 20.7401 44.0459C21.2826 43.2824 22.1547 42.8158 22.9415 42.3193C23.0115 42.253 23.1822 42.3128 23.2539 42.3833C23.2965 42.3982 23.242 42.5607 23.2147 42.6419C23.1874 42.7231 23.0747 42.7745 23.0184 42.8002C22.6822 43.0912 22.2744 43.3116 21.9672 43.6581C21.3666 44.3104 20.7522 45.0034 20.266 45.7412Z" fill="#101828"/>
<path id="&#60;Path&#62;_18" d="M19.7257 49.1362C19.6973 49.1262 19.6689 49.1163 19.6405 49.1063C19.7086 48.9033 19.7631 48.7408 19.8602 48.5933C20.3593 47.8153 20.8448 47.0778 21.3729 46.3553C21.7341 45.8465 22.252 45.4381 22.5706 44.9144C22.8193 44.457 23.1549 44.1662 23.5042 43.8348C23.6575 43.6617 23.8535 43.5034 24.1671 43.7041C23.5436 44.7108 22.5911 45.4208 21.8825 46.3977C21.201 47.2934 20.4633 48.2148 19.7257 49.1362Z" fill="#101828"/>
<path id="&#60;Path&#62;_19" d="M21.6535 48.7245C21.978 48.3241 22.2838 47.9323 22.5708 47.5491C23.1086 46.8909 23.6418 46.2462 24.1705 45.615C24.2675 45.4675 24.4649 45.4461 24.676 45.384C24.6658 45.6981 21.868 48.9358 21.4885 49.0749C21.5248 48.9667 21.5798 48.8498 21.6535 48.7245Z" fill="#101828"/>
<path id="&#60;Path&#62;_20" d="M72.6485 64.737C72.2958 65.0692 71.9001 65.3865 71.5767 65.7744C71.1965 66.188 70.9024 66.6315 70.6083 67.075C70.0384 67.9077 69.4874 68.7319 68.9554 69.5474C68.3959 70.4444 67.8462 71.3598 67.3062 72.2938C67.0258 72.6966 66.7455 73.0994 66.5942 73.547C66.3725 74.0611 66.2936 74.5792 66.0718 75.0932C65.8244 75.8257 65.5339 76.5432 65.2003 77.2457C65.1316 77.4492 64.8907 77.5929 64.6928 77.7516C64.6223 77.818 64.4931 77.7732 64.407 77.7434C64.364 77.7285 64.3622 77.5914 64.3897 77.5101C64.6216 76.6813 64.9103 75.8268 65.1852 75.013C65.4757 74.2955 65.823 73.5522 66.1566 72.8497C66.4156 72.2728 66.7033 71.7059 67.0197 71.1489C67.312 70.5684 67.6336 70.0435 67.9552 69.5187C68.2493 69.0752 68.5434 68.6317 68.7945 68.1733C68.9475 67.8627 69.0713 67.4965 69.1382 67.156C69.2207 66.9119 69.3773 66.8753 69.5926 66.9499C69.6225 67.0512 69.6667 67.1575 69.7253 67.2687C70.0679 67.2512 70.1348 66.9107 70.3034 66.6965C70.7059 66.1693 71.1273 65.6336 71.5677 65.0894C71.7225 64.9158 71.9204 64.7571 72.089 64.5428C72.23 64.4099 72.4709 64.2662 72.5397 64.0628C72.6927 63.7522 72.9079 63.8268 73.1644 63.7794C73.2714 64.3166 72.8739 64.4969 72.6485 64.737Z" fill="#101828"/>
</g>
</svg>
