<svg width="152" height="89" viewBox="0 0 152 89" fill="none" xmlns="http://www.w3.org/2000/svg">
<g id="&#60;Group&#62;" opacity="0.5">
<path id="&#60;Compound Path&#62;" fill-rule="evenodd" clip-rule="evenodd" d="M44.7409 13.1182C44.9234 12.8992 45.0695 12.7897 45.1425 12.6436C45.9092 11.3292 46.3108 9.94181 46.0553 8.37184C45.9092 7.27652 45.6536 6.25421 45.179 5.30493C44.8139 4.61122 44.4123 3.91752 43.9376 3.26033C43.5725 2.8222 43.0979 2.42058 42.5867 2.09198C41.5644 1.43478 40.5056 0.923637 39.3008 0.704572C38.2785 0.558529 37.2562 0.558515 36.2339 0.850602C35.5401 1.06967 34.8464 1.06968 34.1527 1.32526C33.313 1.61735 32.6193 2.05546 31.9986 2.67614C31.6335 3.04125 31.1954 3.36986 30.7937 3.73496C30.1731 4.24612 29.8079 4.97633 29.4428 5.67003C28.7856 6.98442 28.7491 8.48138 28.4205 9.9053C28.2015 10.9276 28.3475 11.9499 28.238 12.9722C28.1285 13.7754 27.9094 14.5422 27.7633 15.3454C27.6538 15.82 27.5443 16.2582 27.4713 16.7328C27.2522 18.1202 26.8871 19.5076 26.4124 20.895C26.1204 21.8443 25.7553 22.7571 25.1711 23.5969C24.952 23.8889 24.879 24.2541 24.6599 24.5096C24.0758 25.2764 23.3455 25.8605 22.4328 26.1161C21.9216 26.2986 21.374 26.2621 20.8263 26.1161C20.7168 26.0796 20.5707 26.0066 20.4977 25.897C20.4247 25.824 20.3882 25.678 20.4247 25.5684C20.4612 25.4954 20.6072 25.4224 20.7168 25.4589C20.9358 25.4589 21.1549 25.5319 21.4105 25.5684C22.1772 25.678 22.8709 25.4589 23.4551 24.9477C24.2948 24.2175 24.806 23.2682 25.2806 22.2825C25.9013 20.8585 26.2664 19.3616 26.668 17.8647C27.1062 16.2582 27.3617 14.6152 27.6903 13.0087C27.7268 12.8262 27.7268 12.6071 27.7268 12.4245C27.6903 11.5118 27.8729 10.6355 27.9459 9.72275C28.0189 8.44487 28.238 7.16697 28.6396 5.96212C29.0047 4.9033 29.4794 3.77148 30.5747 3.07777C31.1223 2.71267 31.524 2.165 32.0716 1.7999C32.7288 1.36177 33.3495 0.850602 34.1527 0.668048C34.6274 0.558515 35.1385 0.448996 35.6132 0.339464C36.0513 0.266442 36.4894 0.229918 36.9276 0.120385C38.0594 -0.13519 39.1912 0.0473683 40.25 0.375966C41.3454 0.668052 42.3677 1.17921 43.2439 1.90942C43.2804 1.94594 43.3169 2.01895 43.3535 2.01895C44.5583 2.56661 45.179 3.58893 45.6536 4.72076C46.1283 5.8526 46.4934 6.98442 46.6394 8.22579C46.822 9.86878 46.6759 11.4753 45.6171 12.8627C45.5441 12.9722 45.4711 13.1182 45.3981 13.2278C45.252 13.4103 45.252 13.5929 45.3981 13.8119C45.6171 14.0675 45.7997 14.3961 45.9822 14.6517C46.4204 15.2359 46.822 15.7835 47.2236 16.3677C47.5887 16.8423 47.8808 17.3535 48.2094 17.8647C48.9031 18.7774 49.4873 19.7632 50.254 20.603C50.9112 21.3332 51.4224 22.1729 52.0065 22.9762C52.4447 23.5603 52.9193 24.108 53.3574 24.6557C53.7956 25.2398 54.1972 25.8605 54.6353 26.4447C55.5602 27.7104 56.4974 28.9761 57.4466 30.2418C57.5927 30.4244 57.7752 30.6069 57.9578 30.826C58.0673 30.7165 58.1403 30.6434 58.1403 30.6069C58.615 29.0369 59.4547 27.7226 60.4405 26.4447C61.0612 25.7145 61.5724 24.8747 62.193 24.1445C62.8137 23.3778 63.5074 22.6476 64.2011 21.9539C64.9679 21.1141 65.7346 20.2744 66.5743 19.5076C67.2681 18.887 68.0713 18.3758 68.8015 17.8281C69.0936 17.5726 69.3492 17.3535 69.6413 17.0979C69.8603 16.9032 70.0915 16.7085 70.335 16.5138C71.0652 15.8566 71.8684 15.3089 72.5621 14.6152C73.84 13.3373 75.0449 12.0229 76.3227 10.745C76.9799 10.0879 77.7101 9.50368 78.4038 8.91951C78.9515 8.48137 79.5357 8.11626 80.0833 7.75115C80.6675 7.31302 81.3612 7.16698 82.0549 7.13047C82.4566 7.09396 82.8947 7.27651 83.2963 7.38605C83.5884 7.45907 83.8805 7.64162 84.2091 7.75115C85.2314 8.07975 86.1076 8.73695 86.9839 9.28461C88.0792 9.97832 89.1015 10.7085 90.1968 11.3292C90.8175 11.7308 91.5843 11.9134 92.2414 12.242C92.8986 12.6071 93.6289 12.6071 94.3226 12.7896C95.3814 13.0817 96.4402 13.3373 97.499 13.5564C98.1562 13.7024 98.7769 13.812 99.3976 14.104C100.091 14.3961 100.748 14.7612 101.296 15.2724C101.515 15.4549 101.771 15.601 102.063 15.82C102.172 15.3454 102.282 14.9438 102.355 14.5787C102.574 13.5564 102.793 12.5341 102.976 11.5118C103.122 10.8181 103.231 10.0878 103.341 9.39414C103.596 8.18928 103.815 6.94792 104.144 5.74306C104.363 4.97633 104.546 4.13657 104.984 3.40636C105.203 3.07776 105.349 2.67615 105.422 2.27453C105.531 1.79989 105.787 1.43477 106.043 1.03316C106.554 0.266429 107.357 0.193407 107.941 0.850602C108.306 1.28873 108.525 1.76339 108.452 2.34756C108.27 4.20961 108.051 6.03514 107.539 7.78766C106.955 10.0148 106.371 12.2785 105.933 14.5422C105.823 15.0898 105.604 15.6375 105.495 16.2217C105.385 16.6233 105.349 17.0614 105.312 17.3535C106.225 17.9377 107.065 18.4488 107.941 18.96C108.014 19.033 108.124 19.106 108.233 19.1425C109.511 19.6902 110.789 20.3474 112.176 20.676C113.089 20.9316 113.965 21.2967 114.842 21.6253C116.266 22.1364 117.616 22.7571 119.04 23.1952C120.391 23.5968 121.56 24.4001 122.838 24.9112C123.823 25.3494 124.809 25.824 125.868 26.0796C127.572 26.4934 129.276 26.8706 130.979 27.2114C132.367 27.4792 133.754 27.6982 135.142 27.8686C136.054 28.0146 136.748 28.4893 137.442 29.037C138.209 29.6941 138.939 30.3879 139.669 31.0816C140.399 31.8118 141.239 32.396 142.225 32.7611C143.101 33.1262 144.05 33.3452 144.963 33.6738C145.876 33.9659 146.716 34.4406 147.555 34.8422C148.213 35.1343 148.858 35.4507 149.49 35.7915C150.403 36.2661 150.951 36.9963 151.206 37.9821C151.316 38.4202 151.462 38.8584 151.17 39.333C151.133 39.4425 151.279 39.6616 151.316 39.8076C150.951 40.5744 150.549 41.3046 150.184 42.0713C150.038 42.3269 149.965 42.5825 149.892 42.838C149.709 43.3492 149.527 43.8603 149.125 44.262C148.943 44.408 148.906 44.7001 148.797 44.9192C148.468 45.4303 148.103 45.905 147.774 46.4161C147.653 46.5622 147.531 46.7204 147.409 46.8908C146.789 47.84 145.949 48.5337 144.927 49.0814C144.306 49.41 143.649 49.7386 142.991 50.0307C142.699 50.1402 142.407 50.2862 142.079 50.3958C140.655 50.8704 139.523 51.8562 138.501 52.8785C137.661 53.7548 136.894 54.631 136.054 55.4708C135.799 55.7629 135.47 55.9819 135.251 56.274C134.996 56.5661 134.85 56.8947 134.631 57.1868C134.168 57.7223 133.706 58.2456 133.243 58.7568C132.951 59.0854 132.622 59.3409 132.33 59.6695C132.184 59.8521 132.075 60.0712 131.746 59.9616C131.637 59.9251 131.491 59.9981 131.418 60.0711C131.016 60.3997 130.541 60.6188 130.03 60.7649C129.981 60.7649 129.945 60.777 129.921 60.8014C129.117 61.3855 128.132 61.6776 127.255 62.0427C126.27 62.4809 125.284 62.919 124.371 63.4666C123.823 63.7952 123.385 64.3429 122.984 64.8541C122.363 65.6573 121.815 66.5336 121.268 67.4098C120.866 68.0305 120.537 68.7242 120.099 69.3449C119.661 69.9656 119.15 70.5498 118.42 70.9149C117.008 71.5964 115.621 72.3266 114.257 73.1055C113.235 73.6532 112.395 74.4929 111.665 75.3692C110.679 76.574 109.694 77.7789 108.416 78.6917C107.868 79.0568 107.284 79.1663 106.663 79.3123C106.225 79.4219 105.714 79.4219 105.239 79.4949C104.765 79.6044 104.363 79.933 104.034 80.2981C103.596 80.7363 103.195 81.2839 102.757 81.7951C102.318 82.3062 101.88 82.8174 101.442 83.3285C100.858 84.1318 100.237 84.8985 99.6897 85.7017C99.3246 86.1764 99.069 86.724 98.7769 87.2352C98.6308 87.4543 98.4483 87.5638 98.2292 87.4543C98.0102 87.3447 97.8641 87.4178 97.6816 87.4908C96.7688 87.8559 95.856 88.148 94.9067 88.294C93.3368 88.5131 91.7668 88.4766 90.1968 88.4766C89.9413 88.4766 89.6492 88.4401 89.3936 88.4035C87.9332 88.221 86.5092 87.9654 85.1583 87.4543C84.5377 87.2352 83.9535 86.9066 83.4058 86.578C82.7121 86.1764 82.0914 85.6652 81.4342 85.2271C80.704 84.7525 79.9008 84.2778 79.3896 83.5476C78.6594 82.5983 77.6371 82.3793 76.6148 82.1967C75.8116 82.0872 74.9718 82.0142 74.1321 82.0142C73.2193 81.9776 72.27 81.7586 71.3573 81.576C70.4567 81.3813 69.5804 81.1379 68.7285 80.8458C68.1443 80.6633 67.5966 80.3712 67.0855 80.1156C66.3918 79.7505 65.6981 79.3489 65.0044 78.9472C64.2011 78.4726 63.3979 78.0345 62.5947 77.5233C61.2073 76.7201 60.0389 75.5882 58.7975 74.5659C57.5197 73.4706 56.6069 72.1197 55.8037 70.6958C55.6576 70.4402 55.4385 70.2212 55.2195 70.0021C54.5988 69.3084 53.7956 68.8337 53.0288 68.3591C52.2256 67.8845 51.3858 67.5924 50.4731 67.3368C49.7063 67.1543 48.9761 66.8622 48.2094 66.6431C47.1871 66.3267 46.1648 66.0224 45.1425 65.7303C43.8038 65.3652 42.4772 65.0123 41.1628 64.6715C40.6882 64.5255 40.177 64.489 39.7024 64.3064C39.1547 64.1239 38.6071 63.8683 38.0959 63.6127C37.4874 63.2719 36.8789 62.9312 36.2704 62.5904C35.5401 62.1523 34.7734 61.7141 34.0432 61.2395C33.4955 60.8379 32.9479 60.3997 32.4002 59.9981C32.2177 59.8886 31.9986 59.8156 31.7795 59.706C31.3779 60.4363 30.9763 61.13 30.6112 61.8237C30.027 62.846 29.5159 63.9048 28.8587 64.8906C27.7268 66.6066 26.2299 67.9575 24.2948 68.7607C23.3455 69.1623 22.3963 69.637 21.447 70.0751C20.2786 70.6593 19.0373 71.0244 17.7959 71.3895C16.7371 71.6816 15.6418 71.7546 14.5464 71.7181C13.5971 71.6816 12.6114 71.6816 11.6621 71.6451C10.1651 71.5355 8.74121 71.2069 7.3538 70.6593C5.86903 70.0264 4.38425 69.4058 2.89948 68.7972C2.31531 68.5417 1.87718 68.14 1.58509 67.5559C1.21998 66.8987 0.781852 66.278 0.416744 65.6208C0.23419 65.3287 0.124655 65.0366 0.0151228 64.708C-0.021388 64.6715 0.015125 64.5985 0.0516359 64.4524C0.197679 64.562 0.270702 64.5985 0.343724 64.708C0.818364 65.4017 1.36602 66.0589 1.76764 66.8256C2.27879 67.8114 3.08203 68.3956 4.10433 68.7972C4.66417 69.0163 5.224 69.2232 5.78383 69.4179C6.91567 69.8561 8.01099 70.3307 9.17934 70.6958C10.3842 71.0609 11.6256 71.1339 12.9034 71.2069C13.8527 71.2435 14.8385 71.1704 15.8243 71.1704C16.7006 71.1339 17.5768 70.9879 18.4166 70.6958C19.6945 70.2212 20.9358 69.7465 22.1772 69.1989C23.2482 68.7364 24.2826 68.2252 25.2806 67.6654C25.9013 67.3368 26.4124 66.8987 26.9236 66.4971C27.0696 66.3875 27.1427 66.2415 27.2157 66.132C27.5078 65.6573 27.7268 65.1461 28.0919 64.7445C28.8222 63.9778 29.3698 63.1015 29.881 62.1888C30.3191 61.3855 30.7207 60.5458 31.1588 59.706C31.3414 59.414 31.3414 59.1584 31.0858 58.8663C30.7937 58.5377 30.7207 58.1726 30.7937 57.7345C30.8303 57.5154 30.8668 57.2598 30.7937 57.0408C30.6842 56.4931 30.7937 56.0185 31.0493 55.5438C31.4509 54.8136 31.743 54.0104 32.4367 53.5357C32.9844 53.1341 33.386 52.696 33.313 51.9292C33.313 51.8927 33.313 51.8197 33.3495 51.7832C33.5321 51.126 33.6051 50.5053 33.5686 49.8116C33.4955 49.1544 33.6416 48.4242 33.6051 47.7305C33.5686 46.9273 33.386 46.0875 33.313 45.2478C33.0452 43.0328 32.7775 40.8178 32.5098 38.6028C32.5098 38.4324 32.5098 38.262 32.5098 38.0916C32.5098 37.1789 32.4732 36.3026 32.5098 35.4263C32.5463 34.6231 32.6193 33.8564 32.7288 33.0897C32.9114 31.8118 33.1304 30.5704 33.313 29.2925C33.6051 27.2114 34.0067 25.1668 34.9195 23.2317C35.3576 22.2825 35.9053 21.4062 36.5259 20.5664C37.4022 19.3251 38.3515 18.1567 39.3008 16.9884C39.8484 16.3677 40.4326 15.82 41.0533 15.2359C41.3819 14.9073 41.4184 14.8708 41.2358 14.4692C40.7977 13.5929 40.5786 12.7166 40.4691 11.7673C40.3961 11.2927 40.5421 10.8911 40.7612 10.526C41.0898 10.0513 41.82 9.97832 42.3312 10.3799C42.7693 10.7694 43.2074 11.171 43.6456 11.5848C43.7551 11.6943 43.8646 11.8039 43.9376 11.9499C44.1932 12.315 44.4488 12.6436 44.7409 13.1182ZM76.7974 80.7728C76.8217 80.7728 76.8339 80.7849 76.8339 80.8093C76.8339 80.8093 76.8339 80.7971 76.8339 80.7728C76.8339 80.7728 76.8217 80.7728 76.7974 80.7728ZM77.3815 81.3935C77.345 81.0649 77.0895 80.9553 76.8339 80.8093C76.9069 81.2839 76.9434 81.2839 77.3815 81.3935ZM75.483 79.6044C75.1422 79.4827 74.8015 79.3489 74.4607 79.2028C74.2781 79.1298 74.1686 79.0203 74.2051 78.8377C74.2781 78.8012 74.3146 78.7282 74.3511 78.7282C75.1909 78.6917 75.9941 78.9107 76.6148 79.3854C77.4911 80.0791 78.3308 80.8458 78.988 81.7951C79.0976 81.9411 79.2801 82.0142 79.4627 82.1237C79.6452 82.1967 79.8643 82.2332 80.0468 82.3427C80.3389 82.4523 80.5215 82.6713 80.558 83.0365C80.558 83.219 80.6675 83.4381 80.8136 83.5841C81.1787 83.9005 81.556 84.2048 81.9454 84.4969C82.5661 84.9715 83.1868 85.3732 83.844 85.8478C83.844 85.8478 83.8561 85.8478 83.8805 85.8478C84.8663 86.432 85.9616 86.7971 87.0569 87.1257C87.203 87.1622 87.349 87.1987 87.4585 87.0161C86.9474 86.7605 86.4727 86.5415 85.9981 86.2859C85.487 85.9938 84.9393 85.7017 84.4646 85.3366C83.7709 84.789 83.1868 84.1683 82.5296 83.6206C82.0549 83.1825 81.5803 82.7444 81.1056 82.3427C81.0326 82.2697 80.9596 82.1602 80.8501 81.9776C81.0691 81.9411 81.2152 81.8681 81.3247 81.9046C81.5073 81.9776 81.6533 82.0872 81.7994 82.1967C82.1645 82.4888 82.4566 82.8174 82.8217 83.073C83.6736 83.7058 84.5255 84.3143 85.3774 84.8985C85.779 85.1541 86.1441 85.4097 86.5823 85.5922C87.1299 85.8478 87.7506 86.0303 88.3348 86.2494C88.6269 86.3224 88.919 86.3589 89.2476 86.3955C89.0285 86.2129 88.8094 86.1034 88.5904 85.9573C88.0305 85.6409 87.4707 85.3001 86.9109 84.935C86.5944 84.716 86.2902 84.4969 85.9981 84.2778C85.9251 84.2048 85.9251 84.0588 85.8521 83.8397C86.6918 84.0588 87.276 84.5334 87.9332 84.8985C88.8094 85.3366 89.5396 85.7383 90.0143 85.7017C89.5762 85.3731 89.1015 85.0445 88.6634 84.7159C87.7871 84.0222 86.9474 83.3285 86.0711 82.6348C85.8521 82.4888 85.56 82.3427 85.3044 82.2697C84.8663 82.1602 84.4281 82.1237 84.0265 81.9776C83.1503 81.6855 82.3105 81.2839 81.4342 81.0284C80.7405 80.8093 80.1929 80.4807 79.6452 80.0426C79.5722 80.0061 79.4992 79.9695 79.4262 79.8965C78.769 79.4584 78.0752 79.0933 77.4911 78.6186C76.8704 78.071 76.3227 77.4503 75.702 76.8661C75.3735 76.5375 74.9718 76.2455 74.4607 76.1724C73.6209 76.0264 72.7447 75.8803 71.9414 75.5517C71.5033 75.3327 70.9921 75.2597 70.554 75.0771C69.6413 74.7485 68.765 74.4199 67.8522 74.0183C67.2315 73.7262 66.6474 73.3246 66.0267 72.996C65.1504 72.5579 64.4567 71.9006 63.836 71.1339C63.763 71.0244 63.5805 70.9514 63.4344 70.8418C63.4344 70.9879 63.3979 71.0244 63.3979 71.0609C63.8604 71.7181 64.3107 72.3631 64.7488 72.996C64.8948 73.215 65.0774 73.4341 65.2234 73.6897C65.2965 73.7992 65.406 73.9818 65.1869 74.1278C65.1626 74.1278 65.1383 74.1278 65.1139 74.1278C65.0774 74.0913 65.0044 74.0548 65.0044 74.0183C64.7853 73.5071 64.3107 73.2515 63.9821 72.8499C63.8847 72.7769 63.8117 72.6917 63.763 72.5944C63.1058 71.7911 62.4851 70.9514 61.7914 70.1481C61.2438 69.564 60.7326 68.9433 59.9659 68.5417C59.1626 68.1035 58.5055 67.4098 57.5927 67.0812C57.3736 66.9717 57.1911 66.7526 56.972 66.6066C57.1546 66.351 57.3371 66.3145 57.5562 66.351C57.7387 66.424 57.9578 66.497 58.1038 66.5701C58.7367 66.9595 59.3695 67.3733 60.0024 67.8114C60.4405 68.1035 60.8421 68.4321 61.2803 68.7242C61.3898 68.8337 61.5359 68.9068 61.6819 69.0163C61.7184 68.9068 61.7549 68.8337 61.7184 68.8337C61.4628 68.5417 61.2073 68.2496 60.9152 68.0305C60.185 67.5193 59.5278 66.8622 58.7245 66.424C57.9213 65.9859 57.118 65.5113 56.2418 65.2192C56.0592 65.1462 55.8402 65.1096 55.6576 65.0366C54.7448 64.6715 53.8321 64.3429 52.8463 64.3429C51.97 64.3429 51.0938 64.2334 50.254 64.2699C49.1222 64.2699 48.0268 64.0508 46.968 63.7953C45.033 63.3206 43.317 62.1888 41.4549 61.4586C40.8342 61.203 40.25 61.0569 39.5563 61.0934C40.0188 61.4099 40.5056 61.6655 41.0168 61.8602C41.2358 61.9332 41.3819 62.0792 41.5644 62.1888C41.6009 62.2618 41.6375 62.4444 41.6009 62.5174C41.5279 62.5904 41.3819 62.6634 41.2724 62.6269C40.9438 62.5539 40.5786 62.4444 40.2866 62.2983C39.3738 61.8602 38.388 61.6046 37.3657 61.5316C37.0006 61.4951 36.599 61.3855 36.2339 61.3125C36.3069 61.5316 36.4529 61.6411 36.599 61.7141C37.0736 61.9332 37.5117 62.1888 38.0229 62.3713C38.4123 62.5417 38.814 62.6756 39.2277 62.773C40.031 62.919 40.8342 63.065 41.6009 63.2476C42.6232 63.4667 43.6455 63.7587 44.6679 64.0143C45.5076 64.2334 46.3839 64.4525 47.2601 64.489C47.4792 64.489 47.7348 64.4524 47.8808 64.8176C47.4792 64.9271 47.0776 65.0366 46.5664 65.1462C48.6475 65.8764 50.5826 66.5336 52.5542 67.0812C52.5785 67.0325 52.6029 66.996 52.6272 66.9717C52.2621 66.6796 51.8727 66.3754 51.4589 66.0589C51.751 65.6938 52.0065 65.9129 52.2256 65.9859C52.8463 66.2415 53.467 66.5701 54.0876 66.8256C54.3067 66.9352 54.5988 67.0082 54.8179 67.1543C55.2925 67.4098 55.6941 67.7384 56.1688 67.994C57.4101 68.6512 58.3594 69.6735 59.2357 70.7688C59.4912 71.0244 59.6373 71.3165 59.8198 71.6086C60.0389 71.9007 60.2215 72.1927 60.404 72.4848C60.5866 72.8864 60.7326 73.2881 60.8787 73.6897C60.9152 73.7627 60.8787 73.8722 60.8787 73.9818C60.5501 74.0548 60.4405 73.8357 60.2945 73.6532C60.0024 73.215 59.6738 72.8499 59.4182 72.4118C58.7245 71.2435 57.7387 70.3672 56.7529 69.4544C56.5704 69.2719 56.3513 69.1258 56.0227 69.0893C56.1323 69.564 56.3878 69.856 56.7164 69.9291C56.7894 70.1846 56.7894 70.4037 56.899 70.5498C57.3615 71.2313 57.8239 71.9007 58.2864 72.5578C58.5055 72.8499 58.688 73.142 58.9436 73.3976C59.7468 74.1278 60.5501 74.8945 61.4263 75.5517C62.2661 76.2089 63.1423 76.7201 64.0186 77.2678C65.26 77.9615 66.5013 78.6917 67.7792 79.3489C68.6189 79.7505 69.5317 80.0426 70.408 80.3712C72.197 81.0284 74.0956 81.2109 75.9941 81.1379C75.9576 81.1014 75.9211 81.0284 75.8846 81.0284C75.3248 80.7119 74.7528 80.4198 74.1686 80.1521C73.913 80.0061 73.5479 79.9695 73.4384 79.4949C73.6939 79.4584 73.8765 79.4219 74.0226 79.4584C74.8623 79.8235 75.7751 80.0426 76.4688 80.6633C76.5418 80.7363 76.6878 80.7363 76.7974 80.7728C76.5053 80.2251 76.0672 79.86 75.483 79.6044ZM63.3979 42.7285C63.3979 42.7285 63.3979 42.7407 63.3979 42.765H63.3614C63.3857 42.7407 63.3979 42.7285 63.3979 42.7285ZM63.763 41.8888C63.9821 41.5602 64.2376 41.3046 64.4932 41.0125C65.3695 39.9172 66.2092 38.8219 67.122 37.8361C67.9618 36.9233 68.8745 36.1201 69.7873 35.2803C70.408 34.6961 71.0652 34.112 71.7589 33.6008C73.0368 32.615 74.4242 31.8118 75.9211 31.1546C76.0672 31.0816 76.2497 30.972 76.4323 30.826C76.2132 30.3879 75.9941 29.9862 75.7751 29.5481C74.6067 29.9497 73.5844 30.5339 72.5621 31.1181C72.3065 31.3006 72.0145 31.4467 71.7589 31.5927C71.1382 31.9943 70.4445 32.3594 69.8603 32.8341C68.9841 33.4669 68.1443 34.1485 67.3411 34.8787C66.5743 35.5724 65.8806 36.3026 65.1139 37.0328C64.6393 37.5075 64.3472 38.0916 63.9456 38.6028C63.3249 39.4791 62.5947 40.3188 61.974 41.195C61.2803 42.2174 60.5501 43.2032 60.0389 44.335C59.3817 45.7954 58.6515 47.2193 57.9213 48.7528C57.9943 48.4242 58.0308 48.1686 58.1403 47.9496C58.7245 46.6352 59.2357 45.2478 59.8929 43.9699C60.404 42.9476 61.0612 41.9618 61.7184 40.976C62.1565 40.3188 62.7042 39.6981 63.1788 39.0409C63.69 38.3472 64.2011 37.6535 64.7123 36.9233C65.2965 36.1201 66.0632 35.5359 66.7934 34.8422C67.8157 33.8564 68.9476 32.9801 70.1159 32.2134C71.7589 31.1911 73.4384 30.3513 75.1179 29.4021C75.5195 29.183 75.5925 29.0735 75.3004 28.7084C75.057 28.3433 74.8136 27.9903 74.5702 27.6495C74.3511 27.321 74.3146 27.2844 73.913 27.467C73.4749 27.6861 73.0246 27.9051 72.5621 28.1242C72.27 28.2702 71.9779 28.3798 71.6859 28.5623C71.0287 28.9274 70.3715 29.3291 69.7508 29.7307C69.2396 30.0228 68.692 30.2418 68.1808 30.5339C67.7427 30.7895 67.268 31.0085 66.8664 31.3371C66.0632 31.9578 65.2599 32.615 64.4932 33.2357C63.69 33.8929 62.8989 34.5501 62.12 35.2073C62.0105 35.3168 61.901 35.4263 61.7914 35.5359C61.6454 35.6819 61.6089 35.8645 61.7184 36.047C61.974 36.4487 62.12 36.9233 62.3391 37.2884C62.6677 37.8726 62.7772 38.3837 62.4121 38.9679C62.4121 38.9679 62.4121 39.0409 62.4121 39.0774C62.3026 39.6251 61.8279 39.8442 61.3898 40.0632C61.2803 40.0997 61.0977 40.0997 60.9882 40.0267C60.5501 39.8077 60.1119 39.5886 59.8564 39.114C59.7103 38.8584 59.4912 38.6758 59.2722 38.4202C55.9497 41.5237 53.9051 45.3573 52.3351 49.5925C52.4081 49.337 52.4081 49.1544 52.4447 49.0084C52.9193 47.7305 53.3209 46.4161 53.9051 45.2112C54.4162 44.1159 55.0369 43.0571 55.7306 42.0348C56.3878 41.0855 57.045 40.1362 57.9213 39.333C58.1038 39.187 58.3594 39.0044 58.3959 38.5663C58.1038 38.7854 57.8848 38.8949 57.7022 39.0774C57.0085 39.7346 56.3148 40.3553 55.6941 41.0855C54.5258 42.5094 53.3209 43.8969 52.2256 45.4303C51.6049 46.3066 50.9477 47.1828 50.254 48.1321C50.4731 47.4749 50.8382 47.0368 51.1668 46.5256C51.4954 46.0145 51.824 45.4303 52.1891 44.9192C53.1384 43.7508 54.0876 42.546 55.0734 41.4141C55.8402 40.5379 56.6434 39.6981 57.4832 38.8949C57.8483 38.4933 58.3229 38.1647 58.834 37.763C58.5663 37.471 58.3107 37.1667 58.0673 36.8503C57.8483 36.5947 57.6292 36.5947 57.4101 36.7773C57.045 37.0937 56.6921 37.4101 56.3513 37.7265C55.7671 38.2742 55.2195 38.8584 54.6353 39.3695C54.3432 39.6616 53.9416 39.8442 53.613 40.1362C52.2621 41.2681 51.1303 42.5825 50.035 43.9334C49.9376 44.0551 49.8402 44.1646 49.7429 44.262C49.7185 44.2376 49.6942 44.2133 49.6698 44.1889C50.3757 43.264 51.0816 42.3391 51.7875 41.4141C52.2986 40.7204 52.9558 40.1728 53.6495 39.6616C53.9173 39.4912 54.1607 39.2965 54.3797 39.0774C55.3777 38.1281 56.3757 37.191 57.3736 36.2661C57.4101 36.2296 57.4101 36.1931 57.4101 36.0835C57.3371 36.0105 57.2276 35.8645 57.045 35.6454C56.8625 35.8645 56.7529 36.047 56.6069 36.1931C55.8767 37.0693 54.9639 37.69 54.0876 38.3472C53.1384 39.0044 52.1161 39.5521 51.2763 40.3918C51.0573 40.5744 50.8017 40.7569 50.5461 40.903C49.4508 41.5602 48.3189 42.2174 47.3697 43.1301C47.2966 43.1667 47.2236 43.2031 47.1506 43.2031C46.6029 43.4222 46.2013 43.8238 45.7997 44.2255C45.6171 44.408 45.4346 44.6271 45.2155 44.7731C44.5096 45.3086 43.8038 45.8198 43.0979 46.3066C42.9518 46.4283 42.7936 46.5135 42.6232 46.5621C41.9295 46.8177 41.4184 47.2924 40.8342 47.7305C39.958 48.3512 39.1182 49.0084 38.2785 49.6291C37.8403 49.9577 37.3657 50.2132 36.9276 50.5418C36.0878 51.2355 35.3211 52.0023 34.3718 52.5499C34.0797 52.696 34.0067 52.988 33.9337 53.3166C33.7511 54.1199 33.4955 54.9231 33.24 55.6898C33.0574 56.274 32.8018 56.8217 32.6193 57.4059C32.4732 57.917 32.5828 58.2091 33.0209 58.5012C33.2765 58.6837 33.5686 58.7933 33.8606 58.9028C35.4671 59.4505 37.1101 59.7426 38.8261 59.8521C38.9357 59.8521 39.0817 59.8156 39.3008 59.8156C39.0817 59.3774 38.7531 59.2314 38.461 59.0123C38.0716 58.7203 37.6943 58.4282 37.3292 58.1361C37.2196 58.0265 37.1101 57.8805 37.3292 57.7345C37.5482 57.8805 37.7673 58.0996 37.9864 58.1361C38.2785 58.1361 38.4245 58.2456 38.6071 58.3917C39.1547 58.9758 39.8849 59.2679 40.5786 59.5965C41.0533 59.8156 41.5279 59.9981 42.0026 60.0711C42.8058 60.1807 43.609 60.2537 44.3393 60.5093C44.6679 60.6188 44.9964 60.6188 45.325 60.6188C45.7997 60.6553 46.2743 60.6553 46.7125 60.6918C47.6252 60.7649 48.538 60.8744 49.4508 60.8379C50.5461 60.8379 51.6779 60.8014 52.7367 61.0934C53.0653 61.1665 53.3939 61.1665 53.7225 61.2395C54.2702 61.349 54.8544 61.3855 55.3655 61.5681C56.5704 62.0427 57.7752 62.5539 58.9801 63.065C60.0389 63.5032 61.0247 64.1238 61.901 64.9271C62.1931 65.2192 62.4121 65.5478 62.6677 65.8399C62.9233 66.1684 63.2884 66.3875 63.1423 66.8622C63.1423 66.9352 63.2519 67.0082 63.2884 67.0812C63.3249 67.1543 63.3614 67.2638 63.3979 67.4098C63.2153 67.4463 63.0693 67.4828 62.8867 67.5194C62.9963 67.7019 63.0693 67.8845 63.1788 67.994C63.5926 68.5538 64.0308 69.1015 64.4932 69.637C64.907 70.1481 65.3451 70.6471 65.8076 71.1339C66.0267 71.3895 66.2092 71.6086 66.4648 71.7546C67.122 72.1562 67.7427 72.5213 68.4364 72.8134C69.8482 73.4706 71.2842 74.0791 72.7447 74.639C73.1098 74.785 73.5114 74.9311 74.0226 74.8215C73.5844 74.3104 73.2558 73.7627 72.7447 73.4341C72.0875 73.0325 71.6493 72.4118 70.9556 72.0832C70.8096 72.0467 70.7366 71.8642 70.6636 71.7911C70.8461 71.3895 71.0652 71.5355 71.2842 71.6816C71.6493 71.9006 72.0145 72.1562 72.3796 72.3753C72.5986 72.5213 72.8542 72.5944 73.0733 72.7404C73.5114 73.0325 73.767 73.6167 74.3877 73.6532C74.4242 73.6897 74.4242 73.7262 74.4607 73.7627C74.8623 74.1278 75.2274 74.5659 75.629 74.9311C75.9941 75.2597 76.3227 75.5883 76.8339 75.6248C76.9434 75.6248 77.0529 75.7708 77.126 75.8438C77.2355 75.9899 77.345 76.1724 77.4546 76.3185C77.8927 76.7566 78.2943 77.2312 78.769 77.6329C79.2801 78.071 79.8278 78.4604 80.4119 78.8012C81.2517 79.3489 82.2375 79.5679 83.1503 79.8965C84.2456 80.2981 85.3044 80.7728 86.4362 81.0649C87.7506 81.3935 89.0285 81.8316 90.3064 82.2332C90.8905 82.4158 91.4382 82.6348 92.0224 82.8539C92.1319 82.8904 92.2414 82.9634 92.3145 83.0365C92.3875 83.073 92.424 83.219 92.424 83.2555C92.351 83.365 92.2414 83.4746 92.1684 83.4381C91.8398 83.4016 91.5112 83.3285 91.1826 83.292C90.9392 83.2434 90.6958 83.2068 90.4524 83.1825C90.2334 83.1581 90.0143 83.1338 89.7952 83.1095C89.2476 83.0365 88.7729 82.7809 88.1157 82.9634C88.2983 83.1095 88.4078 83.219 88.5173 83.292C88.919 83.4746 89.3206 83.6571 89.7222 83.8762C90.8175 84.4239 91.9494 85.008 93.0447 85.5192C93.8844 85.9208 94.7607 86.1399 95.6735 86.2129C96.1116 86.2859 96.5497 86.3224 96.9878 86.432C97.6816 86.6145 98.3753 85.9938 98.2292 85.3001C98.1197 84.789 98.3388 84.3874 98.5578 84.0223C98.8134 83.4746 99.215 82.9999 99.4706 82.4523C100.347 80.6632 101.223 78.8742 102.501 77.3408C102.83 76.9391 103.158 76.574 103.487 76.1724C103.742 75.9169 103.961 75.6248 104.217 75.3692C104.582 75.0041 104.959 74.6633 105.349 74.3469C105.75 74.0548 106.189 73.6167 106.663 73.5071C107.174 73.3611 107.576 73.069 108.051 72.8134C108.343 72.6674 108.708 72.5213 109.036 72.3753C109.219 72.3023 109.329 72.3753 109.365 72.5578C109.365 72.5944 109.365 72.6309 109.329 72.6674C109.109 72.8378 108.878 72.996 108.635 73.142C108.124 73.5436 107.613 73.9453 107.065 74.2373C106.627 74.4929 106.262 74.7485 105.86 75.0771C105.677 75.2231 105.422 75.3692 105.239 75.5517C105.093 75.6613 104.947 75.7708 105.13 75.9899C105.312 75.8073 105.495 75.5517 105.714 75.4422C106.663 75.0041 107.686 74.6025 108.635 74.1643C109.292 73.8722 109.949 73.5802 110.533 73.1785C111.446 72.5944 112.249 71.9006 113.126 71.3165C114.55 70.3672 115.572 69.0528 116.521 67.6654C117.251 66.6066 117.872 65.4748 118.712 64.489C119.296 63.8318 119.844 63.1746 120.464 62.5539C121.048 61.9697 121.742 61.4586 122.326 60.9109C122.984 60.3267 123.239 60.2902 123.787 60.8014C123.823 60.8014 123.823 60.8744 123.86 60.9474C123.641 61.203 123.385 61.4586 123.13 61.7141C123.422 61.6776 123.641 61.4951 123.896 61.4586C124.334 61.3855 124.663 61.1665 124.992 60.9109C125.904 60.1807 126.854 59.487 127.73 58.6837C128.497 58.0265 129.227 57.3328 129.775 56.4566C130.14 55.8359 130.614 55.2152 131.016 54.5945C131.089 54.485 131.125 54.3389 131.198 54.1564C130.76 54.2659 130.432 54.3755 130.067 54.412C129.738 54.412 129.336 54.5215 129.081 54.0834C129.592 53.7913 130.067 53.4992 130.541 53.2436C130.651 53.2071 130.76 53.2071 130.87 53.1706C131.162 53.0976 131.454 53.0246 131.71 52.915C132.659 52.5499 133.389 51.8197 134.046 51.126C135.093 50.1037 136.237 49.2153 137.478 48.4607C139.036 47.5114 140.375 46.3187 141.495 44.8827C142.188 43.9699 143.065 43.2762 144.05 42.692C144.634 42.3512 145.206 42.0105 145.766 41.6697C146.131 41.4506 146.497 41.2316 146.862 41.049C147.008 40.976 147.227 40.903 147.336 41.122C147.409 41.3411 147.3 41.4506 147.117 41.5602C146.338 42.0713 145.559 42.6068 144.781 43.1666C144.561 43.3492 144.379 43.6413 144.123 43.7873C143.612 44.1159 143.466 44.6271 143.028 45.1747C143.284 45.1382 143.393 45.1382 143.466 45.1017C144.634 44.7001 145.73 44.1889 146.789 43.5318C147.154 43.3127 147.494 43.0571 147.811 42.765C148.76 41.9618 149.454 40.976 150.184 39.9902C150.549 39.4425 150.768 38.7854 150.659 38.1282C150.513 37.2884 150.038 36.6677 149.308 36.2296C148.687 35.901 148.066 35.5724 147.446 35.2803C146.667 34.8909 145.876 34.5136 145.073 34.1485C144.963 34.112 144.781 34.0024 144.707 34.0389C144.269 34.258 143.941 34.0024 143.576 33.8929C143.211 33.7834 142.845 33.6373 142.48 33.4913C142.225 33.3817 141.969 33.3817 141.531 33.4183C141.787 33.6373 141.969 33.8199 142.152 33.9659C143.284 34.7326 144.452 35.4629 145.803 35.7915C145.949 35.828 146.095 35.9375 146.241 36.0105C146.217 36.0592 146.192 36.1079 146.168 36.1566C145.876 36.1201 145.584 36.0836 145.292 36.0105C144.16 35.6819 143.138 35.0978 142.115 34.4771C141.641 34.2215 141.239 33.9659 140.947 33.5278C140.399 32.7611 139.596 32.2134 138.866 31.5927C138.428 31.1546 137.843 30.8625 137.369 30.4244C136.639 29.8037 135.799 29.4021 134.959 29.0735C133.754 28.5988 132.44 28.2337 131.198 27.8686C131.162 27.8321 131.089 27.8686 131.016 27.8686C131.345 28.0877 131.71 28.1972 132.038 28.3798C132.622 28.6719 133.194 28.9883 133.754 29.329C134.083 29.5116 134.448 29.6941 134.704 29.9497C135.142 30.3148 135.507 30.753 135.908 31.1181C136.31 31.4832 136.748 31.8483 137.15 32.2134C137.344 32.3838 137.539 32.5663 137.734 32.7611C137.71 32.7854 137.685 32.8219 137.661 32.8706C137.515 32.8341 137.369 32.7976 137.259 32.7246C137.04 32.5785 136.821 32.4325 136.602 32.3229C136.237 32.1039 135.908 31.8483 135.653 31.4832C135.215 30.899 134.667 30.4244 134.046 29.9862C133.061 29.3291 132.002 28.8179 130.906 28.3798C129.981 27.9903 129.057 27.6374 128.132 27.3209C127.73 27.1749 127.292 27.1384 126.854 27.0289C126.099 26.8585 125.357 26.6881 124.627 26.5177C124.115 26.4082 123.568 26.2986 123.093 26.1161C122.691 25.97 122.326 25.678 121.961 25.4224C120.842 24.5948 119.625 23.9255 118.31 23.4143C117.191 22.9762 116.071 22.5502 114.951 22.1364C114.477 21.9539 113.965 21.7713 113.491 21.6253C112.724 21.3697 111.957 21.1871 111.191 20.9681C110.095 20.603 109 20.5299 107.868 20.5664C106.955 20.603 106.079 20.676 105.203 20.7125C105.13 20.7125 105.02 20.6395 104.947 20.6395C105.86 20.1283 106.846 20.3474 107.759 20.0188C106.736 19.7267 105.933 19.0695 105.02 18.4853C104.984 18.6314 104.947 18.7409 104.911 18.8505C104.765 19.5076 104.582 20.1648 104.473 20.822C104.229 22.1121 103.876 23.3656 103.414 24.5826C103.341 24.7652 103.231 24.9477 103.195 25.1303C103.158 25.7875 102.684 26.0066 102.136 26.1891C101.953 26.2621 101.661 26.2986 101.479 26.2256C101.15 26.0431 100.821 25.9335 100.42 25.897C99.8357 25.8605 99.6897 25.5684 99.8357 24.9843C99.9817 24.5461 100.128 24.0715 100.201 23.5969C100.456 22.1729 100.639 20.7125 101.114 19.3251C101.26 18.887 101.333 18.4123 101.479 17.9377C101.333 17.9012 101.26 17.8281 101.187 17.8281C100.201 17.7551 99.215 17.7186 98.2292 17.9012C97.2434 18.1202 96.2576 18.3393 95.3084 18.7774C94.6147 19.0695 93.8844 19.3251 93.1542 19.5807C92.3875 19.8362 91.6208 20.0188 90.8175 20.2379C89.3206 20.6395 87.8967 21.1871 86.5093 21.9904C86.3267 22.0999 86.1076 22.2459 85.7425 22.1729C86.5092 21.6618 87.2395 21.2602 88.0062 20.9681C89.2111 20.4934 90.4524 20.0553 91.6573 19.6172C92.8987 19.179 94.14 18.7409 95.3814 18.2663C95.5639 18.2298 95.6735 18.1202 95.929 17.9742C95.7465 17.9742 95.6735 17.9377 95.6004 17.9377C94.3104 18.0107 93.0325 18.0716 91.7668 18.1202C90.9271 18.1567 90.0873 18.1202 89.2841 18.2663C88.5539 18.4123 87.8236 18.4853 87.0934 18.6314C85.8521 18.9235 84.635 19.2277 83.4423 19.5441C82.6391 19.7632 81.8602 20.0066 81.1056 20.2744C80.4119 20.5299 79.7547 20.822 79.0975 21.1141C79.2071 20.9315 79.3531 20.822 79.5357 20.749C79.8764 20.5786 80.2294 20.4326 80.5945 20.3109C81.3977 20.0188 82.201 19.6902 83.0042 19.4346C83.99 19.1425 85.0123 18.96 85.9616 18.6314C87.203 18.1932 88.4443 18.0107 89.7222 17.8281C90.5985 17.7186 91.4747 17.7186 92.351 17.6821C93.568 17.6334 94.785 17.5847 96.0021 17.536C96.8296 17.5117 97.6572 17.4752 98.4848 17.4265C99.4097 17.3778 100.323 17.317 101.223 17.244C101.369 17.244 101.503 17.244 101.625 17.244C101.661 17.1344 101.698 17.0614 101.734 16.9884C101.917 16.4772 101.844 16.3312 101.333 16.0391C100.968 15.7835 100.566 15.674 100.091 15.6375C99.3245 15.601 98.5578 15.4549 97.7911 15.4549C97.0609 15.4184 96.2941 15.4549 95.5639 15.4915C95.0284 15.5158 94.493 15.5523 93.9575 15.601C93.1542 15.7105 92.351 15.8566 91.5477 15.9296C90.5985 16.0026 89.6492 16.0391 88.6999 16.1486C87.9332 16.2582 87.1664 16.4772 86.3997 16.6233C85.8155 16.7328 85.2314 16.8424 84.6472 17.0249C83.4058 17.3657 82.1523 17.7186 80.8866 18.0837C80.0103 18.3393 79.1341 18.5949 78.2578 18.9965C77.7832 19.2521 77.272 19.3616 76.7609 19.5441C76.8339 19.3981 76.9434 19.2886 77.053 19.2521C77.4181 19.106 77.7467 18.9965 78.1118 18.8505C78.3673 18.7409 78.6229 18.4853 78.8785 18.3758C79.5113 18.1324 80.1564 17.9133 80.8136 17.7186C81.4342 17.4995 82.0549 17.317 82.7121 17.1344C83.8561 16.818 85.0123 16.5016 86.1807 16.1851C87.203 15.9296 88.2253 15.7105 89.2111 15.4184C90.1238 15.1629 91.0366 14.9803 91.9494 14.9438C92.9352 14.9073 93.8844 14.8708 94.8702 14.6882C95.929 14.5422 97.0244 14.4326 98.1197 14.6517C98.3388 14.7247 98.5943 14.6882 98.9594 14.6882C98.5578 14.2866 98.1562 14.2501 97.7911 14.177C97.0852 13.9823 96.3793 13.812 95.6735 13.6659C94.6147 13.4468 93.5558 13.1182 92.4605 13.0452C90.3064 12.8262 88.1522 12.5706 86.0346 12.096C85.3409 11.9499 84.6472 11.6213 83.9535 11.3657C83.8805 11.3657 83.7709 11.2562 83.7344 11.1832C83.6979 10.9641 83.5154 10.9641 83.3328 10.8911C83.0042 10.7085 82.6026 10.6355 82.4566 10.0513C82.8582 10.2339 83.1868 10.4529 83.5154 10.526C84.6472 10.7815 85.779 10.9641 86.8744 11.2197C87.4585 11.3292 88.0427 11.4387 88.5904 11.5848C89.138 11.7673 89.6857 11.9499 90.2334 12.1325C90.3429 12.169 90.4524 12.1325 90.6715 12.1325C89.9413 11.6943 89.3206 11.2562 88.6634 10.8546C88.1888 10.5625 87.7141 10.3069 87.2395 9.9783C85.9981 9.02902 84.6107 8.33532 83.1137 7.86068C82.7851 7.71464 82.347 7.60511 82.0184 7.67813C80.7405 7.9337 79.6452 8.5544 78.6594 9.35764C77.5641 10.1974 76.5783 11.1467 75.6655 12.2055C74.7893 13.2278 73.7305 14.1405 72.7447 15.0898C72.5986 15.2359 72.4161 15.3454 72.4161 15.6375C72.5256 15.601 72.5986 15.5645 72.6717 15.528C73.6209 14.9803 74.5702 14.4692 75.556 13.9215C76.2862 13.4834 77.053 13.0817 77.6006 12.4245C77.8562 12.1324 78.1118 11.8769 78.4038 11.5848C78.4769 11.9499 78.3308 12.169 78.1483 12.4245C77.4911 13.2643 76.5418 13.7389 75.629 14.2866C74.9353 14.7612 74.1321 15.0898 73.4019 15.528C72.0875 16.3312 70.7731 17.1709 69.4587 17.9742C68.5094 18.5584 67.6332 19.1425 66.8664 19.9458C66.1727 20.7125 65.406 21.4062 64.7123 22.1364C64.0186 22.8666 63.3249 23.5603 62.7042 24.3271C62.12 24.9843 61.6089 25.678 61.0977 26.4082C61.0612 26.4812 61.0247 26.5907 60.9517 26.7733C61.2438 26.6272 61.4263 26.5177 61.5359 26.4082C61.901 26.0796 62.193 25.7145 62.5216 25.4224C63.5439 24.5096 64.4202 23.4508 65.5885 22.7571C65.6981 22.7206 65.7711 22.6841 65.8806 22.6476C65.8441 22.7936 65.8076 22.8666 65.7346 22.9396C65.333 23.2682 64.9314 23.5238 64.6028 23.8889C63.7995 24.6557 63.0328 25.4224 62.2661 26.2256C61.5359 26.9558 60.7691 27.6495 60.1119 28.4163C59.7103 28.8544 59.3817 29.3656 59.0896 29.8402C58.8706 30.1688 58.8706 30.6069 58.4324 30.826C58.3594 30.8625 58.2864 31.045 58.2499 31.1546C58.2499 31.2641 58.3594 31.3737 58.3959 31.4467C58.761 31.0451 59.0896 30.6799 59.4182 30.3148C60.0389 29.6576 60.6596 28.9639 61.3168 28.3433C62.2661 27.4305 63.2154 26.5542 64.2011 25.6415C64.8583 25.0208 65.5155 24.3636 66.2092 23.7429C66.7569 23.2682 67.3411 22.8666 67.8887 22.392C68.3269 22.0634 68.765 21.6983 69.2031 21.3332C69.3857 21.2236 69.5682 21.0411 69.8968 21.1506C69.6047 21.3697 69.3127 21.5522 69.0936 21.7348C68.5459 22.1729 68.0348 22.6111 67.5236 23.0492C66.5257 23.9741 65.5277 24.8991 64.5297 25.824C63.836 26.4812 63.1423 27.1749 62.4486 27.8321C61.5724 28.7084 60.6596 29.5481 59.8198 30.4244C59.4547 30.7895 59.1261 31.2276 58.7975 31.6657C58.761 31.7388 58.761 31.9213 58.7975 31.9578C58.8706 32.0308 59.0166 32.0309 59.1261 31.9943C59.1992 31.9578 59.2722 31.8848 59.3087 31.8118C59.9294 31.1546 60.5136 30.4974 61.1707 29.8767C62.5947 28.5988 64.0551 27.3575 65.4425 26.0431C66.5013 25.0208 67.5966 24.035 68.765 23.1222C69.3979 22.6354 70.0429 22.1851 70.7001 21.7713C70.9556 21.5888 71.1747 21.4427 71.3573 21.2237C71.5763 20.8951 71.9049 20.676 72.3065 20.603C73.5844 20.3839 74.8258 20.3839 75.9576 21.1141C76.2497 21.3332 76.5053 21.5887 76.7243 21.9173C76.9434 22.319 76.9434 22.7571 77.0164 23.1952C77.126 23.9254 76.9069 24.5461 76.5053 25.1668C76.2862 25.4589 76.0672 25.7145 75.8116 26.0796C76.1037 26.6273 76.3958 27.2479 76.7243 27.7956C76.9799 28.2337 77.0895 28.2702 77.5276 28.0147C78.2578 27.613 78.988 27.2114 79.7548 26.8098C80.3146 26.4934 80.8866 26.2013 81.4708 25.9335C81.6168 25.8605 81.7628 25.678 82.0914 25.9335C80.3754 26.7003 78.8785 27.6861 77.3085 28.5988C78.0387 29.8767 78.7325 31.1181 79.4262 32.3229C80.3389 31.9213 81.2152 31.5562 82.0549 31.2276C82.9312 30.899 83.8074 30.5339 84.6837 30.2053C85.56 29.8889 86.4362 29.5968 87.3125 29.329C88.1887 29.037 89.065 28.8179 89.9048 28.5623C89.9291 28.6353 89.9534 28.7084 89.9778 28.7814C86.5093 29.9497 83.0042 31.1181 79.6452 32.6515C79.6817 32.7611 79.6817 32.8341 79.7182 32.9071C80.0347 33.4426 80.3389 33.9781 80.631 34.5136C81.0326 35.2438 81.4342 35.974 81.8724 36.6677C82.0549 36.9598 82.1645 37.2154 82.128 37.544C81.9819 37.6535 81.8724 37.763 81.7263 37.8726C81.2152 38.2377 80.704 38.1281 80.4119 37.617C79.6817 36.3756 78.988 35.1343 78.2578 33.8929C78.1483 33.6738 78.0022 33.4913 77.8562 33.2722C77.345 33.4913 76.9069 33.7103 76.4688 33.8929C75.7751 34.185 75.0083 34.3675 74.3877 34.7692C73.6574 35.2438 72.7447 35.4994 72.124 36.1566C72.051 36.2661 71.9049 36.2661 71.8319 36.3391C70.9556 36.9598 70.0429 37.544 69.2396 38.2377C68.1078 39.187 67.195 40.3553 66.4283 41.6332C66.3553 41.7427 66.2457 41.8522 66.1727 41.9253C66.1727 41.7062 66.2457 41.5236 66.3553 41.3776C67.195 39.8076 68.2904 38.4933 69.7143 37.3979C70.627 36.7042 71.5763 36.0836 72.5256 35.4629C73.1463 35.0613 73.767 34.7326 74.4242 34.4406C75.1909 34.0754 75.9941 33.8199 76.7974 33.4913C77.126 33.3452 77.4546 33.2357 77.6736 32.9071C77.3085 32.3229 77.0529 31.7023 76.5783 31.1911C75.8116 31.5562 75.1179 31.8848 74.4607 32.2864C73.767 32.6515 73.0733 33.0531 72.4161 33.5278C71.7224 34.0389 71.1382 34.6231 70.481 35.1708C68.9719 36.4608 67.5601 37.8239 66.2458 39.26C65.333 40.3188 64.3472 41.3046 63.617 42.5095C63.5805 42.619 63.4709 42.6555 63.3979 42.7285C63.5074 42.4364 63.5805 42.1443 63.763 41.8888ZM62.5947 69.856C62.5703 69.856 62.5582 69.8439 62.5582 69.8195C62.5582 69.8439 62.5582 69.856 62.5582 69.856C62.5582 69.856 62.5703 69.856 62.5947 69.856ZM62.193 69.5275C62.193 69.5275 62.1809 69.5275 62.1565 69.5275C62.1565 69.5275 62.1565 69.5396 62.1565 69.564C62.1809 69.5396 62.193 69.5275 62.193 69.5275ZM61.9375 69.0893C61.8279 69.3449 62.0105 69.4179 62.1565 69.5275C62.2296 69.3084 62.193 69.1623 61.9375 69.0893ZM62.5582 70.0386C62.5947 70.0751 62.7042 70.0751 62.7407 70.1116C62.7407 70.0386 62.7407 69.9656 62.7042 69.8926C62.7042 69.8926 62.6312 69.856 62.5947 69.856C62.5582 69.9291 62.5582 70.0021 62.5582 70.0386ZM62.5582 69.8195C62.5947 69.564 62.4121 69.5275 62.193 69.5275C62.3148 69.6248 62.4365 69.7222 62.5582 69.8195ZM34.1162 52.0753C34.6639 51.9658 35.0655 51.6371 35.4306 51.3086C35.8688 50.9434 36.3069 50.5783 36.745 50.2498C37.4387 49.7751 38.1324 49.3005 38.7896 48.8258C39.8849 48.0591 40.9803 47.2558 42.0756 46.4891C43.2804 45.6859 44.5583 44.8826 45.5806 43.8238C45.6536 43.7265 45.7388 43.6413 45.8362 43.5683C46.7125 42.9111 47.5887 42.2539 48.465 41.5602C49.4143 40.7934 50.3635 40.0267 51.3128 39.26C51.7144 38.9679 52.1526 38.6758 52.5177 38.3472C53.6495 37.3614 54.4527 36.1201 55.3655 34.9517C55.5116 34.7692 55.6576 34.5136 55.8037 34.2945C55.5481 34.0024 55.329 33.7834 55.11 33.5278C54.4041 32.6759 53.686 31.8118 52.9558 30.9355C52.5907 30.4609 52.1526 30.0228 51.7875 29.5481C51.0207 28.5258 50.2905 27.4305 49.4873 26.4082C48.2824 24.7652 47.0411 23.1587 45.7997 21.5522C45.0208 20.5056 44.2541 19.459 43.4995 18.4123C42.9883 17.6821 42.5137 16.9154 42.0391 16.1851C41.893 15.9661 41.82 15.747 41.674 15.4549C41.4549 15.5645 41.2723 15.6375 41.1263 15.747C40.5056 16.3677 39.8119 16.9519 39.3008 17.6821C38.7531 18.4123 38.2054 19.1425 37.6578 19.8727C37.2196 20.4569 36.7085 21.0046 36.3434 21.6253C34.9925 23.8524 34.2623 26.2986 33.9702 28.8544C33.8241 29.9862 33.6416 31.045 33.459 32.1404C33.313 33.1262 33.0939 34.112 33.0574 35.0612C32.9844 36.5217 33.0939 37.9821 33.1304 39.4425C33.1669 39.9902 33.2765 40.5379 33.3495 41.122C33.5442 42.6555 33.7268 44.1889 33.8972 45.7224C34.0067 46.4891 34.1527 47.2193 34.1527 47.9861C34.1893 49.1544 34.1162 50.3228 34.1162 51.5276C34.0797 51.6737 34.1162 51.8562 34.1162 52.0753ZM59.7833 34.9517C59.8077 34.9274 59.832 34.903 59.8564 34.8787C59.5643 34.404 59.3452 33.8564 59.0166 33.3818C57.9213 31.8483 56.8138 30.327 55.6941 28.8179C55.2195 28.1607 54.6718 27.5765 54.1607 26.9193C53.686 26.3352 53.2114 25.751 52.7733 25.1668C52.1526 24.4001 51.6049 23.5968 51.0207 22.8301C50.4366 22.0634 49.8159 21.3332 49.2317 20.5664C48.8179 20.0309 48.4163 19.5076 48.0269 18.9965C47.8808 18.7774 47.6983 18.7409 47.4427 18.8139C46.822 18.9965 46.3839 18.7774 46.0188 18.2663C45.8484 17.9742 45.6658 17.7064 45.4711 17.463C45.2155 17.1709 44.9234 16.9154 44.7409 16.6233C44.3027 15.9661 43.9011 15.3089 43.536 14.6517C43.1344 13.9945 42.7693 13.3373 42.6232 12.5706C42.5137 12.1325 42.5502 11.8038 42.8788 11.4387C42.6963 11.2562 42.5137 11.0371 42.3312 10.9276C41.5644 10.4895 40.9803 11.0006 41.0533 11.7308C41.1263 12.6071 41.3089 13.4468 41.747 14.177C42.4772 15.4914 43.2439 16.7693 44.0837 18.0107C44.5583 18.7044 45.0695 19.3981 45.6536 20.0553C46.0553 20.4934 46.3839 21.0411 46.749 21.5157C48.1607 23.3413 49.5725 25.1668 50.9842 26.9924C51.4589 27.613 51.9335 28.1972 52.4082 28.7814C53.0288 29.5481 53.54 30.3879 54.2702 31.0816C54.8544 31.7023 55.5481 32.2864 56.0227 32.9801C56.6434 33.8199 57.3736 34.5501 57.9578 35.3898C58.688 36.3391 59.3817 37.3614 60.0754 38.3472C60.258 38.6393 60.477 38.8949 60.6961 39.1505C60.8787 39.1139 61.0612 39.0409 61.2072 39.0774C61.3168 39.1139 61.4263 39.26 61.5359 39.3695C61.7184 39.1139 61.8645 38.8949 62.047 38.7123C61.7914 38.3837 61.5724 38.1282 61.3898 37.8726C60.2945 36.5217 59.1992 35.2073 58.1403 33.8199C57.5197 33.0166 56.9355 32.1404 56.3148 31.3006C55.6941 30.4609 55.0734 29.6577 54.3797 28.8909C53.467 27.8321 52.5177 26.8098 51.7509 25.6415C51.3615 25.0329 50.9599 24.4366 50.5461 23.8524C50.0349 23.1587 49.5238 22.465 49.0126 21.7348C48.8301 21.5157 48.7206 21.2967 48.611 21.0411C48.5745 20.9316 48.5745 20.822 48.5745 20.7125C48.7206 20.749 48.7936 20.822 48.8666 20.9315C49.3778 21.6618 49.8889 22.4285 50.4366 23.1587C50.9964 23.9376 51.5684 24.7165 52.1526 25.4954C52.5907 26.0431 53.0288 26.6273 53.467 27.1749C53.9781 27.7591 54.5258 28.3067 55.0004 28.9274C55.6941 29.8037 56.3513 30.7895 57.045 31.6657C57.7752 32.6515 58.542 33.6008 59.3087 34.5501C59.4182 34.6961 59.6008 34.8422 59.7833 34.9517ZM106.992 6.87489C107.041 6.87489 107.089 6.87489 107.138 6.87489C107.211 6.54629 107.32 6.21771 107.393 5.88911C107.539 4.97634 107.686 4.10007 107.868 3.1873C108.014 2.34755 107.905 1.58082 107.174 1.03316C106.444 1.06967 106.189 1.54432 105.97 2.09198C105.823 2.4936 105.714 2.89522 105.531 3.26033C104.911 4.53821 104.546 5.88911 104.254 7.27652C103.961 8.5544 103.706 9.83228 103.45 11.1102C103.256 12.0594 103.049 13.0209 102.83 13.9945C102.464 15.5645 102.136 17.1709 101.771 18.7409C101.552 19.6537 101.223 20.5299 101.041 21.4427C100.821 22.5745 100.785 23.7429 100.42 24.8747C100.347 25.0938 100.42 25.2763 100.602 25.3859C100.821 25.4954 101.041 25.6415 101.296 25.7145C101.698 25.824 102.209 25.4954 102.282 25.0938C102.379 24.607 102.489 24.1323 102.611 23.6699C102.976 22.1364 103.377 20.5665 103.779 19.033C103.815 18.7774 103.852 18.4853 103.888 18.2298C103.84 18.2054 103.803 18.1932 103.779 18.1932C103.706 18.3393 103.669 18.4853 103.633 18.5949C103.56 18.9235 103.487 19.2156 103.414 19.5076C103.097 20.7733 102.757 22.0269 102.391 23.2683C102.318 23.5238 102.245 23.7794 101.807 23.7794C101.844 23.5238 101.844 23.3413 101.88 23.1222C102.026 22.611 102.172 22.0999 102.318 21.5522C102.659 20.4082 102.988 19.2521 103.304 18.0837C103.341 17.8646 103.414 17.6456 103.45 17.4265C103.706 16.5503 103.961 15.674 104.18 14.7977C104.436 13.7024 104.655 12.6071 104.874 11.5118C104.911 11.4022 104.984 11.2927 105.057 11.1832C105.13 12.3515 104.765 13.4103 104.546 14.4692C104.363 15.528 104.071 16.5868 103.852 17.6456C103.876 17.6456 103.913 17.6578 103.961 17.6821C104.144 17.1709 104.327 16.6598 104.509 16.1486C104.728 15.3089 104.947 14.4326 105.203 13.5929C105.495 12.4976 105.896 11.4022 106.006 10.2704C106.006 10.1609 106.043 10.0513 106.116 10.0148C106.554 9.72274 106.444 9.28462 106.59 8.80998C106.298 8.84649 106.079 8.84648 105.896 8.91951C105.568 9.06555 105.276 9.02903 104.984 8.95601C104.619 8.88299 104.546 8.77345 104.619 8.40834C104.765 7.72681 104.923 7.0331 105.093 6.32722C105.203 5.9256 105.349 5.524 105.422 5.08587C105.531 4.24612 105.97 3.55242 106.371 2.78569C106.517 2.49361 106.882 2.45709 107.065 2.71267C107.247 2.93173 107.357 3.15078 107.393 3.40636C107.539 4.02704 107.43 4.68424 107.284 5.30493C107.174 5.81608 107.101 6.36373 106.992 6.87489ZM149.162 42.6555C149.113 42.6311 149.064 42.6068 149.016 42.5825C148.76 42.765 148.541 42.9476 148.322 43.1301C147.774 43.6413 147.3 44.2255 146.716 44.6271C145.803 45.2843 144.854 45.8685 143.795 46.2336C143.32 46.4526 142.772 46.6352 142.407 47.0368C142.115 47.3654 141.787 47.7305 141.458 48.0226C141.129 48.3512 140.837 48.6798 140.436 48.8623C139.925 49.1179 139.523 49.4465 139.085 49.7386C138.695 50.0063 138.306 50.2619 137.916 50.5053C137.551 50.7244 137.186 50.9435 136.821 51.1625C136.529 51.3451 136.31 51.5641 136.018 51.7102C135.762 51.8562 135.47 51.8562 135.215 52.0023C134.521 52.4404 133.827 52.842 133.243 53.3166C132.805 53.6452 132.44 54.0834 132.184 54.5215C131.418 55.7629 130.724 57.0408 129.994 58.2821C129.921 58.4282 129.811 58.5377 129.665 58.7568C129.848 58.7568 129.921 58.7568 129.994 58.7202C130.468 58.4282 131.016 58.2821 131.418 57.844C131.637 57.5519 131.965 57.2963 132.221 57.0042C132.33 56.8947 132.513 56.7852 132.622 56.9677C132.659 57.0407 132.622 57.2598 132.549 57.3328C131.929 58.0265 131.345 58.7933 130.432 59.1949C130.14 59.3044 129.848 59.487 129.555 59.6695C129.592 59.8521 129.665 59.9981 129.702 60.2172C130.176 59.9616 130.614 59.7426 131.016 59.487C131.856 58.9393 132.695 58.3552 133.316 57.5519C133.925 56.773 134.533 55.9941 135.142 55.2152C135.215 55.1057 135.288 55.0327 135.324 54.9231C135.835 53.9008 136.529 53.0246 137.04 52.0023C137.296 51.4546 137.843 51.0165 138.355 50.6149C138.902 50.1767 139.523 49.8116 140.107 49.41C141.129 48.7528 142.225 48.3877 143.393 48.0591C143.539 48.0226 143.685 48.0226 143.722 48.2417C143.43 48.5337 142.809 48.5337 142.699 49.2274C143.101 49.1179 143.43 49.0084 143.758 48.8988C144.708 48.6068 145.547 48.0956 146.204 47.4019C146.789 46.7812 147.227 46.051 147.738 45.3573C148.066 44.8461 148.395 44.3715 148.687 43.8604C148.906 43.4953 149.198 43.1301 149.162 42.6555ZM70.627 22.2825C70.6027 22.2581 70.5662 22.2338 70.5175 22.2094C70.2254 22.4285 69.9333 22.6111 69.6413 22.8301C69.0571 23.2926 68.4851 23.7551 67.9252 24.2175C67.7062 24.3636 67.5236 24.5461 67.3411 24.7287C66.7204 25.4224 66.1362 26.1891 65.5155 26.8828C64.8583 27.613 64.2011 28.3432 63.544 29.037C62.7407 29.8402 61.9375 30.6434 61.0977 31.4102C60.5866 31.9213 60.1849 32.615 59.3817 32.8341C59.7468 33.1992 60.0389 33.5643 60.3675 33.9294C60.6231 33.7469 60.8056 33.5643 61.0247 33.3818C62.3756 32.3594 63.7265 31.3737 65.0409 30.3514C65.9537 29.6577 66.8664 28.9639 67.8887 28.4163C68.765 27.9416 69.6047 27.394 70.4445 26.8828C70.8096 26.6638 71.1747 26.4447 71.4668 26.2256C71.1017 25.6049 70.7001 24.9843 70.408 24.3636C70.1159 23.6699 70.554 22.9762 70.627 22.2825ZM61.3533 35.4994C61.5359 35.2803 61.6089 35.1343 61.7549 35.0247C62.5338 34.3675 63.3249 33.7103 64.1281 33.0531C64.5906 32.688 65.0652 32.3229 65.552 31.9578C66.0632 31.5562 66.5743 31.1546 67.1585 30.7895C68.1078 30.2053 69.0936 29.6576 70.0794 29.11C70.6392 28.7936 71.2112 28.4771 71.7954 28.1607C72.5256 27.7591 73.2923 27.394 74.0226 27.0289C74.0591 26.9923 74.0956 26.9559 74.1321 26.8828C74.0956 26.8463 74.0956 26.8098 74.0591 26.8098C73.986 26.7733 73.9495 26.7368 73.8765 26.7368C73.268 26.7611 72.6838 26.6638 72.124 26.4447C72.0145 26.4082 71.9049 26.4447 71.7954 26.4812C71.3207 26.7003 70.8096 26.8463 70.3715 27.1749C69.5317 27.7956 68.5459 28.2337 67.6697 28.8179C66.7569 29.4021 65.9171 30.0958 65.0409 30.7165C63.9821 31.4832 62.9598 32.2864 61.9375 33.0897C61.4628 33.4913 60.9882 33.9294 60.4405 34.3675C60.7691 34.7692 61.0247 35.0978 61.3533 35.4994ZM61.8279 65.7668C61.8523 65.7182 61.8766 65.6695 61.901 65.6208C61.4263 65.0731 60.8787 64.5255 60.185 64.1969C59.0531 63.6127 57.8848 63.1015 56.7164 62.5539C56.327 62.3835 55.9254 62.2253 55.5116 62.0792C54.2702 61.6046 52.9923 61.6411 51.7144 61.4221C51.0938 61.3125 50.4001 61.203 49.7429 61.2395C48.7206 61.3125 47.6617 61.1665 46.6394 61.13C46.3839 61.0935 46.1283 61.13 45.7997 61.1665C46.0553 61.7506 46.4934 62.0062 46.968 62.1523C48.6475 62.7729 50.327 63.1381 52.1526 63.1015C52.6637 63.1015 53.1749 63.1015 53.7225 63.1015C53.2479 62.6634 52.4081 62.846 52.1161 62.1523C52.2621 61.8237 52.5177 61.9697 52.7002 62.0427C53.1749 62.1523 53.6495 62.3348 54.1242 62.4809C54.4528 62.5539 54.8179 62.5174 55.11 62.6269C55.9132 62.9555 56.6799 63.3571 57.4832 63.6857C57.5927 63.7587 57.6657 63.8318 57.7752 63.8683C59.0166 64.3429 60.1484 64.8906 61.3168 65.5478C61.4628 65.6208 61.6454 65.6938 61.8279 65.7668ZM121.961 64.2334C121.56 64.1969 121.377 63.9413 121.085 64.1239C120.647 64.3794 120.209 64.635 119.953 65.1096C119.88 65.2557 119.771 65.3652 119.661 65.4382C118.675 66.3145 117.945 67.3733 117.142 68.3956C116.813 68.7972 116.558 69.1989 116.266 69.6005C116.046 69.8926 115.827 70.1846 115.535 70.5863C115.827 70.5497 115.973 70.5133 116.12 70.5133C116.631 70.4402 117.105 70.2211 117.653 70.4037C117.799 70.4402 118.018 70.3307 118.201 70.2211C119.113 69.6005 119.698 68.6877 120.099 67.6654C120.464 66.6431 121.012 65.6938 121.596 64.7445C121.706 64.5985 121.815 64.4525 121.961 64.2334ZM110.351 74.3104C110.132 74.2008 110.022 74.3469 109.876 74.4199C109.475 74.639 109.109 74.8945 108.708 75.0406C108.014 75.2962 107.357 75.5517 106.882 76.1359C106.773 76.2819 106.627 76.3915 106.481 76.4645C105.604 76.8661 104.911 77.5963 104.18 78.217C103.888 78.4726 103.669 78.7647 103.377 79.0568C103.925 78.8377 104.473 78.6551 104.947 78.4361C105.458 78.1805 105.933 78.144 106.481 78.217C106.955 78.3266 107.466 78.2535 107.868 77.9614C108.379 77.5963 108.854 77.1217 109.365 76.7201C109.548 76.574 109.657 76.3915 109.584 76.1724C109.511 75.8073 109.657 75.5882 109.84 75.2962C110.059 75.0041 110.314 74.712 110.351 74.3104ZM71.9049 22.0269C72.0875 22.0634 72.2335 22.0634 72.4161 22.0999C72.3431 22.1729 72.3065 22.2094 72.27 22.246C71.6128 22.8301 71.3208 23.5238 71.5398 24.4001C71.5763 24.5826 71.5033 24.7652 71.4668 25.0208C71.7954 25.3859 71.7954 25.3859 72.27 25.2398C72.3431 25.2033 72.4526 25.2033 72.5256 25.1668C73.2193 25.0573 73.84 24.4366 73.9495 23.7429C74.0226 23.1952 73.84 22.6841 73.5844 22.246C73.4749 22.0634 73.2923 21.9174 73.4019 21.6253C74.2051 22.4285 74.5702 23.3048 74.3146 24.4366C74.4972 24.3636 74.6432 24.2541 74.7163 24.1445C74.8623 23.7794 74.9353 23.4143 74.7528 23.0127C74.6432 22.7571 74.5702 22.5015 74.5337 22.246C74.4607 21.8443 74.2416 21.5888 73.84 21.4427C73.1463 21.2236 72.5986 21.4427 72.0145 21.8078C71.9779 21.8443 71.9414 21.9539 71.9049 22.0269ZM78.1118 31.3737C77.8562 31.5197 77.7832 31.4102 77.7101 31.2641C77.4546 30.8625 77.1625 30.4609 76.9434 30.0228C76.3227 29.037 75.7386 28.0147 75.1179 26.9924C75.0449 26.8828 74.8988 26.7733 74.7528 26.7003C74.7163 26.6638 74.6432 26.7368 74.5702 26.7733C74.6067 26.8463 74.6067 26.9193 74.6432 26.9558C75.0083 27.5035 75.41 28.0512 75.7751 28.6353C76.3958 29.7307 76.9799 30.8625 77.6371 31.9943C78.6229 33.7104 79.6452 35.4629 80.6675 37.2154C80.6919 37.2641 80.7162 37.3127 80.7405 37.3614C80.9596 37.544 81.3247 37.6535 81.5073 37.5075C81.7263 37.2884 81.5438 37.1058 81.4342 36.8868C81.0205 36.0835 80.5823 35.2925 80.1199 34.5136C79.6817 33.7103 79.1706 32.9436 78.8055 32.1404C78.2578 31.0085 77.6006 29.9497 76.9434 28.8909C76.9069 28.7814 76.7609 28.6718 76.6878 28.5988C76.6635 28.5988 76.627 28.611 76.5783 28.6353C77.0164 29.5846 77.4546 30.5339 78.1118 31.3737ZM106.7 3.11428C106.554 3.40636 106.408 3.62543 106.335 3.84449C106.043 4.68424 105.787 5.52399 105.531 6.40025C105.385 6.9114 105.312 7.49557 105.203 8.04324C105.166 8.22579 105.203 8.40835 105.458 8.48137C105.677 8.51788 105.896 8.51789 105.97 8.26231C106.043 8.11627 106.116 7.97022 106.152 7.82418C106.517 6.69235 106.773 5.56051 106.919 4.35565C106.955 3.99055 107.065 3.58892 106.7 3.11428ZM47.2601 17.9377C46.3839 16.6963 45.5076 15.4549 44.6313 14.2136C44.4123 14.3596 44.2662 14.4691 44.0472 14.6152C44.1932 14.8708 44.3027 15.0898 44.4488 15.2724C44.9599 15.9296 45.4346 16.5503 45.9457 17.2075C46.0918 17.4265 46.2743 17.6456 46.4569 17.8281C46.6394 18.0472 46.8585 18.1933 47.2601 17.9377ZM32.1446 56.9677C32.1812 56.8947 32.2542 56.8217 32.2542 56.7852C32.5219 55.9089 32.7897 55.0448 33.0574 54.1929C33.0939 54.0469 33.0574 53.8643 33.0209 53.6818C31.7795 54.5945 31.4509 55.6898 32.1446 56.9677ZM74.3511 21.1871C75.5195 21.9173 75.702 23.0127 75.483 24.2905C75.9941 24.108 75.7386 23.5603 76.0672 23.3048C76.1402 23.3778 76.2497 23.4143 76.3227 23.4873C76.2132 22.0999 75.483 21.1871 74.3511 21.1871ZM56.5704 35.0612C56.4243 34.9152 56.2783 34.8057 56.1322 34.6596C55.8402 35.0247 55.5116 35.2438 55.5116 35.755C55.8767 35.5359 56.1688 35.3168 56.5704 35.0612ZM72.5256 25.8605C72.5256 25.9092 72.5256 25.9579 72.5256 26.0066C73.0368 26.0066 73.5844 26.2621 74.1321 25.897C73.8765 25.8605 73.5844 25.897 73.3288 25.897C73.0733 25.9335 72.7812 25.897 72.5256 25.8605ZM43.463 12.9722C43.463 13.2278 43.4265 13.3738 43.463 13.5199C43.4995 13.5929 43.5725 13.7024 43.6821 13.7024C43.7551 13.7389 43.8646 13.6659 43.9011 13.5929C43.9376 13.5199 43.9376 13.3738 43.9011 13.3373C43.7916 13.2278 43.6821 13.1548 43.463 12.9722ZM107.539 19.6537C107.564 19.6293 107.576 19.5928 107.576 19.5441C107.26 19.3981 106.943 19.2521 106.627 19.106C106.846 19.5076 107.174 19.6537 107.539 19.6537ZM106.627 8.33532C106.651 8.33532 106.688 8.3475 106.736 8.37184C106.809 8.1041 106.87 7.84851 106.919 7.6051C106.894 7.6051 106.858 7.59294 106.809 7.5686C106.736 7.81201 106.675 8.06757 106.627 8.33532ZM101.406 81.6856C101.357 81.6612 101.308 81.6369 101.26 81.6125C101.187 81.7342 101.114 81.8559 101.041 81.9776C101.065 82.002 101.101 82.0263 101.15 82.0507C101.223 81.929 101.308 81.8073 101.406 81.6856Z" fill="#101828"/>
<path id="&#60;Path&#62;" d="M49.7429 55.8723C49.9254 56.0184 50.108 56.1644 50.254 56.3104C51.0937 57.1867 52.1526 57.6614 53.2479 58.0265C53.686 58.1725 54.1607 58.209 54.6353 58.1725C55.8036 58.1725 56.972 58.3185 58.1403 58.5376C58.8706 58.6836 59.6008 58.7202 60.331 58.7932C61.5358 58.8662 62.6677 59.1583 63.7995 59.5599C64.7123 59.8885 65.6616 60.2171 66.6109 60.5092C67.8157 60.8378 68.9841 61.3855 70.1159 61.9696C70.627 62.2252 71.2112 62.4078 71.7224 62.6268C72.051 62.7729 72.3431 62.9189 72.6351 63.1015C73.1463 63.3935 73.5844 63.7221 74.0956 64.0142C74.7528 64.3793 75.4465 64.7444 76.1037 65.1095C76.6392 65.4503 77.1503 65.8154 77.6371 66.2049C78.1848 66.6065 78.6959 67.0811 79.2071 67.5558C79.8278 68.1399 80.4119 68.7606 81.0326 69.3448C81.4708 69.7464 81.9819 70.075 82.42 70.4766C83.1868 71.2069 83.9535 71.9371 84.6837 72.6308C84.7811 72.7281 84.8663 72.8255 84.9393 72.9229C85.4504 73.6531 86.0346 74.3468 86.5092 75.1135C87.0204 75.8437 87.422 76.647 87.8601 77.4137C88.0062 77.6328 88.1522 77.8883 87.9332 78.2169C87.8236 78.1074 87.6776 78.0709 87.6046 77.9614C87.0204 77.0486 86.4727 76.0628 85.8886 75.15C85.56 74.6754 85.1949 74.2007 84.8297 73.7626C84.562 73.4218 84.2943 73.0932 84.0265 72.7768C83.7344 72.4847 83.4423 72.1561 83.1137 71.864C81.5438 70.5131 79.9373 69.1623 78.3308 67.8114C77.6736 67.2272 76.8339 66.8986 76.1037 66.4605C75.9941 66.4239 75.8846 66.3874 75.7751 66.3144C74.5702 65.5477 73.4019 64.781 72.197 64.0507C71.6493 63.7221 70.9921 63.6126 70.408 63.3936C69.9333 63.211 69.4222 63.0284 68.9841 62.7729C68.4729 62.5173 67.9617 62.4078 67.4506 62.2252C66.7204 61.9818 65.9902 61.7262 65.2599 61.4585C64.1281 61.0568 63.0328 60.6552 61.901 60.2536C60.9882 59.9615 60.0389 59.6329 59.0896 59.4504C57.9213 59.1948 56.7529 58.9757 55.5116 58.9392C54.6353 58.9027 53.7956 58.6106 52.9193 58.4281C52.8098 58.3916 52.7367 58.3185 52.6637 58.3185C52.0795 58.3916 51.6414 58.0995 51.2398 57.7344C50.8017 57.3328 50.327 56.9311 49.8889 56.493C49.7428 56.347 49.5603 56.2009 49.7429 55.8723Z" fill="#101828"/>
<path id="&#60;Compound Path&#62;_2" fill-rule="evenodd" clip-rule="evenodd" d="M114.805 30.7893C114.075 31.8481 113.381 32.8339 112.651 33.8197C112.249 34.3674 111.738 34.842 111.337 35.3532C110.752 36.1199 110.205 36.9231 109.657 37.6899C108.927 38.6756 108.27 39.7345 107.393 40.6107C107.138 40.9028 106.919 41.2314 106.7 41.56C106.262 42.2172 105.787 42.3267 105.057 42.0712C104.582 41.9251 104.473 41.5965 104.728 41.1949C105.02 40.7202 105.385 40.2821 105.677 39.8075C106.152 39.1868 106.59 38.5296 107.028 37.9089C107.138 37.7264 107.32 37.6168 107.43 37.4343C107.905 36.8501 108.343 36.3024 108.744 35.7183C109.365 34.8785 109.949 34.0023 110.533 33.126C111.264 32.1402 111.957 31.1179 112.651 30.0956C112.907 29.7305 112.98 29.4019 112.834 28.9638C112.395 27.905 112.651 26.8827 113.345 25.9699C113.442 25.8725 113.527 25.763 113.6 25.6413C113.929 25.2032 114.404 24.9476 114.915 24.9111C115.353 24.8381 115.791 24.8381 116.193 24.8746C117.799 24.9841 118.566 26.0794 118.566 27.6494C118.602 29.5845 116.996 31.0084 115.024 30.7893C114.951 30.7893 114.878 30.7893 114.805 30.7893ZM105.349 41.2679C105.604 41.487 105.787 41.56 106.006 41.3409C106.408 40.9393 106.809 40.5012 107.138 40.0266C107.868 39.0408 108.562 38.055 109.292 37.0692C109.767 36.412 110.278 35.7913 110.716 35.1706C111.324 34.2943 111.909 33.4181 112.468 32.5418C112.797 32.0307 113.089 31.5195 113.162 30.8989C113.199 30.7528 113.162 30.5703 113.162 30.3512C113.016 30.4607 112.98 30.4972 112.943 30.5337C112.468 31.2275 112.03 31.9577 111.592 32.6514C111.251 33.1382 110.874 33.6006 110.46 34.0388C110.022 34.5134 109.694 35.0976 109.329 35.6087C108.744 36.412 108.124 37.1422 107.539 37.9089C106.919 38.7852 106.298 39.698 105.714 40.6107C105.568 40.8298 105.495 41.0488 105.349 41.2679ZM116.229 26.3715C116.083 26.2985 115.973 26.262 115.864 26.262C115.134 26.0064 114.44 26.0064 113.819 26.6271C113.308 27.1382 113.308 27.7954 113.345 28.4526C113.381 28.7082 113.564 28.8907 113.892 28.8542C114.184 28.8542 114.513 28.8542 114.805 28.8542C115.499 28.8177 115.973 28.4526 116.229 27.8319C116.339 27.4668 116.521 27.2478 116.813 27.2113C117.105 26.6271 116.412 26.1159 116.886 25.5683C116.412 25.3127 116.01 25.3492 115.572 25.4952C115.718 25.8603 116.339 25.7873 116.229 26.3715ZM117.105 25.7873C117.178 25.9334 117.215 26.0429 117.251 26.1524C117.397 26.6636 117.58 27.1747 117.324 27.6859C117.154 27.978 116.984 28.2579 116.813 28.5257C116.74 28.5987 116.631 28.7082 116.521 28.7447C116.12 28.7812 115.937 29.0733 115.681 29.4749C116.229 29.2924 116.667 29.1828 117.142 29.0003C117.069 29.621 116.339 29.5844 116.156 30.0591C117.288 29.7305 118.128 28.7812 118.091 27.5033C118.055 26.7731 117.616 25.8969 117.105 25.7873ZM115.827 30.1321C115.827 30.1321 115.827 30.12 115.827 30.0956C115.706 30.12 115.584 30.1321 115.462 30.1321C115.462 30.1565 115.462 30.193 115.462 30.2416C115.584 30.2173 115.706 30.1808 115.827 30.1321Z" fill="#101828"/>
<path id="&#60;Compound Path&#62;_3" fill-rule="evenodd" clip-rule="evenodd" d="M126.123 38.968C126.196 39.4426 125.977 39.8442 125.685 40.2459C124.59 41.5968 123.057 41.9619 121.377 41.1221C120.975 40.9396 120.647 40.9031 120.282 41.1221C119.162 41.755 118.03 42.3878 116.886 43.0207C116.229 43.3858 115.608 43.7874 114.951 44.189C114.659 44.4081 114.367 44.6272 114.038 44.8097C113.892 44.9193 113.673 45.0288 113.491 45.1018C113.053 45.2478 112.541 45.0288 112.322 44.6272C112.067 44.116 112.14 43.7509 112.614 43.4223C113.089 43.1302 113.564 42.9111 114.038 42.6556C114.513 42.4 114.988 42.2175 115.426 41.8889C116.375 41.1586 117.434 40.538 118.566 40.0633C119.04 39.8808 119.515 39.6252 119.99 39.3696C120.209 39.2601 120.355 39.0775 120.391 38.7854C120.537 37.3615 121.852 36.4122 123.166 36.3757C123.714 36.3757 124.225 36.3392 124.736 36.6313C125.503 37.1059 126.16 37.8727 126.123 38.968ZM123.714 37.398C123.714 37.4224 123.702 37.4589 123.677 37.5076C123.02 37.2155 122.399 37.2155 121.742 37.6171C121.012 38.0552 120.793 38.4933 120.975 39.3331C121.158 39.3696 121.45 39.4061 121.487 39.5157C121.742 39.9538 122.071 39.8077 122.399 39.7347C122.947 39.6252 123.422 39.4426 123.641 38.8585C123.714 38.6394 123.896 38.4568 124.042 38.3108C124.444 37.9822 124.261 37.5441 124.371 37.1789C124.371 37.1424 124.298 37.0329 124.225 36.9964C123.969 36.8504 123.677 36.7408 123.349 36.9234C123.495 37.1059 123.604 37.252 123.714 37.398ZM120.355 39.8443C120.33 39.8199 120.306 39.7834 120.282 39.7347C120.099 39.8077 119.88 39.8077 119.698 39.9173C119.113 40.185 118.541 40.4649 117.982 40.757C117.361 41.0856 116.704 41.4507 116.12 41.8524C115.462 42.327 114.805 42.8747 113.965 43.0572C113.819 43.1302 113.673 43.1667 113.564 43.2398C113.308 43.4223 113.053 43.6049 112.834 43.8604C112.651 44.043 112.761 44.2986 112.943 44.4811C113.089 44.6637 113.199 44.4811 113.381 44.3716C113.637 44.189 113.965 43.97 114.257 43.8969C114.842 43.7144 115.316 43.3858 115.827 43.0937C116.266 42.8381 116.704 42.5826 117.251 42.254C116.996 42.1809 116.85 42.1809 116.631 42.1079C116.813 42.0349 116.923 41.9619 117.069 41.8889C117.872 41.4872 118.712 41.0856 119.552 40.6475C119.771 40.5379 119.953 40.3554 120.136 40.2094C120.245 40.0998 120.282 39.9538 120.355 39.8443ZM124.919 37.4345C124.882 37.6901 124.846 37.8361 124.846 37.9822C124.846 38.5664 124.663 39.114 124.261 39.5157C123.933 39.8808 123.458 40.1363 123.02 40.4284C122.764 40.5745 122.509 40.611 122.217 40.4284C121.925 40.3189 121.596 40.2459 121.304 40.1728C121.304 40.2459 121.268 40.2824 121.304 40.3189C121.328 40.3676 121.365 40.4162 121.414 40.4649C121.961 41.0126 122.618 40.83 123.203 40.6475C124.079 40.3919 124.846 39.8443 125.284 38.9315C125.612 38.3473 125.539 37.9822 124.919 37.4345Z" fill="#101828"/>
<path id="&#60;Path&#62;_2" d="M121.195 61.1301C121.633 60.7406 122.059 60.3512 122.472 59.9617C122.874 59.5966 123.276 59.268 123.714 58.9394C124.079 58.6474 124.334 58.2092 124.554 57.7711C124.955 57.0774 125.138 56.3107 125.357 55.5439C125.539 54.8137 125.831 54.0835 126.05 53.3533C126.233 52.6596 126.343 52.0024 126.562 51.3087C127.036 49.6657 127.803 48.1688 128.716 46.7083C129.227 45.8686 129.811 45.1018 130.541 44.4446C131.235 43.7874 131.929 43.1668 132.659 42.5826C133.024 42.2905 133.462 42.1079 133.864 41.9254C134.813 41.4507 135.726 41.0126 136.748 40.7936C137.953 40.5745 139.121 40.3189 140.326 40.2459C140.983 40.1729 141.641 40.0999 142.298 40.0633C142.334 40.0633 142.334 40.0268 142.371 40.0633C143.211 40.2459 144.05 40.0633 144.89 40.0633C144.963 40.0999 145 40.1364 145.036 40.1364C145.036 40.2094 145.036 40.2459 145 40.2459C144.196 40.4285 143.43 40.7205 142.626 40.611C142.371 40.5745 142.115 40.611 141.86 40.6475C140.217 40.8666 138.61 41.2317 137.077 41.8159C136.273 42.1079 135.47 42.327 134.74 42.7286C133.864 43.1668 133.097 43.7144 132.294 44.2621C131.198 44.9923 130.322 45.9781 129.482 46.9639C128.643 47.9497 127.876 49.0815 127.438 50.3229C127.182 51.0166 127.036 51.7468 126.817 52.4405C126.525 53.3533 126.197 54.2661 125.904 55.1788C125.758 55.5926 125.625 56.0064 125.503 56.4202C125.174 57.625 124.48 58.6473 123.604 59.5236C123.02 60.1443 122.253 60.5459 121.633 61.0936C121.523 61.1666 121.341 61.1301 121.195 61.1301Z" fill="#101828"/>
<path id="&#60;Path&#62;_3" d="M119.15 51.0163C119.004 51.4544 118.602 51.71 118.31 52.0021C117.909 52.4402 117.47 52.8053 117.032 53.2069C115.864 54.3388 114.586 55.288 113.199 56.0548C111.957 56.7485 110.679 57.2231 109.402 57.6977C108.963 57.8438 108.452 57.8803 107.978 58.0263C105.677 58.7201 103.304 59.1217 100.968 59.7058C99.7627 60.0344 98.5213 60.144 97.2434 60.2535C95.929 60.3265 94.6147 60.3265 93.3003 60.363C92.8378 60.3874 92.3753 60.4117 91.9128 60.4361C91.7425 60.4361 91.5599 60.4482 91.3652 60.4726C89.5031 60.5456 87.6046 60.4726 85.7425 60.363C85.6695 60.363 85.633 60.3265 85.4869 60.2535C85.6695 60.217 85.779 60.1805 85.8886 60.1805C86.5458 60.1805 87.2029 60.1805 87.8601 60.1805C89.2476 60.1561 90.6471 60.1196 92.0589 60.0709C93.3003 60.0344 94.5781 60.0344 95.8195 59.9249C96.6593 59.8519 97.499 59.6693 98.3387 59.4868C99.7505 59.219 101.15 58.9269 102.537 58.6105C102.976 58.501 103.414 58.3549 103.815 58.2454C104.107 58.1359 104.327 57.9533 104.692 58.1359C104.838 58.2089 105.13 58.0628 105.349 57.9898C105.823 57.8803 106.335 57.6977 106.809 57.6247C107.868 57.4787 108.781 56.9675 109.767 56.5294C110.278 56.3103 110.825 56.0913 111.373 55.9087C112.468 55.5436 113.418 54.9229 114.367 54.2657C115.097 53.7911 115.864 53.3164 116.631 52.8783C117.324 52.4402 117.982 51.9656 118.529 51.3449C118.675 51.1988 118.858 51.0528 119.04 50.9067C119.065 50.9311 119.101 50.9676 119.15 51.0163Z" fill="#101828"/>
<path id="&#60;Compound Path&#62;_4" fill-rule="evenodd" clip-rule="evenodd" d="M89.8682 52.1482C89.5396 52.0752 89.2841 52.0022 88.992 51.8927C88.2618 51.6371 87.6046 51.272 86.8013 51.1624C86.4362 51.1259 86.1807 51.2355 85.9616 51.4545C85.4504 51.9292 84.8663 52.2212 84.1726 52.3308C83.5154 52.4768 82.8947 52.4403 82.3105 52.1117C81.9454 51.8926 81.5925 51.6614 81.2517 51.418C80.5945 50.9434 80.4485 50.2497 80.485 49.556C80.485 48.5702 80.8866 47.6939 81.5073 46.9637C82.0549 46.3065 82.8217 45.8319 83.6979 45.9049C84.2091 45.9414 84.7567 46.197 85.1949 46.4525C86.0711 47.0002 86.7283 47.7304 86.9839 48.7527C87.0204 49.0083 87.203 49.1543 87.3855 49.2274C87.8967 49.4464 88.4078 49.6655 88.919 49.8115C89.4301 49.9576 89.9778 50.0671 90.4889 50.2131C91.1096 50.3957 91.3287 50.7608 91.2557 51.3085C91.1826 51.6006 91.0366 51.7831 90.781 51.8927C90.4889 52.0022 90.1603 52.0752 89.8682 52.1482ZM82.3835 51.345C82.3835 51.3937 82.3835 51.4302 82.3835 51.4545C82.6026 51.5641 82.7851 51.6736 83.0042 51.7101C83.5519 51.8196 84.1726 51.9657 84.6837 51.5641C85.1584 51.1624 85.5965 50.7243 85.9251 50.1766C86.5093 49.1543 86.2902 48.0225 85.3044 47.3288C85.0366 47.1097 84.7446 46.915 84.4281 46.7446C84.063 46.5256 83.6979 46.4525 83.2598 46.5986C82.919 46.7446 82.5904 46.8907 82.274 47.0367C82.0914 47.1097 81.8724 47.2193 81.7994 47.4018C81.5316 47.913 81.276 48.4485 81.0326 49.0083C80.9961 49.1543 80.9961 49.3734 81.0691 49.5195C81.2882 49.8481 81.5438 50.2131 81.8724 50.5052C82.0549 50.6513 82.347 50.7973 82.5661 50.8338C84.2821 51.0164 85.4504 49.2639 85.0123 48.0225C84.9393 47.8399 84.9028 47.6209 84.8663 47.3288C85.4869 47.6209 85.633 48.132 85.5235 49.2274C85.3409 51.1989 83.99 51.4545 82.3835 51.345ZM89.9413 51.6736C90.4159 51.6736 90.781 51.418 90.781 51.1624C90.8297 50.919 90.6471 50.7365 90.2333 50.6148C90.1603 50.5904 90.0751 50.5661 89.9778 50.5418C89.2841 50.3227 88.5904 50.1401 87.8967 49.8846C87.495 49.7385 87.3855 49.7385 87.276 49.9576C87.1664 50.1766 87.2395 50.3227 87.6046 50.5052C88.3105 50.8703 89.0163 51.2354 89.7222 51.6006C89.8317 51.6371 89.9413 51.6736 89.9413 51.6736Z" fill="#101828"/>
<path id="&#60;Path&#62;_4" d="M142.955 41.7061C142.663 41.8156 142.407 41.9251 142.115 41.9982C141.312 42.2172 140.545 42.3998 139.779 42.6189C139.231 42.8014 138.72 43.13 138.172 43.276C137.807 43.3856 137.478 43.6777 137.113 43.8602C136.821 44.0063 136.529 44.1523 136.237 44.2983C134.192 45.2111 132.403 46.416 131.016 48.1685C130.359 48.9352 129.665 49.7019 129.081 50.5052C128.351 51.491 127.766 52.5498 127.401 53.7182C127.328 54.0467 127.182 54.3753 127.073 54.7039C126.963 55.1055 126.89 55.5437 126.781 55.9453C126.562 55.7627 126.562 55.4707 126.598 55.1786C126.671 54.2658 127 53.4261 127.365 52.6228C127.474 52.4038 127.474 52.1117 127.547 51.8926C127.73 51.4545 127.876 51.0163 128.095 50.6147C128.57 49.7385 129.044 48.8257 129.629 48.0224C130.213 47.1827 130.943 46.3795 131.637 45.6127C131.929 45.2841 132.33 45.0651 132.695 44.8095C133.608 44.1523 134.557 43.5316 135.653 43.2395C136.237 43.0935 136.748 42.8014 137.296 42.6554C138.099 42.4363 138.939 42.3268 139.742 42.0712C140.618 41.8156 141.531 41.8156 142.444 41.6696C142.59 41.6331 142.772 41.6331 142.955 41.6331C142.955 41.6574 142.955 41.6817 142.955 41.7061Z" fill="#101828"/>
<path id="&#60;Path&#62;_5" d="M121.195 61.1299C121.158 61.2394 121.158 61.3854 121.048 61.4585C119.698 62.6268 118.274 63.7587 116.704 64.6714C115.754 65.2556 114.696 65.6207 113.637 66.0223C112.468 66.4239 111.264 66.7525 110.095 67.1542C108.744 67.6288 107.393 68.1034 106.262 69.0162C105.787 69.4178 105.203 69.7099 104.728 70.075C103.268 71.1704 101.953 72.3387 101.004 73.9087C100.383 74.9675 99.7262 76.0628 99.3245 77.2677C99.2515 77.4867 99.1785 77.7058 99.069 78.0709C99.0325 77.8153 98.9959 77.7423 98.9959 77.6328C99.1055 76.6105 99.4341 75.6247 99.8357 74.6754C100.237 73.7991 100.675 72.9229 101.296 72.1562C101.625 71.7545 102.063 71.3894 102.464 70.9878C102.72 70.7687 102.976 70.5497 103.195 70.3306C104.473 69.0162 105.896 67.9574 107.612 67.3732C109 66.8986 110.387 66.424 111.848 66.1319C112.98 65.9128 114.038 65.5477 115.134 65.1095C116.777 64.4524 118.201 63.4666 119.552 62.3712C120.026 62.0061 120.537 61.6775 121.012 61.3489C121.085 61.2759 121.158 61.2029 121.195 61.1299Z" fill="#101828"/>
<path id="&#60;Path&#62;_6" d="M43.463 57.0405C43.7551 57.2353 44.0593 57.4178 44.3758 57.5882C45.3251 58.1724 46.3352 58.6105 47.4062 58.9026C48.3189 59.1581 49.2682 59.4502 50.181 59.6693C50.8382 59.8154 51.4954 59.9249 52.1526 59.9614C53.613 60.0709 55.0369 60.144 56.4974 60.217C57.0815 60.2535 57.6292 60.1805 58.1769 60.29C59.2357 60.5091 60.2945 60.8377 61.3168 61.1297C62.3026 61.3853 63.2519 61.7139 64.2377 61.933C65.7346 62.2616 67.1585 62.7362 68.5824 63.2474C68.6555 63.2717 68.7285 63.3082 68.8015 63.3569C69.7751 63.8437 70.7609 64.3305 71.7589 64.8173C71.7954 64.8538 71.9049 64.8904 71.9414 64.9634C71.9779 65.0364 72.051 65.1824 71.9779 65.2555C71.9414 65.3285 71.7954 65.365 71.7224 65.365C71.6128 65.365 71.5398 65.2555 71.4668 65.219C70.6392 64.8295 69.8238 64.4279 69.0206 64.0141C67.3046 63.1743 65.4425 62.7362 63.617 62.2616C62.3026 61.8965 61.0004 61.507 59.7103 61.0932C58.9436 60.8376 58.1769 60.6551 57.4101 60.6186C55.5481 60.5091 53.7225 60.4725 51.8605 60.363C51.0938 60.3265 50.2905 60.1805 49.5238 59.9614C48.3189 59.5963 47.1141 59.2312 45.9457 58.7565C45.0695 58.3914 44.2297 57.9533 43.536 57.2961C43.4995 57.2596 43.4265 57.1866 43.39 57.1136C43.4143 57.0892 43.4387 57.0649 43.463 57.0405Z" fill="#101828"/>
<path id="&#60;Path&#62;_7" d="M73.1828 61.8967C73.2923 61.9332 73.4384 61.9332 73.5114 62.0063C74.2051 62.4079 74.8258 62.8095 75.483 63.2111C76.6026 63.8927 77.7223 64.562 78.842 65.2192C79.2801 65.5113 79.7304 65.7669 80.1929 65.9859C81.6898 66.7162 82.8947 67.8115 84.136 68.8703C84.4525 69.1381 84.7567 69.4058 85.0488 69.6735C85.1949 69.7831 85.3409 69.8926 85.4139 70.0386C86.5092 71.3895 87.6411 72.7039 88.4808 74.2009C88.9555 75.1136 89.3571 76.0994 89.7952 77.0487C89.9778 77.3773 90.0873 77.7424 90.2699 78.1075C90.4889 78.5457 90.5985 79.0203 90.635 79.6045C90.2699 79.2394 90.0508 78.9108 89.8682 78.5091C89.5031 77.5599 89.1745 76.6106 88.7364 75.6978C88.2253 74.712 87.6776 73.7627 86.9474 72.923C86.3632 72.1928 85.8886 71.4261 85.3044 70.7323C84.6837 70.0386 83.99 69.4545 83.2963 68.7973C83.1502 68.6512 83.0042 68.5052 82.8217 68.3956C81.9454 67.6289 80.9961 66.9352 79.9738 66.3876C78.988 65.9129 78.0752 65.2557 77.126 64.6716C76.1037 64.0509 75.0448 63.4302 73.986 62.8095C73.6574 62.5904 73.3288 62.3714 73.1828 61.8967Z" fill="#101828"/>
<path id="&#60;Path&#62;_8" d="M84.4281 74.7118C84.2456 74.8944 84.1361 74.8213 83.99 74.6388C83.7223 74.298 83.4423 73.9816 83.1503 73.6895C83.0529 73.5678 82.919 73.4948 82.7486 73.4704C83.5032 75.0282 84.2578 76.586 85.0123 78.1438C84.9636 78.1681 84.9149 78.1925 84.8663 78.2168C84.7567 77.9613 84.6472 77.7422 84.5377 77.4866C84.0265 76.5738 83.5154 75.6611 82.9312 74.7848C82.5174 74.1033 82.0428 73.4461 81.5073 72.8132C80.9474 72.1074 80.3389 71.438 79.6817 70.8051C79.3166 70.44 78.8785 70.1114 78.4404 69.8558C77.5276 69.3447 76.5783 68.797 75.629 68.3589C74.9718 68.0303 74.2781 67.8843 73.5844 67.6287C72.5621 67.2636 71.5033 66.7889 70.4445 66.4238C69.3857 66.0222 68.2538 65.6571 67.1585 65.292C66.9029 65.1825 66.6109 65.146 66.3918 64.8174C66.6839 64.7443 66.9395 64.8174 67.1585 64.8904C68.2538 65.2555 69.3492 65.6571 70.4445 65.9857C72.3431 66.5334 74.1321 67.4096 76.0306 68.0303C76.2862 68.1033 76.5418 68.2859 76.7974 68.4319C77.9292 69.0161 79.061 69.6003 80.0833 70.367C80.3024 70.5496 80.485 70.7321 80.6675 70.9512C81.1787 71.5353 81.6533 72.156 82.128 72.7402C82.2375 72.8497 82.3835 72.9593 82.4931 72.9958C83.4058 73.2879 84.0265 73.872 84.3916 74.7483L84.4281 74.7118Z" fill="#101828"/>
<path id="&#60;Path&#62;_9" d="M120.063 52.6595C119.625 53.2071 119.186 53.7548 118.748 54.3024C117.945 55.3247 116.923 56.0915 115.9 56.8947C115.207 57.4058 114.404 57.771 113.637 58.2091C113.126 58.5012 112.578 58.7567 112.067 59.0853C111.154 59.6695 110.132 60.0346 109.073 60.3632C107.345 60.8744 105.604 61.349 103.852 61.7872C102.976 62.0427 102.063 62.0792 101.15 62.2253C100.456 62.3713 99.7627 62.5174 99.0325 62.6269C98.1927 62.7364 97.353 62.846 96.5132 62.8825C94.4443 62.9798 92.3631 63.0407 90.2699 63.065C90.5376 62.992 90.7932 62.9312 91.0366 62.8825C92.278 62.5904 93.5558 62.6634 94.8337 62.5904C95.8925 62.5539 96.9513 62.5539 98.0102 62.4443C99.9817 62.1523 101.917 61.8602 103.852 61.4585C105.239 61.203 106.59 60.7283 107.978 60.3632C109.17 60.0225 110.326 59.5722 111.446 59.0123C112.578 58.4282 113.71 57.771 114.805 57.0773C115.462 56.7121 116.047 56.2375 116.667 55.7994C117.616 55.1057 118.383 54.1929 119.186 53.3897C119.454 53.1219 119.722 52.8542 119.99 52.5864C120.014 52.6108 120.038 52.6351 120.063 52.6595Z" fill="#101828"/>
<path id="&#60;Path&#62;_10" d="M124.882 51.3817C124.955 51.0166 124.955 50.6515 125.065 50.2864C125.612 48.2783 126.598 46.5258 128.022 45.0288C128.716 44.2986 129.373 43.5684 130.176 42.9477C131.101 42.2905 132.087 41.7185 133.134 41.2317C134.107 40.7936 135.093 40.392 136.091 40.0269C136.712 39.8078 137.369 39.6983 137.989 39.5522C138.939 39.2845 139.876 39.0289 140.801 38.7855C140.923 38.7368 141.056 38.7246 141.202 38.749C140.655 39.0776 140.071 39.2967 139.486 39.4792C138.172 39.8443 136.821 40.1729 135.543 40.6475C133.243 41.4873 131.089 42.6191 129.336 44.3351C128.582 45.0654 127.876 45.8321 127.219 46.6353C126.89 47.0734 126.671 47.5846 126.452 48.0592C126.197 48.5339 126.014 49.0085 125.758 49.4832C125.466 50.1038 125.065 50.688 125.065 51.4182C125.016 51.3939 124.955 51.3817 124.882 51.3817Z" fill="#101828"/>
<path id="&#60;Path&#62;_11" d="M123.13 51.3084C122.874 51.71 122.655 52.1116 122.399 52.4767C121.888 53.1583 121.377 53.8155 120.866 54.4483C119.259 56.3834 117.288 57.8073 115.17 59.1582C113.454 60.2535 111.592 61.0933 109.694 61.787C107.832 62.4807 105.97 63.0649 103.998 63.43C102.939 63.6125 101.88 63.9046 100.748 64.1602C101.114 63.9046 101.479 63.7586 101.844 63.6856C102.866 63.4665 103.888 63.2839 104.874 63.0284C105.933 62.7363 106.992 62.4077 108.051 62.0426C108.416 61.933 108.781 61.7505 109.182 61.6409C110.679 61.1663 112.103 60.4726 113.491 59.7424C114.367 59.3043 115.134 58.7201 115.973 58.2089C116.448 57.9168 116.923 57.6247 117.361 57.2596C119.369 55.7262 121.085 53.9007 122.545 51.8195C122.691 51.6005 122.838 51.4179 122.984 51.2354C123.032 51.2597 123.081 51.284 123.13 51.3084Z" fill="#101828"/>
<path id="&#60;Path&#62;_12" d="M98.9959 80.6632C98.9959 79.787 99.3245 79.0202 99.6897 78.2535C100.748 76.0629 102.464 74.3104 104.034 72.4848C104.436 72.0467 104.947 71.6451 105.458 71.353C106.481 70.7688 107.576 70.2212 108.671 69.71C108.927 69.564 109.292 69.4909 109.73 69.637C109.365 69.783 109.109 69.9291 108.854 70.0386C107.759 70.3672 106.846 71.0609 105.896 71.6086C104.874 72.1562 104.144 73.0325 103.414 73.9087C102.72 74.712 101.99 75.4787 101.369 76.3185C100.895 76.9756 100.493 77.6694 100.128 78.3996C99.7262 79.1298 99.3976 79.86 98.9959 80.6632Z" fill="#101828"/>
<path id="&#60;Path&#62;_13" d="M101.734 69.929C102.136 69.5274 102.574 69.1988 102.903 68.7606C103.633 67.8844 104.546 67.1907 105.495 66.6065C106.189 66.1684 107.028 65.8763 107.795 65.5842C109.109 65.1461 110.387 64.781 111.702 64.3428C112.359 64.1238 113.053 63.8682 113.71 63.6126C114.257 63.3936 114.805 63.1745 115.389 62.9919C115.219 63.0893 115.049 63.1745 114.878 63.2475C114.708 63.3692 114.525 63.4788 114.33 63.5761C113.783 63.8317 113.235 64.0873 112.687 64.3428C112.432 64.4524 112.103 64.5254 111.811 64.6349C110.278 65.1826 108.708 65.6938 107.174 66.2414C105.714 66.7891 104.509 67.6288 103.414 68.7241C102.903 69.1988 102.318 69.5639 101.807 70.002C101.783 69.9777 101.759 69.9533 101.734 69.929Z" fill="#101828"/>
<path id="&#60;Path&#62;_14" d="M69.9698 69.7101C70.0794 69.7101 70.1889 69.6006 70.2984 69.6371C70.8096 69.7466 71.3938 69.8196 71.9049 70.0387C72.6716 70.4038 73.3654 70.915 74.0956 71.3166C74.4607 71.5356 74.8258 71.6817 75.1909 71.9008C76.1767 72.4119 76.9069 73.2882 77.7467 74.0549C78.1118 74.3835 78.4769 74.7486 78.842 75.0772C79.0976 75.2598 79.2071 75.5153 79.3166 75.7709C79.0975 75.9169 78.988 75.8074 78.8785 75.6979C78.1239 74.992 77.3694 74.2983 76.6148 73.6168C75.8481 72.9231 75.0814 72.3389 74.1686 71.8642C73.4749 71.5356 72.8542 71.0975 72.2335 70.6959C71.6493 70.2943 70.9922 70.0752 70.2984 69.9657C70.1889 69.9292 70.0794 69.8927 70.0064 69.8561C69.982 69.8075 69.9698 69.7588 69.9698 69.7101Z" fill="#101828"/>
<path id="&#60;Path&#62;_15" d="M129.227 42.5457C129.373 41.9615 129.738 41.5599 130.103 41.1583C130.943 40.282 131.965 39.6613 133.061 39.2232C133.937 38.8581 134.813 38.4565 135.762 38.1279C136.675 37.8358 137.624 37.6532 138.574 37.4342C139.158 37.3246 139.742 37.2516 140.436 37.1421C140.253 37.4707 140.034 37.3977 139.888 37.4342C138.428 37.8358 136.931 38.0914 135.507 38.6025C133.791 39.1867 132.075 39.8804 130.651 41.0488C130.176 41.4139 129.775 41.925 129.373 42.3631C129.324 42.4118 129.276 42.4727 129.227 42.5457Z" fill="#101828"/>
<path id="&#60;Path&#62;_16" d="M88.1157 26.5906C87.5072 26.761 86.8987 26.9435 86.2902 27.1383C84.6107 27.6494 82.9312 28.1606 81.2517 28.6717C80.3754 28.9638 79.5722 29.2924 78.842 29.8036C78.769 29.8766 78.6229 29.8036 78.4769 29.8036C78.5499 29.694 78.5499 29.5115 78.6229 29.475C79.1706 29.1829 79.6817 28.8178 80.2659 28.5987C81.8237 28.0632 83.3937 27.5764 84.9758 27.1383C85.9981 26.8462 87.0569 26.6636 88.0792 26.4446C88.0792 26.4933 88.0914 26.5419 88.1157 26.5906Z" fill="#101828"/>
<path id="&#60;Path&#62;_17" d="M84.3916 74.7484C84.5011 74.8214 84.6107 74.8579 84.6472 74.9675C84.9028 75.8072 85.5965 76.3914 85.9251 77.1581C86.3267 77.9248 87.0934 78.3995 87.5315 79.0932C87.9697 79.7504 88.4078 80.4076 88.7729 81.1013C88.2983 80.9188 88.0062 80.5171 87.7141 80.1885C87.2273 79.5557 86.7405 78.9228 86.2537 78.29C85.9981 77.9979 85.779 77.7058 85.56 77.3772C85.2314 76.793 84.9028 76.2089 84.5377 75.6247C84.3916 75.3326 84.3551 75.0283 84.4281 74.7119L84.3916 74.7484Z" fill="#101828"/>
<path id="&#60;Path&#62;_18" d="M133.937 47.4747C134.156 47.1826 134.411 46.9271 134.631 46.635C135.397 45.7587 136.273 45.065 137.369 44.6269C138.136 44.2983 138.902 43.8601 139.669 43.5681C140.399 43.276 141.166 43.1299 141.896 42.9839C141.604 43.349 141.129 43.3125 140.728 43.495C140.034 43.8236 139.267 44.1157 138.574 44.4443C137.916 44.7607 137.271 45.0893 136.639 45.4301C135.653 45.9413 134.813 46.708 133.937 47.4747Z" fill="#101828"/>
<path id="&#60;Path&#62;_19" d="M117.032 65.6574C116.375 66.205 115.645 66.6797 114.805 66.9353C113.965 67.1908 113.126 67.556 112.286 67.8846C112.249 67.9211 112.213 67.9211 112.067 67.9211C112.724 67.4464 113.418 67.1178 114.148 66.9353C114.915 66.7162 115.572 66.3146 116.266 65.913C116.485 65.7669 116.74 65.6574 116.959 65.5479C116.984 65.5965 117.008 65.633 117.032 65.6574Z" fill="#101828"/>
<path id="&#60;Path&#62;_20" d="M128.387 43.7506C128.485 43.5803 128.582 43.4099 128.679 43.2395C128.728 43.2395 128.764 43.2517 128.789 43.276C128.691 43.4464 128.594 43.6168 128.497 43.7872C128.448 43.7628 128.411 43.7506 128.387 43.7506Z" fill="#101828"/>
<path id="&#60;Path&#62;_21" d="M63.3614 42.7651C63.3127 42.9112 63.264 43.0694 63.2153 43.2398C63.1667 43.2154 63.1302 43.1911 63.1058 43.1667C63.2032 43.045 63.3005 42.9112 63.3979 42.7651H63.3614Z" fill="#101828"/>
<path id="&#60;Path&#62;_22" d="M115.28 27.5763C115.17 26.9922 114.805 26.7731 114.33 26.7001C114.55 26.4445 114.732 26.3715 114.988 26.5175C115.353 26.7001 115.426 26.9557 115.28 27.5763Z" fill="#101828"/>
<path id="&#60;Path&#62;_23" d="M122.801 37.6169C122.923 37.7873 123.044 37.9699 123.166 38.1646C123.117 38.1889 123.081 38.2133 123.057 38.2376C122.911 38.0672 122.777 37.8969 122.655 37.7265C122.704 37.6778 122.752 37.6413 122.801 37.6169Z" fill="#101828"/>
</g>
</svg>
