<svg width="114" height="80" viewBox="0 0 114 80" fill="none" xmlns="http://www.w3.org/2000/svg">
<g id="logos:youtube-icon" clip-path="url(#clip0_1122_225)">
<path id="Vector" d="M111.265 12.4778C110.612 10.066 109.339 7.86731 107.573 6.10057C105.806 4.33383 103.607 3.06072 101.196 2.408C92.3663 0 56.8312 0 56.8312 0C56.8312 0 21.2943 0.0728887 12.465 2.48089C10.0532 3.13364 7.8545 4.40683 6.08784 6.17365C4.32117 7.94047 3.04818 10.1393 2.39564 12.5511C-0.275026 28.2391 -1.31103 52.144 2.46897 67.2045C3.12158 69.6162 4.3946 71.8149 6.16126 73.5817C7.92792 75.3484 10.1266 76.6215 12.5383 77.2742C21.3676 79.6822 56.9037 79.6822 56.9037 79.6822C56.9037 79.6822 92.4392 79.6822 101.268 77.2742C103.68 76.6216 105.879 75.3485 107.645 73.5817C109.412 71.815 110.685 69.6163 111.338 67.2045C114.155 51.4942 115.023 27.604 111.265 12.4778Z" fill="#FF0000"/>
<path id="Vector_2" d="M45.5205 56.9154L74.9996 39.8408L45.5205 22.7661V56.9154Z" fill="white"/>
</g>
<defs>
<clipPath id="clip0_1122_225">
<rect width="113.778" height="80" fill="white"/>
</clipPath>
</defs>
</svg>
