<svg width="100" height="100" viewBox="0 0 100 100" fill="none" xmlns="http://www.w3.org/2000/svg">
<g id="&#208;&#145;&#208;&#181;&#208;&#183; &#208;&#189;&#208;&#176;&#208;&#183;&#208;&#178;&#208;&#176;&#208;&#189;&#208;&#184;&#209;&#143; (60) 1">
<path id="Vector" d="M75.4545 29.0909C71.5151 27.4242 65.1515 23.7879 64.0909 21.0606C63.9394 20.7576 62.5757 18.3333 58.4848 18.3333H53.7879V13.4848C53.7879 12.5757 53.1818 11.9697 52.2727 11.9697C50.303 11.9697 48.7879 10.303 48.7879 8.33332C48.7879 6.36362 50.303 4.69695 52.2727 4.69695C54.2424 4.69695 55.7575 6.36362 55.7575 8.33332C55.7575 9.24241 56.3636 9.84847 57.2727 9.84847C58.1818 9.84847 58.7879 9.24241 58.7879 8.33332C58.7879 4.54544 55.7576 1.51514 52.1212 1.51514C48.4848 1.51514 45.606 4.54544 45.606 8.1818C45.606 11.3636 47.8788 14.0909 50.7576 14.697V18.1818H43.9394C40.1515 18.1818 39.2424 25.9091 25.606 28.9394C25.4545 28.9394 25.303 29.0909 25.1515 29.0909C16.3636 34.3939 6.96968 83.9394 7.27271 96.9697C7.27271 97.7273 8.03028 98.4848 8.78786 98.4848L20 98.3333C20.7576 98.3333 21.3636 97.8788 21.5151 97.1212L29.2424 57.5757C30.7576 66.5151 32.4242 81.3636 30 91.5151C29.8485 92.2727 30.1515 93.0303 30.9091 93.3333C31.8182 93.6363 53.1818 102.121 72.2727 93.3333C72.8788 93.0303 73.1818 92.4242 73.1818 91.8182C71.9697 81.9697 70.303 63.1818 71.2121 53.3333L77.2727 87.4242C78.1818 92.5757 78.0303 97.1212 78.0303 96.9697C78.0303 97.8788 78.6363 98.4848 79.5454 98.4848H91.2121C91.6666 98.4848 92.1212 98.3333 92.4242 97.8788C92.7272 97.5757 92.8788 97.1212 92.7272 96.6666C88.6363 75 87.1212 30.7576 75.4545 29.0909ZM52.7272 41.6667C49.2424 38.3333 47.1212 33.7879 45.7576 29.8485H58.9394C56.9697 35 54.0909 39.5454 52.7272 41.6667ZM60.606 21.8182C60.4545 23.4848 60.1515 25.303 59.6969 26.9697H53.6363V21.3636C57.4242 21.5151 59.2424 21.0606 60.606 21.8182ZM50.7576 21.3636V26.9697H44.8485C44.2424 24.697 43.9394 22.7273 43.7879 21.8182C44.6969 20.9091 43.6363 21.5151 50.7576 21.3636ZM10.303 95.4545C10.303 94.5454 10.303 93.4848 10.4545 92.4242H19.3939L18.7879 95.4545H10.303ZM30.7576 49.0909C30.4545 47.4242 28.0303 47.5757 27.7273 49.0909L20 89.3939H10.7576C12.5757 70.606 20.7576 36.0606 26.6666 31.9697C35.303 30 38.7879 26.8182 41.2121 24.2424C42.1212 29.2424 44.6969 38.9394 51.8182 44.8485C52.8788 46.9697 62.1212 66.0606 55.1515 86.6666C47.4242 86.6666 38.9394 85.4545 34.0909 84.5454C34.3939 79.5454 34.2424 74.2424 33.7879 69.0909C36.8182 69.3939 40.1515 69.2424 43.1818 68.4848V68.9394C43.1818 69.8485 43.7879 70.4545 44.6969 70.4545C45.606 70.4545 46.2121 69.8485 46.2121 68.9394V67.4242C46.6666 67.2727 47.1212 66.9697 47.4242 66.6666C48.1818 66.2121 48.3333 65.303 47.8788 64.5454C47.4242 63.7879 46.5151 63.6363 45.7576 64.0909C41.8182 66.6666 34.5454 65.9091 33.4848 65.7576C32.4242 56.9697 30.9091 49.697 30.7576 49.0909ZM33.1818 90.9091C33.3333 89.8485 33.6363 88.7879 33.6363 87.7273C43.0303 89.3939 60.7575 91.6666 69.3939 87.5757C69.5454 88.7879 69.6969 90 69.8485 90.9091C54.6969 97.2727 37.8788 92.4242 33.1818 90.9091ZM70.606 45.7576C68.0303 47.8788 67.5757 56.6667 67.8788 66.2121L65.303 65.303C64.5454 65 63.6363 65.4545 63.3333 66.2121C63.0303 66.9697 63.4848 67.8788 64.2424 68.1818L67.8788 69.3939C68.1818 74.5454 68.6363 79.8485 69.0909 84.2424C66.6666 85.7576 62.7272 86.5151 58.1818 86.6666C64.5454 66.3636 56.6666 48.1818 54.5454 44.0909C56.3636 41.6667 61.6666 33.4848 63.1818 25C66.5151 28.3333 73.9394 31.9697 74.8485 31.9697C82.7272 32.7273 86.3636 75.303 88.3333 89.2424H80.606L73.0303 46.5151C72.8788 45.606 71.5151 45 70.606 45.7576ZM81.0606 95.4545V92.4242H88.9394C89.0909 93.4848 89.2424 94.5454 89.3939 95.4545H81.0606Z" fill="#CBB79B"/>
</g>
</svg>
