<svg width="90" height="90" viewBox="0 0 90 90" fill="none" xmlns="http://www.w3.org/2000/svg">
<g id="&#208;&#145;&#208;&#181;&#208;&#183; &#208;&#189;&#208;&#176;&#208;&#183;&#208;&#178;&#208;&#176;&#208;&#189;&#208;&#184;&#209;&#143; (57) 1">
<path id="Vector" d="M54.2727 17.7273H31.2273C30.4091 17.7273 29.8636 18.2727 29.8636 19.0909V28.2273C29.8636 29.0455 30.4091 29.5909 31.2273 29.5909H54.2727C55.0909 29.5909 55.6364 29.0455 55.6364 28.2273V19.0909C55.6364 18.2727 54.9545 17.7273 54.2727 17.7273ZM52.9091 26.8637H44.1818V23.5909C44.1818 22.7727 43.6364 22.2273 42.8182 22.2273C42 22.2273 41.4545 22.7727 41.4545 23.5909V26.8637H32.7273V20.4546H53.0455V26.8637H52.9091ZM68.4545 37.9091C73.0909 37.9091 76.9091 34.0909 76.9091 29.4546C76.9091 24.8182 73.0909 21 68.4545 21C63.8182 21 60 24.8182 60 29.4546C60 34.2273 63.6818 37.9091 68.4545 37.9091ZM68.4545 23.8637C71.5909 23.8637 74.1818 26.4546 74.1818 29.5909C74.1818 32.3182 72.2727 34.5 69.8182 35.0455V29.5909C69.8182 28.7728 69.2727 28.2273 68.4545 28.2273C67.6364 28.2273 67.0909 28.7728 67.0909 29.5909V35.0455C64.6364 34.3637 62.7273 32.1818 62.7273 29.5909C62.7273 26.3182 65.3182 23.8637 68.4545 23.8637Z" fill="#CBB79B"/>
<path id="Vector_2" d="M82.2273 29.1818H81.9545V24.2727C81.9545 17.8636 76.7727 12.6818 70.3636 12.6818H60V4.36364C60 3.54545 59.4545 3 58.6364 3C57.8182 3 57.2727 3.54545 57.2727 4.36364V12.6818H32.7273V4.36364C32.7273 3.54545 32.1818 3 31.3636 3C30.5455 3 30 3.54545 30 4.36364V12.6818H15V8.59091H16.0909C16.9091 8.59091 17.4545 8.04545 17.4545 7.22727C17.4545 6.40909 16.9091 5.86364 16.0909 5.86364H11.0455C10.2273 5.86364 9.68181 6.40909 9.68181 7.22727C9.68181 8.04545 10.2273 8.59091 11.0455 8.59091H12.1364V12.6818H6.40909C3.68181 12.6818 1.36363 15 1.36363 17.7273V42.4091C1.36363 43.2273 1.90909 43.7727 2.72727 43.7727H4.77272V47.4545C4.77272 48.2727 5.31818 48.8182 6.13636 48.8182H12.2727V53.7273C12.2727 54.5455 12.8182 55.0909 13.6364 55.0909C14.4545 55.0909 15 54.5455 15 53.7273V48.8182H21.1364C21.9545 48.8182 22.5 48.2727 22.5 47.4545V43.7727H23.1818C26.4545 43.7727 29.0455 41.1818 29.0455 37.9091C29.0455 36.1364 30.4091 34.7727 32.1818 34.7727H54.2727C55.5 34.7727 56.4545 35.7273 56.4545 36.9545V60.1364H2.72727C1.90909 60.1364 1.36363 60.6818 1.36363 61.5V74.5909C1.36363 77.0454 3.40909 79.0909 6 79.0909H12.2727V85.6364C12.2727 86.4545 12.8182 87 13.6364 87H30.4091C31.2273 87 31.7727 86.4545 31.7727 85.6364V79.0909H51.8182V85.6364C51.8182 86.4545 52.3636 87 53.1818 87H69.9545C70.7727 87 71.3182 86.4545 71.3182 85.6364V79.0909H77.5909C80.0455 79.0909 82.0909 77.0454 82.0909 74.5909V51.9545H82.3636C85.9091 51.9545 88.7727 49.0909 88.7727 45.5455V35.5909C88.6364 32.0455 85.7727 29.1818 82.2273 29.1818ZM4.0909 17.7273C4.0909 16.5 5.18181 15.4091 6.40909 15.4091H18.6818V41.0455H4.0909V17.7273ZM19.6364 46.0909H7.5V43.7727H19.6364V46.0909ZM54.1364 32.1818H32.0455C28.7727 32.1818 26.1818 34.7727 26.1818 38.0454C26.1818 39.8182 24.8182 41.1818 23.0455 41.1818H21.4091V15.4091H70.3636C75.2727 15.4091 79.2273 19.3636 79.2273 24.2727V53.0455H59.0454V36.9545C59.0454 34.3636 56.8636 32.1818 54.1364 32.1818ZM59.0454 55.9091H79.3636V60.1364H59.0454V55.9091ZM28.9091 84.2727H14.8636V79.0909H28.9091V84.2727ZM68.4545 84.2727H54.4091V79.0909H68.4545V84.2727ZM77.4545 76.3636H6C4.90909 76.3636 4.0909 75.5454 4.0909 74.5909V62.8636H79.2273V74.5909C79.2273 75.5454 78.4091 76.3636 77.4545 76.3636ZM85.9091 45.5455C85.9091 47.5909 84.2727 49.2273 82.2273 49.2273H81.9545V31.9091H82.2273C84.2727 31.9091 85.9091 33.5455 85.9091 35.5909V45.5455Z" fill="#CBB79B"/>
</g>
</svg>
