<svg width="318" height="378" viewBox="0 0 318 378" fill="none" xmlns="http://www.w3.org/2000/svg">
<g opacity="0.2">
<path fill-rule="evenodd" clip-rule="evenodd" d="M156.445 132.274C157.655 134.214 159.076 136.184 160.132 138.322C160.742 139.512 161.028 140.931 161.379 142.304C161.671 143.448 161.833 144.683 162.061 145.873C162.66 149.32 161.605 152.58 160.444 155.824C159.532 158.444 158.79 161.033 158.831 163.793C158.827 163.976 158.845 164.143 158.883 164.296C159.253 166.076 159.644 167.84 160.057 169.589C160.342 171.008 161.188 172.123 162.099 173.193C163.363 174.644 164.561 176.142 165.996 177.563C166.349 177.945 167.091 178.054 167.638 178.3C168.25 178.499 168.862 178.699 169.475 178.899C170.993 179.452 172.471 179.944 173.86 180.588C175.184 181.278 176.562 181.48 177.946 181.407C179.649 181.381 181.358 181.081 183.043 180.887C183.897 180.737 184.752 180.587 185.63 180.33C188.111 179.758 190.592 179.185 193.073 178.613C194.464 178.266 195.937 178.041 197.287 177.633C198.743 177.241 200.181 176.68 201.514 176.105C204.627 174.909 207.51 173.514 210.781 172.837C213.026 172.34 215.254 171.675 217.424 170.782C218.886 170.115 220.242 169.432 221.746 168.827C222.412 168.539 223.16 168.373 223.868 168.146C224.64 167.874 225.905 168.335 226.358 169.007C226.751 169.45 227.121 170 227.385 170.534C227.814 171.313 228.491 171.467 229.239 171.302C230.265 171.121 231.29 170.941 232.298 170.593C233.949 170.064 235.493 169.52 237.061 168.868C237.598 168.672 238.093 168.414 238.612 168.049C238.937 167.821 239.244 167.426 239.339 166.999C239.553 166.039 239.319 165.124 237.863 165.516C236.814 165.803 235.765 166.09 234.675 166.316C234.268 166.421 233.738 166.344 233.273 166.221C233.061 166.189 232.856 165.884 232.862 165.61C232.91 165.396 233.087 165.092 233.323 165.016C235.522 163.742 237.904 162.879 240.303 162.184C241.352 161.898 242.49 161.459 243.563 161.065C245.634 160.451 247.705 159.836 249.775 159.222C252.231 158.517 254.701 157.833 257.184 157.169C258.811 156.746 260.52 156.446 262.123 156.13C262.253 156.039 262.464 156.07 262.529 156.025C263.581 154.747 265.147 155.087 266.455 154.618C266.992 154.421 267.569 154.285 268.147 154.15C269.302 153.878 270.481 153.5 271.695 153.458C273.527 153.341 275.366 152.95 277.222 152.726C280.537 152.257 283.866 151.809 287.209 151.381C287.999 151.276 288.823 151.507 289.636 151.296C291.157 150.858 292.57 151.395 293.989 151.658C296.468 152.077 298.988 152.556 301.467 152.975C303.057 153.208 304.47 153.745 305.681 154.694C307.228 155.856 308.799 156.913 310.346 158.075C311.263 158.871 312.116 159.711 312.968 160.552C313.509 161.072 314.05 161.592 314.396 162.248C314.965 163.378 315.534 164.508 315.738 165.804C315.93 166.658 315.84 167.801 315.52 168.746C314.886 170.36 312.033 171.374 310.538 170.714C310.285 170.622 310.056 170.423 309.802 170.331C308.502 169.535 307.267 168.693 306.008 167.958C304.472 167.237 302.81 167.324 301.154 168.127C301.024 168.219 300.894 168.31 300.805 168.462C300.386 169.116 300.007 169.832 299.588 170.486C299.168 171.141 299.521 171.523 299.809 171.95C300.202 172.394 300.592 172.12 301.022 171.908C302.355 171.332 303.361 171.975 303.305 173.454C303.276 174.074 303.247 174.694 303.218 175.314C303.134 176.182 302.715 176.837 301.936 177.383C299.989 178.75 297.85 179.263 295.641 179.104C293.815 178.947 292.154 179.034 290.404 179.273C289.465 179.392 288.557 179.7 287.68 180.196C286.861 180.681 285.918 180.984 284.992 181.454C284.375 181.767 283.777 182.157 283.199 182.623C282.031 183.443 280.904 184.324 279.777 185.205C277.425 186.916 275.059 188.607 272.68 190.278C272.226 190.597 271.542 190.717 271.129 191.097C269.807 192.115 268.568 193.255 267.223 194.379C266.833 194.652 266.461 195.094 266.055 195.199C264.445 195.789 263.288 197.052 262.031 198.024C259.996 199.543 258.084 201.245 255.949 202.474C255.713 202.55 255.625 202.702 255.454 202.732C253.167 203.168 251.761 205.054 249.903 206.269C248.995 206.907 248.186 207.835 247.195 208.35C246.505 208.745 246.086 209.399 245.437 209.855C244.701 210.371 243.98 210.908 243.272 211.465C242.579 211.951 241.887 212.437 241.195 212.923C240.481 213.424 239.726 213.864 239.013 214.365C238.299 214.866 237.691 215.383 236.977 215.884C234.576 217.57 232.093 219.133 229.692 220.819C227.981 222.11 226.212 223.173 224.401 224.174C224.272 224.265 224.163 224.341 224.077 224.402C219.422 227.85 214.521 230.931 209.825 234.318C208.397 235.32 206.905 236.368 205.412 237.416C203.985 238.418 202.475 239.299 201.112 240.255C196.759 243.252 192.419 246.269 188.093 249.306C183.118 252.799 178.157 256.312 173.209 259.846C171.522 261.03 169.852 262.383 168.083 263.445C166.809 264.25 165.74 265.36 164.59 266.347C164.373 266.499 164.157 266.651 163.941 266.803C161.864 268.261 159.78 269.754 157.687 271.283C156.974 271.785 156.26 272.286 155.546 272.787C152.864 274.67 150.168 276.533 147.458 278.375C147.069 278.648 146.533 278.845 146.061 278.996C145.931 279.088 145.76 279.118 145.631 279.209C144.958 279.771 144.22 280.379 143.507 280.88C141.973 281.867 140.398 282.792 138.865 283.779C138.24 284.128 137.697 284.599 137.236 285.192C136.816 285.847 136.168 286.302 135.584 286.712C133.767 287.988 131.973 289.157 130.18 290.326C129.36 290.812 128.541 291.297 127.68 291.722C127.55 291.813 127.355 291.95 127.29 291.995C126.257 293.441 124.688 294.092 123.202 294.866C121.887 295.609 120.49 296.23 119.439 297.508C118.889 298.254 117.987 298.617 117.167 299.103C114.615 300.895 112.049 302.666 109.469 304.417C109.275 304.554 109.145 304.645 108.909 304.721C108.024 305.252 107.14 305.783 106.543 306.742C106.188 307.351 105.539 307.807 104.89 308.262C103.852 308.991 103.149 309.934 102.717 311.138C102.701 311.209 102.642 311.31 102.539 311.442C101.683 312.583 101.415 314.031 100.959 315.34C100.247 317.549 99.1593 319.482 97.1477 320.895C96.7584 321.168 96.263 321.426 95.9212 321.486C94.5368 321.558 93.3772 321.113 92.3301 320.409C91.4712 319.843 91.5555 318.974 92.4055 318.107C92.7537 317.773 93.0782 317.545 92.8142 317.011C92.5913 316.537 92.3273 316.003 91.62 316.23C90.8066 316.441 89.9998 316.378 89.2686 316.711C88.5137 317.151 87.8584 317.881 87.4972 318.765C87.0885 319.861 86.8918 320.989 87.1429 322.072C87.3876 323.429 87.5673 324.832 87.812 326.19C88.0977 327.608 87.6241 328.751 86.3674 329.723C84.5029 331.212 82.7247 330.841 81.1778 329.678C80.3189 329.112 79.5076 328.332 78.8672 327.522C78.3912 326.957 78.1099 326.255 77.7637 325.598C77.2421 324.255 76.7206 322.913 76.3288 321.478C75.7964 319.693 75.3289 317.863 74.8202 315.971C74.3938 314.201 74.7981 312.388 75.0964 310.559C75.6598 307.705 76.2233 304.851 76.7868 301.996C76.8646 301.402 76.8364 300.792 77.4853 300.336C77.8097 300.109 77.9286 299.575 78.0237 299.149C78.96 296.422 80.3788 293.987 81.7564 291.491C82.6669 289.862 83.6834 288.249 84.6176 286.513C85.2621 285.341 85.7833 283.986 86.3866 282.752C86.6115 282.235 86.9424 281.733 87.3144 281.291C88.3151 279.749 89.351 278.212 90.4223 276.681C90.5348 276.422 90.777 276.072 90.9479 276.042C91.7613 275.83 91.8391 275.236 92.1938 274.627C93.2103 273.014 94.3089 271.523 95.3665 269.971C97.0247 267.607 98.6749 265.279 100.317 262.987C100.888 262.226 101.438 261.481 101.965 260.75C103.914 258.392 105.757 256.019 107.641 253.707C108.514 252.734 109.47 251.883 110.32 251.016C110.863 250.545 111.434 250.684 111.439 251.4C111.515 251.797 111.42 252.223 111.242 252.528C110.775 253.395 110.161 254.187 109.611 254.932C109.509 255.064 109.42 255.216 109.345 255.389C108.643 256.332 108.612 256.713 109.071 257.111C109.694 257.753 110.672 257.786 111.368 257.117C112.413 256.114 113.417 255.049 114.314 253.969C115.123 253.041 115.85 251.991 116.618 251.003C117.013 250.455 117.433 249.8 117.682 249.176C117.971 248.613 118.114 247.973 117.573 247.453C117.368 247.148 117.292 246.751 116.957 246.537C116.015 245.848 116.041 244.75 116.255 243.791C116.398 243.151 116.965 242.573 117.36 242.025C118.364 240.961 119.221 239.82 120.265 238.816C123.068 236.308 124.931 233.112 127.063 230.176C127.701 229.278 128.527 228.518 129.271 227.636C131.285 225.232 133.61 223.15 135.247 220.471C136.926 217.854 138.833 215.435 140.429 212.695C142.138 209.696 144.27 206.76 145.137 203.363C145.518 201.656 145.645 199.858 145.643 198.15C145.584 195.223 145.313 192.265 145.083 189.367C144.969 187.919 144.618 186.546 144.397 185.082C144.165 183.175 144.04 181.285 143.808 179.378C143.611 177.808 143.308 176.221 143.111 174.65C142.896 172.912 142.959 171.159 143.445 169.468C143.629 168.889 143.495 168.264 143.637 167.624C143.715 167.029 143.793 166.435 143.977 165.856C144.333 164.587 144.738 163.343 145.192 162.125C145.689 160.876 146.211 159.52 146.855 158.348C147.435 157.222 147.788 156.044 147.917 154.814C148.323 152.01 148.688 149.145 148.264 146.385C147.816 143.731 147.067 141.198 145.498 139.151C144.217 137.531 142.742 136.049 141.201 134.611C140.161 133.633 138.659 133.248 137.151 133.137C136.174 133.104 135.267 132.751 134.289 132.717C132.676 132.591 130.973 132.617 129.398 133.543C128.384 134.165 127.369 134.787 126.708 135.792C126.554 135.989 126.483 136.309 126.329 136.507C126.282 136.72 126.169 136.979 126.039 137.07C125.414 137.419 125.254 137.892 125.071 138.47C124.755 139.232 124.453 140.014 124.164 140.816C124.141 140.922 124.223 141.045 124.134 141.197C122.793 143.038 123.261 144.868 123.663 146.745C123.938 147.721 124.319 148.713 124.659 149.644C125.217 151.231 125.776 152.818 126.334 154.405C126.574 155.046 126.985 155.657 127.161 156.343C127.522 158.159 126.305 160.183 124.542 160.971C124.141 161.132 123.732 161.329 123.315 161.562C122.56 162.002 121.853 162.229 120.957 162.318C118.383 162.326 116.624 161.132 115.244 159.223C113.411 156.641 112.204 153.711 111.703 150.554C111.476 149.364 111.42 148.144 111.404 146.986C111.331 145.598 111.257 144.211 111.224 142.884C111.261 142.229 111.298 141.574 111.44 140.934C111.685 139.593 112.076 138.328 112.32 136.987C112.625 134.884 113.877 133.196 115.129 131.507C116.423 129.879 117.863 128.328 119.304 126.777C119.522 126.534 119.676 126.336 119.935 126.154C122.743 124.362 125.674 122.754 128.862 121.955C130.896 121.427 133.005 121.295 135.073 121.103C136.905 120.986 138.714 120.975 140.433 121.117C142.324 121.229 144.12 121.768 145.827 122.458C149.935 124.162 152.626 127.309 155.229 130.609C155.599 131.159 156.034 131.664 156.445 132.274ZM225.032 169.308C224.093 170.327 223.009 170.278 222.066 170.581C218.293 171.79 214.504 172.832 210.731 174.041C209.146 174.525 207.56 175.008 206.015 175.553C203.805 176.385 201.759 177.462 199.53 178.127C197.108 178.928 194.65 179.394 192.21 180.028C189.77 180.662 187.33 181.295 184.866 182.036C182.874 182.625 180.923 183.275 178.82 183.132C177.271 182.96 175.617 182.773 173.979 182.753C172.129 182.702 170.351 182.332 168.556 181.793C166.972 181.286 165.3 180.931 163.788 180.103C161.311 178.694 159.53 176.616 158.398 174.082C157.788 172.891 157.372 171.564 156.957 170.236C156.342 168.329 155.663 166.467 155.903 164.41C155.987 163.541 155.965 162.657 156.09 161.849C156.175 160.98 156.3 160.173 156.555 159.274C157.154 157.324 157.859 155.39 158.458 153.44C158.665 152.755 158.767 152.054 159.016 151.429C160.004 149.206 160.268 147.042 159.854 144.724C159.744 143.992 159.722 143.107 159.505 142.36C159.36 141.292 159.109 140.209 158.622 139.202C157.649 137.187 156.545 135.263 155.442 133.339C154.602 131.949 153.739 130.666 152.421 129.702C152.045 129.427 151.668 129.152 151.357 128.831C150.052 127.318 148.481 126.262 146.716 125.342C145.392 124.652 144.109 124.024 142.826 123.395C140.025 122.214 137.061 122.495 134.039 122.548C132.996 122.561 131.865 122.725 130.734 122.89C129.773 123.025 128.813 123.159 127.846 123.568C125.782 124.477 123.595 125.203 121.69 126.631C120.911 127.178 120.174 127.785 119.518 128.515C118.078 130.067 116.761 131.801 115.361 133.413C114.31 134.691 113.635 136.244 113.344 137.798C113.021 139.734 112.911 141.7 112.695 143.651C112.713 143.818 112.73 143.986 112.747 144.154C112.745 145.145 112.743 146.136 112.847 147.142C113.155 149.445 113.227 151.823 114.177 153.945C114.475 154.815 114.815 155.746 115.178 156.57C115.782 158.035 116.717 158.998 118.3 159.506C119.378 159.829 120.42 159.816 121.381 159.682C122.96 159.472 124.818 158.258 124.039 156.106C123.734 155.511 123.665 154.84 123.401 154.306C122.639 152.322 121.788 150.49 121.027 148.506C120.341 146.919 120.085 145.119 120.489 143.306C120.941 141.28 121.629 139.178 122.758 137.305C123.467 136.088 124.259 134.992 125.509 134.294C126.134 133.945 126.612 133.52 127.196 133.11C128.6 132.214 130.021 131.486 131.665 131.232C133.61 130.856 135.524 130.861 137.426 131.415C139.498 131.939 141.612 132.524 143.193 134.022C144.087 134.924 144.827 136.024 145.526 137.062C146.454 138.3 147.317 139.583 147.945 140.941C149.429 143.857 149.735 147.151 149.593 150.489C149.513 152.074 149.197 153.735 148.905 155.29C148.715 156.143 148.484 156.935 148.187 157.773C146.76 161.473 145.015 165.127 144.518 169.074C144.207 171.452 144.067 173.799 144.48 176.118C144.859 178.101 145.026 180.052 145.234 182.065C145.383 183.849 145.427 185.618 145.877 187.281C146.375 188.731 146.702 190.21 146.964 191.735C147.459 194.176 147.507 196.661 147.278 199.161C146.768 203.657 145.01 207.86 142.64 211.863C141.156 214.344 139.273 216.656 137.724 219.182C136.111 221.754 134.056 224.096 132.025 226.332C130.673 227.731 129.386 229.084 128.223 230.621C125.523 234.135 122.948 237.833 120.289 241.408C119.368 242.595 118.47 243.675 117.419 244.952C117.789 245.502 118.112 246.265 118.629 246.892C119.393 247.885 119.179 248.845 118.664 249.926C117.351 252.377 115.539 254.369 113.808 256.483C113.129 257.32 112.286 257.912 111.483 258.565C110.899 258.976 110.345 259.004 109.733 258.805C108.273 258.481 107.332 257.792 107.541 256.116C107.541 256.116 107.5 256.054 107.459 255.993C107.2 256.176 106.834 256.342 106.616 256.586C105.958 257.407 105.306 258.284 104.66 259.218C102.136 262.849 99.6385 266.522 97.1686 270.235C95.6265 272.487 94.1255 274.8 92.5186 277.098C91.4848 278.543 90.3038 279.912 89.3111 281.419C87.9399 283.641 86.6099 285.924 85.3036 288.101C83.82 290.582 82.2953 293.001 81.571 295.759C81.4996 296.079 81.3634 296.444 81.1212 296.794C79.7718 299.901 78.7403 303.054 77.9621 306.299C77.6053 307.898 77.4196 309.468 77.5106 311.023C77.6839 312.701 77.7923 314.424 78.0305 316.056C78.0869 317.275 78.2493 318.511 78.5178 319.762C78.8684 321.135 79.39 322.478 79.9115 323.821C80.433 325.164 81.1254 326.477 82.4732 327.06C83.7972 327.749 85.1212 328.439 86.7261 327.132C86.6331 326.568 86.6459 326.019 86.4879 325.5C85.9382 323.547 85.3236 321.64 86.0761 319.492C86.621 318.03 86.7008 316.445 88.1111 315.275C89.1731 314.44 90.2114 313.711 91.5374 313.409C91.8143 313.395 92.2209 313.289 92.4394 313.046C93.1121 312.484 93.6832 312.622 94.3127 312.99C94.7952 313.281 95.3014 313.465 95.7838 313.756C96.0543 314.016 96.3659 314.337 96.5065 314.688C97.1341 316.047 96.5891 317.509 95.2675 318.526C94.9431 318.754 94.4066 318.951 94.4997 319.515C95.9773 320.007 96.8793 319.644 97.9067 318.473C99.2174 317.013 99.4508 315.23 99.6841 313.447C99.7382 312.959 99.857 312.426 99.699 311.907C99.184 310.289 99.558 308.857 100.968 307.687C101.187 307.444 101.446 307.262 101.665 307.019C104.628 304.038 107.944 301.441 111.342 298.965C113.289 297.598 115.465 296.43 117.517 295.079C118.815 294.168 120.007 293.241 121.264 292.269C122.145 291.59 123.061 290.917 124.013 290.248C125.205 289.322 126.332 288.441 127.565 287.575C129.771 286.026 131.953 284.584 134.136 283.141C136.008 281.947 137.858 280.768 139.686 279.604C141.314 278.521 142.956 277.458 144.611 276.416C146.239 275.333 147.881 274.27 149.537 273.228C150.292 272.788 151.088 272.409 151.801 271.908C153.967 270.298 156.132 268.687 158.297 267.077C159.011 266.576 159.724 266.075 160.397 265.513C160.875 265.087 161.271 264.539 161.855 264.129C163.761 262.702 165.666 261.274 167.678 259.861C168.024 259.618 168.37 259.375 168.716 259.132C170.144 258.13 171.585 257.148 173.04 256.187C173.17 256.095 173.258 255.943 173.323 255.898C174.71 254.834 176.031 253.816 177.459 252.814C178.603 252.101 179.936 251.525 181.162 250.934C183.468 249.675 185.709 248.461 187.645 246.652C188.276 246.029 188.949 245.467 189.598 245.011C192.783 242.835 195.947 240.673 199.089 238.527C200.906 237.251 202.658 236.021 204.534 234.975C205.613 234.307 206.569 233.456 207.672 232.681C209.029 231.668 210.421 230.661 211.849 229.659C212.238 229.385 212.669 229.173 213.058 228.9C215.695 227.138 218.331 225.377 221.033 223.57C225.143 220.685 229.253 217.799 233.362 214.914C235.763 213.228 238.164 211.543 240.401 209.612C241.445 208.609 242.655 207.85 243.781 206.969C245.404 205.83 246.961 204.737 248.477 203.582C249.929 202.473 251.274 201.349 252.661 200.285C254.153 199.237 255.728 198.312 257.032 197.126C259.269 195.196 261.793 193.694 264.235 192.069C266.093 190.854 267.992 189.701 269.85 188.486C272.9 186.345 276.056 184.219 279.023 181.956C282.097 179.708 285.764 178.483 288.878 176.296C289.893 175.674 290.829 175.646 291.883 176.076C292.619 176.459 293.242 177.101 294.196 177.24C295.933 177.55 297.646 177.966 299.491 177.301C300.995 176.695 301.721 175.645 301.33 174.211C300.94 174.484 300.51 174.696 300.121 174.97C298.498 176.109 296.121 174.989 295.876 173.632C295.742 173.006 295.672 172.336 295.644 171.726C295.575 171.055 295.67 170.628 296.295 170.279C296.62 170.051 296.862 169.701 297.039 169.397C298.534 167.358 300.31 166.021 302.877 166.287C303.154 166.273 303.431 166.258 303.749 166.305C304.874 166.415 306.088 166.372 307.094 167.015C308.1 167.658 309.082 168.408 310.088 169.051C310.464 169.327 310.971 169.511 311.412 169.741C312.368 168.89 312.876 168.083 312.82 166.863C312.852 165.491 312.69 164.256 311.714 163.232C311.161 162.6 310.587 161.984 309.992 161.383C308.122 159.457 305.775 157.956 303.268 156.928C299.477 155.271 295.51 153.919 291.151 153.831C288.918 153.779 286.699 153.178 284.389 153.721C282.55 154.112 280.7 154.062 279.119 155.262C278.989 155.353 278.818 155.383 278.648 155.413C277.768 155.431 276.91 155.434 276.073 155.421C273.393 155.414 270.695 155.239 268.02 155.948C266.458 156.325 264.955 156.931 263.393 157.308C258.684 158.545 253.892 159.66 249.142 160.836C246.059 161.651 242.912 162.512 239.806 163.433C239.464 163.493 239.181 163.782 238.75 163.994C239.15 164.163 239.38 164.362 239.698 164.409C240.245 164.654 240.468 165.127 240.667 165.707C240.987 167.461 240.449 168.649 238.792 169.452C237.63 169.998 236.451 170.376 235.314 170.815C235.07 170.926 234.791 171.032 234.477 171.133C232.915 171.51 231.288 171.932 229.702 172.416C228.011 172.884 226.94 172.286 226.165 170.851C225.901 170.317 225.443 169.919 225.032 169.308Z" fill="#101828"/>
<path fill-rule="evenodd" clip-rule="evenodd" d="M287.579 172.387C286.174 173.378 284.623 174.293 283.298 175.406C280.386 178.081 277.069 180.153 273.972 182.692C271.985 184.36 269.691 185.711 267.622 187.258C266.449 188.174 265.379 189.106 264.206 190.022C262.47 191.365 260.708 192.666 258.919 193.928C256.85 195.475 254.701 196.901 252.633 198.448C251.099 199.53 249.606 200.671 248.008 201.798C245.62 203.57 243.233 205.342 240.845 207.115C237.975 209.198 235.078 211.24 232.154 213.242C231.259 213.873 230.348 214.337 229.412 214.908C227.054 216.303 224.656 217.638 222.379 219.154C220.677 220.265 219.032 221.602 217.411 222.834C215.409 224.246 213.428 225.642 211.468 227.024C209.255 228.495 207.002 229.906 204.829 231.438C200.275 234.47 195.761 237.564 191.247 240.657C188.842 242.263 186.438 243.87 184.073 245.536C182.539 246.618 181.127 247.88 179.57 249.067C178.077 250.209 176.52 251.396 174.986 252.477C172.622 254.144 170.274 255.977 167.852 257.417C165.006 259.067 162.629 261.277 159.986 263.23C158.301 264.507 156.778 266.026 155.029 267.347C151.683 269.796 148.319 272.078 144.892 274.405C143.358 275.486 141.824 276.568 140.274 277.483C136.684 279.568 133.604 282.274 130.177 284.601C128.616 285.642 127.021 286.678 125.391 287.708C123.776 288.669 122.097 289.674 120.523 290.695C119.013 291.67 117.479 292.752 116.01 293.788C113.796 295.259 111.583 296.73 109.37 298.202C107.988 299.087 106.71 299.988 105.327 300.874C104.688 301.324 103.992 301.548 103.416 301.954C100.82 303.695 98.2638 305.497 95.6267 307.179C94.1804 308.109 92.6935 308.979 90.9704 309.215C90.6338 309.274 90.3846 309.183 90.112 309.197C89.8394 309.212 89.5028 309.271 89.2706 309.346C88.9107 309.51 88.7295 310.083 88.2546 309.795C87.8435 309.462 87.5198 308.978 87.5561 308.329C87.6029 308.118 87.505 307.831 87.5114 307.56C87.5967 305.719 87.7226 303.94 87.8484 302.16C87.8782 301.783 88.0998 301.271 88.2979 300.864C89.0436 299.448 89.8531 297.988 90.6626 296.527C91.1227 295.669 91.4785 294.795 92.0025 293.891C92.9342 292.285 93.9219 290.669 94.9658 289.043C96.1587 287.312 97.3516 285.581 98.5446 283.85C99.8284 282.114 101.12 280.343 102.419 278.537C103.932 276.581 105.34 274.609 106.789 272.698C107.417 271.81 108.271 271.119 109.004 270.246C109.649 269.524 110.278 268.636 110.987 267.869C112.181 266.374 113.403 264.92 114.651 263.506C115.041 262.964 115.471 262.483 115.965 261.956C117.606 259.91 119.165 257.743 120.91 255.712C122.526 253.771 124.392 251.921 126.154 250.056C127.166 248.898 128.242 247.694 129.317 246.491C132.004 243.618 134.754 240.701 137.544 237.843C139.904 235.467 142.409 233.167 144.81 230.852C147.17 228.476 149.739 226.131 151.833 223.497C152.566 222.625 153.38 221.873 154.194 221.121C155.286 220.084 156.066 219 156.869 217.811C157.649 216.728 158.075 215.537 158.083 214.285C158.075 212.867 158.107 211.509 158.099 210.091C158.135 209.443 158.235 208.749 158.44 208.071C158.919 206.398 158.981 204.663 159.918 203.112C161.269 200.914 162.909 198.868 164.978 197.32C165.768 196.674 166.824 196.286 167.84 195.836C169.768 194.922 171.841 194.084 173.958 194.016C174.776 193.973 175.442 194.126 176.237 194.189C176.823 194.221 177.408 194.253 177.971 194.391C179.055 194.605 180.035 194.804 181.008 195.275C182.271 195.898 183.645 196.264 185.019 196.631C185.372 196.738 185.854 196.754 186.294 196.71C187.977 196.414 189.579 195.997 191.147 195.248C193.01 194.379 194.851 193.615 196.755 192.807C198.478 192.008 200.187 191.189 201.882 190.349C203.733 189.46 205.562 188.586 207.369 187.727C207.921 187.427 208.537 187.082 209.129 186.843C212.643 185.255 216.158 183.667 219.673 182.079C223.145 180.522 226.593 179.069 230.042 177.617C232.602 176.524 235.162 175.431 237.861 174.686C240.096 174.089 242.255 173.101 244.432 172.278C246.418 171.59 248.339 170.948 250.324 170.26C251.381 169.872 252.437 169.483 253.453 169.033C256.501 167.686 259.664 166.791 262.868 165.956C264.429 165.478 265.991 165.001 267.552 164.523C268.043 164.414 268.534 164.305 269.026 164.196C270.099 163.973 271.173 163.75 272.293 163.316C273.478 162.837 274.719 162.585 275.961 162.333C277.476 162.066 279.014 161.694 280.568 161.488C283.029 161.088 285.425 160.734 287.774 160.591C288.865 160.534 289.989 160.809 291.05 161.129C292.36 161.541 293.646 162.058 294.933 162.575C295.263 162.787 295.529 163.044 295.772 163.407C295.974 163.71 295.945 164.087 295.521 164.296C294.929 164.536 294.771 165.003 294.654 165.531C294.385 166.254 293.908 166.946 293.286 167.563C291.588 169.383 289.543 170.824 287.579 172.387ZM178.492 248.581C180.369 247.169 182.309 245.712 184.227 244.36C186.423 242.723 188.619 241.086 190.855 239.509C193.963 237.407 197.071 235.305 200.219 233.263C201.37 232.452 202.52 231.641 203.711 230.891C206.284 229.255 208.793 227.664 211.326 225.967C213.092 224.812 214.84 223.49 216.589 222.168C220.494 219.148 224.705 216.446 229.014 214.031C230.437 213.206 231.756 212.366 233.138 211.48C234.288 210.669 235.398 209.798 236.548 208.987C237.187 208.536 237.867 208.146 238.465 207.635C241.876 205.142 245.182 202.633 248.552 200.08C250.724 198.548 252.897 197.016 255.07 195.484C257.306 193.907 259.502 192.27 261.699 190.633C264.023 188.906 266.37 187.073 268.717 185.24C269.252 184.774 269.932 184.384 270.507 183.978C272.04 182.897 273.51 181.861 274.98 180.825C276.537 179.638 278.054 178.391 279.57 177.143C280.167 176.723 280.75 176.282 281.319 175.822C282.57 174.88 283.787 173.934 284.968 172.982C285.799 172.396 286.566 171.856 287.356 171.21C287.867 170.849 288.378 170.489 288.849 170.068C290.11 169.001 291.435 167.889 292.615 166.701C293.237 166.084 293.553 165.15 293.821 164.427C294.136 163.492 293.911 163.296 293.059 163.006C292.809 162.915 292.456 162.808 292.207 162.717C290.236 161.881 288.166 161.738 286.019 162.184C283.976 162.645 281.934 163.106 279.927 162.919C279.655 162.933 279.422 163.007 279.19 163.082C275.101 164.185 271.024 165.309 266.962 166.452C265.929 166.735 264.959 166.974 264.048 167.438C262.305 168.489 260.367 168.965 258.51 169.563C257.477 169.846 256.444 170.129 255.451 170.473C253.378 171.311 251.306 172.149 249.297 172.942C248.873 173.152 248.328 173.181 247.904 173.39C245.93 174.516 243.776 175.233 241.686 175.905C239.493 176.561 237.477 177.626 235.486 178.585C233.454 179.484 231.503 180.503 229.534 181.357C228.495 181.912 227.438 182.3 226.359 182.795C224.764 183.504 223.148 184.228 221.51 184.967C219.862 185.595 218.149 186.268 216.518 187.063C213.51 188.471 210.494 189.914 207.471 191.393C205.247 192.427 202.983 193.4 200.817 194.66C199.946 195.186 198.993 195.59 197.984 195.768C196.574 196.05 195.221 196.558 193.788 196.946C193.323 197.095 192.94 197.366 192.452 197.62C191.14 198.189 189.8 198.155 188.414 198.332C186.064 198.475 183.785 198.301 181.798 197.299C179.851 196.358 177.885 196.231 175.698 196.616C173.157 196.894 170.754 197.52 168.662 199.173C168.449 199.323 168.223 199.453 167.983 199.563C165.207 200.897 163.086 202.926 161.722 205.668C161.326 206.481 160.889 207.234 160.429 208.092C159.928 208.89 159.637 209.719 159.698 210.655C159.726 211.258 159.834 211.983 159.798 212.631C159.728 215.618 158.863 218.542 157.354 221.207C156.894 222.066 156.144 222.772 155.539 223.555C155.109 224.036 154.679 224.517 154.313 224.954C153.946 225.39 153.684 225.842 153.318 226.278C153.143 226.579 152.823 226.804 152.713 227.061C152.431 228.327 151.345 229.093 150.467 229.889C148.521 231.618 146.782 233.377 144.98 235.182C143.364 236.796 141.748 238.41 140.132 240.024C138.609 241.543 137.086 243.061 135.563 244.58C134.447 245.723 133.58 246.957 132.527 248.055C130.508 250.191 128.44 252.301 126.324 254.386C124.522 256.191 122.679 257.935 120.837 259.679C120.494 260.01 120.168 260.507 119.866 260.898C118.729 262.292 117.58 263.666 116.417 265.02C115.54 266.053 114.651 267.066 113.748 268.059C112.864 269.127 111.939 270.135 111.015 271.143C109.979 272.407 108.904 273.61 107.845 274.979C106.594 276.484 105.57 278.185 104.174 279.614C103.035 280.862 102.04 282.187 100.9 283.435C100.385 283.977 99.9176 284.543 99.4987 285.135C98.6083 286.475 97.6774 287.755 96.8508 289.049C95.3959 291.232 93.5298 293.082 92.799 295.644C92.7117 295.794 92.6883 295.9 92.6009 296.05C91.8383 297.3 91.0522 298.655 90.33 299.965C89.8699 300.824 89.3054 301.667 89.1179 302.511C88.8302 304.049 88.7512 305.618 88.5679 307.171C88.5785 307.608 88.7169 307.956 89.2388 308.033C89.6158 308.034 89.9694 308.141 90.4103 308.097C91.4369 308.085 92.4295 307.742 93.3007 307.216C94.6597 306.436 95.9783 305.596 97.2968 304.755C98.9696 303.694 100.608 302.629 102.211 301.558C102.53 301.332 102.786 301.152 103.146 300.987C104.354 300.403 105.457 299.803 106.527 298.871C107.253 298.27 108.101 297.851 108.867 297.31C110.697 296.109 112.504 295.013 114.333 293.813C115.1 293.272 115.81 292.505 116.681 291.98C118.447 290.824 120.293 289.789 122.059 288.633C124.115 287.302 126.145 285.931 128.147 284.519C130.36 283.048 132.597 281.471 134.81 280C136.832 278.663 138.853 277.327 140.834 275.931C143.913 273.879 146.986 271.772 150.053 269.609C151.97 268.258 153.951 266.861 155.892 265.404C157.641 264.082 159.43 262.821 161.057 261.317C163.905 258.687 167.094 256.706 170.266 254.558C171.672 253.567 173.054 252.682 174.46 251.691C175.866 250.699 177.191 249.587 178.492 248.581Z" fill="#101828"/>
</g>
</svg>
