<svg width="24" height="25" viewBox="0 0 24 25" fill="none" xmlns="http://www.w3.org/2000/svg">
<g id="mingcute:calendar-line" clip-path="url(#clip0_1035_147)">
<g id="Group">
<path id="Vector" d="M16 3.08472C16.2449 3.08475 16.4813 3.17467 16.6644 3.33743C16.8474 3.50019 16.9643 3.72447 16.993 3.96772L17 4.08472V5.08472H19C19.5046 5.08456 19.9906 5.27512 20.3605 5.61821C20.7305 5.9613 20.9572 6.43156 20.995 6.93472L21 7.08472V19.0847C21.0002 19.5893 20.8096 20.0753 20.4665 20.4453C20.1234 20.8152 19.6532 21.0419 19.15 21.0797L19 21.0847H5C4.49542 21.0849 4.00943 20.8943 3.63945 20.5512C3.26947 20.2081 3.04284 19.7379 3.005 19.2347L3 19.0847V7.08472C2.99984 6.58014 3.19041 6.09415 3.5335 5.72417C3.87659 5.35419 4.34684 5.12756 4.85 5.08972L5 5.08472H7V4.08472C7.00028 3.82984 7.09788 3.58468 7.27285 3.39935C7.44782 3.21401 7.68695 3.10248 7.94139 3.08754C8.19584 3.07261 8.44638 3.15539 8.64183 3.31898C8.83729 3.48257 8.9629 3.71462 8.993 3.96772L9 4.08472V5.08472H15V4.08472C15 3.8195 15.1054 3.56515 15.2929 3.37761C15.4804 3.19007 15.7348 3.08472 16 3.08472ZM19 12.0847H5V19.0847H19V12.0847ZM19 7.08472H5V10.0847H19V7.08472Z" fill="#64676F"/>
</g>
</g>
<defs>
<clipPath id="clip0_1035_147">
<rect width="24" height="24" fill="white" transform="translate(0 0.0847168)"/>
</clipPath>
</defs>
</svg>
