<svg width="24" height="25" viewBox="0 0 24 25" fill="none" xmlns="http://www.w3.org/2000/svg">
<g id="mdi:clock-outline">
<path id="Vector" d="M12 20.0847C14.1217 20.0847 16.1566 19.2419 17.6569 17.7416C19.1571 16.2413 20 14.2064 20 12.0847C20 9.96299 19.1571 7.92815 17.6569 6.42786C16.1566 4.92757 14.1217 4.08472 12 4.08472C9.87827 4.08472 7.84344 4.92757 6.34315 6.42786C4.84285 7.92815 4 9.96299 4 12.0847C4 14.2064 4.84285 16.2413 6.34315 17.7416C7.84344 19.2419 9.87827 20.0847 12 20.0847ZM12 2.08472C13.3132 2.08472 14.6136 2.34337 15.8268 2.84592C17.0401 3.34847 18.1425 4.08506 19.0711 5.01365C19.9997 5.94223 20.7362 7.04463 21.2388 8.25788C21.7413 9.47114 22 10.7715 22 12.0847C22 14.7369 20.9464 17.2804 19.0711 19.1558C17.1957 21.0311 14.6522 22.0847 12 22.0847C6.47 22.0847 2 17.5847 2 12.0847C2 9.43255 3.05357 6.88901 4.92893 5.01365C6.8043 3.13829 9.34784 2.08472 12 2.08472ZM12.5 7.08472V12.3347L17 15.0047L16.25 16.2347L11 13.0847V7.08472H12.5Z" fill="#64676F"/>
</g>
</svg>
