<svg width="181" height="161" viewBox="0 0 181 161" fill="none" xmlns="http://www.w3.org/2000/svg">
<path d="M78.6298 83.0977C76.4808 83.0977 74.3319 83.0977 72.3119 82.7785C71.1702 82.5541 70.1049 82.0414 69.2172 81.2891C68.3295 80.5369 67.649 79.5701 67.2404 78.4806C66.2212 75.9571 67.5597 73.6547 70.2797 73.6117C72.0663 73.5749 73.0732 73.1574 73.6258 71.3707C74.1784 69.584 75.609 68.9148 77.3957 68.9148C79.3481 68.9148 81.0796 69.8357 81.4909 71.6593C81.9514 73.7529 81.798 76.0124 81.6383 78.1736C81.6015 78.6894 80.4902 79.4691 79.7964 79.5244C77.8095 79.6738 75.8137 79.6635 73.8285 79.4937C71.655 79.3218 69.9911 78.3148 69.5306 75.8405L68.8061 76.0554C68.8491 76.7983 68.6833 77.6456 68.978 78.2719C69.3791 79.2411 70.0614 80.068 70.9369 80.6458C71.8124 81.2236 72.841 81.5259 73.8899 81.5137C76.8247 81.397 79.9928 81.2558 82.6022 80.0954C95.1029 74.5695 104.706 65.8019 110.231 53.1109C117.219 37.0983 107.812 17.2974 91.0445 12.4223C90.5472 12.275 90.0253 12.2136 89.2025 12.054C89.135 15.2467 89.6814 18.0157 91.4374 21.3312C92.1879 19.2097 92.8035 17.4615 93.432 15.6912C93.5291 15.4177 93.8044 15.2497 94.092 15.2883L95.5562 15.4847C95.8726 15.5271 96.1038 15.8033 96.0877 16.1222C95.4957 27.8004 94.5399 41.6958 94.0162 53.3135C93.7644 58.6736 93.3481 66.993 93.3481 72.3531C93.3481 72.3531 92.1374 72.967 89.5587 74.416C89.2701 69.9585 88.9447 65.6361 88.7175 61.3075C87.8989 45.299 87.0209 27.5815 86.3046 11.5689C86.3046 11.5689 85.5125 11.5075 84.2048 11.6303C75.1363 12.4592 68.4254 21.5645 70.2182 30.7865C71.7471 38.6271 76.0511 44.859 81.7857 50.2313C82.7497 51.134 83.572 52.1833 84.441 53.1866C84.5913 53.3601 84.5874 53.6195 84.4299 53.7865C84.2904 53.9343 84.0678 53.9687 83.8924 53.8659C83.2454 53.4866 82.6218 53.0684 82.0251 52.6136C77.0999 48.4113 73.1681 43.1689 70.513 37.264C67.2405 29.7428 67.7132 22.4609 72.7847 15.7747C77.4018 10.6479 86.0835 9.72695 86.0835 9.72695C86.0835 9.72695 86.3046 4.20112 87.3852 2.42058C88.0483 0.82423 89.528 -0.551088 91.3699 -0.0353438C92.7514 0.363744 94.5381 1.41979 94.974 2.61091C95.8151 4.90721 96.1283 10.3409 96.116 12.7969C96.1069 12.5758 98.1912 13.8713 98.1912 13.8713C107.53 20.0111 113.541 28.4166 114.265 39.8489C114.787 47.9043 111.773 55.0265 107.438 61.6268C104.035 66.7608 99.7363 71.2406 94.7468 74.852C94.4109 75.0798 93.909 75.533 93.5397 75.8804C93.2251 76.1763 93.0366 76.5796 92.9968 77.0097L92.8619 78.4683C92.426 86.3457 92.1374 93.9959 91.5234 101.824C90.9946 95.3463 90.0103 82.8973 89.7474 79.5682C89.7145 79.1517 89.2851 78.8978 88.8995 79.0587L80.4717 82.5759C79.8578 82.8521 79.5446 83.7424 79.1271 84.3687C77.2852 87.1132 75.5046 89.5998 73.6258 92.3075C73.0729 92.6981 72.3943 92.023 72.782 91.4681L78.6298 83.0977ZM91.0445 3.58714C91.1108 3.65633 90.1978 5.46762 89.6814 7.27102C89.249 8.78146 89.2025 10.3409 89.2025 10.3409C89.2025 10.3409 91.6708 10.9488 93.2794 11.6917C93.5188 8.41919 91.0445 3.58714 91.0445 3.58714Z" fill="#253541"/>
<path d="M74.0255 79.2629L74.0206 79.2625C73.2857 79.2044 72.1297 78.9923 70.8825 78.6224C69.4808 78.2067 68.9783 77.1965 69.0598 76.3292C69.1419 75.455 69.8364 74.5293 71.2949 74.342C72.1324 74.2345 72.8694 74.1187 73.3977 73.6166C73.6637 73.3637 73.8343 73.0568 73.9697 72.7356C74.1023 72.4208 74.2234 72.0354 74.3589 71.5972C74.5836 70.8707 74.9667 70.4167 75.4432 70.1303C75.9367 69.8338 76.5906 69.682 77.3956 69.682C79.1465 69.682 80.4387 70.4875 80.7417 71.8261C81.1696 73.7736 81.0363 75.8984 80.8773 78.0565C80.8694 78.0684 80.8572 78.0854 80.8391 78.1074C80.7714 78.19 80.6606 78.2937 80.5146 78.399C80.2009 78.6253 79.8856 78.7466 79.7365 78.759C79.0027 78.8143 78.2708 78.9207 77.5754 79.0218C77.3026 79.0614 77.0355 79.1003 76.7761 79.1349C75.83 79.2611 74.9337 79.3406 74.0255 79.2629Z" fill="#289017" stroke="#253541" stroke-width="1.53495"/>
<path d="M46.2787 160.52C45.5819 160.52 44.9332 160.424 44.3325 160.232C43.7319 160.028 43.2393 159.8 42.8549 159.547L42.945 157.187H43.5937L43.864 159.277C44.2484 159.505 44.6208 159.667 44.9812 159.764C45.3536 159.86 45.7801 159.908 46.2607 159.908C47.1977 159.908 47.9605 159.697 48.5492 159.277C49.1499 158.844 49.4502 158.208 49.4502 157.367C49.4502 156.946 49.3661 156.586 49.1979 156.286C49.0417 155.973 48.7714 155.691 48.387 155.439C48.0026 155.174 47.474 154.91 46.8013 154.646L46.1345 154.376C45.1855 153.991 44.4587 153.529 43.9541 152.988C43.4616 152.447 43.2153 151.769 43.2153 150.952C43.2153 150.255 43.3835 149.684 43.7198 149.24C44.0682 148.783 44.5187 148.441 45.0713 148.213C45.636 147.984 46.2426 147.87 46.8914 147.87C47.5281 147.87 48.0687 147.954 48.5131 148.123C48.9697 148.279 49.4021 148.495 49.8106 148.771L49.7385 151.006H49.0718L48.8015 148.97C48.2489 148.633 47.6061 148.465 46.8733 148.465C46.0684 148.465 45.4017 148.657 44.8731 149.042C44.3565 149.414 44.0983 149.991 44.0983 150.772C44.0983 151.42 44.2905 151.943 44.6749 152.339C45.0713 152.736 45.6179 153.072 46.3147 153.348L47.0175 153.619C47.8824 153.955 48.5552 154.297 49.0357 154.646C49.5163 154.994 49.8526 155.379 50.0448 155.799C50.2371 156.208 50.3332 156.688 50.3332 157.241C50.3332 157.913 50.159 158.496 49.8106 158.989C49.4622 159.481 48.9817 159.86 48.369 160.124C47.7563 160.388 47.0595 160.52 46.2787 160.52ZM63.6959 160.52C62.5066 160.52 61.4675 160.256 60.5785 159.727C59.6895 159.187 58.9927 158.442 58.4882 157.493C57.9956 156.532 57.7494 155.433 57.7494 154.195C57.7494 152.958 58.0016 151.865 58.5062 150.916C59.0228 149.967 59.7255 149.222 60.6145 148.681C61.5155 148.141 62.5427 147.87 63.6959 147.87C64.3326 147.87 64.9213 147.942 65.4619 148.087C66.0145 148.219 66.5731 148.453 67.1377 148.789L67.2098 151.33H66.5071L66.1827 149.132C65.4619 148.687 64.675 148.465 63.8221 148.465C62.849 148.465 61.9901 148.699 61.2452 149.168C60.5004 149.624 59.9178 150.279 59.4973 151.132C59.0768 151.985 58.8666 153.006 58.8666 154.195C58.8666 155.397 59.0768 156.424 59.4973 157.277C59.9178 158.13 60.4884 158.784 61.2092 159.241C61.942 159.685 62.7769 159.908 63.714 159.908C64.1705 159.908 64.615 159.86 65.0474 159.764C65.4919 159.667 65.9184 159.505 66.3269 159.277L66.6512 157.042H67.354L67.2819 159.601C66.6933 159.938 66.1046 160.172 65.516 160.304C64.9393 160.448 64.3326 160.52 63.6959 160.52ZM82.2686 148.627V148.123H86.9718V148.627L85.1338 148.771C85.1218 149.576 85.1097 150.393 85.0977 151.222C85.0977 152.051 85.0977 152.88 85.0977 153.709V154.682C85.0977 155.511 85.0977 156.34 85.0977 157.169C85.1097 157.986 85.1218 158.802 85.1338 159.619L86.9718 159.764V160.268H82.2686V159.764L84.1066 159.619C84.1186 158.802 84.1246 157.956 84.1246 157.079C84.1246 156.19 84.1246 155.228 84.1246 154.195H77.4212C77.4212 155.313 77.4212 156.304 77.4212 157.169C77.4332 158.022 77.4453 158.838 77.4573 159.619L79.2953 159.764V160.268H74.5921V159.764L76.4301 159.619C76.4421 158.802 76.4482 157.986 76.4482 157.169C76.4482 156.34 76.4482 155.511 76.4482 154.682V153.709C76.4482 152.88 76.4482 152.057 76.4482 151.24C76.4482 150.411 76.4421 149.588 76.4301 148.771L74.5921 148.627V148.123H79.2953V148.627L77.4573 148.771C77.4453 149.576 77.4332 150.393 77.4212 151.222C77.4212 152.039 77.4212 152.844 77.4212 153.637H84.1246C84.1246 152.76 84.1246 151.925 84.1246 151.132C84.1246 150.327 84.1186 149.54 84.1066 148.771L82.2686 148.627ZM99.3414 160.52C98.3803 160.52 97.4913 160.268 96.6744 159.764C95.8695 159.259 95.2208 158.532 94.7283 157.583C94.2477 156.634 94.0075 155.505 94.0075 154.195C94.0075 152.898 94.2477 151.781 94.7283 150.844C95.2208 149.895 95.8695 149.162 96.6744 148.645C97.4913 148.129 98.3803 147.87 99.3414 147.87C100.314 147.87 101.203 148.129 102.008 148.645C102.825 149.15 103.474 149.877 103.954 150.826C104.447 151.763 104.693 152.886 104.693 154.195C104.693 155.493 104.447 156.616 103.954 157.565C103.474 158.502 102.825 159.229 102.008 159.745C101.203 160.262 100.314 160.52 99.3414 160.52ZM99.3414 159.908C100.026 159.908 100.633 159.758 101.161 159.457C101.69 159.145 102.134 158.724 102.495 158.196C102.855 157.655 103.126 157.042 103.306 156.358C103.486 155.673 103.576 154.952 103.576 154.195C103.576 153.439 103.486 152.718 103.306 152.033C103.126 151.348 102.855 150.736 102.495 150.195C102.134 149.654 101.69 149.234 101.161 148.934C100.633 148.621 100.026 148.465 99.3414 148.465C98.6566 148.465 98.0499 148.621 97.5214 148.934C97.0048 149.234 96.5663 149.654 96.2059 150.195C95.8455 150.736 95.5752 151.348 95.395 152.033C95.2148 152.718 95.1247 153.439 95.1247 154.195C95.1247 154.952 95.2148 155.673 95.395 156.358C95.5752 157.042 95.8455 157.655 96.2059 158.196C96.5663 158.724 97.0048 159.145 97.5214 159.457C98.0499 159.758 98.6566 159.908 99.3414 159.908ZM117.646 160.52C116.685 160.52 115.796 160.268 114.979 159.764C114.175 159.259 113.526 158.532 113.033 157.583C112.553 156.634 112.312 155.505 112.312 154.195C112.312 152.898 112.553 151.781 113.033 150.844C113.526 149.895 114.175 149.162 114.979 148.645C115.796 148.129 116.685 147.87 117.646 147.87C118.619 147.87 119.508 148.129 120.313 148.645C121.13 149.15 121.779 149.877 122.26 150.826C122.752 151.763 122.998 152.886 122.998 154.195C122.998 155.493 122.752 156.616 122.26 157.565C121.779 158.502 121.13 159.229 120.313 159.745C119.508 160.262 118.619 160.52 117.646 160.52ZM117.646 159.908C118.331 159.908 118.938 159.758 119.466 159.457C119.995 159.145 120.439 158.724 120.8 158.196C121.16 157.655 121.431 157.042 121.611 156.358C121.791 155.673 121.881 154.952 121.881 154.195C121.881 153.439 121.791 152.718 121.611 152.033C121.431 151.348 121.16 150.736 120.8 150.195C120.439 149.654 119.995 149.234 119.466 148.934C118.938 148.621 118.331 148.465 117.646 148.465C116.962 148.465 116.355 148.621 115.826 148.934C115.31 149.234 114.871 149.654 114.511 150.195C114.151 150.736 113.88 151.348 113.7 152.033C113.52 152.718 113.43 153.439 113.43 154.195C113.43 154.952 113.52 155.673 113.7 156.358C113.88 157.042 114.151 157.655 114.511 158.196C114.871 158.724 115.31 159.145 115.826 159.457C116.355 159.758 116.962 159.908 117.646 159.908ZM130.035 148.627V148.123H134.738V148.627L132.9 148.771C132.888 149.588 132.876 150.435 132.864 151.312C132.864 152.177 132.864 153.108 132.864 154.105V155.06C132.864 155.721 132.864 156.454 132.864 157.259C132.876 158.052 132.888 158.857 132.9 159.673H137.748L138.144 157.151H138.829L138.649 160.268H130.035V159.764L131.873 159.619C131.885 158.802 131.891 157.986 131.891 157.169C131.891 156.34 131.891 155.511 131.891 154.682V153.709C131.891 152.88 131.891 152.051 131.891 151.222C131.891 150.393 131.885 149.576 131.873 148.771L130.035 148.627Z" fill="#253541"/>
<path d="M1.56124 119.164L1.78054 112.512H22.5046L22.6874 119.164H20.1654L19.3978 114.449H14.5732C14.5488 115.984 14.5245 117.544 14.5001 119.128C14.5001 120.687 14.5001 122.259 14.5001 123.843V125.414C14.5001 126.95 14.5001 128.497 14.5001 130.056C14.5245 131.592 14.5488 133.127 14.5732 134.662L18.0089 135.027V136.745H6.23969V135.027L9.67543 134.662C9.72417 133.151 9.74853 131.628 9.74853 130.093C9.74853 128.533 9.74853 126.974 9.74853 125.414V123.843C9.74853 122.283 9.74853 120.724 9.74853 119.164C9.74853 117.581 9.72417 116.009 9.67543 114.449H4.88733L4.11977 119.164H1.56124ZM49.7041 114.376H47.3649C47.3405 115.936 47.3162 117.495 47.2918 119.055C47.2918 120.614 47.2918 122.174 47.2918 123.733H49.4117C51.3124 123.733 52.6647 123.27 53.4688 122.344C54.2973 121.418 54.7115 120.285 54.7115 118.945C54.7115 115.899 53.0424 114.376 49.7041 114.376ZM39.47 114.23V112.512H50.4717C53.3226 112.512 55.5157 113.06 57.0508 114.157C58.6103 115.253 59.39 116.776 59.39 118.726C59.39 119.603 59.1707 120.456 58.7321 121.284C58.3179 122.113 57.6478 122.832 56.7218 123.441C55.7959 124.05 54.5775 124.476 53.0668 124.72C54.6019 124.964 55.735 125.5 56.466 126.328C57.2213 127.157 57.7696 128.363 58.1107 129.947L59.2438 134.735L62.0582 135.027V136.745C61.449 136.916 60.9129 137.025 60.45 137.074C60.0114 137.147 59.4387 137.184 58.7321 137.184C57.3919 137.184 56.3441 136.964 55.5888 136.526C54.8578 136.087 54.3948 135.307 54.1998 134.187L53.1399 129.106C52.8718 127.742 52.4089 126.816 51.751 126.328C51.1174 125.817 50.1549 125.561 48.8635 125.561H47.2918C47.2918 127.193 47.2918 128.765 47.2918 130.276C47.3162 131.762 47.3405 133.236 47.3649 134.698L50.4717 135.027V136.745H39.47V135.027L42.5403 134.698C42.589 133.188 42.6134 131.652 42.6134 130.093C42.6134 128.533 42.6134 126.974 42.6134 125.414V123.843C42.6134 122.308 42.6134 120.773 42.6134 119.237C42.6134 117.678 42.589 116.118 42.5403 114.559L39.47 114.23ZM78.4333 114.23V112.512H96.8548L97.1106 118.909H94.5521L93.7845 114.449H86.3648C86.3404 115.984 86.3161 117.52 86.2917 119.055C86.2917 120.565 86.2917 121.991 86.2917 123.331H91.0067L91.4818 120.151H93.3825V128.412H91.4818L91.0432 125.268H86.2917C86.2917 127.023 86.2917 128.68 86.2917 130.239C86.3161 131.774 86.3404 133.297 86.3648 134.808H94.5155L95.2831 130.349H97.8416L97.5858 136.745H78.4333V135.027L81.5036 134.698C81.5523 133.188 81.5767 131.652 81.5767 130.093C81.5767 128.533 81.5767 126.974 81.5767 125.414V123.843C81.5767 122.308 81.5767 120.773 81.5767 119.237C81.5767 117.678 81.5523 116.118 81.5036 114.559L78.4333 114.23ZM163.79 125.122C163.79 126.803 163.79 128.448 163.79 130.056C163.814 131.665 163.839 133.261 163.863 134.844H165.946C168.432 134.844 170.357 133.955 171.721 132.176C173.086 130.398 173.768 127.888 173.768 124.647C173.768 121.309 173.098 118.762 171.758 117.008C170.418 115.253 168.554 114.376 166.166 114.376H163.863C163.839 115.936 163.814 117.507 163.79 119.091C163.79 120.675 163.79 122.259 163.79 123.843V125.122ZM155.932 114.23V112.512H166.751C169.212 112.512 171.344 112.987 173.147 113.938C174.974 114.888 176.388 116.265 177.387 118.068C178.386 119.871 178.885 122.052 178.885 124.61C178.885 127.193 178.337 129.386 177.241 131.189C176.144 132.993 174.633 134.369 172.708 135.32C170.783 136.27 168.566 136.745 166.056 136.745H155.932V135.027L159.002 134.698C159.051 133.163 159.075 131.604 159.075 130.02C159.075 128.436 159.075 126.803 159.075 125.122V123.843C159.075 122.308 159.075 120.773 159.075 119.237C159.075 117.678 159.051 116.118 159.002 114.559L155.932 114.23Z" fill="#253541"/>
<path d="M129.773 114.23V112.512H138.984V114.23L135.877 114.705V136.891H133.721L119.941 117.958V134.516L123.962 135.027V136.745H114.751V135.027L117.858 134.589V115.071L117.419 114.486L114.861 114.23V112.512H121.769L133.794 129.033V114.705L129.773 114.23Z" fill="#1F8110"/>
</svg>
