<svg width="100" height="100" viewBox="0 0 100 100" fill="none" xmlns="http://www.w3.org/2000/svg">
<g id="&#208;&#145;&#208;&#181;&#208;&#183; &#208;&#189;&#208;&#176;&#208;&#183;&#208;&#178;&#208;&#176;&#208;&#189;&#208;&#184;&#209;&#143; (59) 1">
<path id="Vector" d="M98.4848 15.6061C98.3333 15.1515 98.1818 14.8485 97.8788 14.697L79.2424 2.57575C78.4848 2.1212 77.5758 2.27272 77.1212 3.0303L71.9697 10.9091C71.6667 11.3636 71.6667 11.8182 71.8182 12.2727L73.1818 15.4545L50.6061 49.8485L47.2727 42.7273C47.2727 42.5758 46.9697 42.2727 46.6667 42.1212L34.2424 34.0909C33.4848 33.6364 32.5758 33.7879 32.1212 34.5454L28.1818 40.4545L14.8485 61.2121L10.303 68.0303L1.66667 81.2121C1.36363 81.9697 1.51515 82.8788 2.27273 83.3333L14.697 91.3636C15.4545 91.8182 16.3636 91.6667 16.8182 90.9091L23.0303 81.3636L26.2121 87.8788C26.2121 88.3333 26.3636 88.9394 26.8182 89.0909L39.5455 97.4242C40.303 97.8788 41.2121 97.7273 41.6667 96.9697C47.4242 88.3333 82.2727 34.8485 88.0303 25.7576L91.8182 25.4545C92.2727 25.4545 92.7273 25.1515 92.8788 24.8485L98.1818 16.8182C98.4848 16.3636 98.4848 15.9091 98.4848 15.6061ZM15 88.0303L5.15151 81.5151L7.57576 77.8788L10.303 79.697C11.0606 80.1515 11.9697 80 12.4242 79.2424C12.8788 78.4848 12.7273 77.5758 11.9697 77.1212L9.24242 75.303L12.1212 70.9091L14.8485 72.7273C15.6061 73.1818 16.5151 73.0303 16.9697 72.2727C17.4242 71.5151 17.2727 70.606 16.5151 70.1515L13.7879 68.3333L16.6667 63.9394L22.1212 67.5757C22.8788 68.0303 23.7879 67.8788 24.2424 67.1212C24.697 66.3636 24.5455 65.4545 23.7879 65L18.1818 61.5151L21.0606 57.1212L23.7879 58.9394C24.5455 59.3939 25.4545 59.2424 25.9091 58.4848C26.3636 57.7273 26.2121 56.8182 25.4545 56.3636L22.7273 54.5454L25.6061 50.1515L28.3333 51.9697C29.0909 52.4242 30 52.2727 30.4545 51.5151C30.9091 50.7576 30.7576 49.8485 30 49.3939L27.2727 47.7273L30.1515 43.3333L35.6061 46.9697C36.3636 47.4242 37.2727 47.2727 37.7273 46.5151C38.1818 45.7576 38.0303 44.8485 37.2727 44.3939L31.6667 40.9091L33.9394 37.5757L43.7879 44.0909L21.9697 77.5758L15 88.0303ZM45.7576 46.5151L48.7879 52.7273L27.8788 84.5454L24.8485 78.3333L45.7576 46.5151ZM82.1212 29.5454L76.2121 25.7576C75.4545 25.303 74.5455 25.4545 74.0909 26.2121C73.6364 26.9697 73.7879 27.8788 74.5455 28.3333L80.4545 32.1212L77.4242 36.6667L74.0909 34.5454C73.3333 34.0909 72.4242 34.2424 71.9697 35C71.5152 35.7576 71.6667 36.6667 72.4242 37.1212L75.7576 39.2424L72.7273 43.7879L69.3939 41.6667C68.6364 41.2121 67.7273 41.3636 67.2727 42.1212C66.8182 42.8788 66.9697 43.7879 67.7273 44.2424L71.0606 46.3636L67.8788 51.2121L62.1212 47.2727C61.3636 46.8182 60.4545 46.9697 60 47.7273C59.5454 48.4848 59.697 49.3939 60.4545 49.8485L66.3636 53.6364L63.3333 58.1818L60 56.0606C59.2424 55.6061 58.3333 55.7576 57.8788 56.5151C57.4242 57.2727 57.5758 58.1818 58.3333 58.6364L61.6667 60.7576L58.6364 65.303L55.303 63.1818C54.5455 62.7273 53.6364 62.8788 53.1818 63.6364C52.7273 64.3939 52.8788 65.303 53.6364 65.7576L56.9697 67.8788L53.7879 72.7273L47.8788 68.9394C47.1212 68.4848 46.2121 68.6364 45.7576 69.3939C45.303 70.1515 45.4545 71.0606 46.2121 71.5151L52.1212 75.303L49.0909 79.8485L45.7576 77.7273C45 77.2727 44.0909 77.4242 43.6364 78.1818C43.1818 78.9394 43.3333 79.8485 44.0909 80.303L47.4242 82.4242L44.3939 86.9697L41.0606 84.8485C40.303 84.3939 39.3939 84.5454 38.9394 85.303C38.4848 86.0606 38.6364 86.9697 39.3939 87.4242L42.7273 89.5454L39.697 94.0909L29.5455 87.4242L74.3939 18.6364L74.697 18.9394L84.5454 25.303L82.1212 29.5454ZM90.9091 22.4242L86.3636 22.8788L76.9697 16.6667L75 11.6667L78.7879 5.75757L94.8485 16.2121L90.9091 22.4242Z" fill="#CBB79B"/>
<path id="Vector_2" d="M80 14.5454L86.3636 18.6363C86.6667 18.7879 86.9697 18.9394 87.1212 18.9394C87.5758 18.9394 88.0303 18.6363 88.3333 18.1818C88.7879 17.4242 88.6364 16.5151 87.8788 16.0606L81.5151 11.9697C80.7576 11.5151 79.8485 11.6666 79.3939 12.4242C79.0909 13.1818 79.3939 14.0909 80 14.5454Z" fill="#CBB79B"/>
</g>
</svg>
