<svg width="100" height="100" viewBox="0 0 100 100" fill="none" xmlns="http://www.w3.org/2000/svg">
<g id="&#208;&#145;&#208;&#181;&#208;&#183; &#208;&#189;&#208;&#176;&#208;&#183;&#208;&#178;&#208;&#176;&#208;&#189;&#208;&#184;&#209;&#143; (58) 1">
<path id="Vector" d="M63.6364 96.0606C63.9394 95.303 63.6364 94.3939 62.8788 94.0909C56.9697 91.5151 52.4242 83.0303 51.6667 81.3636V68.3333C56.0606 68.1818 60.4545 67.1212 64.8485 65.4545C65.1515 65.303 65.303 65.1515 65.4545 65C65.7576 64.697 71.8182 56.0606 63.1818 41.8182C60.1515 36.8182 60.6061 31.5151 64.5455 26.8182C64.5455 26.8182 69.697 18.3333 68.4849 15.4545C68.1818 14.697 67.4242 14.0909 66.6667 14.0909C57.8788 13.0303 58.3333 11.0606 58.0303 7.42423C58.0303 6.96968 57.7273 6.51514 57.2727 6.21211C56.8182 5.90908 56.3636 5.90908 55.9091 6.21211C54.3939 6.96968 53.0303 7.42423 51.5152 7.57574V3.03029C51.5152 2.1212 50.9091 1.51514 50 1.51514C49.0909 1.51514 48.4849 2.1212 48.4849 3.03029V7.57574C47.1212 7.42423 45.7576 6.96968 44.2424 6.21211C43.9394 6.06059 43.3333 6.06059 42.8788 6.36362C42.4242 6.51514 42.1212 7.1212 42.1212 7.57574C41.9697 9.84847 42.7273 13.0303 33.4849 14.0909C32.5758 14.0909 31.9697 14.697 31.5152 15.4545C30.1515 18.3333 33.7879 26.3636 33.9394 26.6667C38.0303 32.4242 38.9394 37.4242 36.6667 41.8182C28.9394 56.3636 34.2424 64.5454 34.3939 64.8485C34.5455 65.1515 34.8485 65.303 35.1515 65.4545C39.5455 67.2727 44.0909 68.1818 48.4849 68.3333V80.9091C48.4849 81.0606 43.7879 91.0606 37.1212 93.9394C36.3636 94.2424 36.0606 95.1515 36.3636 95.9091C36.6667 96.6666 37.5758 96.9697 38.3333 96.6666C42.7273 94.697 46.2121 90.4545 48.4849 86.9697V96.9697C48.4849 97.8788 49.0909 98.4848 50 98.4848C50.9091 98.4848 51.5152 97.8788 51.5152 96.9697V87.4242C53.7879 90.7576 57.2727 95 61.5152 96.8182C62.4242 97.1212 63.3333 96.8182 63.6364 96.0606ZM39.5455 43.3333C42.4242 38.0303 41.3636 31.6667 36.6667 25C36.0606 23.6363 34.2424 18.6363 34.3939 16.9697C39.3939 16.3636 44.5455 14.697 45.1515 9.69695C48.4848 10.9091 51.9697 10.9091 55.303 9.69695C55.9091 13.0303 56.6667 15.606 65.7576 16.9697C65.4546 18.7879 63.0303 23.6363 62.4242 24.8485C57.7273 30.606 57.1212 37.1212 60.9091 43.3333C67.5758 54.3939 64.3939 61.2121 63.4849 62.8788C54.8485 66.2121 45.9091 66.2121 37.1212 62.8788C36.0606 61.2121 33.4849 54.5454 39.5455 43.3333Z" fill="#CBB79B"/>
</g>
</svg>
