<svg width="181" height="161" viewBox="0 0 181 161" fill="none" xmlns="http://www.w3.org/2000/svg">
<path d="M78.0683 83.098C75.9194 83.098 73.7705 83.098 71.7505 82.7787C70.6088 82.5544 69.5434 82.0416 68.6557 81.2894C67.7681 80.5371 67.0876 79.5703 66.679 78.4809C65.6598 75.9574 66.9983 73.6549 69.7182 73.612C71.5049 73.5751 72.5118 73.1576 73.0644 71.3709C73.617 69.5843 75.0475 68.915 76.8342 68.915C78.7867 68.915 80.5181 69.836 80.9295 71.6595C81.39 73.7532 81.2365 76.0126 81.0769 78.1739C81.04 78.6896 79.9287 79.4694 79.2349 79.5246C77.248 79.674 75.2523 79.6638 73.267 79.4939C71.0935 79.322 69.4296 78.3151 68.9691 75.8407L68.2446 76.0556C68.2876 76.7985 68.1219 77.6458 68.4166 78.2721C68.8177 79.2414 69.5 80.0682 70.3755 80.6461C71.251 81.2239 72.2795 81.5262 73.3284 81.5139C76.2633 81.3973 79.4314 81.256 82.0408 80.0956C94.5414 74.5698 104.144 65.8021 109.67 53.1111C116.657 37.0985 107.251 17.2976 90.483 12.4226C89.9857 12.2752 89.4638 12.2138 88.6411 12.0542C88.5735 15.2469 89.12 18.0159 90.876 21.3314C91.6264 19.2099 92.242 17.4618 92.8706 15.6914C92.9676 15.418 93.243 15.2499 93.5306 15.2885L94.9947 15.4849C95.3112 15.5274 95.5424 15.8036 95.5262 16.1224C94.9342 27.8006 93.9784 41.696 93.4547 53.3137C93.203 58.6738 92.7867 66.9932 92.7867 72.3533C92.7867 72.3533 91.5759 72.9673 88.9972 74.4163C88.7086 69.9588 88.3832 65.6364 88.1561 61.3078C87.3374 45.2993 86.4594 27.5818 85.7431 11.5691C85.7431 11.5691 84.9511 11.5078 83.6433 11.6305C74.5748 12.4594 67.864 21.5648 69.6568 30.7868C71.1856 38.6273 75.4896 44.8592 81.2242 50.2316C82.1882 51.1343 83.0106 52.1836 83.8795 53.1868C84.0298 53.3603 84.026 53.6198 83.8684 53.7867C83.7289 53.9345 83.5064 53.9689 83.331 53.8661C82.6839 53.4868 82.0604 53.0686 81.4637 52.6138C76.5385 48.4115 72.6066 43.1691 69.9515 37.2643C66.679 29.743 67.1517 22.4612 72.2232 15.7749C76.8404 10.6482 85.5221 9.72719 85.5221 9.72719C85.5221 9.72719 85.7431 4.20136 86.8237 2.42083C87.4868 0.824475 88.9665 -0.550844 90.8085 -0.0350996C92.1899 0.363988 93.9766 1.42004 94.4125 2.61116C95.2537 4.90745 95.5668 10.3412 95.5545 12.7971C95.5454 12.5761 97.6298 13.8716 97.6298 13.8716C106.968 20.0114 112.979 28.4168 113.704 39.8491C114.226 47.9046 111.211 55.0268 106.876 61.6271C103.474 66.7611 99.1748 71.2409 94.1854 74.8522C93.8494 75.0801 93.3476 75.5332 92.9782 75.8806C92.6636 76.1766 92.4751 76.5798 92.4353 77.0099L92.3004 78.4686C91.8645 86.3459 91.5759 93.9962 90.9619 101.824C90.4331 95.3465 89.4489 82.8976 89.186 79.5684C89.1531 79.1519 88.7236 78.898 88.3381 79.0589L79.9103 82.5761C79.2963 82.8524 78.9832 83.7427 78.5657 84.3689C76.7237 87.1134 74.9432 89.6 73.0644 92.3077C72.5115 92.6983 71.8329 92.0233 72.2206 91.4683L78.0683 83.098ZM90.483 3.58738C90.5493 3.65658 89.6364 5.46786 89.12 7.27127C88.6875 8.7817 88.6411 10.3412 88.6411 10.3412C88.6411 10.3412 91.1093 10.949 92.7179 11.692C92.9574 8.41943 90.483 3.58738 90.483 3.58738Z" fill="#253541"/>
<path d="M73.4642 79.2634L73.4593 79.263C72.7243 79.2049 71.5684 78.9928 70.3211 78.6229C68.9195 78.2072 68.4169 77.197 68.4984 76.3297C68.5806 75.4555 69.275 74.5297 70.7335 74.3425C71.5711 74.235 72.308 74.1192 72.8363 73.6171C73.1024 73.3642 73.273 73.0573 73.4083 72.7361C73.5409 72.4213 73.6621 72.0359 73.7976 71.5977C74.0223 70.8712 74.4053 70.4172 74.8818 70.1308C75.3753 69.8343 76.0293 69.6825 76.8342 69.6825C78.5852 69.6825 79.8774 70.488 80.1804 71.8266C80.6083 73.7741 80.4749 75.8989 80.3159 78.057C80.308 78.0689 80.2958 78.0859 80.2778 78.1079C80.21 78.1905 80.0992 78.2942 79.9532 78.3995C79.6395 78.6258 79.3243 78.7471 79.1751 78.7595C78.4414 78.8148 77.7094 78.9212 77.014 79.0223C76.7413 79.0619 76.4741 79.1007 76.2147 79.1354C75.2686 79.2616 74.3724 79.3411 73.4642 79.2634Z" fill="#289017" stroke="#253541" stroke-width="1.53495"/>
<path d="M45.7173 160.52C45.0205 160.52 44.3718 160.424 43.7712 160.232C43.1705 160.028 42.678 159.8 42.2935 159.547L42.3836 157.187H43.0323L43.3026 159.277C43.6871 159.505 44.0595 159.667 44.4199 159.764C44.7923 159.86 45.2188 159.908 45.6993 159.908C46.6363 159.908 47.3992 159.697 47.9878 159.277C48.5885 158.844 48.8888 158.208 48.8888 157.367C48.8888 156.946 48.8047 156.586 48.6365 156.286C48.4804 155.973 48.2101 155.691 47.8257 155.439C47.4412 155.174 46.9126 154.91 46.2399 154.646L45.5732 154.376C44.6241 153.991 43.8973 153.529 43.3927 152.988C42.9002 152.447 42.6539 151.769 42.6539 150.952C42.6539 150.255 42.8221 149.684 43.1585 149.24C43.5069 148.783 43.9574 148.441 44.51 148.213C45.0746 147.984 45.6813 147.87 46.33 147.87C46.9667 147.87 47.5073 147.954 47.9518 148.123C48.4083 148.279 48.8408 148.495 49.2492 148.771L49.1771 151.006H48.5104L48.2401 148.97C47.6875 148.633 47.0448 148.465 46.312 148.465C45.5071 148.465 44.8403 148.657 44.3118 149.042C43.7952 149.414 43.5369 149.991 43.5369 150.772C43.5369 151.42 43.7291 151.943 44.1135 152.339C44.51 152.736 45.0566 153.072 45.7534 153.348L46.4561 153.619C47.3211 153.955 47.9938 154.297 48.4744 154.646C48.9549 154.994 49.2913 155.379 49.4835 155.799C49.6757 156.208 49.7718 156.688 49.7718 157.241C49.7718 157.913 49.5976 158.496 49.2492 158.989C48.9008 159.481 48.4203 159.86 47.8076 160.124C47.195 160.388 46.4982 160.52 45.7173 160.52ZM63.1346 160.52C61.9453 160.52 60.9061 160.256 60.0171 159.727C59.1281 159.187 58.4314 158.442 57.9268 157.493C57.4343 156.532 57.188 155.433 57.188 154.195C57.188 152.958 57.4403 151.865 57.9448 150.916C58.4614 149.967 59.1642 149.222 60.0532 148.681C60.9542 148.141 61.9813 147.87 63.1346 147.87C63.7713 147.87 64.3599 147.942 64.9005 148.087C65.4532 148.219 66.0118 148.453 66.5764 148.789L66.6485 151.33H65.9457L65.6213 149.132C64.9005 148.687 64.1137 148.465 63.2607 148.465C62.2876 148.465 61.4287 148.699 60.6839 149.168C59.939 149.624 59.3564 150.279 58.9359 151.132C58.5155 151.985 58.3052 153.006 58.3052 154.195C58.3052 155.397 58.5155 156.424 58.9359 157.277C59.3564 158.13 59.927 158.784 60.6478 159.241C61.3806 159.685 62.2156 159.908 63.1526 159.908C63.6091 159.908 64.0536 159.86 64.4861 159.764C64.9306 159.667 65.357 159.505 65.7655 159.277L66.0899 157.042H66.7926L66.7206 159.601C66.1319 159.938 65.5432 160.172 64.9546 160.304C64.378 160.448 63.7713 160.52 63.1346 160.52ZM81.7072 148.627V148.123H86.4104V148.627L84.5724 148.771C84.5604 149.576 84.5484 150.393 84.5364 151.222C84.5364 152.051 84.5364 152.88 84.5364 153.709V154.682C84.5364 155.511 84.5364 156.34 84.5364 157.169C84.5484 157.986 84.5604 158.802 84.5724 159.619L86.4104 159.764V160.268H81.7072V159.764L83.5453 159.619C83.5573 158.802 83.5633 157.956 83.5633 157.079C83.5633 156.19 83.5633 155.228 83.5633 154.195H76.8599C76.8599 155.313 76.8599 156.304 76.8599 157.169C76.8719 158.022 76.8839 158.838 76.8959 159.619L78.7339 159.764V160.268H74.0307V159.764L75.8688 159.619C75.8808 158.802 75.8868 157.986 75.8868 157.169C75.8868 156.34 75.8868 155.511 75.8868 154.682V153.709C75.8868 152.88 75.8868 152.057 75.8868 151.24C75.8868 150.411 75.8808 149.588 75.8688 148.771L74.0307 148.627V148.123H78.7339V148.627L76.8959 148.771C76.8839 149.576 76.8719 150.393 76.8599 151.222C76.8599 152.039 76.8599 152.844 76.8599 153.637H83.5633C83.5633 152.76 83.5633 151.925 83.5633 151.132C83.5633 150.327 83.5573 149.54 83.5453 148.771L81.7072 148.627ZM98.78 160.52C97.819 160.52 96.93 160.268 96.1131 159.764C95.3082 159.259 94.6595 158.532 94.1669 157.583C93.6864 156.634 93.4461 155.505 93.4461 154.195C93.4461 152.898 93.6864 151.781 94.1669 150.844C94.6595 149.895 95.3082 149.162 96.1131 148.645C96.93 148.129 97.819 147.87 98.78 147.87C99.7531 147.87 100.642 148.129 101.447 148.645C102.264 149.15 102.913 149.877 103.393 150.826C103.886 151.763 104.132 152.886 104.132 154.195C104.132 155.493 103.886 156.616 103.393 157.565C102.913 158.502 102.264 159.229 101.447 159.745C100.642 160.262 99.7531 160.52 98.78 160.52ZM98.78 159.908C99.4648 159.908 100.071 159.758 100.6 159.457C101.129 159.145 101.573 158.724 101.934 158.196C102.294 157.655 102.564 157.042 102.744 156.358C102.925 155.673 103.015 154.952 103.015 154.195C103.015 153.439 102.925 152.718 102.744 152.033C102.564 151.348 102.294 150.736 101.934 150.195C101.573 149.654 101.129 149.234 100.6 148.934C100.071 148.621 99.4648 148.465 98.78 148.465C98.0953 148.465 97.4886 148.621 96.96 148.934C96.4434 149.234 96.0049 149.654 95.6445 150.195C95.2841 150.736 95.0138 151.348 94.8336 152.033C94.6534 152.718 94.5633 153.439 94.5633 154.195C94.5633 154.952 94.6534 155.673 94.8336 156.358C95.0138 157.042 95.2841 157.655 95.6445 158.196C96.0049 158.724 96.4434 159.145 96.96 159.457C97.4886 159.758 98.0953 159.908 98.78 159.908ZM117.085 160.52C116.124 160.52 115.235 160.268 114.418 159.764C113.613 159.259 112.964 158.532 112.472 157.583C111.991 156.634 111.751 155.505 111.751 154.195C111.751 152.898 111.991 151.781 112.472 150.844C112.964 149.895 113.613 149.162 114.418 148.645C115.235 148.129 116.124 147.87 117.085 147.87C118.058 147.87 118.947 148.129 119.752 148.645C120.569 149.15 121.218 149.877 121.698 150.826C122.191 151.763 122.437 152.886 122.437 154.195C122.437 155.493 122.191 156.616 121.698 157.565C121.218 158.502 120.569 159.229 119.752 159.745C118.947 160.262 118.058 160.52 117.085 160.52ZM117.085 159.908C117.77 159.908 118.376 159.758 118.905 159.457C119.434 159.145 119.878 158.724 120.239 158.196C120.599 157.655 120.869 157.042 121.049 156.358C121.23 155.673 121.32 154.952 121.32 154.195C121.32 153.439 121.23 152.718 121.049 152.033C120.869 151.348 120.599 150.736 120.239 150.195C119.878 149.654 119.434 149.234 118.905 148.934C118.376 148.621 117.77 148.465 117.085 148.465C116.4 148.465 115.794 148.621 115.265 148.934C114.748 149.234 114.31 149.654 113.95 150.195C113.589 150.736 113.319 151.348 113.139 152.033C112.958 152.718 112.868 153.439 112.868 154.195C112.868 154.952 112.958 155.673 113.139 156.358C113.319 157.042 113.589 157.655 113.95 158.196C114.31 158.724 114.748 159.145 115.265 159.457C115.794 159.758 116.4 159.908 117.085 159.908ZM129.474 148.627V148.123H134.177V148.627L132.339 148.771C132.327 149.588 132.315 150.435 132.303 151.312C132.303 152.177 132.303 153.108 132.303 154.105V155.06C132.303 155.721 132.303 156.454 132.303 157.259C132.315 158.052 132.327 158.857 132.339 159.673H137.186L137.583 157.151H138.267L138.087 160.268H129.474V159.764L131.312 159.619C131.324 158.802 131.33 157.986 131.33 157.169C131.33 156.34 131.33 155.511 131.33 154.682V153.709C131.33 152.88 131.33 152.051 131.33 151.222C131.33 150.393 131.324 149.576 131.312 148.771L129.474 148.627Z" fill="#253541"/>
<path d="M0.999838 119.165L1.21914 112.512H21.9432L22.126 119.165H19.604L18.8364 114.45H14.0118C13.9874 115.985 13.9631 117.544 13.9387 119.128C13.9387 120.688 13.9387 122.259 13.9387 123.843V125.415C13.9387 126.95 13.9387 128.497 13.9387 130.057C13.9631 131.592 13.9874 133.127 14.0118 134.662L17.4475 135.027V136.745H5.67829V135.027L9.11403 134.662C9.16277 133.151 9.18713 131.628 9.18713 130.093C9.18713 128.534 9.18713 126.974 9.18713 125.415V123.843C9.18713 122.284 9.18713 120.724 9.18713 119.165C9.18713 117.581 9.16277 116.009 9.11403 114.45H4.32593L3.55837 119.165H0.999838ZM49.1427 114.377H46.8035C46.7791 115.936 46.7548 117.495 46.7304 119.055C46.7304 120.614 46.7304 122.174 46.7304 123.733H48.8503C50.751 123.733 52.1033 123.27 52.9074 122.344C53.7359 121.419 54.1501 120.285 54.1501 118.945C54.1501 115.899 52.481 114.377 49.1427 114.377ZM38.9086 114.23V112.512H49.9103C52.7612 112.512 54.9543 113.061 56.4894 114.157C58.0489 115.254 58.8286 116.777 58.8286 118.726C58.8286 119.603 58.6093 120.456 58.1707 121.285C57.7565 122.113 57.0864 122.832 56.1604 123.441C55.2345 124.05 54.0161 124.477 52.5054 124.72C54.0405 124.964 55.1736 125.5 55.9046 126.328C56.6599 127.157 57.2082 128.363 57.5493 129.947L58.6824 134.735L61.4968 135.027V136.745C60.8876 136.916 60.3515 137.026 59.8886 137.074C59.45 137.147 58.8773 137.184 58.1707 137.184C56.8305 137.184 55.7827 136.965 55.0274 136.526C54.2963 136.087 53.8334 135.308 53.6384 134.187L52.5785 129.106C52.3104 127.742 51.8475 126.816 51.1896 126.328C50.556 125.817 49.5935 125.561 48.3021 125.561H46.7304C46.7304 127.194 46.7304 128.765 46.7304 130.276C46.7548 131.762 46.7791 133.237 46.8035 134.699L49.9103 135.027V136.745H38.9086V135.027L41.9789 134.699C42.0276 133.188 42.052 131.653 42.052 130.093C42.052 128.534 42.052 126.974 42.052 125.415V123.843C42.052 122.308 42.052 120.773 42.052 119.238C42.052 117.678 42.0276 116.119 41.9789 114.559L38.9086 114.23ZM77.8719 114.23V112.512H96.2934L96.5492 118.909H93.9907L93.2231 114.45H85.8034C85.779 115.985 85.7547 117.52 85.7303 119.055C85.7303 120.566 85.7303 121.991 85.7303 123.331H90.4453L90.9204 120.151H92.8211V128.412H90.9204L90.4818 125.269H85.7303C85.7303 127.023 85.7303 128.68 85.7303 130.239C85.7547 131.775 85.779 133.297 85.8034 134.808H93.9541L94.7217 130.349H97.2802L97.0244 136.745H77.8719V135.027L80.9422 134.699C80.9909 133.188 81.0153 131.653 81.0153 130.093C81.0153 128.534 81.0153 126.974 81.0153 125.415V123.843C81.0153 122.308 81.0153 120.773 81.0153 119.238C81.0153 117.678 80.9909 116.119 80.9422 114.559L77.8719 114.23ZM163.229 125.122C163.229 126.804 163.229 128.448 163.229 130.057C163.253 131.665 163.277 133.261 163.302 134.845H165.385C167.871 134.845 169.795 133.955 171.16 132.177C172.525 130.398 173.207 127.888 173.207 124.647C173.207 121.309 172.537 118.763 171.197 117.008C169.856 115.254 167.992 114.377 165.604 114.377H163.302C163.277 115.936 163.253 117.508 163.229 119.092C163.229 120.675 163.229 122.259 163.229 123.843V125.122ZM155.37 114.23V112.512H166.189C168.65 112.512 170.782 112.988 172.586 113.938C174.413 114.888 175.826 116.265 176.825 118.068C177.824 119.871 178.324 122.052 178.324 124.611C178.324 127.194 177.776 129.387 176.679 131.19C175.583 132.993 174.072 134.37 172.147 135.32C170.222 136.27 168.005 136.745 165.495 136.745H155.37V135.027L158.44 134.699C158.489 133.163 158.514 131.604 158.514 130.02C158.514 128.436 158.514 126.804 158.514 125.122V123.843C158.514 122.308 158.514 120.773 158.514 119.238C158.514 117.678 158.489 116.119 158.44 114.559L155.37 114.23Z" fill="#253541"/>
<path d="M129.212 114.23V112.512H138.423V114.23L135.316 114.705V136.892H133.159L119.38 117.958V134.516L123.4 135.027V136.745H114.19V135.027L117.296 134.589V115.071L116.858 114.486L114.299 114.23V112.512H121.207L133.232 129.033V114.705L129.212 114.23Z" fill="#1F8110"/>
</svg>
